<svg xmlns="http://www.w3.org/2000/svg" viewBox="0 0 1600 900" width="1600" height="900" role="img" aria-labelledby="title desc">
  <title id="title">Synaptogenesis and pruning across brain regions</title>
  <desc id="desc">A line chart shows relative synaptic density by age for visual cortex, auditory cortex, and prefrontal cortex. All curves overshoot adult level and then prune back; prefrontal cortex settles later into adolescence.</desc>

  <defs>
    <style>
      .bg { fill: #fbfbf8; }
      .title { font-family: Arial, Helvetica, sans-serif; font-size: 48px; font-weight: 700; fill: #1f2f46; }
      .subtitle { font-family: Arial, Helvetica, sans-serif; font-size: 27px; fill: #4d5a6b; }
      .panel-title { font-family: Arial, Helvetica, sans-serif; font-size: 31px; font-weight: 700; fill: #1f2f46; }
      .label { font-family: Arial, Helvetica, sans-serif; font-size: 25px; font-weight: 700; fill: #1f2f46; }
      .body { font-family: Arial, Helvetica, sans-serif; font-size: 24px; fill: #1f2f46; }
      .small { font-family: Arial, Helvetica, sans-serif; font-size: 21px; fill: #4d5a6b; }
      .tiny { font-family: Arial, Helvetica, sans-serif; font-size: 18px; fill: #5e6978; }
      .axis { stroke: #2f4058; stroke-width: 3; fill: none; }
      .grid { stroke: #d8dddf; stroke-width: 2; fill: none; }
      .dash { stroke-dasharray: 10 10; }
      .card { fill: #ffffff; stroke: #d8dddf; stroke-width: 2.5; }
      .shadow { filter: drop-shadow(0 6px 10px rgba(35, 45, 60, 0.13)); }
      .takeaway { font-family: Arial, Helvetica, sans-serif; font-size: 24px; fill: #1f2f46; }
      .white-title { font-family: Arial, Helvetica, sans-serif; font-size: 28px; font-weight: 700; fill: #ffffff; }
      .white-small { font-family: Arial, Helvetica, sans-serif; font-size: 21px; fill: #ffffff; }
    </style>
    <marker id="arrowhead-soft" markerWidth="14" markerHeight="14" refX="12" refY="7" orient="auto">
      <path d="M0,0 L14,7 L0,14 Z" fill="#7a8da0" />
    </marker>
  </defs>
  <rect class="bg" x="0" y="0" width="1600" height="900"/>

<text class="title" x="80" y="82">The brain overbuilds, then prunes</text>
<text class="subtitle" x="82" y="124">Synapses are overproduced in early childhood, then cut back on different regional clocks.</text>
<g class="shadow" transform="translate(105,165)">
  <rect class="card" x="0" y="0" width="1390" height="610" rx="30"/>
  <rect x="735" y="70" width="245" height="435" rx="16" fill="#f0eaf4" opacity="0.62"/>
  <text class="small" x="760" y="102">adolescence:</text>
  <text class="small" x="760" y="130">PFC still pruning</text>
  <line class="grid dash" x1="120" y1="292" x2="1250" y2="292" stroke="#7a8da0"/>
  <text class="small" x="1264" y="299">Adult level</text>
  <path class="axis" d="M120 505 L1250 505 M120 505 L120 70"/>
  <text class="label" x="682" y="570" text-anchor="middle">Age</text>
  <text class="label" x="-302" y="48" transform="rotate(-90)">Relative synaptic density</text>
  <g class="tiny" text-anchor="middle">
    <line class="grid" x1="120" y1="505" x2="120" y2="516"/><text x="120" y="542">Birth</text>
    <line class="grid" x1="290" y1="505" x2="290" y2="516"/><text x="290" y="542">1 yr</text>
    <line class="grid" x1="430" y1="505" x2="430" y2="516"/><text x="430" y="542">3 yr</text>
    <line class="grid" x1="570" y1="505" x2="570" y2="516"/><text x="570" y="542">6 yr</text>
    <line class="grid" x1="760" y1="505" x2="760" y2="516"/><text x="760" y="542">11 yr</text>
    <line class="grid" x1="1250" y1="505" x2="1250" y2="516"/><text x="1250" y="542">Adult</text>
  </g>
  <path d="M120 430 C170 250, 245 110, 305 138 C395 180, 510 255, 640 292 C840 312, 1075 296, 1250 292" fill="none" stroke="#456c86" stroke-width="8" stroke-linecap="round"/>
  <path d="M120 440 C180 265, 270 126, 338 150 C438 190, 560 265, 700 292 C910 306, 1110 296, 1250 292" fill="none" stroke="#8b6f42" stroke-width="8" stroke-linecap="round"/>
  <path d="M120 462 C210 340, 350 175, 490 158 C650 138, 760 170, 845 218 C970 288, 1100 302, 1250 292" fill="none" stroke="#7b5b91" stroke-width="9" stroke-linecap="round"/>
  <g transform="translate(950,335)">
    <rect x="0" y="0" width="330" height="130" rx="18" fill="#ffffff" stroke="#d8dddf" stroke-width="2"/>
    <line x1="22" y1="34" x2="88" y2="34" stroke="#456c86" stroke-width="8" stroke-linecap="round"/><text class="small" x="105" y="42">Visual cortex</text>
    <line x1="22" y1="69" x2="88" y2="69" stroke="#8b6f42" stroke-width="8" stroke-linecap="round"/><text class="small" x="105" y="77">Auditory cortex</text>
    <line x1="22" y1="104" x2="88" y2="104" stroke="#7b5b91" stroke-width="8" stroke-linecap="round"/><text class="small" x="105" y="112">Prefrontal cortex</text>
  </g>
</g>
<g transform="translate(120,805)"><rect x="0" y="0" width="1360" height="54" rx="27" fill="#f2f5f6" stroke="#cfd7db" stroke-width="2"/><text class="takeaway" x="680" y="36" text-anchor="middle">Use it or lose it: experience keeps used connections and prunes quiet ones.</text></g>

</svg>
