<svg xmlns="http://www.w3.org/2000/svg" viewBox="0 0 1600 900" width="1600" height="900" role="img" aria-labelledby="title desc">
  <title id="title">Vygotsky's zone of proximal development and scaffolding</title>
  <desc id="desc">A target-style diagram shows three learning zones: what a learner can do alone, what the learner can do with calibrated support, and what is not yet reachable. A side sequence shows scaffolding being gradually removed as independent competence grows.</desc>

  <defs>
    <style>
      .bg { fill: #fbfbf8; }
      .title { font-family: Arial, Helvetica, sans-serif; font-size: 48px; font-weight: 700; fill: #1f2f46; }
      .subtitle { font-family: Arial, Helvetica, sans-serif; font-size: 27px; fill: #4d5a6b; }
      .zone-title { font-family: Arial, Helvetica, sans-serif; font-size: 31px; font-weight: 700; fill: #1f2f46; }
      .zone-text { font-family: Arial, Helvetica, sans-serif; font-size: 25px; fill: #23364f; }
      .small { font-family: Arial, Helvetica, sans-serif; font-size: 22px; fill: #4d5a6b; }
      .label { font-family: Arial, Helvetica, sans-serif; font-size: 26px; font-weight: 700; fill: #1f2f46; }
      .support-label { font-family: Arial, Helvetica, sans-serif; font-size: 24px; font-weight: 700; fill: #ffffff; }
      .support-small { font-family: Arial, Helvetica, sans-serif; font-size: 20px; fill: #ffffff; }
      .caption-title { font-family: Arial, Helvetica, sans-serif; font-size: 29px; font-weight: 700; fill: #1f2f46; }
      .caption { font-family: Arial, Helvetica, sans-serif; font-size: 24px; fill: #1f2f46; }
      .card { fill: #ffffff; stroke: #d8dddf; stroke-width: 2.5; }
      .shadow { filter: drop-shadow(0 6px 10px rgba(35, 45, 60, 0.13)); }
      .arrow { stroke: #4d657c; stroke-width: 5; stroke-linecap: round; fill: none; marker-end: url(#arrowhead); }
      .dash { stroke-dasharray: 10 10; }
    </style>
    <marker id="arrowhead" markerWidth="12" markerHeight="12" refX="10" refY="6" orient="auto">
      <path d="M0,0 L12,6 L0,12 Z" fill="#4d657c" />
    </marker>
    <linearGradient id="supportGrad" x1="0" x2="1" y1="0" y2="0">
      <stop offset="0%" stop-color="#597a94" />
      <stop offset="100%" stop-color="#7a9a6a" />
    </linearGradient>
  </defs>

  <rect class="bg" x="0" y="0" width="1600" height="900"/>

  <text class="title" x="80" y="82">Vygotsky: learning happens in the zone</text>
  <text class="subtitle" x="82" y="124">Good support does not replace the learner's work. It makes the next step reachable, then fades.</text>

  <!-- Left target diagram -->
  <g class="shadow" transform="translate(80,172)">
    <rect class="card" x="0" y="0" width="705" height="588" rx="30"/>
    <text class="caption-title" x="36" y="58">Zone of proximal development</text>
    <text class="small" x="36" y="93">The useful teaching zone sits between already mastered and not yet reachable.</text>

    <circle cx="353" cy="332" r="210" fill="#eef0f2" stroke="#aeb7bf" stroke-width="4"/>
    <circle cx="353" cy="332" r="150" fill="#e8f2e4" stroke="#7a9a6a" stroke-width="5"/>
    <circle cx="353" cy="332" r="88" fill="#e7eff5" stroke="#597a94" stroke-width="5"/>

    <text class="zone-title" x="353" y="293" text-anchor="middle">Can do alone</text>
    <text class="zone-text" x="353" y="329" text-anchor="middle">independent</text>
    <text class="zone-text" x="353" y="359" text-anchor="middle">competence</text>

    <text class="zone-title" x="353" y="205" text-anchor="middle">Can do with support</text>
    <text class="zone-text" x="353" y="238" text-anchor="middle">ZPD</text>

    <text class="zone-title" x="353" y="506" text-anchor="middle">Not yet reachable</text>
    <text class="zone-text" x="353" y="538" text-anchor="middle">too difficult for now</text>

    <path d="M525 173 C590 122, 638 122, 662 174" fill="none" stroke="#7a9a6a" stroke-width="5" marker-end="url(#arrowhead)"/>
    <text class="small" x="545" y="121">guidance targets</text>
    <text class="small" x="545" y="148">the middle ring</text>
  </g>

  <!-- Right scaffold sequence -->
  <g class="shadow" transform="translate(835,172)">
    <rect class="card" x="0" y="0" width="685" height="588" rx="30"/>
    <text class="caption-title" x="36" y="58">Scaffolding over time</text>
    <text class="small" x="36" y="93">Support is calibrated first, then gradually withdrawn.</text>

    <!-- Three columns -->
    <g transform="translate(52,145)">
      <rect x="0" y="0" width="165" height="265" rx="20" fill="#eef4f7" stroke="#b9c7d2" stroke-width="3"/>
      <text class="label" x="82" y="43" text-anchor="middle">Step 1</text>
      <text class="small" x="82" y="75" text-anchor="middle">high support</text>
      <rect x="48" y="112" width="69" height="126" rx="8" fill="#597a94" opacity="0.88"/>
      <circle cx="82" cy="101" r="25" fill="#597a94" opacity="0.88"/>
      <path d="M42 251 L42 126 M123 251 L123 126 M42 196 L123 196" stroke="#2f4058" stroke-width="7" stroke-linecap="round"/>
    </g>

    <path class="arrow" d="M235 276 L285 276"/>

    <g transform="translate(302,145)">
      <rect x="0" y="0" width="165" height="265" rx="20" fill="#f0f5ed" stroke="#bfceb8" stroke-width="3"/>
      <text class="label" x="82" y="43" text-anchor="middle">Step 2</text>
      <text class="small" x="82" y="75" text-anchor="middle">less support</text>
      <rect x="48" y="112" width="69" height="126" rx="8" fill="#7a9a6a" opacity="0.88"/>
      <circle cx="82" cy="101" r="25" fill="#7a9a6a" opacity="0.88"/>
      <path d="M42 251 L42 167 M123 251 L123 167 M42 210 L123 210" stroke="#2f4058" stroke-width="7" stroke-linecap="round"/>
    </g>

    <path class="arrow" d="M485 276 L535 276"/>

    <g transform="translate(552,145)">
      <rect x="0" y="0" width="85" height="265" rx="20" fill="#fff8ea" stroke="#dbc79b" stroke-width="3"/>
      <text class="label" x="43" y="43" text-anchor="middle">Now</text>
      <text class="small" x="43" y="75" text-anchor="middle">alone</text>
      <rect x="16" y="112" width="53" height="126" rx="8" fill="#c58b40" opacity="0.88"/>
      <circle cx="43" cy="101" r="22" fill="#c58b40" opacity="0.88"/>
      <path d="M10 251 L76 251" stroke="#2f4058" stroke-width="7" stroke-linecap="round"/>
    </g>

    <rect x="65" y="452" width="555" height="62" rx="31" fill="url(#supportGrad)"/>
    <text class="support-label" x="342" y="477" text-anchor="middle">calibrated help → independent competence</text>
    <text class="support-small" x="342" y="504" text-anchor="middle">the learner should be more capable after support is removed</text>
  </g>

  <!-- Bottom contrast strip -->
  <g transform="translate(120,805)">
    <rect x="0" y="0" width="1360" height="54" rx="27" fill="#f2f5f6" stroke="#cfd7db" stroke-width="2"/>
    <text class="caption" x="35" y="36">Too little help: no growth</text>
    <path class="dash" d="M345 29 L500 29" stroke="#9aa8b4" stroke-width="4"/>
    <text class="caption" x="535" y="36">Good scaffold: next step becomes reachable</text>
    <path class="dash" d="M948 29 L1103 29" stroke="#9aa8b4" stroke-width="4"/>
    <text class="caption" x="1138" y="36">Too much help: task is done, learner is not</text>
  </g>
</svg>
