<?xml version="1.0" encoding="utf-8" standalone="no"?>
<!DOCTYPE svg PUBLIC "-//W3C//DTD SVG 1.1//EN"
  "http://www.w3.org/Graphics/SVG/1.1/DTD/svg11.dtd">
<svg xmlns:xlink="http://www.w3.org/1999/xlink" width="725.349762pt" height="438.4pt" viewBox="0 0 725.349762 438.4" xmlns="http://www.w3.org/2000/svg" version="1.1">
 <metadata>
  <rdf:RDF xmlns:dc="http://purl.org/dc/elements/1.1/" xmlns:cc="http://creativecommons.org/ns#" xmlns:rdf="http://www.w3.org/1999/02/22-rdf-syntax-ns#">
   <cc:Work>
    <dc:type rdf:resource="http://purl.org/dc/dcmitype/StillImage"/>
    <dc:date>2026-07-01T13:24:05.116117</dc:date>
    <dc:format>image/svg+xml</dc:format>
    <dc:creator>
     <cc:Agent>
      <dc:title>Matplotlib v3.10.9, https://matplotlib.org/</dc:title>
     </cc:Agent>
    </dc:creator>
   </cc:Work>
  </rdf:RDF>
 </metadata>
 <defs>
  <style type="text/css">*{stroke-linejoin: round; stroke-linecap: butt}</style>
 </defs>
 <g id="figure_1">
  <g id="patch_1">
   <path d="M 0 438.4 
L 725.349762 438.4 
L 725.349762 0 
L 0 0 
z
" style="fill: #ffffff"/>
  </g>
  <g id="axes_1">
   <g id="patch_2">
    <path d="M 38.219437 256.653333 
L 148.286487 256.653333 
Q 153.967367 256.653333 153.967367 251 
L 153.967367 187.4 
Q 153.967367 181.746667 148.286487 181.746667 
L 38.219437 181.746667 
Q 32.538557 181.746667 32.538557 187.4 
L 32.538557 251 
Q 32.538557 256.653333 38.219437 256.653333 
z
" clip-path="url(#p35172e89fc)" style="fill: #4a90d9; stroke: #ffffff; stroke-width: 1.5; stroke-linejoin: miter"/>
   </g>
   <g id="patch_3">
    <path d="M 201.544737 256.653333 
L 311.611787 256.653333 
Q 317.292667 256.653333 317.292667 251 
L 317.292667 187.4 
Q 317.292667 181.746667 311.611787 181.746667 
L 201.544737 181.746667 
Q 195.863857 181.746667 195.863857 187.4 
L 195.863857 251 
Q 195.863857 256.653333 201.544737 256.653333 
z
" clip-path="url(#p35172e89fc)" style="fill: #6aab8e; stroke: #ffffff; stroke-width: 1.5; stroke-linejoin: miter"/>
   </g>
   <g id="patch_4">
    <path d="M 364.870037 256.653333 
L 474.937087 256.653333 
Q 480.617967 256.653333 480.617967 251 
L 480.617967 187.4 
Q 480.617967 181.746667 474.937087 181.746667 
L 364.870037 181.746667 
Q 359.189157 181.746667 359.189157 187.4 
L 359.189157 251 
Q 359.189157 256.653333 364.870037 256.653333 
z
" clip-path="url(#p35172e89fc)" style="fill: #e8a87c; stroke: #ffffff; stroke-width: 1.5; stroke-linejoin: miter"/>
   </g>
   <g id="patch_5">
    <path d="M 535.296437 256.653333 
L 645.363488 256.653333 
Q 651.044368 256.653333 651.044368 251 
L 651.044368 187.4 
Q 651.044368 181.746667 645.363488 181.746667 
L 535.296437 181.746667 
Q 529.615557 181.746667 529.615557 187.4 
L 529.615557 251 
Q 529.615557 256.653333 535.296437 256.653333 
z
" clip-path="url(#p35172e89fc)" style="fill: #7b68ee; stroke: #ffffff; stroke-width: 1.5; stroke-linejoin: miter"/>
   </g>
   <g id="patch_6">
    <path d="M 151.703849 219.2 
Q 174.913793 219.2 195.887669 219.2 
" style="fill: none; stroke: #555577; stroke-width: 2; stroke-linecap: round"/>
    <path d="M 188.687669 215.6 
L 195.887669 219.2 
L 188.687669 222.8 
" style="fill: none; stroke: #555577; stroke-width: 2; stroke-linecap: round"/>
   </g>
   <g id="patch_7">
    <path d="M 315.029149 219.2 
Q 338.239093 219.2 359.212969 219.2 
" style="fill: none; stroke: #555577; stroke-width: 2; stroke-linecap: round"/>
    <path d="M 352.012969 215.6 
L 359.212969 219.2 
L 352.012969 222.8 
" style="fill: none; stroke: #555577; stroke-width: 2; stroke-linecap: round"/>
   </g>
   <g id="patch_8">
    <path d="M 478.354882 219.2 
Q 505.114173 219.2 529.637396 219.2 
" style="fill: none; stroke: #555577; stroke-width: 2; stroke-linecap: round"/>
    <path d="M 522.437396 215.6 
L 529.637396 219.2 
L 522.437396 222.8 
" style="fill: none; stroke: #555577; stroke-width: 2; stroke-linecap: round"/>
   </g>
   <g id="patch_9">
    <path d="M 590.329962 252.998067 
Q 590.329962 281.031123 590.329962 306.828111 
" style="fill: none; stroke: #7b68ee; stroke-width: 2; stroke-linecap: round"/>
    <path d="M 593.929962 299.628111 
L 590.329962 306.828111 
L 586.729962 299.628111 
" style="fill: none; stroke: #7b68ee; stroke-width: 2; stroke-linecap: round"/>
   </g>
   <g id="text_1">
    <!-- Melatonin -->
    <g style="fill: #7b68ee" transform="translate(567.839337 334.812083) scale(0.08 -0.08)">
     <defs>
      <path id="DejaVuSans-Bold-4d" d="M 588 4666 
L 2119 4666 
L 3181 2169 
L 4250 4666 
L 5778 4666 
L 5778 0 
L 4641 0 
L 4641 3413 
L 3566 897 
L 2803 897 
L 1728 3413 
L 1728 0 
L 588 0 
L 588 4666 
z
" transform="scale(0.015625)"/>
      <path id="DejaVuSans-Bold-65" d="M 4031 1759 
L 4031 1441 
L 1416 1441 
Q 1456 1047 1700 850 
Q 1944 653 2381 653 
Q 2734 653 3104 758 
Q 3475 863 3866 1075 
L 3866 213 
Q 3469 63 3072 -14 
Q 2675 -91 2278 -91 
Q 1328 -91 801 392 
Q 275 875 275 1747 
Q 275 2603 792 3093 
Q 1309 3584 2216 3584 
Q 3041 3584 3536 3087 
Q 4031 2591 4031 1759 
z
M 2881 2131 
Q 2881 2450 2695 2645 
Q 2509 2841 2209 2841 
Q 1884 2841 1681 2658 
Q 1478 2475 1428 2131 
L 2881 2131 
z
" transform="scale(0.015625)"/>
      <path id="DejaVuSans-Bold-6c" d="M 538 4863 
L 1656 4863 
L 1656 0 
L 538 0 
L 538 4863 
z
" transform="scale(0.015625)"/>
      <path id="DejaVuSans-Bold-61" d="M 2106 1575 
Q 1756 1575 1579 1456 
Q 1403 1338 1403 1106 
Q 1403 894 1545 773 
Q 1688 653 1941 653 
Q 2256 653 2472 879 
Q 2688 1106 2688 1447 
L 2688 1575 
L 2106 1575 
z
M 3816 1997 
L 3816 0 
L 2688 0 
L 2688 519 
Q 2463 200 2181 54 
Q 1900 -91 1497 -91 
Q 953 -91 614 226 
Q 275 544 275 1050 
Q 275 1666 698 1953 
Q 1122 2241 2028 2241 
L 2688 2241 
L 2688 2328 
Q 2688 2594 2478 2717 
Q 2269 2841 1825 2841 
Q 1466 2841 1156 2769 
Q 847 2697 581 2553 
L 581 3406 
Q 941 3494 1303 3539 
Q 1666 3584 2028 3584 
Q 2975 3584 3395 3211 
Q 3816 2838 3816 1997 
z
" transform="scale(0.015625)"/>
      <path id="DejaVuSans-Bold-74" d="M 1759 4494 
L 1759 3500 
L 2913 3500 
L 2913 2700 
L 1759 2700 
L 1759 1216 
Q 1759 972 1856 886 
Q 1953 800 2241 800 
L 2816 800 
L 2816 0 
L 1856 0 
Q 1194 0 917 276 
Q 641 553 641 1216 
L 641 2700 
L 84 2700 
L 84 3500 
L 641 3500 
L 641 4494 
L 1759 4494 
z
" transform="scale(0.015625)"/>
      <path id="DejaVuSans-Bold-6f" d="M 2203 2784 
Q 1831 2784 1636 2517 
Q 1441 2250 1441 1747 
Q 1441 1244 1636 976 
Q 1831 709 2203 709 
Q 2569 709 2762 976 
Q 2956 1244 2956 1747 
Q 2956 2250 2762 2517 
Q 2569 2784 2203 2784 
z
M 2203 3584 
Q 3106 3584 3614 3096 
Q 4122 2609 4122 1747 
Q 4122 884 3614 396 
Q 3106 -91 2203 -91 
Q 1297 -91 786 396 
Q 275 884 275 1747 
Q 275 2609 786 3096 
Q 1297 3584 2203 3584 
z
" transform="scale(0.015625)"/>
      <path id="DejaVuSans-Bold-6e" d="M 4056 2131 
L 4056 0 
L 2931 0 
L 2931 347 
L 2931 1631 
Q 2931 2084 2911 2256 
Q 2891 2428 2841 2509 
Q 2775 2619 2662 2680 
Q 2550 2741 2406 2741 
Q 2056 2741 1856 2470 
Q 1656 2200 1656 1722 
L 1656 0 
L 538 0 
L 538 3500 
L 1656 3500 
L 1656 2988 
Q 1909 3294 2193 3439 
Q 2478 3584 2822 3584 
Q 3428 3584 3742 3212 
Q 4056 2841 4056 2131 
z
" transform="scale(0.015625)"/>
      <path id="DejaVuSans-Bold-69" d="M 538 3500 
L 1656 3500 
L 1656 0 
L 538 0 
L 538 3500 
z
M 538 4863 
L 1656 4863 
L 1656 3950 
L 538 3950 
L 538 4863 
z
" transform="scale(0.015625)"/>
     </defs>
     <use xlink:href="#DejaVuSans-Bold-4d"/>
     <use xlink:href="#DejaVuSans-Bold-65" transform="translate(99.511719 0)"/>
     <use xlink:href="#DejaVuSans-Bold-6c" transform="translate(167.333984 0)"/>
     <use xlink:href="#DejaVuSans-Bold-61" transform="translate(201.611328 0)"/>
     <use xlink:href="#DejaVuSans-Bold-74" transform="translate(269.091797 0)"/>
     <use xlink:href="#DejaVuSans-Bold-6f" transform="translate(316.894531 0)"/>
     <use xlink:href="#DejaVuSans-Bold-6e" transform="translate(385.595703 0)"/>
     <use xlink:href="#DejaVuSans-Bold-69" transform="translate(456.787109 0)"/>
     <use xlink:href="#DejaVuSans-Bold-6e" transform="translate(491.064453 0)"/>
    </g>
    <!-- (promotes sleepiness; -->
    <g style="fill: #7b68ee" transform="translate(540.269963 344.378208) scale(0.08 -0.08)">
     <defs>
      <path id="DejaVuSans-Bold-28" d="M 2413 -844 
L 1484 -844 
Q 1006 -72 778 623 
Q 550 1319 550 2003 
Q 550 2688 779 3389 
Q 1009 4091 1484 4856 
L 2413 4856 
Q 2013 4116 1813 3408 
Q 1613 2700 1613 2009 
Q 1613 1319 1811 609 
Q 2009 -100 2413 -844 
z
" transform="scale(0.015625)"/>
      <path id="DejaVuSans-Bold-70" d="M 1656 506 
L 1656 -1331 
L 538 -1331 
L 538 3500 
L 1656 3500 
L 1656 2988 
Q 1888 3294 2169 3439 
Q 2450 3584 2816 3584 
Q 3463 3584 3878 3070 
Q 4294 2556 4294 1747 
Q 4294 938 3878 423 
Q 3463 -91 2816 -91 
Q 2450 -91 2169 54 
Q 1888 200 1656 506 
z
M 2400 2772 
Q 2041 2772 1848 2508 
Q 1656 2244 1656 1747 
Q 1656 1250 1848 986 
Q 2041 722 2400 722 
Q 2759 722 2948 984 
Q 3138 1247 3138 1747 
Q 3138 2247 2948 2509 
Q 2759 2772 2400 2772 
z
" transform="scale(0.015625)"/>
      <path id="DejaVuSans-Bold-72" d="M 3138 2547 
Q 2991 2616 2845 2648 
Q 2700 2681 2553 2681 
Q 2122 2681 1889 2404 
Q 1656 2128 1656 1613 
L 1656 0 
L 538 0 
L 538 3500 
L 1656 3500 
L 1656 2925 
Q 1872 3269 2151 3426 
Q 2431 3584 2822 3584 
Q 2878 3584 2943 3579 
Q 3009 3575 3134 3559 
L 3138 2547 
z
" transform="scale(0.015625)"/>
      <path id="DejaVuSans-Bold-6d" d="M 3781 2919 
Q 3994 3244 4286 3414 
Q 4578 3584 4928 3584 
Q 5531 3584 5847 3212 
Q 6163 2841 6163 2131 
L 6163 0 
L 5038 0 
L 5038 1825 
Q 5041 1866 5042 1909 
Q 5044 1953 5044 2034 
Q 5044 2406 4934 2573 
Q 4825 2741 4581 2741 
Q 4263 2741 4089 2478 
Q 3916 2216 3909 1719 
L 3909 0 
L 2784 0 
L 2784 1825 
Q 2784 2406 2684 2573 
Q 2584 2741 2328 2741 
Q 2006 2741 1831 2477 
Q 1656 2213 1656 1722 
L 1656 0 
L 531 0 
L 531 3500 
L 1656 3500 
L 1656 2988 
Q 1863 3284 2130 3434 
Q 2397 3584 2719 3584 
Q 3081 3584 3359 3409 
Q 3638 3234 3781 2919 
z
" transform="scale(0.015625)"/>
      <path id="DejaVuSans-Bold-73" d="M 3272 3391 
L 3272 2541 
Q 2913 2691 2578 2766 
Q 2244 2841 1947 2841 
Q 1628 2841 1473 2761 
Q 1319 2681 1319 2516 
Q 1319 2381 1436 2309 
Q 1553 2238 1856 2203 
L 2053 2175 
Q 2913 2066 3209 1816 
Q 3506 1566 3506 1031 
Q 3506 472 3093 190 
Q 2681 -91 1863 -91 
Q 1516 -91 1145 -36 
Q 775 19 384 128 
L 384 978 
Q 719 816 1070 734 
Q 1422 653 1784 653 
Q 2113 653 2278 743 
Q 2444 834 2444 1013 
Q 2444 1163 2330 1236 
Q 2216 1309 1875 1350 
L 1678 1375 
Q 931 1469 631 1722 
Q 331 1975 331 2491 
Q 331 3047 712 3315 
Q 1094 3584 1881 3584 
Q 2191 3584 2531 3537 
Q 2872 3491 3272 3391 
z
" transform="scale(0.015625)"/>
      <path id="DejaVuSans-Bold-20" transform="scale(0.015625)"/>
      <path id="DejaVuSans-Bold-3b" d="M 716 1209 
L 1844 1209 
L 1844 256 
L 1069 -909 
L 403 -909 
L 716 256 
L 716 1209 
z
M 716 3500 
L 1844 3500 
L 1844 2291 
L 716 2291 
L 716 3500 
z
" transform="scale(0.015625)"/>
     </defs>
     <use xlink:href="#DejaVuSans-Bold-28"/>
     <use xlink:href="#DejaVuSans-Bold-70" transform="translate(45.703125 0)"/>
     <use xlink:href="#DejaVuSans-Bold-72" transform="translate(117.285156 0)"/>
     <use xlink:href="#DejaVuSans-Bold-6f" transform="translate(166.601562 0)"/>
     <use xlink:href="#DejaVuSans-Bold-6d" transform="translate(235.302734 0)"/>
     <use xlink:href="#DejaVuSans-Bold-6f" transform="translate(339.501953 0)"/>
     <use xlink:href="#DejaVuSans-Bold-74" transform="translate(408.203125 0)"/>
     <use xlink:href="#DejaVuSans-Bold-65" transform="translate(456.005859 0)"/>
     <use xlink:href="#DejaVuSans-Bold-73" transform="translate(523.828125 0)"/>
     <use xlink:href="#DejaVuSans-Bold-20" transform="translate(583.349609 0)"/>
     <use xlink:href="#DejaVuSans-Bold-73" transform="translate(618.164062 0)"/>
     <use xlink:href="#DejaVuSans-Bold-6c" transform="translate(677.685547 0)"/>
     <use xlink:href="#DejaVuSans-Bold-65" transform="translate(711.962891 0)"/>
     <use xlink:href="#DejaVuSans-Bold-65" transform="translate(779.785156 0)"/>
     <use xlink:href="#DejaVuSans-Bold-70" transform="translate(847.607422 0)"/>
     <use xlink:href="#DejaVuSans-Bold-69" transform="translate(919.189453 0)"/>
     <use xlink:href="#DejaVuSans-Bold-6e" transform="translate(953.466797 0)"/>
     <use xlink:href="#DejaVuSans-Bold-65" transform="translate(1024.658203 0)"/>
     <use xlink:href="#DejaVuSans-Bold-73" transform="translate(1092.480469 0)"/>
     <use xlink:href="#DejaVuSans-Bold-73" transform="translate(1152.001953 0)"/>
     <use xlink:href="#DejaVuSans-Bold-3b" transform="translate(1211.523438 0)"/>
    </g>
    <!-- rises at evening, -->
    <g style="fill: #7b68ee" transform="translate(552.633087 353.944333) scale(0.08 -0.08)">
     <defs>
      <path id="DejaVuSans-Bold-76" d="M 97 3500 
L 1216 3500 
L 2088 1081 
L 2956 3500 
L 4078 3500 
L 2700 0 
L 1472 0 
L 97 3500 
z
" transform="scale(0.015625)"/>
      <path id="DejaVuSans-Bold-67" d="M 2919 594 
Q 2688 288 2409 144 
Q 2131 0 1766 0 
Q 1125 0 706 504 
Q 288 1009 288 1791 
Q 288 2575 706 3076 
Q 1125 3578 1766 3578 
Q 2131 3578 2409 3434 
Q 2688 3291 2919 2981 
L 2919 3500 
L 4044 3500 
L 4044 353 
Q 4044 -491 3511 -936 
Q 2978 -1381 1966 -1381 
Q 1638 -1381 1331 -1331 
Q 1025 -1281 716 -1178 
L 716 -306 
Q 1009 -475 1290 -558 
Q 1572 -641 1856 -641 
Q 2406 -641 2662 -400 
Q 2919 -159 2919 353 
L 2919 594 
z
M 2181 2772 
Q 1834 2772 1640 2515 
Q 1447 2259 1447 1791 
Q 1447 1309 1634 1061 
Q 1822 813 2181 813 
Q 2531 813 2725 1069 
Q 2919 1325 2919 1791 
Q 2919 2259 2725 2515 
Q 2531 2772 2181 2772 
z
" transform="scale(0.015625)"/>
      <path id="DejaVuSans-Bold-2c" d="M 653 1209 
L 1778 1209 
L 1778 256 
L 1006 -909 
L 341 -909 
L 653 256 
L 653 1209 
z
" transform="scale(0.015625)"/>
     </defs>
     <use xlink:href="#DejaVuSans-Bold-72"/>
     <use xlink:href="#DejaVuSans-Bold-69" transform="translate(49.316406 0)"/>
     <use xlink:href="#DejaVuSans-Bold-73" transform="translate(83.59375 0)"/>
     <use xlink:href="#DejaVuSans-Bold-65" transform="translate(143.115234 0)"/>
     <use xlink:href="#DejaVuSans-Bold-73" transform="translate(210.9375 0)"/>
     <use xlink:href="#DejaVuSans-Bold-20" transform="translate(270.458984 0)"/>
     <use xlink:href="#DejaVuSans-Bold-61" transform="translate(305.273438 0)"/>
     <use xlink:href="#DejaVuSans-Bold-74" transform="translate(372.753906 0)"/>
     <use xlink:href="#DejaVuSans-Bold-20" transform="translate(420.556641 0)"/>
     <use xlink:href="#DejaVuSans-Bold-65" transform="translate(455.371094 0)"/>
     <use xlink:href="#DejaVuSans-Bold-76" transform="translate(523.193359 0)"/>
     <use xlink:href="#DejaVuSans-Bold-65" transform="translate(588.378906 0)"/>
     <use xlink:href="#DejaVuSans-Bold-6e" transform="translate(656.201172 0)"/>
     <use xlink:href="#DejaVuSans-Bold-69" transform="translate(727.392578 0)"/>
     <use xlink:href="#DejaVuSans-Bold-6e" transform="translate(761.669922 0)"/>
     <use xlink:href="#DejaVuSans-Bold-67" transform="translate(832.861328 0)"/>
     <use xlink:href="#DejaVuSans-Bold-2c" transform="translate(904.443359 0)"/>
    </g>
    <!-- falls at morning) -->
    <g style="fill: #7b68ee" transform="translate(552.724962 363.572958) scale(0.08 -0.08)">
     <defs>
      <path id="DejaVuSans-Bold-66" d="M 2841 4863 
L 2841 4128 
L 2222 4128 
Q 1984 4128 1890 4042 
Q 1797 3956 1797 3744 
L 1797 3500 
L 2753 3500 
L 2753 2700 
L 1797 2700 
L 1797 0 
L 678 0 
L 678 2700 
L 122 2700 
L 122 3500 
L 678 3500 
L 678 3744 
Q 678 4316 997 4589 
Q 1316 4863 1984 4863 
L 2841 4863 
z
" transform="scale(0.015625)"/>
      <path id="DejaVuSans-Bold-29" d="M 513 -844 
Q 913 -100 1113 609 
Q 1313 1319 1313 2009 
Q 1313 2700 1113 3408 
Q 913 4116 513 4856 
L 1441 4856 
Q 1916 4091 2145 3389 
Q 2375 2688 2375 2003 
Q 2375 1319 2147 623 
Q 1919 -72 1441 -844 
L 513 -844 
z
" transform="scale(0.015625)"/>
     </defs>
     <use xlink:href="#DejaVuSans-Bold-66"/>
     <use xlink:href="#DejaVuSans-Bold-61" transform="translate(43.505859 0)"/>
     <use xlink:href="#DejaVuSans-Bold-6c" transform="translate(110.986328 0)"/>
     <use xlink:href="#DejaVuSans-Bold-6c" transform="translate(145.263672 0)"/>
     <use xlink:href="#DejaVuSans-Bold-73" transform="translate(179.541016 0)"/>
     <use xlink:href="#DejaVuSans-Bold-20" transform="translate(239.0625 0)"/>
     <use xlink:href="#DejaVuSans-Bold-61" transform="translate(273.876953 0)"/>
     <use xlink:href="#DejaVuSans-Bold-74" transform="translate(341.357422 0)"/>
     <use xlink:href="#DejaVuSans-Bold-20" transform="translate(389.160156 0)"/>
     <use xlink:href="#DejaVuSans-Bold-6d" transform="translate(423.974609 0)"/>
     <use xlink:href="#DejaVuSans-Bold-6f" transform="translate(528.173828 0)"/>
     <use xlink:href="#DejaVuSans-Bold-72" transform="translate(596.875 0)"/>
     <use xlink:href="#DejaVuSans-Bold-6e" transform="translate(646.191406 0)"/>
     <use xlink:href="#DejaVuSans-Bold-69" transform="translate(717.382812 0)"/>
     <use xlink:href="#DejaVuSans-Bold-6e" transform="translate(751.660156 0)"/>
     <use xlink:href="#DejaVuSans-Bold-67" transform="translate(822.851562 0)"/>
     <use xlink:href="#DejaVuSans-Bold-29" transform="translate(894.433594 0)"/>
    </g>
   </g>
   <g id="patch_10">
    <path d="M 13.589057 219.2 
Q 26.501663 219.2 36.619183 219.2 
" style="fill: none; stroke: #f5c518; stroke-width: 2.5; stroke-linecap: round"/>
    <path d="M 29.419183 215.6 
L 36.619183 219.2 
L 29.419183 222.8 
" style="fill: none; stroke: #f5c518; stroke-width: 2.5; stroke-linecap: round"/>
   </g>
   <g id="text_2">
    <!-- ☀ Light -->
    <g style="fill: #c8960c" transform="translate(14.038594 237.786406) rotate(-90) scale(0.09 -0.09)">
     <defs>
      <path id="DejaVuSans-Bold-2600" d="M 2759 4666 
L 3000 4666 
L 3019 4647 
L 3019 3553 
L 3000 3534 
L 2759 3534 
L 2741 3553 
L 2741 4647 
L 2759 4666 
z
M 4513 4163 
L 4694 3966 
L 4694 3956 
L 3919 3163 
L 3728 3359 
L 4513 4163 
z
M 1319 4103 
L 2106 3309 
L 1916 3109 
L 1906 3109 
Q 1281 3731 1141 3903 
L 1141 3916 
L 1319 4103 
z
M 2891 3350 
Q 3541 3350 3819 2647 
L 3859 2347 
Q 3859 1756 3266 1444 
Q 3044 1372 2900 1372 
Q 2353 1372 2047 1894 
Q 1938 2091 1938 2378 
Q 1938 2944 2509 3266 
Q 2719 3350 2891 3350 
z
M 553 2491 
L 1613 2491 
L 1631 2472 
L 1631 2225 
L 1613 2206 
L 553 2206 
L 534 2225 
L 534 2472 
L 553 2491 
z
M 4100 2491 
L 5178 2491 
L 5200 2472 
L 5200 2225 
L 5178 2206 
L 4100 2206 
L 4081 2225 
L 4081 2472 
L 4100 2491 
z
M 3859 1597 
L 3869 1597 
Q 4288 1191 4644 813 
L 4644 803 
L 4453 609 
L 3678 1400 
L 3678 1413 
L 3859 1597 
z
M 1844 1544 
L 1853 1544 
L 2038 1356 
L 2038 1347 
L 1269 553 
L 1075 750 
L 1075 763 
L 1844 1544 
z
M 2759 1131 
L 3000 1131 
L 3019 1113 
L 3019 19 
L 3000 0 
L 2759 0 
L 2741 19 
L 2741 1113 
L 2759 1131 
z
" transform="scale(0.015625)"/>
      <path id="DejaVuSans-Bold-4c" d="M 588 4666 
L 1791 4666 
L 1791 909 
L 3903 909 
L 3903 0 
L 588 0 
L 588 4666 
z
" transform="scale(0.015625)"/>
      <path id="DejaVuSans-Bold-68" d="M 4056 2131 
L 4056 0 
L 2931 0 
L 2931 347 
L 2931 1625 
Q 2931 2084 2911 2256 
Q 2891 2428 2841 2509 
Q 2775 2619 2662 2680 
Q 2550 2741 2406 2741 
Q 2056 2741 1856 2470 
Q 1656 2200 1656 1722 
L 1656 0 
L 538 0 
L 538 4863 
L 1656 4863 
L 1656 2988 
Q 1909 3294 2193 3439 
Q 2478 3584 2822 3584 
Q 3428 3584 3742 3212 
Q 4056 2841 4056 2131 
z
" transform="scale(0.015625)"/>
     </defs>
     <use xlink:href="#DejaVuSans-Bold-2600"/>
     <use xlink:href="#DejaVuSans-Bold-20" transform="translate(89.648438 0)"/>
     <use xlink:href="#DejaVuSans-Bold-4c" transform="translate(124.462891 0)"/>
     <use xlink:href="#DejaVuSans-Bold-69" transform="translate(188.183594 0)"/>
     <use xlink:href="#DejaVuSans-Bold-67" transform="translate(222.460938 0)"/>
     <use xlink:href="#DejaVuSans-Bold-68" transform="translate(294.042969 0)"/>
     <use xlink:href="#DejaVuSans-Bold-74" transform="translate(365.234375 0)"/>
    </g>
   </g>
   <g id="text_3">
    <g id="patch_11">
     <path d="M 342.477937 148.683708 
L 497.329187 148.683708 
Q 499.729187 148.683708 499.729187 146.283708 
L 499.729187 129.582958 
Q 499.729187 127.182958 497.329187 127.182958 
L 342.477937 127.182958 
Q 340.077937 127.182958 340.077937 129.582958 
L 340.077937 146.283708 
Q 340.077937 148.683708 342.477937 148.683708 
z
" style="fill: #f7f7fb; stroke: #aaaacc; stroke-linejoin: miter"/>
    </g>
    <!-- "Free-running" ~24-hr rhythm persists -->
    <g style="fill: #555577" transform="translate(342.477937 135.661708) scale(0.08 -0.08)">
     <defs>
      <path id="DejaVuSans-Oblique-22" d="M 1147 4666 
L 1147 2931 
L 616 2931 
L 616 4666 
L 1147 4666 
z
M 2328 4666 
L 2328 2931 
L 1797 2931 
L 1797 4666 
L 2328 4666 
z
" transform="scale(0.015625)"/>
      <path id="DejaVuSans-Oblique-46" d="M 1081 4666 
L 3756 4666 
L 3653 4134 
L 1606 4134 
L 1338 2759 
L 3188 2759 
L 3084 2228 
L 1234 2228 
L 800 0 
L 172 0 
L 1081 4666 
z
" transform="scale(0.015625)"/>
      <path id="DejaVuSans-Oblique-72" d="M 2853 2969 
Q 2766 3016 2653 3041 
Q 2541 3066 2413 3066 
Q 1953 3066 1609 2717 
Q 1266 2369 1153 1784 
L 800 0 
L 225 0 
L 909 3500 
L 1484 3500 
L 1375 2956 
Q 1603 3259 1920 3421 
Q 2238 3584 2597 3584 
Q 2691 3584 2781 3573 
Q 2872 3563 2963 3538 
L 2853 2969 
z
" transform="scale(0.015625)"/>
      <path id="DejaVuSans-Oblique-65" d="M 3078 2063 
Q 3088 2113 3092 2166 
Q 3097 2219 3097 2272 
Q 3097 2653 2873 2875 
Q 2650 3097 2266 3097 
Q 1838 3097 1509 2826 
Q 1181 2556 1013 2059 
L 3078 2063 
z
M 3578 1613 
L 903 1613 
Q 884 1494 878 1425 
Q 872 1356 872 1306 
Q 872 872 1139 634 
Q 1406 397 1894 397 
Q 2269 397 2603 481 
Q 2938 566 3225 728 
L 3116 159 
Q 2806 34 2476 -28 
Q 2147 -91 1806 -91 
Q 1078 -91 686 257 
Q 294 606 294 1247 
Q 294 1794 489 2264 
Q 684 2734 1063 3103 
Q 1306 3334 1642 3459 
Q 1978 3584 2356 3584 
Q 2950 3584 3301 3228 
Q 3653 2872 3653 2272 
Q 3653 2128 3634 1964 
Q 3616 1800 3578 1613 
z
" transform="scale(0.015625)"/>
      <path id="DejaVuSans-Oblique-2d" d="M 391 2009 
L 2075 2009 
L 1978 1497 
L 288 1497 
L 391 2009 
z
" transform="scale(0.015625)"/>
      <path id="DejaVuSans-Oblique-75" d="M 428 1388 
L 838 3500 
L 1416 3500 
L 1006 1409 
Q 975 1256 961 1147 
Q 947 1038 947 966 
Q 947 700 1109 554 
Q 1272 409 1569 409 
Q 2031 409 2368 721 
Q 2706 1034 2809 1563 
L 3194 3500 
L 3769 3500 
L 3091 0 
L 2516 0 
L 2631 550 
Q 2388 244 2052 76 
Q 1716 -91 1338 -91 
Q 878 -91 622 161 
Q 366 413 366 863 
Q 366 956 381 1097 
Q 397 1238 428 1388 
z
" transform="scale(0.015625)"/>
      <path id="DejaVuSans-Oblique-6e" d="M 3566 2113 
L 3156 0 
L 2578 0 
L 2988 2091 
Q 3016 2238 3031 2350 
Q 3047 2463 3047 2528 
Q 3047 2791 2881 2937 
Q 2716 3084 2419 3084 
Q 1956 3084 1622 2776 
Q 1288 2469 1184 1941 
L 800 0 
L 225 0 
L 903 3500 
L 1478 3500 
L 1363 2950 
Q 1603 3253 1940 3418 
Q 2278 3584 2650 3584 
Q 3113 3584 3367 3334 
Q 3622 3084 3622 2631 
Q 3622 2519 3608 2391 
Q 3594 2263 3566 2113 
z
" transform="scale(0.015625)"/>
      <path id="DejaVuSans-Oblique-69" d="M 1172 4863 
L 1747 4863 
L 1606 4134 
L 1031 4134 
L 1172 4863 
z
M 909 3500 
L 1484 3500 
L 800 0 
L 225 0 
L 909 3500 
z
" transform="scale(0.015625)"/>
      <path id="DejaVuSans-Oblique-67" d="M 3816 3500 
L 3219 434 
Q 3047 -456 2561 -893 
Q 2075 -1331 1253 -1331 
Q 950 -1331 690 -1286 
Q 431 -1241 206 -1147 
L 313 -588 
Q 525 -725 762 -790 
Q 1000 -856 1269 -856 
Q 1816 -856 2167 -557 
Q 2519 -259 2631 300 
L 2681 563 
Q 2441 288 2122 144 
Q 1803 0 1434 0 
Q 903 0 598 351 
Q 294 703 294 1319 
Q 294 1803 478 2267 
Q 663 2731 997 3091 
Q 1219 3328 1514 3456 
Q 1809 3584 2131 3584 
Q 2484 3584 2746 3420 
Q 3009 3256 3138 2956 
L 3238 3500 
L 3816 3500 
z
M 2950 2216 
Q 2950 2641 2750 2872 
Q 2550 3103 2181 3103 
Q 1953 3103 1747 3012 
Q 1541 2922 1394 2759 
Q 1156 2491 1023 2127 
Q 891 1763 891 1375 
Q 891 944 1092 712 
Q 1294 481 1672 481 
Q 2219 481 2584 976 
Q 2950 1472 2950 2216 
z
" transform="scale(0.015625)"/>
      <path id="DejaVuSans-Oblique-20" transform="scale(0.015625)"/>
      <path id="DejaVuSans-Oblique-7e" d="M 4684 2553 
L 4684 1997 
Q 4356 1750 4076 1644 
Q 3797 1538 3494 1538 
Q 3150 1538 2694 1722 
Q 2659 1734 2644 1741 
Q 2622 1750 2575 1766 
Q 2091 1959 1797 1959 
Q 1522 1959 1253 1839 
Q 984 1719 678 1459 
L 678 2016 
Q 1006 2263 1286 2370 
Q 1566 2478 1869 2478 
Q 2213 2478 2672 2291 
Q 2703 2278 2719 2272 
Q 2744 2263 2788 2247 
Q 3272 2053 3566 2053 
Q 3834 2053 4098 2172 
Q 4363 2291 4684 2553 
z
" transform="scale(0.015625)"/>
      <path id="DejaVuSans-Oblique-32" d="M 2950 2253 
L 934 525 
L 3163 525 
L 3053 0 
L 25 0 
L 128 531 
L 2234 2338 
Q 2656 2703 2832 2979 
Q 3009 3256 3009 3547 
Q 3009 3850 2796 4040 
Q 2584 4231 2241 4231 
Q 1944 4231 1581 4125 
Q 1219 4019 806 3816 
L 922 4441 
Q 1309 4594 1662 4672 
Q 2016 4750 2316 4750 
Q 2928 4750 3301 4425 
Q 3675 4100 3675 3572 
Q 3675 3216 3497 2892 
Q 3319 2569 2950 2253 
z
" transform="scale(0.015625)"/>
      <path id="DejaVuSans-Oblique-34" d="M 2753 4666 
L 3547 4666 
L 2950 1625 
L 3616 1625 
L 3513 1100 
L 2847 1100 
L 2638 0 
L 2009 0 
L 2222 1100 
L 116 1100 
L 238 1709 
L 2753 4666 
z
M 2809 4116 
L 728 1625 
L 2322 1625 
L 2809 4116 
z
" transform="scale(0.015625)"/>
      <path id="DejaVuSans-Oblique-68" d="M 3566 2113 
L 3156 0 
L 2578 0 
L 2988 2091 
Q 3016 2238 3031 2350 
Q 3047 2463 3047 2528 
Q 3047 2791 2881 2937 
Q 2716 3084 2419 3084 
Q 1956 3084 1617 2771 
Q 1278 2459 1178 1941 
L 800 0 
L 225 0 
L 1172 4863 
L 1747 4863 
L 1375 2950 
Q 1594 3244 1934 3414 
Q 2275 3584 2650 3584 
Q 3113 3584 3367 3334 
Q 3622 3084 3622 2631 
Q 3622 2519 3608 2391 
Q 3594 2263 3566 2113 
z
" transform="scale(0.015625)"/>
      <path id="DejaVuSans-Oblique-79" d="M 1588 -325 
Q 1188 -997 936 -1164 
Q 684 -1331 294 -1331 
L -159 -1331 
L -63 -850 
L 269 -850 
Q 509 -850 678 -719 
Q 847 -588 1056 -206 
L 1234 128 
L 459 3500 
L 1069 3500 
L 1650 819 
L 3256 3500 
L 3859 3500 
L 1588 -325 
z
" transform="scale(0.015625)"/>
      <path id="DejaVuSans-Oblique-74" d="M 2706 3500 
L 2619 3053 
L 1472 3053 
L 1100 1153 
Q 1081 1047 1072 975 
Q 1063 903 1063 863 
Q 1063 663 1183 572 
Q 1303 481 1569 481 
L 2150 481 
L 2053 0 
L 1503 0 
Q 991 0 739 200 
Q 488 400 488 806 
Q 488 878 497 964 
Q 506 1050 525 1153 
L 897 3053 
L 409 3053 
L 500 3500 
L 978 3500 
L 1172 4494 
L 1747 4494 
L 1556 3500 
L 2706 3500 
z
" transform="scale(0.015625)"/>
      <path id="DejaVuSans-Oblique-6d" d="M 5747 2113 
L 5338 0 
L 4763 0 
L 5166 2094 
Q 5191 2228 5203 2325 
Q 5216 2422 5216 2491 
Q 5216 2772 5059 2928 
Q 4903 3084 4622 3084 
Q 4203 3084 3875 2770 
Q 3547 2456 3450 1953 
L 3066 0 
L 2491 0 
L 2900 2094 
Q 2925 2209 2937 2307 
Q 2950 2406 2950 2484 
Q 2950 2769 2794 2926 
Q 2638 3084 2363 3084 
Q 1938 3084 1609 2770 
Q 1281 2456 1184 1953 
L 800 0 
L 225 0 
L 909 3500 
L 1484 3500 
L 1375 2956 
Q 1609 3263 1923 3423 
Q 2238 3584 2597 3584 
Q 2978 3584 3223 3384 
Q 3469 3184 3519 2828 
Q 3781 3197 4126 3390 
Q 4472 3584 4856 3584 
Q 5306 3584 5551 3325 
Q 5797 3066 5797 2591 
Q 5797 2488 5784 2364 
Q 5772 2241 5747 2113 
z
" transform="scale(0.015625)"/>
      <path id="DejaVuSans-Oblique-70" d="M 3175 2156 
Q 3175 2616 2975 2859 
Q 2775 3103 2400 3103 
Q 2144 3103 1911 2972 
Q 1678 2841 1497 2591 
Q 1319 2344 1212 1994 
Q 1106 1644 1106 1300 
Q 1106 863 1306 627 
Q 1506 391 1875 391 
Q 2147 391 2380 519 
Q 2613 647 2778 891 
Q 2956 1147 3065 1494 
Q 3175 1841 3175 2156 
z
M 1394 2969 
Q 1625 3272 1939 3428 
Q 2253 3584 2638 3584 
Q 3175 3584 3472 3232 
Q 3769 2881 3769 2247 
Q 3769 1728 3584 1258 
Q 3400 788 3053 416 
Q 2822 169 2531 39 
Q 2241 -91 1919 -91 
Q 1547 -91 1294 64 
Q 1041 219 916 525 
L 556 -1331 
L -19 -1331 
L 922 3500 
L 1497 3500 
L 1394 2969 
z
" transform="scale(0.015625)"/>
      <path id="DejaVuSans-Oblique-73" d="M 3200 3397 
L 3091 2853 
Q 2863 2978 2609 3040 
Q 2356 3103 2088 3103 
Q 1634 3103 1373 2948 
Q 1113 2794 1113 2528 
Q 1113 2219 1719 2053 
Q 1766 2041 1788 2034 
L 1972 1978 
Q 2547 1819 2739 1644 
Q 2931 1469 2931 1166 
Q 2931 609 2489 259 
Q 2047 -91 1331 -91 
Q 1053 -91 747 -37 
Q 441 16 72 128 
L 184 722 
Q 500 559 806 475 
Q 1113 391 1394 391 
Q 1816 391 2080 572 
Q 2344 753 2344 1031 
Q 2344 1331 1650 1516 
L 1591 1531 
L 1394 1581 
Q 956 1697 753 1886 
Q 550 2075 550 2369 
Q 550 2928 970 3256 
Q 1391 3584 2113 3584 
Q 2397 3584 2667 3537 
Q 2938 3491 3200 3397 
z
" transform="scale(0.015625)"/>
     </defs>
     <use xlink:href="#DejaVuSans-Oblique-22"/>
     <use xlink:href="#DejaVuSans-Oblique-46" transform="translate(45.996094 0)"/>
     <use xlink:href="#DejaVuSans-Oblique-72" transform="translate(103.515625 0)"/>
     <use xlink:href="#DejaVuSans-Oblique-65" transform="translate(144.628906 0)"/>
     <use xlink:href="#DejaVuSans-Oblique-65" transform="translate(206.152344 0)"/>
     <use xlink:href="#DejaVuSans-Oblique-2d" transform="translate(267.675781 0)"/>
     <use xlink:href="#DejaVuSans-Oblique-72" transform="translate(303.759766 0)"/>
     <use xlink:href="#DejaVuSans-Oblique-75" transform="translate(344.873047 0)"/>
     <use xlink:href="#DejaVuSans-Oblique-6e" transform="translate(408.251953 0)"/>
     <use xlink:href="#DejaVuSans-Oblique-6e" transform="translate(471.630859 0)"/>
     <use xlink:href="#DejaVuSans-Oblique-69" transform="translate(535.009766 0)"/>
     <use xlink:href="#DejaVuSans-Oblique-6e" transform="translate(562.792969 0)"/>
     <use xlink:href="#DejaVuSans-Oblique-67" transform="translate(626.171875 0)"/>
     <use xlink:href="#DejaVuSans-Oblique-22" transform="translate(689.648438 0)"/>
     <use xlink:href="#DejaVuSans-Oblique-20" transform="translate(735.644531 0)"/>
     <use xlink:href="#DejaVuSans-Oblique-7e" transform="translate(767.431641 0)"/>
     <use xlink:href="#DejaVuSans-Oblique-32" transform="translate(851.220703 0)"/>
     <use xlink:href="#DejaVuSans-Oblique-34" transform="translate(914.84375 0)"/>
     <use xlink:href="#DejaVuSans-Oblique-2d" transform="translate(978.466797 0)"/>
     <use xlink:href="#DejaVuSans-Oblique-68" transform="translate(1014.550781 0)"/>
     <use xlink:href="#DejaVuSans-Oblique-72" transform="translate(1077.929688 0)"/>
     <use xlink:href="#DejaVuSans-Oblique-20" transform="translate(1119.042969 0)"/>
     <use xlink:href="#DejaVuSans-Oblique-72" transform="translate(1150.830078 0)"/>
     <use xlink:href="#DejaVuSans-Oblique-68" transform="translate(1191.943359 0)"/>
     <use xlink:href="#DejaVuSans-Oblique-79" transform="translate(1255.322266 0)"/>
     <use xlink:href="#DejaVuSans-Oblique-74" transform="translate(1314.501953 0)"/>
     <use xlink:href="#DejaVuSans-Oblique-68" transform="translate(1353.710938 0)"/>
     <use xlink:href="#DejaVuSans-Oblique-6d" transform="translate(1417.089844 0)"/>
     <use xlink:href="#DejaVuSans-Oblique-20" transform="translate(1514.501953 0)"/>
     <use xlink:href="#DejaVuSans-Oblique-70" transform="translate(1546.289062 0)"/>
     <use xlink:href="#DejaVuSans-Oblique-65" transform="translate(1609.765625 0)"/>
     <use xlink:href="#DejaVuSans-Oblique-72" transform="translate(1671.289062 0)"/>
     <use xlink:href="#DejaVuSans-Oblique-73" transform="translate(1712.402344 0)"/>
     <use xlink:href="#DejaVuSans-Oblique-69" transform="translate(1764.501953 0)"/>
     <use xlink:href="#DejaVuSans-Oblique-73" transform="translate(1792.285156 0)"/>
     <use xlink:href="#DejaVuSans-Oblique-74" transform="translate(1844.384766 0)"/>
     <use xlink:href="#DejaVuSans-Oblique-73" transform="translate(1883.59375 0)"/>
    </g>
    <!-- even without light input -->
    <g style="fill: #555577" transform="translate(372.074812 144.619958) scale(0.08 -0.08)">
     <defs>
      <path id="DejaVuSans-Oblique-76" d="M 459 3500 
L 1069 3500 
L 1581 525 
L 3256 3500 
L 3866 3500 
L 1875 0 
L 1100 0 
L 459 3500 
z
" transform="scale(0.015625)"/>
      <path id="DejaVuSans-Oblique-77" d="M 544 3500 
L 1113 3500 
L 1259 684 
L 2566 3500 
L 3231 3500 
L 3425 684 
L 4666 3500 
L 5241 3500 
L 3641 0 
L 2969 0 
L 2797 2900 
L 1459 0 
L 781 0 
L 544 3500 
z
" transform="scale(0.015625)"/>
      <path id="DejaVuSans-Oblique-6f" d="M 1625 -91 
Q 1009 -91 651 289 
Q 294 669 294 1325 
Q 294 1706 417 2101 
Q 541 2497 738 2766 
Q 1047 3184 1428 3384 
Q 1809 3584 2291 3584 
Q 2888 3584 3255 3212 
Q 3622 2841 3622 2241 
Q 3622 1825 3500 1412 
Q 3378 1000 3181 728 
Q 2875 309 2494 109 
Q 2113 -91 1625 -91 
z
M 891 1344 
Q 891 869 1089 633 
Q 1288 397 1691 397 
Q 2269 397 2648 901 
Q 3028 1406 3028 2181 
Q 3028 2634 2825 2865 
Q 2622 3097 2228 3097 
Q 1903 3097 1650 2945 
Q 1397 2794 1197 2484 
Q 1050 2253 970 1956 
Q 891 1659 891 1344 
z
" transform="scale(0.015625)"/>
      <path id="DejaVuSans-Oblique-6c" d="M 1172 4863 
L 1747 4863 
L 800 0 
L 225 0 
L 1172 4863 
z
" transform="scale(0.015625)"/>
     </defs>
     <use xlink:href="#DejaVuSans-Oblique-65"/>
     <use xlink:href="#DejaVuSans-Oblique-76" transform="translate(61.523438 0)"/>
     <use xlink:href="#DejaVuSans-Oblique-65" transform="translate(120.703125 0)"/>
     <use xlink:href="#DejaVuSans-Oblique-6e" transform="translate(182.226562 0)"/>
     <use xlink:href="#DejaVuSans-Oblique-20" transform="translate(245.605469 0)"/>
     <use xlink:href="#DejaVuSans-Oblique-77" transform="translate(277.392578 0)"/>
     <use xlink:href="#DejaVuSans-Oblique-69" transform="translate(359.179688 0)"/>
     <use xlink:href="#DejaVuSans-Oblique-74" transform="translate(386.962891 0)"/>
     <use xlink:href="#DejaVuSans-Oblique-68" transform="translate(426.171875 0)"/>
     <use xlink:href="#DejaVuSans-Oblique-6f" transform="translate(489.550781 0)"/>
     <use xlink:href="#DejaVuSans-Oblique-75" transform="translate(550.732422 0)"/>
     <use xlink:href="#DejaVuSans-Oblique-74" transform="translate(614.111328 0)"/>
     <use xlink:href="#DejaVuSans-Oblique-20" transform="translate(653.320312 0)"/>
     <use xlink:href="#DejaVuSans-Oblique-6c" transform="translate(685.107422 0)"/>
     <use xlink:href="#DejaVuSans-Oblique-69" transform="translate(712.890625 0)"/>
     <use xlink:href="#DejaVuSans-Oblique-67" transform="translate(740.673828 0)"/>
     <use xlink:href="#DejaVuSans-Oblique-68" transform="translate(804.150391 0)"/>
     <use xlink:href="#DejaVuSans-Oblique-74" transform="translate(867.529297 0)"/>
     <use xlink:href="#DejaVuSans-Oblique-20" transform="translate(906.738281 0)"/>
     <use xlink:href="#DejaVuSans-Oblique-69" transform="translate(938.525391 0)"/>
     <use xlink:href="#DejaVuSans-Oblique-6e" transform="translate(966.308594 0)"/>
     <use xlink:href="#DejaVuSans-Oblique-70" transform="translate(1029.6875 0)"/>
     <use xlink:href="#DejaVuSans-Oblique-75" transform="translate(1093.164062 0)"/>
     <use xlink:href="#DejaVuSans-Oblique-74" transform="translate(1156.542969 0)"/>
    </g>
   </g>
   <g id="text_4">
    <!-- The Circadian Pathway: Light → SCN → Melatonin -->
    <g style="fill: #1a1a2e" transform="translate(198.347887 42.264375) scale(0.12 -0.12)">
     <defs>
      <path id="DejaVuSans-Bold-54" d="M 31 4666 
L 4331 4666 
L 4331 3756 
L 2784 3756 
L 2784 0 
L 1581 0 
L 1581 3756 
L 31 3756 
L 31 4666 
z
" transform="scale(0.015625)"/>
      <path id="DejaVuSans-Bold-43" d="M 4288 256 
Q 3956 84 3597 -3 
Q 3238 -91 2847 -91 
Q 1681 -91 1000 561 
Q 319 1213 319 2328 
Q 319 3447 1000 4098 
Q 1681 4750 2847 4750 
Q 3238 4750 3597 4662 
Q 3956 4575 4288 4403 
L 4288 3438 
Q 3953 3666 3628 3772 
Q 3303 3878 2944 3878 
Q 2300 3878 1931 3465 
Q 1563 3053 1563 2328 
Q 1563 1606 1931 1193 
Q 2300 781 2944 781 
Q 3303 781 3628 887 
Q 3953 994 4288 1222 
L 4288 256 
z
" transform="scale(0.015625)"/>
      <path id="DejaVuSans-Bold-63" d="M 3366 3391 
L 3366 2478 
Q 3138 2634 2908 2709 
Q 2678 2784 2431 2784 
Q 1963 2784 1702 2511 
Q 1441 2238 1441 1747 
Q 1441 1256 1702 982 
Q 1963 709 2431 709 
Q 2694 709 2930 787 
Q 3166 866 3366 1019 
L 3366 103 
Q 3103 6 2833 -42 
Q 2563 -91 2291 -91 
Q 1344 -91 809 395 
Q 275 881 275 1747 
Q 275 2613 809 3098 
Q 1344 3584 2291 3584 
Q 2566 3584 2833 3536 
Q 3100 3488 3366 3391 
z
" transform="scale(0.015625)"/>
      <path id="DejaVuSans-Bold-64" d="M 2919 2988 
L 2919 4863 
L 4044 4863 
L 4044 0 
L 2919 0 
L 2919 506 
Q 2688 197 2409 53 
Q 2131 -91 1766 -91 
Q 1119 -91 703 423 
Q 288 938 288 1747 
Q 288 2556 703 3070 
Q 1119 3584 1766 3584 
Q 2128 3584 2408 3439 
Q 2688 3294 2919 2988 
z
M 2181 722 
Q 2541 722 2730 984 
Q 2919 1247 2919 1747 
Q 2919 2247 2730 2509 
Q 2541 2772 2181 2772 
Q 1825 2772 1636 2509 
Q 1447 2247 1447 1747 
Q 1447 1247 1636 984 
Q 1825 722 2181 722 
z
" transform="scale(0.015625)"/>
      <path id="DejaVuSans-Bold-50" d="M 588 4666 
L 2584 4666 
Q 3475 4666 3951 4270 
Q 4428 3875 4428 3144 
Q 4428 2409 3951 2014 
Q 3475 1619 2584 1619 
L 1791 1619 
L 1791 0 
L 588 0 
L 588 4666 
z
M 1791 3794 
L 1791 2491 
L 2456 2491 
Q 2806 2491 2997 2661 
Q 3188 2831 3188 3144 
Q 3188 3456 2997 3625 
Q 2806 3794 2456 3794 
L 1791 3794 
z
" transform="scale(0.015625)"/>
      <path id="DejaVuSans-Bold-77" d="M 225 3500 
L 1313 3500 
L 1900 1088 
L 2491 3500 
L 3425 3500 
L 4013 1113 
L 4603 3500 
L 5691 3500 
L 4769 0 
L 3547 0 
L 2956 2406 
L 2369 0 
L 1147 0 
L 225 3500 
z
" transform="scale(0.015625)"/>
      <path id="DejaVuSans-Bold-79" d="M 78 3500 
L 1197 3500 
L 2138 1125 
L 2938 3500 
L 4056 3500 
L 2584 -331 
Q 2363 -916 2067 -1148 
Q 1772 -1381 1288 -1381 
L 641 -1381 
L 641 -647 
L 991 -647 
Q 1275 -647 1404 -556 
Q 1534 -466 1606 -231 
L 1638 -134 
L 78 3500 
z
" transform="scale(0.015625)"/>
      <path id="DejaVuSans-Bold-3a" d="M 716 3500 
L 1844 3500 
L 1844 2291 
L 716 2291 
L 716 3500 
z
M 716 1209 
L 1844 1209 
L 1844 0 
L 716 0 
L 716 1209 
z
" transform="scale(0.015625)"/>
      <path id="DejaVuSans-Bold-2192" d="M 5050 2225 
L 5050 1788 
L 3822 559 
L 3369 1013 
L 3988 1631 
L 366 1631 
L 366 2381 
L 3988 2381 
L 3369 3000 
L 3822 3453 
L 5050 2225 
z
" transform="scale(0.015625)"/>
      <path id="DejaVuSans-Bold-53" d="M 3834 4519 
L 3834 3531 
Q 3450 3703 3084 3790 
Q 2719 3878 2394 3878 
Q 1963 3878 1756 3759 
Q 1550 3641 1550 3391 
Q 1550 3203 1689 3098 
Q 1828 2994 2194 2919 
L 2706 2816 
Q 3484 2659 3812 2340 
Q 4141 2022 4141 1434 
Q 4141 663 3683 286 
Q 3225 -91 2284 -91 
Q 1841 -91 1394 -6 
Q 947 78 500 244 
L 500 1259 
Q 947 1022 1364 901 
Q 1781 781 2169 781 
Q 2563 781 2772 912 
Q 2981 1044 2981 1288 
Q 2981 1506 2839 1625 
Q 2697 1744 2272 1838 
L 1806 1941 
Q 1106 2091 782 2419 
Q 459 2747 459 3303 
Q 459 4000 909 4375 
Q 1359 4750 2203 4750 
Q 2588 4750 2994 4692 
Q 3400 4634 3834 4519 
z
" transform="scale(0.015625)"/>
      <path id="DejaVuSans-Bold-4e" d="M 588 4666 
L 1931 4666 
L 3628 1466 
L 3628 4666 
L 4769 4666 
L 4769 0 
L 3425 0 
L 1728 3200 
L 1728 0 
L 588 0 
L 588 4666 
z
" transform="scale(0.015625)"/>
     </defs>
     <use xlink:href="#DejaVuSans-Bold-54"/>
     <use xlink:href="#DejaVuSans-Bold-68" transform="translate(68.212891 0)"/>
     <use xlink:href="#DejaVuSans-Bold-65" transform="translate(139.404297 0)"/>
     <use xlink:href="#DejaVuSans-Bold-20" transform="translate(207.226562 0)"/>
     <use xlink:href="#DejaVuSans-Bold-43" transform="translate(242.041016 0)"/>
     <use xlink:href="#DejaVuSans-Bold-69" transform="translate(315.429688 0)"/>
     <use xlink:href="#DejaVuSans-Bold-72" transform="translate(349.707031 0)"/>
     <use xlink:href="#DejaVuSans-Bold-63" transform="translate(399.023438 0)"/>
     <use xlink:href="#DejaVuSans-Bold-61" transform="translate(458.300781 0)"/>
     <use xlink:href="#DejaVuSans-Bold-64" transform="translate(525.78125 0)"/>
     <use xlink:href="#DejaVuSans-Bold-69" transform="translate(597.363281 0)"/>
     <use xlink:href="#DejaVuSans-Bold-61" transform="translate(631.640625 0)"/>
     <use xlink:href="#DejaVuSans-Bold-6e" transform="translate(699.121094 0)"/>
     <use xlink:href="#DejaVuSans-Bold-20" transform="translate(770.3125 0)"/>
     <use xlink:href="#DejaVuSans-Bold-50" transform="translate(805.126953 0)"/>
     <use xlink:href="#DejaVuSans-Bold-61" transform="translate(875.792969 0)"/>
     <use xlink:href="#DejaVuSans-Bold-74" transform="translate(943.273438 0)"/>
     <use xlink:href="#DejaVuSans-Bold-68" transform="translate(991.076172 0)"/>
     <use xlink:href="#DejaVuSans-Bold-77" transform="translate(1062.267578 0)"/>
     <use xlink:href="#DejaVuSans-Bold-61" transform="translate(1154.650391 0)"/>
     <use xlink:href="#DejaVuSans-Bold-79" transform="translate(1219.005859 0)"/>
     <use xlink:href="#DejaVuSans-Bold-3a" transform="translate(1284.191406 0)"/>
     <use xlink:href="#DejaVuSans-Bold-20" transform="translate(1324.181641 0)"/>
     <use xlink:href="#DejaVuSans-Bold-4c" transform="translate(1358.996094 0)"/>
     <use xlink:href="#DejaVuSans-Bold-69" transform="translate(1422.716797 0)"/>
     <use xlink:href="#DejaVuSans-Bold-67" transform="translate(1456.994141 0)"/>
     <use xlink:href="#DejaVuSans-Bold-68" transform="translate(1528.576172 0)"/>
     <use xlink:href="#DejaVuSans-Bold-74" transform="translate(1599.767578 0)"/>
     <use xlink:href="#DejaVuSans-Bold-20" transform="translate(1647.570312 0)"/>
     <use xlink:href="#DejaVuSans-Bold-2192" transform="translate(1682.384766 0)"/>
     <use xlink:href="#DejaVuSans-Bold-20" transform="translate(1766.173828 0)"/>
     <use xlink:href="#DejaVuSans-Bold-53" transform="translate(1800.988281 0)"/>
     <use xlink:href="#DejaVuSans-Bold-43" transform="translate(1873.009766 0)"/>
     <use xlink:href="#DejaVuSans-Bold-4e" transform="translate(1946.398438 0)"/>
     <use xlink:href="#DejaVuSans-Bold-20" transform="translate(2030.089844 0)"/>
     <use xlink:href="#DejaVuSans-Bold-2192" transform="translate(2064.904297 0)"/>
     <use xlink:href="#DejaVuSans-Bold-20" transform="translate(2148.693359 0)"/>
     <use xlink:href="#DejaVuSans-Bold-4d" transform="translate(2183.507812 0)"/>
     <use xlink:href="#DejaVuSans-Bold-65" transform="translate(2283.019531 0)"/>
     <use xlink:href="#DejaVuSans-Bold-6c" transform="translate(2350.841797 0)"/>
     <use xlink:href="#DejaVuSans-Bold-61" transform="translate(2385.119141 0)"/>
     <use xlink:href="#DejaVuSans-Bold-74" transform="translate(2452.599609 0)"/>
     <use xlink:href="#DejaVuSans-Bold-6f" transform="translate(2500.402344 0)"/>
     <use xlink:href="#DejaVuSans-Bold-6e" transform="translate(2569.103516 0)"/>
     <use xlink:href="#DejaVuSans-Bold-69" transform="translate(2640.294922 0)"/>
     <use xlink:href="#DejaVuSans-Bold-6e" transform="translate(2674.572266 0)"/>
    </g>
   </g>
   <g id="text_5">
    <!-- direct -->
    <g style="fill: #777799" transform="translate(164.112097 262.718743) scale(0.075 -0.075)">
     <defs>
      <path id="DejaVuSans-Oblique-64" d="M 2675 525 
Q 2444 222 2128 65 
Q 1813 -91 1428 -91 
Q 903 -91 598 267 
Q 294 625 294 1247 
Q 294 1766 478 2236 
Q 663 2706 1013 3078 
Q 1244 3325 1534 3454 
Q 1825 3584 2144 3584 
Q 2481 3584 2739 3421 
Q 2997 3259 3138 2956 
L 3513 4863 
L 4091 4863 
L 3144 0 
L 2566 0 
L 2675 525 
z
M 891 1350 
Q 891 897 1095 644 
Q 1300 391 1663 391 
Q 1931 391 2161 520 
Q 2391 650 2566 903 
Q 2750 1166 2856 1509 
Q 2963 1853 2963 2188 
Q 2963 2622 2758 2865 
Q 2553 3109 2194 3109 
Q 1922 3109 1687 2981 
Q 1453 2853 1288 2613 
Q 1106 2353 998 2009 
Q 891 1666 891 1350 
z
" transform="scale(0.015625)"/>
      <path id="DejaVuSans-Oblique-63" d="M 3431 3366 
L 3316 2797 
Q 3109 2947 2876 3022 
Q 2644 3097 2394 3097 
Q 2119 3097 1870 3000 
Q 1622 2903 1453 2725 
Q 1184 2453 1037 2087 
Q 891 1722 891 1331 
Q 891 859 1127 628 
Q 1363 397 1844 397 
Q 2081 397 2348 469 
Q 2616 541 2906 684 
L 2797 116 
Q 2547 13 2283 -39 
Q 2019 -91 1741 -91 
Q 1044 -91 669 257 
Q 294 606 294 1253 
Q 294 1797 489 2255 
Q 684 2713 1069 3078 
Q 1331 3328 1684 3456 
Q 2038 3584 2456 3584 
Q 2700 3584 2940 3529 
Q 3181 3475 3431 3366 
z
" transform="scale(0.015625)"/>
     </defs>
     <use xlink:href="#DejaVuSans-Oblique-64"/>
     <use xlink:href="#DejaVuSans-Oblique-69" transform="translate(63.476562 0)"/>
     <use xlink:href="#DejaVuSans-Oblique-72" transform="translate(91.259766 0)"/>
     <use xlink:href="#DejaVuSans-Oblique-65" transform="translate(132.373047 0)"/>
     <use xlink:href="#DejaVuSans-Oblique-63" transform="translate(193.896484 0)"/>
     <use xlink:href="#DejaVuSans-Oblique-74" transform="translate(248.876953 0)"/>
    </g>
    <!-- neural input -->
    <g style="fill: #777799" transform="translate(152.13612 271.686986) scale(0.075 -0.075)">
     <defs>
      <path id="DejaVuSans-Oblique-61" d="M 3438 1997 
L 3047 0 
L 2472 0 
L 2578 531 
Q 2325 219 2001 64 
Q 1678 -91 1281 -91 
Q 834 -91 548 182 
Q 263 456 263 884 
Q 263 1497 752 1853 
Q 1241 2209 2100 2209 
L 2900 2209 
L 2931 2363 
Q 2938 2388 2941 2417 
Q 2944 2447 2944 2509 
Q 2944 2788 2717 2942 
Q 2491 3097 2081 3097 
Q 1800 3097 1504 3025 
Q 1209 2953 897 2809 
L 997 3341 
Q 1322 3463 1633 3523 
Q 1944 3584 2234 3584 
Q 2853 3584 3176 3315 
Q 3500 3047 3500 2534 
Q 3500 2431 3484 2292 
Q 3469 2153 3438 1997 
z
M 2816 1759 
L 2241 1759 
Q 1534 1759 1195 1570 
Q 856 1381 856 984 
Q 856 709 1029 553 
Q 1203 397 1509 397 
Q 1978 397 2328 733 
Q 2678 1069 2791 1631 
L 2816 1759 
z
" transform="scale(0.015625)"/>
     </defs>
     <use xlink:href="#DejaVuSans-Oblique-6e"/>
     <use xlink:href="#DejaVuSans-Oblique-65" transform="translate(63.378906 0)"/>
     <use xlink:href="#DejaVuSans-Oblique-75" transform="translate(124.902344 0)"/>
     <use xlink:href="#DejaVuSans-Oblique-72" transform="translate(188.28125 0)"/>
     <use xlink:href="#DejaVuSans-Oblique-61" transform="translate(229.394531 0)"/>
     <use xlink:href="#DejaVuSans-Oblique-6c" transform="translate(290.673828 0)"/>
     <use xlink:href="#DejaVuSans-Oblique-20" transform="translate(318.457031 0)"/>
     <use xlink:href="#DejaVuSans-Oblique-69" transform="translate(350.244141 0)"/>
     <use xlink:href="#DejaVuSans-Oblique-6e" transform="translate(378.027344 0)"/>
     <use xlink:href="#DejaVuSans-Oblique-70" transform="translate(441.40625 0)"/>
     <use xlink:href="#DejaVuSans-Oblique-75" transform="translate(504.882812 0)"/>
     <use xlink:href="#DejaVuSans-Oblique-74" transform="translate(568.261719 0)"/>
    </g>
   </g>
   <g id="text_6">
    <!-- synchronizes -->
    <g style="fill: #777799" transform="translate(313.769233 262.718743) scale(0.075 -0.075)">
     <defs>
      <path id="DejaVuSans-Oblique-7a" d="M 744 3500 
L 3475 3500 
L 3372 2975 
L 738 459 
L 2913 459 
L 2822 0 
L -19 0 
L 84 525 
L 2719 3041 
L 653 3041 
L 744 3500 
z
" transform="scale(0.015625)"/>
     </defs>
     <use xlink:href="#DejaVuSans-Oblique-73"/>
     <use xlink:href="#DejaVuSans-Oblique-79" transform="translate(52.099609 0)"/>
     <use xlink:href="#DejaVuSans-Oblique-6e" transform="translate(111.279297 0)"/>
     <use xlink:href="#DejaVuSans-Oblique-63" transform="translate(174.658203 0)"/>
     <use xlink:href="#DejaVuSans-Oblique-68" transform="translate(229.638672 0)"/>
     <use xlink:href="#DejaVuSans-Oblique-72" transform="translate(293.017578 0)"/>
     <use xlink:href="#DejaVuSans-Oblique-6f" transform="translate(334.130859 0)"/>
     <use xlink:href="#DejaVuSans-Oblique-6e" transform="translate(395.3125 0)"/>
     <use xlink:href="#DejaVuSans-Oblique-69" transform="translate(458.691406 0)"/>
     <use xlink:href="#DejaVuSans-Oblique-7a" transform="translate(486.474609 0)"/>
     <use xlink:href="#DejaVuSans-Oblique-65" transform="translate(538.964844 0)"/>
     <use xlink:href="#DejaVuSans-Oblique-73" transform="translate(600.488281 0)"/>
    </g>
    <!-- (entrains) clock -->
    <g style="fill: #777799" transform="translate(309.125678 271.686986) scale(0.075 -0.075)">
     <defs>
      <path id="DejaVuSans-Oblique-28" d="M 2731 4856 
Q 1903 3822 1495 2892 
Q 1088 1963 1088 1100 
Q 1088 606 1206 120 
Q 1325 -366 1563 -844 
L 1063 -844 
Q 775 -306 634 201 
Q 494 709 494 1197 
Q 494 2125 923 3036 
Q 1353 3947 2222 4856 
L 2731 4856 
z
" transform="scale(0.015625)"/>
      <path id="DejaVuSans-Oblique-29" d="M -397 -844 
Q 434 191 840 1120 
Q 1247 2050 1247 2913 
Q 1247 3406 1130 3892 
Q 1013 4378 775 4856 
L 1275 4856 
Q 1563 4316 1703 3812 
Q 1844 3309 1844 2822 
Q 1844 1891 1411 973 
Q 978 56 116 -844 
L -397 -844 
z
" transform="scale(0.015625)"/>
      <path id="DejaVuSans-Oblique-6b" d="M 1172 4863 
L 1747 4863 
L 1197 2028 
L 3169 3500 
L 3916 3500 
L 1716 1825 
L 3322 0 
L 2625 0 
L 1131 1709 
L 800 0 
L 225 0 
L 1172 4863 
z
" transform="scale(0.015625)"/>
     </defs>
     <use xlink:href="#DejaVuSans-Oblique-28"/>
     <use xlink:href="#DejaVuSans-Oblique-65" transform="translate(39.013672 0)"/>
     <use xlink:href="#DejaVuSans-Oblique-6e" transform="translate(100.537109 0)"/>
     <use xlink:href="#DejaVuSans-Oblique-74" transform="translate(163.916016 0)"/>
     <use xlink:href="#DejaVuSans-Oblique-72" transform="translate(203.125 0)"/>
     <use xlink:href="#DejaVuSans-Oblique-61" transform="translate(244.238281 0)"/>
     <use xlink:href="#DejaVuSans-Oblique-69" transform="translate(305.517578 0)"/>
     <use xlink:href="#DejaVuSans-Oblique-6e" transform="translate(333.300781 0)"/>
     <use xlink:href="#DejaVuSans-Oblique-73" transform="translate(396.679688 0)"/>
     <use xlink:href="#DejaVuSans-Oblique-29" transform="translate(448.779297 0)"/>
     <use xlink:href="#DejaVuSans-Oblique-20" transform="translate(487.792969 0)"/>
     <use xlink:href="#DejaVuSans-Oblique-63" transform="translate(519.580078 0)"/>
     <use xlink:href="#DejaVuSans-Oblique-6c" transform="translate(574.560547 0)"/>
     <use xlink:href="#DejaVuSans-Oblique-6f" transform="translate(602.34375 0)"/>
     <use xlink:href="#DejaVuSans-Oblique-63" transform="translate(663.525391 0)"/>
     <use xlink:href="#DejaVuSans-Oblique-6b" transform="translate(718.505859 0)"/>
    </g>
   </g>
   <g id="text_7">
    <!-- signals pineal -->
    <g style="fill: #777799" transform="translate(479.432778 262.718743) scale(0.075 -0.075)">
     <use xlink:href="#DejaVuSans-Oblique-73"/>
     <use xlink:href="#DejaVuSans-Oblique-69" transform="translate(52.099609 0)"/>
     <use xlink:href="#DejaVuSans-Oblique-67" transform="translate(79.882812 0)"/>
     <use xlink:href="#DejaVuSans-Oblique-6e" transform="translate(143.359375 0)"/>
     <use xlink:href="#DejaVuSans-Oblique-61" transform="translate(206.738281 0)"/>
     <use xlink:href="#DejaVuSans-Oblique-6c" transform="translate(268.017578 0)"/>
     <use xlink:href="#DejaVuSans-Oblique-73" transform="translate(295.800781 0)"/>
     <use xlink:href="#DejaVuSans-Oblique-20" transform="translate(347.900391 0)"/>
     <use xlink:href="#DejaVuSans-Oblique-70" transform="translate(379.6875 0)"/>
     <use xlink:href="#DejaVuSans-Oblique-69" transform="translate(443.164062 0)"/>
     <use xlink:href="#DejaVuSans-Oblique-6e" transform="translate(470.947266 0)"/>
     <use xlink:href="#DejaVuSans-Oblique-65" transform="translate(534.326172 0)"/>
     <use xlink:href="#DejaVuSans-Oblique-61" transform="translate(595.849609 0)"/>
     <use xlink:href="#DejaVuSans-Oblique-6c" transform="translate(657.128906 0)"/>
    </g>
    <!-- to release -->
    <g style="fill: #777799" transform="translate(486.403091 271.686986) scale(0.075 -0.075)">
     <use xlink:href="#DejaVuSans-Oblique-74"/>
     <use xlink:href="#DejaVuSans-Oblique-6f" transform="translate(39.208984 0)"/>
     <use xlink:href="#DejaVuSans-Oblique-20" transform="translate(100.390625 0)"/>
     <use xlink:href="#DejaVuSans-Oblique-72" transform="translate(132.177734 0)"/>
     <use xlink:href="#DejaVuSans-Oblique-65" transform="translate(173.291016 0)"/>
     <use xlink:href="#DejaVuSans-Oblique-6c" transform="translate(234.814453 0)"/>
     <use xlink:href="#DejaVuSans-Oblique-65" transform="translate(262.597656 0)"/>
     <use xlink:href="#DejaVuSans-Oblique-61" transform="translate(324.121094 0)"/>
     <use xlink:href="#DejaVuSans-Oblique-73" transform="translate(385.400391 0)"/>
     <use xlink:href="#DejaVuSans-Oblique-65" transform="translate(437.5 0)"/>
    </g>
   </g>
   <g id="text_8">
    <!-- Retina -->
    <g style="fill: #ffffff" transform="translate(78.629837 211.810125) scale(0.08 -0.08)">
     <defs>
      <path id="DejaVuSans-Bold-52" d="M 2297 2597 
Q 2675 2597 2839 2737 
Q 3003 2878 3003 3200 
Q 3003 3519 2839 3656 
Q 2675 3794 2297 3794 
L 1791 3794 
L 1791 2597 
L 2297 2597 
z
M 1791 1766 
L 1791 0 
L 588 0 
L 588 4666 
L 2425 4666 
Q 3347 4666 3776 4356 
Q 4206 4047 4206 3378 
Q 4206 2916 3982 2619 
Q 3759 2322 3309 2181 
Q 3556 2125 3751 1926 
Q 3947 1728 4147 1325 
L 4800 0 
L 3519 0 
L 2950 1159 
Q 2778 1509 2601 1637 
Q 2425 1766 2131 1766 
L 1791 1766 
z
" transform="scale(0.015625)"/>
     </defs>
     <use xlink:href="#DejaVuSans-Bold-52"/>
     <use xlink:href="#DejaVuSans-Bold-65" transform="translate(77.001953 0)"/>
     <use xlink:href="#DejaVuSans-Bold-74" transform="translate(144.824219 0)"/>
     <use xlink:href="#DejaVuSans-Bold-69" transform="translate(192.626953 0)"/>
     <use xlink:href="#DejaVuSans-Bold-6e" transform="translate(226.904297 0)"/>
     <use xlink:href="#DejaVuSans-Bold-61" transform="translate(298.095703 0)"/>
    </g>
    <!-- (light-sensitive -->
    <g style="fill: #ffffff" transform="translate(59.102962 221.37625) scale(0.08 -0.08)">
     <defs>
      <path id="DejaVuSans-Bold-2d" d="M 347 2297 
L 2309 2297 
L 2309 1388 
L 347 1388 
L 347 2297 
z
" transform="scale(0.015625)"/>
     </defs>
     <use xlink:href="#DejaVuSans-Bold-28"/>
     <use xlink:href="#DejaVuSans-Bold-6c" transform="translate(45.703125 0)"/>
     <use xlink:href="#DejaVuSans-Bold-69" transform="translate(79.980469 0)"/>
     <use xlink:href="#DejaVuSans-Bold-67" transform="translate(114.257812 0)"/>
     <use xlink:href="#DejaVuSans-Bold-68" transform="translate(185.839844 0)"/>
     <use xlink:href="#DejaVuSans-Bold-74" transform="translate(257.03125 0)"/>
     <use xlink:href="#DejaVuSans-Bold-2d" transform="translate(304.833984 0)"/>
     <use xlink:href="#DejaVuSans-Bold-73" transform="translate(346.337891 0)"/>
     <use xlink:href="#DejaVuSans-Bold-65" transform="translate(405.859375 0)"/>
     <use xlink:href="#DejaVuSans-Bold-6e" transform="translate(473.681641 0)"/>
     <use xlink:href="#DejaVuSans-Bold-73" transform="translate(544.873047 0)"/>
     <use xlink:href="#DejaVuSans-Bold-69" transform="translate(604.394531 0)"/>
     <use xlink:href="#DejaVuSans-Bold-74" transform="translate(638.671875 0)"/>
     <use xlink:href="#DejaVuSans-Bold-69" transform="translate(686.474609 0)"/>
     <use xlink:href="#DejaVuSans-Bold-76" transform="translate(720.751953 0)"/>
     <use xlink:href="#DejaVuSans-Bold-65" transform="translate(785.9375 0)"/>
    </g>
    <!-- cells) -->
    <g style="fill: #ffffff" transform="translate(81.217337 231.004875) scale(0.08 -0.08)">
     <use xlink:href="#DejaVuSans-Bold-63"/>
     <use xlink:href="#DejaVuSans-Bold-65" transform="translate(59.277344 0)"/>
     <use xlink:href="#DejaVuSans-Bold-6c" transform="translate(127.099609 0)"/>
     <use xlink:href="#DejaVuSans-Bold-6c" transform="translate(161.376953 0)"/>
     <use xlink:href="#DejaVuSans-Bold-73" transform="translate(195.654297 0)"/>
     <use xlink:href="#DejaVuSans-Bold-29" transform="translate(255.175781 0)"/>
    </g>
   </g>
   <g id="text_9">
    <!-- Retino- -->
    <g style="fill: #ffffff" transform="translate(240.246387 211.810125) scale(0.08 -0.08)">
     <use xlink:href="#DejaVuSans-Bold-52"/>
     <use xlink:href="#DejaVuSans-Bold-65" transform="translate(77.001953 0)"/>
     <use xlink:href="#DejaVuSans-Bold-74" transform="translate(144.824219 0)"/>
     <use xlink:href="#DejaVuSans-Bold-69" transform="translate(192.626953 0)"/>
     <use xlink:href="#DejaVuSans-Bold-6e" transform="translate(226.904297 0)"/>
     <use xlink:href="#DejaVuSans-Bold-6f" transform="translate(298.095703 0)"/>
     <use xlink:href="#DejaVuSans-Bold-2d" transform="translate(366.796875 0)"/>
    </g>
    <!-- hypothalamic -->
    <g style="fill: #ffffff" transform="translate(226.072012 221.37625) scale(0.08 -0.08)">
     <use xlink:href="#DejaVuSans-Bold-68"/>
     <use xlink:href="#DejaVuSans-Bold-79" transform="translate(71.191406 0)"/>
     <use xlink:href="#DejaVuSans-Bold-70" transform="translate(136.376953 0)"/>
     <use xlink:href="#DejaVuSans-Bold-6f" transform="translate(207.958984 0)"/>
     <use xlink:href="#DejaVuSans-Bold-74" transform="translate(276.660156 0)"/>
     <use xlink:href="#DejaVuSans-Bold-68" transform="translate(324.462891 0)"/>
     <use xlink:href="#DejaVuSans-Bold-61" transform="translate(395.654297 0)"/>
     <use xlink:href="#DejaVuSans-Bold-6c" transform="translate(463.134766 0)"/>
     <use xlink:href="#DejaVuSans-Bold-61" transform="translate(497.412109 0)"/>
     <use xlink:href="#DejaVuSans-Bold-6d" transform="translate(564.892578 0)"/>
     <use xlink:href="#DejaVuSans-Bold-69" transform="translate(669.091797 0)"/>
     <use xlink:href="#DejaVuSans-Bold-63" transform="translate(703.369141 0)"/>
    </g>
    <!-- tract -->
    <g style="fill: #ffffff" transform="translate(245.711388 231.004875) scale(0.08 -0.08)">
     <use xlink:href="#DejaVuSans-Bold-74"/>
     <use xlink:href="#DejaVuSans-Bold-72" transform="translate(47.802734 0)"/>
     <use xlink:href="#DejaVuSans-Bold-61" transform="translate(97.119141 0)"/>
     <use xlink:href="#DejaVuSans-Bold-63" transform="translate(164.599609 0)"/>
     <use xlink:href="#DejaVuSans-Bold-74" transform="translate(223.876953 0)"/>
    </g>
   </g>
   <g id="text_10">
    <!-- Suprachiasmatic -->
    <g style="fill: #ffffff" transform="translate(382.448562 211.810125) scale(0.08 -0.08)">
     <defs>
      <path id="DejaVuSans-Bold-75" d="M 500 1363 
L 500 3500 
L 1625 3500 
L 1625 3150 
Q 1625 2866 1622 2436 
Q 1619 2006 1619 1863 
Q 1619 1441 1641 1255 
Q 1663 1069 1716 984 
Q 1784 875 1895 815 
Q 2006 756 2150 756 
Q 2500 756 2700 1025 
Q 2900 1294 2900 1772 
L 2900 3500 
L 4019 3500 
L 4019 0 
L 2900 0 
L 2900 506 
Q 2647 200 2364 54 
Q 2081 -91 1741 -91 
Q 1134 -91 817 281 
Q 500 653 500 1363 
z
" transform="scale(0.015625)"/>
     </defs>
     <use xlink:href="#DejaVuSans-Bold-53"/>
     <use xlink:href="#DejaVuSans-Bold-75" transform="translate(72.021484 0)"/>
     <use xlink:href="#DejaVuSans-Bold-70" transform="translate(143.212891 0)"/>
     <use xlink:href="#DejaVuSans-Bold-72" transform="translate(214.794922 0)"/>
     <use xlink:href="#DejaVuSans-Bold-61" transform="translate(264.111328 0)"/>
     <use xlink:href="#DejaVuSans-Bold-63" transform="translate(331.591797 0)"/>
     <use xlink:href="#DejaVuSans-Bold-68" transform="translate(390.869141 0)"/>
     <use xlink:href="#DejaVuSans-Bold-69" transform="translate(462.060547 0)"/>
     <use xlink:href="#DejaVuSans-Bold-61" transform="translate(496.337891 0)"/>
     <use xlink:href="#DejaVuSans-Bold-73" transform="translate(563.818359 0)"/>
     <use xlink:href="#DejaVuSans-Bold-6d" transform="translate(623.339844 0)"/>
     <use xlink:href="#DejaVuSans-Bold-61" transform="translate(727.539062 0)"/>
     <use xlink:href="#DejaVuSans-Bold-74" transform="translate(795.019531 0)"/>
     <use xlink:href="#DejaVuSans-Bold-69" transform="translate(842.822266 0)"/>
     <use xlink:href="#DejaVuSans-Bold-63" transform="translate(877.099609 0)"/>
    </g>
    <!-- Nucleus (SCN) -->
    <g style="fill: #ffffff" transform="translate(387.812312 221.37625) scale(0.08 -0.08)">
     <use xlink:href="#DejaVuSans-Bold-4e"/>
     <use xlink:href="#DejaVuSans-Bold-75" transform="translate(83.691406 0)"/>
     <use xlink:href="#DejaVuSans-Bold-63" transform="translate(154.882812 0)"/>
     <use xlink:href="#DejaVuSans-Bold-6c" transform="translate(214.160156 0)"/>
     <use xlink:href="#DejaVuSans-Bold-65" transform="translate(248.4375 0)"/>
     <use xlink:href="#DejaVuSans-Bold-75" transform="translate(316.259766 0)"/>
     <use xlink:href="#DejaVuSans-Bold-73" transform="translate(387.451172 0)"/>
     <use xlink:href="#DejaVuSans-Bold-20" transform="translate(446.972656 0)"/>
     <use xlink:href="#DejaVuSans-Bold-28" transform="translate(481.787109 0)"/>
     <use xlink:href="#DejaVuSans-Bold-53" transform="translate(527.490234 0)"/>
     <use xlink:href="#DejaVuSans-Bold-43" transform="translate(599.511719 0)"/>
     <use xlink:href="#DejaVuSans-Bold-4e" transform="translate(672.900391 0)"/>
     <use xlink:href="#DejaVuSans-Bold-29" transform="translate(756.591797 0)"/>
    </g>
    <!-- (hypothalamus) -->
    <g style="fill: #ffffff" transform="translate(384.255437 230.942375) scale(0.08 -0.08)">
     <use xlink:href="#DejaVuSans-Bold-28"/>
     <use xlink:href="#DejaVuSans-Bold-68" transform="translate(45.703125 0)"/>
     <use xlink:href="#DejaVuSans-Bold-79" transform="translate(116.894531 0)"/>
     <use xlink:href="#DejaVuSans-Bold-70" transform="translate(182.080078 0)"/>
     <use xlink:href="#DejaVuSans-Bold-6f" transform="translate(253.662109 0)"/>
     <use xlink:href="#DejaVuSans-Bold-74" transform="translate(322.363281 0)"/>
     <use xlink:href="#DejaVuSans-Bold-68" transform="translate(370.166016 0)"/>
     <use xlink:href="#DejaVuSans-Bold-61" transform="translate(441.357422 0)"/>
     <use xlink:href="#DejaVuSans-Bold-6c" transform="translate(508.837891 0)"/>
     <use xlink:href="#DejaVuSans-Bold-61" transform="translate(543.115234 0)"/>
     <use xlink:href="#DejaVuSans-Bold-6d" transform="translate(610.595703 0)"/>
     <use xlink:href="#DejaVuSans-Bold-75" transform="translate(714.794922 0)"/>
     <use xlink:href="#DejaVuSans-Bold-73" transform="translate(785.986328 0)"/>
     <use xlink:href="#DejaVuSans-Bold-29" transform="translate(845.507812 0)"/>
    </g>
   </g>
   <g id="text_11">
    <!-- Pineal -->
    <g style="fill: #ffffff" transform="translate(576.395587 216.624437) scale(0.08 -0.08)">
     <use xlink:href="#DejaVuSans-Bold-50"/>
     <use xlink:href="#DejaVuSans-Bold-69" transform="translate(73.291016 0)"/>
     <use xlink:href="#DejaVuSans-Bold-6e" transform="translate(107.568359 0)"/>
     <use xlink:href="#DejaVuSans-Bold-65" transform="translate(178.759766 0)"/>
     <use xlink:href="#DejaVuSans-Bold-61" transform="translate(246.582031 0)"/>
     <use xlink:href="#DejaVuSans-Bold-6c" transform="translate(314.0625 0)"/>
    </g>
    <!-- Gland -->
    <g style="fill: #ffffff" transform="translate(577.265587 226.190562) scale(0.08 -0.08)">
     <defs>
      <path id="DejaVuSans-Bold-47" d="M 4781 347 
Q 4331 128 3847 18 
Q 3363 -91 2847 -91 
Q 1681 -91 1000 561 
Q 319 1213 319 2328 
Q 319 3456 1012 4103 
Q 1706 4750 2913 4750 
Q 3378 4750 3804 4662 
Q 4231 4575 4609 4403 
L 4609 3438 
Q 4219 3659 3833 3768 
Q 3447 3878 3059 3878 
Q 2341 3878 1952 3476 
Q 1563 3075 1563 2328 
Q 1563 1588 1938 1184 
Q 2313 781 3003 781 
Q 3191 781 3352 804 
Q 3513 828 3641 878 
L 3641 1784 
L 2906 1784 
L 2906 2591 
L 4781 2591 
L 4781 347 
z
" transform="scale(0.015625)"/>
     </defs>
     <use xlink:href="#DejaVuSans-Bold-47"/>
     <use xlink:href="#DejaVuSans-Bold-6c" transform="translate(82.080078 0)"/>
     <use xlink:href="#DejaVuSans-Bold-61" transform="translate(116.357422 0)"/>
     <use xlink:href="#DejaVuSans-Bold-6e" transform="translate(183.837891 0)"/>
     <use xlink:href="#DejaVuSans-Bold-64" transform="translate(255.029297 0)"/>
    </g>
   </g>
  </g>
 </g>
 <defs>
  <clipPath id="p35172e89fc">
   <rect x="8.039763" y="7.2" width="710.11" height="424"/>
  </clipPath>
 </defs>
</svg>
