<?xml version="1.0" encoding="utf-8" standalone="no"?>
<!DOCTYPE svg PUBLIC "-//W3C//DTD SVG 1.1//EN"
  "http://www.w3.org/Graphics/SVG/1.1/DTD/svg11.dtd">
<svg xmlns:xlink="http://www.w3.org/1999/xlink" width="758.3814pt" height="430.2pt" viewBox="0 0 758.3814 430.2" xmlns="http://www.w3.org/2000/svg" version="1.1">
 <metadata>
  <rdf:RDF xmlns:dc="http://purl.org/dc/elements/1.1/" xmlns:cc="http://creativecommons.org/ns#" xmlns:rdf="http://www.w3.org/1999/02/22-rdf-syntax-ns#">
   <cc:Work>
    <dc:type rdf:resource="http://purl.org/dc/dcmitype/StillImage"/>
    <dc:date>2026-06-21T18:33:57.187635</dc:date>
    <dc:format>image/svg+xml</dc:format>
    <dc:creator>
     <cc:Agent>
      <dc:title>Matplotlib v3.10.8, https://matplotlib.org/</dc:title>
     </cc:Agent>
    </dc:creator>
   </cc:Work>
  </rdf:RDF>
 </metadata>
 <defs>
  <style type="text/css">*{stroke-linejoin: round; stroke-linecap: butt}</style>
 </defs>
 <g id="figure_1">
  <g id="patch_1">
   <path d="M 0 430.2 
L 758.3814 430.2 
L 758.3814 0 
L 0 0 
z
" style="fill: #ffffff"/>
  </g>
  <g id="axes_1">
   <g id="patch_2">
    <path d="M 342.921607 373.566 
L 647.953981 373.566 
Q 654.928806 373.566 654.928806 366.636 
L 654.928806 315.354 
Q 654.928806 308.424 647.953981 308.424 
L 342.921607 308.424 
Q 335.946781 308.424 335.946781 315.354 
L 335.946781 366.636 
Q 335.946781 373.566 342.921607 373.566 
z
" clip-path="url(#pb8933f65d9)" style="fill: #f5f7fa; stroke: #5f6670; stroke-width: 1.6; stroke-linejoin: miter"/>
   </g>
   <g id="line2d_1">
    <path d="M 285.858586 204.024286 
L 283.301925 200.195207 
L 280.384962 196.481741 
L 277.120988 192.896671 
L 273.524477 189.452216 
L 269.61103 186.159987 
L 265.397306 183.030952 
L 260.900954 180.075396 
L 256.140539 177.302888 
L 251.135468 174.722253 
L 245.905912 172.341544 
L 240.472722 170.168013 
L 234.857351 168.208096 
L 229.081769 166.467391 
L 223.168375 164.950645 
L 217.139912 163.66174 
L 211.019381 162.603689 
L 204.829951 161.778627 
L 198.594874 161.18781 
L 192.337397 160.831621 
L 186.080672 160.709569 
L 179.847676 160.820301 
L 173.661124 161.161613 
L 167.543385 161.730462 
L 161.516402 162.522988 
L 155.601615 163.53453 
L 149.819881 164.759654 
L 144.191406 166.192174 
L 138.735669 167.825185 
L 133.471358 169.651091 
L 128.416305 171.661643 
L 123.587426 173.847968 
L 119.000665 176.200615 
L 114.670942 178.709588 
L 110.612106 181.364391 
L 106.836889 184.154072 
L 103.356869 187.067263 
L 100.182434 190.092231 
L 97.322756 193.216922 
L 94.785762 196.429009 
L 92.578117 199.71594 
L 90.705207 203.064988 
L 89.17113 206.4633 
L 87.978692 209.897943 
L 87.129405 213.355958 
L 86.623492 216.824406 
L 86.459897 220.290416 
L 86.6363 223.741235 
L 87.149134 227.164272 
L 87.993613 230.547145 
L 89.163751 233.87773 
L 90.652407 237.144195 
L 92.451308 240.335053 
L 94.551102 243.439193 
L 96.941391 246.445924 
L 99.610786 249.345012 
L 102.546958 252.126711 
L 105.736687 254.781799 
L 109.165924 257.301605 
L 112.819851 259.678041 
L 116.682941 261.903624 
L 120.739023 263.971501 
L 124.97135 265.875469 
L 129.362665 267.609993 
L 133.895274 269.170219 
L 138.551111 270.55199 
L 143.311816 271.751853 
L 148.158802 272.767067 
L 153.073328 273.595606 
L 158.036574 274.236161 
L 163.02971 274.688141 
L 168.033968 274.951664 
L 173.030713 275.027554 
L 178.001512 274.917328 
L 182.928202 274.62319 
L 187.792955 274.14801 
L 192.578347 273.495311 
L 197.267415 272.669248 
L 201.843719 271.674587 
L 206.291402 270.516681 
L 210.59524 269.201446 
L 214.740699 267.735329 
L 218.71398 266.125284 
L 222.502068 264.378736 
L 226.092771 262.503553 
L 229.474758 260.508007 
L 232.637599 258.400743 
L 235.571791 256.190738 
L 238.268788 253.887269 
L 240.721023 251.499871 
L 242.921929 249.038298 
L 244.865952 246.512486 
L 246.548566 243.932513 
L 247.966276 241.308555 
L 249.116624 238.650852 
L 249.998186 235.969664 
L 250.610573 233.275236 
L 250.954412 230.577752 
L 251.031344 227.887303 
L 250.844 225.213847 
L 250.395984 222.56717 
L 249.691851 219.956855 
L 248.737076 217.392243 
L 247.538026 214.882401 
L 246.101926 212.43609 
L 244.436821 210.061736 
L 242.551539 207.767398 
L 240.455647 205.560743 
L 238.159408 203.44902 
L 235.673731 201.439036 
L 233.010126 199.537135 
L 230.180651 197.749178 
L 227.197859 196.080527 
L 224.074746 194.536026 
L 220.824694 193.119993 
L 217.461418 191.836204 
L 213.998906 190.687887 
L 210.451363 189.677715 
L 206.833154 188.807802 
L 203.158745 188.079699 
L 197.573501 187.255453 
L 191.943322 186.753371 
L 186.316589 186.571654 
L 180.74078 186.705779 
L 175.26207 187.148584 
L 169.924953 187.890375 
L 164.771875 188.919054 
L 159.842902 190.220268 
L 155.175405 191.777576 
L 150.803781 193.572627 
L 146.759202 195.585362 
L 144.258346 197.037526 
L 141.922569 198.570163 
L 139.758458 200.176333 
L 137.77185 201.848899 
L 135.967812 203.580563 
L 134.350631 205.363892 
L 132.923809 207.191353 
L 131.69006 209.055341 
L 130.651302 210.948213 
L 129.808668 212.862317 
L 129.162507 214.790024 
L 128.712391 216.723755 
L 128.457131 218.656015 
L 128.394788 220.57942 
L 128.522692 222.486723 
L 128.837463 224.370846 
L 129.33503 226.224902 
L 130.010663 228.042221 
L 130.858994 229.816376 
L 131.87405 231.541205 
L 133.049286 233.21083 
L 134.377619 234.819679 
L 135.851461 236.362506 
L 138.317324 238.542318 
L 141.063436 240.547584 
L 144.059016 242.365166 
L 147.271756 243.983909 
L 150.668145 245.394705 
L 154.213805 246.590529 
L 157.873822 247.566464 
L 161.613085 248.319699 
L 165.396612 248.849511 
L 169.18987 249.157226 
L 172.959092 249.246164 
L 176.67157 249.121562 
L 180.295942 248.790483 
L 183.802454 248.261711 
L 187.163205 247.545627 
L 190.352371 246.654076 
L 193.346399 245.600223 
L 196.12418 244.398395 
L 198.667196 243.063918 
L 200.959637 241.612948 
L 202.988487 240.062296 
L 204.743588 238.429249 
L 206.217665 236.731392 
L 207.406335 234.98643 
L 208.308075 233.212011 
L 208.924169 231.425558 
L 209.258627 229.644096 
L 209.318081 227.884098 
L 209.111651 226.161336 
L 208.650794 224.490736 
L 207.949131 222.886253 
L 207.022255 221.360752 
L 205.887523 219.925908 
L 204.563834 218.592113 
L 203.071398 217.368405 
L 201.431493 216.262408 
L 199.053839 214.981298 
L 196.507207 213.930758 
L 193.846173 213.116578 
L 191.125002 212.539888 
L 188.396632 212.197288 
L 185.711718 212.081072 
L 185.711718 212.081072 
" clip-path="url(#pb8933f65d9)" style="fill: none; stroke: #2f5d7c; stroke-width: 7; stroke-linecap: round"/>
   </g>
   <g id="line2d_2">
    <path d="M 285.858586 204.024286 
L 283.301925 200.195207 
L 280.384962 196.481741 
L 277.120988 192.896671 
L 273.524477 189.452216 
L 269.61103 186.159987 
L 265.397306 183.030952 
L 260.900954 180.075396 
L 256.140539 177.302888 
L 251.135468 174.722253 
L 245.905912 172.341544 
L 240.472722 170.168013 
L 234.857351 168.208096 
L 229.081769 166.467391 
L 223.168375 164.950645 
L 217.139912 163.66174 
L 211.019381 162.603689 
L 204.829951 161.778627 
L 198.594874 161.18781 
L 192.337397 160.831621 
L 186.080672 160.709569 
L 179.847676 160.820301 
L 173.661124 161.161613 
L 167.543385 161.730462 
L 161.516402 162.522988 
L 155.601615 163.53453 
L 149.819881 164.759654 
L 144.191406 166.192174 
L 138.735669 167.825185 
L 133.471358 169.651091 
L 128.416305 171.661643 
L 123.587426 173.847968 
L 119.000665 176.200615 
L 114.670942 178.709588 
L 110.612106 181.364391 
L 106.836889 184.154072 
L 103.356869 187.067263 
L 100.182434 190.092231 
L 97.322756 193.216922 
L 94.785762 196.429009 
L 92.578117 199.71594 
L 90.705207 203.064988 
L 89.17113 206.4633 
L 87.978692 209.897943 
L 87.129405 213.355958 
L 86.623492 216.824406 
L 86.459897 220.290416 
L 86.6363 223.741235 
L 87.149134 227.164272 
L 87.993613 230.547145 
L 89.163751 233.87773 
L 90.652407 237.144195 
L 92.451308 240.335053 
L 94.551102 243.439193 
L 96.941391 246.445924 
L 99.610786 249.345012 
L 102.546958 252.126711 
L 105.736687 254.781799 
L 109.165924 257.301605 
L 112.819851 259.678041 
L 116.682941 261.903624 
L 120.739023 263.971501 
L 124.97135 265.875469 
L 129.362665 267.609993 
L 133.895274 269.170219 
L 138.551111 270.55199 
L 143.311816 271.751853 
L 148.158802 272.767067 
L 153.073328 273.595606 
L 158.036574 274.236161 
L 163.02971 274.688141 
L 168.033968 274.951664 
L 173.030713 275.027554 
L 178.001512 274.917328 
L 182.928202 274.62319 
L 187.792955 274.14801 
L 192.578347 273.495311 
L 197.267415 272.669248 
L 201.843719 271.674587 
L 206.291402 270.516681 
L 210.59524 269.201446 
L 214.740699 267.735329 
L 218.71398 266.125284 
L 222.502068 264.378736 
L 226.092771 262.503553 
L 229.474758 260.508007 
L 232.637599 258.400743 
L 235.571791 256.190738 
L 238.268788 253.887269 
L 240.721023 251.499871 
L 242.921929 249.038298 
L 244.865952 246.512486 
L 246.548566 243.932513 
L 247.966276 241.308555 
L 249.116624 238.650852 
L 249.998186 235.969664 
L 250.610573 233.275236 
L 250.954412 230.577752 
L 251.031344 227.887303 
L 250.844 225.213847 
L 250.395984 222.56717 
L 249.691851 219.956855 
L 248.737076 217.392243 
L 247.538026 214.882401 
L 246.101926 212.43609 
L 244.436821 210.061736 
L 242.551539 207.767398 
L 240.455647 205.560743 
L 238.159408 203.44902 
L 235.673731 201.439036 
L 233.010126 199.537135 
L 230.180651 197.749178 
L 227.197859 196.080527 
L 224.074746 194.536026 
L 220.824694 193.119993 
L 217.461418 191.836204 
L 213.998906 190.687887 
L 210.451363 189.677715 
L 206.833154 188.807802 
L 203.158745 188.079699 
L 197.573501 187.255453 
L 191.943322 186.753371 
L 186.316589 186.571654 
L 180.74078 186.705779 
L 175.26207 187.148584 
L 169.924953 187.890375 
L 164.771875 188.919054 
L 159.842902 190.220268 
L 155.175405 191.777576 
L 150.803781 193.572627 
L 146.759202 195.585362 
L 144.258346 197.037526 
L 141.922569 198.570163 
L 139.758458 200.176333 
L 137.77185 201.848899 
L 135.967812 203.580563 
L 134.350631 205.363892 
L 132.923809 207.191353 
L 131.69006 209.055341 
L 130.651302 210.948213 
L 129.808668 212.862317 
L 129.162507 214.790024 
L 128.712391 216.723755 
L 128.457131 218.656015 
L 128.394788 220.57942 
L 128.522692 222.486723 
L 128.837463 224.370846 
L 129.33503 226.224902 
L 130.010663 228.042221 
L 130.858994 229.816376 
L 131.87405 231.541205 
L 133.049286 233.21083 
L 134.377619 234.819679 
L 135.851461 236.362506 
L 138.317324 238.542318 
L 141.063436 240.547584 
L 144.059016 242.365166 
L 147.271756 243.983909 
L 150.668145 245.394705 
L 154.213805 246.590529 
L 157.873822 247.566464 
L 161.613085 248.319699 
L 165.396612 248.849511 
L 169.18987 249.157226 
L 172.959092 249.246164 
L 176.67157 249.121562 
L 180.295942 248.790483 
L 183.802454 248.261711 
L 187.163205 247.545627 
L 190.352371 246.654076 
L 193.346399 245.600223 
L 196.12418 244.398395 
L 198.667196 243.063918 
L 200.959637 241.612948 
L 202.988487 240.062296 
L 204.743588 238.429249 
L 206.217665 236.731392 
L 207.406335 234.98643 
L 208.308075 233.212011 
L 208.924169 231.425558 
L 209.258627 229.644096 
L 209.318081 227.884098 
L 209.111651 226.161336 
L 208.650794 224.490736 
L 207.949131 222.886253 
L 207.022255 221.360752 
L 205.887523 219.925908 
L 204.563834 218.592113 
L 203.071398 217.368405 
L 201.431493 216.262408 
L 199.053839 214.981298 
L 196.507207 213.930758 
L 193.846173 213.116578 
L 191.125002 212.539888 
L 188.396632 212.197288 
L 185.711718 212.081072 
L 185.711718 212.081072 
" clip-path="url(#pb8933f65d9)" style="fill: none; stroke: #bfd9ea; stroke-width: 4; stroke-linecap: round"/>
   </g>
   <g id="line2d_3">
    <path d="M 304.79256 222.03 
L 681.433144 222.03 
" clip-path="url(#pb8933f65d9)" style="fill: none; stroke: #222831; stroke-width: 5; stroke-linecap: round"/>
   </g>
   <g id="line2d_4">
    <path d="M 314.092328 216.07601 
L 314.95197 215.520476 
L 315.811612 214.898594 
L 316.671255 214.205602 
L 317.530897 213.436911 
L 318.390539 212.588202 
L 319.250182 211.655534 
L 320.109824 210.635461 
L 320.969466 209.525149 
L 321.829109 208.322499 
L 322.688751 207.026275 
L 323.548394 205.636219 
L 324.408036 204.153171 
L 325.267678 202.579172 
L 326.127321 200.917563 
L 326.986963 199.173057 
L 327.846605 197.351801 
L 328.706248 195.461411 
L 329.56589 193.51098 
L 330.425533 191.51106 
L 331.285175 189.473616 
L 332.144817 187.41194 
L 333.00446 185.340542 
L 333.864102 183.275005 
L 334.723744 181.23181 
L 335.583387 179.228132 
L 336.443029 177.281614 
L 337.302672 175.410115 
L 338.162314 173.631442 
L 339.021956 171.963077 
L 339.881599 170.421889 
L 340.741241 169.023854 
L 341.600883 167.783781 
L 342.460526 166.715048 
L 343.320168 165.829367 
L 344.179811 165.136567 
L 345.039453 164.644412 
L 345.899095 164.358461 
L 346.758738 164.281957 
L 347.61838 164.41577 
L 348.478022 164.758379 
L 349.337665 165.305901 
L 350.197307 166.052165 
L 351.05695 166.988827 
L 351.916592 168.105524 
L 352.776234 169.39007 
L 353.635877 170.828669 
L 354.495519 172.406169 
L 355.355161 174.106322 
L 356.214804 175.912063 
L 357.074446 177.805796 
L 357.934089 179.769669 
L 358.793731 181.785859 
L 359.653373 183.836825 
L 360.513016 185.905561 
L 361.372658 187.975811 
L 362.2323 190.032268 
L 363.091943 192.060743 
L 363.951585 194.048294 
L 364.811228 195.983336 
L 365.67087 197.855711 
L 366.530512 199.656728 
L 367.390155 201.379175 
L 368.249797 203.017298 
L 369.109439 204.566767 
L 369.969082 206.024604 
L 370.828724 207.389105 
L 371.688367 208.65974 
L 372.548009 209.837045 
L 373.407651 210.922505 
L 374.267294 211.918431 
L 375.126936 212.827837 
L 375.986578 213.654314 
L 376.846221 214.401918 
L 377.705863 215.075052 
L 378.565506 215.678362 
L 379.425148 216.216641 
L 380.28479 216.694741 
L 381.144433 217.117496 
L 382.004075 217.489662 
L 382.863717 217.815851 
L 383.72336 218.100497 
L 384.583002 218.347813 
L 385.442645 218.561767 
L 386.302287 218.746068 
L 387.161929 218.904146 
L 388.021572 219.039157 
L 388.881214 219.153979 
L 389.740856 219.251221 
L 390.600499 219.333228 
L 391.460141 219.402099 
L 392.319784 219.459696 
L 393.179426 219.507666 
L 394.039068 219.547452 
L 394.898711 219.580315 
L 395.758353 219.607348 
L 396.617995 219.629493 
L 397.477638 219.647561 
L 398.33728 219.662241 
L 399.196923 219.674121 
L 400.056565 219.683696 
L 400.916207 219.691381 
L 401.77585 219.697525 
L 402.635492 219.702417 
L 403.495134 219.706296 
L 404.354777 219.70936 
L 405.214419 219.71177 
L 406.074062 219.713659 
L 406.933704 219.715132 
L 407.793346 219.716277 
L 408.652989 219.717164 
L 409.512631 219.717848 
L 410.372273 219.718373 
L 411.231916 219.718774 
L 412.091558 219.71908 
L 412.951201 219.719313 
L 413.810843 219.719488 
L 414.670485 219.71962 
L 415.530128 219.719719 
L 416.38977 219.719793 
" clip-path="url(#pb8933f65d9)" style="fill: none; stroke: #c97832; stroke-width: 3; stroke-linecap: square"/>
   </g>
   <g id="line2d_5">
    <path d="M 490.78791 218.527655 
L 502.193285 218.186181 
L 511.317585 217.681986 
L 518.160811 217.099943 
L 525.004036 216.282769 
L 530.706723 215.379534 
L 536.409411 214.238186 
L 542.112099 212.828796 
L 546.674249 211.492967 
L 551.236399 209.964998 
L 555.798549 208.245067 
L 561.501236 205.837841 
L 567.203924 203.177818 
L 574.047149 199.734504 
L 592.29575 190.389944 
L 596.8579 188.340899 
L 601.42005 186.534588 
L 604.841662 185.374843 
L 608.263275 184.406957 
L 611.684887 183.649732 
L 615.1065 183.118136 
L 618.528113 182.822806 
L 621.949725 182.7697 
L 625.371338 182.959893 
L 628.79295 183.38954 
L 632.214563 184.050009 
L 635.636175 184.928168 
L 639.057788 186.006816 
L 643.619938 187.720674 
L 648.182088 189.697204 
L 653.884776 192.441763 
L 663.009076 197.167449 
L 672.133376 201.879856 
L 672.133376 201.879856 
" clip-path="url(#pb8933f65d9)" style="fill: none; stroke: #3f7f5f; stroke-width: 3; stroke-linecap: square"/>
   </g>
   <g id="line2d_6">
    <path d="M 355.941281 356.01 
L 357.303368 353.479716 
L 358.665456 351.07236 
L 360.027543 348.904888 
L 361.38963 347.082601 
L 362.751717 345.694032 
L 364.113804 344.80664 
L 365.475891 344.463538 
L 366.837979 344.681394 
L 368.200066 345.449624 
L 369.562153 346.730907 
L 370.92424 348.462992 
L 372.286327 350.561732 
L 373.648414 352.925163 
L 375.010501 355.438464 
L 376.372589 357.979531 
L 377.734676 360.424914 
L 379.096763 362.655808 
L 380.45885 364.563831 
L 381.820937 366.056285 
L 383.183024 367.060664 
L 384.545112 367.528172 
L 385.907199 367.436095 
L 387.269286 366.788909 
L 388.631373 365.618053 
L 389.99346 363.980413 
L 391.355547 361.955548 
L 392.717635 359.641832 
L 394.079722 357.151672 
L 395.441809 354.606047 
L 396.803896 352.12863 
L 398.165983 349.839779 
L 399.52807 347.850695 
L 400.890157 346.258012 
L 402.252245 345.139107 
L 403.614332 344.54834 
L 404.976419 344.514411 
L 406.338506 345.038968 
L 407.700593 346.096528 
L 409.06268 347.635711 
L 410.424768 349.58174 
L 411.786855 351.840071 
L 413.148942 354.300989 
L 414.511029 356.844935 
L 415.873116 359.348317 
L 417.235203 361.689515 
L 418.597291 363.754787 
L 419.959378 365.443796 
L 421.321465 366.674486 
L 422.683552 367.387066 
L 424.045639 367.546918 
L 425.407726 367.146275 
L 426.769814 366.204601 
L 428.131901 364.767647 
L 429.493988 362.905222 
L 430.856075 360.707808 
L 432.218162 358.282163 
L 433.580249 355.746129 
L 434.942336 353.222915 
L 436.304424 350.835106 
L 437.666511 348.698706 
L 439.028598 346.917509 
L 440.390685 345.57805 
L 441.752772 344.745403 
L 443.114859 344.460021 
L 444.476947 344.735768 
L 445.839034 345.559248 
L 447.201121 346.890453 
L 448.563208 348.664711 
L 449.925295 350.795822 
L 451.287382 353.180253 
L 452.64947 355.70216 
L 454.011557 358.239023 
L 455.373644 360.667594 
L 456.735731 362.869887 
L 458.097818 364.738908 
L 459.459905 366.183854 
L 460.821992 367.134528 
L 462.18408 367.544741 
L 463.546167 367.394566 
L 464.908254 366.691298 
L 466.270341 365.469103 
L 467.632428 363.78736 
L 468.994515 361.727771 
L 470.356603 359.390398 
L 471.71869 356.888796 
L 473.080777 354.344499 
L 474.442864 351.881117 
L 475.804951 349.618328 
L 477.167038 347.666063 
L 478.529126 346.119169 
L 479.891213 345.052798 
L 481.2533 344.518758 
L 482.615387 344.542994 
L 483.977474 345.124327 
L 485.339561 346.234516 
L 486.701649 347.819625 
L 488.063736 349.802644 
L 489.425823 352.087233 
L 490.78791 354.562401 
" clip-path="url(#pb8933f65d9)" style="fill: none; stroke: #3f7f5f; stroke-width: 2; stroke-linecap: square"/>
   </g>
   <g id="line2d_7">
    <path d="M 518.687212 362.94 
L 518.687212 339.84 
" clip-path="url(#pb8933f65d9)" style="fill: none; stroke: #3f7f5f; stroke-width: 2; stroke-linecap: square"/>
   </g>
   <g id="line2d_8">
    <path d="M 534.961806 362.94 
L 534.961806 339.84 
" clip-path="url(#pb8933f65d9)" style="fill: none; stroke: #3f7f5f; stroke-width: 2; stroke-linecap: square"/>
   </g>
   <g id="line2d_9">
    <path d="M 551.236399 362.94 
L 551.236399 339.84 
" clip-path="url(#pb8933f65d9)" style="fill: none; stroke: #3f7f5f; stroke-width: 2; stroke-linecap: square"/>
   </g>
   <g id="line2d_10">
    <path d="M 567.510992 362.94 
L 567.510992 339.84 
" clip-path="url(#pb8933f65d9)" style="fill: none; stroke: #3f7f5f; stroke-width: 2; stroke-linecap: square"/>
   </g>
   <g id="line2d_11">
    <path d="M 583.785585 362.94 
L 583.785585 339.84 
" clip-path="url(#pb8933f65d9)" style="fill: none; stroke: #3f7f5f; stroke-width: 2; stroke-linecap: square"/>
   </g>
   <g id="line2d_12">
    <path d="M 600.060178 362.94 
L 600.060178 339.84 
" clip-path="url(#pb8933f65d9)" style="fill: none; stroke: #3f7f5f; stroke-width: 2; stroke-linecap: square"/>
   </g>
   <g id="line2d_13">
    <path d="M 616.334771 362.94 
L 616.334771 339.84 
" clip-path="url(#pb8933f65d9)" style="fill: none; stroke: #3f7f5f; stroke-width: 2; stroke-linecap: square"/>
   </g>
   <g id="text_1">
    <text style="font-weight: 700; font-size: 24px; font-family: 'DejaVu Sans'; text-anchor: start; fill: #222831" x="35.099303" y="46.22625" transform="rotate(-0 35.099303 46.22625)">Fig. 4.8  Pitch Coding in the Cochlea</text>
   </g>
   <g id="text_2">
    <text style="font-size: 13.5px; font-family: 'DejaVu Sans'; text-anchor: start; fill: #5f6670" x="35.099303" y="58.113891" transform="rotate(-0 35.099303 58.113891)">Place theory and frequency theory solve different parts of the pitch problem</text>
   </g>
   <g id="text_3">
    <text style="font-weight: 700; font-size: 13.5px; font-family: 'DejaVu Sans'; fill: #2f5d7c" transform="translate(56.023779 96.032953)">cochlea</text>
    <text style="font-weight: 700; font-size: 13.5px; font-family: 'DejaVu Sans'; fill: #2f5d7c" transform="translate(56.023779 111.15)">schematic</text>
   </g>
   <g id="text_4">
    <text style="font-size: 12px; font-family: 'DejaVu Sans'; text-anchor: middle; fill: #222831" x="304.79256" y="203.55" transform="rotate(-0 304.79256 203.55)">base</text>
   </g>
   <g id="text_5">
    <text style="font-size: 12px; font-family: 'DejaVu Sans'; text-anchor: middle; fill: #222831" x="681.433144" y="203.55" transform="rotate(-0 681.433144 203.55)">apex</text>
   </g>
   <g id="text_6">
    <text style="font-size: 12.5px; font-family: 'DejaVu Sans'; text-anchor: middle; fill: #5f6670" x="493.112852" y="242.82" transform="rotate(-0 493.112852 242.82)">uncoiled basilar membrane</text>
   </g>
   <g id="text_7">
    <text style="font-weight: 700; font-size: 12.5px; font-family: 'DejaVu Sans'; fill: #c97832" transform="translate(306.369306 131.705078)">high pitch:</text>
    <text style="font-weight: 700; font-size: 12.5px; font-family: 'DejaVu Sans'; fill: #c97832" transform="translate(288.548017 145.8)">place near base</text>
   </g>
   <g id="text_8">
    <text style="font-weight: 700; font-size: 12.5px; font-family: 'DejaVu Sans'; fill: #3f7f5f" transform="translate(577.041333 144.738734)">low pitch:</text>
    <text style="font-weight: 700; font-size: 12.5px; font-family: 'DejaVu Sans'; fill: #3f7f5f" transform="translate(548.299145 158.736)">broader place cue</text>
   </g>
   <g id="text_9">
    <text style="font-size: 12.5px; font-family: 'DejaVu Sans'; fill: #222831" transform="translate(307.799122 337.445586)">Frequency theory: low pitch can also be coded by firing rate</text>
    <text style="font-size: 12.5px; font-family: 'DejaVu Sans'; fill: #222831" transform="translate(287.333302 351.442852)">(neurons fire in step with the sound wave, within biological limits).</text>
   </g>
   <g id="text_10">
    <text style="font-size: 13.5px; font-family: 'DejaVu Sans'; text-anchor: start; fill: #222831" x="51.373896" y="376.8" transform="rotate(-0 51.373896 376.8)">Modern answer: both mechanisms are useful, but in different frequency ranges.</text>
   </g>
  </g>
 </g>
 <defs>
  <clipPath id="pb8933f65d9">
   <rect x="7.2" y="7.2" width="743.9814" height="415.8"/>
  </clipPath>
 </defs>
</svg>
