<?xml version="1.0" encoding="utf-8" standalone="no"?>
<!DOCTYPE svg PUBLIC "-//W3C//DTD SVG 1.1//EN"
  "http://www.w3.org/Graphics/SVG/1.1/DTD/svg11.dtd">
<svg xmlns:xlink="http://www.w3.org/1999/xlink" width="758.3814pt" height="430.2pt" viewBox="0 0 758.3814 430.2" xmlns="http://www.w3.org/2000/svg" version="1.1">
 <metadata>
  <rdf:RDF xmlns:dc="http://purl.org/dc/elements/1.1/" xmlns:cc="http://creativecommons.org/ns#" xmlns:rdf="http://www.w3.org/1999/02/22-rdf-syntax-ns#">
   <cc:Work>
    <dc:type rdf:resource="http://purl.org/dc/dcmitype/StillImage"/>
    <dc:date>2026-06-21T18:33:56.899966</dc:date>
    <dc:format>image/svg+xml</dc:format>
    <dc:creator>
     <cc:Agent>
      <dc:title>Matplotlib v3.10.8, https://matplotlib.org/</dc:title>
     </cc:Agent>
    </dc:creator>
   </cc:Work>
  </rdf:RDF>
 </metadata>
 <defs>
  <style type="text/css">*{stroke-linejoin: round; stroke-linecap: butt}</style>
 </defs>
 <g id="figure_1">
  <g id="patch_1">
   <path d="M 0 430.2 
L 758.3814 430.2 
L 758.3814 0 
L 0 0 
z
" style="fill: #ffffff"/>
  </g>
  <g id="axes_1">
   <g id="patch_2">
    <path d="M 43.934082 204.936 
L 195.98528 204.936 
Q 201.565141 204.936 201.565141 199.392 
L 201.565141 94.518 
Q 201.565141 88.974 195.98528 88.974 
L 43.934082 88.974 
Q 38.354221 88.974 38.354221 94.518 
L 38.354221 199.392 
Q 38.354221 204.936 43.934082 204.936 
z
" clip-path="url(#pe863df01b3)" style="fill: #ffffff; stroke: #5f6670; stroke-width: 1.4; stroke-linejoin: miter"/>
   </g>
   <g id="patch_3">
    <path d="M 222.954606 204.936 
L 375.005805 204.936 
Q 380.585665 204.936 380.585665 199.392 
L 380.585665 94.518 
Q 380.585665 88.974 375.005805 88.974 
L 222.954606 88.974 
Q 217.374745 88.974 217.374745 94.518 
L 217.374745 199.392 
Q 217.374745 204.936 222.954606 204.936 
z
" clip-path="url(#pe863df01b3)" style="fill: #ffffff; stroke: #5f6670; stroke-width: 1.4; stroke-linejoin: miter"/>
   </g>
   <g id="patch_4">
    <path d="M 401.97513 204.936 
L 554.026329 204.936 
Q 559.60619 204.936 559.60619 199.392 
L 559.60619 94.518 
Q 559.60619 88.974 554.026329 88.974 
L 401.97513 88.974 
Q 396.39527 88.974 396.39527 94.518 
L 396.39527 199.392 
Q 396.39527 204.936 401.97513 204.936 
z
" clip-path="url(#pe863df01b3)" style="fill: #ffffff; stroke: #5f6670; stroke-width: 1.4; stroke-linejoin: miter"/>
   </g>
   <g id="patch_5">
    <path d="M 580.995655 204.936 
L 733.046853 204.936 
Q 738.626714 204.936 738.626714 199.392 
L 738.626714 94.518 
Q 738.626714 88.974 733.046853 88.974 
L 580.995655 88.974 
Q 575.415794 88.974 575.415794 94.518 
L 575.415794 199.392 
Q 575.415794 204.936 580.995655 204.936 
z
" clip-path="url(#pe863df01b3)" style="fill: #ffffff; stroke: #5f6670; stroke-width: 1.4; stroke-linejoin: miter"/>
   </g>
   <g id="patch_6">
    <path d="M 56.023779 182.76 
L 183.895582 182.76 
L 183.895582 115.77 
L 56.023779 115.77 
z
" clip-path="url(#pe863df01b3)" style="fill: #222831"/>
   </g>
   <g id="patch_7">
    <path d="M 102.522617 180.45 
Q 118.79721 164.28 107.172501 148.11 
Q 121.122152 129.63 110.427419 116.694 
Q 129.491943 116.694 118.79721 129.63 
Q 132.746861 148.11 121.122152 164.28 
Q 137.396745 180.45 2.05 5.25 
" clip-path="url(#pe863df01b3)" style="fill: #ffffff; stroke: #ffffff; stroke-width: 1.5; stroke-linejoin: miter"/>
   </g>
   <g id="patch_8">
    <path d="M 253.643839 173.058 
C 254.753686 173.058 255.818226 172.619887 256.603007 171.84015 
C 257.387787 171.060413 257.828734 170.002714 257.828734 168.9 
C 257.828734 167.797286 257.387787 166.739587 256.603007 165.95985 
C 255.818226 165.180113 254.753686 164.742 253.643839 164.742 
C 252.533992 164.742 251.469451 165.180113 250.684671 165.95985 
C 249.89989 166.739587 249.458943 167.797286 249.458943 168.9 
C 249.458943 170.002714 249.89989 171.060413 250.684671 171.84015 
C 251.469451 172.619887 252.533992 173.058 253.643839 173.058 
z
" clip-path="url(#pe863df01b3)" style="fill: #2f5d7c; stroke: #2f5d7c; stroke-linejoin: miter"/>
   </g>
   <g id="patch_9">
    <path d="M 253.643839 149.958 
C 254.753686 149.958 255.818226 149.519887 256.603007 148.74015 
C 257.387787 147.960413 257.828734 146.902714 257.828734 145.8 
C 257.828734 144.697286 257.387787 143.639587 256.603007 142.85985 
C 255.818226 142.080113 254.753686 141.642 253.643839 141.642 
C 252.533992 141.642 251.469451 142.080113 250.684671 142.85985 
C 249.89989 143.639587 249.458943 144.697286 249.458943 145.8 
C 249.458943 146.902714 249.89989 147.960413 250.684671 148.74015 
C 251.469451 149.519887 252.533992 149.958 253.643839 149.958 
z
" clip-path="url(#pe863df01b3)" style="fill: #2f5d7c; stroke: #2f5d7c; stroke-linejoin: miter"/>
   </g>
   <g id="patch_10">
    <path d="M 253.643839 126.858 
C 254.753686 126.858 255.818226 126.419887 256.603007 125.64015 
C 257.387787 124.860413 257.828734 123.802714 257.828734 122.7 
C 257.828734 121.597286 257.387787 120.539587 256.603007 119.75985 
C 255.818226 118.980113 254.753686 118.542 253.643839 118.542 
C 252.533992 118.542 251.469451 118.980113 250.684671 119.75985 
C 249.89989 120.539587 249.458943 121.597286 249.458943 122.7 
C 249.458943 123.802714 249.89989 124.860413 250.684671 125.64015 
C 251.469451 126.419887 252.533992 126.858 253.643839 126.858 
z
" clip-path="url(#pe863df01b3)" style="fill: #2f5d7c; stroke: #2f5d7c; stroke-linejoin: miter"/>
   </g>
   <g id="patch_11">
    <path d="M 283.868083 173.058 
C 284.97793 173.058 286.042471 172.619887 286.827251 171.84015 
C 287.612032 171.060413 288.052978 170.002714 288.052978 168.9 
C 288.052978 167.797286 287.612032 166.739587 286.827251 165.95985 
C 286.042471 165.180113 284.97793 164.742 283.868083 164.742 
C 282.758236 164.742 281.693696 165.180113 280.908915 165.95985 
C 280.124135 166.739587 279.683188 167.797286 279.683188 168.9 
C 279.683188 170.002714 280.124135 171.060413 280.908915 171.84015 
C 281.693696 172.619887 282.758236 173.058 283.868083 173.058 
z
" clip-path="url(#pe863df01b3)" style="fill: #2f5d7c; stroke: #2f5d7c; stroke-linejoin: miter"/>
   </g>
   <g id="patch_12">
    <path d="M 283.868083 149.958 
C 284.97793 149.958 286.042471 149.519887 286.827251 148.74015 
C 287.612032 147.960413 288.052978 146.902714 288.052978 145.8 
C 288.052978 144.697286 287.612032 143.639587 286.827251 142.85985 
C 286.042471 142.080113 284.97793 141.642 283.868083 141.642 
C 282.758236 141.642 281.693696 142.080113 280.908915 142.85985 
C 280.124135 143.639587 279.683188 144.697286 279.683188 145.8 
C 279.683188 146.902714 280.124135 147.960413 280.908915 148.74015 
C 281.693696 149.519887 282.758236 149.958 283.868083 149.958 
z
" clip-path="url(#pe863df01b3)" style="fill: #2f5d7c; stroke: #2f5d7c; stroke-linejoin: miter"/>
   </g>
   <g id="patch_13">
    <path d="M 283.868083 126.858 
C 284.97793 126.858 286.042471 126.419887 286.827251 125.64015 
C 287.612032 124.860413 288.052978 123.802714 288.052978 122.7 
C 288.052978 121.597286 287.612032 120.539587 286.827251 119.75985 
C 286.042471 118.980113 284.97793 118.542 283.868083 118.542 
C 282.758236 118.542 281.693696 118.980113 280.908915 119.75985 
C 280.124135 120.539587 279.683188 121.597286 279.683188 122.7 
C 279.683188 123.802714 280.124135 124.860413 280.908915 125.64015 
C 281.693696 126.419887 282.758236 126.858 283.868083 126.858 
z
" clip-path="url(#pe863df01b3)" style="fill: #2f5d7c; stroke: #2f5d7c; stroke-linejoin: miter"/>
   </g>
   <g id="patch_14">
    <path d="M 332.691862 173.058 
C 333.80171 173.058 334.86625 172.619887 335.65103 171.84015 
C 336.435811 171.060413 336.876758 170.002714 336.876758 168.9 
C 336.876758 167.797286 336.435811 166.739587 335.65103 165.95985 
C 334.86625 165.180113 333.80171 164.742 332.691862 164.742 
C 331.582015 164.742 330.517475 165.180113 329.732695 165.95985 
C 328.947914 166.739587 328.506967 167.797286 328.506967 168.9 
C 328.506967 170.002714 328.947914 171.060413 329.732695 171.84015 
C 330.517475 172.619887 331.582015 173.058 332.691862 173.058 
z
" clip-path="url(#pe863df01b3)" style="fill: #2f5d7c; stroke: #2f5d7c; stroke-linejoin: miter"/>
   </g>
   <g id="patch_15">
    <path d="M 332.691862 149.958 
C 333.80171 149.958 334.86625 149.519887 335.65103 148.74015 
C 336.435811 147.960413 336.876758 146.902714 336.876758 145.8 
C 336.876758 144.697286 336.435811 143.639587 335.65103 142.85985 
C 334.86625 142.080113 333.80171 141.642 332.691862 141.642 
C 331.582015 141.642 330.517475 142.080113 329.732695 142.85985 
C 328.947914 143.639587 328.506967 144.697286 328.506967 145.8 
C 328.506967 146.902714 328.947914 147.960413 329.732695 148.74015 
C 330.517475 149.519887 331.582015 149.958 332.691862 149.958 
z
" clip-path="url(#pe863df01b3)" style="fill: #2f5d7c; stroke: #2f5d7c; stroke-linejoin: miter"/>
   </g>
   <g id="patch_16">
    <path d="M 332.691862 126.858 
C 333.80171 126.858 334.86625 126.419887 335.65103 125.64015 
C 336.435811 124.860413 336.876758 123.802714 336.876758 122.7 
C 336.876758 121.597286 336.435811 120.539587 335.65103 119.75985 
C 334.86625 118.980113 333.80171 118.542 332.691862 118.542 
C 331.582015 118.542 330.517475 118.980113 329.732695 119.75985 
C 328.947914 120.539587 328.506967 121.597286 328.506967 122.7 
C 328.506967 123.802714 328.947914 124.860413 329.732695 125.64015 
C 330.517475 126.419887 331.582015 126.858 332.691862 126.858 
z
" clip-path="url(#pe863df01b3)" style="fill: #2f5d7c; stroke: #2f5d7c; stroke-linejoin: miter"/>
   </g>
   <g id="patch_17">
    <path d="M 362.916107 173.058 
C 364.025954 173.058 365.090494 172.619887 365.875275 171.84015 
C 366.660055 171.060413 367.101002 170.002714 367.101002 168.9 
C 367.101002 167.797286 366.660055 166.739587 365.875275 165.95985 
C 365.090494 165.180113 364.025954 164.742 362.916107 164.742 
C 361.80626 164.742 360.741719 165.180113 359.956939 165.95985 
C 359.172158 166.739587 358.731211 167.797286 358.731211 168.9 
C 358.731211 170.002714 359.172158 171.060413 359.956939 171.84015 
C 360.741719 172.619887 361.80626 173.058 362.916107 173.058 
z
" clip-path="url(#pe863df01b3)" style="fill: #2f5d7c; stroke: #2f5d7c; stroke-linejoin: miter"/>
   </g>
   <g id="patch_18">
    <path d="M 362.916107 149.958 
C 364.025954 149.958 365.090494 149.519887 365.875275 148.74015 
C 366.660055 147.960413 367.101002 146.902714 367.101002 145.8 
C 367.101002 144.697286 366.660055 143.639587 365.875275 142.85985 
C 365.090494 142.080113 364.025954 141.642 362.916107 141.642 
C 361.80626 141.642 360.741719 142.080113 359.956939 142.85985 
C 359.172158 143.639587 358.731211 144.697286 358.731211 145.8 
C 358.731211 146.902714 359.172158 147.960413 359.956939 148.74015 
C 360.741719 149.519887 361.80626 149.958 362.916107 149.958 
z
" clip-path="url(#pe863df01b3)" style="fill: #2f5d7c; stroke: #2f5d7c; stroke-linejoin: miter"/>
   </g>
   <g id="patch_19">
    <path d="M 362.916107 126.858 
C 364.025954 126.858 365.090494 126.419887 365.875275 125.64015 
C 366.660055 124.860413 367.101002 123.802714 367.101002 122.7 
C 367.101002 121.597286 366.660055 120.539587 365.875275 119.75985 
C 365.090494 118.980113 364.025954 118.542 362.916107 118.542 
C 361.80626 118.542 360.741719 118.980113 359.956939 119.75985 
C 359.172158 120.539587 358.731211 121.597286 358.731211 122.7 
C 358.731211 123.802714 359.172158 124.860413 359.956939 125.64015 
C 360.741719 126.419887 361.80626 126.858 362.916107 126.858 
z
" clip-path="url(#pe863df01b3)" style="fill: #2f5d7c; stroke: #2f5d7c; stroke-linejoin: miter"/>
   </g>
   <g id="patch_20">
    <path d="M 432.664363 173.982 
C 434.020843 173.982 435.321948 173.446528 436.281124 172.493517 
C 437.2403 171.540505 437.779235 170.247762 437.779235 168.9 
C 437.779235 167.552238 437.2403 166.259495 436.281124 165.306483 
C 435.321948 164.353472 434.020843 163.818 432.664363 163.818 
C 431.307883 163.818 430.006779 164.353472 429.047602 165.306483 
C 428.088426 166.259495 427.549491 167.552238 427.549491 168.9 
C 427.549491 170.247762 428.088426 171.540505 429.047602 172.493517 
C 430.006779 173.446528 431.307883 173.982 432.664363 173.982 
z
" clip-path="url(#pe863df01b3)" style="fill: #2f5d7c; stroke: #2f5d7c; stroke-linejoin: miter"/>
   </g>
   <g id="patch_21">
    <path d="M 432.664363 150.882 
C 434.020843 150.882 435.321948 150.346528 436.281124 149.393517 
C 437.2403 148.440505 437.779235 147.147762 437.779235 145.8 
C 437.779235 144.452238 437.2403 143.159495 436.281124 142.206483 
C 435.321948 141.253472 434.020843 140.718 432.664363 140.718 
C 431.307883 140.718 430.006779 141.253472 429.047602 142.206483 
C 428.088426 143.159495 427.549491 144.452238 427.549491 145.8 
C 427.549491 147.147762 428.088426 148.440505 429.047602 149.393517 
C 430.006779 150.346528 431.307883 150.882 432.664363 150.882 
z
" clip-path="url(#pe863df01b3)" style="fill: #2f5d7c; stroke: #2f5d7c; stroke-linejoin: miter"/>
   </g>
   <g id="patch_22">
    <path d="M 432.664363 127.782 
C 434.020843 127.782 435.321948 127.246528 436.281124 126.293517 
C 437.2403 125.340505 437.779235 124.047762 437.779235 122.7 
C 437.779235 121.352238 437.2403 120.059495 436.281124 119.106483 
C 435.321948 118.153472 434.020843 117.618 432.664363 117.618 
C 431.307883 117.618 430.006779 118.153472 429.047602 119.106483 
C 428.088426 120.059495 427.549491 121.352238 427.549491 122.7 
C 427.549491 124.047762 428.088426 125.340505 429.047602 126.293517 
C 430.006779 127.246528 431.307883 127.782 432.664363 127.782 
z
" clip-path="url(#pe863df01b3)" style="fill: #2f5d7c; stroke: #2f5d7c; stroke-linejoin: miter"/>
   </g>
   <g id="patch_23">
    <path d="M 462.888608 173.982 
C 464.245087 173.982 465.546192 173.446528 466.505368 172.493517 
C 467.464544 171.540505 468.00348 170.247762 468.00348 168.9 
C 468.00348 167.552238 467.464544 166.259495 466.505368 165.306483 
C 465.546192 164.353472 464.245087 163.818 462.888608 163.818 
C 461.532128 163.818 460.231023 164.353472 459.271847 165.306483 
C 458.312671 166.259495 457.773735 167.552238 457.773735 168.9 
C 457.773735 170.247762 458.312671 171.540505 459.271847 172.493517 
C 460.231023 173.446528 461.532128 173.982 462.888608 173.982 
z
" clip-path="url(#pe863df01b3)" style="fill: #c97832; stroke: #c97832; stroke-linejoin: miter"/>
   </g>
   <g id="patch_24">
    <path d="M 462.888608 150.882 
C 464.245087 150.882 465.546192 150.346528 466.505368 149.393517 
C 467.464544 148.440505 468.00348 147.147762 468.00348 145.8 
C 468.00348 144.452238 467.464544 143.159495 466.505368 142.206483 
C 465.546192 141.253472 464.245087 140.718 462.888608 140.718 
C 461.532128 140.718 460.231023 141.253472 459.271847 142.206483 
C 458.312671 143.159495 457.773735 144.452238 457.773735 145.8 
C 457.773735 147.147762 458.312671 148.440505 459.271847 149.393517 
C 460.231023 150.346528 461.532128 150.882 462.888608 150.882 
z
" clip-path="url(#pe863df01b3)" style="fill: #c97832; stroke: #c97832; stroke-linejoin: miter"/>
   </g>
   <g id="patch_25">
    <path d="M 462.888608 127.782 
C 464.245087 127.782 465.546192 127.246528 466.505368 126.293517 
C 467.464544 125.340505 468.00348 124.047762 468.00348 122.7 
C 468.00348 121.352238 467.464544 120.059495 466.505368 119.106483 
C 465.546192 118.153472 464.245087 117.618 462.888608 117.618 
C 461.532128 117.618 460.231023 118.153472 459.271847 119.106483 
C 458.312671 120.059495 457.773735 121.352238 457.773735 122.7 
C 457.773735 124.047762 458.312671 125.340505 459.271847 126.293517 
C 460.231023 127.246528 461.532128 127.782 462.888608 127.782 
z
" clip-path="url(#pe863df01b3)" style="fill: #c97832; stroke: #c97832; stroke-linejoin: miter"/>
   </g>
   <g id="patch_26">
    <path d="M 493.112852 173.982 
C 494.469332 173.982 495.770436 173.446528 496.729613 172.493517 
C 497.688789 171.540505 498.227724 170.247762 498.227724 168.9 
C 498.227724 167.552238 497.688789 166.259495 496.729613 165.306483 
C 495.770436 164.353472 494.469332 163.818 493.112852 163.818 
C 491.756372 163.818 490.455267 164.353472 489.496091 165.306483 
C 488.536915 166.259495 487.99798 167.552238 487.99798 168.9 
C 487.99798 170.247762 488.536915 171.540505 489.496091 172.493517 
C 490.455267 173.446528 491.756372 173.982 493.112852 173.982 
z
" clip-path="url(#pe863df01b3)" style="fill: #2f5d7c; stroke: #2f5d7c; stroke-linejoin: miter"/>
   </g>
   <g id="patch_27">
    <path d="M 493.112852 150.882 
C 494.469332 150.882 495.770436 150.346528 496.729613 149.393517 
C 497.688789 148.440505 498.227724 147.147762 498.227724 145.8 
C 498.227724 144.452238 497.688789 143.159495 496.729613 142.206483 
C 495.770436 141.253472 494.469332 140.718 493.112852 140.718 
C 491.756372 140.718 490.455267 141.253472 489.496091 142.206483 
C 488.536915 143.159495 487.99798 144.452238 487.99798 145.8 
C 487.99798 147.147762 488.536915 148.440505 489.496091 149.393517 
C 490.455267 150.346528 491.756372 150.882 493.112852 150.882 
z
" clip-path="url(#pe863df01b3)" style="fill: #2f5d7c; stroke: #2f5d7c; stroke-linejoin: miter"/>
   </g>
   <g id="patch_28">
    <path d="M 493.112852 127.782 
C 494.469332 127.782 495.770436 127.246528 496.729613 126.293517 
C 497.688789 125.340505 498.227724 124.047762 498.227724 122.7 
C 498.227724 121.352238 497.688789 120.059495 496.729613 119.106483 
C 495.770436 118.153472 494.469332 117.618 493.112852 117.618 
C 491.756372 117.618 490.455267 118.153472 489.496091 119.106483 
C 488.536915 120.059495 487.99798 121.352238 487.99798 122.7 
C 487.99798 124.047762 488.536915 125.340505 489.496091 126.293517 
C 490.455267 127.246528 491.756372 127.782 493.112852 127.782 
z
" clip-path="url(#pe863df01b3)" style="fill: #2f5d7c; stroke: #2f5d7c; stroke-linejoin: miter"/>
   </g>
   <g id="patch_29">
    <path d="M 523.337096 173.982 
C 524.693576 173.982 525.994681 173.446528 526.953857 172.493517 
C 527.913033 171.540505 528.451968 170.247762 528.451968 168.9 
C 528.451968 167.552238 527.913033 166.259495 526.953857 165.306483 
C 525.994681 164.353472 524.693576 163.818 523.337096 163.818 
C 521.980616 163.818 520.679512 164.353472 519.720335 165.306483 
C 518.761159 166.259495 518.222224 167.552238 518.222224 168.9 
C 518.222224 170.247762 518.761159 171.540505 519.720335 172.493517 
C 520.679512 173.446528 521.980616 173.982 523.337096 173.982 
z
" clip-path="url(#pe863df01b3)" style="fill: #c97832; stroke: #c97832; stroke-linejoin: miter"/>
   </g>
   <g id="patch_30">
    <path d="M 523.337096 150.882 
C 524.693576 150.882 525.994681 150.346528 526.953857 149.393517 
C 527.913033 148.440505 528.451968 147.147762 528.451968 145.8 
C 528.451968 144.452238 527.913033 143.159495 526.953857 142.206483 
C 525.994681 141.253472 524.693576 140.718 523.337096 140.718 
C 521.980616 140.718 520.679512 141.253472 519.720335 142.206483 
C 518.761159 143.159495 518.222224 144.452238 518.222224 145.8 
C 518.222224 147.147762 518.761159 148.440505 519.720335 149.393517 
C 520.679512 150.346528 521.980616 150.882 523.337096 150.882 
z
" clip-path="url(#pe863df01b3)" style="fill: #c97832; stroke: #c97832; stroke-linejoin: miter"/>
   </g>
   <g id="patch_31">
    <path d="M 523.337096 127.782 
C 524.693576 127.782 525.994681 127.246528 526.953857 126.293517 
C 527.913033 125.340505 528.451968 124.047762 528.451968 122.7 
C 528.451968 121.352238 527.913033 120.059495 526.953857 119.106483 
C 525.994681 118.153472 524.693576 117.618 523.337096 117.618 
C 521.980616 117.618 520.679512 118.153472 519.720335 119.106483 
C 518.761159 120.059495 518.222224 121.352238 518.222224 122.7 
C 518.222224 124.047762 518.761159 125.340505 519.720335 126.293517 
C 520.679512 127.246528 521.980616 127.782 523.337096 127.782 
z
" clip-path="url(#pe863df01b3)" style="fill: #c97832; stroke: #c97832; stroke-linejoin: miter"/>
   </g>
   <g id="patch_32">
    <path d="M 665.800959 136.319202 
C 664.055473 131.55434 661.027127 127.355447 657.047018 124.181602 
C 653.06691 121.007757 648.285578 118.979002 643.22578 118.317148 
C 638.165982 117.655294 633.019093 118.385374 628.347838 120.427566 
C 623.676584 122.469757 619.657643 125.74682 616.730419 129.900461 
" clip-path="url(#pe863df01b3)" style="fill: none; stroke: #3f7f5f; stroke-width: 4; stroke-linejoin: miter"/>
   </g>
   <g id="patch_33">
    <path d="M 613.367421 155.280798 
C 615.183626 160.23871 618.387285 164.579869 622.600171 167.791755 
C 626.813057 171.00364 631.862586 172.954675 637.152606 173.414517 
C 642.442625 173.874359 647.756426 172.824172 652.466654 170.38794 
C 657.176883 167.951709 661.090581 164.229236 663.745695 159.66 
" clip-path="url(#pe863df01b3)" style="fill: none; stroke: #3f7f5f; stroke-width: 4; stroke-linejoin: miter"/>
   </g>
   <g id="patch_34">
    <path d="M 674.458318 176.754 
L 689.337946 176.754 
L 689.337946 168.438 
L 674.458318 168.438 
z
" clip-path="url(#pe863df01b3)" style="fill: #ffffff; stroke: #ffffff; stroke-linejoin: miter"/>
   </g>
   <g id="patch_35">
    <path d="M 59.278698 373.566 
L 699.102702 373.566 
Q 706.077528 373.566 706.077528 366.636 
L 706.077528 317.664 
Q 706.077528 310.734 699.102702 310.734 
L 59.278698 310.734 
Q 52.303872 310.734 52.303872 317.664 
L 52.303872 366.636 
Q 52.303872 373.566 59.278698 373.566 
z
" clip-path="url(#pe863df01b3)" style="fill: #f5f7fa; stroke: #5f6670; stroke-width: 1.6; stroke-linejoin: miter"/>
   </g>
   <g id="line2d_1">
    <path d="M 686.083027 115.77 
L 667.483492 173.52 
" clip-path="url(#pe863df01b3)" style="fill: none; stroke: #3f7f5f; stroke-width: 4"/>
   </g>
   <g id="line2d_2">
    <path d="M 667.483492 173.52 
L 709.332446 173.52 
" clip-path="url(#pe863df01b3)" style="fill: none; stroke: #3f7f5f; stroke-width: 4"/>
   </g>
   <g id="line2d_3">
    <path d="M 709.332446 173.52 
L 686.083027 115.77 
" clip-path="url(#pe863df01b3)" style="fill: none; stroke: #3f7f5f; stroke-width: 4"/>
   </g>
   <g id="text_1">
    <text style="font-weight: 700; font-size: 24px; font-family: 'DejaVu Sans'; text-anchor: start; fill: #222831" x="35.099303" y="46.22625" transform="rotate(-0 35.099303 46.22625)">Fig. 4.6  Gestalt Principles</text>
   </g>
   <g id="text_2">
    <text style="font-size: 13.5px; font-family: 'DejaVu Sans'; text-anchor: start; fill: #5f6670" x="35.099303" y="58.113891" transform="rotate(-0 35.099303 58.113891)">How the visual system groups parts into organized wholes</text>
   </g>
   <g id="text_3">
    <text style="font-weight: 700; font-size: 13.5px; font-family: 'DejaVu Sans'; text-anchor: middle; fill: #222831" x="119.959681" y="113.553891" transform="rotate(-0 119.959681 113.553891)">Figure–ground</text>
   </g>
   <g id="text_4">
    <text style="font-weight: 700; font-size: 13.5px; font-family: 'DejaVu Sans'; text-anchor: middle; fill: #222831" x="298.980205" y="113.553891" transform="rotate(-0 298.980205 113.553891)">Proximity</text>
   </g>
   <g id="text_5">
    <text style="font-weight: 700; font-size: 13.5px; font-family: 'DejaVu Sans'; text-anchor: middle; fill: #222831" x="478.00073" y="113.553891" transform="rotate(-0 478.00073 113.553891)">Similarity</text>
   </g>
   <g id="text_6">
    <text style="font-weight: 700; font-size: 13.5px; font-family: 'DejaVu Sans'; text-anchor: middle; fill: #222831" x="657.021254" y="113.553891" transform="rotate(-0 657.021254 113.553891)">Closure</text>
   </g>
   <g id="text_7">
    <text style="font-weight: 700; font-size: 15px; font-family: 'DejaVu Sans'; text-anchor: middle; fill: #222831" x="379.1907" y="346.230469" transform="rotate(-0 379.1907 346.230469)">Perception adds organization: the experienced whole is not just a list of sensory parts.</text>
   </g>
  </g>
 </g>
 <defs>
  <clipPath id="pe863df01b3">
   <rect x="7.2" y="7.2" width="743.9814" height="415.8"/>
  </clipPath>
 </defs>
</svg>
