<svg xmlns="http://www.w3.org/2000/svg" width="1600" height="900" viewBox="0 0 1600 900" role="img" aria-labelledby="title desc">
<title id="title">IQ standardization curve</title>
<desc id="desc">A normal curve centered at IQ 100 with score markers at 70, 85, 100, 115, and 130, and labels for mean and standard deviation.</desc>
<defs>
  <filter id="softShadow" x="-10%" y="-10%" width="120%" height="130%">
    <feDropShadow dx="0" dy="8" stdDeviation="9" flood-color="#102a43" flood-opacity="0.12"/>
  </filter>
  <marker id="arrow" viewBox="0 0 10 10" refX="8.5" refY="5" markerWidth="7" markerHeight="7" orient="auto-start-reverse">
    <path d="M0,0 L10,5 L0,10 Z" fill="#52606d"/>
  </marker>
</defs>
<rect width="1600" height="900" fill="#ffffff"/>
<rect x="52" y="54" width="1496" height="792" rx="24" fill="#f8fbfd" stroke="#dde7ee" stroke-width="2"/>
<text x="96" y="116" font-family="Aptos, Arial, sans-serif" font-size="42" font-weight="700" fill="#102a43" text-anchor="start" >IQ Scores Are Standardized</text>
<text x="96" y="152" font-family="Aptos, Arial, sans-serif" font-size="22" font-weight="400" fill="#52606d" text-anchor="start" >The number is interpreted relative to a norming sample.</text>
<g filter="url(#softShadow)">
  <rect x="160" y="216" width="1280" height="520" rx="18" fill="#ffffff" stroke="#c9d6df" stroke-width="2.5"/>
</g>
<path d="M256.0,639.0 L260.5,638.9 L265.1,638.8 L269.6,638.6 L274.1,638.5 L278.7,638.4 L283.2,638.2 L287.7,638.0 L292.3,637.9 L296.8,637.7 L301.3,637.4 L305.9,637.2 L310.4,636.9 L314.9,636.7 L319.5,636.4 L324.0,636.0 L328.5,635.7 L333.1,635.3 L337.6,634.9 L342.1,634.5 L346.7,634.0 L351.2,633.5 L355.7,633.0 L360.3,632.4 L364.8,631.8 L369.3,631.2 L373.9,630.5 L378.4,629.7 L382.9,629.0 L387.5,628.1 L392.0,627.2 L396.5,626.3 L401.1,625.3 L405.6,624.2 L410.1,623.0 L414.7,621.8 L419.2,620.6 L423.7,619.2 L428.3,617.8 L432.8,616.3 L437.3,614.7 L441.9,613.0 L446.4,611.3 L450.9,609.5 L455.5,607.5 L460.0,605.5 L464.5,603.4 L469.1,601.1 L473.6,598.8 L478.1,596.4 L482.7,593.8 L487.2,591.2 L491.7,588.4 L496.3,585.6 L500.8,582.6 L505.3,579.5 L509.9,576.2 L514.4,572.9 L518.9,569.5 L523.5,565.9 L528.0,562.2 L532.5,558.4 L537.1,554.5 L541.6,550.4 L546.1,546.3 L550.7,542.0 L555.2,537.6 L559.7,533.1 L564.3,528.5 L568.8,523.8 L573.3,519.0 L577.9,514.1 L582.4,509.1 L586.9,504.0 L591.5,498.9 L596.0,493.6 L600.5,488.3 L605.1,482.9 L609.6,477.4 L614.1,471.9 L618.7,466.4 L623.2,460.8 L627.7,455.2 L632.3,449.5 L636.8,443.8 L641.3,438.2 L645.9,432.5 L650.4,426.9 L654.9,421.2 L659.5,415.6 L664.0,410.1 L668.5,404.5 L673.1,399.1 L677.6,393.7 L682.1,388.4 L686.7,383.2 L691.2,378.1 L695.7,373.1 L700.3,368.3 L704.8,363.5 L709.3,358.9 L713.9,354.5 L718.4,350.2 L722.9,346.1 L727.5,342.2 L732.0,338.5 L736.5,335.0 L741.1,331.6 L745.6,328.5 L750.1,325.6 L754.7,323.0 L759.2,320.6 L763.7,318.4 L768.3,316.4 L772.8,314.7 L777.3,313.3 L781.9,312.1 L786.4,311.2 L790.9,310.5 L795.5,310.1 L800.0,310.0 L804.5,310.1 L809.1,310.5 L813.6,311.2 L818.1,312.1 L822.7,313.3 L827.2,314.7 L831.7,316.4 L836.3,318.4 L840.8,320.6 L845.3,323.0 L849.9,325.6 L854.4,328.5 L858.9,331.6 L863.5,335.0 L868.0,338.5 L872.5,342.2 L877.1,346.1 L881.6,350.2 L886.1,354.5 L890.7,358.9 L895.2,363.5 L899.7,368.3 L904.3,373.1 L908.8,378.1 L913.3,383.2 L917.9,388.4 L922.4,393.7 L926.9,399.1 L931.5,404.5 L936.0,410.1 L940.5,415.6 L945.1,421.2 L949.6,426.9 L954.1,432.5 L958.7,438.2 L963.2,443.8 L967.7,449.5 L972.3,455.2 L976.8,460.8 L981.3,466.4 L985.9,471.9 L990.4,477.4 L994.9,482.9 L999.5,488.3 L1004.0,493.6 L1008.5,498.9 L1013.1,504.0 L1017.6,509.1 L1022.1,514.1 L1026.7,519.0 L1031.2,523.8 L1035.7,528.5 L1040.3,533.1 L1044.8,537.6 L1049.3,542.0 L1053.9,546.3 L1058.4,550.4 L1062.9,554.5 L1067.5,558.4 L1072.0,562.2 L1076.5,565.9 L1081.1,569.5 L1085.6,572.9 L1090.1,576.2 L1094.7,579.5 L1099.2,582.6 L1103.7,585.6 L1108.3,588.4 L1112.8,591.2 L1117.3,593.8 L1121.9,596.4 L1126.4,598.8 L1130.9,601.1 L1135.5,603.4 L1140.0,605.5 L1144.5,607.5 L1149.1,609.5 L1153.6,611.3 L1158.1,613.0 L1162.7,614.7 L1167.2,616.3 L1171.7,617.8 L1176.3,619.2 L1180.8,620.6 L1185.3,621.8 L1189.9,623.0 L1194.4,624.2 L1198.9,625.3 L1203.5,626.3 L1208.0,627.2 L1212.5,628.1 L1217.1,629.0 L1221.6,629.7 L1226.1,630.5 L1230.7,631.2 L1235.2,631.8 L1239.7,632.4 L1244.3,633.0 L1248.8,633.5 L1253.3,634.0 L1257.9,634.5 L1262.4,634.9 L1266.9,635.3 L1271.5,635.7 L1276.0,636.0 L1280.5,636.4 L1285.1,636.7 L1289.6,636.9 L1294.1,637.2 L1298.7,637.4 L1303.2,637.7 L1307.7,637.9 L1312.3,638.0 L1316.8,638.2 L1321.3,638.4 L1325.9,638.5 L1330.4,638.6 L1334.9,638.8 L1339.5,638.9 L1344.0,639.0 L1344.0,640 L256.0,640 Z" fill="#eaf4f8"/>
<path d="M256.0,639.0 L260.5,638.9 L265.1,638.8 L269.6,638.6 L274.1,638.5 L278.7,638.4 L283.2,638.2 L287.7,638.0 L292.3,637.9 L296.8,637.7 L301.3,637.4 L305.9,637.2 L310.4,636.9 L314.9,636.7 L319.5,636.4 L324.0,636.0 L328.5,635.7 L333.1,635.3 L337.6,634.9 L342.1,634.5 L346.7,634.0 L351.2,633.5 L355.7,633.0 L360.3,632.4 L364.8,631.8 L369.3,631.2 L373.9,630.5 L378.4,629.7 L382.9,629.0 L387.5,628.1 L392.0,627.2 L396.5,626.3 L401.1,625.3 L405.6,624.2 L410.1,623.0 L414.7,621.8 L419.2,620.6 L423.7,619.2 L428.3,617.8 L432.8,616.3 L437.3,614.7 L441.9,613.0 L446.4,611.3 L450.9,609.5 L455.5,607.5 L460.0,605.5 L464.5,603.4 L469.1,601.1 L473.6,598.8 L478.1,596.4 L482.7,593.8 L487.2,591.2 L491.7,588.4 L496.3,585.6 L500.8,582.6 L505.3,579.5 L509.9,576.2 L514.4,572.9 L518.9,569.5 L523.5,565.9 L528.0,562.2 L532.5,558.4 L537.1,554.5 L541.6,550.4 L546.1,546.3 L550.7,542.0 L555.2,537.6 L559.7,533.1 L564.3,528.5 L568.8,523.8 L573.3,519.0 L577.9,514.1 L582.4,509.1 L586.9,504.0 L591.5,498.9 L596.0,493.6 L600.5,488.3 L605.1,482.9 L609.6,477.4 L614.1,471.9 L618.7,466.4 L623.2,460.8 L627.7,455.2 L632.3,449.5 L636.8,443.8 L641.3,438.2 L645.9,432.5 L650.4,426.9 L654.9,421.2 L659.5,415.6 L664.0,410.1 L668.5,404.5 L673.1,399.1 L677.6,393.7 L682.1,388.4 L686.7,383.2 L691.2,378.1 L695.7,373.1 L700.3,368.3 L704.8,363.5 L709.3,358.9 L713.9,354.5 L718.4,350.2 L722.9,346.1 L727.5,342.2 L732.0,338.5 L736.5,335.0 L741.1,331.6 L745.6,328.5 L750.1,325.6 L754.7,323.0 L759.2,320.6 L763.7,318.4 L768.3,316.4 L772.8,314.7 L777.3,313.3 L781.9,312.1 L786.4,311.2 L790.9,310.5 L795.5,310.1 L800.0,310.0 L804.5,310.1 L809.1,310.5 L813.6,311.2 L818.1,312.1 L822.7,313.3 L827.2,314.7 L831.7,316.4 L836.3,318.4 L840.8,320.6 L845.3,323.0 L849.9,325.6 L854.4,328.5 L858.9,331.6 L863.5,335.0 L868.0,338.5 L872.5,342.2 L877.1,346.1 L881.6,350.2 L886.1,354.5 L890.7,358.9 L895.2,363.5 L899.7,368.3 L904.3,373.1 L908.8,378.1 L913.3,383.2 L917.9,388.4 L922.4,393.7 L926.9,399.1 L931.5,404.5 L936.0,410.1 L940.5,415.6 L945.1,421.2 L949.6,426.9 L954.1,432.5 L958.7,438.2 L963.2,443.8 L967.7,449.5 L972.3,455.2 L976.8,460.8 L981.3,466.4 L985.9,471.9 L990.4,477.4 L994.9,482.9 L999.5,488.3 L1004.0,493.6 L1008.5,498.9 L1013.1,504.0 L1017.6,509.1 L1022.1,514.1 L1026.7,519.0 L1031.2,523.8 L1035.7,528.5 L1040.3,533.1 L1044.8,537.6 L1049.3,542.0 L1053.9,546.3 L1058.4,550.4 L1062.9,554.5 L1067.5,558.4 L1072.0,562.2 L1076.5,565.9 L1081.1,569.5 L1085.6,572.9 L1090.1,576.2 L1094.7,579.5 L1099.2,582.6 L1103.7,585.6 L1108.3,588.4 L1112.8,591.2 L1117.3,593.8 L1121.9,596.4 L1126.4,598.8 L1130.9,601.1 L1135.5,603.4 L1140.0,605.5 L1144.5,607.5 L1149.1,609.5 L1153.6,611.3 L1158.1,613.0 L1162.7,614.7 L1167.2,616.3 L1171.7,617.8 L1176.3,619.2 L1180.8,620.6 L1185.3,621.8 L1189.9,623.0 L1194.4,624.2 L1198.9,625.3 L1203.5,626.3 L1208.0,627.2 L1212.5,628.1 L1217.1,629.0 L1221.6,629.7 L1226.1,630.5 L1230.7,631.2 L1235.2,631.8 L1239.7,632.4 L1244.3,633.0 L1248.8,633.5 L1253.3,634.0 L1257.9,634.5 L1262.4,634.9 L1266.9,635.3 L1271.5,635.7 L1276.0,636.0 L1280.5,636.4 L1285.1,636.7 L1289.6,636.9 L1294.1,637.2 L1298.7,637.4 L1303.2,637.7 L1307.7,637.9 L1312.3,638.0 L1316.8,638.2 L1321.3,638.4 L1325.9,638.5 L1330.4,638.6 L1334.9,638.8 L1339.5,638.9 L1344.0,639.0" fill="none" stroke="#2f5d7c" stroke-width="5" stroke-linecap="round"/>
<line x1="260" y1="640" x2="1340" y2="640" stroke="#52606d" stroke-width="3"/>
<line x1="480.0" y1="640" x2="480.0" y2="595.3" stroke="#466b80" stroke-width="3"/><circle cx="480.0" cy="595.3" r="8" fill="#466b80" stroke="#ffffff" stroke-width="3"/><text x="480.0" y="686" font-family="Aptos, Arial, sans-serif" font-size="25" font-weight="700" fill="#243b53" text-anchor="middle" >70</text><line x1="640.0" y1="640" x2="640.0" y2="439.8" stroke="#466b80" stroke-width="3"/><circle cx="640.0" cy="439.8" r="8" fill="#466b80" stroke="#ffffff" stroke-width="3"/><text x="640.0" y="686" font-family="Aptos, Arial, sans-serif" font-size="25" font-weight="700" fill="#243b53" text-anchor="middle" >85</text><line x1="800.0" y1="640" x2="800.0" y2="310.0" stroke="#c65f4b" stroke-width="3"/><circle cx="800.0" cy="310.0" r="8" fill="#c65f4b" stroke="#ffffff" stroke-width="3"/><text x="800.0" y="686" font-family="Aptos, Arial, sans-serif" font-size="25" font-weight="700" fill="#243b53" text-anchor="middle" >100</text><line x1="960.0" y1="640" x2="960.0" y2="439.8" stroke="#466b80" stroke-width="3"/><circle cx="960.0" cy="439.8" r="8" fill="#466b80" stroke="#ffffff" stroke-width="3"/><text x="960.0" y="686" font-family="Aptos, Arial, sans-serif" font-size="25" font-weight="700" fill="#243b53" text-anchor="middle" >115</text><line x1="1120.0" y1="640" x2="1120.0" y2="595.3" stroke="#466b80" stroke-width="3"/><circle cx="1120.0" cy="595.3" r="8" fill="#466b80" stroke="#ffffff" stroke-width="3"/><text x="1120.0" y="686" font-family="Aptos, Arial, sans-serif" font-size="25" font-weight="700" fill="#243b53" text-anchor="middle" >130</text>
<rect x="630" y="238" width="340" height="70" rx="16" fill="#fff8ef" stroke="#e5b088" stroke-width="2"/>
<text x="800" y="280" font-family="Aptos, Arial, sans-serif" font-size="28" font-weight="700" fill="#8f3d2e" text-anchor="middle" >Mean = 100</text>
<line x1="800" y1="536" x2="960" y2="536" stroke="#d97b48" stroke-width="4"/>
<line x1="800" y1="522" x2="800" y2="550" stroke="#d97b48" stroke-width="4"/>
<line x1="960" y1="522" x2="960" y2="550" stroke="#d97b48" stroke-width="4"/>
<text x="880" y="518" font-family="Aptos, Arial, sans-serif" font-size="26" font-weight="700" fill="#8f3d2e" text-anchor="middle" >1 SD = 15</text>
<text x="800" y="720" font-family="Aptos, Arial, sans-serif" font-size="23" font-weight="700" fill="#52606d" text-anchor="middle" >IQ score</text>
<rect x="510" y="736" width="580" height="52" rx="26" fill="#eaf4f8" stroke="#c9d6df" stroke-width="2"/>
<text x="800" y="771" font-family="Aptos, Arial, sans-serif" font-size="25" font-weight="700" fill="#102a43" text-anchor="middle" >Scores are relative to a norming sample.</text>
</svg>