<?xml version="1.0" encoding="utf-8" standalone="no"?>
<!DOCTYPE svg PUBLIC "-//W3C//DTD SVG 1.1//EN"
  "http://www.w3.org/Graphics/SVG/1.1/DTD/svg11.dtd">
<svg xmlns:xlink="http://www.w3.org/1999/xlink" width="973.02pt" height="584.311562pt" viewBox="0 0 973.02 584.311562" xmlns="http://www.w3.org/2000/svg" version="1.1">
 <metadata>
  <rdf:RDF xmlns:dc="http://purl.org/dc/elements/1.1/" xmlns:cc="http://creativecommons.org/ns#" xmlns:rdf="http://www.w3.org/1999/02/22-rdf-syntax-ns#">
   <cc:Work>
    <dc:type rdf:resource="http://purl.org/dc/dcmitype/StillImage"/>
    <dc:date>2026-07-01T17:38:00.599082</dc:date>
    <dc:format>image/svg+xml</dc:format>
    <dc:creator>
     <cc:Agent>
      <dc:title>Matplotlib v3.10.8, https://matplotlib.org/</dc:title>
     </cc:Agent>
    </dc:creator>
   </cc:Work>
  </rdf:RDF>
 </metadata>
 <defs>
  <style type="text/css">*{stroke-linejoin: round; stroke-linecap: butt}</style>
 </defs>
 <g id="figure_1">
  <g id="patch_1">
   <path d="M 0 584.311562 
L 973.02 584.311562 
L 973.02 0 
L 0 0 
z
" style="fill: #ffffff"/>
  </g>
  <g id="axes_1">
   <g id="line2d_1">
    <path d="M 63.555 209.16 
L 102.57 434.58 
L 141.585 434.58 
L 184.935 252.51 
L 228.285 434.58 
L 267.3 434.58 
L 314.985 209.16 
" clip-path="url(#pd8341067bf)" style="fill: none; stroke: #173a59; stroke-width: 9; stroke-linecap: round"/>
   </g>
   <g id="line2d_2">
    <path d="M 63.555 434.58 
L 102.57 209.16 
L 141.585 209.16 
L 184.935 395.565 
L 228.285 209.16 
L 267.3 209.16 
L 314.985 434.58 
" clip-path="url(#pd8341067bf)" style="fill: none; stroke: #173a59; stroke-width: 9; stroke-linecap: round"/>
   </g>
   <g id="text_1">
    <!-- Familiar letters -->
    <g style="fill: #5c5c5c" transform="translate(150.600313 139.712344) scale(0.17 -0.17)">
     <defs>
      <path id="DejaVuSans-Bold-46" d="M 588 4666 
L 3834 4666 
L 3834 3756 
L 1791 3756 
L 1791 2888 
L 3713 2888 
L 3713 1978 
L 1791 1978 
L 1791 0 
L 588 0 
L 588 4666 
z
" transform="scale(0.015625)"/>
      <path id="DejaVuSans-Bold-61" d="M 2106 1575 
Q 1756 1575 1579 1456 
Q 1403 1338 1403 1106 
Q 1403 894 1545 773 
Q 1688 653 1941 653 
Q 2256 653 2472 879 
Q 2688 1106 2688 1447 
L 2688 1575 
L 2106 1575 
z
M 3816 1997 
L 3816 0 
L 2688 0 
L 2688 519 
Q 2463 200 2181 54 
Q 1900 -91 1497 -91 
Q 953 -91 614 226 
Q 275 544 275 1050 
Q 275 1666 698 1953 
Q 1122 2241 2028 2241 
L 2688 2241 
L 2688 2328 
Q 2688 2594 2478 2717 
Q 2269 2841 1825 2841 
Q 1466 2841 1156 2769 
Q 847 2697 581 2553 
L 581 3406 
Q 941 3494 1303 3539 
Q 1666 3584 2028 3584 
Q 2975 3584 3395 3211 
Q 3816 2838 3816 1997 
z
" transform="scale(0.015625)"/>
      <path id="DejaVuSans-Bold-6d" d="M 3781 2919 
Q 3994 3244 4286 3414 
Q 4578 3584 4928 3584 
Q 5531 3584 5847 3212 
Q 6163 2841 6163 2131 
L 6163 0 
L 5038 0 
L 5038 1825 
Q 5041 1866 5042 1909 
Q 5044 1953 5044 2034 
Q 5044 2406 4934 2573 
Q 4825 2741 4581 2741 
Q 4263 2741 4089 2478 
Q 3916 2216 3909 1719 
L 3909 0 
L 2784 0 
L 2784 1825 
Q 2784 2406 2684 2573 
Q 2584 2741 2328 2741 
Q 2006 2741 1831 2477 
Q 1656 2213 1656 1722 
L 1656 0 
L 531 0 
L 531 3500 
L 1656 3500 
L 1656 2988 
Q 1863 3284 2130 3434 
Q 2397 3584 2719 3584 
Q 3081 3584 3359 3409 
Q 3638 3234 3781 2919 
z
" transform="scale(0.015625)"/>
      <path id="DejaVuSans-Bold-69" d="M 538 3500 
L 1656 3500 
L 1656 0 
L 538 0 
L 538 3500 
z
M 538 4863 
L 1656 4863 
L 1656 3950 
L 538 3950 
L 538 4863 
z
" transform="scale(0.015625)"/>
      <path id="DejaVuSans-Bold-6c" d="M 538 4863 
L 1656 4863 
L 1656 0 
L 538 0 
L 538 4863 
z
" transform="scale(0.015625)"/>
      <path id="DejaVuSans-Bold-72" d="M 3138 2547 
Q 2991 2616 2845 2648 
Q 2700 2681 2553 2681 
Q 2122 2681 1889 2404 
Q 1656 2128 1656 1613 
L 1656 0 
L 538 0 
L 538 3500 
L 1656 3500 
L 1656 2925 
Q 1872 3269 2151 3426 
Q 2431 3584 2822 3584 
Q 2878 3584 2943 3579 
Q 3009 3575 3134 3559 
L 3138 2547 
z
" transform="scale(0.015625)"/>
      <path id="DejaVuSans-Bold-20" transform="scale(0.015625)"/>
      <path id="DejaVuSans-Bold-65" d="M 4031 1759 
L 4031 1441 
L 1416 1441 
Q 1456 1047 1700 850 
Q 1944 653 2381 653 
Q 2734 653 3104 758 
Q 3475 863 3866 1075 
L 3866 213 
Q 3469 63 3072 -14 
Q 2675 -91 2278 -91 
Q 1328 -91 801 392 
Q 275 875 275 1747 
Q 275 2603 792 3093 
Q 1309 3584 2216 3584 
Q 3041 3584 3536 3087 
Q 4031 2591 4031 1759 
z
M 2881 2131 
Q 2881 2450 2695 2645 
Q 2509 2841 2209 2841 
Q 1884 2841 1681 2658 
Q 1478 2475 1428 2131 
L 2881 2131 
z
" transform="scale(0.015625)"/>
      <path id="DejaVuSans-Bold-74" d="M 1759 4494 
L 1759 3500 
L 2913 3500 
L 2913 2700 
L 1759 2700 
L 1759 1216 
Q 1759 972 1856 886 
Q 1953 800 2241 800 
L 2816 800 
L 2816 0 
L 1856 0 
Q 1194 0 917 276 
Q 641 553 641 1216 
L 641 2700 
L 84 2700 
L 84 3500 
L 641 3500 
L 641 4494 
L 1759 4494 
z
" transform="scale(0.015625)"/>
      <path id="DejaVuSans-Bold-73" d="M 3272 3391 
L 3272 2541 
Q 2913 2691 2578 2766 
Q 2244 2841 1947 2841 
Q 1628 2841 1473 2761 
Q 1319 2681 1319 2516 
Q 1319 2381 1436 2309 
Q 1553 2238 1856 2203 
L 2053 2175 
Q 2913 2066 3209 1816 
Q 3506 1566 3506 1031 
Q 3506 472 3093 190 
Q 2681 -91 1863 -91 
Q 1516 -91 1145 -36 
Q 775 19 384 128 
L 384 978 
Q 719 816 1070 734 
Q 1422 653 1784 653 
Q 2113 653 2278 743 
Q 2444 834 2444 1013 
Q 2444 1163 2330 1236 
Q 2216 1309 1875 1350 
L 1678 1375 
Q 931 1469 631 1722 
Q 331 1975 331 2491 
Q 331 3047 712 3315 
Q 1094 3584 1881 3584 
Q 2191 3584 2531 3537 
Q 2872 3491 3272 3391 
z
" transform="scale(0.015625)"/>
     </defs>
     <use xlink:href="#DejaVuSans-Bold-46"/>
     <use xlink:href="#DejaVuSans-Bold-61" transform="translate(62.435547 0)"/>
     <use xlink:href="#DejaVuSans-Bold-6d" transform="translate(129.916016 0)"/>
     <use xlink:href="#DejaVuSans-Bold-69" transform="translate(234.115234 0)"/>
     <use xlink:href="#DejaVuSans-Bold-6c" transform="translate(268.392578 0)"/>
     <use xlink:href="#DejaVuSans-Bold-69" transform="translate(302.669922 0)"/>
     <use xlink:href="#DejaVuSans-Bold-61" transform="translate(336.947266 0)"/>
     <use xlink:href="#DejaVuSans-Bold-72" transform="translate(404.427734 0)"/>
     <use xlink:href="#DejaVuSans-Bold-20" transform="translate(453.744141 0)"/>
     <use xlink:href="#DejaVuSans-Bold-6c" transform="translate(488.558594 0)"/>
     <use xlink:href="#DejaVuSans-Bold-65" transform="translate(522.835938 0)"/>
     <use xlink:href="#DejaVuSans-Bold-74" transform="translate(590.658203 0)"/>
     <use xlink:href="#DejaVuSans-Bold-74" transform="translate(638.460938 0)"/>
     <use xlink:href="#DejaVuSans-Bold-65" transform="translate(686.263672 0)"/>
     <use xlink:href="#DejaVuSans-Bold-72" transform="translate(754.085938 0)"/>
     <use xlink:href="#DejaVuSans-Bold-73" transform="translate(803.402344 0)"/>
    </g>
   </g>
   <g id="text_2">
    <!-- W + M-like strokes overlap -->
    <g style="fill: #5c5c5c" transform="translate(95.585938 499.605) scale(0.14 -0.14)">
     <defs>
      <path id="DejaVuSans-57" d="M 213 4666 
L 850 4666 
L 1831 722 
L 2809 4666 
L 3519 4666 
L 4500 722 
L 5478 4666 
L 6119 4666 
L 4947 0 
L 4153 0 
L 3169 4050 
L 2175 0 
L 1381 0 
L 213 4666 
z
" transform="scale(0.015625)"/>
      <path id="DejaVuSans-20" transform="scale(0.015625)"/>
      <path id="DejaVuSans-2b" d="M 2944 4013 
L 2944 2272 
L 4684 2272 
L 4684 1741 
L 2944 1741 
L 2944 0 
L 2419 0 
L 2419 1741 
L 678 1741 
L 678 2272 
L 2419 2272 
L 2419 4013 
L 2944 4013 
z
" transform="scale(0.015625)"/>
      <path id="DejaVuSans-4d" d="M 628 4666 
L 1569 4666 
L 2759 1491 
L 3956 4666 
L 4897 4666 
L 4897 0 
L 4281 0 
L 4281 4097 
L 3078 897 
L 2444 897 
L 1241 4097 
L 1241 0 
L 628 0 
L 628 4666 
z
" transform="scale(0.015625)"/>
      <path id="DejaVuSans-2d" d="M 313 2009 
L 1997 2009 
L 1997 1497 
L 313 1497 
L 313 2009 
z
" transform="scale(0.015625)"/>
      <path id="DejaVuSans-6c" d="M 603 4863 
L 1178 4863 
L 1178 0 
L 603 0 
L 603 4863 
z
" transform="scale(0.015625)"/>
      <path id="DejaVuSans-69" d="M 603 3500 
L 1178 3500 
L 1178 0 
L 603 0 
L 603 3500 
z
M 603 4863 
L 1178 4863 
L 1178 4134 
L 603 4134 
L 603 4863 
z
" transform="scale(0.015625)"/>
      <path id="DejaVuSans-6b" d="M 581 4863 
L 1159 4863 
L 1159 1991 
L 2875 3500 
L 3609 3500 
L 1753 1863 
L 3688 0 
L 2938 0 
L 1159 1709 
L 1159 0 
L 581 0 
L 581 4863 
z
" transform="scale(0.015625)"/>
      <path id="DejaVuSans-65" d="M 3597 1894 
L 3597 1613 
L 953 1613 
Q 991 1019 1311 708 
Q 1631 397 2203 397 
Q 2534 397 2845 478 
Q 3156 559 3463 722 
L 3463 178 
Q 3153 47 2828 -22 
Q 2503 -91 2169 -91 
Q 1331 -91 842 396 
Q 353 884 353 1716 
Q 353 2575 817 3079 
Q 1281 3584 2069 3584 
Q 2775 3584 3186 3129 
Q 3597 2675 3597 1894 
z
M 3022 2063 
Q 3016 2534 2758 2815 
Q 2500 3097 2075 3097 
Q 1594 3097 1305 2825 
Q 1016 2553 972 2059 
L 3022 2063 
z
" transform="scale(0.015625)"/>
      <path id="DejaVuSans-73" d="M 2834 3397 
L 2834 2853 
Q 2591 2978 2328 3040 
Q 2066 3103 1784 3103 
Q 1356 3103 1142 2972 
Q 928 2841 928 2578 
Q 928 2378 1081 2264 
Q 1234 2150 1697 2047 
L 1894 2003 
Q 2506 1872 2764 1633 
Q 3022 1394 3022 966 
Q 3022 478 2636 193 
Q 2250 -91 1575 -91 
Q 1294 -91 989 -36 
Q 684 19 347 128 
L 347 722 
Q 666 556 975 473 
Q 1284 391 1588 391 
Q 1994 391 2212 530 
Q 2431 669 2431 922 
Q 2431 1156 2273 1281 
Q 2116 1406 1581 1522 
L 1381 1569 
Q 847 1681 609 1914 
Q 372 2147 372 2553 
Q 372 3047 722 3315 
Q 1072 3584 1716 3584 
Q 2034 3584 2315 3537 
Q 2597 3491 2834 3397 
z
" transform="scale(0.015625)"/>
      <path id="DejaVuSans-74" d="M 1172 4494 
L 1172 3500 
L 2356 3500 
L 2356 3053 
L 1172 3053 
L 1172 1153 
Q 1172 725 1289 603 
Q 1406 481 1766 481 
L 2356 481 
L 2356 0 
L 1766 0 
Q 1100 0 847 248 
Q 594 497 594 1153 
L 594 3053 
L 172 3053 
L 172 3500 
L 594 3500 
L 594 4494 
L 1172 4494 
z
" transform="scale(0.015625)"/>
      <path id="DejaVuSans-72" d="M 2631 2963 
Q 2534 3019 2420 3045 
Q 2306 3072 2169 3072 
Q 1681 3072 1420 2755 
Q 1159 2438 1159 1844 
L 1159 0 
L 581 0 
L 581 3500 
L 1159 3500 
L 1159 2956 
Q 1341 3275 1631 3429 
Q 1922 3584 2338 3584 
Q 2397 3584 2469 3576 
Q 2541 3569 2628 3553 
L 2631 2963 
z
" transform="scale(0.015625)"/>
      <path id="DejaVuSans-6f" d="M 1959 3097 
Q 1497 3097 1228 2736 
Q 959 2375 959 1747 
Q 959 1119 1226 758 
Q 1494 397 1959 397 
Q 2419 397 2687 759 
Q 2956 1122 2956 1747 
Q 2956 2369 2687 2733 
Q 2419 3097 1959 3097 
z
M 1959 3584 
Q 2709 3584 3137 3096 
Q 3566 2609 3566 1747 
Q 3566 888 3137 398 
Q 2709 -91 1959 -91 
Q 1206 -91 779 398 
Q 353 888 353 1747 
Q 353 2609 779 3096 
Q 1206 3584 1959 3584 
z
" transform="scale(0.015625)"/>
      <path id="DejaVuSans-76" d="M 191 3500 
L 800 3500 
L 1894 563 
L 2988 3500 
L 3597 3500 
L 2284 0 
L 1503 0 
L 191 3500 
z
" transform="scale(0.015625)"/>
      <path id="DejaVuSans-61" d="M 2194 1759 
Q 1497 1759 1228 1600 
Q 959 1441 959 1056 
Q 959 750 1161 570 
Q 1363 391 1709 391 
Q 2188 391 2477 730 
Q 2766 1069 2766 1631 
L 2766 1759 
L 2194 1759 
z
M 3341 1997 
L 3341 0 
L 2766 0 
L 2766 531 
Q 2569 213 2275 61 
Q 1981 -91 1556 -91 
Q 1019 -91 701 211 
Q 384 513 384 1019 
Q 384 1609 779 1909 
Q 1175 2209 1959 2209 
L 2766 2209 
L 2766 2266 
Q 2766 2663 2505 2880 
Q 2244 3097 1772 3097 
Q 1472 3097 1187 3025 
Q 903 2953 641 2809 
L 641 3341 
Q 956 3463 1253 3523 
Q 1550 3584 1831 3584 
Q 2591 3584 2966 3190 
Q 3341 2797 3341 1997 
z
" transform="scale(0.015625)"/>
      <path id="DejaVuSans-70" d="M 1159 525 
L 1159 -1331 
L 581 -1331 
L 581 3500 
L 1159 3500 
L 1159 2969 
Q 1341 3281 1617 3432 
Q 1894 3584 2278 3584 
Q 2916 3584 3314 3078 
Q 3713 2572 3713 1747 
Q 3713 922 3314 415 
Q 2916 -91 2278 -91 
Q 1894 -91 1617 61 
Q 1341 213 1159 525 
z
M 3116 1747 
Q 3116 2381 2855 2742 
Q 2594 3103 2138 3103 
Q 1681 3103 1420 2742 
Q 1159 2381 1159 1747 
Q 1159 1113 1420 752 
Q 1681 391 2138 391 
Q 2594 391 2855 752 
Q 3116 1113 3116 1747 
z
" transform="scale(0.015625)"/>
     </defs>
     <use xlink:href="#DejaVuSans-57"/>
     <use xlink:href="#DejaVuSans-20" transform="translate(98.876953 0)"/>
     <use xlink:href="#DejaVuSans-2b" transform="translate(130.664062 0)"/>
     <use xlink:href="#DejaVuSans-20" transform="translate(214.453125 0)"/>
     <use xlink:href="#DejaVuSans-4d" transform="translate(246.240234 0)"/>
     <use xlink:href="#DejaVuSans-2d" transform="translate(332.519531 0)"/>
     <use xlink:href="#DejaVuSans-6c" transform="translate(368.603516 0)"/>
     <use xlink:href="#DejaVuSans-69" transform="translate(396.386719 0)"/>
     <use xlink:href="#DejaVuSans-6b" transform="translate(424.169922 0)"/>
     <use xlink:href="#DejaVuSans-65" transform="translate(478.455078 0)"/>
     <use xlink:href="#DejaVuSans-20" transform="translate(539.978516 0)"/>
     <use xlink:href="#DejaVuSans-73" transform="translate(571.765625 0)"/>
     <use xlink:href="#DejaVuSans-74" transform="translate(623.865234 0)"/>
     <use xlink:href="#DejaVuSans-72" transform="translate(663.074219 0)"/>
     <use xlink:href="#DejaVuSans-6f" transform="translate(701.9375 0)"/>
     <use xlink:href="#DejaVuSans-6b" transform="translate(763.119141 0)"/>
     <use xlink:href="#DejaVuSans-65" transform="translate(817.404297 0)"/>
     <use xlink:href="#DejaVuSans-73" transform="translate(878.927734 0)"/>
     <use xlink:href="#DejaVuSans-20" transform="translate(931.027344 0)"/>
     <use xlink:href="#DejaVuSans-6f" transform="translate(962.814453 0)"/>
     <use xlink:href="#DejaVuSans-76" transform="translate(1023.996094 0)"/>
     <use xlink:href="#DejaVuSans-65" transform="translate(1083.175781 0)"/>
     <use xlink:href="#DejaVuSans-72" transform="translate(1144.699219 0)"/>
     <use xlink:href="#DejaVuSans-6c" transform="translate(1185.8125 0)"/>
     <use xlink:href="#DejaVuSans-61" transform="translate(1213.595703 0)"/>
     <use xlink:href="#DejaVuSans-70" transform="translate(1274.875 0)"/>
    </g>
   </g>
  </g>
  <g id="axes_2">
   <g id="line2d_3">
    <path d="M 588.675 209.16 
L 627.69 434.58 
L 666.705 434.58 
L 710.055 252.51 
L 753.405 434.58 
L 792.42 434.58 
L 840.105 209.16 
" clip-path="url(#p136fbc5128)" style="fill: none; stroke: #173a59; stroke-opacity: 0.18; stroke-width: 9; stroke-linecap: round"/>
   </g>
   <g id="line2d_4">
    <path d="M 588.675 434.58 
L 627.69 209.16 
L 666.705 209.16 
L 710.055 395.565 
L 753.405 209.16 
L 792.42 209.16 
L 840.105 434.58 
" clip-path="url(#p136fbc5128)" style="fill: none; stroke: #173a59; stroke-opacity: 0.18; stroke-width: 9; stroke-linecap: round"/>
   </g>
   <g id="line2d_5">
    <path d="M 588.675 209.16 
L 627.69 434.58 
L 666.705 434.58 
L 710.055 395.565 
L 753.405 209.16 
L 792.42 209.16 
L 840.105 434.58 
" clip-path="url(#p136fbc5128)" style="fill: none; stroke: #4fbf8b; stroke-width: 10; stroke-linecap: round"/>
   </g>
   <g id="line2d_6">
    <path d="M 588.675 434.58 
L 627.69 209.16 
L 666.705 209.16 
L 710.055 252.51 
L 753.405 434.58 
L 792.42 434.58 
L 840.105 209.16 
" clip-path="url(#p136fbc5128)" style="fill: none; stroke: #173a59; stroke-width: 10; stroke-linecap: round"/>
   </g>
   <g id="text_3">
    <!-- Perceived continuations -->
    <g style="fill: #5c5c5c" transform="translate(633.144609 139.712344) scale(0.17 -0.17)">
     <defs>
      <path id="DejaVuSans-Bold-50" d="M 588 4666 
L 2584 4666 
Q 3475 4666 3951 4270 
Q 4428 3875 4428 3144 
Q 4428 2409 3951 2014 
Q 3475 1619 2584 1619 
L 1791 1619 
L 1791 0 
L 588 0 
L 588 4666 
z
M 1791 3794 
L 1791 2491 
L 2456 2491 
Q 2806 2491 2997 2661 
Q 3188 2831 3188 3144 
Q 3188 3456 2997 3625 
Q 2806 3794 2456 3794 
L 1791 3794 
z
" transform="scale(0.015625)"/>
      <path id="DejaVuSans-Bold-63" d="M 3366 3391 
L 3366 2478 
Q 3138 2634 2908 2709 
Q 2678 2784 2431 2784 
Q 1963 2784 1702 2511 
Q 1441 2238 1441 1747 
Q 1441 1256 1702 982 
Q 1963 709 2431 709 
Q 2694 709 2930 787 
Q 3166 866 3366 1019 
L 3366 103 
Q 3103 6 2833 -42 
Q 2563 -91 2291 -91 
Q 1344 -91 809 395 
Q 275 881 275 1747 
Q 275 2613 809 3098 
Q 1344 3584 2291 3584 
Q 2566 3584 2833 3536 
Q 3100 3488 3366 3391 
z
" transform="scale(0.015625)"/>
      <path id="DejaVuSans-Bold-76" d="M 97 3500 
L 1216 3500 
L 2088 1081 
L 2956 3500 
L 4078 3500 
L 2700 0 
L 1472 0 
L 97 3500 
z
" transform="scale(0.015625)"/>
      <path id="DejaVuSans-Bold-64" d="M 2919 2988 
L 2919 4863 
L 4044 4863 
L 4044 0 
L 2919 0 
L 2919 506 
Q 2688 197 2409 53 
Q 2131 -91 1766 -91 
Q 1119 -91 703 423 
Q 288 938 288 1747 
Q 288 2556 703 3070 
Q 1119 3584 1766 3584 
Q 2128 3584 2408 3439 
Q 2688 3294 2919 2988 
z
M 2181 722 
Q 2541 722 2730 984 
Q 2919 1247 2919 1747 
Q 2919 2247 2730 2509 
Q 2541 2772 2181 2772 
Q 1825 2772 1636 2509 
Q 1447 2247 1447 1747 
Q 1447 1247 1636 984 
Q 1825 722 2181 722 
z
" transform="scale(0.015625)"/>
      <path id="DejaVuSans-Bold-6f" d="M 2203 2784 
Q 1831 2784 1636 2517 
Q 1441 2250 1441 1747 
Q 1441 1244 1636 976 
Q 1831 709 2203 709 
Q 2569 709 2762 976 
Q 2956 1244 2956 1747 
Q 2956 2250 2762 2517 
Q 2569 2784 2203 2784 
z
M 2203 3584 
Q 3106 3584 3614 3096 
Q 4122 2609 4122 1747 
Q 4122 884 3614 396 
Q 3106 -91 2203 -91 
Q 1297 -91 786 396 
Q 275 884 275 1747 
Q 275 2609 786 3096 
Q 1297 3584 2203 3584 
z
" transform="scale(0.015625)"/>
      <path id="DejaVuSans-Bold-6e" d="M 4056 2131 
L 4056 0 
L 2931 0 
L 2931 347 
L 2931 1631 
Q 2931 2084 2911 2256 
Q 2891 2428 2841 2509 
Q 2775 2619 2662 2680 
Q 2550 2741 2406 2741 
Q 2056 2741 1856 2470 
Q 1656 2200 1656 1722 
L 1656 0 
L 538 0 
L 538 3500 
L 1656 3500 
L 1656 2988 
Q 1909 3294 2193 3439 
Q 2478 3584 2822 3584 
Q 3428 3584 3742 3212 
Q 4056 2841 4056 2131 
z
" transform="scale(0.015625)"/>
      <path id="DejaVuSans-Bold-75" d="M 500 1363 
L 500 3500 
L 1625 3500 
L 1625 3150 
Q 1625 2866 1622 2436 
Q 1619 2006 1619 1863 
Q 1619 1441 1641 1255 
Q 1663 1069 1716 984 
Q 1784 875 1895 815 
Q 2006 756 2150 756 
Q 2500 756 2700 1025 
Q 2900 1294 2900 1772 
L 2900 3500 
L 4019 3500 
L 4019 0 
L 2900 0 
L 2900 506 
Q 2647 200 2364 54 
Q 2081 -91 1741 -91 
Q 1134 -91 817 281 
Q 500 653 500 1363 
z
" transform="scale(0.015625)"/>
     </defs>
     <use xlink:href="#DejaVuSans-Bold-50"/>
     <use xlink:href="#DejaVuSans-Bold-65" transform="translate(73.291016 0)"/>
     <use xlink:href="#DejaVuSans-Bold-72" transform="translate(141.113281 0)"/>
     <use xlink:href="#DejaVuSans-Bold-63" transform="translate(190.429688 0)"/>
     <use xlink:href="#DejaVuSans-Bold-65" transform="translate(249.707031 0)"/>
     <use xlink:href="#DejaVuSans-Bold-69" transform="translate(317.529297 0)"/>
     <use xlink:href="#DejaVuSans-Bold-76" transform="translate(351.806641 0)"/>
     <use xlink:href="#DejaVuSans-Bold-65" transform="translate(416.992188 0)"/>
     <use xlink:href="#DejaVuSans-Bold-64" transform="translate(484.814453 0)"/>
     <use xlink:href="#DejaVuSans-Bold-20" transform="translate(556.396484 0)"/>
     <use xlink:href="#DejaVuSans-Bold-63" transform="translate(591.210938 0)"/>
     <use xlink:href="#DejaVuSans-Bold-6f" transform="translate(650.488281 0)"/>
     <use xlink:href="#DejaVuSans-Bold-6e" transform="translate(719.189453 0)"/>
     <use xlink:href="#DejaVuSans-Bold-74" transform="translate(790.380859 0)"/>
     <use xlink:href="#DejaVuSans-Bold-69" transform="translate(838.183594 0)"/>
     <use xlink:href="#DejaVuSans-Bold-6e" transform="translate(872.460938 0)"/>
     <use xlink:href="#DejaVuSans-Bold-75" transform="translate(943.652344 0)"/>
     <use xlink:href="#DejaVuSans-Bold-61" transform="translate(1014.84375 0)"/>
     <use xlink:href="#DejaVuSans-Bold-74" transform="translate(1082.324219 0)"/>
     <use xlink:href="#DejaVuSans-Bold-69" transform="translate(1130.126953 0)"/>
     <use xlink:href="#DejaVuSans-Bold-6f" transform="translate(1164.404297 0)"/>
     <use xlink:href="#DejaVuSans-Bold-6e" transform="translate(1233.105469 0)"/>
     <use xlink:href="#DejaVuSans-Bold-73" transform="translate(1304.296875 0)"/>
    </g>
   </g>
   <g id="text_4">
    <!-- Smooth paths override letter identity -->
    <g style="fill: #5c5c5c" transform="translate(584.226094 499.605) scale(0.14 -0.14)">
     <defs>
      <path id="DejaVuSans-53" d="M 3425 4513 
L 3425 3897 
Q 3066 4069 2747 4153 
Q 2428 4238 2131 4238 
Q 1616 4238 1336 4038 
Q 1056 3838 1056 3469 
Q 1056 3159 1242 3001 
Q 1428 2844 1947 2747 
L 2328 2669 
Q 3034 2534 3370 2195 
Q 3706 1856 3706 1288 
Q 3706 609 3251 259 
Q 2797 -91 1919 -91 
Q 1588 -91 1214 -16 
Q 841 59 441 206 
L 441 856 
Q 825 641 1194 531 
Q 1563 422 1919 422 
Q 2459 422 2753 634 
Q 3047 847 3047 1241 
Q 3047 1584 2836 1778 
Q 2625 1972 2144 2069 
L 1759 2144 
Q 1053 2284 737 2584 
Q 422 2884 422 3419 
Q 422 4038 858 4394 
Q 1294 4750 2059 4750 
Q 2388 4750 2728 4690 
Q 3069 4631 3425 4513 
z
" transform="scale(0.015625)"/>
      <path id="DejaVuSans-6d" d="M 3328 2828 
Q 3544 3216 3844 3400 
Q 4144 3584 4550 3584 
Q 5097 3584 5394 3201 
Q 5691 2819 5691 2113 
L 5691 0 
L 5113 0 
L 5113 2094 
Q 5113 2597 4934 2840 
Q 4756 3084 4391 3084 
Q 3944 3084 3684 2787 
Q 3425 2491 3425 1978 
L 3425 0 
L 2847 0 
L 2847 2094 
Q 2847 2600 2669 2842 
Q 2491 3084 2119 3084 
Q 1678 3084 1418 2786 
Q 1159 2488 1159 1978 
L 1159 0 
L 581 0 
L 581 3500 
L 1159 3500 
L 1159 2956 
Q 1356 3278 1631 3431 
Q 1906 3584 2284 3584 
Q 2666 3584 2933 3390 
Q 3200 3197 3328 2828 
z
" transform="scale(0.015625)"/>
      <path id="DejaVuSans-68" d="M 3513 2113 
L 3513 0 
L 2938 0 
L 2938 2094 
Q 2938 2591 2744 2837 
Q 2550 3084 2163 3084 
Q 1697 3084 1428 2787 
Q 1159 2491 1159 1978 
L 1159 0 
L 581 0 
L 581 4863 
L 1159 4863 
L 1159 2956 
Q 1366 3272 1645 3428 
Q 1925 3584 2291 3584 
Q 2894 3584 3203 3211 
Q 3513 2838 3513 2113 
z
" transform="scale(0.015625)"/>
      <path id="DejaVuSans-64" d="M 2906 2969 
L 2906 4863 
L 3481 4863 
L 3481 0 
L 2906 0 
L 2906 525 
Q 2725 213 2448 61 
Q 2172 -91 1784 -91 
Q 1150 -91 751 415 
Q 353 922 353 1747 
Q 353 2572 751 3078 
Q 1150 3584 1784 3584 
Q 2172 3584 2448 3432 
Q 2725 3281 2906 2969 
z
M 947 1747 
Q 947 1113 1208 752 
Q 1469 391 1925 391 
Q 2381 391 2643 752 
Q 2906 1113 2906 1747 
Q 2906 2381 2643 2742 
Q 2381 3103 1925 3103 
Q 1469 3103 1208 2742 
Q 947 2381 947 1747 
z
" transform="scale(0.015625)"/>
      <path id="DejaVuSans-6e" d="M 3513 2113 
L 3513 0 
L 2938 0 
L 2938 2094 
Q 2938 2591 2744 2837 
Q 2550 3084 2163 3084 
Q 1697 3084 1428 2787 
Q 1159 2491 1159 1978 
L 1159 0 
L 581 0 
L 581 3500 
L 1159 3500 
L 1159 2956 
Q 1366 3272 1645 3428 
Q 1925 3584 2291 3584 
Q 2894 3584 3203 3211 
Q 3513 2838 3513 2113 
z
" transform="scale(0.015625)"/>
      <path id="DejaVuSans-79" d="M 2059 -325 
Q 1816 -950 1584 -1140 
Q 1353 -1331 966 -1331 
L 506 -1331 
L 506 -850 
L 844 -850 
Q 1081 -850 1212 -737 
Q 1344 -625 1503 -206 
L 1606 56 
L 191 3500 
L 800 3500 
L 1894 763 
L 2988 3500 
L 3597 3500 
L 2059 -325 
z
" transform="scale(0.015625)"/>
     </defs>
     <use xlink:href="#DejaVuSans-53"/>
     <use xlink:href="#DejaVuSans-6d" transform="translate(63.476562 0)"/>
     <use xlink:href="#DejaVuSans-6f" transform="translate(160.888672 0)"/>
     <use xlink:href="#DejaVuSans-6f" transform="translate(222.070312 0)"/>
     <use xlink:href="#DejaVuSans-74" transform="translate(283.251953 0)"/>
     <use xlink:href="#DejaVuSans-68" transform="translate(322.460938 0)"/>
     <use xlink:href="#DejaVuSans-20" transform="translate(385.839844 0)"/>
     <use xlink:href="#DejaVuSans-70" transform="translate(417.626953 0)"/>
     <use xlink:href="#DejaVuSans-61" transform="translate(481.103516 0)"/>
     <use xlink:href="#DejaVuSans-74" transform="translate(542.382812 0)"/>
     <use xlink:href="#DejaVuSans-68" transform="translate(581.591797 0)"/>
     <use xlink:href="#DejaVuSans-73" transform="translate(644.970703 0)"/>
     <use xlink:href="#DejaVuSans-20" transform="translate(697.070312 0)"/>
     <use xlink:href="#DejaVuSans-6f" transform="translate(728.857422 0)"/>
     <use xlink:href="#DejaVuSans-76" transform="translate(790.039062 0)"/>
     <use xlink:href="#DejaVuSans-65" transform="translate(849.21875 0)"/>
     <use xlink:href="#DejaVuSans-72" transform="translate(910.742188 0)"/>
     <use xlink:href="#DejaVuSans-72" transform="translate(950.105469 0)"/>
     <use xlink:href="#DejaVuSans-69" transform="translate(991.21875 0)"/>
     <use xlink:href="#DejaVuSans-64" transform="translate(1019.001953 0)"/>
     <use xlink:href="#DejaVuSans-65" transform="translate(1082.478516 0)"/>
     <use xlink:href="#DejaVuSans-20" transform="translate(1144.001953 0)"/>
     <use xlink:href="#DejaVuSans-6c" transform="translate(1175.789062 0)"/>
     <use xlink:href="#DejaVuSans-65" transform="translate(1203.572266 0)"/>
     <use xlink:href="#DejaVuSans-74" transform="translate(1265.095703 0)"/>
     <use xlink:href="#DejaVuSans-74" transform="translate(1304.304688 0)"/>
     <use xlink:href="#DejaVuSans-65" transform="translate(1343.513672 0)"/>
     <use xlink:href="#DejaVuSans-72" transform="translate(1405.037109 0)"/>
     <use xlink:href="#DejaVuSans-20" transform="translate(1446.150391 0)"/>
     <use xlink:href="#DejaVuSans-69" transform="translate(1477.9375 0)"/>
     <use xlink:href="#DejaVuSans-64" transform="translate(1505.720703 0)"/>
     <use xlink:href="#DejaVuSans-65" transform="translate(1569.197266 0)"/>
     <use xlink:href="#DejaVuSans-6e" transform="translate(1630.720703 0)"/>
     <use xlink:href="#DejaVuSans-74" transform="translate(1694.099609 0)"/>
     <use xlink:href="#DejaVuSans-69" transform="translate(1733.308594 0)"/>
     <use xlink:href="#DejaVuSans-74" transform="translate(1761.091797 0)"/>
     <use xlink:href="#DejaVuSans-79" transform="translate(1800.300781 0)"/>
    </g>
   </g>
  </g>
  <g id="text_5">
   <!-- Good Continuation Can Override Familiar Letter Identity -->
   <g style="fill: #0b1f40" transform="translate(90.205313 26.196094) scale(0.25 -0.25)">
    <defs>
     <path id="DejaVuSans-Bold-47" d="M 4781 347 
Q 4331 128 3847 18 
Q 3363 -91 2847 -91 
Q 1681 -91 1000 561 
Q 319 1213 319 2328 
Q 319 3456 1012 4103 
Q 1706 4750 2913 4750 
Q 3378 4750 3804 4662 
Q 4231 4575 4609 4403 
L 4609 3438 
Q 4219 3659 3833 3768 
Q 3447 3878 3059 3878 
Q 2341 3878 1952 3476 
Q 1563 3075 1563 2328 
Q 1563 1588 1938 1184 
Q 2313 781 3003 781 
Q 3191 781 3352 804 
Q 3513 828 3641 878 
L 3641 1784 
L 2906 1784 
L 2906 2591 
L 4781 2591 
L 4781 347 
z
" transform="scale(0.015625)"/>
     <path id="DejaVuSans-Bold-43" d="M 4288 256 
Q 3956 84 3597 -3 
Q 3238 -91 2847 -91 
Q 1681 -91 1000 561 
Q 319 1213 319 2328 
Q 319 3447 1000 4098 
Q 1681 4750 2847 4750 
Q 3238 4750 3597 4662 
Q 3956 4575 4288 4403 
L 4288 3438 
Q 3953 3666 3628 3772 
Q 3303 3878 2944 3878 
Q 2300 3878 1931 3465 
Q 1563 3053 1563 2328 
Q 1563 1606 1931 1193 
Q 2300 781 2944 781 
Q 3303 781 3628 887 
Q 3953 994 4288 1222 
L 4288 256 
z
" transform="scale(0.015625)"/>
     <path id="DejaVuSans-Bold-4f" d="M 2719 3878 
Q 2169 3878 1866 3472 
Q 1563 3066 1563 2328 
Q 1563 1594 1866 1187 
Q 2169 781 2719 781 
Q 3272 781 3575 1187 
Q 3878 1594 3878 2328 
Q 3878 3066 3575 3472 
Q 3272 3878 2719 3878 
z
M 2719 4750 
Q 3844 4750 4481 4106 
Q 5119 3463 5119 2328 
Q 5119 1197 4481 553 
Q 3844 -91 2719 -91 
Q 1597 -91 958 553 
Q 319 1197 319 2328 
Q 319 3463 958 4106 
Q 1597 4750 2719 4750 
z
" transform="scale(0.015625)"/>
     <path id="DejaVuSans-Bold-4c" d="M 588 4666 
L 1791 4666 
L 1791 909 
L 3903 909 
L 3903 0 
L 588 0 
L 588 4666 
z
" transform="scale(0.015625)"/>
     <path id="DejaVuSans-Bold-49" d="M 588 4666 
L 1791 4666 
L 1791 0 
L 588 0 
L 588 4666 
z
" transform="scale(0.015625)"/>
     <path id="DejaVuSans-Bold-79" d="M 78 3500 
L 1197 3500 
L 2138 1125 
L 2938 3500 
L 4056 3500 
L 2584 -331 
Q 2363 -916 2067 -1148 
Q 1772 -1381 1288 -1381 
L 641 -1381 
L 641 -647 
L 991 -647 
Q 1275 -647 1404 -556 
Q 1534 -466 1606 -231 
L 1638 -134 
L 78 3500 
z
" transform="scale(0.015625)"/>
    </defs>
    <use xlink:href="#DejaVuSans-Bold-47"/>
    <use xlink:href="#DejaVuSans-Bold-6f" transform="translate(82.080078 0)"/>
    <use xlink:href="#DejaVuSans-Bold-6f" transform="translate(150.78125 0)"/>
    <use xlink:href="#DejaVuSans-Bold-64" transform="translate(219.482422 0)"/>
    <use xlink:href="#DejaVuSans-Bold-20" transform="translate(291.064453 0)"/>
    <use xlink:href="#DejaVuSans-Bold-43" transform="translate(325.878906 0)"/>
    <use xlink:href="#DejaVuSans-Bold-6f" transform="translate(399.267578 0)"/>
    <use xlink:href="#DejaVuSans-Bold-6e" transform="translate(467.96875 0)"/>
    <use xlink:href="#DejaVuSans-Bold-74" transform="translate(539.160156 0)"/>
    <use xlink:href="#DejaVuSans-Bold-69" transform="translate(586.962891 0)"/>
    <use xlink:href="#DejaVuSans-Bold-6e" transform="translate(621.240234 0)"/>
    <use xlink:href="#DejaVuSans-Bold-75" transform="translate(692.431641 0)"/>
    <use xlink:href="#DejaVuSans-Bold-61" transform="translate(763.623047 0)"/>
    <use xlink:href="#DejaVuSans-Bold-74" transform="translate(831.103516 0)"/>
    <use xlink:href="#DejaVuSans-Bold-69" transform="translate(878.90625 0)"/>
    <use xlink:href="#DejaVuSans-Bold-6f" transform="translate(913.183594 0)"/>
    <use xlink:href="#DejaVuSans-Bold-6e" transform="translate(981.884766 0)"/>
    <use xlink:href="#DejaVuSans-Bold-20" transform="translate(1053.076172 0)"/>
    <use xlink:href="#DejaVuSans-Bold-43" transform="translate(1087.890625 0)"/>
    <use xlink:href="#DejaVuSans-Bold-61" transform="translate(1161.279297 0)"/>
    <use xlink:href="#DejaVuSans-Bold-6e" transform="translate(1228.759766 0)"/>
    <use xlink:href="#DejaVuSans-Bold-20" transform="translate(1299.951172 0)"/>
    <use xlink:href="#DejaVuSans-Bold-4f" transform="translate(1334.765625 0)"/>
    <use xlink:href="#DejaVuSans-Bold-76" transform="translate(1419.775391 0)"/>
    <use xlink:href="#DejaVuSans-Bold-65" transform="translate(1484.960938 0)"/>
    <use xlink:href="#DejaVuSans-Bold-72" transform="translate(1552.783203 0)"/>
    <use xlink:href="#DejaVuSans-Bold-72" transform="translate(1602.099609 0)"/>
    <use xlink:href="#DejaVuSans-Bold-69" transform="translate(1651.416016 0)"/>
    <use xlink:href="#DejaVuSans-Bold-64" transform="translate(1685.693359 0)"/>
    <use xlink:href="#DejaVuSans-Bold-65" transform="translate(1757.275391 0)"/>
    <use xlink:href="#DejaVuSans-Bold-20" transform="translate(1825.097656 0)"/>
    <use xlink:href="#DejaVuSans-Bold-46" transform="translate(1859.912109 0)"/>
    <use xlink:href="#DejaVuSans-Bold-61" transform="translate(1922.347656 0)"/>
    <use xlink:href="#DejaVuSans-Bold-6d" transform="translate(1989.828125 0)"/>
    <use xlink:href="#DejaVuSans-Bold-69" transform="translate(2094.027344 0)"/>
    <use xlink:href="#DejaVuSans-Bold-6c" transform="translate(2128.304688 0)"/>
    <use xlink:href="#DejaVuSans-Bold-69" transform="translate(2162.582031 0)"/>
    <use xlink:href="#DejaVuSans-Bold-61" transform="translate(2196.859375 0)"/>
    <use xlink:href="#DejaVuSans-Bold-72" transform="translate(2264.339844 0)"/>
    <use xlink:href="#DejaVuSans-Bold-20" transform="translate(2313.65625 0)"/>
    <use xlink:href="#DejaVuSans-Bold-4c" transform="translate(2348.470703 0)"/>
    <use xlink:href="#DejaVuSans-Bold-65" transform="translate(2412.191406 0)"/>
    <use xlink:href="#DejaVuSans-Bold-74" transform="translate(2480.013672 0)"/>
    <use xlink:href="#DejaVuSans-Bold-74" transform="translate(2527.816406 0)"/>
    <use xlink:href="#DejaVuSans-Bold-65" transform="translate(2575.619141 0)"/>
    <use xlink:href="#DejaVuSans-Bold-72" transform="translate(2643.441406 0)"/>
    <use xlink:href="#DejaVuSans-Bold-20" transform="translate(2692.757812 0)"/>
    <use xlink:href="#DejaVuSans-Bold-49" transform="translate(2727.572266 0)"/>
    <use xlink:href="#DejaVuSans-Bold-64" transform="translate(2764.779297 0)"/>
    <use xlink:href="#DejaVuSans-Bold-65" transform="translate(2836.361328 0)"/>
    <use xlink:href="#DejaVuSans-Bold-6e" transform="translate(2904.183594 0)"/>
    <use xlink:href="#DejaVuSans-Bold-74" transform="translate(2975.375 0)"/>
    <use xlink:href="#DejaVuSans-Bold-69" transform="translate(3023.177734 0)"/>
    <use xlink:href="#DejaVuSans-Bold-74" transform="translate(3057.455078 0)"/>
    <use xlink:href="#DejaVuSans-Bold-79" transform="translate(3105.257812 0)"/>
   </g>
  </g>
  <g id="text_6">
   <!-- Original explanatory redrawing inspired by Wertheimer’s good-continuation demonstrations; not copied from a modern textbook figure. -->
   <g style="fill: #0b1f40" transform="translate(10.685 574.2) scale(0.14 -0.14)">
    <defs>
     <path id="DejaVuSans-4f" d="M 2522 4238 
Q 1834 4238 1429 3725 
Q 1025 3213 1025 2328 
Q 1025 1447 1429 934 
Q 1834 422 2522 422 
Q 3209 422 3611 934 
Q 4013 1447 4013 2328 
Q 4013 3213 3611 3725 
Q 3209 4238 2522 4238 
z
M 2522 4750 
Q 3503 4750 4090 4092 
Q 4678 3434 4678 2328 
Q 4678 1225 4090 567 
Q 3503 -91 2522 -91 
Q 1538 -91 948 565 
Q 359 1222 359 2328 
Q 359 3434 948 4092 
Q 1538 4750 2522 4750 
z
" transform="scale(0.015625)"/>
     <path id="DejaVuSans-67" d="M 2906 1791 
Q 2906 2416 2648 2759 
Q 2391 3103 1925 3103 
Q 1463 3103 1205 2759 
Q 947 2416 947 1791 
Q 947 1169 1205 825 
Q 1463 481 1925 481 
Q 2391 481 2648 825 
Q 2906 1169 2906 1791 
z
M 3481 434 
Q 3481 -459 3084 -895 
Q 2688 -1331 1869 -1331 
Q 1566 -1331 1297 -1286 
Q 1028 -1241 775 -1147 
L 775 -588 
Q 1028 -725 1275 -790 
Q 1522 -856 1778 -856 
Q 2344 -856 2625 -561 
Q 2906 -266 2906 331 
L 2906 616 
Q 2728 306 2450 153 
Q 2172 0 1784 0 
Q 1141 0 747 490 
Q 353 981 353 1791 
Q 353 2603 747 3093 
Q 1141 3584 1784 3584 
Q 2172 3584 2450 3431 
Q 2728 3278 2906 2969 
L 2906 3500 
L 3481 3500 
L 3481 434 
z
" transform="scale(0.015625)"/>
     <path id="DejaVuSans-78" d="M 3513 3500 
L 2247 1797 
L 3578 0 
L 2900 0 
L 1881 1375 
L 863 0 
L 184 0 
L 1544 1831 
L 300 3500 
L 978 3500 
L 1906 2253 
L 2834 3500 
L 3513 3500 
z
" transform="scale(0.015625)"/>
     <path id="DejaVuSans-77" d="M 269 3500 
L 844 3500 
L 1563 769 
L 2278 3500 
L 2956 3500 
L 3675 769 
L 4391 3500 
L 4966 3500 
L 4050 0 
L 3372 0 
L 2619 2869 
L 1863 0 
L 1184 0 
L 269 3500 
z
" transform="scale(0.015625)"/>
     <path id="DejaVuSans-62" d="M 3116 1747 
Q 3116 2381 2855 2742 
Q 2594 3103 2138 3103 
Q 1681 3103 1420 2742 
Q 1159 2381 1159 1747 
Q 1159 1113 1420 752 
Q 1681 391 2138 391 
Q 2594 391 2855 752 
Q 3116 1113 3116 1747 
z
M 1159 2969 
Q 1341 3281 1617 3432 
Q 1894 3584 2278 3584 
Q 2916 3584 3314 3078 
Q 3713 2572 3713 1747 
Q 3713 922 3314 415 
Q 2916 -91 2278 -91 
Q 1894 -91 1617 61 
Q 1341 213 1159 525 
L 1159 0 
L 581 0 
L 581 4863 
L 1159 4863 
L 1159 2969 
z
" transform="scale(0.015625)"/>
     <path id="DejaVuSans-2019" d="M 813 4666 
L 1472 4666 
L 1472 4191 
L 959 3194 
L 556 3194 
L 813 4191 
L 813 4666 
z
" transform="scale(0.015625)"/>
     <path id="DejaVuSans-63" d="M 3122 3366 
L 3122 2828 
Q 2878 2963 2633 3030 
Q 2388 3097 2138 3097 
Q 1578 3097 1268 2742 
Q 959 2388 959 1747 
Q 959 1106 1268 751 
Q 1578 397 2138 397 
Q 2388 397 2633 464 
Q 2878 531 3122 666 
L 3122 134 
Q 2881 22 2623 -34 
Q 2366 -91 2075 -91 
Q 1284 -91 818 406 
Q 353 903 353 1747 
Q 353 2603 823 3093 
Q 1294 3584 2113 3584 
Q 2378 3584 2631 3529 
Q 2884 3475 3122 3366 
z
" transform="scale(0.015625)"/>
     <path id="DejaVuSans-75" d="M 544 1381 
L 544 3500 
L 1119 3500 
L 1119 1403 
Q 1119 906 1312 657 
Q 1506 409 1894 409 
Q 2359 409 2629 706 
Q 2900 1003 2900 1516 
L 2900 3500 
L 3475 3500 
L 3475 0 
L 2900 0 
L 2900 538 
Q 2691 219 2414 64 
Q 2138 -91 1772 -91 
Q 1169 -91 856 284 
Q 544 659 544 1381 
z
M 1991 3584 
L 1991 3584 
z
" transform="scale(0.015625)"/>
     <path id="DejaVuSans-3b" d="M 750 3309 
L 1409 3309 
L 1409 2516 
L 750 2516 
L 750 3309 
z
M 750 794 
L 1409 794 
L 1409 256 
L 897 -744 
L 494 -744 
L 750 256 
L 750 794 
z
" transform="scale(0.015625)"/>
     <path id="DejaVuSans-66" d="M 2375 4863 
L 2375 4384 
L 1825 4384 
Q 1516 4384 1395 4259 
Q 1275 4134 1275 3809 
L 1275 3500 
L 2222 3500 
L 2222 3053 
L 1275 3053 
L 1275 0 
L 697 0 
L 697 3053 
L 147 3053 
L 147 3500 
L 697 3500 
L 697 3744 
Q 697 4328 969 4595 
Q 1241 4863 1831 4863 
L 2375 4863 
z
" transform="scale(0.015625)"/>
     <path id="DejaVuSans-2e" d="M 684 794 
L 1344 794 
L 1344 0 
L 684 0 
L 684 794 
z
" transform="scale(0.015625)"/>
    </defs>
    <use xlink:href="#DejaVuSans-4f"/>
    <use xlink:href="#DejaVuSans-72" transform="translate(78.710938 0)"/>
    <use xlink:href="#DejaVuSans-69" transform="translate(119.824219 0)"/>
    <use xlink:href="#DejaVuSans-67" transform="translate(147.607422 0)"/>
    <use xlink:href="#DejaVuSans-69" transform="translate(211.083984 0)"/>
    <use xlink:href="#DejaVuSans-6e" transform="translate(238.867188 0)"/>
    <use xlink:href="#DejaVuSans-61" transform="translate(302.246094 0)"/>
    <use xlink:href="#DejaVuSans-6c" transform="translate(363.525391 0)"/>
    <use xlink:href="#DejaVuSans-20" transform="translate(391.308594 0)"/>
    <use xlink:href="#DejaVuSans-65" transform="translate(423.095703 0)"/>
    <use xlink:href="#DejaVuSans-78" transform="translate(482.869141 0)"/>
    <use xlink:href="#DejaVuSans-70" transform="translate(542.048828 0)"/>
    <use xlink:href="#DejaVuSans-6c" transform="translate(605.525391 0)"/>
    <use xlink:href="#DejaVuSans-61" transform="translate(633.308594 0)"/>
    <use xlink:href="#DejaVuSans-6e" transform="translate(694.587891 0)"/>
    <use xlink:href="#DejaVuSans-61" transform="translate(757.966797 0)"/>
    <use xlink:href="#DejaVuSans-74" transform="translate(819.246094 0)"/>
    <use xlink:href="#DejaVuSans-6f" transform="translate(858.455078 0)"/>
    <use xlink:href="#DejaVuSans-72" transform="translate(919.636719 0)"/>
    <use xlink:href="#DejaVuSans-79" transform="translate(960.75 0)"/>
    <use xlink:href="#DejaVuSans-20" transform="translate(1019.929688 0)"/>
    <use xlink:href="#DejaVuSans-72" transform="translate(1051.716797 0)"/>
    <use xlink:href="#DejaVuSans-65" transform="translate(1090.580078 0)"/>
    <use xlink:href="#DejaVuSans-64" transform="translate(1152.103516 0)"/>
    <use xlink:href="#DejaVuSans-72" transform="translate(1215.580078 0)"/>
    <use xlink:href="#DejaVuSans-61" transform="translate(1256.693359 0)"/>
    <use xlink:href="#DejaVuSans-77" transform="translate(1317.972656 0)"/>
    <use xlink:href="#DejaVuSans-69" transform="translate(1399.759766 0)"/>
    <use xlink:href="#DejaVuSans-6e" transform="translate(1427.542969 0)"/>
    <use xlink:href="#DejaVuSans-67" transform="translate(1490.921875 0)"/>
    <use xlink:href="#DejaVuSans-20" transform="translate(1554.398438 0)"/>
    <use xlink:href="#DejaVuSans-69" transform="translate(1586.185547 0)"/>
    <use xlink:href="#DejaVuSans-6e" transform="translate(1613.96875 0)"/>
    <use xlink:href="#DejaVuSans-73" transform="translate(1677.347656 0)"/>
    <use xlink:href="#DejaVuSans-70" transform="translate(1729.447266 0)"/>
    <use xlink:href="#DejaVuSans-69" transform="translate(1792.923828 0)"/>
    <use xlink:href="#DejaVuSans-72" transform="translate(1820.707031 0)"/>
    <use xlink:href="#DejaVuSans-65" transform="translate(1859.570312 0)"/>
    <use xlink:href="#DejaVuSans-64" transform="translate(1921.09375 0)"/>
    <use xlink:href="#DejaVuSans-20" transform="translate(1984.570312 0)"/>
    <use xlink:href="#DejaVuSans-62" transform="translate(2016.357422 0)"/>
    <use xlink:href="#DejaVuSans-79" transform="translate(2079.833984 0)"/>
    <use xlink:href="#DejaVuSans-20" transform="translate(2139.013672 0)"/>
    <use xlink:href="#DejaVuSans-57" transform="translate(2170.800781 0)"/>
    <use xlink:href="#DejaVuSans-65" transform="translate(2263.802734 0)"/>
    <use xlink:href="#DejaVuSans-72" transform="translate(2325.326172 0)"/>
    <use xlink:href="#DejaVuSans-74" transform="translate(2366.439453 0)"/>
    <use xlink:href="#DejaVuSans-68" transform="translate(2405.648438 0)"/>
    <use xlink:href="#DejaVuSans-65" transform="translate(2469.027344 0)"/>
    <use xlink:href="#DejaVuSans-69" transform="translate(2530.550781 0)"/>
    <use xlink:href="#DejaVuSans-6d" transform="translate(2558.333984 0)"/>
    <use xlink:href="#DejaVuSans-65" transform="translate(2655.746094 0)"/>
    <use xlink:href="#DejaVuSans-72" transform="translate(2717.269531 0)"/>
    <use xlink:href="#DejaVuSans-2019" transform="translate(2758.382812 0)"/>
    <use xlink:href="#DejaVuSans-73" transform="translate(2790.169922 0)"/>
    <use xlink:href="#DejaVuSans-20" transform="translate(2842.269531 0)"/>
    <use xlink:href="#DejaVuSans-67" transform="translate(2874.056641 0)"/>
    <use xlink:href="#DejaVuSans-6f" transform="translate(2937.533203 0)"/>
    <use xlink:href="#DejaVuSans-6f" transform="translate(2998.714844 0)"/>
    <use xlink:href="#DejaVuSans-64" transform="translate(3059.896484 0)"/>
    <use xlink:href="#DejaVuSans-2d" transform="translate(3123.373047 0)"/>
    <use xlink:href="#DejaVuSans-63" transform="translate(3159.457031 0)"/>
    <use xlink:href="#DejaVuSans-6f" transform="translate(3214.4375 0)"/>
    <use xlink:href="#DejaVuSans-6e" transform="translate(3275.619141 0)"/>
    <use xlink:href="#DejaVuSans-74" transform="translate(3338.998047 0)"/>
    <use xlink:href="#DejaVuSans-69" transform="translate(3378.207031 0)"/>
    <use xlink:href="#DejaVuSans-6e" transform="translate(3405.990234 0)"/>
    <use xlink:href="#DejaVuSans-75" transform="translate(3469.369141 0)"/>
    <use xlink:href="#DejaVuSans-61" transform="translate(3532.748047 0)"/>
    <use xlink:href="#DejaVuSans-74" transform="translate(3594.027344 0)"/>
    <use xlink:href="#DejaVuSans-69" transform="translate(3633.236328 0)"/>
    <use xlink:href="#DejaVuSans-6f" transform="translate(3661.019531 0)"/>
    <use xlink:href="#DejaVuSans-6e" transform="translate(3722.201172 0)"/>
    <use xlink:href="#DejaVuSans-20" transform="translate(3785.580078 0)"/>
    <use xlink:href="#DejaVuSans-64" transform="translate(3817.367188 0)"/>
    <use xlink:href="#DejaVuSans-65" transform="translate(3880.84375 0)"/>
    <use xlink:href="#DejaVuSans-6d" transform="translate(3942.367188 0)"/>
    <use xlink:href="#DejaVuSans-6f" transform="translate(4039.779297 0)"/>
    <use xlink:href="#DejaVuSans-6e" transform="translate(4100.960938 0)"/>
    <use xlink:href="#DejaVuSans-73" transform="translate(4164.339844 0)"/>
    <use xlink:href="#DejaVuSans-74" transform="translate(4216.439453 0)"/>
    <use xlink:href="#DejaVuSans-72" transform="translate(4255.648438 0)"/>
    <use xlink:href="#DejaVuSans-61" transform="translate(4296.761719 0)"/>
    <use xlink:href="#DejaVuSans-74" transform="translate(4358.041016 0)"/>
    <use xlink:href="#DejaVuSans-69" transform="translate(4397.25 0)"/>
    <use xlink:href="#DejaVuSans-6f" transform="translate(4425.033203 0)"/>
    <use xlink:href="#DejaVuSans-6e" transform="translate(4486.214844 0)"/>
    <use xlink:href="#DejaVuSans-73" transform="translate(4549.59375 0)"/>
    <use xlink:href="#DejaVuSans-3b" transform="translate(4601.693359 0)"/>
    <use xlink:href="#DejaVuSans-20" transform="translate(4635.384766 0)"/>
    <use xlink:href="#DejaVuSans-6e" transform="translate(4667.171875 0)"/>
    <use xlink:href="#DejaVuSans-6f" transform="translate(4730.550781 0)"/>
    <use xlink:href="#DejaVuSans-74" transform="translate(4791.732422 0)"/>
    <use xlink:href="#DejaVuSans-20" transform="translate(4830.941406 0)"/>
    <use xlink:href="#DejaVuSans-63" transform="translate(4862.728516 0)"/>
    <use xlink:href="#DejaVuSans-6f" transform="translate(4917.708984 0)"/>
    <use xlink:href="#DejaVuSans-70" transform="translate(4978.890625 0)"/>
    <use xlink:href="#DejaVuSans-69" transform="translate(5042.367188 0)"/>
    <use xlink:href="#DejaVuSans-65" transform="translate(5070.150391 0)"/>
    <use xlink:href="#DejaVuSans-64" transform="translate(5131.673828 0)"/>
    <use xlink:href="#DejaVuSans-20" transform="translate(5195.150391 0)"/>
    <use xlink:href="#DejaVuSans-66" transform="translate(5226.9375 0)"/>
    <use xlink:href="#DejaVuSans-72" transform="translate(5262.142578 0)"/>
    <use xlink:href="#DejaVuSans-6f" transform="translate(5301.005859 0)"/>
    <use xlink:href="#DejaVuSans-6d" transform="translate(5362.1875 0)"/>
    <use xlink:href="#DejaVuSans-20" transform="translate(5459.599609 0)"/>
    <use xlink:href="#DejaVuSans-61" transform="translate(5491.386719 0)"/>
    <use xlink:href="#DejaVuSans-20" transform="translate(5552.666016 0)"/>
    <use xlink:href="#DejaVuSans-6d" transform="translate(5584.453125 0)"/>
    <use xlink:href="#DejaVuSans-6f" transform="translate(5681.865234 0)"/>
    <use xlink:href="#DejaVuSans-64" transform="translate(5743.046875 0)"/>
    <use xlink:href="#DejaVuSans-65" transform="translate(5806.523438 0)"/>
    <use xlink:href="#DejaVuSans-72" transform="translate(5868.046875 0)"/>
    <use xlink:href="#DejaVuSans-6e" transform="translate(5907.410156 0)"/>
    <use xlink:href="#DejaVuSans-20" transform="translate(5970.789062 0)"/>
    <use xlink:href="#DejaVuSans-74" transform="translate(6002.576172 0)"/>
    <use xlink:href="#DejaVuSans-65" transform="translate(6041.785156 0)"/>
    <use xlink:href="#DejaVuSans-78" transform="translate(6101.558594 0)"/>
    <use xlink:href="#DejaVuSans-74" transform="translate(6160.738281 0)"/>
    <use xlink:href="#DejaVuSans-62" transform="translate(6199.947266 0)"/>
    <use xlink:href="#DejaVuSans-6f" transform="translate(6263.423828 0)"/>
    <use xlink:href="#DejaVuSans-6f" transform="translate(6324.605469 0)"/>
    <use xlink:href="#DejaVuSans-6b" transform="translate(6385.787109 0)"/>
    <use xlink:href="#DejaVuSans-20" transform="translate(6443.697266 0)"/>
    <use xlink:href="#DejaVuSans-66" transform="translate(6475.484375 0)"/>
    <use xlink:href="#DejaVuSans-69" transform="translate(6510.689453 0)"/>
    <use xlink:href="#DejaVuSans-67" transform="translate(6538.472656 0)"/>
    <use xlink:href="#DejaVuSans-75" transform="translate(6601.949219 0)"/>
    <use xlink:href="#DejaVuSans-72" transform="translate(6665.328125 0)"/>
    <use xlink:href="#DejaVuSans-65" transform="translate(6704.191406 0)"/>
    <use xlink:href="#DejaVuSans-2e" transform="translate(6765.714844 0)"/>
   </g>
  </g>
 </g>
 <defs>
  <clipPath id="pd8341067bf">
   <rect x="7.2" y="105.12" width="433.5" height="416.16"/>
  </clipPath>
  <clipPath id="p136fbc5128">
   <rect x="532.32" y="105.12" width="433.5" height="416.16"/>
  </clipPath>
 </defs>
</svg>
