<?xml version="1.0" encoding="utf-8" standalone="no"?>
<!DOCTYPE svg PUBLIC "-//W3C//DTD SVG 1.1//EN"
  "http://www.w3.org/Graphics/SVG/1.1/DTD/svg11.dtd">
<svg xmlns:xlink="http://www.w3.org/1999/xlink" width="794.631094pt" height="325.68pt" viewBox="0 0 794.631094 325.68" xmlns="http://www.w3.org/2000/svg" version="1.1">
 <metadata>
  <rdf:RDF xmlns:dc="http://purl.org/dc/elements/1.1/" xmlns:cc="http://creativecommons.org/ns#" xmlns:rdf="http://www.w3.org/1999/02/22-rdf-syntax-ns#">
   <cc:Work>
    <dc:type rdf:resource="http://purl.org/dc/dcmitype/StillImage"/>
    <dc:date>2026-06-23T13:26:37.013049</dc:date>
    <dc:format>image/svg+xml</dc:format>
    <dc:creator>
     <cc:Agent>
      <dc:title>Matplotlib v3.10.9, https://matplotlib.org/</dc:title>
     </cc:Agent>
    </dc:creator>
   </cc:Work>
  </rdf:RDF>
 </metadata>
 <defs>
  <style type="text/css">*{stroke-linejoin: round; stroke-linecap: butt}</style>
 </defs>
 <g id="figure_1">
  <g id="patch_1">
   <path d="M 0 325.68 
L 794.631094 325.68 
L 794.631094 0 
L 0 0 
z
" style="fill: #ffffff"/>
  </g>
  <g id="axes_1">
   <g id="patch_2">
    <path d="M 28.3185 229.0368 
L 144.47025 229.0368 
Q 150.10185 229.0368 150.10185 223.616 
L 150.10185 121.976 
Q 150.10185 116.5552 144.47025 116.5552 
L 28.3185 116.5552 
Q 22.6869 116.5552 22.6869 121.976 
L 22.6869 223.616 
Q 22.6869 229.0368 28.3185 229.0368 
z
" clip-path="url(#p1da222024e)" style="fill: #2c5f8a; stroke: #ffffff; stroke-width: 1.5; stroke-linejoin: miter"/>
   </g>
   <g id="patch_3">
    <path d="M 162.069 229.0368 
L 278.22075 229.0368 
Q 283.85235 229.0368 283.85235 223.616 
L 283.85235 121.976 
Q 283.85235 116.5552 278.22075 116.5552 
L 162.069 116.5552 
Q 156.4374 116.5552 156.4374 121.976 
L 156.4374 223.616 
Q 156.4374 229.0368 162.069 229.0368 
z
" clip-path="url(#p1da222024e)" style="fill: #2c5f8a; stroke: #ffffff; stroke-width: 1.5; stroke-linejoin: miter"/>
   </g>
   <g id="patch_4">
    <path d="M 295.8195 229.0368 
L 411.97125 229.0368 
Q 417.60285 229.0368 417.60285 223.616 
L 417.60285 121.976 
Q 417.60285 116.5552 411.97125 116.5552 
L 295.8195 116.5552 
Q 290.1879 116.5552 290.1879 121.976 
L 290.1879 223.616 
Q 290.1879 229.0368 295.8195 229.0368 
z
" clip-path="url(#p1da222024e)" style="fill: #2c5f8a; stroke: #ffffff; stroke-width: 1.5; stroke-linejoin: miter"/>
   </g>
   <g id="patch_5">
    <path d="M 429.57 229.0368 
L 545.72175 229.0368 
Q 551.35335 229.0368 551.35335 223.616 
L 551.35335 121.976 
Q 551.35335 116.5552 545.72175 116.5552 
L 429.57 116.5552 
Q 423.9384 116.5552 423.9384 121.976 
L 423.9384 223.616 
Q 423.9384 229.0368 429.57 229.0368 
z
" clip-path="url(#p1da222024e)" style="fill: #2c5f8a; stroke: #ffffff; stroke-width: 1.5; stroke-linejoin: miter"/>
   </g>
   <g id="patch_6">
    <path d="M 563.3205 229.0368 
L 679.47225 229.0368 
Q 685.10385 229.0368 685.10385 223.616 
L 685.10385 121.976 
Q 685.10385 116.5552 679.47225 116.5552 
L 563.3205 116.5552 
Q 557.6889 116.5552 557.6889 121.976 
L 557.6889 223.616 
Q 557.6889 229.0368 563.3205 229.0368 
z
" clip-path="url(#p1da222024e)" style="fill: #2c5f8a; stroke: #ffffff; stroke-width: 1.5; stroke-linejoin: miter"/>
   </g>
   <g id="patch_7">
    <path d="M 697.071 229.0368 
L 813.22275 229.0368 
Q 818.85435 229.0368 818.85435 223.616 
L 818.85435 121.976 
Q 818.85435 116.5552 813.22275 116.5552 
L 697.071 116.5552 
Q 691.4394 116.5552 691.4394 121.976 
L 691.4394 223.616 
Q 691.4394 229.0368 697.071 229.0368 
z
" clip-path="url(#p1da222024e)" style="fill: #1a7a4c; stroke: #ffffff; stroke-width: 1.5; stroke-linejoin: miter"/>
   </g>
   <g id="text_1">
    <!-- Physical -->
    <g style="fill: #ffffff" transform="translate(66.652461 157.135995) scale(0.085 -0.085)">
     <defs>
      <path id="DejaVuSans-Bold-50" d="M 588 4666 
L 2584 4666 
Q 3475 4666 3951 4270 
Q 4428 3875 4428 3144 
Q 4428 2409 3951 2014 
Q 3475 1619 2584 1619 
L 1791 1619 
L 1791 0 
L 588 0 
L 588 4666 
z
M 1791 3794 
L 1791 2491 
L 2456 2491 
Q 2806 2491 2997 2661 
Q 3188 2831 3188 3144 
Q 3188 3456 2997 3625 
Q 2806 3794 2456 3794 
L 1791 3794 
z
" transform="scale(0.015625)"/>
      <path id="DejaVuSans-Bold-68" d="M 4056 2131 
L 4056 0 
L 2931 0 
L 2931 347 
L 2931 1625 
Q 2931 2084 2911 2256 
Q 2891 2428 2841 2509 
Q 2775 2619 2662 2680 
Q 2550 2741 2406 2741 
Q 2056 2741 1856 2470 
Q 1656 2200 1656 1722 
L 1656 0 
L 538 0 
L 538 4863 
L 1656 4863 
L 1656 2988 
Q 1909 3294 2193 3439 
Q 2478 3584 2822 3584 
Q 3428 3584 3742 3212 
Q 4056 2841 4056 2131 
z
" transform="scale(0.015625)"/>
      <path id="DejaVuSans-Bold-79" d="M 78 3500 
L 1197 3500 
L 2138 1125 
L 2938 3500 
L 4056 3500 
L 2584 -331 
Q 2363 -916 2067 -1148 
Q 1772 -1381 1288 -1381 
L 641 -1381 
L 641 -647 
L 991 -647 
Q 1275 -647 1404 -556 
Q 1534 -466 1606 -231 
L 1638 -134 
L 78 3500 
z
" transform="scale(0.015625)"/>
      <path id="DejaVuSans-Bold-73" d="M 3272 3391 
L 3272 2541 
Q 2913 2691 2578 2766 
Q 2244 2841 1947 2841 
Q 1628 2841 1473 2761 
Q 1319 2681 1319 2516 
Q 1319 2381 1436 2309 
Q 1553 2238 1856 2203 
L 2053 2175 
Q 2913 2066 3209 1816 
Q 3506 1566 3506 1031 
Q 3506 472 3093 190 
Q 2681 -91 1863 -91 
Q 1516 -91 1145 -36 
Q 775 19 384 128 
L 384 978 
Q 719 816 1070 734 
Q 1422 653 1784 653 
Q 2113 653 2278 743 
Q 2444 834 2444 1013 
Q 2444 1163 2330 1236 
Q 2216 1309 1875 1350 
L 1678 1375 
Q 931 1469 631 1722 
Q 331 1975 331 2491 
Q 331 3047 712 3315 
Q 1094 3584 1881 3584 
Q 2191 3584 2531 3537 
Q 2872 3491 3272 3391 
z
" transform="scale(0.015625)"/>
      <path id="DejaVuSans-Bold-69" d="M 538 3500 
L 1656 3500 
L 1656 0 
L 538 0 
L 538 3500 
z
M 538 4863 
L 1656 4863 
L 1656 3950 
L 538 3950 
L 538 4863 
z
" transform="scale(0.015625)"/>
      <path id="DejaVuSans-Bold-63" d="M 3366 3391 
L 3366 2478 
Q 3138 2634 2908 2709 
Q 2678 2784 2431 2784 
Q 1963 2784 1702 2511 
Q 1441 2238 1441 1747 
Q 1441 1256 1702 982 
Q 1963 709 2431 709 
Q 2694 709 2930 787 
Q 3166 866 3366 1019 
L 3366 103 
Q 3103 6 2833 -42 
Q 2563 -91 2291 -91 
Q 1344 -91 809 395 
Q 275 881 275 1747 
Q 275 2613 809 3098 
Q 1344 3584 2291 3584 
Q 2566 3584 2833 3536 
Q 3100 3488 3366 3391 
z
" transform="scale(0.015625)"/>
      <path id="DejaVuSans-Bold-61" d="M 2106 1575 
Q 1756 1575 1579 1456 
Q 1403 1338 1403 1106 
Q 1403 894 1545 773 
Q 1688 653 1941 653 
Q 2256 653 2472 879 
Q 2688 1106 2688 1447 
L 2688 1575 
L 2106 1575 
z
M 3816 1997 
L 3816 0 
L 2688 0 
L 2688 519 
Q 2463 200 2181 54 
Q 1900 -91 1497 -91 
Q 953 -91 614 226 
Q 275 544 275 1050 
Q 275 1666 698 1953 
Q 1122 2241 2028 2241 
L 2688 2241 
L 2688 2328 
Q 2688 2594 2478 2717 
Q 2269 2841 1825 2841 
Q 1466 2841 1156 2769 
Q 847 2697 581 2553 
L 581 3406 
Q 941 3494 1303 3539 
Q 1666 3584 2028 3584 
Q 2975 3584 3395 3211 
Q 3816 2838 3816 1997 
z
" transform="scale(0.015625)"/>
      <path id="DejaVuSans-Bold-6c" d="M 538 4863 
L 1656 4863 
L 1656 0 
L 538 0 
L 538 4863 
z
" transform="scale(0.015625)"/>
     </defs>
     <use xlink:href="#DejaVuSans-Bold-50"/>
     <use xlink:href="#DejaVuSans-Bold-68" transform="translate(73.291016 0)"/>
     <use xlink:href="#DejaVuSans-Bold-79" transform="translate(144.482422 0)"/>
     <use xlink:href="#DejaVuSans-Bold-73" transform="translate(209.667969 0)"/>
     <use xlink:href="#DejaVuSans-Bold-69" transform="translate(269.189453 0)"/>
     <use xlink:href="#DejaVuSans-Bold-63" transform="translate(303.466797 0)"/>
     <use xlink:href="#DejaVuSans-Bold-61" transform="translate(362.744141 0)"/>
     <use xlink:href="#DejaVuSans-Bold-6c" transform="translate(430.224609 0)"/>
    </g>
    <!-- Stimulus -->
    <g style="fill: #ffffff" transform="translate(65.379453 166.720542) scale(0.085 -0.085)">
     <defs>
      <path id="DejaVuSans-Bold-53" d="M 3834 4519 
L 3834 3531 
Q 3450 3703 3084 3790 
Q 2719 3878 2394 3878 
Q 1963 3878 1756 3759 
Q 1550 3641 1550 3391 
Q 1550 3203 1689 3098 
Q 1828 2994 2194 2919 
L 2706 2816 
Q 3484 2659 3812 2340 
Q 4141 2022 4141 1434 
Q 4141 663 3683 286 
Q 3225 -91 2284 -91 
Q 1841 -91 1394 -6 
Q 947 78 500 244 
L 500 1259 
Q 947 1022 1364 901 
Q 1781 781 2169 781 
Q 2563 781 2772 912 
Q 2981 1044 2981 1288 
Q 2981 1506 2839 1625 
Q 2697 1744 2272 1838 
L 1806 1941 
Q 1106 2091 782 2419 
Q 459 2747 459 3303 
Q 459 4000 909 4375 
Q 1359 4750 2203 4750 
Q 2588 4750 2994 4692 
Q 3400 4634 3834 4519 
z
" transform="scale(0.015625)"/>
      <path id="DejaVuSans-Bold-74" d="M 1759 4494 
L 1759 3500 
L 2913 3500 
L 2913 2700 
L 1759 2700 
L 1759 1216 
Q 1759 972 1856 886 
Q 1953 800 2241 800 
L 2816 800 
L 2816 0 
L 1856 0 
Q 1194 0 917 276 
Q 641 553 641 1216 
L 641 2700 
L 84 2700 
L 84 3500 
L 641 3500 
L 641 4494 
L 1759 4494 
z
" transform="scale(0.015625)"/>
      <path id="DejaVuSans-Bold-6d" d="M 3781 2919 
Q 3994 3244 4286 3414 
Q 4578 3584 4928 3584 
Q 5531 3584 5847 3212 
Q 6163 2841 6163 2131 
L 6163 0 
L 5038 0 
L 5038 1825 
Q 5041 1866 5042 1909 
Q 5044 1953 5044 2034 
Q 5044 2406 4934 2573 
Q 4825 2741 4581 2741 
Q 4263 2741 4089 2478 
Q 3916 2216 3909 1719 
L 3909 0 
L 2784 0 
L 2784 1825 
Q 2784 2406 2684 2573 
Q 2584 2741 2328 2741 
Q 2006 2741 1831 2477 
Q 1656 2213 1656 1722 
L 1656 0 
L 531 0 
L 531 3500 
L 1656 3500 
L 1656 2988 
Q 1863 3284 2130 3434 
Q 2397 3584 2719 3584 
Q 3081 3584 3359 3409 
Q 3638 3234 3781 2919 
z
" transform="scale(0.015625)"/>
      <path id="DejaVuSans-Bold-75" d="M 500 1363 
L 500 3500 
L 1625 3500 
L 1625 3150 
Q 1625 2866 1622 2436 
Q 1619 2006 1619 1863 
Q 1619 1441 1641 1255 
Q 1663 1069 1716 984 
Q 1784 875 1895 815 
Q 2006 756 2150 756 
Q 2500 756 2700 1025 
Q 2900 1294 2900 1772 
L 2900 3500 
L 4019 3500 
L 4019 0 
L 2900 0 
L 2900 506 
Q 2647 200 2364 54 
Q 2081 -91 1741 -91 
Q 1134 -91 817 281 
Q 500 653 500 1363 
z
" transform="scale(0.015625)"/>
     </defs>
     <use xlink:href="#DejaVuSans-Bold-53"/>
     <use xlink:href="#DejaVuSans-Bold-74" transform="translate(72.021484 0)"/>
     <use xlink:href="#DejaVuSans-Bold-69" transform="translate(119.824219 0)"/>
     <use xlink:href="#DejaVuSans-Bold-6d" transform="translate(154.101562 0)"/>
     <use xlink:href="#DejaVuSans-Bold-75" transform="translate(258.300781 0)"/>
     <use xlink:href="#DejaVuSans-Bold-6c" transform="translate(329.492188 0)"/>
     <use xlink:href="#DejaVuSans-Bold-75" transform="translate(363.769531 0)"/>
     <use xlink:href="#DejaVuSans-Bold-73" transform="translate(434.960938 0)"/>
    </g>
   </g>
   <g id="text_2">
    <!-- Light, sound, -->
    <g style="fill: #d0e8ff" transform="translate(63.699609 199.267528) scale(0.07 -0.07)">
     <defs>
      <path id="DejaVuSans-4c" d="M 628 4666 
L 1259 4666 
L 1259 531 
L 3531 531 
L 3531 0 
L 628 0 
L 628 4666 
z
" transform="scale(0.015625)"/>
      <path id="DejaVuSans-69" d="M 603 3500 
L 1178 3500 
L 1178 0 
L 603 0 
L 603 3500 
z
M 603 4863 
L 1178 4863 
L 1178 4134 
L 603 4134 
L 603 4863 
z
" transform="scale(0.015625)"/>
      <path id="DejaVuSans-67" d="M 2906 1791 
Q 2906 2416 2648 2759 
Q 2391 3103 1925 3103 
Q 1463 3103 1205 2759 
Q 947 2416 947 1791 
Q 947 1169 1205 825 
Q 1463 481 1925 481 
Q 2391 481 2648 825 
Q 2906 1169 2906 1791 
z
M 3481 434 
Q 3481 -459 3084 -895 
Q 2688 -1331 1869 -1331 
Q 1566 -1331 1297 -1286 
Q 1028 -1241 775 -1147 
L 775 -588 
Q 1028 -725 1275 -790 
Q 1522 -856 1778 -856 
Q 2344 -856 2625 -561 
Q 2906 -266 2906 331 
L 2906 616 
Q 2728 306 2450 153 
Q 2172 0 1784 0 
Q 1141 0 747 490 
Q 353 981 353 1791 
Q 353 2603 747 3093 
Q 1141 3584 1784 3584 
Q 2172 3584 2450 3431 
Q 2728 3278 2906 2969 
L 2906 3500 
L 3481 3500 
L 3481 434 
z
" transform="scale(0.015625)"/>
      <path id="DejaVuSans-68" d="M 3513 2113 
L 3513 0 
L 2938 0 
L 2938 2094 
Q 2938 2591 2744 2837 
Q 2550 3084 2163 3084 
Q 1697 3084 1428 2787 
Q 1159 2491 1159 1978 
L 1159 0 
L 581 0 
L 581 4863 
L 1159 4863 
L 1159 2956 
Q 1366 3272 1645 3428 
Q 1925 3584 2291 3584 
Q 2894 3584 3203 3211 
Q 3513 2838 3513 2113 
z
" transform="scale(0.015625)"/>
      <path id="DejaVuSans-74" d="M 1172 4494 
L 1172 3500 
L 2356 3500 
L 2356 3053 
L 1172 3053 
L 1172 1153 
Q 1172 725 1289 603 
Q 1406 481 1766 481 
L 2356 481 
L 2356 0 
L 1766 0 
Q 1100 0 847 248 
Q 594 497 594 1153 
L 594 3053 
L 172 3053 
L 172 3500 
L 594 3500 
L 594 4494 
L 1172 4494 
z
" transform="scale(0.015625)"/>
      <path id="DejaVuSans-2c" d="M 750 794 
L 1409 794 
L 1409 256 
L 897 -744 
L 494 -744 
L 750 256 
L 750 794 
z
" transform="scale(0.015625)"/>
      <path id="DejaVuSans-20" transform="scale(0.015625)"/>
      <path id="DejaVuSans-73" d="M 2834 3397 
L 2834 2853 
Q 2591 2978 2328 3040 
Q 2066 3103 1784 3103 
Q 1356 3103 1142 2972 
Q 928 2841 928 2578 
Q 928 2378 1081 2264 
Q 1234 2150 1697 2047 
L 1894 2003 
Q 2506 1872 2764 1633 
Q 3022 1394 3022 966 
Q 3022 478 2636 193 
Q 2250 -91 1575 -91 
Q 1294 -91 989 -36 
Q 684 19 347 128 
L 347 722 
Q 666 556 975 473 
Q 1284 391 1588 391 
Q 1994 391 2212 530 
Q 2431 669 2431 922 
Q 2431 1156 2273 1281 
Q 2116 1406 1581 1522 
L 1381 1569 
Q 847 1681 609 1914 
Q 372 2147 372 2553 
Q 372 3047 722 3315 
Q 1072 3584 1716 3584 
Q 2034 3584 2315 3537 
Q 2597 3491 2834 3397 
z
" transform="scale(0.015625)"/>
      <path id="DejaVuSans-6f" d="M 1959 3097 
Q 1497 3097 1228 2736 
Q 959 2375 959 1747 
Q 959 1119 1226 758 
Q 1494 397 1959 397 
Q 2419 397 2687 759 
Q 2956 1122 2956 1747 
Q 2956 2369 2687 2733 
Q 2419 3097 1959 3097 
z
M 1959 3584 
Q 2709 3584 3137 3096 
Q 3566 2609 3566 1747 
Q 3566 888 3137 398 
Q 2709 -91 1959 -91 
Q 1206 -91 779 398 
Q 353 888 353 1747 
Q 353 2609 779 3096 
Q 1206 3584 1959 3584 
z
" transform="scale(0.015625)"/>
      <path id="DejaVuSans-75" d="M 544 1381 
L 544 3500 
L 1119 3500 
L 1119 1403 
Q 1119 906 1312 657 
Q 1506 409 1894 409 
Q 2359 409 2629 706 
Q 2900 1003 2900 1516 
L 2900 3500 
L 3475 3500 
L 3475 0 
L 2900 0 
L 2900 538 
Q 2691 219 2414 64 
Q 2138 -91 1772 -91 
Q 1169 -91 856 284 
Q 544 659 544 1381 
z
M 1991 3584 
L 1991 3584 
z
" transform="scale(0.015625)"/>
      <path id="DejaVuSans-6e" d="M 3513 2113 
L 3513 0 
L 2938 0 
L 2938 2094 
Q 2938 2591 2744 2837 
Q 2550 3084 2163 3084 
Q 1697 3084 1428 2787 
Q 1159 2491 1159 1978 
L 1159 0 
L 581 0 
L 581 3500 
L 1159 3500 
L 1159 2956 
Q 1366 3272 1645 3428 
Q 1925 3584 2291 3584 
Q 2894 3584 3203 3211 
Q 3513 2838 3513 2113 
z
" transform="scale(0.015625)"/>
      <path id="DejaVuSans-64" d="M 2906 2969 
L 2906 4863 
L 3481 4863 
L 3481 0 
L 2906 0 
L 2906 525 
Q 2725 213 2448 61 
Q 2172 -91 1784 -91 
Q 1150 -91 751 415 
Q 353 922 353 1747 
Q 353 2572 751 3078 
Q 1150 3584 1784 3584 
Q 2172 3584 2448 3432 
Q 2725 3281 2906 2969 
z
M 947 1747 
Q 947 1113 1208 752 
Q 1469 391 1925 391 
Q 2381 391 2643 752 
Q 2906 1113 2906 1747 
Q 2906 2381 2643 2742 
Q 2381 3103 1925 3103 
Q 1469 3103 1208 2742 
Q 947 2381 947 1747 
z
" transform="scale(0.015625)"/>
     </defs>
     <use xlink:href="#DejaVuSans-4c"/>
     <use xlink:href="#DejaVuSans-69" transform="translate(55.712891 0)"/>
     <use xlink:href="#DejaVuSans-67" transform="translate(83.496094 0)"/>
     <use xlink:href="#DejaVuSans-68" transform="translate(146.972656 0)"/>
     <use xlink:href="#DejaVuSans-74" transform="translate(210.351562 0)"/>
     <use xlink:href="#DejaVuSans-2c" transform="translate(249.560547 0)"/>
     <use xlink:href="#DejaVuSans-20" transform="translate(281.347656 0)"/>
     <use xlink:href="#DejaVuSans-73" transform="translate(313.134766 0)"/>
     <use xlink:href="#DejaVuSans-6f" transform="translate(365.234375 0)"/>
     <use xlink:href="#DejaVuSans-75" transform="translate(426.416016 0)"/>
     <use xlink:href="#DejaVuSans-6e" transform="translate(489.794922 0)"/>
     <use xlink:href="#DejaVuSans-64" transform="translate(553.173828 0)"/>
     <use xlink:href="#DejaVuSans-2c" transform="translate(616.650391 0)"/>
    </g>
    <!-- pressure, chemicals -->
    <g style="fill: #d0e8ff" transform="translate(51.513047 207.105997) scale(0.07 -0.07)">
     <defs>
      <path id="DejaVuSans-70" d="M 1159 525 
L 1159 -1331 
L 581 -1331 
L 581 3500 
L 1159 3500 
L 1159 2969 
Q 1341 3281 1617 3432 
Q 1894 3584 2278 3584 
Q 2916 3584 3314 3078 
Q 3713 2572 3713 1747 
Q 3713 922 3314 415 
Q 2916 -91 2278 -91 
Q 1894 -91 1617 61 
Q 1341 213 1159 525 
z
M 3116 1747 
Q 3116 2381 2855 2742 
Q 2594 3103 2138 3103 
Q 1681 3103 1420 2742 
Q 1159 2381 1159 1747 
Q 1159 1113 1420 752 
Q 1681 391 2138 391 
Q 2594 391 2855 752 
Q 3116 1113 3116 1747 
z
" transform="scale(0.015625)"/>
      <path id="DejaVuSans-72" d="M 2631 2963 
Q 2534 3019 2420 3045 
Q 2306 3072 2169 3072 
Q 1681 3072 1420 2755 
Q 1159 2438 1159 1844 
L 1159 0 
L 581 0 
L 581 3500 
L 1159 3500 
L 1159 2956 
Q 1341 3275 1631 3429 
Q 1922 3584 2338 3584 
Q 2397 3584 2469 3576 
Q 2541 3569 2628 3553 
L 2631 2963 
z
" transform="scale(0.015625)"/>
      <path id="DejaVuSans-65" d="M 3597 1894 
L 3597 1613 
L 953 1613 
Q 991 1019 1311 708 
Q 1631 397 2203 397 
Q 2534 397 2845 478 
Q 3156 559 3463 722 
L 3463 178 
Q 3153 47 2828 -22 
Q 2503 -91 2169 -91 
Q 1331 -91 842 396 
Q 353 884 353 1716 
Q 353 2575 817 3079 
Q 1281 3584 2069 3584 
Q 2775 3584 3186 3129 
Q 3597 2675 3597 1894 
z
M 3022 2063 
Q 3016 2534 2758 2815 
Q 2500 3097 2075 3097 
Q 1594 3097 1305 2825 
Q 1016 2553 972 2059 
L 3022 2063 
z
" transform="scale(0.015625)"/>
      <path id="DejaVuSans-63" d="M 3122 3366 
L 3122 2828 
Q 2878 2963 2633 3030 
Q 2388 3097 2138 3097 
Q 1578 3097 1268 2742 
Q 959 2388 959 1747 
Q 959 1106 1268 751 
Q 1578 397 2138 397 
Q 2388 397 2633 464 
Q 2878 531 3122 666 
L 3122 134 
Q 2881 22 2623 -34 
Q 2366 -91 2075 -91 
Q 1284 -91 818 406 
Q 353 903 353 1747 
Q 353 2603 823 3093 
Q 1294 3584 2113 3584 
Q 2378 3584 2631 3529 
Q 2884 3475 3122 3366 
z
" transform="scale(0.015625)"/>
      <path id="DejaVuSans-6d" d="M 3328 2828 
Q 3544 3216 3844 3400 
Q 4144 3584 4550 3584 
Q 5097 3584 5394 3201 
Q 5691 2819 5691 2113 
L 5691 0 
L 5113 0 
L 5113 2094 
Q 5113 2597 4934 2840 
Q 4756 3084 4391 3084 
Q 3944 3084 3684 2787 
Q 3425 2491 3425 1978 
L 3425 0 
L 2847 0 
L 2847 2094 
Q 2847 2600 2669 2842 
Q 2491 3084 2119 3084 
Q 1678 3084 1418 2786 
Q 1159 2488 1159 1978 
L 1159 0 
L 581 0 
L 581 3500 
L 1159 3500 
L 1159 2956 
Q 1356 3278 1631 3431 
Q 1906 3584 2284 3584 
Q 2666 3584 2933 3390 
Q 3200 3197 3328 2828 
z
" transform="scale(0.015625)"/>
      <path id="DejaVuSans-61" d="M 2194 1759 
Q 1497 1759 1228 1600 
Q 959 1441 959 1056 
Q 959 750 1161 570 
Q 1363 391 1709 391 
Q 2188 391 2477 730 
Q 2766 1069 2766 1631 
L 2766 1759 
L 2194 1759 
z
M 3341 1997 
L 3341 0 
L 2766 0 
L 2766 531 
Q 2569 213 2275 61 
Q 1981 -91 1556 -91 
Q 1019 -91 701 211 
Q 384 513 384 1019 
Q 384 1609 779 1909 
Q 1175 2209 1959 2209 
L 2766 2209 
L 2766 2266 
Q 2766 2663 2505 2880 
Q 2244 3097 1772 3097 
Q 1472 3097 1187 3025 
Q 903 2953 641 2809 
L 641 3341 
Q 956 3463 1253 3523 
Q 1550 3584 1831 3584 
Q 2591 3584 2966 3190 
Q 3341 2797 3341 1997 
z
" transform="scale(0.015625)"/>
      <path id="DejaVuSans-6c" d="M 603 4863 
L 1178 4863 
L 1178 0 
L 603 0 
L 603 4863 
z
" transform="scale(0.015625)"/>
     </defs>
     <use xlink:href="#DejaVuSans-70"/>
     <use xlink:href="#DejaVuSans-72" transform="translate(63.476562 0)"/>
     <use xlink:href="#DejaVuSans-65" transform="translate(102.339844 0)"/>
     <use xlink:href="#DejaVuSans-73" transform="translate(163.863281 0)"/>
     <use xlink:href="#DejaVuSans-73" transform="translate(215.962891 0)"/>
     <use xlink:href="#DejaVuSans-75" transform="translate(268.0625 0)"/>
     <use xlink:href="#DejaVuSans-72" transform="translate(331.441406 0)"/>
     <use xlink:href="#DejaVuSans-65" transform="translate(370.304688 0)"/>
     <use xlink:href="#DejaVuSans-2c" transform="translate(431.828125 0)"/>
     <use xlink:href="#DejaVuSans-20" transform="translate(463.615234 0)"/>
     <use xlink:href="#DejaVuSans-63" transform="translate(495.402344 0)"/>
     <use xlink:href="#DejaVuSans-68" transform="translate(550.382812 0)"/>
     <use xlink:href="#DejaVuSans-65" transform="translate(613.761719 0)"/>
     <use xlink:href="#DejaVuSans-6d" transform="translate(675.285156 0)"/>
     <use xlink:href="#DejaVuSans-69" transform="translate(772.697266 0)"/>
     <use xlink:href="#DejaVuSans-63" transform="translate(800.480469 0)"/>
     <use xlink:href="#DejaVuSans-61" transform="translate(855.460938 0)"/>
     <use xlink:href="#DejaVuSans-6c" transform="translate(916.740234 0)"/>
     <use xlink:href="#DejaVuSans-73" transform="translate(944.523438 0)"/>
    </g>
   </g>
   <g id="text_3">
    <!-- Sense Organ -->
    <g style="fill: #ffffff" transform="translate(189.639836 157.102792) scale(0.085 -0.085)">
     <defs>
      <path id="DejaVuSans-Bold-65" d="M 4031 1759 
L 4031 1441 
L 1416 1441 
Q 1456 1047 1700 850 
Q 1944 653 2381 653 
Q 2734 653 3104 758 
Q 3475 863 3866 1075 
L 3866 213 
Q 3469 63 3072 -14 
Q 2675 -91 2278 -91 
Q 1328 -91 801 392 
Q 275 875 275 1747 
Q 275 2603 792 3093 
Q 1309 3584 2216 3584 
Q 3041 3584 3536 3087 
Q 4031 2591 4031 1759 
z
M 2881 2131 
Q 2881 2450 2695 2645 
Q 2509 2841 2209 2841 
Q 1884 2841 1681 2658 
Q 1478 2475 1428 2131 
L 2881 2131 
z
" transform="scale(0.015625)"/>
      <path id="DejaVuSans-Bold-6e" d="M 4056 2131 
L 4056 0 
L 2931 0 
L 2931 347 
L 2931 1631 
Q 2931 2084 2911 2256 
Q 2891 2428 2841 2509 
Q 2775 2619 2662 2680 
Q 2550 2741 2406 2741 
Q 2056 2741 1856 2470 
Q 1656 2200 1656 1722 
L 1656 0 
L 538 0 
L 538 3500 
L 1656 3500 
L 1656 2988 
Q 1909 3294 2193 3439 
Q 2478 3584 2822 3584 
Q 3428 3584 3742 3212 
Q 4056 2841 4056 2131 
z
" transform="scale(0.015625)"/>
      <path id="DejaVuSans-Bold-20" transform="scale(0.015625)"/>
      <path id="DejaVuSans-Bold-4f" d="M 2719 3878 
Q 2169 3878 1866 3472 
Q 1563 3066 1563 2328 
Q 1563 1594 1866 1187 
Q 2169 781 2719 781 
Q 3272 781 3575 1187 
Q 3878 1594 3878 2328 
Q 3878 3066 3575 3472 
Q 3272 3878 2719 3878 
z
M 2719 4750 
Q 3844 4750 4481 4106 
Q 5119 3463 5119 2328 
Q 5119 1197 4481 553 
Q 3844 -91 2719 -91 
Q 1597 -91 958 553 
Q 319 1197 319 2328 
Q 319 3463 958 4106 
Q 1597 4750 2719 4750 
z
" transform="scale(0.015625)"/>
      <path id="DejaVuSans-Bold-72" d="M 3138 2547 
Q 2991 2616 2845 2648 
Q 2700 2681 2553 2681 
Q 2122 2681 1889 2404 
Q 1656 2128 1656 1613 
L 1656 0 
L 538 0 
L 538 3500 
L 1656 3500 
L 1656 2925 
Q 1872 3269 2151 3426 
Q 2431 3584 2822 3584 
Q 2878 3584 2943 3579 
Q 3009 3575 3134 3559 
L 3138 2547 
z
" transform="scale(0.015625)"/>
      <path id="DejaVuSans-Bold-67" d="M 2919 594 
Q 2688 288 2409 144 
Q 2131 0 1766 0 
Q 1125 0 706 504 
Q 288 1009 288 1791 
Q 288 2575 706 3076 
Q 1125 3578 1766 3578 
Q 2131 3578 2409 3434 
Q 2688 3291 2919 2981 
L 2919 3500 
L 4044 3500 
L 4044 353 
Q 4044 -491 3511 -936 
Q 2978 -1381 1966 -1381 
Q 1638 -1381 1331 -1331 
Q 1025 -1281 716 -1178 
L 716 -306 
Q 1009 -475 1290 -558 
Q 1572 -641 1856 -641 
Q 2406 -641 2662 -400 
Q 2919 -159 2919 353 
L 2919 594 
z
M 2181 2772 
Q 1834 2772 1640 2515 
Q 1447 2259 1447 1791 
Q 1447 1309 1634 1061 
Q 1822 813 2181 813 
Q 2531 813 2725 1069 
Q 2919 1325 2919 1791 
Q 2919 2259 2725 2515 
Q 2531 2772 2181 2772 
z
" transform="scale(0.015625)"/>
     </defs>
     <use xlink:href="#DejaVuSans-Bold-53"/>
     <use xlink:href="#DejaVuSans-Bold-65" transform="translate(72.021484 0)"/>
     <use xlink:href="#DejaVuSans-Bold-6e" transform="translate(139.84375 0)"/>
     <use xlink:href="#DejaVuSans-Bold-73" transform="translate(211.035156 0)"/>
     <use xlink:href="#DejaVuSans-Bold-65" transform="translate(270.556641 0)"/>
     <use xlink:href="#DejaVuSans-Bold-20" transform="translate(338.378906 0)"/>
     <use xlink:href="#DejaVuSans-Bold-4f" transform="translate(373.193359 0)"/>
     <use xlink:href="#DejaVuSans-Bold-72" transform="translate(458.203125 0)"/>
     <use xlink:href="#DejaVuSans-Bold-67" transform="translate(507.519531 0)"/>
     <use xlink:href="#DejaVuSans-Bold-61" transform="translate(579.101562 0)"/>
     <use xlink:href="#DejaVuSans-Bold-6e" transform="translate(646.582031 0)"/>
    </g>
    <!-- (Transduction) -->
    <g style="fill: #ffffff" transform="translate(185.288898 166.687339) scale(0.085 -0.085)">
     <defs>
      <path id="DejaVuSans-Bold-28" d="M 2413 -844 
L 1484 -844 
Q 1006 -72 778 623 
Q 550 1319 550 2003 
Q 550 2688 779 3389 
Q 1009 4091 1484 4856 
L 2413 4856 
Q 2013 4116 1813 3408 
Q 1613 2700 1613 2009 
Q 1613 1319 1811 609 
Q 2009 -100 2413 -844 
z
" transform="scale(0.015625)"/>
      <path id="DejaVuSans-Bold-54" d="M 31 4666 
L 4331 4666 
L 4331 3756 
L 2784 3756 
L 2784 0 
L 1581 0 
L 1581 3756 
L 31 3756 
L 31 4666 
z
" transform="scale(0.015625)"/>
      <path id="DejaVuSans-Bold-64" d="M 2919 2988 
L 2919 4863 
L 4044 4863 
L 4044 0 
L 2919 0 
L 2919 506 
Q 2688 197 2409 53 
Q 2131 -91 1766 -91 
Q 1119 -91 703 423 
Q 288 938 288 1747 
Q 288 2556 703 3070 
Q 1119 3584 1766 3584 
Q 2128 3584 2408 3439 
Q 2688 3294 2919 2988 
z
M 2181 722 
Q 2541 722 2730 984 
Q 2919 1247 2919 1747 
Q 2919 2247 2730 2509 
Q 2541 2772 2181 2772 
Q 1825 2772 1636 2509 
Q 1447 2247 1447 1747 
Q 1447 1247 1636 984 
Q 1825 722 2181 722 
z
" transform="scale(0.015625)"/>
      <path id="DejaVuSans-Bold-6f" d="M 2203 2784 
Q 1831 2784 1636 2517 
Q 1441 2250 1441 1747 
Q 1441 1244 1636 976 
Q 1831 709 2203 709 
Q 2569 709 2762 976 
Q 2956 1244 2956 1747 
Q 2956 2250 2762 2517 
Q 2569 2784 2203 2784 
z
M 2203 3584 
Q 3106 3584 3614 3096 
Q 4122 2609 4122 1747 
Q 4122 884 3614 396 
Q 3106 -91 2203 -91 
Q 1297 -91 786 396 
Q 275 884 275 1747 
Q 275 2609 786 3096 
Q 1297 3584 2203 3584 
z
" transform="scale(0.015625)"/>
      <path id="DejaVuSans-Bold-29" d="M 513 -844 
Q 913 -100 1113 609 
Q 1313 1319 1313 2009 
Q 1313 2700 1113 3408 
Q 913 4116 513 4856 
L 1441 4856 
Q 1916 4091 2145 3389 
Q 2375 2688 2375 2003 
Q 2375 1319 2147 623 
Q 1919 -72 1441 -844 
L 513 -844 
z
" transform="scale(0.015625)"/>
     </defs>
     <use xlink:href="#DejaVuSans-Bold-28"/>
     <use xlink:href="#DejaVuSans-Bold-54" transform="translate(45.703125 0)"/>
     <use xlink:href="#DejaVuSans-Bold-72" transform="translate(102.916016 0)"/>
     <use xlink:href="#DejaVuSans-Bold-61" transform="translate(152.232422 0)"/>
     <use xlink:href="#DejaVuSans-Bold-6e" transform="translate(219.712891 0)"/>
     <use xlink:href="#DejaVuSans-Bold-73" transform="translate(290.904297 0)"/>
     <use xlink:href="#DejaVuSans-Bold-64" transform="translate(350.425781 0)"/>
     <use xlink:href="#DejaVuSans-Bold-75" transform="translate(422.007812 0)"/>
     <use xlink:href="#DejaVuSans-Bold-63" transform="translate(493.199219 0)"/>
     <use xlink:href="#DejaVuSans-Bold-74" transform="translate(552.476562 0)"/>
     <use xlink:href="#DejaVuSans-Bold-69" transform="translate(600.279297 0)"/>
     <use xlink:href="#DejaVuSans-Bold-6f" transform="translate(634.556641 0)"/>
     <use xlink:href="#DejaVuSans-Bold-6e" transform="translate(703.257812 0)"/>
     <use xlink:href="#DejaVuSans-Bold-29" transform="translate(774.449219 0)"/>
    </g>
   </g>
   <g id="text_4">
    <!-- Retina, cochlea, -->
    <g style="fill: #d0e8ff" transform="translate(192.193 199.267528) scale(0.07 -0.07)">
     <defs>
      <path id="DejaVuSans-52" d="M 2841 2188 
Q 3044 2119 3236 1894 
Q 3428 1669 3622 1275 
L 4263 0 
L 3584 0 
L 2988 1197 
Q 2756 1666 2539 1819 
Q 2322 1972 1947 1972 
L 1259 1972 
L 1259 0 
L 628 0 
L 628 4666 
L 2053 4666 
Q 2853 4666 3247 4331 
Q 3641 3997 3641 3322 
Q 3641 2881 3436 2590 
Q 3231 2300 2841 2188 
z
M 1259 4147 
L 1259 2491 
L 2053 2491 
Q 2509 2491 2742 2702 
Q 2975 2913 2975 3322 
Q 2975 3731 2742 3939 
Q 2509 4147 2053 4147 
L 1259 4147 
z
" transform="scale(0.015625)"/>
     </defs>
     <use xlink:href="#DejaVuSans-52"/>
     <use xlink:href="#DejaVuSans-65" transform="translate(64.982422 0)"/>
     <use xlink:href="#DejaVuSans-74" transform="translate(126.505859 0)"/>
     <use xlink:href="#DejaVuSans-69" transform="translate(165.714844 0)"/>
     <use xlink:href="#DejaVuSans-6e" transform="translate(193.498047 0)"/>
     <use xlink:href="#DejaVuSans-61" transform="translate(256.876953 0)"/>
     <use xlink:href="#DejaVuSans-2c" transform="translate(318.15625 0)"/>
     <use xlink:href="#DejaVuSans-20" transform="translate(349.943359 0)"/>
     <use xlink:href="#DejaVuSans-63" transform="translate(381.730469 0)"/>
     <use xlink:href="#DejaVuSans-6f" transform="translate(436.710938 0)"/>
     <use xlink:href="#DejaVuSans-63" transform="translate(497.892578 0)"/>
     <use xlink:href="#DejaVuSans-68" transform="translate(552.873047 0)"/>
     <use xlink:href="#DejaVuSans-6c" transform="translate(616.251953 0)"/>
     <use xlink:href="#DejaVuSans-65" transform="translate(644.035156 0)"/>
     <use xlink:href="#DejaVuSans-61" transform="translate(705.558594 0)"/>
     <use xlink:href="#DejaVuSans-2c" transform="translate(766.837891 0)"/>
    </g>
    <!-- skin receptors -->
    <g style="fill: #d0e8ff" transform="translate(195.402609 207.105997) scale(0.07 -0.07)">
     <defs>
      <path id="DejaVuSans-6b" d="M 581 4863 
L 1159 4863 
L 1159 1991 
L 2875 3500 
L 3609 3500 
L 1753 1863 
L 3688 0 
L 2938 0 
L 1159 1709 
L 1159 0 
L 581 0 
L 581 4863 
z
" transform="scale(0.015625)"/>
     </defs>
     <use xlink:href="#DejaVuSans-73"/>
     <use xlink:href="#DejaVuSans-6b" transform="translate(52.099609 0)"/>
     <use xlink:href="#DejaVuSans-69" transform="translate(110.009766 0)"/>
     <use xlink:href="#DejaVuSans-6e" transform="translate(137.792969 0)"/>
     <use xlink:href="#DejaVuSans-20" transform="translate(201.171875 0)"/>
     <use xlink:href="#DejaVuSans-72" transform="translate(232.958984 0)"/>
     <use xlink:href="#DejaVuSans-65" transform="translate(271.822266 0)"/>
     <use xlink:href="#DejaVuSans-63" transform="translate(333.345703 0)"/>
     <use xlink:href="#DejaVuSans-65" transform="translate(388.326172 0)"/>
     <use xlink:href="#DejaVuSans-70" transform="translate(449.849609 0)"/>
     <use xlink:href="#DejaVuSans-74" transform="translate(513.326172 0)"/>
     <use xlink:href="#DejaVuSans-6f" transform="translate(552.535156 0)"/>
     <use xlink:href="#DejaVuSans-72" transform="translate(613.716797 0)"/>
     <use xlink:href="#DejaVuSans-73" transform="translate(654.830078 0)"/>
    </g>
   </g>
   <g id="text_5">
    <!-- Early Neural -->
    <g style="fill: #ffffff" transform="translate(324.43557 157.102792) scale(0.085 -0.085)">
     <defs>
      <path id="DejaVuSans-Bold-45" d="M 588 4666 
L 3834 4666 
L 3834 3756 
L 1791 3756 
L 1791 2888 
L 3713 2888 
L 3713 1978 
L 1791 1978 
L 1791 909 
L 3903 909 
L 3903 0 
L 588 0 
L 588 4666 
z
" transform="scale(0.015625)"/>
      <path id="DejaVuSans-Bold-4e" d="M 588 4666 
L 1931 4666 
L 3628 1466 
L 3628 4666 
L 4769 4666 
L 4769 0 
L 3425 0 
L 1728 3200 
L 1728 0 
L 588 0 
L 588 4666 
z
" transform="scale(0.015625)"/>
     </defs>
     <use xlink:href="#DejaVuSans-Bold-45"/>
     <use xlink:href="#DejaVuSans-Bold-61" transform="translate(68.310547 0)"/>
     <use xlink:href="#DejaVuSans-Bold-72" transform="translate(135.791016 0)"/>
     <use xlink:href="#DejaVuSans-Bold-6c" transform="translate(185.107422 0)"/>
     <use xlink:href="#DejaVuSans-Bold-79" transform="translate(219.384766 0)"/>
     <use xlink:href="#DejaVuSans-Bold-20" transform="translate(284.570312 0)"/>
     <use xlink:href="#DejaVuSans-Bold-4e" transform="translate(319.384766 0)"/>
     <use xlink:href="#DejaVuSans-Bold-65" transform="translate(403.076172 0)"/>
     <use xlink:href="#DejaVuSans-Bold-75" transform="translate(470.898438 0)"/>
     <use xlink:href="#DejaVuSans-Bold-72" transform="translate(542.089844 0)"/>
     <use xlink:href="#DejaVuSans-Bold-61" transform="translate(591.40625 0)"/>
     <use xlink:href="#DejaVuSans-Bold-6c" transform="translate(658.886719 0)"/>
    </g>
    <!-- Preprocessing -->
    <g style="fill: #ffffff" transform="translate(319.758578 166.687339) scale(0.085 -0.085)">
     <defs>
      <path id="DejaVuSans-Bold-70" d="M 1656 506 
L 1656 -1331 
L 538 -1331 
L 538 3500 
L 1656 3500 
L 1656 2988 
Q 1888 3294 2169 3439 
Q 2450 3584 2816 3584 
Q 3463 3584 3878 3070 
Q 4294 2556 4294 1747 
Q 4294 938 3878 423 
Q 3463 -91 2816 -91 
Q 2450 -91 2169 54 
Q 1888 200 1656 506 
z
M 2400 2772 
Q 2041 2772 1848 2508 
Q 1656 2244 1656 1747 
Q 1656 1250 1848 986 
Q 2041 722 2400 722 
Q 2759 722 2948 984 
Q 3138 1247 3138 1747 
Q 3138 2247 2948 2509 
Q 2759 2772 2400 2772 
z
" transform="scale(0.015625)"/>
     </defs>
     <use xlink:href="#DejaVuSans-Bold-50"/>
     <use xlink:href="#DejaVuSans-Bold-72" transform="translate(73.291016 0)"/>
     <use xlink:href="#DejaVuSans-Bold-65" transform="translate(122.607422 0)"/>
     <use xlink:href="#DejaVuSans-Bold-70" transform="translate(190.429688 0)"/>
     <use xlink:href="#DejaVuSans-Bold-72" transform="translate(262.011719 0)"/>
     <use xlink:href="#DejaVuSans-Bold-6f" transform="translate(311.328125 0)"/>
     <use xlink:href="#DejaVuSans-Bold-63" transform="translate(380.029297 0)"/>
     <use xlink:href="#DejaVuSans-Bold-65" transform="translate(439.306641 0)"/>
     <use xlink:href="#DejaVuSans-Bold-73" transform="translate(507.128906 0)"/>
     <use xlink:href="#DejaVuSans-Bold-73" transform="translate(566.650391 0)"/>
     <use xlink:href="#DejaVuSans-Bold-69" transform="translate(626.171875 0)"/>
     <use xlink:href="#DejaVuSans-Bold-6e" transform="translate(660.449219 0)"/>
     <use xlink:href="#DejaVuSans-Bold-67" transform="translate(731.640625 0)"/>
    </g>
   </g>
   <g id="text_6">
    <!-- Retinal ganglion cells, -->
    <g style="fill: #d0e8ff" transform="translate(315.493266 199.267528) scale(0.07 -0.07)">
     <use xlink:href="#DejaVuSans-52"/>
     <use xlink:href="#DejaVuSans-65" transform="translate(64.982422 0)"/>
     <use xlink:href="#DejaVuSans-74" transform="translate(126.505859 0)"/>
     <use xlink:href="#DejaVuSans-69" transform="translate(165.714844 0)"/>
     <use xlink:href="#DejaVuSans-6e" transform="translate(193.498047 0)"/>
     <use xlink:href="#DejaVuSans-61" transform="translate(256.876953 0)"/>
     <use xlink:href="#DejaVuSans-6c" transform="translate(318.15625 0)"/>
     <use xlink:href="#DejaVuSans-20" transform="translate(345.939453 0)"/>
     <use xlink:href="#DejaVuSans-67" transform="translate(377.726562 0)"/>
     <use xlink:href="#DejaVuSans-61" transform="translate(441.203125 0)"/>
     <use xlink:href="#DejaVuSans-6e" transform="translate(502.482422 0)"/>
     <use xlink:href="#DejaVuSans-67" transform="translate(565.861328 0)"/>
     <use xlink:href="#DejaVuSans-6c" transform="translate(629.337891 0)"/>
     <use xlink:href="#DejaVuSans-69" transform="translate(657.121094 0)"/>
     <use xlink:href="#DejaVuSans-6f" transform="translate(684.904297 0)"/>
     <use xlink:href="#DejaVuSans-6e" transform="translate(746.085938 0)"/>
     <use xlink:href="#DejaVuSans-20" transform="translate(809.464844 0)"/>
     <use xlink:href="#DejaVuSans-63" transform="translate(841.251953 0)"/>
     <use xlink:href="#DejaVuSans-65" transform="translate(896.232422 0)"/>
     <use xlink:href="#DejaVuSans-6c" transform="translate(957.755859 0)"/>
     <use xlink:href="#DejaVuSans-6c" transform="translate(985.539062 0)"/>
     <use xlink:href="#DejaVuSans-73" transform="translate(1013.322266 0)"/>
     <use xlink:href="#DejaVuSans-2c" transform="translate(1065.421875 0)"/>
    </g>
    <!-- cochlear filtering -->
    <g style="fill: #d0e8ff" transform="translate(324.311078 207.105997) scale(0.07 -0.07)">
     <defs>
      <path id="DejaVuSans-66" d="M 2375 4863 
L 2375 4384 
L 1825 4384 
Q 1516 4384 1395 4259 
Q 1275 4134 1275 3809 
L 1275 3500 
L 2222 3500 
L 2222 3053 
L 1275 3053 
L 1275 0 
L 697 0 
L 697 3053 
L 147 3053 
L 147 3500 
L 697 3500 
L 697 3744 
Q 697 4328 969 4595 
Q 1241 4863 1831 4863 
L 2375 4863 
z
" transform="scale(0.015625)"/>
     </defs>
     <use xlink:href="#DejaVuSans-63"/>
     <use xlink:href="#DejaVuSans-6f" transform="translate(54.980469 0)"/>
     <use xlink:href="#DejaVuSans-63" transform="translate(116.162109 0)"/>
     <use xlink:href="#DejaVuSans-68" transform="translate(171.142578 0)"/>
     <use xlink:href="#DejaVuSans-6c" transform="translate(234.521484 0)"/>
     <use xlink:href="#DejaVuSans-65" transform="translate(262.304688 0)"/>
     <use xlink:href="#DejaVuSans-61" transform="translate(323.828125 0)"/>
     <use xlink:href="#DejaVuSans-72" transform="translate(385.107422 0)"/>
     <use xlink:href="#DejaVuSans-20" transform="translate(426.220703 0)"/>
     <use xlink:href="#DejaVuSans-66" transform="translate(458.007812 0)"/>
     <use xlink:href="#DejaVuSans-69" transform="translate(493.212891 0)"/>
     <use xlink:href="#DejaVuSans-6c" transform="translate(520.996094 0)"/>
     <use xlink:href="#DejaVuSans-74" transform="translate(548.779297 0)"/>
     <use xlink:href="#DejaVuSans-65" transform="translate(587.988281 0)"/>
     <use xlink:href="#DejaVuSans-72" transform="translate(649.511719 0)"/>
     <use xlink:href="#DejaVuSans-69" transform="translate(690.625 0)"/>
     <use xlink:href="#DejaVuSans-6e" transform="translate(718.408203 0)"/>
     <use xlink:href="#DejaVuSans-67" transform="translate(781.787109 0)"/>
    </g>
   </g>
   <g id="text_7">
    <!-- Thalamus &amp; -->
    <g style="fill: #ffffff" transform="translate(459.358805 157.135995) scale(0.085 -0.085)">
     <defs>
      <path id="DejaVuSans-Bold-26" d="M 2497 3097 
L 3775 1691 
Q 3941 1909 4027 2181 
Q 4113 2453 4128 2797 
L 5100 2797 
Q 5053 2228 4879 1784 
Q 4706 1341 4397 1006 
L 5313 0 
L 3988 0 
L 3681 341 
Q 3353 122 2990 15 
Q 2628 -91 2222 -91 
Q 1400 -91 892 342 
Q 384 775 384 1459 
Q 384 1916 607 2267 
Q 831 2619 1338 2950 
Q 1206 3116 1143 3281 
Q 1081 3447 1081 3628 
Q 1081 4138 1478 4444 
Q 1875 4750 2534 4750 
Q 2819 4750 3126 4704 
Q 3434 4659 3769 4569 
L 3769 3700 
Q 3475 3850 3212 3922 
Q 2950 3994 2700 3994 
Q 2459 3994 2326 3901 
Q 2194 3809 2194 3641 
Q 2194 3534 2270 3398 
Q 2347 3263 2497 3097 
z
M 1875 2322 
Q 1672 2175 1569 1989 
Q 1466 1803 1466 1581 
Q 1466 1222 1731 969 
Q 1997 716 2369 716 
Q 2578 716 2759 780 
Q 2941 844 3097 972 
L 1875 2322 
z
" transform="scale(0.015625)"/>
     </defs>
     <use xlink:href="#DejaVuSans-Bold-54"/>
     <use xlink:href="#DejaVuSans-Bold-68" transform="translate(68.212891 0)"/>
     <use xlink:href="#DejaVuSans-Bold-61" transform="translate(139.404297 0)"/>
     <use xlink:href="#DejaVuSans-Bold-6c" transform="translate(206.884766 0)"/>
     <use xlink:href="#DejaVuSans-Bold-61" transform="translate(241.162109 0)"/>
     <use xlink:href="#DejaVuSans-Bold-6d" transform="translate(308.642578 0)"/>
     <use xlink:href="#DejaVuSans-Bold-75" transform="translate(412.841797 0)"/>
     <use xlink:href="#DejaVuSans-Bold-73" transform="translate(484.033203 0)"/>
     <use xlink:href="#DejaVuSans-Bold-20" transform="translate(543.554688 0)"/>
     <use xlink:href="#DejaVuSans-Bold-26" transform="translate(578.369141 0)"/>
    </g>
    <!-- Primary Cortex -->
    <g style="fill: #ffffff" transform="translate(451.545445 166.654136) scale(0.085 -0.085)">
     <defs>
      <path id="DejaVuSans-Bold-43" d="M 4288 256 
Q 3956 84 3597 -3 
Q 3238 -91 2847 -91 
Q 1681 -91 1000 561 
Q 319 1213 319 2328 
Q 319 3447 1000 4098 
Q 1681 4750 2847 4750 
Q 3238 4750 3597 4662 
Q 3956 4575 4288 4403 
L 4288 3438 
Q 3953 3666 3628 3772 
Q 3303 3878 2944 3878 
Q 2300 3878 1931 3465 
Q 1563 3053 1563 2328 
Q 1563 1606 1931 1193 
Q 2300 781 2944 781 
Q 3303 781 3628 887 
Q 3953 994 4288 1222 
L 4288 256 
z
" transform="scale(0.015625)"/>
      <path id="DejaVuSans-Bold-78" d="M 1422 1791 
L 159 3500 
L 1344 3500 
L 2059 2463 
L 2784 3500 
L 3969 3500 
L 2706 1797 
L 4031 0 
L 2847 0 
L 2059 1106 
L 1281 0 
L 97 0 
L 1422 1791 
z
" transform="scale(0.015625)"/>
     </defs>
     <use xlink:href="#DejaVuSans-Bold-50"/>
     <use xlink:href="#DejaVuSans-Bold-72" transform="translate(73.291016 0)"/>
     <use xlink:href="#DejaVuSans-Bold-69" transform="translate(122.607422 0)"/>
     <use xlink:href="#DejaVuSans-Bold-6d" transform="translate(156.884766 0)"/>
     <use xlink:href="#DejaVuSans-Bold-61" transform="translate(261.083984 0)"/>
     <use xlink:href="#DejaVuSans-Bold-72" transform="translate(328.564453 0)"/>
     <use xlink:href="#DejaVuSans-Bold-79" transform="translate(377.880859 0)"/>
     <use xlink:href="#DejaVuSans-Bold-20" transform="translate(443.066406 0)"/>
     <use xlink:href="#DejaVuSans-Bold-43" transform="translate(477.880859 0)"/>
     <use xlink:href="#DejaVuSans-Bold-6f" transform="translate(551.269531 0)"/>
     <use xlink:href="#DejaVuSans-Bold-72" transform="translate(619.970703 0)"/>
     <use xlink:href="#DejaVuSans-Bold-74" transform="translate(669.287109 0)"/>
     <use xlink:href="#DejaVuSans-Bold-65" transform="translate(717.089844 0)"/>
     <use xlink:href="#DejaVuSans-Bold-78" transform="translate(784.912109 0)"/>
    </g>
   </g>
   <g id="text_8">
    <!-- Feature detection, -->
    <g style="fill: #d0e8ff" transform="translate(455.668453 199.267528) scale(0.07 -0.07)">
     <defs>
      <path id="DejaVuSans-46" d="M 628 4666 
L 3309 4666 
L 3309 4134 
L 1259 4134 
L 1259 2759 
L 3109 2759 
L 3109 2228 
L 1259 2228 
L 1259 0 
L 628 0 
L 628 4666 
z
" transform="scale(0.015625)"/>
     </defs>
     <use xlink:href="#DejaVuSans-46"/>
     <use xlink:href="#DejaVuSans-65" transform="translate(52.019531 0)"/>
     <use xlink:href="#DejaVuSans-61" transform="translate(113.542969 0)"/>
     <use xlink:href="#DejaVuSans-74" transform="translate(174.822266 0)"/>
     <use xlink:href="#DejaVuSans-75" transform="translate(214.03125 0)"/>
     <use xlink:href="#DejaVuSans-72" transform="translate(277.410156 0)"/>
     <use xlink:href="#DejaVuSans-65" transform="translate(316.273438 0)"/>
     <use xlink:href="#DejaVuSans-20" transform="translate(377.796875 0)"/>
     <use xlink:href="#DejaVuSans-64" transform="translate(409.583984 0)"/>
     <use xlink:href="#DejaVuSans-65" transform="translate(473.060547 0)"/>
     <use xlink:href="#DejaVuSans-74" transform="translate(534.583984 0)"/>
     <use xlink:href="#DejaVuSans-65" transform="translate(573.792969 0)"/>
     <use xlink:href="#DejaVuSans-63" transform="translate(635.316406 0)"/>
     <use xlink:href="#DejaVuSans-74" transform="translate(690.296875 0)"/>
     <use xlink:href="#DejaVuSans-69" transform="translate(729.505859 0)"/>
     <use xlink:href="#DejaVuSans-6f" transform="translate(757.289062 0)"/>
     <use xlink:href="#DejaVuSans-6e" transform="translate(818.470703 0)"/>
     <use xlink:href="#DejaVuSans-2c" transform="translate(881.849609 0)"/>
    </g>
    <!-- basic organization -->
    <g style="fill: #d0e8ff" transform="translate(455.684313 207.105997) scale(0.07 -0.07)">
     <defs>
      <path id="DejaVuSans-62" d="M 3116 1747 
Q 3116 2381 2855 2742 
Q 2594 3103 2138 3103 
Q 1681 3103 1420 2742 
Q 1159 2381 1159 1747 
Q 1159 1113 1420 752 
Q 1681 391 2138 391 
Q 2594 391 2855 752 
Q 3116 1113 3116 1747 
z
M 1159 2969 
Q 1341 3281 1617 3432 
Q 1894 3584 2278 3584 
Q 2916 3584 3314 3078 
Q 3713 2572 3713 1747 
Q 3713 922 3314 415 
Q 2916 -91 2278 -91 
Q 1894 -91 1617 61 
Q 1341 213 1159 525 
L 1159 0 
L 581 0 
L 581 4863 
L 1159 4863 
L 1159 2969 
z
" transform="scale(0.015625)"/>
      <path id="DejaVuSans-7a" d="M 353 3500 
L 3084 3500 
L 3084 2975 
L 922 459 
L 3084 459 
L 3084 0 
L 275 0 
L 275 525 
L 2438 3041 
L 353 3041 
L 353 3500 
z
" transform="scale(0.015625)"/>
     </defs>
     <use xlink:href="#DejaVuSans-62"/>
     <use xlink:href="#DejaVuSans-61" transform="translate(63.476562 0)"/>
     <use xlink:href="#DejaVuSans-73" transform="translate(124.755859 0)"/>
     <use xlink:href="#DejaVuSans-69" transform="translate(176.855469 0)"/>
     <use xlink:href="#DejaVuSans-63" transform="translate(204.638672 0)"/>
     <use xlink:href="#DejaVuSans-20" transform="translate(259.619141 0)"/>
     <use xlink:href="#DejaVuSans-6f" transform="translate(291.40625 0)"/>
     <use xlink:href="#DejaVuSans-72" transform="translate(352.587891 0)"/>
     <use xlink:href="#DejaVuSans-67" transform="translate(391.951172 0)"/>
     <use xlink:href="#DejaVuSans-61" transform="translate(455.427734 0)"/>
     <use xlink:href="#DejaVuSans-6e" transform="translate(516.707031 0)"/>
     <use xlink:href="#DejaVuSans-69" transform="translate(580.085938 0)"/>
     <use xlink:href="#DejaVuSans-7a" transform="translate(607.869141 0)"/>
     <use xlink:href="#DejaVuSans-61" transform="translate(660.359375 0)"/>
     <use xlink:href="#DejaVuSans-74" transform="translate(721.638672 0)"/>
     <use xlink:href="#DejaVuSans-69" transform="translate(760.847656 0)"/>
     <use xlink:href="#DejaVuSans-6f" transform="translate(788.630859 0)"/>
     <use xlink:href="#DejaVuSans-6e" transform="translate(849.8125 0)"/>
    </g>
   </g>
   <g id="text_9">
    <!-- Higher Cortex -->
    <g style="fill: #ffffff" transform="translate(588.067078 157.135995) scale(0.085 -0.085)">
     <defs>
      <path id="DejaVuSans-Bold-48" d="M 588 4666 
L 1791 4666 
L 1791 2888 
L 3566 2888 
L 3566 4666 
L 4769 4666 
L 4769 0 
L 3566 0 
L 3566 1978 
L 1791 1978 
L 1791 0 
L 588 0 
L 588 4666 
z
" transform="scale(0.015625)"/>
     </defs>
     <use xlink:href="#DejaVuSans-Bold-48"/>
     <use xlink:href="#DejaVuSans-Bold-69" transform="translate(83.691406 0)"/>
     <use xlink:href="#DejaVuSans-Bold-67" transform="translate(117.96875 0)"/>
     <use xlink:href="#DejaVuSans-Bold-68" transform="translate(189.550781 0)"/>
     <use xlink:href="#DejaVuSans-Bold-65" transform="translate(260.742188 0)"/>
     <use xlink:href="#DejaVuSans-Bold-72" transform="translate(328.564453 0)"/>
     <use xlink:href="#DejaVuSans-Bold-20" transform="translate(377.880859 0)"/>
     <use xlink:href="#DejaVuSans-Bold-43" transform="translate(412.695312 0)"/>
     <use xlink:href="#DejaVuSans-Bold-6f" transform="translate(486.083984 0)"/>
     <use xlink:href="#DejaVuSans-Bold-72" transform="translate(554.785156 0)"/>
     <use xlink:href="#DejaVuSans-Bold-74" transform="translate(604.101562 0)"/>
     <use xlink:href="#DejaVuSans-Bold-65" transform="translate(651.904297 0)"/>
     <use xlink:href="#DejaVuSans-Bold-78" transform="translate(719.726562 0)"/>
    </g>
    <!-- (Interpretation) -->
    <g style="fill: #ffffff" transform="translate(583.541492 166.720542) scale(0.085 -0.085)">
     <defs>
      <path id="DejaVuSans-Bold-49" d="M 588 4666 
L 1791 4666 
L 1791 0 
L 588 0 
L 588 4666 
z
" transform="scale(0.015625)"/>
     </defs>
     <use xlink:href="#DejaVuSans-Bold-28"/>
     <use xlink:href="#DejaVuSans-Bold-49" transform="translate(45.703125 0)"/>
     <use xlink:href="#DejaVuSans-Bold-6e" transform="translate(82.910156 0)"/>
     <use xlink:href="#DejaVuSans-Bold-74" transform="translate(154.101562 0)"/>
     <use xlink:href="#DejaVuSans-Bold-65" transform="translate(201.904297 0)"/>
     <use xlink:href="#DejaVuSans-Bold-72" transform="translate(269.726562 0)"/>
     <use xlink:href="#DejaVuSans-Bold-70" transform="translate(319.042969 0)"/>
     <use xlink:href="#DejaVuSans-Bold-72" transform="translate(390.625 0)"/>
     <use xlink:href="#DejaVuSans-Bold-65" transform="translate(439.941406 0)"/>
     <use xlink:href="#DejaVuSans-Bold-74" transform="translate(507.763672 0)"/>
     <use xlink:href="#DejaVuSans-Bold-61" transform="translate(555.566406 0)"/>
     <use xlink:href="#DejaVuSans-Bold-74" transform="translate(623.046875 0)"/>
     <use xlink:href="#DejaVuSans-Bold-69" transform="translate(670.849609 0)"/>
     <use xlink:href="#DejaVuSans-Bold-6f" transform="translate(705.126953 0)"/>
     <use xlink:href="#DejaVuSans-Bold-6e" transform="translate(773.828125 0)"/>
     <use xlink:href="#DejaVuSans-Bold-29" transform="translate(845.019531 0)"/>
    </g>
   </g>
   <g id="text_10">
    <!-- Object recognition, -->
    <g style="fill: #d0e8ff" transform="translate(588.075828 199.267528) scale(0.07 -0.07)">
     <defs>
      <path id="DejaVuSans-4f" d="M 2522 4238 
Q 1834 4238 1429 3725 
Q 1025 3213 1025 2328 
Q 1025 1447 1429 934 
Q 1834 422 2522 422 
Q 3209 422 3611 934 
Q 4013 1447 4013 2328 
Q 4013 3213 3611 3725 
Q 3209 4238 2522 4238 
z
M 2522 4750 
Q 3503 4750 4090 4092 
Q 4678 3434 4678 2328 
Q 4678 1225 4090 567 
Q 3503 -91 2522 -91 
Q 1538 -91 948 565 
Q 359 1222 359 2328 
Q 359 3434 948 4092 
Q 1538 4750 2522 4750 
z
" transform="scale(0.015625)"/>
      <path id="DejaVuSans-6a" d="M 603 3500 
L 1178 3500 
L 1178 -63 
Q 1178 -731 923 -1031 
Q 669 -1331 103 -1331 
L -116 -1331 
L -116 -844 
L 38 -844 
Q 366 -844 484 -692 
Q 603 -541 603 -63 
L 603 3500 
z
M 603 4863 
L 1178 4863 
L 1178 4134 
L 603 4134 
L 603 4863 
z
" transform="scale(0.015625)"/>
     </defs>
     <use xlink:href="#DejaVuSans-4f"/>
     <use xlink:href="#DejaVuSans-62" transform="translate(78.710938 0)"/>
     <use xlink:href="#DejaVuSans-6a" transform="translate(142.1875 0)"/>
     <use xlink:href="#DejaVuSans-65" transform="translate(169.970703 0)"/>
     <use xlink:href="#DejaVuSans-63" transform="translate(231.494141 0)"/>
     <use xlink:href="#DejaVuSans-74" transform="translate(286.474609 0)"/>
     <use xlink:href="#DejaVuSans-20" transform="translate(325.683594 0)"/>
     <use xlink:href="#DejaVuSans-72" transform="translate(357.470703 0)"/>
     <use xlink:href="#DejaVuSans-65" transform="translate(396.333984 0)"/>
     <use xlink:href="#DejaVuSans-63" transform="translate(457.857422 0)"/>
     <use xlink:href="#DejaVuSans-6f" transform="translate(512.837891 0)"/>
     <use xlink:href="#DejaVuSans-67" transform="translate(574.019531 0)"/>
     <use xlink:href="#DejaVuSans-6e" transform="translate(637.496094 0)"/>
     <use xlink:href="#DejaVuSans-69" transform="translate(700.875 0)"/>
     <use xlink:href="#DejaVuSans-74" transform="translate(728.658203 0)"/>
     <use xlink:href="#DejaVuSans-69" transform="translate(767.867188 0)"/>
     <use xlink:href="#DejaVuSans-6f" transform="translate(795.650391 0)"/>
     <use xlink:href="#DejaVuSans-6e" transform="translate(856.832031 0)"/>
     <use xlink:href="#DejaVuSans-2c" transform="translate(920.210938 0)"/>
    </g>
    <!-- meaning, context -->
    <g style="fill: #d0e8ff" transform="translate(590.641219 207.105997) scale(0.07 -0.07)">
     <defs>
      <path id="DejaVuSans-78" d="M 3513 3500 
L 2247 1797 
L 3578 0 
L 2900 0 
L 1881 1375 
L 863 0 
L 184 0 
L 1544 1831 
L 300 3500 
L 978 3500 
L 1906 2253 
L 2834 3500 
L 3513 3500 
z
" transform="scale(0.015625)"/>
     </defs>
     <use xlink:href="#DejaVuSans-6d"/>
     <use xlink:href="#DejaVuSans-65" transform="translate(97.412109 0)"/>
     <use xlink:href="#DejaVuSans-61" transform="translate(158.935547 0)"/>
     <use xlink:href="#DejaVuSans-6e" transform="translate(220.214844 0)"/>
     <use xlink:href="#DejaVuSans-69" transform="translate(283.59375 0)"/>
     <use xlink:href="#DejaVuSans-6e" transform="translate(311.376953 0)"/>
     <use xlink:href="#DejaVuSans-67" transform="translate(374.755859 0)"/>
     <use xlink:href="#DejaVuSans-2c" transform="translate(438.232422 0)"/>
     <use xlink:href="#DejaVuSans-20" transform="translate(470.019531 0)"/>
     <use xlink:href="#DejaVuSans-63" transform="translate(501.806641 0)"/>
     <use xlink:href="#DejaVuSans-6f" transform="translate(556.787109 0)"/>
     <use xlink:href="#DejaVuSans-6e" transform="translate(617.96875 0)"/>
     <use xlink:href="#DejaVuSans-74" transform="translate(681.347656 0)"/>
     <use xlink:href="#DejaVuSans-65" transform="translate(720.556641 0)"/>
     <use xlink:href="#DejaVuSans-78" transform="translate(780.330078 0)"/>
     <use xlink:href="#DejaVuSans-74" transform="translate(839.509766 0)"/>
    </g>
   </g>
   <g id="text_11">
    <!-- Perception -->
    <g style="fill: #ffffff" transform="translate(729.175391 157.169198) scale(0.085 -0.085)">
     <use xlink:href="#DejaVuSans-Bold-50"/>
     <use xlink:href="#DejaVuSans-Bold-65" transform="translate(73.291016 0)"/>
     <use xlink:href="#DejaVuSans-Bold-72" transform="translate(141.113281 0)"/>
     <use xlink:href="#DejaVuSans-Bold-63" transform="translate(190.429688 0)"/>
     <use xlink:href="#DejaVuSans-Bold-65" transform="translate(249.707031 0)"/>
     <use xlink:href="#DejaVuSans-Bold-70" transform="translate(317.529297 0)"/>
     <use xlink:href="#DejaVuSans-Bold-74" transform="translate(389.111328 0)"/>
     <use xlink:href="#DejaVuSans-Bold-69" transform="translate(436.914062 0)"/>
     <use xlink:href="#DejaVuSans-Bold-6f" transform="translate(471.191406 0)"/>
     <use xlink:href="#DejaVuSans-Bold-6e" transform="translate(539.892578 0)"/>
    </g>
    <!-- (Experience) -->
    <g style="fill: #ffffff" transform="translate(724.829766 166.687339) scale(0.085 -0.085)">
     <use xlink:href="#DejaVuSans-Bold-28"/>
     <use xlink:href="#DejaVuSans-Bold-45" transform="translate(45.703125 0)"/>
     <use xlink:href="#DejaVuSans-Bold-78" transform="translate(114.013672 0)"/>
     <use xlink:href="#DejaVuSans-Bold-70" transform="translate(178.515625 0)"/>
     <use xlink:href="#DejaVuSans-Bold-65" transform="translate(250.097656 0)"/>
     <use xlink:href="#DejaVuSans-Bold-72" transform="translate(317.919922 0)"/>
     <use xlink:href="#DejaVuSans-Bold-69" transform="translate(367.236328 0)"/>
     <use xlink:href="#DejaVuSans-Bold-65" transform="translate(401.513672 0)"/>
     <use xlink:href="#DejaVuSans-Bold-6e" transform="translate(469.335938 0)"/>
     <use xlink:href="#DejaVuSans-Bold-63" transform="translate(540.527344 0)"/>
     <use xlink:href="#DejaVuSans-Bold-65" transform="translate(599.804688 0)"/>
     <use xlink:href="#DejaVuSans-Bold-29" transform="translate(667.626953 0)"/>
    </g>
   </g>
   <g id="text_12">
    <!-- Meaningful, stable -->
    <g style="fill: #d0e8ff" transform="translate(722.862656 199.267528) scale(0.07 -0.07)">
     <defs>
      <path id="DejaVuSans-4d" d="M 628 4666 
L 1569 4666 
L 2759 1491 
L 3956 4666 
L 4897 4666 
L 4897 0 
L 4281 0 
L 4281 4097 
L 3078 897 
L 2444 897 
L 1241 4097 
L 1241 0 
L 628 0 
L 628 4666 
z
" transform="scale(0.015625)"/>
     </defs>
     <use xlink:href="#DejaVuSans-4d"/>
     <use xlink:href="#DejaVuSans-65" transform="translate(86.279297 0)"/>
     <use xlink:href="#DejaVuSans-61" transform="translate(147.802734 0)"/>
     <use xlink:href="#DejaVuSans-6e" transform="translate(209.082031 0)"/>
     <use xlink:href="#DejaVuSans-69" transform="translate(272.460938 0)"/>
     <use xlink:href="#DejaVuSans-6e" transform="translate(300.244141 0)"/>
     <use xlink:href="#DejaVuSans-67" transform="translate(363.623047 0)"/>
     <use xlink:href="#DejaVuSans-66" transform="translate(427.099609 0)"/>
     <use xlink:href="#DejaVuSans-75" transform="translate(462.304688 0)"/>
     <use xlink:href="#DejaVuSans-6c" transform="translate(525.683594 0)"/>
     <use xlink:href="#DejaVuSans-2c" transform="translate(553.466797 0)"/>
     <use xlink:href="#DejaVuSans-20" transform="translate(585.253906 0)"/>
     <use xlink:href="#DejaVuSans-73" transform="translate(617.041016 0)"/>
     <use xlink:href="#DejaVuSans-74" transform="translate(669.140625 0)"/>
     <use xlink:href="#DejaVuSans-61" transform="translate(708.349609 0)"/>
     <use xlink:href="#DejaVuSans-62" transform="translate(769.628906 0)"/>
     <use xlink:href="#DejaVuSans-6c" transform="translate(833.105469 0)"/>
     <use xlink:href="#DejaVuSans-65" transform="translate(860.888672 0)"/>
    </g>
    <!-- world model -->
    <g style="fill: #d0e8ff" transform="translate(733.498828 207.105997) scale(0.07 -0.07)">
     <defs>
      <path id="DejaVuSans-77" d="M 269 3500 
L 844 3500 
L 1563 769 
L 2278 3500 
L 2956 3500 
L 3675 769 
L 4391 3500 
L 4966 3500 
L 4050 0 
L 3372 0 
L 2619 2869 
L 1863 0 
L 1184 0 
L 269 3500 
z
" transform="scale(0.015625)"/>
     </defs>
     <use xlink:href="#DejaVuSans-77"/>
     <use xlink:href="#DejaVuSans-6f" transform="translate(81.787109 0)"/>
     <use xlink:href="#DejaVuSans-72" transform="translate(142.96875 0)"/>
     <use xlink:href="#DejaVuSans-6c" transform="translate(184.082031 0)"/>
     <use xlink:href="#DejaVuSans-64" transform="translate(211.865234 0)"/>
     <use xlink:href="#DejaVuSans-20" transform="translate(275.341797 0)"/>
     <use xlink:href="#DejaVuSans-6d" transform="translate(307.128906 0)"/>
     <use xlink:href="#DejaVuSans-6f" transform="translate(404.541016 0)"/>
     <use xlink:href="#DejaVuSans-64" transform="translate(465.722656 0)"/>
     <use xlink:href="#DejaVuSans-65" transform="translate(529.199219 0)"/>
     <use xlink:href="#DejaVuSans-6c" transform="translate(590.722656 0)"/>
    </g>
   </g>
   <g id="patch_8">
    <path d="M 146.467296 170.7632 
Q 154.322928 170.7632 160.1661 170.7632 
" style="fill: none; stroke: #333333; stroke-width: 1.8; stroke-linecap: round"/>
    <path d="M 156.1661 168.7632 
L 160.1661 170.7632 
L 156.1661 172.7632 
" style="fill: none; stroke: #333333; stroke-width: 1.8; stroke-linecap: round"/>
   </g>
   <g id="patch_9">
    <path d="M 280.217796 170.7632 
Q 288.073428 170.7632 293.9166 170.7632 
" style="fill: none; stroke: #333333; stroke-width: 1.8; stroke-linecap: round"/>
    <path d="M 289.9166 168.7632 
L 293.9166 170.7632 
L 289.9166 172.7632 
" style="fill: none; stroke: #333333; stroke-width: 1.8; stroke-linecap: round"/>
   </g>
   <g id="patch_10">
    <path d="M 413.968296 170.7632 
Q 421.823928 170.7632 427.6671 170.7632 
" style="fill: none; stroke: #333333; stroke-width: 1.8; stroke-linecap: round"/>
    <path d="M 423.6671 168.7632 
L 427.6671 170.7632 
L 423.6671 172.7632 
" style="fill: none; stroke: #333333; stroke-width: 1.8; stroke-linecap: round"/>
   </g>
   <g id="patch_11">
    <path d="M 547.718796 170.7632 
Q 555.574428 170.7632 561.4176 170.7632 
" style="fill: none; stroke: #333333; stroke-width: 1.8; stroke-linecap: round"/>
    <path d="M 557.4176 168.7632 
L 561.4176 170.7632 
L 557.4176 172.7632 
" style="fill: none; stroke: #333333; stroke-width: 1.8; stroke-linecap: round"/>
   </g>
   <g id="patch_12">
    <path d="M 681.469296 170.7632 
Q 689.324928 170.7632 695.1681 170.7632 
" style="fill: none; stroke: #333333; stroke-width: 1.8; stroke-linecap: round"/>
    <path d="M 691.1681 168.7632 
L 695.1681 170.7632 
L 691.1681 172.7632 
" style="fill: none; stroke: #333333; stroke-width: 1.8; stroke-linecap: round"/>
   </g>
   <g id="patch_13">
    <path d="M 689.95491 223.185533 
Q 499.963788 129.069829 308.169339 224.080046 
" style="fill: none; stroke: #6b4c9a; stroke-width: 1.8; stroke-linecap: round"/>
    <path d="M 687.258367 219.617808 
L 689.95491 223.185533 
L 685.482804 223.202132 
" style="fill: none; stroke: #6b4c9a; stroke-width: 1.8; stroke-linecap: round"/>
   </g>
   <g id="text_13">
    <!-- Top-down processing -->
    <g style="fill: #6b4c9a" transform="translate(460.507969 274.339152) scale(0.075 -0.075)">
     <defs>
      <path id="DejaVuSans-Oblique-54" d="M 378 4666 
L 4325 4666 
L 4225 4134 
L 2559 4134 
L 1759 0 
L 1125 0 
L 1925 4134 
L 275 4134 
L 378 4666 
z
" transform="scale(0.015625)"/>
      <path id="DejaVuSans-Oblique-6f" d="M 1625 -91 
Q 1009 -91 651 289 
Q 294 669 294 1325 
Q 294 1706 417 2101 
Q 541 2497 738 2766 
Q 1047 3184 1428 3384 
Q 1809 3584 2291 3584 
Q 2888 3584 3255 3212 
Q 3622 2841 3622 2241 
Q 3622 1825 3500 1412 
Q 3378 1000 3181 728 
Q 2875 309 2494 109 
Q 2113 -91 1625 -91 
z
M 891 1344 
Q 891 869 1089 633 
Q 1288 397 1691 397 
Q 2269 397 2648 901 
Q 3028 1406 3028 2181 
Q 3028 2634 2825 2865 
Q 2622 3097 2228 3097 
Q 1903 3097 1650 2945 
Q 1397 2794 1197 2484 
Q 1050 2253 970 1956 
Q 891 1659 891 1344 
z
" transform="scale(0.015625)"/>
      <path id="DejaVuSans-Oblique-70" d="M 3175 2156 
Q 3175 2616 2975 2859 
Q 2775 3103 2400 3103 
Q 2144 3103 1911 2972 
Q 1678 2841 1497 2591 
Q 1319 2344 1212 1994 
Q 1106 1644 1106 1300 
Q 1106 863 1306 627 
Q 1506 391 1875 391 
Q 2147 391 2380 519 
Q 2613 647 2778 891 
Q 2956 1147 3065 1494 
Q 3175 1841 3175 2156 
z
M 1394 2969 
Q 1625 3272 1939 3428 
Q 2253 3584 2638 3584 
Q 3175 3584 3472 3232 
Q 3769 2881 3769 2247 
Q 3769 1728 3584 1258 
Q 3400 788 3053 416 
Q 2822 169 2531 39 
Q 2241 -91 1919 -91 
Q 1547 -91 1294 64 
Q 1041 219 916 525 
L 556 -1331 
L -19 -1331 
L 922 3500 
L 1497 3500 
L 1394 2969 
z
" transform="scale(0.015625)"/>
      <path id="DejaVuSans-Oblique-2d" d="M 391 2009 
L 2075 2009 
L 1978 1497 
L 288 1497 
L 391 2009 
z
" transform="scale(0.015625)"/>
      <path id="DejaVuSans-Oblique-64" d="M 2675 525 
Q 2444 222 2128 65 
Q 1813 -91 1428 -91 
Q 903 -91 598 267 
Q 294 625 294 1247 
Q 294 1766 478 2236 
Q 663 2706 1013 3078 
Q 1244 3325 1534 3454 
Q 1825 3584 2144 3584 
Q 2481 3584 2739 3421 
Q 2997 3259 3138 2956 
L 3513 4863 
L 4091 4863 
L 3144 0 
L 2566 0 
L 2675 525 
z
M 891 1350 
Q 891 897 1095 644 
Q 1300 391 1663 391 
Q 1931 391 2161 520 
Q 2391 650 2566 903 
Q 2750 1166 2856 1509 
Q 2963 1853 2963 2188 
Q 2963 2622 2758 2865 
Q 2553 3109 2194 3109 
Q 1922 3109 1687 2981 
Q 1453 2853 1288 2613 
Q 1106 2353 998 2009 
Q 891 1666 891 1350 
z
" transform="scale(0.015625)"/>
      <path id="DejaVuSans-Oblique-77" d="M 544 3500 
L 1113 3500 
L 1259 684 
L 2566 3500 
L 3231 3500 
L 3425 684 
L 4666 3500 
L 5241 3500 
L 3641 0 
L 2969 0 
L 2797 2900 
L 1459 0 
L 781 0 
L 544 3500 
z
" transform="scale(0.015625)"/>
      <path id="DejaVuSans-Oblique-6e" d="M 3566 2113 
L 3156 0 
L 2578 0 
L 2988 2091 
Q 3016 2238 3031 2350 
Q 3047 2463 3047 2528 
Q 3047 2791 2881 2937 
Q 2716 3084 2419 3084 
Q 1956 3084 1622 2776 
Q 1288 2469 1184 1941 
L 800 0 
L 225 0 
L 903 3500 
L 1478 3500 
L 1363 2950 
Q 1603 3253 1940 3418 
Q 2278 3584 2650 3584 
Q 3113 3584 3367 3334 
Q 3622 3084 3622 2631 
Q 3622 2519 3608 2391 
Q 3594 2263 3566 2113 
z
" transform="scale(0.015625)"/>
      <path id="DejaVuSans-Oblique-20" transform="scale(0.015625)"/>
      <path id="DejaVuSans-Oblique-72" d="M 2853 2969 
Q 2766 3016 2653 3041 
Q 2541 3066 2413 3066 
Q 1953 3066 1609 2717 
Q 1266 2369 1153 1784 
L 800 0 
L 225 0 
L 909 3500 
L 1484 3500 
L 1375 2956 
Q 1603 3259 1920 3421 
Q 2238 3584 2597 3584 
Q 2691 3584 2781 3573 
Q 2872 3563 2963 3538 
L 2853 2969 
z
" transform="scale(0.015625)"/>
      <path id="DejaVuSans-Oblique-63" d="M 3431 3366 
L 3316 2797 
Q 3109 2947 2876 3022 
Q 2644 3097 2394 3097 
Q 2119 3097 1870 3000 
Q 1622 2903 1453 2725 
Q 1184 2453 1037 2087 
Q 891 1722 891 1331 
Q 891 859 1127 628 
Q 1363 397 1844 397 
Q 2081 397 2348 469 
Q 2616 541 2906 684 
L 2797 116 
Q 2547 13 2283 -39 
Q 2019 -91 1741 -91 
Q 1044 -91 669 257 
Q 294 606 294 1253 
Q 294 1797 489 2255 
Q 684 2713 1069 3078 
Q 1331 3328 1684 3456 
Q 2038 3584 2456 3584 
Q 2700 3584 2940 3529 
Q 3181 3475 3431 3366 
z
" transform="scale(0.015625)"/>
      <path id="DejaVuSans-Oblique-65" d="M 3078 2063 
Q 3088 2113 3092 2166 
Q 3097 2219 3097 2272 
Q 3097 2653 2873 2875 
Q 2650 3097 2266 3097 
Q 1838 3097 1509 2826 
Q 1181 2556 1013 2059 
L 3078 2063 
z
M 3578 1613 
L 903 1613 
Q 884 1494 878 1425 
Q 872 1356 872 1306 
Q 872 872 1139 634 
Q 1406 397 1894 397 
Q 2269 397 2603 481 
Q 2938 566 3225 728 
L 3116 159 
Q 2806 34 2476 -28 
Q 2147 -91 1806 -91 
Q 1078 -91 686 257 
Q 294 606 294 1247 
Q 294 1794 489 2264 
Q 684 2734 1063 3103 
Q 1306 3334 1642 3459 
Q 1978 3584 2356 3584 
Q 2950 3584 3301 3228 
Q 3653 2872 3653 2272 
Q 3653 2128 3634 1964 
Q 3616 1800 3578 1613 
z
" transform="scale(0.015625)"/>
      <path id="DejaVuSans-Oblique-73" d="M 3200 3397 
L 3091 2853 
Q 2863 2978 2609 3040 
Q 2356 3103 2088 3103 
Q 1634 3103 1373 2948 
Q 1113 2794 1113 2528 
Q 1113 2219 1719 2053 
Q 1766 2041 1788 2034 
L 1972 1978 
Q 2547 1819 2739 1644 
Q 2931 1469 2931 1166 
Q 2931 609 2489 259 
Q 2047 -91 1331 -91 
Q 1053 -91 747 -37 
Q 441 16 72 128 
L 184 722 
Q 500 559 806 475 
Q 1113 391 1394 391 
Q 1816 391 2080 572 
Q 2344 753 2344 1031 
Q 2344 1331 1650 1516 
L 1591 1531 
L 1394 1581 
Q 956 1697 753 1886 
Q 550 2075 550 2369 
Q 550 2928 970 3256 
Q 1391 3584 2113 3584 
Q 2397 3584 2667 3537 
Q 2938 3491 3200 3397 
z
" transform="scale(0.015625)"/>
      <path id="DejaVuSans-Oblique-69" d="M 1172 4863 
L 1747 4863 
L 1606 4134 
L 1031 4134 
L 1172 4863 
z
M 909 3500 
L 1484 3500 
L 800 0 
L 225 0 
L 909 3500 
z
" transform="scale(0.015625)"/>
      <path id="DejaVuSans-Oblique-67" d="M 3816 3500 
L 3219 434 
Q 3047 -456 2561 -893 
Q 2075 -1331 1253 -1331 
Q 950 -1331 690 -1286 
Q 431 -1241 206 -1147 
L 313 -588 
Q 525 -725 762 -790 
Q 1000 -856 1269 -856 
Q 1816 -856 2167 -557 
Q 2519 -259 2631 300 
L 2681 563 
Q 2441 288 2122 144 
Q 1803 0 1434 0 
Q 903 0 598 351 
Q 294 703 294 1319 
Q 294 1803 478 2267 
Q 663 2731 997 3091 
Q 1219 3328 1514 3456 
Q 1809 3584 2131 3584 
Q 2484 3584 2746 3420 
Q 3009 3256 3138 2956 
L 3238 3500 
L 3816 3500 
z
M 2950 2216 
Q 2950 2641 2750 2872 
Q 2550 3103 2181 3103 
Q 1953 3103 1747 3012 
Q 1541 2922 1394 2759 
Q 1156 2491 1023 2127 
Q 891 1763 891 1375 
Q 891 944 1092 712 
Q 1294 481 1672 481 
Q 2219 481 2584 976 
Q 2950 1472 2950 2216 
z
" transform="scale(0.015625)"/>
     </defs>
     <use xlink:href="#DejaVuSans-Oblique-54"/>
     <use xlink:href="#DejaVuSans-Oblique-6f" transform="translate(48.708984 0)"/>
     <use xlink:href="#DejaVuSans-Oblique-70" transform="translate(109.890625 0)"/>
     <use xlink:href="#DejaVuSans-Oblique-2d" transform="translate(173.367188 0)"/>
     <use xlink:href="#DejaVuSans-Oblique-64" transform="translate(209.451172 0)"/>
     <use xlink:href="#DejaVuSans-Oblique-6f" transform="translate(272.927734 0)"/>
     <use xlink:href="#DejaVuSans-Oblique-77" transform="translate(334.109375 0)"/>
     <use xlink:href="#DejaVuSans-Oblique-6e" transform="translate(415.896484 0)"/>
     <use xlink:href="#DejaVuSans-Oblique-20" transform="translate(479.275391 0)"/>
     <use xlink:href="#DejaVuSans-Oblique-70" transform="translate(511.0625 0)"/>
     <use xlink:href="#DejaVuSans-Oblique-72" transform="translate(574.539062 0)"/>
     <use xlink:href="#DejaVuSans-Oblique-6f" transform="translate(615.652344 0)"/>
     <use xlink:href="#DejaVuSans-Oblique-63" transform="translate(676.833984 0)"/>
     <use xlink:href="#DejaVuSans-Oblique-65" transform="translate(731.814453 0)"/>
     <use xlink:href="#DejaVuSans-Oblique-73" transform="translate(793.337891 0)"/>
     <use xlink:href="#DejaVuSans-Oblique-73" transform="translate(845.4375 0)"/>
     <use xlink:href="#DejaVuSans-Oblique-69" transform="translate(897.537109 0)"/>
     <use xlink:href="#DejaVuSans-Oblique-6e" transform="translate(925.320312 0)"/>
     <use xlink:href="#DejaVuSans-Oblique-67" transform="translate(988.699219 0)"/>
    </g>
    <!-- (expectations, prior knowledge, attention) -->
    <g style="fill: #6b4c9a" transform="translate(420.665391 282.737511) scale(0.075 -0.075)">
     <defs>
      <path id="DejaVuSans-Oblique-28" d="M 2731 4856 
Q 1903 3822 1495 2892 
Q 1088 1963 1088 1100 
Q 1088 606 1206 120 
Q 1325 -366 1563 -844 
L 1063 -844 
Q 775 -306 634 201 
Q 494 709 494 1197 
Q 494 2125 923 3036 
Q 1353 3947 2222 4856 
L 2731 4856 
z
" transform="scale(0.015625)"/>
      <path id="DejaVuSans-Oblique-78" d="M 3841 3500 
L 2234 1784 
L 3219 0 
L 2559 0 
L 1819 1388 
L 531 0 
L -166 0 
L 1556 1844 
L 641 3500 
L 1300 3500 
L 1972 2234 
L 3144 3500 
L 3841 3500 
z
" transform="scale(0.015625)"/>
      <path id="DejaVuSans-Oblique-74" d="M 2706 3500 
L 2619 3053 
L 1472 3053 
L 1100 1153 
Q 1081 1047 1072 975 
Q 1063 903 1063 863 
Q 1063 663 1183 572 
Q 1303 481 1569 481 
L 2150 481 
L 2053 0 
L 1503 0 
Q 991 0 739 200 
Q 488 400 488 806 
Q 488 878 497 964 
Q 506 1050 525 1153 
L 897 3053 
L 409 3053 
L 500 3500 
L 978 3500 
L 1172 4494 
L 1747 4494 
L 1556 3500 
L 2706 3500 
z
" transform="scale(0.015625)"/>
      <path id="DejaVuSans-Oblique-61" d="M 3438 1997 
L 3047 0 
L 2472 0 
L 2578 531 
Q 2325 219 2001 64 
Q 1678 -91 1281 -91 
Q 834 -91 548 182 
Q 263 456 263 884 
Q 263 1497 752 1853 
Q 1241 2209 2100 2209 
L 2900 2209 
L 2931 2363 
Q 2938 2388 2941 2417 
Q 2944 2447 2944 2509 
Q 2944 2788 2717 2942 
Q 2491 3097 2081 3097 
Q 1800 3097 1504 3025 
Q 1209 2953 897 2809 
L 997 3341 
Q 1322 3463 1633 3523 
Q 1944 3584 2234 3584 
Q 2853 3584 3176 3315 
Q 3500 3047 3500 2534 
Q 3500 2431 3484 2292 
Q 3469 2153 3438 1997 
z
M 2816 1759 
L 2241 1759 
Q 1534 1759 1195 1570 
Q 856 1381 856 984 
Q 856 709 1029 553 
Q 1203 397 1509 397 
Q 1978 397 2328 733 
Q 2678 1069 2791 1631 
L 2816 1759 
z
" transform="scale(0.015625)"/>
      <path id="DejaVuSans-Oblique-2c" d="M 575 794 
L 1234 794 
L 1131 256 
L 422 -744 
L 19 -744 
L 469 256 
L 575 794 
z
" transform="scale(0.015625)"/>
      <path id="DejaVuSans-Oblique-6b" d="M 1172 4863 
L 1747 4863 
L 1197 2028 
L 3169 3500 
L 3916 3500 
L 1716 1825 
L 3322 0 
L 2625 0 
L 1131 1709 
L 800 0 
L 225 0 
L 1172 4863 
z
" transform="scale(0.015625)"/>
      <path id="DejaVuSans-Oblique-6c" d="M 1172 4863 
L 1747 4863 
L 800 0 
L 225 0 
L 1172 4863 
z
" transform="scale(0.015625)"/>
      <path id="DejaVuSans-Oblique-29" d="M -397 -844 
Q 434 191 840 1120 
Q 1247 2050 1247 2913 
Q 1247 3406 1130 3892 
Q 1013 4378 775 4856 
L 1275 4856 
Q 1563 4316 1703 3812 
Q 1844 3309 1844 2822 
Q 1844 1891 1411 973 
Q 978 56 116 -844 
L -397 -844 
z
" transform="scale(0.015625)"/>
     </defs>
     <use xlink:href="#DejaVuSans-Oblique-28"/>
     <use xlink:href="#DejaVuSans-Oblique-65" transform="translate(39.013672 0)"/>
     <use xlink:href="#DejaVuSans-Oblique-78" transform="translate(100.537109 0)"/>
     <use xlink:href="#DejaVuSans-Oblique-70" transform="translate(159.716797 0)"/>
     <use xlink:href="#DejaVuSans-Oblique-65" transform="translate(223.193359 0)"/>
     <use xlink:href="#DejaVuSans-Oblique-63" transform="translate(284.716797 0)"/>
     <use xlink:href="#DejaVuSans-Oblique-74" transform="translate(339.697266 0)"/>
     <use xlink:href="#DejaVuSans-Oblique-61" transform="translate(378.90625 0)"/>
     <use xlink:href="#DejaVuSans-Oblique-74" transform="translate(440.185547 0)"/>
     <use xlink:href="#DejaVuSans-Oblique-69" transform="translate(479.394531 0)"/>
     <use xlink:href="#DejaVuSans-Oblique-6f" transform="translate(507.177734 0)"/>
     <use xlink:href="#DejaVuSans-Oblique-6e" transform="translate(568.359375 0)"/>
     <use xlink:href="#DejaVuSans-Oblique-73" transform="translate(631.738281 0)"/>
     <use xlink:href="#DejaVuSans-Oblique-2c" transform="translate(683.837891 0)"/>
     <use xlink:href="#DejaVuSans-Oblique-20" transform="translate(715.625 0)"/>
     <use xlink:href="#DejaVuSans-Oblique-70" transform="translate(747.412109 0)"/>
     <use xlink:href="#DejaVuSans-Oblique-72" transform="translate(810.888672 0)"/>
     <use xlink:href="#DejaVuSans-Oblique-69" transform="translate(852.001953 0)"/>
     <use xlink:href="#DejaVuSans-Oblique-6f" transform="translate(879.785156 0)"/>
     <use xlink:href="#DejaVuSans-Oblique-72" transform="translate(940.966797 0)"/>
     <use xlink:href="#DejaVuSans-Oblique-20" transform="translate(982.080078 0)"/>
     <use xlink:href="#DejaVuSans-Oblique-6b" transform="translate(1013.867188 0)"/>
     <use xlink:href="#DejaVuSans-Oblique-6e" transform="translate(1071.777344 0)"/>
     <use xlink:href="#DejaVuSans-Oblique-6f" transform="translate(1135.15625 0)"/>
     <use xlink:href="#DejaVuSans-Oblique-77" transform="translate(1196.337891 0)"/>
     <use xlink:href="#DejaVuSans-Oblique-6c" transform="translate(1278.125 0)"/>
     <use xlink:href="#DejaVuSans-Oblique-65" transform="translate(1305.908203 0)"/>
     <use xlink:href="#DejaVuSans-Oblique-64" transform="translate(1367.431641 0)"/>
     <use xlink:href="#DejaVuSans-Oblique-67" transform="translate(1430.908203 0)"/>
     <use xlink:href="#DejaVuSans-Oblique-65" transform="translate(1494.384766 0)"/>
     <use xlink:href="#DejaVuSans-Oblique-2c" transform="translate(1555.908203 0)"/>
     <use xlink:href="#DejaVuSans-Oblique-20" transform="translate(1587.695312 0)"/>
     <use xlink:href="#DejaVuSans-Oblique-61" transform="translate(1619.482422 0)"/>
     <use xlink:href="#DejaVuSans-Oblique-74" transform="translate(1680.761719 0)"/>
     <use xlink:href="#DejaVuSans-Oblique-74" transform="translate(1719.970703 0)"/>
     <use xlink:href="#DejaVuSans-Oblique-65" transform="translate(1759.179688 0)"/>
     <use xlink:href="#DejaVuSans-Oblique-6e" transform="translate(1820.703125 0)"/>
     <use xlink:href="#DejaVuSans-Oblique-74" transform="translate(1884.082031 0)"/>
     <use xlink:href="#DejaVuSans-Oblique-69" transform="translate(1923.291016 0)"/>
     <use xlink:href="#DejaVuSans-Oblique-6f" transform="translate(1951.074219 0)"/>
     <use xlink:href="#DejaVuSans-Oblique-6e" transform="translate(2012.255859 0)"/>
     <use xlink:href="#DejaVuSans-Oblique-29" transform="translate(2075.634766 0)"/>
    </g>
   </g>
   <g id="text_14">
    <!-- Bottom-up: sensation builds from raw data     ←→     Top-down: perception is shaped by what we already know -->
    <g style="fill: #666666" transform="translate(201.097031 312.280362) scale(0.07 -0.07)">
     <defs>
      <path id="DejaVuSans-42" d="M 1259 2228 
L 1259 519 
L 2272 519 
Q 2781 519 3026 730 
Q 3272 941 3272 1375 
Q 3272 1813 3026 2020 
Q 2781 2228 2272 2228 
L 1259 2228 
z
M 1259 4147 
L 1259 2741 
L 2194 2741 
Q 2656 2741 2882 2914 
Q 3109 3088 3109 3444 
Q 3109 3797 2882 3972 
Q 2656 4147 2194 4147 
L 1259 4147 
z
M 628 4666 
L 2241 4666 
Q 2963 4666 3353 4366 
Q 3744 4066 3744 3513 
Q 3744 3084 3544 2831 
Q 3344 2578 2956 2516 
Q 3422 2416 3680 2098 
Q 3938 1781 3938 1306 
Q 3938 681 3513 340 
Q 3088 0 2303 0 
L 628 0 
L 628 4666 
z
" transform="scale(0.015625)"/>
      <path id="DejaVuSans-2d" d="M 313 2009 
L 1997 2009 
L 1997 1497 
L 313 1497 
L 313 2009 
z
" transform="scale(0.015625)"/>
      <path id="DejaVuSans-3a" d="M 750 794 
L 1409 794 
L 1409 0 
L 750 0 
L 750 794 
z
M 750 3309 
L 1409 3309 
L 1409 2516 
L 750 2516 
L 750 3309 
z
" transform="scale(0.015625)"/>
      <path id="DejaVuSans-2190" d="M 313 1866 
L 313 2147 
L 1541 3375 
L 1916 3000 
L 1188 2272 
L 4997 2272 
L 4997 1741 
L 1188 1741 
L 1916 1013 
L 1541 638 
L 313 1866 
z
" transform="scale(0.015625)"/>
      <path id="DejaVuSans-2192" d="M 5050 2147 
L 5050 1866 
L 3822 638 
L 3447 1013 
L 4175 1741 
L 366 1741 
L 366 2272 
L 4175 2272 
L 3447 3000 
L 3822 3375 
L 5050 2147 
z
" transform="scale(0.015625)"/>
      <path id="DejaVuSans-54" d="M -19 4666 
L 3928 4666 
L 3928 4134 
L 2272 4134 
L 2272 0 
L 1638 0 
L 1638 4134 
L -19 4134 
L -19 4666 
z
" transform="scale(0.015625)"/>
      <path id="DejaVuSans-79" d="M 2059 -325 
Q 1816 -950 1584 -1140 
Q 1353 -1331 966 -1331 
L 506 -1331 
L 506 -850 
L 844 -850 
Q 1081 -850 1212 -737 
Q 1344 -625 1503 -206 
L 1606 56 
L 191 3500 
L 800 3500 
L 1894 763 
L 2988 3500 
L 3597 3500 
L 2059 -325 
z
" transform="scale(0.015625)"/>
     </defs>
     <use xlink:href="#DejaVuSans-42"/>
     <use xlink:href="#DejaVuSans-6f" transform="translate(68.603516 0)"/>
     <use xlink:href="#DejaVuSans-74" transform="translate(129.785156 0)"/>
     <use xlink:href="#DejaVuSans-74" transform="translate(168.994141 0)"/>
     <use xlink:href="#DejaVuSans-6f" transform="translate(208.203125 0)"/>
     <use xlink:href="#DejaVuSans-6d" transform="translate(269.384766 0)"/>
     <use xlink:href="#DejaVuSans-2d" transform="translate(366.796875 0)"/>
     <use xlink:href="#DejaVuSans-75" transform="translate(402.880859 0)"/>
     <use xlink:href="#DejaVuSans-70" transform="translate(466.259766 0)"/>
     <use xlink:href="#DejaVuSans-3a" transform="translate(529.736328 0)"/>
     <use xlink:href="#DejaVuSans-20" transform="translate(563.427734 0)"/>
     <use xlink:href="#DejaVuSans-73" transform="translate(595.214844 0)"/>
     <use xlink:href="#DejaVuSans-65" transform="translate(647.314453 0)"/>
     <use xlink:href="#DejaVuSans-6e" transform="translate(708.837891 0)"/>
     <use xlink:href="#DejaVuSans-73" transform="translate(772.216797 0)"/>
     <use xlink:href="#DejaVuSans-61" transform="translate(824.316406 0)"/>
     <use xlink:href="#DejaVuSans-74" transform="translate(885.595703 0)"/>
     <use xlink:href="#DejaVuSans-69" transform="translate(924.804688 0)"/>
     <use xlink:href="#DejaVuSans-6f" transform="translate(952.587891 0)"/>
     <use xlink:href="#DejaVuSans-6e" transform="translate(1013.769531 0)"/>
     <use xlink:href="#DejaVuSans-20" transform="translate(1077.148438 0)"/>
     <use xlink:href="#DejaVuSans-62" transform="translate(1108.935547 0)"/>
     <use xlink:href="#DejaVuSans-75" transform="translate(1172.412109 0)"/>
     <use xlink:href="#DejaVuSans-69" transform="translate(1235.791016 0)"/>
     <use xlink:href="#DejaVuSans-6c" transform="translate(1263.574219 0)"/>
     <use xlink:href="#DejaVuSans-64" transform="translate(1291.357422 0)"/>
     <use xlink:href="#DejaVuSans-73" transform="translate(1354.833984 0)"/>
     <use xlink:href="#DejaVuSans-20" transform="translate(1406.933594 0)"/>
     <use xlink:href="#DejaVuSans-66" transform="translate(1438.720703 0)"/>
     <use xlink:href="#DejaVuSans-72" transform="translate(1473.925781 0)"/>
     <use xlink:href="#DejaVuSans-6f" transform="translate(1512.789062 0)"/>
     <use xlink:href="#DejaVuSans-6d" transform="translate(1573.970703 0)"/>
     <use xlink:href="#DejaVuSans-20" transform="translate(1671.382812 0)"/>
     <use xlink:href="#DejaVuSans-72" transform="translate(1703.169922 0)"/>
     <use xlink:href="#DejaVuSans-61" transform="translate(1744.283203 0)"/>
     <use xlink:href="#DejaVuSans-77" transform="translate(1805.5625 0)"/>
     <use xlink:href="#DejaVuSans-20" transform="translate(1887.349609 0)"/>
     <use xlink:href="#DejaVuSans-64" transform="translate(1919.136719 0)"/>
     <use xlink:href="#DejaVuSans-61" transform="translate(1982.613281 0)"/>
     <use xlink:href="#DejaVuSans-74" transform="translate(2043.892578 0)"/>
     <use xlink:href="#DejaVuSans-61" transform="translate(2083.101562 0)"/>
     <use xlink:href="#DejaVuSans-20" transform="translate(2144.380859 0)"/>
     <use xlink:href="#DejaVuSans-20" transform="translate(2176.167969 0)"/>
     <use xlink:href="#DejaVuSans-20" transform="translate(2207.955078 0)"/>
     <use xlink:href="#DejaVuSans-20" transform="translate(2239.742188 0)"/>
     <use xlink:href="#DejaVuSans-20" transform="translate(2271.529297 0)"/>
     <use xlink:href="#DejaVuSans-2190" transform="translate(2303.316406 0)"/>
     <use xlink:href="#DejaVuSans-2192" transform="translate(2387.105469 0)"/>
     <use xlink:href="#DejaVuSans-20" transform="translate(2470.894531 0)"/>
     <use xlink:href="#DejaVuSans-20" transform="translate(2502.681641 0)"/>
     <use xlink:href="#DejaVuSans-20" transform="translate(2534.46875 0)"/>
     <use xlink:href="#DejaVuSans-20" transform="translate(2566.255859 0)"/>
     <use xlink:href="#DejaVuSans-20" transform="translate(2598.042969 0)"/>
     <use xlink:href="#DejaVuSans-54" transform="translate(2629.830078 0)"/>
     <use xlink:href="#DejaVuSans-6f" transform="translate(2673.914062 0)"/>
     <use xlink:href="#DejaVuSans-70" transform="translate(2735.095703 0)"/>
     <use xlink:href="#DejaVuSans-2d" transform="translate(2798.572266 0)"/>
     <use xlink:href="#DejaVuSans-64" transform="translate(2834.65625 0)"/>
     <use xlink:href="#DejaVuSans-6f" transform="translate(2898.132812 0)"/>
     <use xlink:href="#DejaVuSans-77" transform="translate(2959.314453 0)"/>
     <use xlink:href="#DejaVuSans-6e" transform="translate(3041.101562 0)"/>
     <use xlink:href="#DejaVuSans-3a" transform="translate(3104.480469 0)"/>
     <use xlink:href="#DejaVuSans-20" transform="translate(3138.171875 0)"/>
     <use xlink:href="#DejaVuSans-70" transform="translate(3169.958984 0)"/>
     <use xlink:href="#DejaVuSans-65" transform="translate(3233.435547 0)"/>
     <use xlink:href="#DejaVuSans-72" transform="translate(3294.958984 0)"/>
     <use xlink:href="#DejaVuSans-63" transform="translate(3333.822266 0)"/>
     <use xlink:href="#DejaVuSans-65" transform="translate(3388.802734 0)"/>
     <use xlink:href="#DejaVuSans-70" transform="translate(3450.326172 0)"/>
     <use xlink:href="#DejaVuSans-74" transform="translate(3513.802734 0)"/>
     <use xlink:href="#DejaVuSans-69" transform="translate(3553.011719 0)"/>
     <use xlink:href="#DejaVuSans-6f" transform="translate(3580.794922 0)"/>
     <use xlink:href="#DejaVuSans-6e" transform="translate(3641.976562 0)"/>
     <use xlink:href="#DejaVuSans-20" transform="translate(3705.355469 0)"/>
     <use xlink:href="#DejaVuSans-69" transform="translate(3737.142578 0)"/>
     <use xlink:href="#DejaVuSans-73" transform="translate(3764.925781 0)"/>
     <use xlink:href="#DejaVuSans-20" transform="translate(3817.025391 0)"/>
     <use xlink:href="#DejaVuSans-73" transform="translate(3848.8125 0)"/>
     <use xlink:href="#DejaVuSans-68" transform="translate(3900.912109 0)"/>
     <use xlink:href="#DejaVuSans-61" transform="translate(3964.291016 0)"/>
     <use xlink:href="#DejaVuSans-70" transform="translate(4025.570312 0)"/>
     <use xlink:href="#DejaVuSans-65" transform="translate(4089.046875 0)"/>
     <use xlink:href="#DejaVuSans-64" transform="translate(4150.570312 0)"/>
     <use xlink:href="#DejaVuSans-20" transform="translate(4214.046875 0)"/>
     <use xlink:href="#DejaVuSans-62" transform="translate(4245.833984 0)"/>
     <use xlink:href="#DejaVuSans-79" transform="translate(4309.310547 0)"/>
     <use xlink:href="#DejaVuSans-20" transform="translate(4368.490234 0)"/>
     <use xlink:href="#DejaVuSans-77" transform="translate(4400.277344 0)"/>
     <use xlink:href="#DejaVuSans-68" transform="translate(4482.064453 0)"/>
     <use xlink:href="#DejaVuSans-61" transform="translate(4545.443359 0)"/>
     <use xlink:href="#DejaVuSans-74" transform="translate(4606.722656 0)"/>
     <use xlink:href="#DejaVuSans-20" transform="translate(4645.931641 0)"/>
     <use xlink:href="#DejaVuSans-77" transform="translate(4677.71875 0)"/>
     <use xlink:href="#DejaVuSans-65" transform="translate(4759.505859 0)"/>
     <use xlink:href="#DejaVuSans-20" transform="translate(4821.029297 0)"/>
     <use xlink:href="#DejaVuSans-61" transform="translate(4852.816406 0)"/>
     <use xlink:href="#DejaVuSans-6c" transform="translate(4914.095703 0)"/>
     <use xlink:href="#DejaVuSans-72" transform="translate(4941.878906 0)"/>
     <use xlink:href="#DejaVuSans-65" transform="translate(4980.742188 0)"/>
     <use xlink:href="#DejaVuSans-61" transform="translate(5042.265625 0)"/>
     <use xlink:href="#DejaVuSans-64" transform="translate(5103.544922 0)"/>
     <use xlink:href="#DejaVuSans-79" transform="translate(5167.021484 0)"/>
     <use xlink:href="#DejaVuSans-20" transform="translate(5226.201172 0)"/>
     <use xlink:href="#DejaVuSans-6b" transform="translate(5257.988281 0)"/>
     <use xlink:href="#DejaVuSans-6e" transform="translate(5315.898438 0)"/>
     <use xlink:href="#DejaVuSans-6f" transform="translate(5379.277344 0)"/>
     <use xlink:href="#DejaVuSans-77" transform="translate(5440.458984 0)"/>
    </g>
   </g>
  </g>
  <g id="text_15">
   <!-- Figure 4.1   From Sensation to Perception -->
   <g style="fill: #1a1a1a" transform="translate(282.446094 14.798437) scale(0.1 -0.1)">
    <defs>
     <path id="DejaVuSans-Bold-46" d="M 588 4666 
L 3834 4666 
L 3834 3756 
L 1791 3756 
L 1791 2888 
L 3713 2888 
L 3713 1978 
L 1791 1978 
L 1791 0 
L 588 0 
L 588 4666 
z
" transform="scale(0.015625)"/>
     <path id="DejaVuSans-Bold-34" d="M 2356 3675 
L 1038 1722 
L 2356 1722 
L 2356 3675 
z
M 2156 4666 
L 3494 4666 
L 3494 1722 
L 4159 1722 
L 4159 850 
L 3494 850 
L 3494 0 
L 2356 0 
L 2356 850 
L 288 850 
L 288 1881 
L 2156 4666 
z
" transform="scale(0.015625)"/>
     <path id="DejaVuSans-Bold-2e" d="M 653 1209 
L 1778 1209 
L 1778 0 
L 653 0 
L 653 1209 
z
" transform="scale(0.015625)"/>
     <path id="DejaVuSans-Bold-31" d="M 750 831 
L 1813 831 
L 1813 3847 
L 722 3622 
L 722 4441 
L 1806 4666 
L 2950 4666 
L 2950 831 
L 4013 831 
L 4013 0 
L 750 0 
L 750 831 
z
" transform="scale(0.015625)"/>
    </defs>
    <use xlink:href="#DejaVuSans-Bold-46"/>
    <use xlink:href="#DejaVuSans-Bold-69" transform="translate(68.310547 0)"/>
    <use xlink:href="#DejaVuSans-Bold-67" transform="translate(102.587891 0)"/>
    <use xlink:href="#DejaVuSans-Bold-75" transform="translate(174.169922 0)"/>
    <use xlink:href="#DejaVuSans-Bold-72" transform="translate(245.361328 0)"/>
    <use xlink:href="#DejaVuSans-Bold-65" transform="translate(294.677734 0)"/>
    <use xlink:href="#DejaVuSans-Bold-20" transform="translate(362.5 0)"/>
    <use xlink:href="#DejaVuSans-Bold-34" transform="translate(397.314453 0)"/>
    <use xlink:href="#DejaVuSans-Bold-2e" transform="translate(466.894531 0)"/>
    <use xlink:href="#DejaVuSans-Bold-31" transform="translate(504.882812 0)"/>
    <use xlink:href="#DejaVuSans-Bold-20" transform="translate(574.462891 0)"/>
    <use xlink:href="#DejaVuSans-Bold-20" transform="translate(609.277344 0)"/>
    <use xlink:href="#DejaVuSans-Bold-20" transform="translate(644.091797 0)"/>
    <use xlink:href="#DejaVuSans-Bold-46" transform="translate(678.90625 0)"/>
    <use xlink:href="#DejaVuSans-Bold-72" transform="translate(740.841797 0)"/>
    <use xlink:href="#DejaVuSans-Bold-6f" transform="translate(790.158203 0)"/>
    <use xlink:href="#DejaVuSans-Bold-6d" transform="translate(858.859375 0)"/>
    <use xlink:href="#DejaVuSans-Bold-20" transform="translate(963.058594 0)"/>
    <use xlink:href="#DejaVuSans-Bold-53" transform="translate(997.873047 0)"/>
    <use xlink:href="#DejaVuSans-Bold-65" transform="translate(1069.894531 0)"/>
    <use xlink:href="#DejaVuSans-Bold-6e" transform="translate(1137.716797 0)"/>
    <use xlink:href="#DejaVuSans-Bold-73" transform="translate(1208.908203 0)"/>
    <use xlink:href="#DejaVuSans-Bold-61" transform="translate(1268.429688 0)"/>
    <use xlink:href="#DejaVuSans-Bold-74" transform="translate(1335.910156 0)"/>
    <use xlink:href="#DejaVuSans-Bold-69" transform="translate(1383.712891 0)"/>
    <use xlink:href="#DejaVuSans-Bold-6f" transform="translate(1417.990234 0)"/>
    <use xlink:href="#DejaVuSans-Bold-6e" transform="translate(1486.691406 0)"/>
    <use xlink:href="#DejaVuSans-Bold-20" transform="translate(1557.882812 0)"/>
    <use xlink:href="#DejaVuSans-Bold-74" transform="translate(1592.697266 0)"/>
    <use xlink:href="#DejaVuSans-Bold-6f" transform="translate(1640.5 0)"/>
    <use xlink:href="#DejaVuSans-Bold-20" transform="translate(1709.201172 0)"/>
    <use xlink:href="#DejaVuSans-Bold-50" transform="translate(1744.015625 0)"/>
    <use xlink:href="#DejaVuSans-Bold-65" transform="translate(1817.306641 0)"/>
    <use xlink:href="#DejaVuSans-Bold-72" transform="translate(1885.128906 0)"/>
    <use xlink:href="#DejaVuSans-Bold-63" transform="translate(1934.445312 0)"/>
    <use xlink:href="#DejaVuSans-Bold-65" transform="translate(1993.722656 0)"/>
    <use xlink:href="#DejaVuSans-Bold-70" transform="translate(2061.544922 0)"/>
    <use xlink:href="#DejaVuSans-Bold-74" transform="translate(2133.126953 0)"/>
    <use xlink:href="#DejaVuSans-Bold-69" transform="translate(2180.929688 0)"/>
    <use xlink:href="#DejaVuSans-Bold-6f" transform="translate(2215.207031 0)"/>
    <use xlink:href="#DejaVuSans-Bold-6e" transform="translate(2283.908203 0)"/>
   </g>
  </g>
 </g>
 <defs>
  <clipPath id="p1da222024e">
   <rect x="7.2" y="13.56" width="774.345" height="304.92"/>
  </clipPath>
 </defs>
</svg>
