<?xml version="1.0" encoding="utf-8" standalone="no"?>
<!DOCTYPE svg PUBLIC "-//W3C//DTD SVG 1.1//EN"
  "http://www.w3.org/Graphics/SVG/1.1/DTD/svg11.dtd">
<svg xmlns:xlink="http://www.w3.org/1999/xlink" width="945.611765pt" height="645.12pt" viewBox="0 0 945.611765 645.12" xmlns="http://www.w3.org/2000/svg" version="1.1">
 <metadata>
  <rdf:RDF xmlns:dc="http://purl.org/dc/elements/1.1/" xmlns:cc="http://creativecommons.org/ns#" xmlns:rdf="http://www.w3.org/1999/02/22-rdf-syntax-ns#">
   <cc:Work>
    <dc:type rdf:resource="http://purl.org/dc/dcmitype/StillImage"/>
    <dc:date>2026-07-01T12:58:05.255948</dc:date>
    <dc:format>image/svg+xml</dc:format>
    <dc:creator>
     <cc:Agent>
      <dc:title>Matplotlib v3.10.9, https://matplotlib.org/</dc:title>
     </cc:Agent>
    </dc:creator>
   </cc:Work>
  </rdf:RDF>
 </metadata>
 <defs>
  <style type="text/css">*{stroke-linejoin: round; stroke-linecap: butt}</style>
 </defs>
 <g id="figure_1">
  <g id="patch_1">
   <path d="M 0 645.12 
L 945.611765 645.12 
L 945.611765 0 
L 0 0 
z
" style="fill: #ffffff"/>
  </g>
  <g id="axes_1">
   <g id="line2d_1">
    <defs>
     <path id="m8f7576baf0" d="M 0 4.5 
C 1.193414 4.5 2.338109 4.025852 3.181981 3.181981 
C 4.025852 2.338109 4.5 1.193414 4.5 0 
C 4.5 -1.193414 4.025852 -2.338109 3.181981 -3.181981 
C 2.338109 -4.025852 1.193414 -4.5 0 -4.5 
C -1.193414 -4.5 -2.338109 -4.025852 -3.181981 -3.181981 
C -4.025852 -2.338109 -4.5 -1.193414 -4.5 0 
C -4.5 1.193414 -4.025852 2.338109 -3.181981 3.181981 
C -2.338109 4.025852 -1.193414 4.5 0 4.5 
z
" style="stroke: #1a1a2e"/>
    </defs>
    <g clip-path="url(#pa352dcf557)">
     <use xlink:href="#m8f7576baf0" x="60.68" y="256.072" style="fill: #1a1a2e; stroke: #1a1a2e"/>
    </g>
   </g>
   <g id="line2d_2">
    <g clip-path="url(#pa352dcf557)">
     <use xlink:href="#m8f7576baf0" x="60.68" y="215.962" style="fill: #1a1a2e; stroke: #1a1a2e"/>
    </g>
   </g>
   <g id="line2d_3">
    <g clip-path="url(#pa352dcf557)">
     <use xlink:href="#m8f7576baf0" x="60.68" y="175.852" style="fill: #1a1a2e; stroke: #1a1a2e"/>
    </g>
   </g>
   <g id="line2d_4">
    <g clip-path="url(#pa352dcf557)">
     <use xlink:href="#m8f7576baf0" x="60.68" y="135.742" style="fill: #1a1a2e; stroke: #1a1a2e"/>
    </g>
   </g>
   <g id="line2d_5">
    <g clip-path="url(#pa352dcf557)">
     <use xlink:href="#m8f7576baf0" x="82.072" y="256.072" style="fill: #1a1a2e; stroke: #1a1a2e"/>
    </g>
   </g>
   <g id="line2d_6">
    <g clip-path="url(#pa352dcf557)">
     <use xlink:href="#m8f7576baf0" x="82.072" y="215.962" style="fill: #1a1a2e; stroke: #1a1a2e"/>
    </g>
   </g>
   <g id="line2d_7">
    <g clip-path="url(#pa352dcf557)">
     <use xlink:href="#m8f7576baf0" x="82.072" y="175.852" style="fill: #1a1a2e; stroke: #1a1a2e"/>
    </g>
   </g>
   <g id="line2d_8">
    <g clip-path="url(#pa352dcf557)">
     <use xlink:href="#m8f7576baf0" x="82.072" y="135.742" style="fill: #1a1a2e; stroke: #1a1a2e"/>
    </g>
   </g>
   <g id="line2d_9">
    <g clip-path="url(#pa352dcf557)">
     <use xlink:href="#m8f7576baf0" x="103.464" y="256.072" style="fill: #1a1a2e; stroke: #1a1a2e"/>
    </g>
   </g>
   <g id="line2d_10">
    <g clip-path="url(#pa352dcf557)">
     <use xlink:href="#m8f7576baf0" x="103.464" y="215.962" style="fill: #1a1a2e; stroke: #1a1a2e"/>
    </g>
   </g>
   <g id="line2d_11">
    <g clip-path="url(#pa352dcf557)">
     <use xlink:href="#m8f7576baf0" x="103.464" y="175.852" style="fill: #1a1a2e; stroke: #1a1a2e"/>
    </g>
   </g>
   <g id="line2d_12">
    <g clip-path="url(#pa352dcf557)">
     <use xlink:href="#m8f7576baf0" x="103.464" y="135.742" style="fill: #1a1a2e; stroke: #1a1a2e"/>
    </g>
   </g>
   <g id="line2d_13">
    <g clip-path="url(#pa352dcf557)">
     <use xlink:href="#m8f7576baf0" x="151.596" y="256.072" style="fill: #1a1a2e; stroke: #1a1a2e"/>
    </g>
   </g>
   <g id="line2d_14">
    <g clip-path="url(#pa352dcf557)">
     <use xlink:href="#m8f7576baf0" x="151.596" y="215.962" style="fill: #1a1a2e; stroke: #1a1a2e"/>
    </g>
   </g>
   <g id="line2d_15">
    <g clip-path="url(#pa352dcf557)">
     <use xlink:href="#m8f7576baf0" x="151.596" y="175.852" style="fill: #1a1a2e; stroke: #1a1a2e"/>
    </g>
   </g>
   <g id="line2d_16">
    <g clip-path="url(#pa352dcf557)">
     <use xlink:href="#m8f7576baf0" x="151.596" y="135.742" style="fill: #1a1a2e; stroke: #1a1a2e"/>
    </g>
   </g>
   <g id="line2d_17">
    <g clip-path="url(#pa352dcf557)">
     <use xlink:href="#m8f7576baf0" x="172.988" y="256.072" style="fill: #1a1a2e; stroke: #1a1a2e"/>
    </g>
   </g>
   <g id="line2d_18">
    <g clip-path="url(#pa352dcf557)">
     <use xlink:href="#m8f7576baf0" x="172.988" y="215.962" style="fill: #1a1a2e; stroke: #1a1a2e"/>
    </g>
   </g>
   <g id="line2d_19">
    <g clip-path="url(#pa352dcf557)">
     <use xlink:href="#m8f7576baf0" x="172.988" y="175.852" style="fill: #1a1a2e; stroke: #1a1a2e"/>
    </g>
   </g>
   <g id="line2d_20">
    <g clip-path="url(#pa352dcf557)">
     <use xlink:href="#m8f7576baf0" x="172.988" y="135.742" style="fill: #1a1a2e; stroke: #1a1a2e"/>
    </g>
   </g>
   <g id="line2d_21">
    <g clip-path="url(#pa352dcf557)">
     <use xlink:href="#m8f7576baf0" x="194.38" y="256.072" style="fill: #1a1a2e; stroke: #1a1a2e"/>
    </g>
   </g>
   <g id="line2d_22">
    <g clip-path="url(#pa352dcf557)">
     <use xlink:href="#m8f7576baf0" x="194.38" y="215.962" style="fill: #1a1a2e; stroke: #1a1a2e"/>
    </g>
   </g>
   <g id="line2d_23">
    <g clip-path="url(#pa352dcf557)">
     <use xlink:href="#m8f7576baf0" x="194.38" y="175.852" style="fill: #1a1a2e; stroke: #1a1a2e"/>
    </g>
   </g>
   <g id="line2d_24">
    <g clip-path="url(#pa352dcf557)">
     <use xlink:href="#m8f7576baf0" x="194.38" y="135.742" style="fill: #1a1a2e; stroke: #1a1a2e"/>
    </g>
   </g>
   <g id="text_1">
    <!-- group 1 -->
    <g style="fill: #4a4a6a" transform="translate(64.609891 293.508) scale(0.09 -0.09)">
     <defs>
      <path id="DejaVuSans-Oblique-67" d="M 3816 3500 
L 3219 434 
Q 3047 -456 2561 -893 
Q 2075 -1331 1253 -1331 
Q 950 -1331 690 -1286 
Q 431 -1241 206 -1147 
L 313 -588 
Q 525 -725 762 -790 
Q 1000 -856 1269 -856 
Q 1816 -856 2167 -557 
Q 2519 -259 2631 300 
L 2681 563 
Q 2441 288 2122 144 
Q 1803 0 1434 0 
Q 903 0 598 351 
Q 294 703 294 1319 
Q 294 1803 478 2267 
Q 663 2731 997 3091 
Q 1219 3328 1514 3456 
Q 1809 3584 2131 3584 
Q 2484 3584 2746 3420 
Q 3009 3256 3138 2956 
L 3238 3500 
L 3816 3500 
z
M 2950 2216 
Q 2950 2641 2750 2872 
Q 2550 3103 2181 3103 
Q 1953 3103 1747 3012 
Q 1541 2922 1394 2759 
Q 1156 2491 1023 2127 
Q 891 1763 891 1375 
Q 891 944 1092 712 
Q 1294 481 1672 481 
Q 2219 481 2584 976 
Q 2950 1472 2950 2216 
z
" transform="scale(0.015625)"/>
      <path id="DejaVuSans-Oblique-72" d="M 2853 2969 
Q 2766 3016 2653 3041 
Q 2541 3066 2413 3066 
Q 1953 3066 1609 2717 
Q 1266 2369 1153 1784 
L 800 0 
L 225 0 
L 909 3500 
L 1484 3500 
L 1375 2956 
Q 1603 3259 1920 3421 
Q 2238 3584 2597 3584 
Q 2691 3584 2781 3573 
Q 2872 3563 2963 3538 
L 2853 2969 
z
" transform="scale(0.015625)"/>
      <path id="DejaVuSans-Oblique-6f" d="M 1625 -91 
Q 1009 -91 651 289 
Q 294 669 294 1325 
Q 294 1706 417 2101 
Q 541 2497 738 2766 
Q 1047 3184 1428 3384 
Q 1809 3584 2291 3584 
Q 2888 3584 3255 3212 
Q 3622 2841 3622 2241 
Q 3622 1825 3500 1412 
Q 3378 1000 3181 728 
Q 2875 309 2494 109 
Q 2113 -91 1625 -91 
z
M 891 1344 
Q 891 869 1089 633 
Q 1288 397 1691 397 
Q 2269 397 2648 901 
Q 3028 1406 3028 2181 
Q 3028 2634 2825 2865 
Q 2622 3097 2228 3097 
Q 1903 3097 1650 2945 
Q 1397 2794 1197 2484 
Q 1050 2253 970 1956 
Q 891 1659 891 1344 
z
" transform="scale(0.015625)"/>
      <path id="DejaVuSans-Oblique-75" d="M 428 1388 
L 838 3500 
L 1416 3500 
L 1006 1409 
Q 975 1256 961 1147 
Q 947 1038 947 966 
Q 947 700 1109 554 
Q 1272 409 1569 409 
Q 2031 409 2368 721 
Q 2706 1034 2809 1563 
L 3194 3500 
L 3769 3500 
L 3091 0 
L 2516 0 
L 2631 550 
Q 2388 244 2052 76 
Q 1716 -91 1338 -91 
Q 878 -91 622 161 
Q 366 413 366 863 
Q 366 956 381 1097 
Q 397 1238 428 1388 
z
" transform="scale(0.015625)"/>
      <path id="DejaVuSans-Oblique-70" d="M 3175 2156 
Q 3175 2616 2975 2859 
Q 2775 3103 2400 3103 
Q 2144 3103 1911 2972 
Q 1678 2841 1497 2591 
Q 1319 2344 1212 1994 
Q 1106 1644 1106 1300 
Q 1106 863 1306 627 
Q 1506 391 1875 391 
Q 2147 391 2380 519 
Q 2613 647 2778 891 
Q 2956 1147 3065 1494 
Q 3175 1841 3175 2156 
z
M 1394 2969 
Q 1625 3272 1939 3428 
Q 2253 3584 2638 3584 
Q 3175 3584 3472 3232 
Q 3769 2881 3769 2247 
Q 3769 1728 3584 1258 
Q 3400 788 3053 416 
Q 2822 169 2531 39 
Q 2241 -91 1919 -91 
Q 1547 -91 1294 64 
Q 1041 219 916 525 
L 556 -1331 
L -19 -1331 
L 922 3500 
L 1497 3500 
L 1394 2969 
z
" transform="scale(0.015625)"/>
      <path id="DejaVuSans-Oblique-20" transform="scale(0.015625)"/>
      <path id="DejaVuSans-Oblique-31" d="M 416 531 
L 1447 531 
L 2144 4122 
L 978 3897 
L 1088 4441 
L 2247 4666 
L 2881 4666 
L 2075 531 
L 3103 531 
L 3003 0 
L 313 0 
L 416 531 
z
" transform="scale(0.015625)"/>
     </defs>
     <use xlink:href="#DejaVuSans-Oblique-67"/>
     <use xlink:href="#DejaVuSans-Oblique-72" transform="translate(63.476562 0)"/>
     <use xlink:href="#DejaVuSans-Oblique-6f" transform="translate(104.589844 0)"/>
     <use xlink:href="#DejaVuSans-Oblique-75" transform="translate(165.771484 0)"/>
     <use xlink:href="#DejaVuSans-Oblique-70" transform="translate(229.150391 0)"/>
     <use xlink:href="#DejaVuSans-Oblique-20" transform="translate(292.626953 0)"/>
     <use xlink:href="#DejaVuSans-Oblique-31" transform="translate(324.414062 0)"/>
    </g>
   </g>
   <g id="text_2">
    <!-- group 2 -->
    <g style="fill: #4a4a6a" transform="translate(155.525891 293.508) scale(0.09 -0.09)">
     <defs>
      <path id="DejaVuSans-Oblique-32" d="M 2950 2253 
L 934 525 
L 3163 525 
L 3053 0 
L 25 0 
L 128 531 
L 2234 2338 
Q 2656 2703 2832 2979 
Q 3009 3256 3009 3547 
Q 3009 3850 2796 4040 
Q 2584 4231 2241 4231 
Q 1944 4231 1581 4125 
Q 1219 4019 806 3816 
L 922 4441 
Q 1309 4594 1662 4672 
Q 2016 4750 2316 4750 
Q 2928 4750 3301 4425 
Q 3675 4100 3675 3572 
Q 3675 3216 3497 2892 
Q 3319 2569 2950 2253 
z
" transform="scale(0.015625)"/>
     </defs>
     <use xlink:href="#DejaVuSans-Oblique-67"/>
     <use xlink:href="#DejaVuSans-Oblique-72" transform="translate(63.476562 0)"/>
     <use xlink:href="#DejaVuSans-Oblique-6f" transform="translate(104.589844 0)"/>
     <use xlink:href="#DejaVuSans-Oblique-75" transform="translate(165.771484 0)"/>
     <use xlink:href="#DejaVuSans-Oblique-70" transform="translate(229.150391 0)"/>
     <use xlink:href="#DejaVuSans-Oblique-20" transform="translate(292.626953 0)"/>
     <use xlink:href="#DejaVuSans-Oblique-32" transform="translate(324.414062 0)"/>
    </g>
   </g>
   <g id="text_3">
    <!-- Proximity -->
    <g style="fill: #1a1a2e" transform="translate(105.698438 66.24) scale(0.13 -0.13)">
     <defs>
      <path id="DejaVuSans-Bold-50" d="M 588 4666 
L 2584 4666 
Q 3475 4666 3951 4270 
Q 4428 3875 4428 3144 
Q 4428 2409 3951 2014 
Q 3475 1619 2584 1619 
L 1791 1619 
L 1791 0 
L 588 0 
L 588 4666 
z
M 1791 3794 
L 1791 2491 
L 2456 2491 
Q 2806 2491 2997 2661 
Q 3188 2831 3188 3144 
Q 3188 3456 2997 3625 
Q 2806 3794 2456 3794 
L 1791 3794 
z
" transform="scale(0.015625)"/>
      <path id="DejaVuSans-Bold-72" d="M 3138 2547 
Q 2991 2616 2845 2648 
Q 2700 2681 2553 2681 
Q 2122 2681 1889 2404 
Q 1656 2128 1656 1613 
L 1656 0 
L 538 0 
L 538 3500 
L 1656 3500 
L 1656 2925 
Q 1872 3269 2151 3426 
Q 2431 3584 2822 3584 
Q 2878 3584 2943 3579 
Q 3009 3575 3134 3559 
L 3138 2547 
z
" transform="scale(0.015625)"/>
      <path id="DejaVuSans-Bold-6f" d="M 2203 2784 
Q 1831 2784 1636 2517 
Q 1441 2250 1441 1747 
Q 1441 1244 1636 976 
Q 1831 709 2203 709 
Q 2569 709 2762 976 
Q 2956 1244 2956 1747 
Q 2956 2250 2762 2517 
Q 2569 2784 2203 2784 
z
M 2203 3584 
Q 3106 3584 3614 3096 
Q 4122 2609 4122 1747 
Q 4122 884 3614 396 
Q 3106 -91 2203 -91 
Q 1297 -91 786 396 
Q 275 884 275 1747 
Q 275 2609 786 3096 
Q 1297 3584 2203 3584 
z
" transform="scale(0.015625)"/>
      <path id="DejaVuSans-Bold-78" d="M 1422 1791 
L 159 3500 
L 1344 3500 
L 2059 2463 
L 2784 3500 
L 3969 3500 
L 2706 1797 
L 4031 0 
L 2847 0 
L 2059 1106 
L 1281 0 
L 97 0 
L 1422 1791 
z
" transform="scale(0.015625)"/>
      <path id="DejaVuSans-Bold-69" d="M 538 3500 
L 1656 3500 
L 1656 0 
L 538 0 
L 538 3500 
z
M 538 4863 
L 1656 4863 
L 1656 3950 
L 538 3950 
L 538 4863 
z
" transform="scale(0.015625)"/>
      <path id="DejaVuSans-Bold-6d" d="M 3781 2919 
Q 3994 3244 4286 3414 
Q 4578 3584 4928 3584 
Q 5531 3584 5847 3212 
Q 6163 2841 6163 2131 
L 6163 0 
L 5038 0 
L 5038 1825 
Q 5041 1866 5042 1909 
Q 5044 1953 5044 2034 
Q 5044 2406 4934 2573 
Q 4825 2741 4581 2741 
Q 4263 2741 4089 2478 
Q 3916 2216 3909 1719 
L 3909 0 
L 2784 0 
L 2784 1825 
Q 2784 2406 2684 2573 
Q 2584 2741 2328 2741 
Q 2006 2741 1831 2477 
Q 1656 2213 1656 1722 
L 1656 0 
L 531 0 
L 531 3500 
L 1656 3500 
L 1656 2988 
Q 1863 3284 2130 3434 
Q 2397 3584 2719 3584 
Q 3081 3584 3359 3409 
Q 3638 3234 3781 2919 
z
" transform="scale(0.015625)"/>
      <path id="DejaVuSans-Bold-74" d="M 1759 4494 
L 1759 3500 
L 2913 3500 
L 2913 2700 
L 1759 2700 
L 1759 1216 
Q 1759 972 1856 886 
Q 1953 800 2241 800 
L 2816 800 
L 2816 0 
L 1856 0 
Q 1194 0 917 276 
Q 641 553 641 1216 
L 641 2700 
L 84 2700 
L 84 3500 
L 641 3500 
L 641 4494 
L 1759 4494 
z
" transform="scale(0.015625)"/>
      <path id="DejaVuSans-Bold-79" d="M 78 3500 
L 1197 3500 
L 2138 1125 
L 2938 3500 
L 4056 3500 
L 2584 -331 
Q 2363 -916 2067 -1148 
Q 1772 -1381 1288 -1381 
L 641 -1381 
L 641 -647 
L 991 -647 
Q 1275 -647 1404 -556 
Q 1534 -466 1606 -231 
L 1638 -134 
L 78 3500 
z
" transform="scale(0.015625)"/>
     </defs>
     <use xlink:href="#DejaVuSans-Bold-50"/>
     <use xlink:href="#DejaVuSans-Bold-72" transform="translate(73.291016 0)"/>
     <use xlink:href="#DejaVuSans-Bold-6f" transform="translate(122.607422 0)"/>
     <use xlink:href="#DejaVuSans-Bold-78" transform="translate(191.308594 0)"/>
     <use xlink:href="#DejaVuSans-Bold-69" transform="translate(255.810547 0)"/>
     <use xlink:href="#DejaVuSans-Bold-6d" transform="translate(290.087891 0)"/>
     <use xlink:href="#DejaVuSans-Bold-69" transform="translate(394.287109 0)"/>
     <use xlink:href="#DejaVuSans-Bold-74" transform="translate(428.564453 0)"/>
     <use xlink:href="#DejaVuSans-Bold-79" transform="translate(476.367188 0)"/>
    </g>
   </g>
  </g>
  <g id="axes_2">
   <g id="line2d_25">
    <defs>
     <path id="m4bdc8122b3" d="M 0 5.5 
C 1.458617 5.5 2.857689 4.920485 3.889087 3.889087 
C 4.920485 2.857689 5.5 1.458617 5.5 0 
C 5.5 -1.458617 4.920485 -2.857689 3.889087 -3.889087 
C 2.857689 -4.920485 1.458617 -5.5 0 -5.5 
C -1.458617 -5.5 -2.857689 -4.920485 -3.889087 -3.889087 
C -4.920485 -2.857689 -5.5 -1.458617 -5.5 0 
C -5.5 1.458617 -4.920485 2.857689 -3.889087 3.889087 
C -2.857689 4.920485 -1.458617 5.5 0 5.5 
z
" style="stroke: #1a1a2e"/>
    </defs>
    <g clip-path="url(#pffda483062)">
     <use xlink:href="#m4bdc8122b3" x="405.955882" y="274.79" style="fill: #1a1a2e; stroke: #1a1a2e"/>
    </g>
   </g>
   <g id="patch_2">
    <path d="M 447.402882 286.823 
L 471.468882 286.823 
L 471.468882 262.757 
L 447.402882 262.757 
z
" clip-path="url(#pffda483062)" style="fill: #4a90d9; stroke: #4a90d9; stroke-linejoin: miter"/>
   </g>
   <g id="line2d_26">
    <g clip-path="url(#pffda483062)">
     <use xlink:href="#m4bdc8122b3" x="512.915882" y="274.79" style="fill: #1a1a2e; stroke: #1a1a2e"/>
    </g>
   </g>
   <g id="patch_3">
    <path d="M 554.362882 286.823 
L 578.428882 286.823 
L 578.428882 262.757 
L 554.362882 262.757 
z
" clip-path="url(#pffda483062)" style="fill: #4a90d9; stroke: #4a90d9; stroke-linejoin: miter"/>
   </g>
   <g id="patch_4">
    <path d="M 393.922882 233.343 
L 417.988882 233.343 
L 417.988882 209.277 
L 393.922882 209.277 
z
" clip-path="url(#pffda483062)" style="fill: #4a90d9; stroke: #4a90d9; stroke-linejoin: miter"/>
   </g>
   <g id="line2d_27">
    <g clip-path="url(#pffda483062)">
     <use xlink:href="#m4bdc8122b3" x="459.435882" y="221.31" style="fill: #1a1a2e; stroke: #1a1a2e"/>
    </g>
   </g>
   <g id="patch_5">
    <path d="M 500.882882 233.343 
L 524.948882 233.343 
L 524.948882 209.277 
L 500.882882 209.277 
z
" clip-path="url(#pffda483062)" style="fill: #4a90d9; stroke: #4a90d9; stroke-linejoin: miter"/>
   </g>
   <g id="line2d_28">
    <g clip-path="url(#pffda483062)">
     <use xlink:href="#m4bdc8122b3" x="566.395882" y="221.31" style="fill: #1a1a2e; stroke: #1a1a2e"/>
    </g>
   </g>
   <g id="line2d_29">
    <g clip-path="url(#pffda483062)">
     <use xlink:href="#m4bdc8122b3" x="405.955882" y="167.83" style="fill: #1a1a2e; stroke: #1a1a2e"/>
    </g>
   </g>
   <g id="patch_6">
    <path d="M 447.402882 179.863 
L 471.468882 179.863 
L 471.468882 155.797 
L 447.402882 155.797 
z
" clip-path="url(#pffda483062)" style="fill: #4a90d9; stroke: #4a90d9; stroke-linejoin: miter"/>
   </g>
   <g id="line2d_30">
    <g clip-path="url(#pffda483062)">
     <use xlink:href="#m4bdc8122b3" x="512.915882" y="167.83" style="fill: #1a1a2e; stroke: #1a1a2e"/>
    </g>
   </g>
   <g id="patch_7">
    <path d="M 554.362882 179.863 
L 578.428882 179.863 
L 578.428882 155.797 
L 554.362882 155.797 
z
" clip-path="url(#pffda483062)" style="fill: #4a90d9; stroke: #4a90d9; stroke-linejoin: miter"/>
   </g>
   <g id="patch_8">
    <path d="M 393.922882 126.383 
L 417.988882 126.383 
L 417.988882 102.317 
L 393.922882 102.317 
z
" clip-path="url(#pffda483062)" style="fill: #4a90d9; stroke: #4a90d9; stroke-linejoin: miter"/>
   </g>
   <g id="line2d_31">
    <g clip-path="url(#pffda483062)">
     <use xlink:href="#m4bdc8122b3" x="459.435882" y="114.35" style="fill: #1a1a2e; stroke: #1a1a2e"/>
    </g>
   </g>
   <g id="patch_9">
    <path d="M 500.882882 126.383 
L 524.948882 126.383 
L 524.948882 102.317 
L 500.882882 102.317 
z
" clip-path="url(#pffda483062)" style="fill: #4a90d9; stroke: #4a90d9; stroke-linejoin: miter"/>
   </g>
   <g id="line2d_32">
    <g clip-path="url(#pffda483062)">
     <use xlink:href="#m4bdc8122b3" x="566.395882" y="114.35" style="fill: #1a1a2e; stroke: #1a1a2e"/>
    </g>
   </g>
   <g id="text_4">
    <!-- columns by shape -->
    <g style="fill: #4a4a6a" transform="translate(445.306742 317.574) scale(0.09 -0.09)">
     <defs>
      <path id="DejaVuSans-Oblique-63" d="M 3431 3366 
L 3316 2797 
Q 3109 2947 2876 3022 
Q 2644 3097 2394 3097 
Q 2119 3097 1870 3000 
Q 1622 2903 1453 2725 
Q 1184 2453 1037 2087 
Q 891 1722 891 1331 
Q 891 859 1127 628 
Q 1363 397 1844 397 
Q 2081 397 2348 469 
Q 2616 541 2906 684 
L 2797 116 
Q 2547 13 2283 -39 
Q 2019 -91 1741 -91 
Q 1044 -91 669 257 
Q 294 606 294 1253 
Q 294 1797 489 2255 
Q 684 2713 1069 3078 
Q 1331 3328 1684 3456 
Q 2038 3584 2456 3584 
Q 2700 3584 2940 3529 
Q 3181 3475 3431 3366 
z
" transform="scale(0.015625)"/>
      <path id="DejaVuSans-Oblique-6c" d="M 1172 4863 
L 1747 4863 
L 800 0 
L 225 0 
L 1172 4863 
z
" transform="scale(0.015625)"/>
      <path id="DejaVuSans-Oblique-6d" d="M 5747 2113 
L 5338 0 
L 4763 0 
L 5166 2094 
Q 5191 2228 5203 2325 
Q 5216 2422 5216 2491 
Q 5216 2772 5059 2928 
Q 4903 3084 4622 3084 
Q 4203 3084 3875 2770 
Q 3547 2456 3450 1953 
L 3066 0 
L 2491 0 
L 2900 2094 
Q 2925 2209 2937 2307 
Q 2950 2406 2950 2484 
Q 2950 2769 2794 2926 
Q 2638 3084 2363 3084 
Q 1938 3084 1609 2770 
Q 1281 2456 1184 1953 
L 800 0 
L 225 0 
L 909 3500 
L 1484 3500 
L 1375 2956 
Q 1609 3263 1923 3423 
Q 2238 3584 2597 3584 
Q 2978 3584 3223 3384 
Q 3469 3184 3519 2828 
Q 3781 3197 4126 3390 
Q 4472 3584 4856 3584 
Q 5306 3584 5551 3325 
Q 5797 3066 5797 2591 
Q 5797 2488 5784 2364 
Q 5772 2241 5747 2113 
z
" transform="scale(0.015625)"/>
      <path id="DejaVuSans-Oblique-6e" d="M 3566 2113 
L 3156 0 
L 2578 0 
L 2988 2091 
Q 3016 2238 3031 2350 
Q 3047 2463 3047 2528 
Q 3047 2791 2881 2937 
Q 2716 3084 2419 3084 
Q 1956 3084 1622 2776 
Q 1288 2469 1184 1941 
L 800 0 
L 225 0 
L 903 3500 
L 1478 3500 
L 1363 2950 
Q 1603 3253 1940 3418 
Q 2278 3584 2650 3584 
Q 3113 3584 3367 3334 
Q 3622 3084 3622 2631 
Q 3622 2519 3608 2391 
Q 3594 2263 3566 2113 
z
" transform="scale(0.015625)"/>
      <path id="DejaVuSans-Oblique-73" d="M 3200 3397 
L 3091 2853 
Q 2863 2978 2609 3040 
Q 2356 3103 2088 3103 
Q 1634 3103 1373 2948 
Q 1113 2794 1113 2528 
Q 1113 2219 1719 2053 
Q 1766 2041 1788 2034 
L 1972 1978 
Q 2547 1819 2739 1644 
Q 2931 1469 2931 1166 
Q 2931 609 2489 259 
Q 2047 -91 1331 -91 
Q 1053 -91 747 -37 
Q 441 16 72 128 
L 184 722 
Q 500 559 806 475 
Q 1113 391 1394 391 
Q 1816 391 2080 572 
Q 2344 753 2344 1031 
Q 2344 1331 1650 1516 
L 1591 1531 
L 1394 1581 
Q 956 1697 753 1886 
Q 550 2075 550 2369 
Q 550 2928 970 3256 
Q 1391 3584 2113 3584 
Q 2397 3584 2667 3537 
Q 2938 3491 3200 3397 
z
" transform="scale(0.015625)"/>
      <path id="DejaVuSans-Oblique-62" d="M 3169 2138 
Q 3169 2591 2961 2847 
Q 2753 3103 2388 3103 
Q 2122 3103 1889 2973 
Q 1656 2844 1484 2597 
Q 1303 2338 1198 1995 
Q 1094 1653 1094 1313 
Q 1094 881 1298 636 
Q 1503 391 1863 391 
Q 2134 391 2365 517 
Q 2597 644 2772 891 
Q 2950 1147 3059 1487 
Q 3169 1828 3169 2138 
z
M 1381 2969 
Q 1594 3256 1914 3420 
Q 2234 3584 2584 3584 
Q 3122 3584 3439 3221 
Q 3756 2859 3756 2241 
Q 3756 1734 3570 1259 
Q 3384 784 3041 416 
Q 2816 172 2522 40 
Q 2228 -91 1906 -91 
Q 1566 -91 1316 65 
Q 1066 222 909 531 
L 806 0 
L 231 0 
L 1178 4863 
L 1753 4863 
L 1381 2969 
z
" transform="scale(0.015625)"/>
      <path id="DejaVuSans-Oblique-79" d="M 1588 -325 
Q 1188 -997 936 -1164 
Q 684 -1331 294 -1331 
L -159 -1331 
L -63 -850 
L 269 -850 
Q 509 -850 678 -719 
Q 847 -588 1056 -206 
L 1234 128 
L 459 3500 
L 1069 3500 
L 1650 819 
L 3256 3500 
L 3859 3500 
L 1588 -325 
z
" transform="scale(0.015625)"/>
      <path id="DejaVuSans-Oblique-68" d="M 3566 2113 
L 3156 0 
L 2578 0 
L 2988 2091 
Q 3016 2238 3031 2350 
Q 3047 2463 3047 2528 
Q 3047 2791 2881 2937 
Q 2716 3084 2419 3084 
Q 1956 3084 1617 2771 
Q 1278 2459 1178 1941 
L 800 0 
L 225 0 
L 1172 4863 
L 1747 4863 
L 1375 2950 
Q 1594 3244 1934 3414 
Q 2275 3584 2650 3584 
Q 3113 3584 3367 3334 
Q 3622 3084 3622 2631 
Q 3622 2519 3608 2391 
Q 3594 2263 3566 2113 
z
" transform="scale(0.015625)"/>
      <path id="DejaVuSans-Oblique-61" d="M 3438 1997 
L 3047 0 
L 2472 0 
L 2578 531 
Q 2325 219 2001 64 
Q 1678 -91 1281 -91 
Q 834 -91 548 182 
Q 263 456 263 884 
Q 263 1497 752 1853 
Q 1241 2209 2100 2209 
L 2900 2209 
L 2931 2363 
Q 2938 2388 2941 2417 
Q 2944 2447 2944 2509 
Q 2944 2788 2717 2942 
Q 2491 3097 2081 3097 
Q 1800 3097 1504 3025 
Q 1209 2953 897 2809 
L 997 3341 
Q 1322 3463 1633 3523 
Q 1944 3584 2234 3584 
Q 2853 3584 3176 3315 
Q 3500 3047 3500 2534 
Q 3500 2431 3484 2292 
Q 3469 2153 3438 1997 
z
M 2816 1759 
L 2241 1759 
Q 1534 1759 1195 1570 
Q 856 1381 856 984 
Q 856 709 1029 553 
Q 1203 397 1509 397 
Q 1978 397 2328 733 
Q 2678 1069 2791 1631 
L 2816 1759 
z
" transform="scale(0.015625)"/>
      <path id="DejaVuSans-Oblique-65" d="M 3078 2063 
Q 3088 2113 3092 2166 
Q 3097 2219 3097 2272 
Q 3097 2653 2873 2875 
Q 2650 3097 2266 3097 
Q 1838 3097 1509 2826 
Q 1181 2556 1013 2059 
L 3078 2063 
z
M 3578 1613 
L 903 1613 
Q 884 1494 878 1425 
Q 872 1356 872 1306 
Q 872 872 1139 634 
Q 1406 397 1894 397 
Q 2269 397 2603 481 
Q 2938 566 3225 728 
L 3116 159 
Q 2806 34 2476 -28 
Q 2147 -91 1806 -91 
Q 1078 -91 686 257 
Q 294 606 294 1247 
Q 294 1794 489 2264 
Q 684 2734 1063 3103 
Q 1306 3334 1642 3459 
Q 1978 3584 2356 3584 
Q 2950 3584 3301 3228 
Q 3653 2872 3653 2272 
Q 3653 2128 3634 1964 
Q 3616 1800 3578 1613 
z
" transform="scale(0.015625)"/>
     </defs>
     <use xlink:href="#DejaVuSans-Oblique-63"/>
     <use xlink:href="#DejaVuSans-Oblique-6f" transform="translate(54.980469 0)"/>
     <use xlink:href="#DejaVuSans-Oblique-6c" transform="translate(116.162109 0)"/>
     <use xlink:href="#DejaVuSans-Oblique-75" transform="translate(143.945312 0)"/>
     <use xlink:href="#DejaVuSans-Oblique-6d" transform="translate(207.324219 0)"/>
     <use xlink:href="#DejaVuSans-Oblique-6e" transform="translate(304.736328 0)"/>
     <use xlink:href="#DejaVuSans-Oblique-73" transform="translate(368.115234 0)"/>
     <use xlink:href="#DejaVuSans-Oblique-20" transform="translate(420.214844 0)"/>
     <use xlink:href="#DejaVuSans-Oblique-62" transform="translate(452.001953 0)"/>
     <use xlink:href="#DejaVuSans-Oblique-79" transform="translate(515.478516 0)"/>
     <use xlink:href="#DejaVuSans-Oblique-20" transform="translate(574.658203 0)"/>
     <use xlink:href="#DejaVuSans-Oblique-73" transform="translate(606.445312 0)"/>
     <use xlink:href="#DejaVuSans-Oblique-68" transform="translate(658.544922 0)"/>
     <use xlink:href="#DejaVuSans-Oblique-61" transform="translate(721.923828 0)"/>
     <use xlink:href="#DejaVuSans-Oblique-70" transform="translate(783.203125 0)"/>
     <use xlink:href="#DejaVuSans-Oblique-65" transform="translate(846.679688 0)"/>
    </g>
   </g>
   <g id="text_5">
    <!-- Similarity -->
    <g style="fill: #1a1a2e" transform="translate(437.502757 66.24) scale(0.13 -0.13)">
     <defs>
      <path id="DejaVuSans-Bold-53" d="M 3834 4519 
L 3834 3531 
Q 3450 3703 3084 3790 
Q 2719 3878 2394 3878 
Q 1963 3878 1756 3759 
Q 1550 3641 1550 3391 
Q 1550 3203 1689 3098 
Q 1828 2994 2194 2919 
L 2706 2816 
Q 3484 2659 3812 2340 
Q 4141 2022 4141 1434 
Q 4141 663 3683 286 
Q 3225 -91 2284 -91 
Q 1841 -91 1394 -6 
Q 947 78 500 244 
L 500 1259 
Q 947 1022 1364 901 
Q 1781 781 2169 781 
Q 2563 781 2772 912 
Q 2981 1044 2981 1288 
Q 2981 1506 2839 1625 
Q 2697 1744 2272 1838 
L 1806 1941 
Q 1106 2091 782 2419 
Q 459 2747 459 3303 
Q 459 4000 909 4375 
Q 1359 4750 2203 4750 
Q 2588 4750 2994 4692 
Q 3400 4634 3834 4519 
z
" transform="scale(0.015625)"/>
      <path id="DejaVuSans-Bold-6c" d="M 538 4863 
L 1656 4863 
L 1656 0 
L 538 0 
L 538 4863 
z
" transform="scale(0.015625)"/>
      <path id="DejaVuSans-Bold-61" d="M 2106 1575 
Q 1756 1575 1579 1456 
Q 1403 1338 1403 1106 
Q 1403 894 1545 773 
Q 1688 653 1941 653 
Q 2256 653 2472 879 
Q 2688 1106 2688 1447 
L 2688 1575 
L 2106 1575 
z
M 3816 1997 
L 3816 0 
L 2688 0 
L 2688 519 
Q 2463 200 2181 54 
Q 1900 -91 1497 -91 
Q 953 -91 614 226 
Q 275 544 275 1050 
Q 275 1666 698 1953 
Q 1122 2241 2028 2241 
L 2688 2241 
L 2688 2328 
Q 2688 2594 2478 2717 
Q 2269 2841 1825 2841 
Q 1466 2841 1156 2769 
Q 847 2697 581 2553 
L 581 3406 
Q 941 3494 1303 3539 
Q 1666 3584 2028 3584 
Q 2975 3584 3395 3211 
Q 3816 2838 3816 1997 
z
" transform="scale(0.015625)"/>
     </defs>
     <use xlink:href="#DejaVuSans-Bold-53"/>
     <use xlink:href="#DejaVuSans-Bold-69" transform="translate(72.021484 0)"/>
     <use xlink:href="#DejaVuSans-Bold-6d" transform="translate(106.298828 0)"/>
     <use xlink:href="#DejaVuSans-Bold-69" transform="translate(210.498047 0)"/>
     <use xlink:href="#DejaVuSans-Bold-6c" transform="translate(244.775391 0)"/>
     <use xlink:href="#DejaVuSans-Bold-61" transform="translate(279.052734 0)"/>
     <use xlink:href="#DejaVuSans-Bold-72" transform="translate(346.533203 0)"/>
     <use xlink:href="#DejaVuSans-Bold-69" transform="translate(395.849609 0)"/>
     <use xlink:href="#DejaVuSans-Bold-74" transform="translate(430.126953 0)"/>
     <use xlink:href="#DejaVuSans-Bold-79" transform="translate(477.929688 0)"/>
    </g>
   </g>
  </g>
  <g id="axes_3">
   <g id="patch_10">
    <path d="M 697.751765 314.9 
L 911.671765 314.9 
L 911.671765 100.98 
L 697.751765 100.98 
z
" clip-path="url(#pe9384eefe1)" style="fill: #1a1a2e; stroke: #1a1a2e; stroke-linejoin: miter"/>
   </g>
   <g id="patch_11">
    <path d="M 820.755765 106.328 
L 820.546612 107.308915 
L 820.359399 108.289829 
L 820.193843 109.270744 
L 820.049661 110.251658 
L 819.926568 111.232573 
L 819.824283 112.213487 
L 819.74252 113.194402 
L 819.680998 114.175317 
L 819.639432 115.156231 
L 819.617539 116.137146 
L 819.615037 117.11806 
L 819.631641 118.098975 
L 819.667069 119.079889 
L 819.721036 120.060804 
L 819.793261 121.041719 
L 819.883458 122.022633 
L 819.991346 123.003548 
L 820.11664 123.984462 
L 820.259057 124.965377 
L 820.418315 125.946291 
L 820.594129 126.927206 
L 820.786216 127.908121 
L 820.994293 128.889035 
L 821.218077 129.86995 
L 821.457284 130.850864 
L 821.711632 131.831779 
L 821.980835 132.812693 
L 822.264612 133.793608 
L 822.562679 134.774523 
L 822.874753 135.755437 
L 823.20055 136.736352 
L 823.539786 137.717266 
L 823.89218 138.698181 
L 824.257446 139.679095 
L 824.635303 140.66001 
L 825.025466 141.640925 
L 825.427652 142.621839 
L 825.841578 143.602754 
L 826.266961 144.583668 
L 826.703517 145.564583 
L 827.150962 146.545497 
L 827.609015 147.526412 
L 828.07739 148.507327 
L 828.555806 149.488241 
L 829.043978 150.469156 
L 829.541623 151.45007 
L 830.048458 152.430985 
L 830.564199 153.411899 
L 831.088564 154.392814 
L 831.621269 155.373729 
L 832.16203 156.354643 
L 832.710564 157.335558 
L 833.266588 158.316472 
L 833.829818 159.297387 
L 834.399972 160.278302 
L 834.976766 161.259216 
L 835.559916 162.240131 
L 836.149139 163.221045 
L 836.744152 164.20196 
L 837.344671 165.182874 
L 837.950414 166.163789 
L 838.561096 167.144704 
L 839.176435 168.125618 
L 839.796147 169.106533 
L 840.419948 170.087447 
L 841.047557 171.068362 
L 841.678688 172.049276 
L 842.313059 173.030191 
L 842.950386 174.011106 
L 843.590387 174.99202 
L 844.232777 175.972935 
L 844.877274 176.953849 
L 845.523594 177.934764 
L 846.171453 178.915678 
L 846.820569 179.896593 
L 847.470658 180.877508 
L 848.121437 181.858422 
L 848.772622 182.839337 
L 849.42393 183.820251 
L 850.075078 184.801166 
L 850.725783 185.78208 
L 851.37576 186.762995 
L 852.024727 187.74391 
L 852.672401 188.724824 
L 853.318497 189.705739 
L 853.962733 190.686653 
L 854.604826 191.667568 
L 855.244491 192.648482 
L 855.881447 193.629397 
L 856.515408 194.610312 
L 857.146093 195.591226 
L 857.773217 196.572141 
L 858.396498 197.553055 
L 859.015651 198.53397 
L 859.630394 199.514884 
L 860.240444 200.495799 
L 860.845517 201.476714 
L 861.445329 202.457628 
L 862.039597 203.438543 
L 862.628039 204.419457 
L 863.21037 205.400372 
L 863.786307 206.381286 
L 864.355568 207.362201 
L 864.917868 208.343116 
L 865.472924 209.32403 
L 866.020453 210.304945 
L 866.560172 211.285859 
L 867.091797 212.266774 
L 867.615045 213.247688 
L 868.129633 214.228603 
L 868.635277 215.209518 
L 869.131693 216.190432 
L 869.6186 217.171347 
L 870.095712 218.152261 
L 870.562748 219.133176 
L 871.019423 220.11409 
L 871.465455 221.095005 
L 871.900559 222.07592 
L 872.324453 223.056834 
L 872.736853 224.037749 
L 873.137476 225.018663 
L 873.526038 225.999578 
L 873.902257 226.980492 
L 874.265848 227.961407 
L 874.616529 228.942322 
L 874.954017 229.923236 
L 875.278027 230.904151 
L 875.588276 231.885065 
L 875.884482 232.86598 
L 876.166361 233.846894 
L 876.433629 234.827809 
L 876.686004 235.808724 
L 876.923201 236.789638 
L 877.144937 237.770553 
L 877.35093 238.751467 
L 877.540896 239.732382 
L 877.714551 240.713296 
L 877.871612 241.694211 
L 878.011797 242.675126 
L 878.13482 243.65604 
L 878.2404 244.636955 
L 878.328253 245.617869 
L 878.398095 246.598784 
L 878.449643 247.579698 
L 878.482614 248.560613 
L 878.496724 249.541528 
L 878.49169 250.522442 
L 878.46723 251.503357 
L 878.423058 252.484271 
L 878.358893 253.465186 
L 878.274451 254.446101 
L 878.169448 255.427015 
L 878.043601 256.40793 
L 877.896626 257.388844 
L 877.728242 258.369759 
L 877.538163 259.350673 
L 877.326107 260.331588 
L 877.09179 261.312503 
L 876.83493 262.293417 
L 876.555242 263.274332 
L 876.252444 264.255246 
L 875.926251 265.236161 
L 875.576382 266.217075 
L 875.202551 267.19799 
L 874.804477 268.178905 
L 874.381875 269.159819 
L 873.934463 270.140734 
L 873.461957 271.121648 
L 872.964074 272.102563 
L 872.440529 273.083477 
L 871.891041 274.064392 
L 871.315326 275.045307 
L 870.7131 276.026221 
L 870.08408 277.007136 
L 869.427982 277.98805 
L 868.744524 278.968965 
L 868.033422 279.949879 
L 867.294393 280.930794 
L 866.527152 281.911709 
L 865.731418 282.892623 
L 864.906907 283.873538 
L 864.053334 284.854452 
L 863.170418 285.835367 
L 862.257874 286.816281 
L 861.31542 287.797196 
L 860.342772 288.778111 
L 859.339646 289.759025 
L 858.305759 290.73994 
L 857.240829 291.720854 
L 856.144571 292.701769 
L 855.016702 293.682683 
L 853.856939 294.663598 
L 852.664999 295.644513 
L 851.440598 296.625427 
L 850.183453 297.606342 
L 848.89328 298.587256 
L 847.569797 299.568171 
L 846.21272 300.549085 
L 844.821765 301.53 
L 764.601765 301.53 
L 763.21081 300.549085 
L 761.853733 299.568171 
L 760.530249 298.587256 
L 759.240077 297.606342 
L 757.982932 296.625427 
L 756.758531 295.644513 
L 755.56659 294.663598 
L 754.406828 293.682683 
L 753.278959 292.701769 
L 752.182701 291.720854 
L 751.11777 290.73994 
L 750.083884 289.759025 
L 749.080758 288.778111 
L 748.108109 287.797196 
L 747.165655 286.816281 
L 746.253111 285.835367 
L 745.370195 284.854452 
L 744.516623 283.873538 
L 743.692111 282.892623 
L 742.896377 281.911709 
L 742.129137 280.930794 
L 741.390107 279.949879 
L 740.679005 278.968965 
L 739.995547 277.98805 
L 739.33945 277.007136 
L 738.71043 276.026221 
L 738.108203 275.045307 
L 737.532488 274.064392 
L 736.983 273.083477 
L 736.459456 272.102563 
L 735.961572 271.121648 
L 735.489066 270.140734 
L 735.041654 269.159819 
L 734.619052 268.178905 
L 734.220978 267.19799 
L 733.847148 266.217075 
L 733.497278 265.236161 
L 733.171086 264.255246 
L 732.868287 263.274332 
L 732.5886 262.293417 
L 732.331739 261.312503 
L 732.097423 260.331588 
L 731.885367 259.350673 
L 731.695288 258.369759 
L 731.526903 257.388844 
L 731.379929 256.40793 
L 731.254082 255.427015 
L 731.149079 254.446101 
L 731.064636 253.465186 
L 731.000471 252.484271 
L 730.9563 251.503357 
L 730.931839 250.522442 
L 730.926805 249.541528 
L 730.940916 248.560613 
L 730.973887 247.579698 
L 731.025435 246.598784 
L 731.095277 245.617869 
L 731.183129 244.636955 
L 731.288709 243.65604 
L 731.411733 242.675126 
L 731.551917 241.694211 
L 731.708978 240.713296 
L 731.882633 239.732382 
L 732.072599 238.751467 
L 732.278592 237.770553 
L 732.500329 236.789638 
L 732.737526 235.808724 
L 732.9899 234.827809 
L 733.257168 233.846894 
L 733.539047 232.86598 
L 733.835253 231.885065 
L 734.145503 230.904151 
L 734.469513 229.923236 
L 734.807 228.942322 
L 735.157681 227.961407 
L 735.521273 226.980492 
L 735.897491 225.999578 
L 736.286054 225.018663 
L 736.686677 224.037749 
L 737.099077 223.056834 
L 737.522971 222.07592 
L 737.958075 221.095005 
L 738.404106 220.11409 
L 738.860781 219.133176 
L 739.327817 218.152261 
L 739.80493 217.171347 
L 740.291836 216.190432 
L 740.788253 215.209518 
L 741.293897 214.228603 
L 741.808484 213.247688 
L 742.331732 212.266774 
L 742.863357 211.285859 
L 743.403076 210.304945 
L 743.950605 209.32403 
L 744.505662 208.343116 
L 745.067962 207.362201 
L 745.637222 206.381286 
L 746.21316 205.400372 
L 746.795491 204.419457 
L 747.383932 203.438543 
L 747.978201 202.457628 
L 748.578013 201.476714 
L 749.183085 200.495799 
L 749.793135 199.514884 
L 750.407878 198.53397 
L 751.027032 197.553055 
L 751.650312 196.572141 
L 752.277437 195.591226 
L 752.908121 194.610312 
L 753.542083 193.629397 
L 754.179038 192.648482 
L 754.818704 191.667568 
L 755.460796 190.686653 
L 756.105032 189.705739 
L 756.751129 188.724824 
L 757.398802 187.74391 
L 758.047769 186.762995 
L 758.697747 185.78208 
L 759.348451 184.801166 
L 759.999599 183.820251 
L 760.650907 182.839337 
L 761.302092 181.858422 
L 761.952871 180.877508 
L 762.60296 179.896593 
L 763.252076 178.915678 
L 763.899936 177.934764 
L 764.546255 176.953849 
L 765.190752 175.972935 
L 765.833143 174.99202 
L 766.473143 174.011106 
L 767.110471 173.030191 
L 767.744842 172.049276 
L 768.375973 171.068362 
L 769.003581 170.087447 
L 769.627383 169.106533 
L 770.247095 168.125618 
L 770.862433 167.144704 
L 771.473116 166.163789 
L 772.078858 165.182874 
L 772.679378 164.20196 
L 773.274391 163.221045 
L 773.863614 162.240131 
L 774.446764 161.259216 
L 775.023557 160.278302 
L 775.593711 159.297387 
L 776.156942 158.316472 
L 776.712966 157.335558 
L 777.2615 156.354643 
L 777.802261 155.373729 
L 778.334965 154.392814 
L 778.85933 153.411899 
L 779.375072 152.430985 
L 779.881907 151.45007 
L 780.379552 150.469156 
L 780.867724 149.488241 
L 781.346139 148.507327 
L 781.814515 147.526412 
L 782.272567 146.545497 
L 782.720013 145.564583 
L 783.156569 144.583668 
L 783.581951 143.602754 
L 783.995878 142.621839 
L 784.398064 141.640925 
L 784.788227 140.66001 
L 785.166083 139.679095 
L 785.53135 138.698181 
L 785.883743 137.717266 
L 786.22298 136.736352 
L 786.548777 135.755437 
L 786.86085 134.774523 
L 787.158917 133.793608 
L 787.442694 132.812693 
L 787.711898 131.831779 
L 787.966245 130.850864 
L 788.205452 129.86995 
L 788.429236 128.889035 
L 788.637313 127.908121 
L 788.829401 126.927206 
L 789.005215 125.946291 
L 789.164472 124.965377 
L 789.30689 123.984462 
L 789.432184 123.003548 
L 789.540071 122.022633 
L 789.630269 121.041719 
L 789.702493 120.060804 
L 789.756461 119.079889 
L 789.791888 118.098975 
L 789.808492 117.11806 
L 789.80599 116.137146 
L 789.784098 115.156231 
L 789.742532 114.175317 
L 789.681009 113.194402 
L 789.599247 112.213487 
L 789.496961 111.232573 
L 789.373868 110.251658 
L 789.229686 109.270744 
L 789.06413 108.289829 
L 788.876917 107.308915 
L 788.667765 106.328 
z
" clip-path="url(#pe9384eefe1)" style="fill: #ffffff; stroke: #ffffff; stroke-linejoin: miter"/>
   </g>
   <g id="text_6">
    <!-- vase or two faces? -->
    <g style="fill: #4a4a6a" transform="translate(762.768249 333.618) scale(0.09 -0.09)">
     <defs>
      <path id="DejaVuSans-Oblique-76" d="M 459 3500 
L 1069 3500 
L 1581 525 
L 3256 3500 
L 3866 3500 
L 1875 0 
L 1100 0 
L 459 3500 
z
" transform="scale(0.015625)"/>
      <path id="DejaVuSans-Oblique-74" d="M 2706 3500 
L 2619 3053 
L 1472 3053 
L 1100 1153 
Q 1081 1047 1072 975 
Q 1063 903 1063 863 
Q 1063 663 1183 572 
Q 1303 481 1569 481 
L 2150 481 
L 2053 0 
L 1503 0 
Q 991 0 739 200 
Q 488 400 488 806 
Q 488 878 497 964 
Q 506 1050 525 1153 
L 897 3053 
L 409 3053 
L 500 3500 
L 978 3500 
L 1172 4494 
L 1747 4494 
L 1556 3500 
L 2706 3500 
z
" transform="scale(0.015625)"/>
      <path id="DejaVuSans-Oblique-77" d="M 544 3500 
L 1113 3500 
L 1259 684 
L 2566 3500 
L 3231 3500 
L 3425 684 
L 4666 3500 
L 5241 3500 
L 3641 0 
L 2969 0 
L 2797 2900 
L 1459 0 
L 781 0 
L 544 3500 
z
" transform="scale(0.015625)"/>
      <path id="DejaVuSans-Oblique-66" d="M 3059 4863 
L 2969 4384 
L 2419 4384 
Q 2106 4384 1964 4261 
Q 1822 4138 1753 3809 
L 1691 3500 
L 2638 3500 
L 2553 3053 
L 1606 3053 
L 1013 0 
L 434 0 
L 1031 3053 
L 481 3053 
L 563 3500 
L 1113 3500 
L 1159 3744 
Q 1278 4363 1576 4613 
Q 1875 4863 2516 4863 
L 3059 4863 
z
" transform="scale(0.015625)"/>
      <path id="DejaVuSans-Oblique-3f" d="M 1594 794 
L 1441 0 
L 806 0 
L 959 794 
L 1594 794 
z
M 903 4397 
Q 1222 4575 1539 4662 
Q 1856 4750 2188 4750 
Q 2691 4750 2981 4515 
Q 3272 4281 3272 3878 
Q 3272 3556 3105 3275 
Q 2938 2994 2559 2688 
L 2234 2425 
Q 1972 2219 1884 2072 
Q 1797 1925 1741 1638 
L 1663 1253 
L 1069 1253 
L 1166 1734 
Q 1222 2028 1344 2233 
Q 1466 2438 1813 2725 
L 2144 3003 
Q 2406 3222 2512 3387 
Q 2619 3553 2619 3731 
Q 2619 3969 2448 4103 
Q 2278 4238 1978 4238 
Q 1728 4238 1420 4127 
Q 1113 4016 788 3809 
L 903 4397 
z
" transform="scale(0.015625)"/>
     </defs>
     <use xlink:href="#DejaVuSans-Oblique-76"/>
     <use xlink:href="#DejaVuSans-Oblique-61" transform="translate(59.179688 0)"/>
     <use xlink:href="#DejaVuSans-Oblique-73" transform="translate(120.458984 0)"/>
     <use xlink:href="#DejaVuSans-Oblique-65" transform="translate(172.558594 0)"/>
     <use xlink:href="#DejaVuSans-Oblique-20" transform="translate(234.082031 0)"/>
     <use xlink:href="#DejaVuSans-Oblique-6f" transform="translate(265.869141 0)"/>
     <use xlink:href="#DejaVuSans-Oblique-72" transform="translate(327.050781 0)"/>
     <use xlink:href="#DejaVuSans-Oblique-20" transform="translate(368.164062 0)"/>
     <use xlink:href="#DejaVuSans-Oblique-74" transform="translate(399.951172 0)"/>
     <use xlink:href="#DejaVuSans-Oblique-77" transform="translate(439.160156 0)"/>
     <use xlink:href="#DejaVuSans-Oblique-6f" transform="translate(520.947266 0)"/>
     <use xlink:href="#DejaVuSans-Oblique-20" transform="translate(582.128906 0)"/>
     <use xlink:href="#DejaVuSans-Oblique-66" transform="translate(613.916016 0)"/>
     <use xlink:href="#DejaVuSans-Oblique-61" transform="translate(649.121094 0)"/>
     <use xlink:href="#DejaVuSans-Oblique-63" transform="translate(710.400391 0)"/>
     <use xlink:href="#DejaVuSans-Oblique-65" transform="translate(765.380859 0)"/>
     <use xlink:href="#DejaVuSans-Oblique-73" transform="translate(826.904297 0)"/>
     <use xlink:href="#DejaVuSans-Oblique-3f" transform="translate(879.003906 0)"/>
    </g>
   </g>
   <g id="text_7">
    <!-- Figure–Ground -->
    <g style="fill: #1a1a2e" transform="translate(750.986218 66.24) scale(0.13 -0.13)">
     <defs>
      <path id="DejaVuSans-Bold-46" d="M 588 4666 
L 3834 4666 
L 3834 3756 
L 1791 3756 
L 1791 2888 
L 3713 2888 
L 3713 1978 
L 1791 1978 
L 1791 0 
L 588 0 
L 588 4666 
z
" transform="scale(0.015625)"/>
      <path id="DejaVuSans-Bold-67" d="M 2919 594 
Q 2688 288 2409 144 
Q 2131 0 1766 0 
Q 1125 0 706 504 
Q 288 1009 288 1791 
Q 288 2575 706 3076 
Q 1125 3578 1766 3578 
Q 2131 3578 2409 3434 
Q 2688 3291 2919 2981 
L 2919 3500 
L 4044 3500 
L 4044 353 
Q 4044 -491 3511 -936 
Q 2978 -1381 1966 -1381 
Q 1638 -1381 1331 -1331 
Q 1025 -1281 716 -1178 
L 716 -306 
Q 1009 -475 1290 -558 
Q 1572 -641 1856 -641 
Q 2406 -641 2662 -400 
Q 2919 -159 2919 353 
L 2919 594 
z
M 2181 2772 
Q 1834 2772 1640 2515 
Q 1447 2259 1447 1791 
Q 1447 1309 1634 1061 
Q 1822 813 2181 813 
Q 2531 813 2725 1069 
Q 2919 1325 2919 1791 
Q 2919 2259 2725 2515 
Q 2531 2772 2181 2772 
z
" transform="scale(0.015625)"/>
      <path id="DejaVuSans-Bold-75" d="M 500 1363 
L 500 3500 
L 1625 3500 
L 1625 3150 
Q 1625 2866 1622 2436 
Q 1619 2006 1619 1863 
Q 1619 1441 1641 1255 
Q 1663 1069 1716 984 
Q 1784 875 1895 815 
Q 2006 756 2150 756 
Q 2500 756 2700 1025 
Q 2900 1294 2900 1772 
L 2900 3500 
L 4019 3500 
L 4019 0 
L 2900 0 
L 2900 506 
Q 2647 200 2364 54 
Q 2081 -91 1741 -91 
Q 1134 -91 817 281 
Q 500 653 500 1363 
z
" transform="scale(0.015625)"/>
      <path id="DejaVuSans-Bold-65" d="M 4031 1759 
L 4031 1441 
L 1416 1441 
Q 1456 1047 1700 850 
Q 1944 653 2381 653 
Q 2734 653 3104 758 
Q 3475 863 3866 1075 
L 3866 213 
Q 3469 63 3072 -14 
Q 2675 -91 2278 -91 
Q 1328 -91 801 392 
Q 275 875 275 1747 
Q 275 2603 792 3093 
Q 1309 3584 2216 3584 
Q 3041 3584 3536 3087 
Q 4031 2591 4031 1759 
z
M 2881 2131 
Q 2881 2450 2695 2645 
Q 2509 2841 2209 2841 
Q 1884 2841 1681 2658 
Q 1478 2475 1428 2131 
L 2881 2131 
z
" transform="scale(0.015625)"/>
      <path id="DejaVuSans-Bold-2013" d="M 344 2156 
L 2856 2156 
L 2856 1350 
L 344 1350 
L 344 2156 
z
" transform="scale(0.015625)"/>
      <path id="DejaVuSans-Bold-47" d="M 4781 347 
Q 4331 128 3847 18 
Q 3363 -91 2847 -91 
Q 1681 -91 1000 561 
Q 319 1213 319 2328 
Q 319 3456 1012 4103 
Q 1706 4750 2913 4750 
Q 3378 4750 3804 4662 
Q 4231 4575 4609 4403 
L 4609 3438 
Q 4219 3659 3833 3768 
Q 3447 3878 3059 3878 
Q 2341 3878 1952 3476 
Q 1563 3075 1563 2328 
Q 1563 1588 1938 1184 
Q 2313 781 3003 781 
Q 3191 781 3352 804 
Q 3513 828 3641 878 
L 3641 1784 
L 2906 1784 
L 2906 2591 
L 4781 2591 
L 4781 347 
z
" transform="scale(0.015625)"/>
      <path id="DejaVuSans-Bold-6e" d="M 4056 2131 
L 4056 0 
L 2931 0 
L 2931 347 
L 2931 1631 
Q 2931 2084 2911 2256 
Q 2891 2428 2841 2509 
Q 2775 2619 2662 2680 
Q 2550 2741 2406 2741 
Q 2056 2741 1856 2470 
Q 1656 2200 1656 1722 
L 1656 0 
L 538 0 
L 538 3500 
L 1656 3500 
L 1656 2988 
Q 1909 3294 2193 3439 
Q 2478 3584 2822 3584 
Q 3428 3584 3742 3212 
Q 4056 2841 4056 2131 
z
" transform="scale(0.015625)"/>
      <path id="DejaVuSans-Bold-64" d="M 2919 2988 
L 2919 4863 
L 4044 4863 
L 4044 0 
L 2919 0 
L 2919 506 
Q 2688 197 2409 53 
Q 2131 -91 1766 -91 
Q 1119 -91 703 423 
Q 288 938 288 1747 
Q 288 2556 703 3070 
Q 1119 3584 1766 3584 
Q 2128 3584 2408 3439 
Q 2688 3294 2919 2988 
z
M 2181 722 
Q 2541 722 2730 984 
Q 2919 1247 2919 1747 
Q 2919 2247 2730 2509 
Q 2541 2772 2181 2772 
Q 1825 2772 1636 2509 
Q 1447 2247 1447 1747 
Q 1447 1247 1636 984 
Q 1825 722 2181 722 
z
" transform="scale(0.015625)"/>
     </defs>
     <use xlink:href="#DejaVuSans-Bold-46"/>
     <use xlink:href="#DejaVuSans-Bold-69" transform="translate(68.310547 0)"/>
     <use xlink:href="#DejaVuSans-Bold-67" transform="translate(102.587891 0)"/>
     <use xlink:href="#DejaVuSans-Bold-75" transform="translate(174.169922 0)"/>
     <use xlink:href="#DejaVuSans-Bold-72" transform="translate(245.361328 0)"/>
     <use xlink:href="#DejaVuSans-Bold-65" transform="translate(294.677734 0)"/>
     <use xlink:href="#DejaVuSans-Bold-2013" transform="translate(362.5 0)"/>
     <use xlink:href="#DejaVuSans-Bold-47" transform="translate(412.5 0)"/>
     <use xlink:href="#DejaVuSans-Bold-72" transform="translate(494.580078 0)"/>
     <use xlink:href="#DejaVuSans-Bold-6f" transform="translate(543.896484 0)"/>
     <use xlink:href="#DejaVuSans-Bold-75" transform="translate(612.597656 0)"/>
     <use xlink:href="#DejaVuSans-Bold-6e" transform="translate(683.789062 0)"/>
     <use xlink:href="#DejaVuSans-Bold-64" transform="translate(754.980469 0)"/>
    </g>
   </g>
  </g>
  <g id="axes_4">
   <g id="patch_12">
    <path d="M 140.9 453.414 
C 148.700684 453.414 156.182922 450.314755 161.698839 444.798839 
C 167.214755 439.282922 170.314 431.800684 170.314 424 
C 170.314 416.199316 167.214755 408.717078 161.698839 403.201161 
C 156.182922 397.685245 148.700684 394.586 140.9 394.586 
C 133.099316 394.586 125.617078 397.685245 120.101161 403.201161 
C 114.585245 408.717078 111.486 416.199316 111.486 424 
C 111.486 431.800684 114.585245 439.282922 120.101161 444.798839 
C 125.617078 450.314755 133.099316 453.414 140.9 453.414 
z
" clip-path="url(#p117f99ffc1)" style="fill: #1a1a2e; stroke: #1a1a2e; stroke-linejoin: miter"/>
   </g>
   <g id="patch_13">
    <path d="M 76.058946 565.722 
C 83.85963 565.722 91.341868 562.622755 96.857785 557.106839 
C 102.373701 551.590922 105.472946 544.108684 105.472946 536.308 
C 105.472946 528.507316 102.373701 521.025078 96.857785 515.509161 
C 91.341868 509.993245 83.85963 506.894 76.058946 506.894 
C 68.258262 506.894 60.776024 509.993245 55.260107 515.509161 
C 49.744191 521.025078 46.644946 528.507316 46.644946 536.308 
C 46.644946 544.108684 49.744191 551.590922 55.260107 557.106839 
C 60.776024 562.622755 68.258262 565.722 76.058946 565.722 
z
" clip-path="url(#p117f99ffc1)" style="fill: #1a1a2e; stroke: #1a1a2e; stroke-linejoin: miter"/>
   </g>
   <g id="patch_14">
    <path d="M 205.741054 565.722 
C 213.541738 565.722 221.023976 562.622755 226.539893 557.106839 
C 232.055809 551.590922 235.155054 544.108684 235.155054 536.308 
C 235.155054 528.507316 232.055809 521.025078 226.539893 515.509161 
C 221.023976 509.993245 213.541738 506.894 205.741054 506.894 
C 197.94037 506.894 190.458132 509.993245 184.942215 515.509161 
C 179.426299 521.025078 176.327054 528.507316 176.327054 536.308 
C 176.327054 544.108684 179.426299 551.590922 184.942215 557.106839 
C 190.458132 562.622755 197.94037 565.722 205.741054 565.722 
z
" clip-path="url(#p117f99ffc1)" style="fill: #1a1a2e; stroke: #1a1a2e; stroke-linejoin: miter"/>
   </g>
   <g id="text_8">
    <!-- triangle not drawn — but perceived -->
    <g style="fill: #4a4a6a" transform="translate(60.802813 613.854) scale(0.09 -0.09)">
     <defs>
      <path id="DejaVuSans-Oblique-69" d="M 1172 4863 
L 1747 4863 
L 1606 4134 
L 1031 4134 
L 1172 4863 
z
M 909 3500 
L 1484 3500 
L 800 0 
L 225 0 
L 909 3500 
z
" transform="scale(0.015625)"/>
      <path id="DejaVuSans-Oblique-64" d="M 2675 525 
Q 2444 222 2128 65 
Q 1813 -91 1428 -91 
Q 903 -91 598 267 
Q 294 625 294 1247 
Q 294 1766 478 2236 
Q 663 2706 1013 3078 
Q 1244 3325 1534 3454 
Q 1825 3584 2144 3584 
Q 2481 3584 2739 3421 
Q 2997 3259 3138 2956 
L 3513 4863 
L 4091 4863 
L 3144 0 
L 2566 0 
L 2675 525 
z
M 891 1350 
Q 891 897 1095 644 
Q 1300 391 1663 391 
Q 1931 391 2161 520 
Q 2391 650 2566 903 
Q 2750 1166 2856 1509 
Q 2963 1853 2963 2188 
Q 2963 2622 2758 2865 
Q 2553 3109 2194 3109 
Q 1922 3109 1687 2981 
Q 1453 2853 1288 2613 
Q 1106 2353 998 2009 
Q 891 1666 891 1350 
z
" transform="scale(0.015625)"/>
      <path id="DejaVuSans-Oblique-2014" d="M 356 1978 
L 6131 1978 
L 6044 1528 
L 269 1528 
L 356 1978 
z
" transform="scale(0.015625)"/>
     </defs>
     <use xlink:href="#DejaVuSans-Oblique-74"/>
     <use xlink:href="#DejaVuSans-Oblique-72" transform="translate(39.208984 0)"/>
     <use xlink:href="#DejaVuSans-Oblique-69" transform="translate(80.322266 0)"/>
     <use xlink:href="#DejaVuSans-Oblique-61" transform="translate(108.105469 0)"/>
     <use xlink:href="#DejaVuSans-Oblique-6e" transform="translate(169.384766 0)"/>
     <use xlink:href="#DejaVuSans-Oblique-67" transform="translate(232.763672 0)"/>
     <use xlink:href="#DejaVuSans-Oblique-6c" transform="translate(296.240234 0)"/>
     <use xlink:href="#DejaVuSans-Oblique-65" transform="translate(324.023438 0)"/>
     <use xlink:href="#DejaVuSans-Oblique-20" transform="translate(385.546875 0)"/>
     <use xlink:href="#DejaVuSans-Oblique-6e" transform="translate(417.333984 0)"/>
     <use xlink:href="#DejaVuSans-Oblique-6f" transform="translate(480.712891 0)"/>
     <use xlink:href="#DejaVuSans-Oblique-74" transform="translate(541.894531 0)"/>
     <use xlink:href="#DejaVuSans-Oblique-20" transform="translate(581.103516 0)"/>
     <use xlink:href="#DejaVuSans-Oblique-64" transform="translate(612.890625 0)"/>
     <use xlink:href="#DejaVuSans-Oblique-72" transform="translate(676.367188 0)"/>
     <use xlink:href="#DejaVuSans-Oblique-61" transform="translate(717.480469 0)"/>
     <use xlink:href="#DejaVuSans-Oblique-77" transform="translate(778.759766 0)"/>
     <use xlink:href="#DejaVuSans-Oblique-6e" transform="translate(860.546875 0)"/>
     <use xlink:href="#DejaVuSans-Oblique-20" transform="translate(923.925781 0)"/>
     <use xlink:href="#DejaVuSans-Oblique-2014" transform="translate(955.712891 0)"/>
     <use xlink:href="#DejaVuSans-Oblique-20" transform="translate(1055.712891 0)"/>
     <use xlink:href="#DejaVuSans-Oblique-62" transform="translate(1087.5 0)"/>
     <use xlink:href="#DejaVuSans-Oblique-75" transform="translate(1150.976562 0)"/>
     <use xlink:href="#DejaVuSans-Oblique-74" transform="translate(1214.355469 0)"/>
     <use xlink:href="#DejaVuSans-Oblique-20" transform="translate(1253.564453 0)"/>
     <use xlink:href="#DejaVuSans-Oblique-70" transform="translate(1285.351562 0)"/>
     <use xlink:href="#DejaVuSans-Oblique-65" transform="translate(1348.828125 0)"/>
     <use xlink:href="#DejaVuSans-Oblique-72" transform="translate(1410.351562 0)"/>
     <use xlink:href="#DejaVuSans-Oblique-63" transform="translate(1451.464844 0)"/>
     <use xlink:href="#DejaVuSans-Oblique-65" transform="translate(1506.445312 0)"/>
     <use xlink:href="#DejaVuSans-Oblique-69" transform="translate(1567.96875 0)"/>
     <use xlink:href="#DejaVuSans-Oblique-76" transform="translate(1595.751953 0)"/>
     <use xlink:href="#DejaVuSans-Oblique-65" transform="translate(1654.931641 0)"/>
     <use xlink:href="#DejaVuSans-Oblique-64" transform="translate(1716.455078 0)"/>
    </g>
   </g>
   <g id="text_9">
    <!-- Closure -->
    <g style="fill: #1a1a2e" transform="translate(113.325781 362.52) scale(0.13 -0.13)">
     <defs>
      <path id="DejaVuSans-Bold-43" d="M 4288 256 
Q 3956 84 3597 -3 
Q 3238 -91 2847 -91 
Q 1681 -91 1000 561 
Q 319 1213 319 2328 
Q 319 3447 1000 4098 
Q 1681 4750 2847 4750 
Q 3238 4750 3597 4662 
Q 3956 4575 4288 4403 
L 4288 3438 
Q 3953 3666 3628 3772 
Q 3303 3878 2944 3878 
Q 2300 3878 1931 3465 
Q 1563 3053 1563 2328 
Q 1563 1606 1931 1193 
Q 2300 781 2944 781 
Q 3303 781 3628 887 
Q 3953 994 4288 1222 
L 4288 256 
z
" transform="scale(0.015625)"/>
      <path id="DejaVuSans-Bold-73" d="M 3272 3391 
L 3272 2541 
Q 2913 2691 2578 2766 
Q 2244 2841 1947 2841 
Q 1628 2841 1473 2761 
Q 1319 2681 1319 2516 
Q 1319 2381 1436 2309 
Q 1553 2238 1856 2203 
L 2053 2175 
Q 2913 2066 3209 1816 
Q 3506 1566 3506 1031 
Q 3506 472 3093 190 
Q 2681 -91 1863 -91 
Q 1516 -91 1145 -36 
Q 775 19 384 128 
L 384 978 
Q 719 816 1070 734 
Q 1422 653 1784 653 
Q 2113 653 2278 743 
Q 2444 834 2444 1013 
Q 2444 1163 2330 1236 
Q 2216 1309 1875 1350 
L 1678 1375 
Q 931 1469 631 1722 
Q 331 1975 331 2491 
Q 331 3047 712 3315 
Q 1094 3584 1881 3584 
Q 2191 3584 2531 3537 
Q 2872 3491 3272 3391 
z
" transform="scale(0.015625)"/>
     </defs>
     <use xlink:href="#DejaVuSans-Bold-43"/>
     <use xlink:href="#DejaVuSans-Bold-6c" transform="translate(73.388672 0)"/>
     <use xlink:href="#DejaVuSans-Bold-6f" transform="translate(107.666016 0)"/>
     <use xlink:href="#DejaVuSans-Bold-73" transform="translate(176.367188 0)"/>
     <use xlink:href="#DejaVuSans-Bold-75" transform="translate(235.888672 0)"/>
     <use xlink:href="#DejaVuSans-Bold-72" transform="translate(307.080078 0)"/>
     <use xlink:href="#DejaVuSans-Bold-65" transform="translate(356.396484 0)"/>
    </g>
   </g>
   <g id="patch_15">
    <path d="M 125.5245 450.631147 
C 130.198895 453.32991 135.502474 454.751 140.9 454.751 
C 146.297526 454.751 151.601105 453.32991 156.2755 450.631147 
L 140.9 424 
z
" clip-path="url(#p117f99ffc1)" style="fill: #ffffff; stroke: #ffffff; stroke-linejoin: miter"/>
   </g>
   <g id="patch_16">
    <path d="M 106.809946 536.308 
C 106.809946 530.910474 105.388856 525.606895 102.690093 520.9325 
C 99.99133 516.258105 96.108841 512.375616 91.434446 509.676853 
L 76.058946 536.308 
z
" clip-path="url(#p117f99ffc1)" style="fill: #ffffff; stroke: #ffffff; stroke-linejoin: miter"/>
   </g>
   <g id="patch_17">
    <path d="M 190.365554 509.676853 
C 185.691159 512.375616 181.80867 516.258105 179.109907 520.9325 
C 176.411144 525.606895 174.990054 530.910474 174.990054 536.308 
L 205.741054 536.308 
z
" clip-path="url(#p117f99ffc1)" style="fill: #ffffff; stroke: #ffffff; stroke-linejoin: miter"/>
   </g>
  </g>
  <g id="axes_5">
   <g id="line2d_33">
    <path d="M 472.805882 580.028235 
L 472.805882 428.411765 
" clip-path="url(#p51b5a5674f)" style="fill: none; stroke-dasharray: 3.7,1.6; stroke-dashoffset: 0; stroke: #dddddd"/>
   </g>
   <g id="line2d_34">
    <path d="M 392.158824 500.994118 
L 381.0943 493.335555 
L 375.224303 488.99296 
L 370.481619 485.22515 
L 366.20346 481.560181 
L 362.083935 477.73658 
L 358.130241 473.747146 
L 354.341508 469.592751 
L 350.708844 465.282289 
L 346.971016 460.509622 
L 342.891612 454.9438 
L 337.544368 447.241621 
L 335.705882 444.541176 
L 335.705882 444.541176 
" clip-path="url(#p51b5a5674f)" style="fill: none; stroke: #1a1a2e; stroke-width: 3.5; stroke-linecap: round"/>
   </g>
   <g id="line2d_35">
    <path d="M 392.158824 500.994118 
L 399.817387 489.929595 
L 404.159981 484.059597 
L 407.927791 479.316913 
L 411.59276 475.038754 
L 415.416362 470.919229 
L 419.405795 466.965535 
L 423.56019 463.176803 
L 427.870653 459.544138 
L 432.643319 455.806311 
L 438.209141 451.726906 
L 445.91132 446.379662 
L 448.611765 444.541176 
L 448.611765 444.541176 
" clip-path="url(#p51b5a5674f)" style="fill: none; stroke: #1a1a2e; stroke-width: 3.5; stroke-linecap: round"/>
   </g>
   <g id="line2d_36">
    <path d="M 392.158824 500.994118 
L 384.500261 512.058641 
L 380.157666 517.928638 
L 376.389856 522.671322 
L 372.724887 526.949481 
L 368.901285 531.069006 
L 364.911852 535.022701 
L 360.757457 538.811433 
L 356.446994 542.444098 
L 351.674328 546.181925 
L 346.108506 550.261329 
L 338.406327 555.608573 
L 335.705882 557.447059 
L 335.705882 557.447059 
" clip-path="url(#p51b5a5674f)" style="fill: none; stroke: #1a1a2e; stroke-width: 3.5; stroke-linecap: round"/>
   </g>
   <g id="line2d_37">
    <path d="M 392.158824 500.994118 
L 403.223347 508.652681 
L 409.093344 512.995275 
L 413.836028 516.763085 
L 418.114187 520.428054 
L 422.233712 524.251656 
L 426.187406 528.241089 
L 429.976139 532.395484 
L 433.608803 536.705947 
L 437.346631 541.478613 
L 441.426035 547.044435 
L 446.773279 554.746615 
L 448.611765 557.447059 
L 448.611765 557.447059 
" clip-path="url(#p51b5a5674f)" style="fill: none; stroke: #1a1a2e; stroke-width: 3.5; stroke-linecap: round"/>
   </g>
   <g id="text_10">
    <!-- ambiguous -->
    <g style="fill: #4a4a6a" transform="translate(368.636402 576.802353) scale(0.085 -0.085)">
     <use xlink:href="#DejaVuSans-Oblique-61"/>
     <use xlink:href="#DejaVuSans-Oblique-6d" transform="translate(61.279297 0)"/>
     <use xlink:href="#DejaVuSans-Oblique-62" transform="translate(158.691406 0)"/>
     <use xlink:href="#DejaVuSans-Oblique-69" transform="translate(222.167969 0)"/>
     <use xlink:href="#DejaVuSans-Oblique-67" transform="translate(249.951172 0)"/>
     <use xlink:href="#DejaVuSans-Oblique-75" transform="translate(313.427734 0)"/>
     <use xlink:href="#DejaVuSans-Oblique-6f" transform="translate(376.806641 0)"/>
     <use xlink:href="#DejaVuSans-Oblique-75" transform="translate(437.988281 0)"/>
     <use xlink:href="#DejaVuSans-Oblique-73" transform="translate(501.367188 0)"/>
    </g>
   </g>
   <g id="line2d_38">
    <path d="M 553.452941 500.994118 
L 542.388418 493.335555 
L 536.518421 488.99296 
L 531.775737 485.22515 
L 527.497578 481.560181 
L 523.378052 477.73658 
L 519.424358 473.747146 
L 515.635626 469.592751 
L 512.002961 465.282289 
L 508.265134 460.509622 
L 504.18573 454.9438 
L 498.838486 447.241621 
L 497 444.541176 
L 497 444.541176 
" clip-path="url(#p51b5a5674f)" style="fill: none; stroke: #c9a84c; stroke-width: 3.5; stroke-linecap: round"/>
   </g>
   <g id="line2d_39">
    <path d="M 553.452941 500.994118 
L 561.111504 489.929595 
L 565.454099 484.059597 
L 569.221909 479.316913 
L 572.886877 475.038754 
L 576.710479 470.919229 
L 580.699913 466.965535 
L 584.854308 463.176803 
L 589.16477 459.544138 
L 593.937437 455.806311 
L 599.503259 451.726906 
L 607.205438 446.379662 
L 609.905882 444.541176 
L 609.905882 444.541176 
" clip-path="url(#p51b5a5674f)" style="fill: none; stroke: #c9a84c; stroke-width: 3.5; stroke-linecap: round"/>
   </g>
   <g id="line2d_40">
    <path d="M 553.452941 500.994118 
L 545.794378 512.058641 
L 541.451783 517.928638 
L 537.683974 522.671322 
L 534.019005 526.949481 
L 530.195403 531.069006 
L 526.20597 535.022701 
L 522.051575 538.811433 
L 517.741112 542.444098 
L 512.968446 546.181925 
L 507.402624 550.261329 
L 499.700444 555.608573 
L 497 557.447059 
L 497 557.447059 
" clip-path="url(#p51b5a5674f)" style="fill: none; stroke: #1a1a2e; stroke-width: 3.5; stroke-linecap: round"/>
   </g>
   <g id="line2d_41">
    <path d="M 553.452941 500.994118 
L 564.517464 508.652681 
L 570.387462 512.995275 
L 575.130146 516.763085 
L 579.408304 520.428054 
L 583.52783 524.251656 
L 587.481524 528.241089 
L 591.270256 532.395484 
L 594.902921 536.705947 
L 598.640748 541.478613 
L 602.720152 547.044435 
L 608.067397 554.746615 
L 609.905882 557.447059 
L 609.905882 557.447059 
" clip-path="url(#p51b5a5674f)" style="fill: none; stroke: #1a1a2e; stroke-width: 3.5; stroke-linecap: round"/>
   </g>
   <g id="text_11">
    <!-- kink you don't perceive -->
    <g style="fill: #4a4a6a" transform="translate(503.645597 576.802353) scale(0.085 -0.085)">
     <defs>
      <path id="DejaVuSans-Oblique-6b" d="M 1172 4863 
L 1747 4863 
L 1197 2028 
L 3169 3500 
L 3916 3500 
L 1716 1825 
L 3322 0 
L 2625 0 
L 1131 1709 
L 800 0 
L 225 0 
L 1172 4863 
z
" transform="scale(0.015625)"/>
      <path id="DejaVuSans-Oblique-27" d="M 1147 4666 
L 1147 2931 
L 616 2931 
L 616 4666 
L 1147 4666 
z
" transform="scale(0.015625)"/>
     </defs>
     <use xlink:href="#DejaVuSans-Oblique-6b"/>
     <use xlink:href="#DejaVuSans-Oblique-69" transform="translate(57.910156 0)"/>
     <use xlink:href="#DejaVuSans-Oblique-6e" transform="translate(85.693359 0)"/>
     <use xlink:href="#DejaVuSans-Oblique-6b" transform="translate(149.072266 0)"/>
     <use xlink:href="#DejaVuSans-Oblique-20" transform="translate(206.982422 0)"/>
     <use xlink:href="#DejaVuSans-Oblique-79" transform="translate(238.769531 0)"/>
     <use xlink:href="#DejaVuSans-Oblique-6f" transform="translate(297.949219 0)"/>
     <use xlink:href="#DejaVuSans-Oblique-75" transform="translate(359.130859 0)"/>
     <use xlink:href="#DejaVuSans-Oblique-20" transform="translate(422.509766 0)"/>
     <use xlink:href="#DejaVuSans-Oblique-64" transform="translate(454.296875 0)"/>
     <use xlink:href="#DejaVuSans-Oblique-6f" transform="translate(517.773438 0)"/>
     <use xlink:href="#DejaVuSans-Oblique-6e" transform="translate(578.955078 0)"/>
     <use xlink:href="#DejaVuSans-Oblique-27" transform="translate(642.333984 0)"/>
     <use xlink:href="#DejaVuSans-Oblique-74" transform="translate(669.824219 0)"/>
     <use xlink:href="#DejaVuSans-Oblique-20" transform="translate(709.033203 0)"/>
     <use xlink:href="#DejaVuSans-Oblique-70" transform="translate(740.820312 0)"/>
     <use xlink:href="#DejaVuSans-Oblique-65" transform="translate(804.296875 0)"/>
     <use xlink:href="#DejaVuSans-Oblique-72" transform="translate(865.820312 0)"/>
     <use xlink:href="#DejaVuSans-Oblique-63" transform="translate(906.933594 0)"/>
     <use xlink:href="#DejaVuSans-Oblique-65" transform="translate(961.914062 0)"/>
     <use xlink:href="#DejaVuSans-Oblique-69" transform="translate(1023.4375 0)"/>
     <use xlink:href="#DejaVuSans-Oblique-76" transform="translate(1051.220703 0)"/>
     <use xlink:href="#DejaVuSans-Oblique-65" transform="translate(1110.400391 0)"/>
    </g>
   </g>
   <g id="text_12">
    <!-- Good Continuation -->
    <g style="fill: #1a1a2e" transform="translate(404.35682 415.572941) scale(0.13 -0.13)">
     <defs>
      <path id="DejaVuSans-Bold-20" transform="scale(0.015625)"/>
     </defs>
     <use xlink:href="#DejaVuSans-Bold-47"/>
     <use xlink:href="#DejaVuSans-Bold-6f" transform="translate(82.080078 0)"/>
     <use xlink:href="#DejaVuSans-Bold-6f" transform="translate(150.78125 0)"/>
     <use xlink:href="#DejaVuSans-Bold-64" transform="translate(219.482422 0)"/>
     <use xlink:href="#DejaVuSans-Bold-20" transform="translate(291.064453 0)"/>
     <use xlink:href="#DejaVuSans-Bold-43" transform="translate(325.878906 0)"/>
     <use xlink:href="#DejaVuSans-Bold-6f" transform="translate(399.267578 0)"/>
     <use xlink:href="#DejaVuSans-Bold-6e" transform="translate(467.96875 0)"/>
     <use xlink:href="#DejaVuSans-Bold-74" transform="translate(539.160156 0)"/>
     <use xlink:href="#DejaVuSans-Bold-69" transform="translate(586.962891 0)"/>
     <use xlink:href="#DejaVuSans-Bold-6e" transform="translate(621.240234 0)"/>
     <use xlink:href="#DejaVuSans-Bold-75" transform="translate(692.431641 0)"/>
     <use xlink:href="#DejaVuSans-Bold-61" transform="translate(763.623047 0)"/>
     <use xlink:href="#DejaVuSans-Bold-74" transform="translate(831.103516 0)"/>
     <use xlink:href="#DejaVuSans-Bold-69" transform="translate(878.90625 0)"/>
     <use xlink:href="#DejaVuSans-Bold-6f" transform="translate(913.183594 0)"/>
     <use xlink:href="#DejaVuSans-Bold-6e" transform="translate(981.884766 0)"/>
    </g>
   </g>
  </g>
  <g id="axes_6">
   <g id="line2d_42">
    <g clip-path="url(#p30e91932a3)">
     <use xlink:href="#m8f7576baf0" x="757.208726" y="479.869332" style="fill: #1a1a2e; stroke: #1a1a2e"/>
    </g>
   </g>
   <g id="patch_18">
    <path d="M 757.208726 473.854954 
Q 757.208726 459.143329 757.208726 446.444166 
" style="fill: none; stroke: #1a1a2e; stroke-width: 1.8; stroke-linecap: round"/>
    <path d="M 755.208726 450.444166 
L 757.208726 446.444166 
L 759.208726 450.444166 
" style="fill: none; stroke: #1a1a2e; stroke-width: 1.8; stroke-linecap: round"/>
   </g>
   <g id="line2d_43">
    <g clip-path="url(#p30e91932a3)">
     <use xlink:href="#m8f7576baf0" x="749.56803" y="489.637458" style="fill: #1a1a2e; stroke: #1a1a2e"/>
    </g>
   </g>
   <g id="patch_19">
    <path d="M 749.56803 483.62308 
Q 749.56803 468.911455 749.56803 456.212291 
" style="fill: none; stroke: #1a1a2e; stroke-width: 1.8; stroke-linecap: round"/>
    <path d="M 747.56803 460.212291 
L 749.56803 456.212291 
L 751.56803 460.212291 
" style="fill: none; stroke: #1a1a2e; stroke-width: 1.8; stroke-linecap: round"/>
   </g>
   <g id="line2d_44">
    <g clip-path="url(#p30e91932a3)">
     <use xlink:href="#m8f7576baf0" x="759.025401" y="504.521185" style="fill: #1a1a2e; stroke: #1a1a2e"/>
    </g>
   </g>
   <g id="patch_20">
    <path d="M 759.025401 498.506807 
Q 759.025401 483.795182 759.025401 471.096019 
" style="fill: none; stroke: #1a1a2e; stroke-width: 1.8; stroke-linecap: round"/>
    <path d="M 757.025401 475.096019 
L 759.025401 471.096019 
L 761.025401 475.096019 
" style="fill: none; stroke: #1a1a2e; stroke-width: 1.8; stroke-linecap: round"/>
   </g>
   <g id="line2d_45">
    <g clip-path="url(#p30e91932a3)">
     <use xlink:href="#m8f7576baf0" x="769.558383" y="492.343375" style="fill: #1a1a2e; stroke: #1a1a2e"/>
    </g>
   </g>
   <g id="patch_21">
    <path d="M 769.558383 486.328997 
Q 769.558383 471.617372 769.558383 458.918208 
" style="fill: none; stroke: #1a1a2e; stroke-width: 1.8; stroke-linecap: round"/>
    <path d="M 767.558383 462.918208 
L 769.558383 458.918208 
L 771.558383 462.918208 
" style="fill: none; stroke: #1a1a2e; stroke-width: 1.8; stroke-linecap: round"/>
   </g>
   <g id="line2d_46">
    <g clip-path="url(#p30e91932a3)">
     <use xlink:href="#m8f7576baf0" x="748.414197" y="504.448305" style="fill: #1a1a2e; stroke: #1a1a2e"/>
    </g>
   </g>
   <g id="patch_22">
    <path d="M 748.414197 498.433927 
Q 748.414197 483.722302 748.414197 471.023138 
" style="fill: none; stroke: #1a1a2e; stroke-width: 1.8; stroke-linecap: round"/>
    <path d="M 746.414197 475.023138 
L 748.414197 471.023138 
L 750.414197 475.023138 
" style="fill: none; stroke: #1a1a2e; stroke-width: 1.8; stroke-linecap: round"/>
   </g>
   <g id="line2d_47">
    <g clip-path="url(#p30e91932a3)">
     <use xlink:href="#m8f7576baf0" x="748.414395" y="504.476126" style="fill: #1a1a2e; stroke: #1a1a2e"/>
    </g>
   </g>
   <g id="patch_23">
    <path d="M 748.414395 498.461748 
Q 748.414395 483.750123 748.414395 471.050959 
" style="fill: none; stroke: #1a1a2e; stroke-width: 1.8; stroke-linecap: round"/>
    <path d="M 746.414395 475.050959 
L 748.414395 471.050959 
L 750.414395 475.050959 
" style="fill: none; stroke: #1a1a2e; stroke-width: 1.8; stroke-linecap: round"/>
   </g>
   <g id="line2d_48">
    <defs>
     <path id="m0cff449cac" d="M 0 4.5 
C 1.193414 4.5 2.338109 4.025852 3.181981 3.181981 
C 4.025852 2.338109 4.5 1.193414 4.5 0 
C 4.5 -1.193414 4.025852 -2.338109 3.181981 -3.181981 
C 2.338109 -4.025852 1.193414 -4.5 0 -4.5 
C -1.193414 -4.5 -2.338109 -4.025852 -3.181981 -3.181981 
C -4.025852 -2.338109 -4.5 -1.193414 -4.5 0 
C -4.5 1.193414 -4.025852 2.338109 -3.181981 3.181981 
C -2.338109 4.025852 -1.193414 4.5 0 4.5 
z
" style="stroke: #4a90d9"/>
    </defs>
    <g clip-path="url(#p30e91932a3)">
     <use xlink:href="#m0cff449cac" x="861.103297" y="509.798254" style="fill: #4a90d9; stroke: #4a90d9"/>
    </g>
   </g>
   <g id="patch_24">
    <path d="M 861.103297 515.812632 
Q 861.103297 530.524257 861.103297 543.22342 
" style="fill: none; stroke: #4a90d9; stroke-width: 1.8; stroke-linecap: round"/>
    <path d="M 863.103297 539.22342 
L 861.103297 543.22342 
L 859.103297 539.22342 
" style="fill: none; stroke: #4a90d9; stroke-width: 1.8; stroke-linecap: round"/>
   </g>
   <g id="line2d_49">
    <g clip-path="url(#p30e91932a3)">
     <use xlink:href="#m0cff449cac" x="835.169264" y="515.86625" style="fill: #4a90d9; stroke: #4a90d9"/>
    </g>
   </g>
   <g id="patch_25">
    <path d="M 835.169264 521.880629 
Q 835.169264 536.592253 835.169264 549.291417 
" style="fill: none; stroke: #4a90d9; stroke-width: 1.8; stroke-linecap: round"/>
    <path d="M 837.169264 545.291417 
L 835.169264 549.291417 
L 833.169264 545.291417 
" style="fill: none; stroke: #4a90d9; stroke-width: 1.8; stroke-linecap: round"/>
   </g>
   <g id="line2d_50">
    <g clip-path="url(#p30e91932a3)">
     <use xlink:href="#m0cff449cac" x="837.435828" y="481.235848" style="fill: #4a90d9; stroke: #4a90d9"/>
    </g>
   </g>
   <g id="patch_26">
    <path d="M 837.435828 487.250227 
Q 837.435828 501.961851 837.435828 514.661015 
" style="fill: none; stroke: #4a90d9; stroke-width: 1.8; stroke-linecap: round"/>
    <path d="M 839.435828 510.661015 
L 837.435828 514.661015 
L 835.435828 510.661015 
" style="fill: none; stroke: #4a90d9; stroke-width: 1.8; stroke-linecap: round"/>
   </g>
   <g id="line2d_51">
    <g clip-path="url(#p30e91932a3)">
     <use xlink:href="#m0cff449cac" x="851.425759" y="501.588766" style="fill: #4a90d9; stroke: #4a90d9"/>
    </g>
   </g>
   <g id="patch_27">
    <path d="M 851.425759 507.603145 
Q 851.425759 522.314769 851.425759 535.013933 
" style="fill: none; stroke: #4a90d9; stroke-width: 1.8; stroke-linecap: round"/>
    <path d="M 853.425759 531.013933 
L 851.425759 535.013933 
L 849.425759 531.013933 
" style="fill: none; stroke: #4a90d9; stroke-width: 1.8; stroke-linecap: round"/>
   </g>
   <g id="line2d_52">
    <g clip-path="url(#p30e91932a3)">
     <use xlink:href="#m0cff449cac" x="846.004368" y="498.059433" style="fill: #4a90d9; stroke: #4a90d9"/>
    </g>
   </g>
   <g id="patch_28">
    <path d="M 846.004368 504.073811 
Q 846.004368 518.785436 846.004368 531.4846 
" style="fill: none; stroke: #4a90d9; stroke-width: 1.8; stroke-linecap: round"/>
    <path d="M 848.004368 527.4846 
L 846.004368 531.4846 
L 844.004368 527.4846 
" style="fill: none; stroke: #4a90d9; stroke-width: 1.8; stroke-linecap: round"/>
   </g>
   <g id="line2d_53">
    <g clip-path="url(#p30e91932a3)">
     <use xlink:href="#m0cff449cac" x="861.973103" y="516.015995" style="fill: #4a90d9; stroke: #4a90d9"/>
    </g>
   </g>
   <g id="patch_29">
    <path d="M 861.973103 522.030373 
Q 861.973103 536.741998 861.973103 549.441162 
" style="fill: none; stroke: #4a90d9; stroke-width: 1.8; stroke-linecap: round"/>
    <path d="M 863.973103 545.441162 
L 861.973103 549.441162 
L 859.973103 545.441162 
" style="fill: none; stroke: #4a90d9; stroke-width: 1.8; stroke-linecap: round"/>
   </g>
   <g id="text_13">
    <!-- same motion → same group -->
    <g style="fill: #4a4a6a" transform="translate(741.786999 616.528) scale(0.09 -0.09)">
     <defs>
      <path id="DejaVuSans-Oblique-2192" d="M 5050 2147 
L 5050 1866 
L 3822 638 
L 3447 1013 
L 4175 1741 
L 366 1741 
L 366 2272 
L 4175 2272 
L 3447 3000 
L 3822 3375 
L 5050 2147 
z
" transform="scale(0.015625)"/>
     </defs>
     <use xlink:href="#DejaVuSans-Oblique-73"/>
     <use xlink:href="#DejaVuSans-Oblique-61" transform="translate(52.099609 0)"/>
     <use xlink:href="#DejaVuSans-Oblique-6d" transform="translate(113.378906 0)"/>
     <use xlink:href="#DejaVuSans-Oblique-65" transform="translate(210.791016 0)"/>
     <use xlink:href="#DejaVuSans-Oblique-20" transform="translate(272.314453 0)"/>
     <use xlink:href="#DejaVuSans-Oblique-6d" transform="translate(304.101562 0)"/>
     <use xlink:href="#DejaVuSans-Oblique-6f" transform="translate(401.513672 0)"/>
     <use xlink:href="#DejaVuSans-Oblique-74" transform="translate(462.695312 0)"/>
     <use xlink:href="#DejaVuSans-Oblique-69" transform="translate(501.904297 0)"/>
     <use xlink:href="#DejaVuSans-Oblique-6f" transform="translate(529.6875 0)"/>
     <use xlink:href="#DejaVuSans-Oblique-6e" transform="translate(590.869141 0)"/>
     <use xlink:href="#DejaVuSans-Oblique-20" transform="translate(654.248047 0)"/>
     <use xlink:href="#DejaVuSans-Oblique-2192" transform="translate(686.035156 0)"/>
     <use xlink:href="#DejaVuSans-Oblique-20" transform="translate(769.824219 0)"/>
     <use xlink:href="#DejaVuSans-Oblique-73" transform="translate(801.611328 0)"/>
     <use xlink:href="#DejaVuSans-Oblique-61" transform="translate(853.710938 0)"/>
     <use xlink:href="#DejaVuSans-Oblique-6d" transform="translate(914.990234 0)"/>
     <use xlink:href="#DejaVuSans-Oblique-65" transform="translate(1012.402344 0)"/>
     <use xlink:href="#DejaVuSans-Oblique-20" transform="translate(1073.925781 0)"/>
     <use xlink:href="#DejaVuSans-Oblique-67" transform="translate(1105.712891 0)"/>
     <use xlink:href="#DejaVuSans-Oblique-72" transform="translate(1169.189453 0)"/>
     <use xlink:href="#DejaVuSans-Oblique-6f" transform="translate(1210.302734 0)"/>
     <use xlink:href="#DejaVuSans-Oblique-75" transform="translate(1271.484375 0)"/>
     <use xlink:href="#DejaVuSans-Oblique-70" transform="translate(1334.863281 0)"/>
    </g>
   </g>
   <g id="text_14">
    <!-- Common Fate -->
    <g style="fill: #1a1a2e" transform="translate(754.613015 362.52) scale(0.13 -0.13)">
     <use xlink:href="#DejaVuSans-Bold-43"/>
     <use xlink:href="#DejaVuSans-Bold-6f" transform="translate(73.388672 0)"/>
     <use xlink:href="#DejaVuSans-Bold-6d" transform="translate(142.089844 0)"/>
     <use xlink:href="#DejaVuSans-Bold-6d" transform="translate(246.289062 0)"/>
     <use xlink:href="#DejaVuSans-Bold-6f" transform="translate(350.488281 0)"/>
     <use xlink:href="#DejaVuSans-Bold-6e" transform="translate(419.189453 0)"/>
     <use xlink:href="#DejaVuSans-Bold-20" transform="translate(490.380859 0)"/>
     <use xlink:href="#DejaVuSans-Bold-46" transform="translate(525.195312 0)"/>
     <use xlink:href="#DejaVuSans-Bold-61" transform="translate(587.630859 0)"/>
     <use xlink:href="#DejaVuSans-Bold-74" transform="translate(655.111328 0)"/>
     <use xlink:href="#DejaVuSans-Bold-65" transform="translate(702.914062 0)"/>
    </g>
   </g>
  </g>
  <g id="text_15">
   <!-- Gestalt Principles of Perceptual Grouping -->
   <g style="fill: #1a1a2e" transform="translate(297.091429 18.597656) scale(0.15 -0.15)">
    <defs>
     <path id="DejaVuSans-Bold-63" d="M 3366 3391 
L 3366 2478 
Q 3138 2634 2908 2709 
Q 2678 2784 2431 2784 
Q 1963 2784 1702 2511 
Q 1441 2238 1441 1747 
Q 1441 1256 1702 982 
Q 1963 709 2431 709 
Q 2694 709 2930 787 
Q 3166 866 3366 1019 
L 3366 103 
Q 3103 6 2833 -42 
Q 2563 -91 2291 -91 
Q 1344 -91 809 395 
Q 275 881 275 1747 
Q 275 2613 809 3098 
Q 1344 3584 2291 3584 
Q 2566 3584 2833 3536 
Q 3100 3488 3366 3391 
z
" transform="scale(0.015625)"/>
     <path id="DejaVuSans-Bold-70" d="M 1656 506 
L 1656 -1331 
L 538 -1331 
L 538 3500 
L 1656 3500 
L 1656 2988 
Q 1888 3294 2169 3439 
Q 2450 3584 2816 3584 
Q 3463 3584 3878 3070 
Q 4294 2556 4294 1747 
Q 4294 938 3878 423 
Q 3463 -91 2816 -91 
Q 2450 -91 2169 54 
Q 1888 200 1656 506 
z
M 2400 2772 
Q 2041 2772 1848 2508 
Q 1656 2244 1656 1747 
Q 1656 1250 1848 986 
Q 2041 722 2400 722 
Q 2759 722 2948 984 
Q 3138 1247 3138 1747 
Q 3138 2247 2948 2509 
Q 2759 2772 2400 2772 
z
" transform="scale(0.015625)"/>
     <path id="DejaVuSans-Bold-66" d="M 2841 4863 
L 2841 4128 
L 2222 4128 
Q 1984 4128 1890 4042 
Q 1797 3956 1797 3744 
L 1797 3500 
L 2753 3500 
L 2753 2700 
L 1797 2700 
L 1797 0 
L 678 0 
L 678 2700 
L 122 2700 
L 122 3500 
L 678 3500 
L 678 3744 
Q 678 4316 997 4589 
Q 1316 4863 1984 4863 
L 2841 4863 
z
" transform="scale(0.015625)"/>
    </defs>
    <use xlink:href="#DejaVuSans-Bold-47"/>
    <use xlink:href="#DejaVuSans-Bold-65" transform="translate(82.080078 0)"/>
    <use xlink:href="#DejaVuSans-Bold-73" transform="translate(149.902344 0)"/>
    <use xlink:href="#DejaVuSans-Bold-74" transform="translate(209.423828 0)"/>
    <use xlink:href="#DejaVuSans-Bold-61" transform="translate(257.226562 0)"/>
    <use xlink:href="#DejaVuSans-Bold-6c" transform="translate(324.707031 0)"/>
    <use xlink:href="#DejaVuSans-Bold-74" transform="translate(358.984375 0)"/>
    <use xlink:href="#DejaVuSans-Bold-20" transform="translate(406.787109 0)"/>
    <use xlink:href="#DejaVuSans-Bold-50" transform="translate(441.601562 0)"/>
    <use xlink:href="#DejaVuSans-Bold-72" transform="translate(514.892578 0)"/>
    <use xlink:href="#DejaVuSans-Bold-69" transform="translate(564.208984 0)"/>
    <use xlink:href="#DejaVuSans-Bold-6e" transform="translate(598.486328 0)"/>
    <use xlink:href="#DejaVuSans-Bold-63" transform="translate(669.677734 0)"/>
    <use xlink:href="#DejaVuSans-Bold-69" transform="translate(728.955078 0)"/>
    <use xlink:href="#DejaVuSans-Bold-70" transform="translate(763.232422 0)"/>
    <use xlink:href="#DejaVuSans-Bold-6c" transform="translate(834.814453 0)"/>
    <use xlink:href="#DejaVuSans-Bold-65" transform="translate(869.091797 0)"/>
    <use xlink:href="#DejaVuSans-Bold-73" transform="translate(936.914062 0)"/>
    <use xlink:href="#DejaVuSans-Bold-20" transform="translate(996.435547 0)"/>
    <use xlink:href="#DejaVuSans-Bold-6f" transform="translate(1031.25 0)"/>
    <use xlink:href="#DejaVuSans-Bold-66" transform="translate(1099.951172 0)"/>
    <use xlink:href="#DejaVuSans-Bold-20" transform="translate(1143.457031 0)"/>
    <use xlink:href="#DejaVuSans-Bold-50" transform="translate(1178.271484 0)"/>
    <use xlink:href="#DejaVuSans-Bold-65" transform="translate(1251.5625 0)"/>
    <use xlink:href="#DejaVuSans-Bold-72" transform="translate(1319.384766 0)"/>
    <use xlink:href="#DejaVuSans-Bold-63" transform="translate(1368.701172 0)"/>
    <use xlink:href="#DejaVuSans-Bold-65" transform="translate(1427.978516 0)"/>
    <use xlink:href="#DejaVuSans-Bold-70" transform="translate(1495.800781 0)"/>
    <use xlink:href="#DejaVuSans-Bold-74" transform="translate(1567.382812 0)"/>
    <use xlink:href="#DejaVuSans-Bold-75" transform="translate(1615.185547 0)"/>
    <use xlink:href="#DejaVuSans-Bold-61" transform="translate(1686.376953 0)"/>
    <use xlink:href="#DejaVuSans-Bold-6c" transform="translate(1753.857422 0)"/>
    <use xlink:href="#DejaVuSans-Bold-20" transform="translate(1788.134766 0)"/>
    <use xlink:href="#DejaVuSans-Bold-47" transform="translate(1822.949219 0)"/>
    <use xlink:href="#DejaVuSans-Bold-72" transform="translate(1905.029297 0)"/>
    <use xlink:href="#DejaVuSans-Bold-6f" transform="translate(1954.345703 0)"/>
    <use xlink:href="#DejaVuSans-Bold-75" transform="translate(2023.046875 0)"/>
    <use xlink:href="#DejaVuSans-Bold-70" transform="translate(2094.238281 0)"/>
    <use xlink:href="#DejaVuSans-Bold-69" transform="translate(2165.820312 0)"/>
    <use xlink:href="#DejaVuSans-Bold-6e" transform="translate(2200.097656 0)"/>
    <use xlink:href="#DejaVuSans-Bold-67" transform="translate(2271.289062 0)"/>
   </g>
  </g>
 </g>
 <defs>
  <clipPath id="pa352dcf557">
   <rect x="7.2" y="74.24" width="267.4" height="267.4"/>
  </clipPath>
  <clipPath id="pffda483062">
   <rect x="339.105882" y="74.24" width="267.4" height="267.4"/>
  </clipPath>
  <clipPath id="pe9384eefe1">
   <rect x="671.011765" y="74.24" width="267.4" height="267.4"/>
  </clipPath>
  <clipPath id="p117f99ffc1">
   <rect x="7.2" y="370.52" width="267.4" height="267.4"/>
  </clipPath>
  <clipPath id="p51b5a5674f">
   <rect x="311.511765" y="423.572941" width="322.588235" height="161.294118"/>
  </clipPath>
  <clipPath id="p30e91932a3">
   <rect x="671.011765" y="370.52" width="267.4" height="267.4"/>
  </clipPath>
 </defs>
</svg>
