<?xml version="1.0" encoding="utf-8" standalone="no"?>
<!DOCTYPE svg PUBLIC "-//W3C//DTD SVG 1.1//EN"
  "http://www.w3.org/Graphics/SVG/1.1/DTD/svg11.dtd">
<svg xmlns:xlink="http://www.w3.org/1999/xlink" width="855.46125pt" height="502.397812pt" viewBox="0 0 855.46125 502.397812" xmlns="http://www.w3.org/2000/svg" version="1.1">
 <metadata>
  <rdf:RDF xmlns:dc="http://purl.org/dc/elements/1.1/" xmlns:cc="http://creativecommons.org/ns#" xmlns:rdf="http://www.w3.org/1999/02/22-rdf-syntax-ns#">
   <cc:Work>
    <dc:type rdf:resource="http://purl.org/dc/dcmitype/StillImage"/>
    <dc:date>2026-07-01T10:14:36.096750</dc:date>
    <dc:format>image/svg+xml</dc:format>
    <dc:creator>
     <cc:Agent>
      <dc:title>Matplotlib v3.10.9, https://matplotlib.org/</dc:title>
     </cc:Agent>
    </dc:creator>
   </cc:Work>
  </rdf:RDF>
 </metadata>
 <defs>
  <style type="text/css">*{stroke-linejoin: round; stroke-linecap: butt}</style>
 </defs>
 <g id="figure_1">
  <g id="patch_1">
   <path d="M 0 502.397812 
L 855.46125 502.397812 
L 855.46125 0 
L 0 0 
z
" style="fill: #ffffff"/>
  </g>
  <g id="axes_1">
   <g id="patch_2">
    <path d="M 52.90125 421.157812 
L 848.26125 421.157812 
L 848.26125 31.837812 
L 52.90125 31.837812 
z
" style="fill: #ffffff"/>
   </g>
   <g id="matplotlib.axis_1">
    <g id="xtick_1">
     <g id="line2d_1">
      <defs>
       <path id="m0fc2499fa8" d="M 0 0 
L 0 3.5 
" style="stroke: #333333; stroke-width: 0.8"/>
      </defs>
      <g>
       <use xlink:href="#m0fc2499fa8" x="128.649821" y="421.157812" style="fill: #333333; stroke: #333333; stroke-width: 0.8"/>
      </g>
     </g>
     <g id="text_1">
      <!-- 10 -->
      <g style="fill: #333333" transform="translate(122.287321 435.75625) scale(0.1 -0.1)">
       <defs>
        <path id="DejaVuSans-31" d="M 794 531 
L 1825 531 
L 1825 4091 
L 703 3866 
L 703 4441 
L 1819 4666 
L 2450 4666 
L 2450 531 
L 3481 531 
L 3481 0 
L 794 0 
L 794 531 
z
" transform="scale(0.015625)"/>
        <path id="DejaVuSans-30" d="M 2034 4250 
Q 1547 4250 1301 3770 
Q 1056 3291 1056 2328 
Q 1056 1369 1301 889 
Q 1547 409 2034 409 
Q 2525 409 2770 889 
Q 3016 1369 3016 2328 
Q 3016 3291 2770 3770 
Q 2525 4250 2034 4250 
z
M 2034 4750 
Q 2819 4750 3233 4129 
Q 3647 3509 3647 2328 
Q 3647 1150 3233 529 
Q 2819 -91 2034 -91 
Q 1250 -91 836 529 
Q 422 1150 422 2328 
Q 422 3509 836 4129 
Q 1250 4750 2034 4750 
z
" transform="scale(0.015625)"/>
       </defs>
       <use xlink:href="#DejaVuSans-31"/>
       <use xlink:href="#DejaVuSans-30" transform="translate(63.623047 0)"/>
      </g>
     </g>
    </g>
    <g id="xtick_2">
     <g id="line2d_2">
      <g>
       <use xlink:href="#m0fc2499fa8" x="166.524107" y="421.157812" style="fill: #333333; stroke: #333333; stroke-width: 0.8"/>
      </g>
     </g>
     <g id="text_2">
      <!-- 20 -->
      <g style="fill: #333333" transform="translate(160.161607 435.75625) scale(0.1 -0.1)">
       <defs>
        <path id="DejaVuSans-32" d="M 1228 531 
L 3431 531 
L 3431 0 
L 469 0 
L 469 531 
Q 828 903 1448 1529 
Q 2069 2156 2228 2338 
Q 2531 2678 2651 2914 
Q 2772 3150 2772 3378 
Q 2772 3750 2511 3984 
Q 2250 4219 1831 4219 
Q 1534 4219 1204 4116 
Q 875 4013 500 3803 
L 500 4441 
Q 881 4594 1212 4672 
Q 1544 4750 1819 4750 
Q 2544 4750 2975 4387 
Q 3406 4025 3406 3419 
Q 3406 3131 3298 2873 
Q 3191 2616 2906 2266 
Q 2828 2175 2409 1742 
Q 1991 1309 1228 531 
z
" transform="scale(0.015625)"/>
       </defs>
       <use xlink:href="#DejaVuSans-32"/>
       <use xlink:href="#DejaVuSans-30" transform="translate(63.623047 0)"/>
      </g>
     </g>
    </g>
    <g id="xtick_3">
     <g id="line2d_3">
      <g>
       <use xlink:href="#m0fc2499fa8" x="242.272679" y="421.157812" style="fill: #333333; stroke: #333333; stroke-width: 0.8"/>
      </g>
     </g>
     <g id="text_3">
      <!-- 40 -->
      <g style="fill: #333333" transform="translate(235.910179 435.75625) scale(0.1 -0.1)">
       <defs>
        <path id="DejaVuSans-34" d="M 2419 4116 
L 825 1625 
L 2419 1625 
L 2419 4116 
z
M 2253 4666 
L 3047 4666 
L 3047 1625 
L 3713 1625 
L 3713 1100 
L 3047 1100 
L 3047 0 
L 2419 0 
L 2419 1100 
L 313 1100 
L 313 1709 
L 2253 4666 
z
" transform="scale(0.015625)"/>
       </defs>
       <use xlink:href="#DejaVuSans-34"/>
       <use xlink:href="#DejaVuSans-30" transform="translate(63.623047 0)"/>
      </g>
     </g>
    </g>
    <g id="xtick_4">
     <g id="line2d_4">
      <g>
       <use xlink:href="#m0fc2499fa8" x="393.769821" y="421.157812" style="fill: #333333; stroke: #333333; stroke-width: 0.8"/>
      </g>
     </g>
     <g id="text_4">
      <!-- 80 -->
      <g style="fill: #333333" transform="translate(387.407321 435.75625) scale(0.1 -0.1)">
       <defs>
        <path id="DejaVuSans-38" d="M 2034 2216 
Q 1584 2216 1326 1975 
Q 1069 1734 1069 1313 
Q 1069 891 1326 650 
Q 1584 409 2034 409 
Q 2484 409 2743 651 
Q 3003 894 3003 1313 
Q 3003 1734 2745 1975 
Q 2488 2216 2034 2216 
z
M 1403 2484 
Q 997 2584 770 2862 
Q 544 3141 544 3541 
Q 544 4100 942 4425 
Q 1341 4750 2034 4750 
Q 2731 4750 3128 4425 
Q 3525 4100 3525 3541 
Q 3525 3141 3298 2862 
Q 3072 2584 2669 2484 
Q 3125 2378 3379 2068 
Q 3634 1759 3634 1313 
Q 3634 634 3220 271 
Q 2806 -91 2034 -91 
Q 1263 -91 848 271 
Q 434 634 434 1313 
Q 434 1759 690 2068 
Q 947 2378 1403 2484 
z
M 1172 3481 
Q 1172 3119 1398 2916 
Q 1625 2713 2034 2713 
Q 2441 2713 2670 2916 
Q 2900 3119 2900 3481 
Q 2900 3844 2670 4047 
Q 2441 4250 2034 4250 
Q 1625 4250 1398 4047 
Q 1172 3844 1172 3481 
z
" transform="scale(0.015625)"/>
       </defs>
       <use xlink:href="#DejaVuSans-38"/>
       <use xlink:href="#DejaVuSans-30" transform="translate(63.623047 0)"/>
      </g>
     </g>
    </g>
    <g id="xtick_5">
     <g id="line2d_5">
      <g>
       <use xlink:href="#m0fc2499fa8" x="696.764107" y="421.157812" style="fill: #333333; stroke: #333333; stroke-width: 0.8"/>
      </g>
     </g>
     <g id="text_5">
      <!-- 160 -->
      <g style="fill: #333333" transform="translate(687.220357 435.75625) scale(0.1 -0.1)">
       <defs>
        <path id="DejaVuSans-36" d="M 2113 2584 
Q 1688 2584 1439 2293 
Q 1191 2003 1191 1497 
Q 1191 994 1439 701 
Q 1688 409 2113 409 
Q 2538 409 2786 701 
Q 3034 994 3034 1497 
Q 3034 2003 2786 2293 
Q 2538 2584 2113 2584 
z
M 3366 4563 
L 3366 3988 
Q 3128 4100 2886 4159 
Q 2644 4219 2406 4219 
Q 1781 4219 1451 3797 
Q 1122 3375 1075 2522 
Q 1259 2794 1537 2939 
Q 1816 3084 2150 3084 
Q 2853 3084 3261 2657 
Q 3669 2231 3669 1497 
Q 3669 778 3244 343 
Q 2819 -91 2113 -91 
Q 1303 -91 875 529 
Q 447 1150 447 2328 
Q 447 3434 972 4092 
Q 1497 4750 2381 4750 
Q 2619 4750 2861 4703 
Q 3103 4656 3366 4563 
z
" transform="scale(0.015625)"/>
       </defs>
       <use xlink:href="#DejaVuSans-31"/>
       <use xlink:href="#DejaVuSans-36" transform="translate(63.623047 0)"/>
       <use xlink:href="#DejaVuSans-30" transform="translate(127.246094 0)"/>
      </g>
     </g>
    </g>
    <g id="text_6">
     <!-- Base Stimulus Intensity  (I, arbitrary units) -->
     <g style="fill: #333333" transform="translate(323.102813 454.954062) scale(0.12 -0.12)">
      <defs>
       <path id="DejaVuSans-42" d="M 1259 2228 
L 1259 519 
L 2272 519 
Q 2781 519 3026 730 
Q 3272 941 3272 1375 
Q 3272 1813 3026 2020 
Q 2781 2228 2272 2228 
L 1259 2228 
z
M 1259 4147 
L 1259 2741 
L 2194 2741 
Q 2656 2741 2882 2914 
Q 3109 3088 3109 3444 
Q 3109 3797 2882 3972 
Q 2656 4147 2194 4147 
L 1259 4147 
z
M 628 4666 
L 2241 4666 
Q 2963 4666 3353 4366 
Q 3744 4066 3744 3513 
Q 3744 3084 3544 2831 
Q 3344 2578 2956 2516 
Q 3422 2416 3680 2098 
Q 3938 1781 3938 1306 
Q 3938 681 3513 340 
Q 3088 0 2303 0 
L 628 0 
L 628 4666 
z
" transform="scale(0.015625)"/>
       <path id="DejaVuSans-61" d="M 2194 1759 
Q 1497 1759 1228 1600 
Q 959 1441 959 1056 
Q 959 750 1161 570 
Q 1363 391 1709 391 
Q 2188 391 2477 730 
Q 2766 1069 2766 1631 
L 2766 1759 
L 2194 1759 
z
M 3341 1997 
L 3341 0 
L 2766 0 
L 2766 531 
Q 2569 213 2275 61 
Q 1981 -91 1556 -91 
Q 1019 -91 701 211 
Q 384 513 384 1019 
Q 384 1609 779 1909 
Q 1175 2209 1959 2209 
L 2766 2209 
L 2766 2266 
Q 2766 2663 2505 2880 
Q 2244 3097 1772 3097 
Q 1472 3097 1187 3025 
Q 903 2953 641 2809 
L 641 3341 
Q 956 3463 1253 3523 
Q 1550 3584 1831 3584 
Q 2591 3584 2966 3190 
Q 3341 2797 3341 1997 
z
" transform="scale(0.015625)"/>
       <path id="DejaVuSans-73" d="M 2834 3397 
L 2834 2853 
Q 2591 2978 2328 3040 
Q 2066 3103 1784 3103 
Q 1356 3103 1142 2972 
Q 928 2841 928 2578 
Q 928 2378 1081 2264 
Q 1234 2150 1697 2047 
L 1894 2003 
Q 2506 1872 2764 1633 
Q 3022 1394 3022 966 
Q 3022 478 2636 193 
Q 2250 -91 1575 -91 
Q 1294 -91 989 -36 
Q 684 19 347 128 
L 347 722 
Q 666 556 975 473 
Q 1284 391 1588 391 
Q 1994 391 2212 530 
Q 2431 669 2431 922 
Q 2431 1156 2273 1281 
Q 2116 1406 1581 1522 
L 1381 1569 
Q 847 1681 609 1914 
Q 372 2147 372 2553 
Q 372 3047 722 3315 
Q 1072 3584 1716 3584 
Q 2034 3584 2315 3537 
Q 2597 3491 2834 3397 
z
" transform="scale(0.015625)"/>
       <path id="DejaVuSans-65" d="M 3597 1894 
L 3597 1613 
L 953 1613 
Q 991 1019 1311 708 
Q 1631 397 2203 397 
Q 2534 397 2845 478 
Q 3156 559 3463 722 
L 3463 178 
Q 3153 47 2828 -22 
Q 2503 -91 2169 -91 
Q 1331 -91 842 396 
Q 353 884 353 1716 
Q 353 2575 817 3079 
Q 1281 3584 2069 3584 
Q 2775 3584 3186 3129 
Q 3597 2675 3597 1894 
z
M 3022 2063 
Q 3016 2534 2758 2815 
Q 2500 3097 2075 3097 
Q 1594 3097 1305 2825 
Q 1016 2553 972 2059 
L 3022 2063 
z
" transform="scale(0.015625)"/>
       <path id="DejaVuSans-20" transform="scale(0.015625)"/>
       <path id="DejaVuSans-53" d="M 3425 4513 
L 3425 3897 
Q 3066 4069 2747 4153 
Q 2428 4238 2131 4238 
Q 1616 4238 1336 4038 
Q 1056 3838 1056 3469 
Q 1056 3159 1242 3001 
Q 1428 2844 1947 2747 
L 2328 2669 
Q 3034 2534 3370 2195 
Q 3706 1856 3706 1288 
Q 3706 609 3251 259 
Q 2797 -91 1919 -91 
Q 1588 -91 1214 -16 
Q 841 59 441 206 
L 441 856 
Q 825 641 1194 531 
Q 1563 422 1919 422 
Q 2459 422 2753 634 
Q 3047 847 3047 1241 
Q 3047 1584 2836 1778 
Q 2625 1972 2144 2069 
L 1759 2144 
Q 1053 2284 737 2584 
Q 422 2884 422 3419 
Q 422 4038 858 4394 
Q 1294 4750 2059 4750 
Q 2388 4750 2728 4690 
Q 3069 4631 3425 4513 
z
" transform="scale(0.015625)"/>
       <path id="DejaVuSans-74" d="M 1172 4494 
L 1172 3500 
L 2356 3500 
L 2356 3053 
L 1172 3053 
L 1172 1153 
Q 1172 725 1289 603 
Q 1406 481 1766 481 
L 2356 481 
L 2356 0 
L 1766 0 
Q 1100 0 847 248 
Q 594 497 594 1153 
L 594 3053 
L 172 3053 
L 172 3500 
L 594 3500 
L 594 4494 
L 1172 4494 
z
" transform="scale(0.015625)"/>
       <path id="DejaVuSans-69" d="M 603 3500 
L 1178 3500 
L 1178 0 
L 603 0 
L 603 3500 
z
M 603 4863 
L 1178 4863 
L 1178 4134 
L 603 4134 
L 603 4863 
z
" transform="scale(0.015625)"/>
       <path id="DejaVuSans-6d" d="M 3328 2828 
Q 3544 3216 3844 3400 
Q 4144 3584 4550 3584 
Q 5097 3584 5394 3201 
Q 5691 2819 5691 2113 
L 5691 0 
L 5113 0 
L 5113 2094 
Q 5113 2597 4934 2840 
Q 4756 3084 4391 3084 
Q 3944 3084 3684 2787 
Q 3425 2491 3425 1978 
L 3425 0 
L 2847 0 
L 2847 2094 
Q 2847 2600 2669 2842 
Q 2491 3084 2119 3084 
Q 1678 3084 1418 2786 
Q 1159 2488 1159 1978 
L 1159 0 
L 581 0 
L 581 3500 
L 1159 3500 
L 1159 2956 
Q 1356 3278 1631 3431 
Q 1906 3584 2284 3584 
Q 2666 3584 2933 3390 
Q 3200 3197 3328 2828 
z
" transform="scale(0.015625)"/>
       <path id="DejaVuSans-75" d="M 544 1381 
L 544 3500 
L 1119 3500 
L 1119 1403 
Q 1119 906 1312 657 
Q 1506 409 1894 409 
Q 2359 409 2629 706 
Q 2900 1003 2900 1516 
L 2900 3500 
L 3475 3500 
L 3475 0 
L 2900 0 
L 2900 538 
Q 2691 219 2414 64 
Q 2138 -91 1772 -91 
Q 1169 -91 856 284 
Q 544 659 544 1381 
z
M 1991 3584 
L 1991 3584 
z
" transform="scale(0.015625)"/>
       <path id="DejaVuSans-6c" d="M 603 4863 
L 1178 4863 
L 1178 0 
L 603 0 
L 603 4863 
z
" transform="scale(0.015625)"/>
       <path id="DejaVuSans-49" d="M 628 4666 
L 1259 4666 
L 1259 0 
L 628 0 
L 628 4666 
z
" transform="scale(0.015625)"/>
       <path id="DejaVuSans-6e" d="M 3513 2113 
L 3513 0 
L 2938 0 
L 2938 2094 
Q 2938 2591 2744 2837 
Q 2550 3084 2163 3084 
Q 1697 3084 1428 2787 
Q 1159 2491 1159 1978 
L 1159 0 
L 581 0 
L 581 3500 
L 1159 3500 
L 1159 2956 
Q 1366 3272 1645 3428 
Q 1925 3584 2291 3584 
Q 2894 3584 3203 3211 
Q 3513 2838 3513 2113 
z
" transform="scale(0.015625)"/>
       <path id="DejaVuSans-79" d="M 2059 -325 
Q 1816 -950 1584 -1140 
Q 1353 -1331 966 -1331 
L 506 -1331 
L 506 -850 
L 844 -850 
Q 1081 -850 1212 -737 
Q 1344 -625 1503 -206 
L 1606 56 
L 191 3500 
L 800 3500 
L 1894 763 
L 2988 3500 
L 3597 3500 
L 2059 -325 
z
" transform="scale(0.015625)"/>
       <path id="DejaVuSans-28" d="M 1984 4856 
Q 1566 4138 1362 3434 
Q 1159 2731 1159 2009 
Q 1159 1288 1364 580 
Q 1569 -128 1984 -844 
L 1484 -844 
Q 1016 -109 783 600 
Q 550 1309 550 2009 
Q 550 2706 781 3412 
Q 1013 4119 1484 4856 
L 1984 4856 
z
" transform="scale(0.015625)"/>
       <path id="DejaVuSans-2c" d="M 750 794 
L 1409 794 
L 1409 256 
L 897 -744 
L 494 -744 
L 750 256 
L 750 794 
z
" transform="scale(0.015625)"/>
       <path id="DejaVuSans-72" d="M 2631 2963 
Q 2534 3019 2420 3045 
Q 2306 3072 2169 3072 
Q 1681 3072 1420 2755 
Q 1159 2438 1159 1844 
L 1159 0 
L 581 0 
L 581 3500 
L 1159 3500 
L 1159 2956 
Q 1341 3275 1631 3429 
Q 1922 3584 2338 3584 
Q 2397 3584 2469 3576 
Q 2541 3569 2628 3553 
L 2631 2963 
z
" transform="scale(0.015625)"/>
       <path id="DejaVuSans-62" d="M 3116 1747 
Q 3116 2381 2855 2742 
Q 2594 3103 2138 3103 
Q 1681 3103 1420 2742 
Q 1159 2381 1159 1747 
Q 1159 1113 1420 752 
Q 1681 391 2138 391 
Q 2594 391 2855 752 
Q 3116 1113 3116 1747 
z
M 1159 2969 
Q 1341 3281 1617 3432 
Q 1894 3584 2278 3584 
Q 2916 3584 3314 3078 
Q 3713 2572 3713 1747 
Q 3713 922 3314 415 
Q 2916 -91 2278 -91 
Q 1894 -91 1617 61 
Q 1341 213 1159 525 
L 1159 0 
L 581 0 
L 581 4863 
L 1159 4863 
L 1159 2969 
z
" transform="scale(0.015625)"/>
       <path id="DejaVuSans-29" d="M 513 4856 
L 1013 4856 
Q 1481 4119 1714 3412 
Q 1947 2706 1947 2009 
Q 1947 1309 1714 600 
Q 1481 -109 1013 -844 
L 513 -844 
Q 928 -128 1133 580 
Q 1338 1288 1338 2009 
Q 1338 2731 1133 3434 
Q 928 4138 513 4856 
z
" transform="scale(0.015625)"/>
      </defs>
      <use xlink:href="#DejaVuSans-42"/>
      <use xlink:href="#DejaVuSans-61" transform="translate(68.603516 0)"/>
      <use xlink:href="#DejaVuSans-73" transform="translate(129.882812 0)"/>
      <use xlink:href="#DejaVuSans-65" transform="translate(181.982422 0)"/>
      <use xlink:href="#DejaVuSans-20" transform="translate(243.505859 0)"/>
      <use xlink:href="#DejaVuSans-53" transform="translate(275.292969 0)"/>
      <use xlink:href="#DejaVuSans-74" transform="translate(338.769531 0)"/>
      <use xlink:href="#DejaVuSans-69" transform="translate(377.978516 0)"/>
      <use xlink:href="#DejaVuSans-6d" transform="translate(405.761719 0)"/>
      <use xlink:href="#DejaVuSans-75" transform="translate(503.173828 0)"/>
      <use xlink:href="#DejaVuSans-6c" transform="translate(566.552734 0)"/>
      <use xlink:href="#DejaVuSans-75" transform="translate(594.335938 0)"/>
      <use xlink:href="#DejaVuSans-73" transform="translate(657.714844 0)"/>
      <use xlink:href="#DejaVuSans-20" transform="translate(709.814453 0)"/>
      <use xlink:href="#DejaVuSans-49" transform="translate(741.601562 0)"/>
      <use xlink:href="#DejaVuSans-6e" transform="translate(771.09375 0)"/>
      <use xlink:href="#DejaVuSans-74" transform="translate(834.472656 0)"/>
      <use xlink:href="#DejaVuSans-65" transform="translate(873.681641 0)"/>
      <use xlink:href="#DejaVuSans-6e" transform="translate(935.205078 0)"/>
      <use xlink:href="#DejaVuSans-73" transform="translate(998.583984 0)"/>
      <use xlink:href="#DejaVuSans-69" transform="translate(1050.683594 0)"/>
      <use xlink:href="#DejaVuSans-74" transform="translate(1078.466797 0)"/>
      <use xlink:href="#DejaVuSans-79" transform="translate(1117.675781 0)"/>
      <use xlink:href="#DejaVuSans-20" transform="translate(1176.855469 0)"/>
      <use xlink:href="#DejaVuSans-20" transform="translate(1208.642578 0)"/>
      <use xlink:href="#DejaVuSans-28" transform="translate(1240.429688 0)"/>
      <use xlink:href="#DejaVuSans-49" transform="translate(1279.443359 0)"/>
      <use xlink:href="#DejaVuSans-2c" transform="translate(1308.935547 0)"/>
      <use xlink:href="#DejaVuSans-20" transform="translate(1340.722656 0)"/>
      <use xlink:href="#DejaVuSans-61" transform="translate(1372.509766 0)"/>
      <use xlink:href="#DejaVuSans-72" transform="translate(1433.789062 0)"/>
      <use xlink:href="#DejaVuSans-62" transform="translate(1474.902344 0)"/>
      <use xlink:href="#DejaVuSans-69" transform="translate(1538.378906 0)"/>
      <use xlink:href="#DejaVuSans-74" transform="translate(1566.162109 0)"/>
      <use xlink:href="#DejaVuSans-72" transform="translate(1605.371094 0)"/>
      <use xlink:href="#DejaVuSans-61" transform="translate(1646.484375 0)"/>
      <use xlink:href="#DejaVuSans-72" transform="translate(1707.763672 0)"/>
      <use xlink:href="#DejaVuSans-79" transform="translate(1748.876953 0)"/>
      <use xlink:href="#DejaVuSans-20" transform="translate(1808.056641 0)"/>
      <use xlink:href="#DejaVuSans-75" transform="translate(1839.84375 0)"/>
      <use xlink:href="#DejaVuSans-6e" transform="translate(1903.222656 0)"/>
      <use xlink:href="#DejaVuSans-69" transform="translate(1966.601562 0)"/>
      <use xlink:href="#DejaVuSans-74" transform="translate(1994.384766 0)"/>
      <use xlink:href="#DejaVuSans-73" transform="translate(2033.59375 0)"/>
      <use xlink:href="#DejaVuSans-29" transform="translate(2085.693359 0)"/>
     </g>
    </g>
   </g>
   <g id="matplotlib.axis_2">
    <g id="ytick_1">
     <g id="line2d_6">
      <defs>
       <path id="m41f3508fae" d="M 0 0 
L -3.5 0 
" style="stroke: #333333; stroke-width: 0.8"/>
      </defs>
      <g>
       <use xlink:href="#m41f3508fae" x="52.90125" y="328.233697" style="fill: #333333; stroke: #333333; stroke-width: 0.8"/>
      </g>
     </g>
     <g id="text_7">
      <!-- 10 -->
      <g style="fill: #333333" transform="translate(33.17625 332.032916) scale(0.1 -0.1)">
       <use xlink:href="#DejaVuSans-31"/>
       <use xlink:href="#DejaVuSans-30" transform="translate(63.623047 0)"/>
      </g>
     </g>
    </g>
    <g id="ytick_2">
     <g id="line2d_7">
      <g>
       <use xlink:href="#m41f3508fae" x="52.90125" y="312.212298" style="fill: #333333; stroke: #333333; stroke-width: 0.8"/>
      </g>
     </g>
     <g id="text_8">
      <!-- 20 -->
      <g style="fill: #333333" transform="translate(33.17625 316.011517) scale(0.1 -0.1)">
       <use xlink:href="#DejaVuSans-32"/>
       <use xlink:href="#DejaVuSans-30" transform="translate(63.623047 0)"/>
      </g>
     </g>
    </g>
    <g id="ytick_3">
     <g id="line2d_8">
      <g>
       <use xlink:href="#m41f3508fae" x="52.90125" y="280.1695" style="fill: #333333; stroke: #333333; stroke-width: 0.8"/>
      </g>
     </g>
     <g id="text_9">
      <!-- 40 -->
      <g style="fill: #333333" transform="translate(33.17625 283.968718) scale(0.1 -0.1)">
       <use xlink:href="#DejaVuSans-34"/>
       <use xlink:href="#DejaVuSans-30" transform="translate(63.623047 0)"/>
      </g>
     </g>
    </g>
    <g id="ytick_4">
     <g id="line2d_9">
      <g>
       <use xlink:href="#m41f3508fae" x="52.90125" y="216.083903" style="fill: #333333; stroke: #333333; stroke-width: 0.8"/>
      </g>
     </g>
     <g id="text_10">
      <!-- 80 -->
      <g style="fill: #333333" transform="translate(33.17625 219.883122) scale(0.1 -0.1)">
       <use xlink:href="#DejaVuSans-38"/>
       <use xlink:href="#DejaVuSans-30" transform="translate(63.623047 0)"/>
      </g>
     </g>
    </g>
    <g id="ytick_5">
     <g id="line2d_10">
      <g>
       <use xlink:href="#m41f3508fae" x="52.90125" y="87.91271" style="fill: #333333; stroke: #333333; stroke-width: 0.8"/>
      </g>
     </g>
     <g id="text_11">
      <!-- 160 -->
      <g style="fill: #333333" transform="translate(26.81375 91.711928) scale(0.1 -0.1)">
       <use xlink:href="#DejaVuSans-31"/>
       <use xlink:href="#DejaVuSans-36" transform="translate(63.623047 0)"/>
       <use xlink:href="#DejaVuSans-30" transform="translate(127.246094 0)"/>
      </g>
     </g>
    </g>
    <g id="text_12">
     <!-- Intensity  (I) -->
     <g style="fill: #333333" transform="translate(16.318125 262.878437) rotate(-90) scale(0.12 -0.12)">
      <use xlink:href="#DejaVuSans-49"/>
      <use xlink:href="#DejaVuSans-6e" transform="translate(29.492188 0)"/>
      <use xlink:href="#DejaVuSans-74" transform="translate(92.871094 0)"/>
      <use xlink:href="#DejaVuSans-65" transform="translate(132.080078 0)"/>
      <use xlink:href="#DejaVuSans-6e" transform="translate(193.603516 0)"/>
      <use xlink:href="#DejaVuSans-73" transform="translate(256.982422 0)"/>
      <use xlink:href="#DejaVuSans-69" transform="translate(309.082031 0)"/>
      <use xlink:href="#DejaVuSans-74" transform="translate(336.865234 0)"/>
      <use xlink:href="#DejaVuSans-79" transform="translate(376.074219 0)"/>
      <use xlink:href="#DejaVuSans-20" transform="translate(435.253906 0)"/>
      <use xlink:href="#DejaVuSans-20" transform="translate(467.041016 0)"/>
      <use xlink:href="#DejaVuSans-28" transform="translate(498.828125 0)"/>
      <use xlink:href="#DejaVuSans-49" transform="translate(537.841797 0)"/>
      <use xlink:href="#DejaVuSans-29" transform="translate(567.333984 0)"/>
     </g>
    </g>
   </g>
   <g id="line2d_11">
    <path d="M 90.775536 344.255096 
L 791.449821 47.859212 
L 791.449821 47.859212 
" clip-path="url(#p7710834924)" style="fill: none; stroke: #2c5f8a; stroke-width: 2.5; stroke-linecap: round"/>
   </g>
   <g id="patch_3">
    <path d="M 52.90125 421.157812 
L 52.90125 31.837812 
" style="fill: none; stroke: #cccccc; stroke-width: 0.8; stroke-linejoin: miter; stroke-linecap: square"/>
   </g>
   <g id="patch_4">
    <path d="M 848.26125 421.157812 
L 848.26125 31.837812 
" style="fill: none; stroke: #cccccc; stroke-width: 0.8; stroke-linejoin: miter; stroke-linecap: square"/>
   </g>
   <g id="patch_5">
    <path d="M 52.90125 421.157812 
L 848.26125 421.157812 
" style="fill: none; stroke: #cccccc; stroke-width: 0.8; stroke-linejoin: miter; stroke-linecap: square"/>
   </g>
   <g id="patch_6">
    <path d="M 52.90125 31.837812 
L 848.26125 31.837812 
" style="fill: none; stroke: #cccccc; stroke-width: 0.8; stroke-linejoin: miter; stroke-linecap: square"/>
   </g>
   <g id="text_13">
    <!-- ΔI = 1 -->
    <g style="fill: #d94f3d" transform="translate(138.118393 329.916065) scale(0.09 -0.09)">
     <defs>
      <path id="DejaVuSans-Bold-394" d="M 4922 0 
L 31 0 
L 1759 4666 
L 3194 4666 
L 4922 0 
z
M 1559 909 
L 3384 909 
L 2478 3572 
L 1559 909 
z
" transform="scale(0.015625)"/>
      <path id="DejaVuSans-Bold-49" d="M 588 4666 
L 1791 4666 
L 1791 0 
L 588 0 
L 588 4666 
z
" transform="scale(0.015625)"/>
      <path id="DejaVuSans-Bold-20" transform="scale(0.015625)"/>
      <path id="DejaVuSans-Bold-3d" d="M 678 3084 
L 4684 3084 
L 4684 2350 
L 678 2350 
L 678 3084 
z
M 678 1663 
L 4684 1663 
L 4684 922 
L 678 922 
L 678 1663 
z
" transform="scale(0.015625)"/>
      <path id="DejaVuSans-Bold-31" d="M 750 831 
L 1813 831 
L 1813 3847 
L 722 3622 
L 722 4441 
L 1806 4666 
L 2950 4666 
L 2950 831 
L 4013 831 
L 4013 0 
L 750 0 
L 750 831 
z
" transform="scale(0.015625)"/>
     </defs>
     <use xlink:href="#DejaVuSans-Bold-394"/>
     <use xlink:href="#DejaVuSans-Bold-49" transform="translate(77.392578 0)"/>
     <use xlink:href="#DejaVuSans-Bold-20" transform="translate(114.599609 0)"/>
     <use xlink:href="#DejaVuSans-Bold-3d" transform="translate(149.414062 0)"/>
     <use xlink:href="#DejaVuSans-Bold-20" transform="translate(233.203125 0)"/>
     <use xlink:href="#DejaVuSans-Bold-31" transform="translate(268.017578 0)"/>
    </g>
   </g>
   <g id="text_14">
    <!-- ΔI = 2 -->
    <g style="fill: #d94f3d" transform="translate(175.992679 313.093596) scale(0.09 -0.09)">
     <defs>
      <path id="DejaVuSans-Bold-32" d="M 1844 884 
L 3897 884 
L 3897 0 
L 506 0 
L 506 884 
L 2209 2388 
Q 2438 2594 2547 2791 
Q 2656 2988 2656 3200 
Q 2656 3528 2436 3728 
Q 2216 3928 1850 3928 
Q 1569 3928 1234 3808 
Q 900 3688 519 3450 
L 519 4475 
Q 925 4609 1322 4679 
Q 1719 4750 2100 4750 
Q 2938 4750 3402 4381 
Q 3866 4013 3866 3353 
Q 3866 2972 3669 2642 
Q 3472 2313 2841 1759 
L 1844 884 
z
" transform="scale(0.015625)"/>
     </defs>
     <use xlink:href="#DejaVuSans-Bold-394"/>
     <use xlink:href="#DejaVuSans-Bold-49" transform="translate(77.392578 0)"/>
     <use xlink:href="#DejaVuSans-Bold-20" transform="translate(114.599609 0)"/>
     <use xlink:href="#DejaVuSans-Bold-3d" transform="translate(149.414062 0)"/>
     <use xlink:href="#DejaVuSans-Bold-20" transform="translate(233.203125 0)"/>
     <use xlink:href="#DejaVuSans-Bold-32" transform="translate(268.017578 0)"/>
    </g>
   </g>
   <g id="text_15">
    <!-- ΔI = 4 -->
    <g style="fill: #d94f3d" transform="translate(251.74125 279.448657) scale(0.09 -0.09)">
     <defs>
      <path id="DejaVuSans-Bold-34" d="M 2356 3675 
L 1038 1722 
L 2356 1722 
L 2356 3675 
z
M 2156 4666 
L 3494 4666 
L 3494 1722 
L 4159 1722 
L 4159 850 
L 3494 850 
L 3494 0 
L 2356 0 
L 2356 850 
L 288 850 
L 288 1881 
L 2156 4666 
z
" transform="scale(0.015625)"/>
     </defs>
     <use xlink:href="#DejaVuSans-Bold-394"/>
     <use xlink:href="#DejaVuSans-Bold-49" transform="translate(77.392578 0)"/>
     <use xlink:href="#DejaVuSans-Bold-20" transform="translate(114.599609 0)"/>
     <use xlink:href="#DejaVuSans-Bold-3d" transform="translate(149.414062 0)"/>
     <use xlink:href="#DejaVuSans-Bold-20" transform="translate(233.203125 0)"/>
     <use xlink:href="#DejaVuSans-Bold-34" transform="translate(268.017578 0)"/>
    </g>
   </g>
   <g id="text_16">
    <!-- ΔI = 8 -->
    <g style="fill: #d94f3d" transform="translate(403.238393 212.158781) scale(0.09 -0.09)">
     <defs>
      <path id="DejaVuSans-Bold-38" d="M 2228 2088 
Q 1891 2088 1709 1903 
Q 1528 1719 1528 1375 
Q 1528 1031 1709 848 
Q 1891 666 2228 666 
Q 2563 666 2741 848 
Q 2919 1031 2919 1375 
Q 2919 1722 2741 1905 
Q 2563 2088 2228 2088 
z
M 1350 2484 
Q 925 2613 709 2878 
Q 494 3144 494 3541 
Q 494 4131 934 4440 
Q 1375 4750 2228 4750 
Q 3075 4750 3515 4442 
Q 3956 4134 3956 3541 
Q 3956 3144 3739 2878 
Q 3522 2613 3097 2484 
Q 3572 2353 3814 2058 
Q 4056 1763 4056 1313 
Q 4056 619 3595 264 
Q 3134 -91 2228 -91 
Q 1319 -91 855 264 
Q 391 619 391 1313 
Q 391 1763 633 2058 
Q 875 2353 1350 2484 
z
M 1631 3419 
Q 1631 3141 1786 2991 
Q 1941 2841 2228 2841 
Q 2509 2841 2662 2991 
Q 2816 3141 2816 3419 
Q 2816 3697 2662 3845 
Q 2509 3994 2228 3994 
Q 1941 3994 1786 3844 
Q 1631 3694 1631 3419 
z
" transform="scale(0.015625)"/>
     </defs>
     <use xlink:href="#DejaVuSans-Bold-394"/>
     <use xlink:href="#DejaVuSans-Bold-49" transform="translate(77.392578 0)"/>
     <use xlink:href="#DejaVuSans-Bold-20" transform="translate(114.599609 0)"/>
     <use xlink:href="#DejaVuSans-Bold-3d" transform="translate(149.414062 0)"/>
     <use xlink:href="#DejaVuSans-Bold-20" transform="translate(233.203125 0)"/>
     <use xlink:href="#DejaVuSans-Bold-38" transform="translate(268.017578 0)"/>
    </g>
   </g>
   <g id="text_17">
    <!-- ΔI = 16 -->
    <g style="fill: #d94f3d" transform="translate(706.232679 77.579028) scale(0.09 -0.09)">
     <defs>
      <path id="DejaVuSans-Bold-36" d="M 2316 2303 
Q 2000 2303 1842 2098 
Q 1684 1894 1684 1484 
Q 1684 1075 1842 870 
Q 2000 666 2316 666 
Q 2634 666 2792 870 
Q 2950 1075 2950 1484 
Q 2950 1894 2792 2098 
Q 2634 2303 2316 2303 
z
M 3803 4544 
L 3803 3681 
Q 3506 3822 3243 3889 
Q 2981 3956 2731 3956 
Q 2194 3956 1894 3657 
Q 1594 3359 1544 2772 
Q 1750 2925 1990 3001 
Q 2231 3078 2516 3078 
Q 3231 3078 3670 2659 
Q 4109 2241 4109 1563 
Q 4109 813 3618 361 
Q 3128 -91 2303 -91 
Q 1394 -91 895 523 
Q 397 1138 397 2266 
Q 397 3422 980 4083 
Q 1563 4744 2578 4744 
Q 2900 4744 3203 4694 
Q 3506 4644 3803 4544 
z
" transform="scale(0.015625)"/>
     </defs>
     <use xlink:href="#DejaVuSans-Bold-394"/>
     <use xlink:href="#DejaVuSans-Bold-49" transform="translate(77.392578 0)"/>
     <use xlink:href="#DejaVuSans-Bold-20" transform="translate(114.599609 0)"/>
     <use xlink:href="#DejaVuSans-Bold-3d" transform="translate(149.414062 0)"/>
     <use xlink:href="#DejaVuSans-Bold-20" transform="translate(233.203125 0)"/>
     <use xlink:href="#DejaVuSans-Bold-31" transform="translate(268.017578 0)"/>
     <use xlink:href="#DejaVuSans-Bold-36" transform="translate(337.597656 0)"/>
    </g>
   </g>
   <g id="text_18">
    <!-- I = 10 -->
    <g style="fill: #4b8b5e" transform="translate(96.78803 390.767266) scale(0.085 -0.085)">
     <defs>
      <path id="DejaVuSans-Oblique-49" d="M 1081 4666 
L 1716 4666 
L 806 0 
L 172 0 
L 1081 4666 
z
" transform="scale(0.015625)"/>
      <path id="DejaVuSans-Oblique-20" transform="scale(0.015625)"/>
      <path id="DejaVuSans-Oblique-3d" d="M 678 2906 
L 4684 2906 
L 4684 2381 
L 678 2381 
L 678 2906 
z
M 678 1631 
L 4684 1631 
L 4684 1100 
L 678 1100 
L 678 1631 
z
" transform="scale(0.015625)"/>
      <path id="DejaVuSans-Oblique-31" d="M 416 531 
L 1447 531 
L 2144 4122 
L 978 3897 
L 1088 4441 
L 2247 4666 
L 2881 4666 
L 2075 531 
L 3103 531 
L 3003 0 
L 313 0 
L 416 531 
z
" transform="scale(0.015625)"/>
      <path id="DejaVuSans-Oblique-30" d="M 2444 4750 
Q 3078 4750 3414 4328 
Q 3750 3906 3750 3116 
Q 3750 2516 3592 1923 
Q 3434 1331 3150 863 
Q 2859 394 2467 151 
Q 2075 -91 1600 -91 
Q 988 -91 653 334 
Q 319 759 319 1544 
Q 319 2138 480 2733 
Q 641 3328 928 3794 
Q 1216 4263 1602 4506 
Q 1988 4750 2444 4750 
z
M 2406 4250 
Q 2169 4250 1955 4123 
Q 1741 3997 1569 3750 
Q 1281 3338 1111 2720 
Q 941 2103 941 1453 
Q 941 938 1123 673 
Q 1306 409 1663 409 
Q 1913 409 2125 536 
Q 2338 663 2509 909 
Q 2794 1319 2961 1936 
Q 3128 2553 3128 3206 
Q 3128 3722 2945 3986 
Q 2763 4250 2406 4250 
z
" transform="scale(0.015625)"/>
     </defs>
     <use xlink:href="#DejaVuSans-Oblique-49"/>
     <use xlink:href="#DejaVuSans-Oblique-20" transform="translate(29.492188 0)"/>
     <use xlink:href="#DejaVuSans-Oblique-3d" transform="translate(61.279297 0)"/>
     <use xlink:href="#DejaVuSans-Oblique-20" transform="translate(145.068359 0)"/>
     <use xlink:href="#DejaVuSans-Oblique-31" transform="translate(176.855469 0)"/>
     <use xlink:href="#DejaVuSans-Oblique-30" transform="translate(240.478516 0)"/>
    </g>
   </g>
   <g id="text_19">
    <!-- I = 20 -->
    <g style="fill: #4b8b5e" transform="translate(134.662316 390.767266) scale(0.085 -0.085)">
     <defs>
      <path id="DejaVuSans-Oblique-32" d="M 2950 2253 
L 934 525 
L 3163 525 
L 3053 0 
L 25 0 
L 128 531 
L 2234 2338 
Q 2656 2703 2832 2979 
Q 3009 3256 3009 3547 
Q 3009 3850 2796 4040 
Q 2584 4231 2241 4231 
Q 1944 4231 1581 4125 
Q 1219 4019 806 3816 
L 922 4441 
Q 1309 4594 1662 4672 
Q 2016 4750 2316 4750 
Q 2928 4750 3301 4425 
Q 3675 4100 3675 3572 
Q 3675 3216 3497 2892 
Q 3319 2569 2950 2253 
z
" transform="scale(0.015625)"/>
     </defs>
     <use xlink:href="#DejaVuSans-Oblique-49"/>
     <use xlink:href="#DejaVuSans-Oblique-20" transform="translate(29.492188 0)"/>
     <use xlink:href="#DejaVuSans-Oblique-3d" transform="translate(61.279297 0)"/>
     <use xlink:href="#DejaVuSans-Oblique-20" transform="translate(145.068359 0)"/>
     <use xlink:href="#DejaVuSans-Oblique-32" transform="translate(176.855469 0)"/>
     <use xlink:href="#DejaVuSans-Oblique-30" transform="translate(240.478516 0)"/>
    </g>
   </g>
   <g id="text_20">
    <!-- I = 40 -->
    <g style="fill: #4b8b5e" transform="translate(191.473744 390.767266) scale(0.085 -0.085)">
     <defs>
      <path id="DejaVuSans-Oblique-34" d="M 2753 4666 
L 3547 4666 
L 2950 1625 
L 3616 1625 
L 3513 1100 
L 2847 1100 
L 2638 0 
L 2009 0 
L 2222 1100 
L 116 1100 
L 238 1709 
L 2753 4666 
z
M 2809 4116 
L 728 1625 
L 2322 1625 
L 2809 4116 
z
" transform="scale(0.015625)"/>
     </defs>
     <use xlink:href="#DejaVuSans-Oblique-49"/>
     <use xlink:href="#DejaVuSans-Oblique-20" transform="translate(29.492188 0)"/>
     <use xlink:href="#DejaVuSans-Oblique-3d" transform="translate(61.279297 0)"/>
     <use xlink:href="#DejaVuSans-Oblique-20" transform="translate(145.068359 0)"/>
     <use xlink:href="#DejaVuSans-Oblique-34" transform="translate(176.855469 0)"/>
     <use xlink:href="#DejaVuSans-Oblique-30" transform="translate(240.478516 0)"/>
    </g>
   </g>
   <g id="text_21">
    <!-- I = 80 -->
    <g style="fill: #4b8b5e" transform="translate(305.096602 390.767266) scale(0.085 -0.085)">
     <defs>
      <path id="DejaVuSans-Oblique-38" d="M 2847 1416 
Q 2847 1769 2600 1992 
Q 2353 2216 1953 2216 
Q 1466 2216 1148 1923 
Q 831 1631 831 1184 
Q 831 828 1073 618 
Q 1316 409 1728 409 
Q 2219 409 2533 693 
Q 2847 978 2847 1416 
z
M 3169 3591 
Q 3169 3888 2950 4069 
Q 2731 4250 2369 4250 
Q 1941 4250 1664 4009 
Q 1388 3769 1388 3406 
Q 1388 3094 1605 2903 
Q 1822 2713 2181 2713 
Q 2613 2713 2891 2961 
Q 3169 3209 3169 3591 
z
M 2741 2456 
Q 3094 2322 3281 2050 
Q 3469 1778 3469 1394 
Q 3469 747 2969 328 
Q 2469 -91 1678 -91 
Q 1006 -91 609 239 
Q 213 569 213 1119 
Q 213 1619 553 2008 
Q 894 2397 1441 2503 
Q 1113 2616 941 2852 
Q 769 3088 769 3425 
Q 769 3991 1239 4370 
Q 1709 4750 2431 4750 
Q 3034 4750 3414 4442 
Q 3794 4134 3794 3659 
Q 3794 3247 3511 2923 
Q 3228 2600 2741 2456 
z
" transform="scale(0.015625)"/>
     </defs>
     <use xlink:href="#DejaVuSans-Oblique-49"/>
     <use xlink:href="#DejaVuSans-Oblique-20" transform="translate(29.492188 0)"/>
     <use xlink:href="#DejaVuSans-Oblique-3d" transform="translate(61.279297 0)"/>
     <use xlink:href="#DejaVuSans-Oblique-20" transform="translate(145.068359 0)"/>
     <use xlink:href="#DejaVuSans-Oblique-38" transform="translate(176.855469 0)"/>
     <use xlink:href="#DejaVuSans-Oblique-30" transform="translate(240.478516 0)"/>
    </g>
   </g>
   <g id="text_22">
    <!-- I = 160 -->
    <g style="fill: #4b8b5e" transform="translate(529.638253 390.767266) scale(0.085 -0.085)">
     <defs>
      <path id="DejaVuSans-Oblique-36" d="M 2938 1728 
Q 2938 2125 2734 2354 
Q 2531 2584 2181 2584 
Q 1697 2584 1367 2211 
Q 1038 1838 1038 1288 
Q 1038 875 1239 642 
Q 1441 409 1797 409 
Q 2284 409 2611 792 
Q 2938 1175 2938 1728 
z
M 3788 4556 
L 3681 3981 
Q 3500 4100 3265 4162 
Q 3031 4225 2766 4225 
Q 2119 4225 1726 3819 
Q 1334 3413 1141 2547 
Q 1369 2813 1670 2948 
Q 1972 3084 2322 3084 
Q 2894 3084 3233 2754 
Q 3572 2425 3572 1869 
Q 3572 1413 3405 1020 
Q 3238 628 2919 331 
Q 2700 128 2409 18 
Q 2119 -91 1791 -91 
Q 1147 -91 775 318 
Q 403 728 403 1441 
Q 403 2103 573 2717 
Q 744 3331 1050 3781 
Q 1372 4256 1830 4503 
Q 2288 4750 2841 4750 
Q 3084 4750 3321 4701 
Q 3559 4653 3788 4556 
z
" transform="scale(0.015625)"/>
     </defs>
     <use xlink:href="#DejaVuSans-Oblique-49"/>
     <use xlink:href="#DejaVuSans-Oblique-20" transform="translate(29.492188 0)"/>
     <use xlink:href="#DejaVuSans-Oblique-3d" transform="translate(61.279297 0)"/>
     <use xlink:href="#DejaVuSans-Oblique-20" transform="translate(145.068359 0)"/>
     <use xlink:href="#DejaVuSans-Oblique-31" transform="translate(176.855469 0)"/>
     <use xlink:href="#DejaVuSans-Oblique-36" transform="translate(240.478516 0)"/>
     <use xlink:href="#DejaVuSans-Oblique-30" transform="translate(304.101562 0)"/>
    </g>
   </g>
   <g id="patch_7">
    <path d="M 677.296443 120.392762 
Q 679.389221 102.072178 694.157204 90.003862 
" style="fill: none; stroke: #d94f3d; stroke-width: 1.2; stroke-linecap: round"/>
    <path d="M 690.230606 90.888072 
L 694.157204 90.003862 
L 692.508613 93.675667 
" style="fill: none; stroke: #d94f3d; stroke-width: 1.2; stroke-linecap: round"/>
   </g>
   <g id="text_23">
    <g id="patch_8">
     <path d="M 651.530792 148.971079 
L 704.123136 148.971079 
Q 707.723136 148.971079 707.723136 145.371079 
L 707.723136 126.582735 
Q 707.723136 122.982735 704.123136 122.982735 
L 651.530792 122.982735 
Q 647.930792 122.982735 647.930792 126.582735 
L 647.930792 145.371079 
Q 647.930792 148.971079 651.530792 148.971079 
z
" style="fill: #fff5f4; opacity: 0.9; stroke: #d94f3d; stroke-width: 1.2; stroke-linejoin: miter"/>
    </g>
    <!-- ΔI/I = 0.1 -->
    <g style="fill: #d94f3d" transform="translate(654.476886 133.421329) scale(0.09 -0.09)">
     <defs>
      <path id="DejaVuSans-Bold-2f" d="M 1644 4666 
L 2338 4666 
L 691 -594 
L 0 -594 
L 1644 4666 
z
" transform="scale(0.015625)"/>
      <path id="DejaVuSans-Bold-30" d="M 2944 2338 
Q 2944 3213 2780 3570 
Q 2616 3928 2228 3928 
Q 1841 3928 1675 3570 
Q 1509 3213 1509 2338 
Q 1509 1453 1675 1090 
Q 1841 728 2228 728 
Q 2613 728 2778 1090 
Q 2944 1453 2944 2338 
z
M 4147 2328 
Q 4147 1169 3647 539 
Q 3147 -91 2228 -91 
Q 1306 -91 806 539 
Q 306 1169 306 2328 
Q 306 3491 806 4120 
Q 1306 4750 2228 4750 
Q 3147 4750 3647 4120 
Q 4147 3491 4147 2328 
z
" transform="scale(0.015625)"/>
      <path id="DejaVuSans-Bold-2e" d="M 653 1209 
L 1778 1209 
L 1778 0 
L 653 0 
L 653 1209 
z
" transform="scale(0.015625)"/>
     </defs>
     <use xlink:href="#DejaVuSans-Bold-394"/>
     <use xlink:href="#DejaVuSans-Bold-49" transform="translate(77.392578 0)"/>
     <use xlink:href="#DejaVuSans-Bold-2f" transform="translate(114.599609 0)"/>
     <use xlink:href="#DejaVuSans-Bold-49" transform="translate(151.123047 0)"/>
     <use xlink:href="#DejaVuSans-Bold-20" transform="translate(188.330078 0)"/>
     <use xlink:href="#DejaVuSans-Bold-3d" transform="translate(223.144531 0)"/>
     <use xlink:href="#DejaVuSans-Bold-20" transform="translate(306.933594 0)"/>
     <use xlink:href="#DejaVuSans-Bold-30" transform="translate(341.748047 0)"/>
     <use xlink:href="#DejaVuSans-Bold-2e" transform="translate(411.328125 0)"/>
     <use xlink:href="#DejaVuSans-Bold-31" transform="translate(449.316406 0)"/>
    </g>
    <!-- (constant) -->
    <g style="fill: #d94f3d" transform="translate(651.530792 143.49936) scale(0.09 -0.09)">
     <defs>
      <path id="DejaVuSans-Bold-28" d="M 2413 -844 
L 1484 -844 
Q 1006 -72 778 623 
Q 550 1319 550 2003 
Q 550 2688 779 3389 
Q 1009 4091 1484 4856 
L 2413 4856 
Q 2013 4116 1813 3408 
Q 1613 2700 1613 2009 
Q 1613 1319 1811 609 
Q 2009 -100 2413 -844 
z
" transform="scale(0.015625)"/>
      <path id="DejaVuSans-Bold-63" d="M 3366 3391 
L 3366 2478 
Q 3138 2634 2908 2709 
Q 2678 2784 2431 2784 
Q 1963 2784 1702 2511 
Q 1441 2238 1441 1747 
Q 1441 1256 1702 982 
Q 1963 709 2431 709 
Q 2694 709 2930 787 
Q 3166 866 3366 1019 
L 3366 103 
Q 3103 6 2833 -42 
Q 2563 -91 2291 -91 
Q 1344 -91 809 395 
Q 275 881 275 1747 
Q 275 2613 809 3098 
Q 1344 3584 2291 3584 
Q 2566 3584 2833 3536 
Q 3100 3488 3366 3391 
z
" transform="scale(0.015625)"/>
      <path id="DejaVuSans-Bold-6f" d="M 2203 2784 
Q 1831 2784 1636 2517 
Q 1441 2250 1441 1747 
Q 1441 1244 1636 976 
Q 1831 709 2203 709 
Q 2569 709 2762 976 
Q 2956 1244 2956 1747 
Q 2956 2250 2762 2517 
Q 2569 2784 2203 2784 
z
M 2203 3584 
Q 3106 3584 3614 3096 
Q 4122 2609 4122 1747 
Q 4122 884 3614 396 
Q 3106 -91 2203 -91 
Q 1297 -91 786 396 
Q 275 884 275 1747 
Q 275 2609 786 3096 
Q 1297 3584 2203 3584 
z
" transform="scale(0.015625)"/>
      <path id="DejaVuSans-Bold-6e" d="M 4056 2131 
L 4056 0 
L 2931 0 
L 2931 347 
L 2931 1631 
Q 2931 2084 2911 2256 
Q 2891 2428 2841 2509 
Q 2775 2619 2662 2680 
Q 2550 2741 2406 2741 
Q 2056 2741 1856 2470 
Q 1656 2200 1656 1722 
L 1656 0 
L 538 0 
L 538 3500 
L 1656 3500 
L 1656 2988 
Q 1909 3294 2193 3439 
Q 2478 3584 2822 3584 
Q 3428 3584 3742 3212 
Q 4056 2841 4056 2131 
z
" transform="scale(0.015625)"/>
      <path id="DejaVuSans-Bold-73" d="M 3272 3391 
L 3272 2541 
Q 2913 2691 2578 2766 
Q 2244 2841 1947 2841 
Q 1628 2841 1473 2761 
Q 1319 2681 1319 2516 
Q 1319 2381 1436 2309 
Q 1553 2238 1856 2203 
L 2053 2175 
Q 2913 2066 3209 1816 
Q 3506 1566 3506 1031 
Q 3506 472 3093 190 
Q 2681 -91 1863 -91 
Q 1516 -91 1145 -36 
Q 775 19 384 128 
L 384 978 
Q 719 816 1070 734 
Q 1422 653 1784 653 
Q 2113 653 2278 743 
Q 2444 834 2444 1013 
Q 2444 1163 2330 1236 
Q 2216 1309 1875 1350 
L 1678 1375 
Q 931 1469 631 1722 
Q 331 1975 331 2491 
Q 331 3047 712 3315 
Q 1094 3584 1881 3584 
Q 2191 3584 2531 3537 
Q 2872 3491 3272 3391 
z
" transform="scale(0.015625)"/>
      <path id="DejaVuSans-Bold-74" d="M 1759 4494 
L 1759 3500 
L 2913 3500 
L 2913 2700 
L 1759 2700 
L 1759 1216 
Q 1759 972 1856 886 
Q 1953 800 2241 800 
L 2816 800 
L 2816 0 
L 1856 0 
Q 1194 0 917 276 
Q 641 553 641 1216 
L 641 2700 
L 84 2700 
L 84 3500 
L 641 3500 
L 641 4494 
L 1759 4494 
z
" transform="scale(0.015625)"/>
      <path id="DejaVuSans-Bold-61" d="M 2106 1575 
Q 1756 1575 1579 1456 
Q 1403 1338 1403 1106 
Q 1403 894 1545 773 
Q 1688 653 1941 653 
Q 2256 653 2472 879 
Q 2688 1106 2688 1447 
L 2688 1575 
L 2106 1575 
z
M 3816 1997 
L 3816 0 
L 2688 0 
L 2688 519 
Q 2463 200 2181 54 
Q 1900 -91 1497 -91 
Q 953 -91 614 226 
Q 275 544 275 1050 
Q 275 1666 698 1953 
Q 1122 2241 2028 2241 
L 2688 2241 
L 2688 2328 
Q 2688 2594 2478 2717 
Q 2269 2841 1825 2841 
Q 1466 2841 1156 2769 
Q 847 2697 581 2553 
L 581 3406 
Q 941 3494 1303 3539 
Q 1666 3584 2028 3584 
Q 2975 3584 3395 3211 
Q 3816 2838 3816 1997 
z
" transform="scale(0.015625)"/>
      <path id="DejaVuSans-Bold-29" d="M 513 -844 
Q 913 -100 1113 609 
Q 1313 1319 1313 2009 
Q 1313 2700 1113 3408 
Q 913 4116 513 4856 
L 1441 4856 
Q 1916 4091 2145 3389 
Q 2375 2688 2375 2003 
Q 2375 1319 2147 623 
Q 1919 -72 1441 -844 
L 513 -844 
z
" transform="scale(0.015625)"/>
     </defs>
     <use xlink:href="#DejaVuSans-Bold-28"/>
     <use xlink:href="#DejaVuSans-Bold-63" transform="translate(45.703125 0)"/>
     <use xlink:href="#DejaVuSans-Bold-6f" transform="translate(104.980469 0)"/>
     <use xlink:href="#DejaVuSans-Bold-6e" transform="translate(173.681641 0)"/>
     <use xlink:href="#DejaVuSans-Bold-73" transform="translate(244.873047 0)"/>
     <use xlink:href="#DejaVuSans-Bold-74" transform="translate(304.394531 0)"/>
     <use xlink:href="#DejaVuSans-Bold-61" transform="translate(352.197266 0)"/>
     <use xlink:href="#DejaVuSans-Bold-6e" transform="translate(419.677734 0)"/>
     <use xlink:href="#DejaVuSans-Bold-74" transform="translate(490.869141 0)"/>
     <use xlink:href="#DejaVuSans-Bold-29" transform="translate(538.671875 0)"/>
    </g>
   </g>
   <g id="text_24">
    <!-- Weber's Law — The JND Scales with Intensity -->
    <g style="fill: #1a1a2e" transform="translate(272.794375 17.837812) scale(0.14 -0.14)">
     <defs>
      <path id="DejaVuSans-Bold-57" d="M 191 4666 
L 1344 4666 
L 2150 1275 
L 2950 4666 
L 4109 4666 
L 4909 1275 
L 5716 4666 
L 6859 4666 
L 5759 0 
L 4372 0 
L 3525 3547 
L 2688 0 
L 1300 0 
L 191 4666 
z
" transform="scale(0.015625)"/>
      <path id="DejaVuSans-Bold-65" d="M 4031 1759 
L 4031 1441 
L 1416 1441 
Q 1456 1047 1700 850 
Q 1944 653 2381 653 
Q 2734 653 3104 758 
Q 3475 863 3866 1075 
L 3866 213 
Q 3469 63 3072 -14 
Q 2675 -91 2278 -91 
Q 1328 -91 801 392 
Q 275 875 275 1747 
Q 275 2603 792 3093 
Q 1309 3584 2216 3584 
Q 3041 3584 3536 3087 
Q 4031 2591 4031 1759 
z
M 2881 2131 
Q 2881 2450 2695 2645 
Q 2509 2841 2209 2841 
Q 1884 2841 1681 2658 
Q 1478 2475 1428 2131 
L 2881 2131 
z
" transform="scale(0.015625)"/>
      <path id="DejaVuSans-Bold-62" d="M 2400 722 
Q 2759 722 2948 984 
Q 3138 1247 3138 1747 
Q 3138 2247 2948 2509 
Q 2759 2772 2400 2772 
Q 2041 2772 1848 2508 
Q 1656 2244 1656 1747 
Q 1656 1250 1848 986 
Q 2041 722 2400 722 
z
M 1656 2988 
Q 1888 3294 2169 3439 
Q 2450 3584 2816 3584 
Q 3463 3584 3878 3070 
Q 4294 2556 4294 1747 
Q 4294 938 3878 423 
Q 3463 -91 2816 -91 
Q 2450 -91 2169 54 
Q 1888 200 1656 506 
L 1656 0 
L 538 0 
L 538 4863 
L 1656 4863 
L 1656 2988 
z
" transform="scale(0.015625)"/>
      <path id="DejaVuSans-Bold-72" d="M 3138 2547 
Q 2991 2616 2845 2648 
Q 2700 2681 2553 2681 
Q 2122 2681 1889 2404 
Q 1656 2128 1656 1613 
L 1656 0 
L 538 0 
L 538 3500 
L 1656 3500 
L 1656 2925 
Q 1872 3269 2151 3426 
Q 2431 3584 2822 3584 
Q 2878 3584 2943 3579 
Q 3009 3575 3134 3559 
L 3138 2547 
z
" transform="scale(0.015625)"/>
      <path id="DejaVuSans-Bold-27" d="M 1350 4666 
L 1350 2931 
L 609 2931 
L 609 4666 
L 1350 4666 
z
" transform="scale(0.015625)"/>
      <path id="DejaVuSans-Bold-4c" d="M 588 4666 
L 1791 4666 
L 1791 909 
L 3903 909 
L 3903 0 
L 588 0 
L 588 4666 
z
" transform="scale(0.015625)"/>
      <path id="DejaVuSans-Bold-77" d="M 225 3500 
L 1313 3500 
L 1900 1088 
L 2491 3500 
L 3425 3500 
L 4013 1113 
L 4603 3500 
L 5691 3500 
L 4769 0 
L 3547 0 
L 2956 2406 
L 2369 0 
L 1147 0 
L 225 3500 
z
" transform="scale(0.015625)"/>
      <path id="DejaVuSans-Bold-2014" d="M 344 2156 
L 6056 2156 
L 6056 1350 
L 344 1350 
L 344 2156 
z
" transform="scale(0.015625)"/>
      <path id="DejaVuSans-Bold-54" d="M 31 4666 
L 4331 4666 
L 4331 3756 
L 2784 3756 
L 2784 0 
L 1581 0 
L 1581 3756 
L 31 3756 
L 31 4666 
z
" transform="scale(0.015625)"/>
      <path id="DejaVuSans-Bold-68" d="M 4056 2131 
L 4056 0 
L 2931 0 
L 2931 347 
L 2931 1625 
Q 2931 2084 2911 2256 
Q 2891 2428 2841 2509 
Q 2775 2619 2662 2680 
Q 2550 2741 2406 2741 
Q 2056 2741 1856 2470 
Q 1656 2200 1656 1722 
L 1656 0 
L 538 0 
L 538 4863 
L 1656 4863 
L 1656 2988 
Q 1909 3294 2193 3439 
Q 2478 3584 2822 3584 
Q 3428 3584 3742 3212 
Q 4056 2841 4056 2131 
z
" transform="scale(0.015625)"/>
      <path id="DejaVuSans-Bold-4a" d="M 588 4666 
L 1791 4666 
L 1791 453 
Q 1791 -419 1317 -850 
Q 844 -1281 -116 -1281 
L -359 -1281 
L -359 -372 
L -172 -372 
Q 203 -372 395 -162 
Q 588 47 588 453 
L 588 4666 
z
" transform="scale(0.015625)"/>
      <path id="DejaVuSans-Bold-4e" d="M 588 4666 
L 1931 4666 
L 3628 1466 
L 3628 4666 
L 4769 4666 
L 4769 0 
L 3425 0 
L 1728 3200 
L 1728 0 
L 588 0 
L 588 4666 
z
" transform="scale(0.015625)"/>
      <path id="DejaVuSans-Bold-44" d="M 1791 3756 
L 1791 909 
L 2222 909 
Q 2959 909 3348 1275 
Q 3738 1641 3738 2338 
Q 3738 3031 3350 3393 
Q 2963 3756 2222 3756 
L 1791 3756 
z
M 588 4666 
L 1856 4666 
Q 2919 4666 3439 4514 
Q 3959 4363 4331 4000 
Q 4659 3684 4818 3271 
Q 4978 2859 4978 2338 
Q 4978 1809 4818 1395 
Q 4659 981 4331 666 
Q 3956 303 3431 151 
Q 2906 0 1856 0 
L 588 0 
L 588 4666 
z
" transform="scale(0.015625)"/>
      <path id="DejaVuSans-Bold-53" d="M 3834 4519 
L 3834 3531 
Q 3450 3703 3084 3790 
Q 2719 3878 2394 3878 
Q 1963 3878 1756 3759 
Q 1550 3641 1550 3391 
Q 1550 3203 1689 3098 
Q 1828 2994 2194 2919 
L 2706 2816 
Q 3484 2659 3812 2340 
Q 4141 2022 4141 1434 
Q 4141 663 3683 286 
Q 3225 -91 2284 -91 
Q 1841 -91 1394 -6 
Q 947 78 500 244 
L 500 1259 
Q 947 1022 1364 901 
Q 1781 781 2169 781 
Q 2563 781 2772 912 
Q 2981 1044 2981 1288 
Q 2981 1506 2839 1625 
Q 2697 1744 2272 1838 
L 1806 1941 
Q 1106 2091 782 2419 
Q 459 2747 459 3303 
Q 459 4000 909 4375 
Q 1359 4750 2203 4750 
Q 2588 4750 2994 4692 
Q 3400 4634 3834 4519 
z
" transform="scale(0.015625)"/>
      <path id="DejaVuSans-Bold-6c" d="M 538 4863 
L 1656 4863 
L 1656 0 
L 538 0 
L 538 4863 
z
" transform="scale(0.015625)"/>
      <path id="DejaVuSans-Bold-69" d="M 538 3500 
L 1656 3500 
L 1656 0 
L 538 0 
L 538 3500 
z
M 538 4863 
L 1656 4863 
L 1656 3950 
L 538 3950 
L 538 4863 
z
" transform="scale(0.015625)"/>
      <path id="DejaVuSans-Bold-79" d="M 78 3500 
L 1197 3500 
L 2138 1125 
L 2938 3500 
L 4056 3500 
L 2584 -331 
Q 2363 -916 2067 -1148 
Q 1772 -1381 1288 -1381 
L 641 -1381 
L 641 -647 
L 991 -647 
Q 1275 -647 1404 -556 
Q 1534 -466 1606 -231 
L 1638 -134 
L 78 3500 
z
" transform="scale(0.015625)"/>
     </defs>
     <use xlink:href="#DejaVuSans-Bold-57"/>
     <use xlink:href="#DejaVuSans-Bold-65" transform="translate(106.677734 0)"/>
     <use xlink:href="#DejaVuSans-Bold-62" transform="translate(174.5 0)"/>
     <use xlink:href="#DejaVuSans-Bold-65" transform="translate(246.082031 0)"/>
     <use xlink:href="#DejaVuSans-Bold-72" transform="translate(313.904297 0)"/>
     <use xlink:href="#DejaVuSans-Bold-27" transform="translate(363.220703 0)"/>
     <use xlink:href="#DejaVuSans-Bold-73" transform="translate(393.835938 0)"/>
     <use xlink:href="#DejaVuSans-Bold-20" transform="translate(453.357422 0)"/>
     <use xlink:href="#DejaVuSans-Bold-4c" transform="translate(488.171875 0)"/>
     <use xlink:href="#DejaVuSans-Bold-61" transform="translate(551.892578 0)"/>
     <use xlink:href="#DejaVuSans-Bold-77" transform="translate(619.373047 0)"/>
     <use xlink:href="#DejaVuSans-Bold-20" transform="translate(711.755859 0)"/>
     <use xlink:href="#DejaVuSans-Bold-2014" transform="translate(746.570312 0)"/>
     <use xlink:href="#DejaVuSans-Bold-20" transform="translate(846.570312 0)"/>
     <use xlink:href="#DejaVuSans-Bold-54" transform="translate(881.384766 0)"/>
     <use xlink:href="#DejaVuSans-Bold-68" transform="translate(949.597656 0)"/>
     <use xlink:href="#DejaVuSans-Bold-65" transform="translate(1020.789062 0)"/>
     <use xlink:href="#DejaVuSans-Bold-20" transform="translate(1088.611328 0)"/>
     <use xlink:href="#DejaVuSans-Bold-4a" transform="translate(1123.425781 0)"/>
     <use xlink:href="#DejaVuSans-Bold-4e" transform="translate(1160.632812 0)"/>
     <use xlink:href="#DejaVuSans-Bold-44" transform="translate(1244.324219 0)"/>
     <use xlink:href="#DejaVuSans-Bold-20" transform="translate(1327.332031 0)"/>
     <use xlink:href="#DejaVuSans-Bold-53" transform="translate(1362.146484 0)"/>
     <use xlink:href="#DejaVuSans-Bold-63" transform="translate(1434.167969 0)"/>
     <use xlink:href="#DejaVuSans-Bold-61" transform="translate(1493.445312 0)"/>
     <use xlink:href="#DejaVuSans-Bold-6c" transform="translate(1560.925781 0)"/>
     <use xlink:href="#DejaVuSans-Bold-65" transform="translate(1595.203125 0)"/>
     <use xlink:href="#DejaVuSans-Bold-73" transform="translate(1663.025391 0)"/>
     <use xlink:href="#DejaVuSans-Bold-20" transform="translate(1722.546875 0)"/>
     <use xlink:href="#DejaVuSans-Bold-77" transform="translate(1757.361328 0)"/>
     <use xlink:href="#DejaVuSans-Bold-69" transform="translate(1849.744141 0)"/>
     <use xlink:href="#DejaVuSans-Bold-74" transform="translate(1884.021484 0)"/>
     <use xlink:href="#DejaVuSans-Bold-68" transform="translate(1931.824219 0)"/>
     <use xlink:href="#DejaVuSans-Bold-20" transform="translate(2003.015625 0)"/>
     <use xlink:href="#DejaVuSans-Bold-49" transform="translate(2037.830078 0)"/>
     <use xlink:href="#DejaVuSans-Bold-6e" transform="translate(2075.037109 0)"/>
     <use xlink:href="#DejaVuSans-Bold-74" transform="translate(2146.228516 0)"/>
     <use xlink:href="#DejaVuSans-Bold-65" transform="translate(2194.03125 0)"/>
     <use xlink:href="#DejaVuSans-Bold-6e" transform="translate(2261.853516 0)"/>
     <use xlink:href="#DejaVuSans-Bold-73" transform="translate(2333.044922 0)"/>
     <use xlink:href="#DejaVuSans-Bold-69" transform="translate(2392.566406 0)"/>
     <use xlink:href="#DejaVuSans-Bold-74" transform="translate(2426.84375 0)"/>
     <use xlink:href="#DejaVuSans-Bold-79" transform="translate(2474.646484 0)"/>
    </g>
   </g>
   <g id="patch_9">
    <path d="M 128.649821 325.997629 
Q 128.649821 327.432627 128.649821 328.867625 
" style="fill: none; stroke: #d94f3d; stroke-width: 2; stroke-linecap: round"/>
    <path d="M 131.449821 320.397629 
L 128.649821 325.997629 
L 125.849821 320.397629 
" style="fill: none; stroke: #d94f3d; stroke-width: 2; stroke-linecap: round"/>
    <path d="M 125.849821 334.467625 
L 128.649821 328.867625 
L 131.449821 334.467625 
" style="fill: none; stroke: #d94f3d; stroke-width: 2; stroke-linecap: round"/>
   </g>
   <g id="patch_10">
    <path d="M 166.524107 307.976684 
Q 166.524107 309.610385 166.524107 311.244086 
" style="fill: none; stroke: #d94f3d; stroke-width: 2; stroke-linecap: round"/>
    <path d="M 169.324107 302.376684 
L 166.524107 307.976684 
L 163.724107 302.376684 
" style="fill: none; stroke: #d94f3d; stroke-width: 2; stroke-linecap: round"/>
    <path d="M 163.724107 316.844086 
L 166.524107 311.244086 
L 169.324107 316.844086 
" style="fill: none; stroke: #d94f3d; stroke-width: 2; stroke-linecap: round"/>
   </g>
   <g id="patch_11">
    <path d="M 242.272679 275.933886 
Q 242.272679 276.966517 242.272679 277.999148 
" style="fill: none; stroke: #d94f3d; stroke-width: 2; stroke-linecap: round"/>
    <path d="M 245.072679 270.333886 
L 242.272679 275.933886 
L 239.472679 270.333886 
" style="fill: none; stroke: #d94f3d; stroke-width: 2; stroke-linecap: round"/>
    <path d="M 239.472679 283.599148 
L 242.272679 277.999148 
L 245.072679 283.599148 
" style="fill: none; stroke: #d94f3d; stroke-width: 2; stroke-linecap: round"/>
   </g>
   <g id="patch_12">
    <path d="M 393.769821 211.848289 
Q 393.769821 209.675192 393.769821 207.502096 
" style="fill: none; stroke: #d94f3d; stroke-width: 2; stroke-linecap: round"/>
    <path d="M 396.569821 206.248289 
L 393.769821 211.848289 
L 390.969821 206.248289 
" style="fill: none; stroke: #d94f3d; stroke-width: 2; stroke-linecap: round"/>
    <path d="M 390.969821 213.102096 
L 393.769821 207.502096 
L 396.569821 213.102096 
" style="fill: none; stroke: #d94f3d; stroke-width: 2; stroke-linecap: round"/>
   </g>
   <g id="patch_13">
    <path d="M 696.764107 83.677096 
Q 696.764107 75.095503 696.764107 66.513909 
" style="fill: none; stroke: #d94f3d; stroke-width: 2; stroke-linecap: round"/>
    <path d="M 699.564107 78.077096 
L 696.764107 83.677096 
L 693.964107 78.077096 
" style="fill: none; stroke: #d94f3d; stroke-width: 2; stroke-linecap: round"/>
    <path d="M 693.964107 72.113909 
L 696.764107 66.513909 
L 699.564107 72.113909 
" style="fill: none; stroke: #d94f3d; stroke-width: 2; stroke-linecap: round"/>
   </g>
   <g id="patch_14">
    <path d="M 94.789897 373.093615 
Q 109.713038 373.093615 124.636179 373.093615 
" style="fill: none; stroke: #4b8b5e; stroke-width: 1.8; stroke-linecap: round"/>
    <path d="M 99.589897 375.493615 
L 94.789897 373.093615 
L 99.589897 370.693615 
" style="fill: none; stroke: #4b8b5e; stroke-width: 1.8; stroke-linecap: round"/>
    <path d="M 119.836179 370.693615 
L 124.636179 373.093615 
L 119.836179 375.493615 
" style="fill: none; stroke: #4b8b5e; stroke-width: 1.8; stroke-linecap: round"/>
   </g>
   <g id="line2d_12">
    <path d="M 90.775536 376.297895 
L 90.775536 369.889335 
" clip-path="url(#p7710834924)" style="fill: none; stroke: #4b8b5e; stroke-width: 1.5; stroke-linecap: square"/>
   </g>
   <g id="line2d_13">
    <path d="M 128.649821 376.297895 
L 128.649821 369.889335 
" clip-path="url(#p7710834924)" style="fill: none; stroke: #4b8b5e; stroke-width: 1.5; stroke-linecap: square"/>
   </g>
   <g id="patch_15">
    <path d="M 132.664183 373.093615 
Q 147.587324 373.093615 162.510464 373.093615 
" style="fill: none; stroke: #4b8b5e; stroke-width: 1.8; stroke-linecap: round"/>
    <path d="M 137.464183 375.493615 
L 132.664183 373.093615 
L 137.464183 370.693615 
" style="fill: none; stroke: #4b8b5e; stroke-width: 1.8; stroke-linecap: round"/>
    <path d="M 157.710464 370.693615 
L 162.510464 373.093615 
L 157.710464 375.493615 
" style="fill: none; stroke: #4b8b5e; stroke-width: 1.8; stroke-linecap: round"/>
   </g>
   <g id="line2d_14">
    <path d="M 128.649821 376.297895 
L 128.649821 369.889335 
" clip-path="url(#p7710834924)" style="fill: none; stroke: #4b8b5e; stroke-width: 1.5; stroke-linecap: square"/>
   </g>
   <g id="line2d_15">
    <path d="M 166.524107 376.297895 
L 166.524107 369.889335 
" clip-path="url(#p7710834924)" style="fill: none; stroke: #4b8b5e; stroke-width: 1.5; stroke-linecap: square"/>
   </g>
   <g id="patch_16">
    <path d="M 170.538468 373.093615 
Q 204.397839 373.093615 238.25721 373.093615 
" style="fill: none; stroke: #4b8b5e; stroke-width: 1.8; stroke-linecap: round"/>
    <path d="M 175.338468 375.493615 
L 170.538468 373.093615 
L 175.338468 370.693615 
" style="fill: none; stroke: #4b8b5e; stroke-width: 1.8; stroke-linecap: round"/>
    <path d="M 233.45721 370.693615 
L 238.25721 373.093615 
L 233.45721 375.493615 
" style="fill: none; stroke: #4b8b5e; stroke-width: 1.8; stroke-linecap: round"/>
   </g>
   <g id="line2d_16">
    <path d="M 166.524107 376.297895 
L 166.524107 369.889335 
" clip-path="url(#p7710834924)" style="fill: none; stroke: #4b8b5e; stroke-width: 1.5; stroke-linecap: square"/>
   </g>
   <g id="line2d_17">
    <path d="M 242.272679 376.297895 
L 242.272679 369.889335 
" clip-path="url(#p7710834924)" style="fill: none; stroke: #4b8b5e; stroke-width: 1.5; stroke-linecap: square"/>
   </g>
   <g id="patch_17">
    <path d="M 246.28704 373.093615 
Q 318.02079 373.093615 389.75454 373.093615 
" style="fill: none; stroke: #4b8b5e; stroke-width: 1.8; stroke-linecap: round"/>
    <path d="M 251.08704 375.493615 
L 246.28704 373.093615 
L 251.08704 370.693615 
" style="fill: none; stroke: #4b8b5e; stroke-width: 1.8; stroke-linecap: round"/>
    <path d="M 384.95454 370.693615 
L 389.75454 373.093615 
L 384.95454 375.493615 
" style="fill: none; stroke: #4b8b5e; stroke-width: 1.8; stroke-linecap: round"/>
   </g>
   <g id="line2d_18">
    <path d="M 242.272679 376.297895 
L 242.272679 369.889335 
" clip-path="url(#p7710834924)" style="fill: none; stroke: #4b8b5e; stroke-width: 1.5; stroke-linecap: square"/>
   </g>
   <g id="line2d_19">
    <path d="M 393.769821 376.297895 
L 393.769821 369.889335 
" clip-path="url(#p7710834924)" style="fill: none; stroke: #4b8b5e; stroke-width: 1.5; stroke-linecap: square"/>
   </g>
   <g id="patch_18">
    <path d="M 397.784183 373.093615 
Q 545.268985 373.093615 692.753787 373.093615 
" style="fill: none; stroke: #4b8b5e; stroke-width: 1.8; stroke-linecap: round"/>
    <path d="M 402.584183 375.493615 
L 397.784183 373.093615 
L 402.584183 370.693615 
" style="fill: none; stroke: #4b8b5e; stroke-width: 1.8; stroke-linecap: round"/>
    <path d="M 687.953787 370.693615 
L 692.753787 373.093615 
L 687.953787 375.493615 
" style="fill: none; stroke: #4b8b5e; stroke-width: 1.8; stroke-linecap: round"/>
   </g>
   <g id="line2d_20">
    <path d="M 393.769821 376.297895 
L 393.769821 369.889335 
" clip-path="url(#p7710834924)" style="fill: none; stroke: #4b8b5e; stroke-width: 1.5; stroke-linecap: square"/>
   </g>
   <g id="line2d_21">
    <path d="M 696.764107 376.297895 
L 696.764107 369.889335 
" clip-path="url(#p7710834924)" style="fill: none; stroke: #4b8b5e; stroke-width: 1.5; stroke-linecap: square"/>
   </g>
   <g id="legend_1">
    <g id="patch_19">
     <path d="M 59.20125 79.482969 
L 288.899531 79.482969 
Q 290.699531 79.482969 290.699531 77.682969 
L 290.699531 38.137813 
Q 290.699531 36.337813 288.899531 36.337813 
L 59.20125 36.337813 
Q 57.40125 36.337813 57.40125 38.137813 
L 57.40125 77.682969 
Q 57.40125 79.482969 59.20125 79.482969 
z
" style="fill: #ffffff; opacity: 0.9; stroke: #cccccc; stroke-linejoin: miter"/>
    </g>
    <g id="patch_20">
     <path d="M 61.00125 47.992813 
L 75.40125 47.992813 
L 75.40125 39.937813 
L 61.00125 39.937813 
z
" style="fill: #2c5f8a; stroke: #2c5f8a; stroke-linejoin: miter"/>
    </g>
    <g id="text_25">
     <!-- Stimulus intensity (I) — diagonal reference -->
     <g transform="translate(82.60125 47.047813) scale(0.09 -0.09)">
      <defs>
       <path id="DejaVuSans-2014" d="M 313 1978 
L 6088 1978 
L 6088 1528 
L 313 1528 
L 313 1978 
z
" transform="scale(0.015625)"/>
       <path id="DejaVuSans-64" d="M 2906 2969 
L 2906 4863 
L 3481 4863 
L 3481 0 
L 2906 0 
L 2906 525 
Q 2725 213 2448 61 
Q 2172 -91 1784 -91 
Q 1150 -91 751 415 
Q 353 922 353 1747 
Q 353 2572 751 3078 
Q 1150 3584 1784 3584 
Q 2172 3584 2448 3432 
Q 2725 3281 2906 2969 
z
M 947 1747 
Q 947 1113 1208 752 
Q 1469 391 1925 391 
Q 2381 391 2643 752 
Q 2906 1113 2906 1747 
Q 2906 2381 2643 2742 
Q 2381 3103 1925 3103 
Q 1469 3103 1208 2742 
Q 947 2381 947 1747 
z
" transform="scale(0.015625)"/>
       <path id="DejaVuSans-67" d="M 2906 1791 
Q 2906 2416 2648 2759 
Q 2391 3103 1925 3103 
Q 1463 3103 1205 2759 
Q 947 2416 947 1791 
Q 947 1169 1205 825 
Q 1463 481 1925 481 
Q 2391 481 2648 825 
Q 2906 1169 2906 1791 
z
M 3481 434 
Q 3481 -459 3084 -895 
Q 2688 -1331 1869 -1331 
Q 1566 -1331 1297 -1286 
Q 1028 -1241 775 -1147 
L 775 -588 
Q 1028 -725 1275 -790 
Q 1522 -856 1778 -856 
Q 2344 -856 2625 -561 
Q 2906 -266 2906 331 
L 2906 616 
Q 2728 306 2450 153 
Q 2172 0 1784 0 
Q 1141 0 747 490 
Q 353 981 353 1791 
Q 353 2603 747 3093 
Q 1141 3584 1784 3584 
Q 2172 3584 2450 3431 
Q 2728 3278 2906 2969 
L 2906 3500 
L 3481 3500 
L 3481 434 
z
" transform="scale(0.015625)"/>
       <path id="DejaVuSans-6f" d="M 1959 3097 
Q 1497 3097 1228 2736 
Q 959 2375 959 1747 
Q 959 1119 1226 758 
Q 1494 397 1959 397 
Q 2419 397 2687 759 
Q 2956 1122 2956 1747 
Q 2956 2369 2687 2733 
Q 2419 3097 1959 3097 
z
M 1959 3584 
Q 2709 3584 3137 3096 
Q 3566 2609 3566 1747 
Q 3566 888 3137 398 
Q 2709 -91 1959 -91 
Q 1206 -91 779 398 
Q 353 888 353 1747 
Q 353 2609 779 3096 
Q 1206 3584 1959 3584 
z
" transform="scale(0.015625)"/>
       <path id="DejaVuSans-66" d="M 2375 4863 
L 2375 4384 
L 1825 4384 
Q 1516 4384 1395 4259 
Q 1275 4134 1275 3809 
L 1275 3500 
L 2222 3500 
L 2222 3053 
L 1275 3053 
L 1275 0 
L 697 0 
L 697 3053 
L 147 3053 
L 147 3500 
L 697 3500 
L 697 3744 
Q 697 4328 969 4595 
Q 1241 4863 1831 4863 
L 2375 4863 
z
" transform="scale(0.015625)"/>
       <path id="DejaVuSans-63" d="M 3122 3366 
L 3122 2828 
Q 2878 2963 2633 3030 
Q 2388 3097 2138 3097 
Q 1578 3097 1268 2742 
Q 959 2388 959 1747 
Q 959 1106 1268 751 
Q 1578 397 2138 397 
Q 2388 397 2633 464 
Q 2878 531 3122 666 
L 3122 134 
Q 2881 22 2623 -34 
Q 2366 -91 2075 -91 
Q 1284 -91 818 406 
Q 353 903 353 1747 
Q 353 2603 823 3093 
Q 1294 3584 2113 3584 
Q 2378 3584 2631 3529 
Q 2884 3475 3122 3366 
z
" transform="scale(0.015625)"/>
      </defs>
      <use xlink:href="#DejaVuSans-53"/>
      <use xlink:href="#DejaVuSans-74" transform="translate(63.476562 0)"/>
      <use xlink:href="#DejaVuSans-69" transform="translate(102.685547 0)"/>
      <use xlink:href="#DejaVuSans-6d" transform="translate(130.46875 0)"/>
      <use xlink:href="#DejaVuSans-75" transform="translate(227.880859 0)"/>
      <use xlink:href="#DejaVuSans-6c" transform="translate(291.259766 0)"/>
      <use xlink:href="#DejaVuSans-75" transform="translate(319.042969 0)"/>
      <use xlink:href="#DejaVuSans-73" transform="translate(382.421875 0)"/>
      <use xlink:href="#DejaVuSans-20" transform="translate(434.521484 0)"/>
      <use xlink:href="#DejaVuSans-69" transform="translate(466.308594 0)"/>
      <use xlink:href="#DejaVuSans-6e" transform="translate(494.091797 0)"/>
      <use xlink:href="#DejaVuSans-74" transform="translate(557.470703 0)"/>
      <use xlink:href="#DejaVuSans-65" transform="translate(596.679688 0)"/>
      <use xlink:href="#DejaVuSans-6e" transform="translate(658.203125 0)"/>
      <use xlink:href="#DejaVuSans-73" transform="translate(721.582031 0)"/>
      <use xlink:href="#DejaVuSans-69" transform="translate(773.681641 0)"/>
      <use xlink:href="#DejaVuSans-74" transform="translate(801.464844 0)"/>
      <use xlink:href="#DejaVuSans-79" transform="translate(840.673828 0)"/>
      <use xlink:href="#DejaVuSans-20" transform="translate(899.853516 0)"/>
      <use xlink:href="#DejaVuSans-28" transform="translate(931.640625 0)"/>
      <use xlink:href="#DejaVuSans-49" transform="translate(970.654297 0)"/>
      <use xlink:href="#DejaVuSans-29" transform="translate(1000.146484 0)"/>
      <use xlink:href="#DejaVuSans-20" transform="translate(1039.160156 0)"/>
      <use xlink:href="#DejaVuSans-2014" transform="translate(1070.947266 0)"/>
      <use xlink:href="#DejaVuSans-20" transform="translate(1170.947266 0)"/>
      <use xlink:href="#DejaVuSans-64" transform="translate(1202.734375 0)"/>
      <use xlink:href="#DejaVuSans-69" transform="translate(1266.210938 0)"/>
      <use xlink:href="#DejaVuSans-61" transform="translate(1293.994141 0)"/>
      <use xlink:href="#DejaVuSans-67" transform="translate(1355.273438 0)"/>
      <use xlink:href="#DejaVuSans-6f" transform="translate(1418.75 0)"/>
      <use xlink:href="#DejaVuSans-6e" transform="translate(1479.931641 0)"/>
      <use xlink:href="#DejaVuSans-61" transform="translate(1543.310547 0)"/>
      <use xlink:href="#DejaVuSans-6c" transform="translate(1604.589844 0)"/>
      <use xlink:href="#DejaVuSans-20" transform="translate(1632.373047 0)"/>
      <use xlink:href="#DejaVuSans-72" transform="translate(1664.160156 0)"/>
      <use xlink:href="#DejaVuSans-65" transform="translate(1703.023438 0)"/>
      <use xlink:href="#DejaVuSans-66" transform="translate(1764.546875 0)"/>
      <use xlink:href="#DejaVuSans-65" transform="translate(1799.751953 0)"/>
      <use xlink:href="#DejaVuSans-72" transform="translate(1861.275391 0)"/>
      <use xlink:href="#DejaVuSans-65" transform="translate(1900.138672 0)"/>
      <use xlink:href="#DejaVuSans-6e" transform="translate(1961.662109 0)"/>
      <use xlink:href="#DejaVuSans-63" transform="translate(2025.041016 0)"/>
      <use xlink:href="#DejaVuSans-65" transform="translate(2080.021484 0)"/>
     </g>
    </g>
    <g id="patch_21">
     <path d="M 61.00125 61.474531 
L 75.40125 61.474531 
L 75.40125 53.419531 
L 61.00125 53.419531 
z
" style="fill: #d94f3d; stroke: #d94f3d; stroke-linejoin: miter"/>
    </g>
    <g id="text_26">
     <!-- Just Noticeable Difference (ΔI) — grows with I -->
     <g transform="translate(82.60125 60.529531) scale(0.09 -0.09)">
      <defs>
       <path id="DejaVuSans-4a" d="M 628 4666 
L 1259 4666 
L 1259 325 
Q 1259 -519 939 -900 
Q 619 -1281 -91 -1281 
L -331 -1281 
L -331 -750 
L -134 -750 
Q 284 -750 456 -515 
Q 628 -281 628 325 
L 628 4666 
z
" transform="scale(0.015625)"/>
       <path id="DejaVuSans-4e" d="M 628 4666 
L 1478 4666 
L 3547 763 
L 3547 4666 
L 4159 4666 
L 4159 0 
L 3309 0 
L 1241 3903 
L 1241 0 
L 628 0 
L 628 4666 
z
" transform="scale(0.015625)"/>
       <path id="DejaVuSans-44" d="M 1259 4147 
L 1259 519 
L 2022 519 
Q 2988 519 3436 956 
Q 3884 1394 3884 2338 
Q 3884 3275 3436 3711 
Q 2988 4147 2022 4147 
L 1259 4147 
z
M 628 4666 
L 1925 4666 
Q 3281 4666 3915 4102 
Q 4550 3538 4550 2338 
Q 4550 1131 3912 565 
Q 3275 0 1925 0 
L 628 0 
L 628 4666 
z
" transform="scale(0.015625)"/>
       <path id="DejaVuSans-394" d="M 2188 4044 
L 906 525 
L 3472 525 
L 2188 4044 
z
M 50 0 
L 1831 4666 
L 2547 4666 
L 4325 0 
L 50 0 
z
" transform="scale(0.015625)"/>
       <path id="DejaVuSans-77" d="M 269 3500 
L 844 3500 
L 1563 769 
L 2278 3500 
L 2956 3500 
L 3675 769 
L 4391 3500 
L 4966 3500 
L 4050 0 
L 3372 0 
L 2619 2869 
L 1863 0 
L 1184 0 
L 269 3500 
z
" transform="scale(0.015625)"/>
       <path id="DejaVuSans-68" d="M 3513 2113 
L 3513 0 
L 2938 0 
L 2938 2094 
Q 2938 2591 2744 2837 
Q 2550 3084 2163 3084 
Q 1697 3084 1428 2787 
Q 1159 2491 1159 1978 
L 1159 0 
L 581 0 
L 581 4863 
L 1159 4863 
L 1159 2956 
Q 1366 3272 1645 3428 
Q 1925 3584 2291 3584 
Q 2894 3584 3203 3211 
Q 3513 2838 3513 2113 
z
" transform="scale(0.015625)"/>
      </defs>
      <use xlink:href="#DejaVuSans-4a"/>
      <use xlink:href="#DejaVuSans-75" transform="translate(29.492188 0)"/>
      <use xlink:href="#DejaVuSans-73" transform="translate(92.871094 0)"/>
      <use xlink:href="#DejaVuSans-74" transform="translate(144.970703 0)"/>
      <use xlink:href="#DejaVuSans-20" transform="translate(184.179688 0)"/>
      <use xlink:href="#DejaVuSans-4e" transform="translate(215.966797 0)"/>
      <use xlink:href="#DejaVuSans-6f" transform="translate(290.771484 0)"/>
      <use xlink:href="#DejaVuSans-74" transform="translate(351.953125 0)"/>
      <use xlink:href="#DejaVuSans-69" transform="translate(391.162109 0)"/>
      <use xlink:href="#DejaVuSans-63" transform="translate(418.945312 0)"/>
      <use xlink:href="#DejaVuSans-65" transform="translate(473.925781 0)"/>
      <use xlink:href="#DejaVuSans-61" transform="translate(535.449219 0)"/>
      <use xlink:href="#DejaVuSans-62" transform="translate(596.728516 0)"/>
      <use xlink:href="#DejaVuSans-6c" transform="translate(660.205078 0)"/>
      <use xlink:href="#DejaVuSans-65" transform="translate(687.988281 0)"/>
      <use xlink:href="#DejaVuSans-20" transform="translate(749.511719 0)"/>
      <use xlink:href="#DejaVuSans-44" transform="translate(781.298828 0)"/>
      <use xlink:href="#DejaVuSans-69" transform="translate(858.300781 0)"/>
      <use xlink:href="#DejaVuSans-66" transform="translate(886.083984 0)"/>
      <use xlink:href="#DejaVuSans-66" transform="translate(921.289062 0)"/>
      <use xlink:href="#DejaVuSans-65" transform="translate(956.494141 0)"/>
      <use xlink:href="#DejaVuSans-72" transform="translate(1018.017578 0)"/>
      <use xlink:href="#DejaVuSans-65" transform="translate(1056.880859 0)"/>
      <use xlink:href="#DejaVuSans-6e" transform="translate(1118.404297 0)"/>
      <use xlink:href="#DejaVuSans-63" transform="translate(1181.783203 0)"/>
      <use xlink:href="#DejaVuSans-65" transform="translate(1236.763672 0)"/>
      <use xlink:href="#DejaVuSans-20" transform="translate(1298.287109 0)"/>
      <use xlink:href="#DejaVuSans-28" transform="translate(1330.074219 0)"/>
      <use xlink:href="#DejaVuSans-394" transform="translate(1369.087891 0)"/>
      <use xlink:href="#DejaVuSans-49" transform="translate(1437.496094 0)"/>
      <use xlink:href="#DejaVuSans-29" transform="translate(1466.988281 0)"/>
      <use xlink:href="#DejaVuSans-20" transform="translate(1506.001953 0)"/>
      <use xlink:href="#DejaVuSans-2014" transform="translate(1537.789062 0)"/>
      <use xlink:href="#DejaVuSans-20" transform="translate(1637.789062 0)"/>
      <use xlink:href="#DejaVuSans-67" transform="translate(1669.576172 0)"/>
      <use xlink:href="#DejaVuSans-72" transform="translate(1733.052734 0)"/>
      <use xlink:href="#DejaVuSans-6f" transform="translate(1771.916016 0)"/>
      <use xlink:href="#DejaVuSans-77" transform="translate(1833.097656 0)"/>
      <use xlink:href="#DejaVuSans-73" transform="translate(1914.884766 0)"/>
      <use xlink:href="#DejaVuSans-20" transform="translate(1966.984375 0)"/>
      <use xlink:href="#DejaVuSans-77" transform="translate(1998.771484 0)"/>
      <use xlink:href="#DejaVuSans-69" transform="translate(2080.558594 0)"/>
      <use xlink:href="#DejaVuSans-74" transform="translate(2108.341797 0)"/>
      <use xlink:href="#DejaVuSans-68" transform="translate(2147.550781 0)"/>
      <use xlink:href="#DejaVuSans-20" transform="translate(2210.929688 0)"/>
      <use xlink:href="#DejaVuSans-49" transform="translate(2242.716797 0)"/>
     </g>
    </g>
    <g id="patch_22">
     <path d="M 61.00125 74.95625 
L 75.40125 74.95625 
L 75.40125 66.90125 
L 61.00125 66.90125 
z
" style="fill: #4b8b5e; stroke: #4b8b5e; stroke-linejoin: miter"/>
    </g>
    <g id="text_27">
     <!-- Base intensity intervals — also grow with I -->
     <g transform="translate(82.60125 74.01125) scale(0.09 -0.09)">
      <defs>
       <path id="DejaVuSans-76" d="M 191 3500 
L 800 3500 
L 1894 563 
L 2988 3500 
L 3597 3500 
L 2284 0 
L 1503 0 
L 191 3500 
z
" transform="scale(0.015625)"/>
      </defs>
      <use xlink:href="#DejaVuSans-42"/>
      <use xlink:href="#DejaVuSans-61" transform="translate(68.603516 0)"/>
      <use xlink:href="#DejaVuSans-73" transform="translate(129.882812 0)"/>
      <use xlink:href="#DejaVuSans-65" transform="translate(181.982422 0)"/>
      <use xlink:href="#DejaVuSans-20" transform="translate(243.505859 0)"/>
      <use xlink:href="#DejaVuSans-69" transform="translate(275.292969 0)"/>
      <use xlink:href="#DejaVuSans-6e" transform="translate(303.076172 0)"/>
      <use xlink:href="#DejaVuSans-74" transform="translate(366.455078 0)"/>
      <use xlink:href="#DejaVuSans-65" transform="translate(405.664062 0)"/>
      <use xlink:href="#DejaVuSans-6e" transform="translate(467.1875 0)"/>
      <use xlink:href="#DejaVuSans-73" transform="translate(530.566406 0)"/>
      <use xlink:href="#DejaVuSans-69" transform="translate(582.666016 0)"/>
      <use xlink:href="#DejaVuSans-74" transform="translate(610.449219 0)"/>
      <use xlink:href="#DejaVuSans-79" transform="translate(649.658203 0)"/>
      <use xlink:href="#DejaVuSans-20" transform="translate(708.837891 0)"/>
      <use xlink:href="#DejaVuSans-69" transform="translate(740.625 0)"/>
      <use xlink:href="#DejaVuSans-6e" transform="translate(768.408203 0)"/>
      <use xlink:href="#DejaVuSans-74" transform="translate(831.787109 0)"/>
      <use xlink:href="#DejaVuSans-65" transform="translate(870.996094 0)"/>
      <use xlink:href="#DejaVuSans-72" transform="translate(932.519531 0)"/>
      <use xlink:href="#DejaVuSans-76" transform="translate(973.632812 0)"/>
      <use xlink:href="#DejaVuSans-61" transform="translate(1032.8125 0)"/>
      <use xlink:href="#DejaVuSans-6c" transform="translate(1094.091797 0)"/>
      <use xlink:href="#DejaVuSans-73" transform="translate(1121.875 0)"/>
      <use xlink:href="#DejaVuSans-20" transform="translate(1173.974609 0)"/>
      <use xlink:href="#DejaVuSans-2014" transform="translate(1205.761719 0)"/>
      <use xlink:href="#DejaVuSans-20" transform="translate(1305.761719 0)"/>
      <use xlink:href="#DejaVuSans-61" transform="translate(1337.548828 0)"/>
      <use xlink:href="#DejaVuSans-6c" transform="translate(1398.828125 0)"/>
      <use xlink:href="#DejaVuSans-73" transform="translate(1426.611328 0)"/>
      <use xlink:href="#DejaVuSans-6f" transform="translate(1478.710938 0)"/>
      <use xlink:href="#DejaVuSans-20" transform="translate(1539.892578 0)"/>
      <use xlink:href="#DejaVuSans-67" transform="translate(1571.679688 0)"/>
      <use xlink:href="#DejaVuSans-72" transform="translate(1635.15625 0)"/>
      <use xlink:href="#DejaVuSans-6f" transform="translate(1674.019531 0)"/>
      <use xlink:href="#DejaVuSans-77" transform="translate(1735.201172 0)"/>
      <use xlink:href="#DejaVuSans-20" transform="translate(1816.988281 0)"/>
      <use xlink:href="#DejaVuSans-77" transform="translate(1848.775391 0)"/>
      <use xlink:href="#DejaVuSans-69" transform="translate(1930.5625 0)"/>
      <use xlink:href="#DejaVuSans-74" transform="translate(1958.345703 0)"/>
      <use xlink:href="#DejaVuSans-68" transform="translate(1997.554688 0)"/>
      <use xlink:href="#DejaVuSans-20" transform="translate(2060.933594 0)"/>
      <use xlink:href="#DejaVuSans-49" transform="translate(2092.720703 0)"/>
     </g>
    </g>
   </g>
   <g id="PathCollection_1">
    <defs>
     <path id="m02c60a1a39" d="M 0 3.708099 
C 0.983399 3.708099 1.926654 3.317391 2.622022 2.622022 
C 3.317391 1.926654 3.708099 0.983399 3.708099 0 
C 3.708099 -0.983399 3.317391 -1.926654 2.622022 -2.622022 
C 1.926654 -3.317391 0.983399 -3.708099 0 -3.708099 
C -0.983399 -3.708099 -1.926654 -3.317391 -2.622022 -2.622022 
C -3.317391 -1.926654 -3.708099 -0.983399 -3.708099 0 
C -3.708099 0.983399 -3.317391 1.926654 -2.622022 2.622022 
C -1.926654 3.317391 -0.983399 3.708099 0 3.708099 
z
" style="stroke: #ffffff; stroke-width: 1.2"/>
    </defs>
    <g clip-path="url(#p7710834924)">
     <use xlink:href="#m02c60a1a39" x="128.649821" y="328.233697" style="fill: #2c5f8a; stroke: #ffffff; stroke-width: 1.2"/>
     <use xlink:href="#m02c60a1a39" x="166.524107" y="312.212298" style="fill: #2c5f8a; stroke: #ffffff; stroke-width: 1.2"/>
     <use xlink:href="#m02c60a1a39" x="242.272679" y="280.1695" style="fill: #2c5f8a; stroke: #ffffff; stroke-width: 1.2"/>
     <use xlink:href="#m02c60a1a39" x="393.769821" y="216.083903" style="fill: #2c5f8a; stroke: #ffffff; stroke-width: 1.2"/>
     <use xlink:href="#m02c60a1a39" x="696.764107" y="87.91271" style="fill: #2c5f8a; stroke: #ffffff; stroke-width: 1.2"/>
    </g>
   </g>
  </g>
  <g id="text_28">
   <g id="patch_23">
    <path d="M 149.72375 500.197812 
L 704.39875 500.197812 
Q 709.39875 500.197812 709.39875 495.197812 
L 709.39875 483.318125 
Q 709.39875 478.318125 704.39875 478.318125 
L 149.72375 478.318125 
Q 144.72375 478.318125 144.72375 483.318125 
L 144.72375 495.197812 
Q 144.72375 500.197812 149.72375 500.197812 
z
" style="fill: #f0f4f8; opacity: 0.95; stroke: #2c5f8a; stroke-linejoin: miter"/>
   </g>
   <!-- Weber's Fraction:   ΔI / I  ≈  constant  (k)      │   Here k = 0.1,  so JND doubles each time base intensity doubles -->
   <g style="fill: #2c5f8a" transform="translate(149.72375 492.697812) scale(0.1 -0.1)">
    <defs>
     <path id="DejaVuSans-57" d="M 213 4666 
L 850 4666 
L 1831 722 
L 2809 4666 
L 3519 4666 
L 4500 722 
L 5478 4666 
L 6119 4666 
L 4947 0 
L 4153 0 
L 3169 4050 
L 2175 0 
L 1381 0 
L 213 4666 
z
" transform="scale(0.015625)"/>
     <path id="DejaVuSans-27" d="M 1147 4666 
L 1147 2931 
L 616 2931 
L 616 4666 
L 1147 4666 
z
" transform="scale(0.015625)"/>
     <path id="DejaVuSans-46" d="M 628 4666 
L 3309 4666 
L 3309 4134 
L 1259 4134 
L 1259 2759 
L 3109 2759 
L 3109 2228 
L 1259 2228 
L 1259 0 
L 628 0 
L 628 4666 
z
" transform="scale(0.015625)"/>
     <path id="DejaVuSans-3a" d="M 750 794 
L 1409 794 
L 1409 0 
L 750 0 
L 750 794 
z
M 750 3309 
L 1409 3309 
L 1409 2516 
L 750 2516 
L 750 3309 
z
" transform="scale(0.015625)"/>
     <path id="DejaVuSans-2f" d="M 1625 4666 
L 2156 4666 
L 531 -594 
L 0 -594 
L 1625 4666 
z
" transform="scale(0.015625)"/>
     <path id="DejaVuSans-2248" d="M 4684 1947 
L 4684 1388 
Q 4356 1144 4076 1036 
Q 3797 928 3494 928 
Q 3150 928 2694 1113 
Q 2663 1125 2641 1134 
Q 2622 1141 2575 1159 
Q 2091 1350 1797 1350 
Q 1522 1350 1253 1231 
Q 984 1113 678 850 
L 678 1409 
Q 1006 1653 1286 1761 
Q 1566 1869 1869 1869 
Q 2213 1869 2672 1684 
Q 2706 1669 2722 1663 
Q 2741 1656 2788 1638 
Q 3272 1447 3566 1447 
Q 3834 1447 4098 1564 
Q 4363 1681 4684 1947 
z
M 4684 3163 
L 4684 2606 
Q 4356 2359 4076 2251 
Q 3797 2144 3494 2144 
Q 3150 2144 2694 2328 
Q 2663 2341 2641 2350 
Q 2622 2356 2575 2375 
Q 2091 2566 1797 2566 
Q 1522 2566 1253 2447 
Q 984 2328 678 2069 
L 678 2625 
Q 1006 2869 1286 2976 
Q 1566 3084 1869 3084 
Q 2213 3084 2672 2900 
Q 2703 2888 2719 2881 
Q 2741 2872 2788 2853 
Q 3272 2663 3566 2663 
Q 3834 2663 4098 2780 
Q 4363 2897 4684 3163 
z
" transform="scale(0.015625)"/>
     <path id="DejaVuSans-6b" d="M 581 4863 
L 1159 4863 
L 1159 1991 
L 2875 3500 
L 3609 3500 
L 1753 1863 
L 3688 0 
L 2938 0 
L 1159 1709 
L 1159 0 
L 581 0 
L 581 4863 
z
" transform="scale(0.015625)"/>
     <path id="DejaVuSans-2502" d="M 1675 -1600 
L 1675 6003 
L 2175 6003 
L 2175 -1600 
L 1675 -1600 
z
" transform="scale(0.015625)"/>
     <path id="DejaVuSans-48" d="M 628 4666 
L 1259 4666 
L 1259 2753 
L 3553 2753 
L 3553 4666 
L 4184 4666 
L 4184 0 
L 3553 0 
L 3553 2222 
L 1259 2222 
L 1259 0 
L 628 0 
L 628 4666 
z
" transform="scale(0.015625)"/>
     <path id="DejaVuSans-3d" d="M 678 2906 
L 4684 2906 
L 4684 2381 
L 678 2381 
L 678 2906 
z
M 678 1631 
L 4684 1631 
L 4684 1100 
L 678 1100 
L 678 1631 
z
" transform="scale(0.015625)"/>
     <path id="DejaVuSans-2e" d="M 684 794 
L 1344 794 
L 1344 0 
L 684 0 
L 684 794 
z
" transform="scale(0.015625)"/>
    </defs>
    <use xlink:href="#DejaVuSans-57"/>
    <use xlink:href="#DejaVuSans-65" transform="translate(93.001953 0)"/>
    <use xlink:href="#DejaVuSans-62" transform="translate(154.525391 0)"/>
    <use xlink:href="#DejaVuSans-65" transform="translate(218.001953 0)"/>
    <use xlink:href="#DejaVuSans-72" transform="translate(279.525391 0)"/>
    <use xlink:href="#DejaVuSans-27" transform="translate(320.638672 0)"/>
    <use xlink:href="#DejaVuSans-73" transform="translate(348.128906 0)"/>
    <use xlink:href="#DejaVuSans-20" transform="translate(400.228516 0)"/>
    <use xlink:href="#DejaVuSans-46" transform="translate(432.015625 0)"/>
    <use xlink:href="#DejaVuSans-72" transform="translate(482.285156 0)"/>
    <use xlink:href="#DejaVuSans-61" transform="translate(523.398438 0)"/>
    <use xlink:href="#DejaVuSans-63" transform="translate(584.677734 0)"/>
    <use xlink:href="#DejaVuSans-74" transform="translate(639.658203 0)"/>
    <use xlink:href="#DejaVuSans-69" transform="translate(678.867188 0)"/>
    <use xlink:href="#DejaVuSans-6f" transform="translate(706.650391 0)"/>
    <use xlink:href="#DejaVuSans-6e" transform="translate(767.832031 0)"/>
    <use xlink:href="#DejaVuSans-3a" transform="translate(831.210938 0)"/>
    <use xlink:href="#DejaVuSans-20" transform="translate(864.902344 0)"/>
    <use xlink:href="#DejaVuSans-20" transform="translate(896.689453 0)"/>
    <use xlink:href="#DejaVuSans-20" transform="translate(928.476562 0)"/>
    <use xlink:href="#DejaVuSans-394" transform="translate(960.263672 0)"/>
    <use xlink:href="#DejaVuSans-49" transform="translate(1028.671875 0)"/>
    <use xlink:href="#DejaVuSans-20" transform="translate(1058.164062 0)"/>
    <use xlink:href="#DejaVuSans-2f" transform="translate(1089.951172 0)"/>
    <use xlink:href="#DejaVuSans-20" transform="translate(1123.642578 0)"/>
    <use xlink:href="#DejaVuSans-49" transform="translate(1155.429688 0)"/>
    <use xlink:href="#DejaVuSans-20" transform="translate(1184.921875 0)"/>
    <use xlink:href="#DejaVuSans-20" transform="translate(1216.708984 0)"/>
    <use xlink:href="#DejaVuSans-2248" transform="translate(1248.496094 0)"/>
    <use xlink:href="#DejaVuSans-20" transform="translate(1332.285156 0)"/>
    <use xlink:href="#DejaVuSans-20" transform="translate(1364.072266 0)"/>
    <use xlink:href="#DejaVuSans-63" transform="translate(1395.859375 0)"/>
    <use xlink:href="#DejaVuSans-6f" transform="translate(1450.839844 0)"/>
    <use xlink:href="#DejaVuSans-6e" transform="translate(1512.021484 0)"/>
    <use xlink:href="#DejaVuSans-73" transform="translate(1575.400391 0)"/>
    <use xlink:href="#DejaVuSans-74" transform="translate(1627.5 0)"/>
    <use xlink:href="#DejaVuSans-61" transform="translate(1666.708984 0)"/>
    <use xlink:href="#DejaVuSans-6e" transform="translate(1727.988281 0)"/>
    <use xlink:href="#DejaVuSans-74" transform="translate(1791.367188 0)"/>
    <use xlink:href="#DejaVuSans-20" transform="translate(1830.576172 0)"/>
    <use xlink:href="#DejaVuSans-20" transform="translate(1862.363281 0)"/>
    <use xlink:href="#DejaVuSans-28" transform="translate(1894.150391 0)"/>
    <use xlink:href="#DejaVuSans-6b" transform="translate(1933.164062 0)"/>
    <use xlink:href="#DejaVuSans-29" transform="translate(1991.074219 0)"/>
    <use xlink:href="#DejaVuSans-20" transform="translate(2030.087891 0)"/>
    <use xlink:href="#DejaVuSans-20" transform="translate(2061.875 0)"/>
    <use xlink:href="#DejaVuSans-20" transform="translate(2093.662109 0)"/>
    <use xlink:href="#DejaVuSans-20" transform="translate(2125.449219 0)"/>
    <use xlink:href="#DejaVuSans-20" transform="translate(2157.236328 0)"/>
    <use xlink:href="#DejaVuSans-20" transform="translate(2189.023438 0)"/>
    <use xlink:href="#DejaVuSans-2502" transform="translate(2220.810547 0)"/>
    <use xlink:href="#DejaVuSans-20" transform="translate(2281.015625 0)"/>
    <use xlink:href="#DejaVuSans-20" transform="translate(2312.802734 0)"/>
    <use xlink:href="#DejaVuSans-20" transform="translate(2344.589844 0)"/>
    <use xlink:href="#DejaVuSans-48" transform="translate(2376.376953 0)"/>
    <use xlink:href="#DejaVuSans-65" transform="translate(2451.572266 0)"/>
    <use xlink:href="#DejaVuSans-72" transform="translate(2513.095703 0)"/>
    <use xlink:href="#DejaVuSans-65" transform="translate(2551.958984 0)"/>
    <use xlink:href="#DejaVuSans-20" transform="translate(2613.482422 0)"/>
    <use xlink:href="#DejaVuSans-6b" transform="translate(2645.269531 0)"/>
    <use xlink:href="#DejaVuSans-20" transform="translate(2703.179688 0)"/>
    <use xlink:href="#DejaVuSans-3d" transform="translate(2734.966797 0)"/>
    <use xlink:href="#DejaVuSans-20" transform="translate(2818.755859 0)"/>
    <use xlink:href="#DejaVuSans-30" transform="translate(2850.542969 0)"/>
    <use xlink:href="#DejaVuSans-2e" transform="translate(2914.166016 0)"/>
    <use xlink:href="#DejaVuSans-31" transform="translate(2945.953125 0)"/>
    <use xlink:href="#DejaVuSans-2c" transform="translate(3009.576172 0)"/>
    <use xlink:href="#DejaVuSans-20" transform="translate(3041.363281 0)"/>
    <use xlink:href="#DejaVuSans-20" transform="translate(3073.150391 0)"/>
    <use xlink:href="#DejaVuSans-73" transform="translate(3104.9375 0)"/>
    <use xlink:href="#DejaVuSans-6f" transform="translate(3157.037109 0)"/>
    <use xlink:href="#DejaVuSans-20" transform="translate(3218.21875 0)"/>
    <use xlink:href="#DejaVuSans-4a" transform="translate(3250.005859 0)"/>
    <use xlink:href="#DejaVuSans-4e" transform="translate(3279.498047 0)"/>
    <use xlink:href="#DejaVuSans-44" transform="translate(3354.302734 0)"/>
    <use xlink:href="#DejaVuSans-20" transform="translate(3431.304688 0)"/>
    <use xlink:href="#DejaVuSans-64" transform="translate(3463.091797 0)"/>
    <use xlink:href="#DejaVuSans-6f" transform="translate(3526.568359 0)"/>
    <use xlink:href="#DejaVuSans-75" transform="translate(3587.75 0)"/>
    <use xlink:href="#DejaVuSans-62" transform="translate(3651.128906 0)"/>
    <use xlink:href="#DejaVuSans-6c" transform="translate(3714.605469 0)"/>
    <use xlink:href="#DejaVuSans-65" transform="translate(3742.388672 0)"/>
    <use xlink:href="#DejaVuSans-73" transform="translate(3803.912109 0)"/>
    <use xlink:href="#DejaVuSans-20" transform="translate(3856.011719 0)"/>
    <use xlink:href="#DejaVuSans-65" transform="translate(3887.798828 0)"/>
    <use xlink:href="#DejaVuSans-61" transform="translate(3949.322266 0)"/>
    <use xlink:href="#DejaVuSans-63" transform="translate(4010.601562 0)"/>
    <use xlink:href="#DejaVuSans-68" transform="translate(4065.582031 0)"/>
    <use xlink:href="#DejaVuSans-20" transform="translate(4128.960938 0)"/>
    <use xlink:href="#DejaVuSans-74" transform="translate(4160.748047 0)"/>
    <use xlink:href="#DejaVuSans-69" transform="translate(4199.957031 0)"/>
    <use xlink:href="#DejaVuSans-6d" transform="translate(4227.740234 0)"/>
    <use xlink:href="#DejaVuSans-65" transform="translate(4325.152344 0)"/>
    <use xlink:href="#DejaVuSans-20" transform="translate(4386.675781 0)"/>
    <use xlink:href="#DejaVuSans-62" transform="translate(4418.462891 0)"/>
    <use xlink:href="#DejaVuSans-61" transform="translate(4481.939453 0)"/>
    <use xlink:href="#DejaVuSans-73" transform="translate(4543.21875 0)"/>
    <use xlink:href="#DejaVuSans-65" transform="translate(4595.318359 0)"/>
    <use xlink:href="#DejaVuSans-20" transform="translate(4656.841797 0)"/>
    <use xlink:href="#DejaVuSans-69" transform="translate(4688.628906 0)"/>
    <use xlink:href="#DejaVuSans-6e" transform="translate(4716.412109 0)"/>
    <use xlink:href="#DejaVuSans-74" transform="translate(4779.791016 0)"/>
    <use xlink:href="#DejaVuSans-65" transform="translate(4819 0)"/>
    <use xlink:href="#DejaVuSans-6e" transform="translate(4880.523438 0)"/>
    <use xlink:href="#DejaVuSans-73" transform="translate(4943.902344 0)"/>
    <use xlink:href="#DejaVuSans-69" transform="translate(4996.001953 0)"/>
    <use xlink:href="#DejaVuSans-74" transform="translate(5023.785156 0)"/>
    <use xlink:href="#DejaVuSans-79" transform="translate(5062.994141 0)"/>
    <use xlink:href="#DejaVuSans-20" transform="translate(5122.173828 0)"/>
    <use xlink:href="#DejaVuSans-64" transform="translate(5153.960938 0)"/>
    <use xlink:href="#DejaVuSans-6f" transform="translate(5217.4375 0)"/>
    <use xlink:href="#DejaVuSans-75" transform="translate(5278.619141 0)"/>
    <use xlink:href="#DejaVuSans-62" transform="translate(5341.998047 0)"/>
    <use xlink:href="#DejaVuSans-6c" transform="translate(5405.474609 0)"/>
    <use xlink:href="#DejaVuSans-65" transform="translate(5433.257812 0)"/>
    <use xlink:href="#DejaVuSans-73" transform="translate(5494.78125 0)"/>
   </g>
  </g>
 </g>
 <defs>
  <clipPath id="p7710834924">
   <rect x="52.90125" y="31.837812" width="795.36" height="389.32"/>
  </clipPath>
 </defs>
</svg>
