<?xml version="1.0" encoding="utf-8" standalone="no"?>
<!DOCTYPE svg PUBLIC "-//W3C//DTD SVG 1.1//EN"
  "http://www.w3.org/Graphics/SVG/1.1/DTD/svg11.dtd">
<svg xmlns:xlink="http://www.w3.org/1999/xlink" width="914.4pt" height="520.56pt" viewBox="0 0 914.4 520.56" xmlns="http://www.w3.org/2000/svg" version="1.1">
 <metadata>
  <rdf:RDF xmlns:dc="http://purl.org/dc/elements/1.1/" xmlns:cc="http://creativecommons.org/ns#" xmlns:rdf="http://www.w3.org/1999/02/22-rdf-syntax-ns#">
   <cc:Work>
    <dc:type rdf:resource="http://purl.org/dc/dcmitype/StillImage"/>
    <dc:date>2026-06-24T18:52:15.723202</dc:date>
    <dc:format>image/svg+xml</dc:format>
    <dc:creator>
     <cc:Agent>
      <dc:title>Matplotlib v3.10.8, https://matplotlib.org/</dc:title>
     </cc:Agent>
    </dc:creator>
   </cc:Work>
  </rdf:RDF>
 </metadata>
 <defs>
  <style type="text/css">*{stroke-linejoin: round; stroke-linecap: butt}</style>
 </defs>
 <g id="figure_1">
  <g id="patch_1">
   <path d="M 0 520.56 
L 914.4 520.56 
L 914.4 0 
L 0 0 
z
" style="fill: #ffffff"/>
  </g>
  <g id="axes_1">
   <g id="patch_2">
    <path d="M 240.967357 184.281753 
Q 290.165129 157.475671 343.205736 152.971496 
" clip-path="url(#peb069af20b)" style="fill: none; stroke: #334155; stroke-width: 2.5; stroke-linecap: round"/>
    <path d="M 335.726944 149.993633 
L 343.205736 152.971496 
L 336.336171 157.167812 
z
" clip-path="url(#peb069af20b)" style="fill: #334155; stroke: #334155; stroke-width: 2.5; stroke-linecap: round"/>
   </g>
   <g id="patch_3">
    <path d="M 532.087686 153.224017 
Q 603.909456 163.114929 670.151729 184.810089 
" clip-path="url(#peb069af20b)" style="fill: none; stroke: #334155; stroke-width: 2.5; stroke-linecap: round"/>
    <path d="M 664.429835 179.14794 
L 670.151729 184.810089 
L 662.188873 185.990314 
z
" clip-path="url(#peb069af20b)" style="fill: #334155; stroke: #334155; stroke-width: 2.5; stroke-linecap: round"/>
   </g>
   <g id="patch_4">
    <path d="M 762.52149 232.084428 
Q 753.367683 270.073069 720.88654 286.235213 
" clip-path="url(#peb069af20b)" style="fill: none; stroke: #334155; stroke-width: 2.5; stroke-linecap: round"/>
    <path d="M 728.93637 286.250777 
L 720.88654 286.235213 
L 725.728889 279.804688 
z
" clip-path="url(#peb069af20b)" style="fill: #334155; stroke: #334155; stroke-width: 2.5; stroke-linecap: round"/>
   </g>
   <g id="patch_5">
    <path d="M 602.654464 326.808 
Q 459.991338 326.808 320.123297 326.808 
" clip-path="url(#peb069af20b)" style="fill: none; stroke: #334155; stroke-width: 2.5; stroke-linecap: round"/>
    <path d="M 327.323297 330.408 
L 320.123297 326.808 
L 327.323297 323.208 
z
" clip-path="url(#peb069af20b)" style="fill: #334155; stroke: #334155; stroke-width: 2.5; stroke-linecap: round"/>
   </g>
   <g id="patch_6">
    <path d="M 207.085313 287.696653 
Q 169.604768 270.586875 156.705398 235.00603 
" clip-path="url(#peb069af20b)" style="fill: none; stroke: #0f766e; stroke-width: 3; stroke-linecap: round"/>
    <path d="M 155.671538 243.89035 
L 156.705398 235.00603 
L 163.192538 241.16371 
z
" clip-path="url(#peb069af20b)" style="fill: #0f766e; stroke: #0f766e; stroke-width: 3; stroke-linecap: round"/>
   </g>
   <g id="patch_7">
    <path d="M 71.064 225.3528 
L 226.746 225.3528 
Q 235.116 225.3528 235.116 217.0368 
L 235.116 162.1512 
Q 235.116 153.8352 226.746 153.8352 
L 71.064 153.8352 
Q 62.694 153.8352 62.694 162.1512 
L 62.694 217.0368 
Q 62.694 225.3528 71.064 225.3528 
z
" clip-path="url(#peb069af20b)" style="fill: #fef3c7; stroke: #334155; stroke-width: 1.5; stroke-linejoin: miter"/>
   </g>
   <g id="patch_8">
    <path d="M 361.224 186.5448 
L 516.906 186.5448 
Q 525.276 186.5448 525.276 178.2288 
L 525.276 123.3432 
Q 525.276 115.0272 516.906 115.0272 
L 361.224 115.0272 
Q 352.854 115.0272 352.854 123.3432 
L 352.854 178.2288 
Q 352.854 186.5448 361.224 186.5448 
z
" clip-path="url(#peb069af20b)" style="fill: #e0f2fe; stroke: #334155; stroke-width: 1.5; stroke-linejoin: miter"/>
   </g>
   <g id="patch_9">
    <path d="M 687.654 225.3528 
L 843.336 225.3528 
Q 851.706 225.3528 851.706 217.0368 
L 851.706 162.1512 
Q 851.706 153.8352 843.336 153.8352 
L 687.654 153.8352 
Q 679.284 153.8352 679.284 162.1512 
L 679.284 217.0368 
Q 679.284 225.3528 687.654 225.3528 
z
" clip-path="url(#peb069af20b)" style="fill: #fee2e2; stroke: #334155; stroke-width: 1.5; stroke-linejoin: miter"/>
   </g>
   <g id="patch_10">
    <path d="M 617.904 361.1808 
L 784.746 361.1808 
Q 793.116 361.1808 793.116 352.8648 
L 793.116 297.9792 
Q 793.116 289.6632 784.746 289.6632 
L 617.904 289.6632 
Q 609.534 289.6632 609.534 297.9792 
L 609.534 352.8648 
Q 609.534 361.1808 617.904 361.1808 
z
" clip-path="url(#peb069af20b)" style="fill: #ede9fe; stroke: #334155; stroke-width: 1.5; stroke-linejoin: miter"/>
   </g>
   <g id="patch_11">
    <path d="M 129.654 361.1808 
L 302.076 361.1808 
Q 310.446 361.1808 310.446 352.8648 
L 310.446 297.9792 
Q 310.446 289.6632 302.076 289.6632 
L 129.654 289.6632 
Q 121.284 289.6632 121.284 297.9792 
L 121.284 352.8648 
Q 121.284 361.1808 129.654 361.1808 
z
" clip-path="url(#peb069af20b)" style="fill: #dcfce7; stroke: #334155; stroke-width: 1.5; stroke-linejoin: miter"/>
   </g>
   <g id="patch_12">
    <path d="M 103.428 468.7344 
L 810.972 468.7344 
Q 819.342 468.7344 819.342 460.4184 
L 819.342 432.6984 
Q 819.342 424.3824 810.972 424.3824 
L 103.428 424.3824 
Q 95.058 424.3824 95.058 432.6984 
L 95.058 460.4184 
Q 95.058 468.7344 103.428 468.7344 
z
" clip-path="url(#peb069af20b)" style="fill: #f8fafc; stroke: #94a3b8; stroke-width: 1.4; stroke-linejoin: miter"/>
   </g>
   <g id="text_1">
    <!-- Tolerance and withdrawal can create a feedback loop -->
    <g style="fill: #0f172a" transform="translate(36.24625 54.56225) scale(0.28 -0.28)">
     <defs>
      <path id="DejaVuSans-Bold-54" d="M 31 4666 
L 4331 4666 
L 4331 3756 
L 2784 3756 
L 2784 0 
L 1581 0 
L 1581 3756 
L 31 3756 
L 31 4666 
z
" transform="scale(0.015625)"/>
      <path id="DejaVuSans-Bold-6f" d="M 2203 2784 
Q 1831 2784 1636 2517 
Q 1441 2250 1441 1747 
Q 1441 1244 1636 976 
Q 1831 709 2203 709 
Q 2569 709 2762 976 
Q 2956 1244 2956 1747 
Q 2956 2250 2762 2517 
Q 2569 2784 2203 2784 
z
M 2203 3584 
Q 3106 3584 3614 3096 
Q 4122 2609 4122 1747 
Q 4122 884 3614 396 
Q 3106 -91 2203 -91 
Q 1297 -91 786 396 
Q 275 884 275 1747 
Q 275 2609 786 3096 
Q 1297 3584 2203 3584 
z
" transform="scale(0.015625)"/>
      <path id="DejaVuSans-Bold-6c" d="M 538 4863 
L 1656 4863 
L 1656 0 
L 538 0 
L 538 4863 
z
" transform="scale(0.015625)"/>
      <path id="DejaVuSans-Bold-65" d="M 4031 1759 
L 4031 1441 
L 1416 1441 
Q 1456 1047 1700 850 
Q 1944 653 2381 653 
Q 2734 653 3104 758 
Q 3475 863 3866 1075 
L 3866 213 
Q 3469 63 3072 -14 
Q 2675 -91 2278 -91 
Q 1328 -91 801 392 
Q 275 875 275 1747 
Q 275 2603 792 3093 
Q 1309 3584 2216 3584 
Q 3041 3584 3536 3087 
Q 4031 2591 4031 1759 
z
M 2881 2131 
Q 2881 2450 2695 2645 
Q 2509 2841 2209 2841 
Q 1884 2841 1681 2658 
Q 1478 2475 1428 2131 
L 2881 2131 
z
" transform="scale(0.015625)"/>
      <path id="DejaVuSans-Bold-72" d="M 3138 2547 
Q 2991 2616 2845 2648 
Q 2700 2681 2553 2681 
Q 2122 2681 1889 2404 
Q 1656 2128 1656 1613 
L 1656 0 
L 538 0 
L 538 3500 
L 1656 3500 
L 1656 2925 
Q 1872 3269 2151 3426 
Q 2431 3584 2822 3584 
Q 2878 3584 2943 3579 
Q 3009 3575 3134 3559 
L 3138 2547 
z
" transform="scale(0.015625)"/>
      <path id="DejaVuSans-Bold-61" d="M 2106 1575 
Q 1756 1575 1579 1456 
Q 1403 1338 1403 1106 
Q 1403 894 1545 773 
Q 1688 653 1941 653 
Q 2256 653 2472 879 
Q 2688 1106 2688 1447 
L 2688 1575 
L 2106 1575 
z
M 3816 1997 
L 3816 0 
L 2688 0 
L 2688 519 
Q 2463 200 2181 54 
Q 1900 -91 1497 -91 
Q 953 -91 614 226 
Q 275 544 275 1050 
Q 275 1666 698 1953 
Q 1122 2241 2028 2241 
L 2688 2241 
L 2688 2328 
Q 2688 2594 2478 2717 
Q 2269 2841 1825 2841 
Q 1466 2841 1156 2769 
Q 847 2697 581 2553 
L 581 3406 
Q 941 3494 1303 3539 
Q 1666 3584 2028 3584 
Q 2975 3584 3395 3211 
Q 3816 2838 3816 1997 
z
" transform="scale(0.015625)"/>
      <path id="DejaVuSans-Bold-6e" d="M 4056 2131 
L 4056 0 
L 2931 0 
L 2931 347 
L 2931 1631 
Q 2931 2084 2911 2256 
Q 2891 2428 2841 2509 
Q 2775 2619 2662 2680 
Q 2550 2741 2406 2741 
Q 2056 2741 1856 2470 
Q 1656 2200 1656 1722 
L 1656 0 
L 538 0 
L 538 3500 
L 1656 3500 
L 1656 2988 
Q 1909 3294 2193 3439 
Q 2478 3584 2822 3584 
Q 3428 3584 3742 3212 
Q 4056 2841 4056 2131 
z
" transform="scale(0.015625)"/>
      <path id="DejaVuSans-Bold-63" d="M 3366 3391 
L 3366 2478 
Q 3138 2634 2908 2709 
Q 2678 2784 2431 2784 
Q 1963 2784 1702 2511 
Q 1441 2238 1441 1747 
Q 1441 1256 1702 982 
Q 1963 709 2431 709 
Q 2694 709 2930 787 
Q 3166 866 3366 1019 
L 3366 103 
Q 3103 6 2833 -42 
Q 2563 -91 2291 -91 
Q 1344 -91 809 395 
Q 275 881 275 1747 
Q 275 2613 809 3098 
Q 1344 3584 2291 3584 
Q 2566 3584 2833 3536 
Q 3100 3488 3366 3391 
z
" transform="scale(0.015625)"/>
      <path id="DejaVuSans-Bold-20" transform="scale(0.015625)"/>
      <path id="DejaVuSans-Bold-64" d="M 2919 2988 
L 2919 4863 
L 4044 4863 
L 4044 0 
L 2919 0 
L 2919 506 
Q 2688 197 2409 53 
Q 2131 -91 1766 -91 
Q 1119 -91 703 423 
Q 288 938 288 1747 
Q 288 2556 703 3070 
Q 1119 3584 1766 3584 
Q 2128 3584 2408 3439 
Q 2688 3294 2919 2988 
z
M 2181 722 
Q 2541 722 2730 984 
Q 2919 1247 2919 1747 
Q 2919 2247 2730 2509 
Q 2541 2772 2181 2772 
Q 1825 2772 1636 2509 
Q 1447 2247 1447 1747 
Q 1447 1247 1636 984 
Q 1825 722 2181 722 
z
" transform="scale(0.015625)"/>
      <path id="DejaVuSans-Bold-77" d="M 225 3500 
L 1313 3500 
L 1900 1088 
L 2491 3500 
L 3425 3500 
L 4013 1113 
L 4603 3500 
L 5691 3500 
L 4769 0 
L 3547 0 
L 2956 2406 
L 2369 0 
L 1147 0 
L 225 3500 
z
" transform="scale(0.015625)"/>
      <path id="DejaVuSans-Bold-69" d="M 538 3500 
L 1656 3500 
L 1656 0 
L 538 0 
L 538 3500 
z
M 538 4863 
L 1656 4863 
L 1656 3950 
L 538 3950 
L 538 4863 
z
" transform="scale(0.015625)"/>
      <path id="DejaVuSans-Bold-74" d="M 1759 4494 
L 1759 3500 
L 2913 3500 
L 2913 2700 
L 1759 2700 
L 1759 1216 
Q 1759 972 1856 886 
Q 1953 800 2241 800 
L 2816 800 
L 2816 0 
L 1856 0 
Q 1194 0 917 276 
Q 641 553 641 1216 
L 641 2700 
L 84 2700 
L 84 3500 
L 641 3500 
L 641 4494 
L 1759 4494 
z
" transform="scale(0.015625)"/>
      <path id="DejaVuSans-Bold-68" d="M 4056 2131 
L 4056 0 
L 2931 0 
L 2931 347 
L 2931 1625 
Q 2931 2084 2911 2256 
Q 2891 2428 2841 2509 
Q 2775 2619 2662 2680 
Q 2550 2741 2406 2741 
Q 2056 2741 1856 2470 
Q 1656 2200 1656 1722 
L 1656 0 
L 538 0 
L 538 4863 
L 1656 4863 
L 1656 2988 
Q 1909 3294 2193 3439 
Q 2478 3584 2822 3584 
Q 3428 3584 3742 3212 
Q 4056 2841 4056 2131 
z
" transform="scale(0.015625)"/>
      <path id="DejaVuSans-Bold-66" d="M 2841 4863 
L 2841 4128 
L 2222 4128 
Q 1984 4128 1890 4042 
Q 1797 3956 1797 3744 
L 1797 3500 
L 2753 3500 
L 2753 2700 
L 1797 2700 
L 1797 0 
L 678 0 
L 678 2700 
L 122 2700 
L 122 3500 
L 678 3500 
L 678 3744 
Q 678 4316 997 4589 
Q 1316 4863 1984 4863 
L 2841 4863 
z
" transform="scale(0.015625)"/>
      <path id="DejaVuSans-Bold-62" d="M 2400 722 
Q 2759 722 2948 984 
Q 3138 1247 3138 1747 
Q 3138 2247 2948 2509 
Q 2759 2772 2400 2772 
Q 2041 2772 1848 2508 
Q 1656 2244 1656 1747 
Q 1656 1250 1848 986 
Q 2041 722 2400 722 
z
M 1656 2988 
Q 1888 3294 2169 3439 
Q 2450 3584 2816 3584 
Q 3463 3584 3878 3070 
Q 4294 2556 4294 1747 
Q 4294 938 3878 423 
Q 3463 -91 2816 -91 
Q 2450 -91 2169 54 
Q 1888 200 1656 506 
L 1656 0 
L 538 0 
L 538 4863 
L 1656 4863 
L 1656 2988 
z
" transform="scale(0.015625)"/>
      <path id="DejaVuSans-Bold-6b" d="M 538 4863 
L 1656 4863 
L 1656 2216 
L 2944 3500 
L 4244 3500 
L 2534 1894 
L 4378 0 
L 3022 0 
L 1656 1459 
L 1656 0 
L 538 0 
L 538 4863 
z
" transform="scale(0.015625)"/>
      <path id="DejaVuSans-Bold-70" d="M 1656 506 
L 1656 -1331 
L 538 -1331 
L 538 3500 
L 1656 3500 
L 1656 2988 
Q 1888 3294 2169 3439 
Q 2450 3584 2816 3584 
Q 3463 3584 3878 3070 
Q 4294 2556 4294 1747 
Q 4294 938 3878 423 
Q 3463 -91 2816 -91 
Q 2450 -91 2169 54 
Q 1888 200 1656 506 
z
M 2400 2772 
Q 2041 2772 1848 2508 
Q 1656 2244 1656 1747 
Q 1656 1250 1848 986 
Q 2041 722 2400 722 
Q 2759 722 2948 984 
Q 3138 1247 3138 1747 
Q 3138 2247 2948 2509 
Q 2759 2772 2400 2772 
z
" transform="scale(0.015625)"/>
     </defs>
     <use xlink:href="#DejaVuSans-Bold-54"/>
     <use xlink:href="#DejaVuSans-Bold-6f" transform="translate(54.962891 0)"/>
     <use xlink:href="#DejaVuSans-Bold-6c" transform="translate(123.664062 0)"/>
     <use xlink:href="#DejaVuSans-Bold-65" transform="translate(157.941406 0)"/>
     <use xlink:href="#DejaVuSans-Bold-72" transform="translate(225.763672 0)"/>
     <use xlink:href="#DejaVuSans-Bold-61" transform="translate(275.080078 0)"/>
     <use xlink:href="#DejaVuSans-Bold-6e" transform="translate(342.560547 0)"/>
     <use xlink:href="#DejaVuSans-Bold-63" transform="translate(413.751953 0)"/>
     <use xlink:href="#DejaVuSans-Bold-65" transform="translate(473.029297 0)"/>
     <use xlink:href="#DejaVuSans-Bold-20" transform="translate(540.851562 0)"/>
     <use xlink:href="#DejaVuSans-Bold-61" transform="translate(575.666016 0)"/>
     <use xlink:href="#DejaVuSans-Bold-6e" transform="translate(643.146484 0)"/>
     <use xlink:href="#DejaVuSans-Bold-64" transform="translate(714.337891 0)"/>
     <use xlink:href="#DejaVuSans-Bold-20" transform="translate(785.919922 0)"/>
     <use xlink:href="#DejaVuSans-Bold-77" transform="translate(820.734375 0)"/>
     <use xlink:href="#DejaVuSans-Bold-69" transform="translate(913.117188 0)"/>
     <use xlink:href="#DejaVuSans-Bold-74" transform="translate(947.394531 0)"/>
     <use xlink:href="#DejaVuSans-Bold-68" transform="translate(995.197266 0)"/>
     <use xlink:href="#DejaVuSans-Bold-64" transform="translate(1066.388672 0)"/>
     <use xlink:href="#DejaVuSans-Bold-72" transform="translate(1137.970703 0)"/>
     <use xlink:href="#DejaVuSans-Bold-61" transform="translate(1187.287109 0)"/>
     <use xlink:href="#DejaVuSans-Bold-77" transform="translate(1254.767578 0)"/>
     <use xlink:href="#DejaVuSans-Bold-61" transform="translate(1347.150391 0)"/>
     <use xlink:href="#DejaVuSans-Bold-6c" transform="translate(1414.630859 0)"/>
     <use xlink:href="#DejaVuSans-Bold-20" transform="translate(1448.908203 0)"/>
     <use xlink:href="#DejaVuSans-Bold-63" transform="translate(1483.722656 0)"/>
     <use xlink:href="#DejaVuSans-Bold-61" transform="translate(1543 0)"/>
     <use xlink:href="#DejaVuSans-Bold-6e" transform="translate(1610.480469 0)"/>
     <use xlink:href="#DejaVuSans-Bold-20" transform="translate(1681.671875 0)"/>
     <use xlink:href="#DejaVuSans-Bold-63" transform="translate(1716.486328 0)"/>
     <use xlink:href="#DejaVuSans-Bold-72" transform="translate(1775.763672 0)"/>
     <use xlink:href="#DejaVuSans-Bold-65" transform="translate(1825.080078 0)"/>
     <use xlink:href="#DejaVuSans-Bold-61" transform="translate(1892.902344 0)"/>
     <use xlink:href="#DejaVuSans-Bold-74" transform="translate(1960.382812 0)"/>
     <use xlink:href="#DejaVuSans-Bold-65" transform="translate(2008.185547 0)"/>
     <use xlink:href="#DejaVuSans-Bold-20" transform="translate(2076.007812 0)"/>
     <use xlink:href="#DejaVuSans-Bold-61" transform="translate(2110.822266 0)"/>
     <use xlink:href="#DejaVuSans-Bold-20" transform="translate(2178.302734 0)"/>
     <use xlink:href="#DejaVuSans-Bold-66" transform="translate(2213.117188 0)"/>
     <use xlink:href="#DejaVuSans-Bold-65" transform="translate(2256.623047 0)"/>
     <use xlink:href="#DejaVuSans-Bold-65" transform="translate(2324.445312 0)"/>
     <use xlink:href="#DejaVuSans-Bold-64" transform="translate(2392.267578 0)"/>
     <use xlink:href="#DejaVuSans-Bold-62" transform="translate(2463.849609 0)"/>
     <use xlink:href="#DejaVuSans-Bold-61" transform="translate(2535.431641 0)"/>
     <use xlink:href="#DejaVuSans-Bold-63" transform="translate(2602.912109 0)"/>
     <use xlink:href="#DejaVuSans-Bold-6b" transform="translate(2662.189453 0)"/>
     <use xlink:href="#DejaVuSans-Bold-20" transform="translate(2728.693359 0)"/>
     <use xlink:href="#DejaVuSans-Bold-6c" transform="translate(2763.507812 0)"/>
     <use xlink:href="#DejaVuSans-Bold-6f" transform="translate(2797.785156 0)"/>
     <use xlink:href="#DejaVuSans-Bold-6f" transform="translate(2866.486328 0)"/>
     <use xlink:href="#DejaVuSans-Bold-70" transform="translate(2935.1875 0)"/>
    </g>
   </g>
   <g id="text_2">
    <!-- The same behavior can shift from seeking an effect to avoiding withdrawal -->
    <g style="fill: #64748b" transform="translate(157.05125 81.743) scale(0.16 -0.16)">
     <defs>
      <path id="DejaVuSans-54" d="M -19 4666 
L 3928 4666 
L 3928 4134 
L 2272 4134 
L 2272 0 
L 1638 0 
L 1638 4134 
L -19 4134 
L -19 4666 
z
" transform="scale(0.015625)"/>
      <path id="DejaVuSans-68" d="M 3513 2113 
L 3513 0 
L 2938 0 
L 2938 2094 
Q 2938 2591 2744 2837 
Q 2550 3084 2163 3084 
Q 1697 3084 1428 2787 
Q 1159 2491 1159 1978 
L 1159 0 
L 581 0 
L 581 4863 
L 1159 4863 
L 1159 2956 
Q 1366 3272 1645 3428 
Q 1925 3584 2291 3584 
Q 2894 3584 3203 3211 
Q 3513 2838 3513 2113 
z
" transform="scale(0.015625)"/>
      <path id="DejaVuSans-65" d="M 3597 1894 
L 3597 1613 
L 953 1613 
Q 991 1019 1311 708 
Q 1631 397 2203 397 
Q 2534 397 2845 478 
Q 3156 559 3463 722 
L 3463 178 
Q 3153 47 2828 -22 
Q 2503 -91 2169 -91 
Q 1331 -91 842 396 
Q 353 884 353 1716 
Q 353 2575 817 3079 
Q 1281 3584 2069 3584 
Q 2775 3584 3186 3129 
Q 3597 2675 3597 1894 
z
M 3022 2063 
Q 3016 2534 2758 2815 
Q 2500 3097 2075 3097 
Q 1594 3097 1305 2825 
Q 1016 2553 972 2059 
L 3022 2063 
z
" transform="scale(0.015625)"/>
      <path id="DejaVuSans-20" transform="scale(0.015625)"/>
      <path id="DejaVuSans-73" d="M 2834 3397 
L 2834 2853 
Q 2591 2978 2328 3040 
Q 2066 3103 1784 3103 
Q 1356 3103 1142 2972 
Q 928 2841 928 2578 
Q 928 2378 1081 2264 
Q 1234 2150 1697 2047 
L 1894 2003 
Q 2506 1872 2764 1633 
Q 3022 1394 3022 966 
Q 3022 478 2636 193 
Q 2250 -91 1575 -91 
Q 1294 -91 989 -36 
Q 684 19 347 128 
L 347 722 
Q 666 556 975 473 
Q 1284 391 1588 391 
Q 1994 391 2212 530 
Q 2431 669 2431 922 
Q 2431 1156 2273 1281 
Q 2116 1406 1581 1522 
L 1381 1569 
Q 847 1681 609 1914 
Q 372 2147 372 2553 
Q 372 3047 722 3315 
Q 1072 3584 1716 3584 
Q 2034 3584 2315 3537 
Q 2597 3491 2834 3397 
z
" transform="scale(0.015625)"/>
      <path id="DejaVuSans-61" d="M 2194 1759 
Q 1497 1759 1228 1600 
Q 959 1441 959 1056 
Q 959 750 1161 570 
Q 1363 391 1709 391 
Q 2188 391 2477 730 
Q 2766 1069 2766 1631 
L 2766 1759 
L 2194 1759 
z
M 3341 1997 
L 3341 0 
L 2766 0 
L 2766 531 
Q 2569 213 2275 61 
Q 1981 -91 1556 -91 
Q 1019 -91 701 211 
Q 384 513 384 1019 
Q 384 1609 779 1909 
Q 1175 2209 1959 2209 
L 2766 2209 
L 2766 2266 
Q 2766 2663 2505 2880 
Q 2244 3097 1772 3097 
Q 1472 3097 1187 3025 
Q 903 2953 641 2809 
L 641 3341 
Q 956 3463 1253 3523 
Q 1550 3584 1831 3584 
Q 2591 3584 2966 3190 
Q 3341 2797 3341 1997 
z
" transform="scale(0.015625)"/>
      <path id="DejaVuSans-6d" d="M 3328 2828 
Q 3544 3216 3844 3400 
Q 4144 3584 4550 3584 
Q 5097 3584 5394 3201 
Q 5691 2819 5691 2113 
L 5691 0 
L 5113 0 
L 5113 2094 
Q 5113 2597 4934 2840 
Q 4756 3084 4391 3084 
Q 3944 3084 3684 2787 
Q 3425 2491 3425 1978 
L 3425 0 
L 2847 0 
L 2847 2094 
Q 2847 2600 2669 2842 
Q 2491 3084 2119 3084 
Q 1678 3084 1418 2786 
Q 1159 2488 1159 1978 
L 1159 0 
L 581 0 
L 581 3500 
L 1159 3500 
L 1159 2956 
Q 1356 3278 1631 3431 
Q 1906 3584 2284 3584 
Q 2666 3584 2933 3390 
Q 3200 3197 3328 2828 
z
" transform="scale(0.015625)"/>
      <path id="DejaVuSans-62" d="M 3116 1747 
Q 3116 2381 2855 2742 
Q 2594 3103 2138 3103 
Q 1681 3103 1420 2742 
Q 1159 2381 1159 1747 
Q 1159 1113 1420 752 
Q 1681 391 2138 391 
Q 2594 391 2855 752 
Q 3116 1113 3116 1747 
z
M 1159 2969 
Q 1341 3281 1617 3432 
Q 1894 3584 2278 3584 
Q 2916 3584 3314 3078 
Q 3713 2572 3713 1747 
Q 3713 922 3314 415 
Q 2916 -91 2278 -91 
Q 1894 -91 1617 61 
Q 1341 213 1159 525 
L 1159 0 
L 581 0 
L 581 4863 
L 1159 4863 
L 1159 2969 
z
" transform="scale(0.015625)"/>
      <path id="DejaVuSans-76" d="M 191 3500 
L 800 3500 
L 1894 563 
L 2988 3500 
L 3597 3500 
L 2284 0 
L 1503 0 
L 191 3500 
z
" transform="scale(0.015625)"/>
      <path id="DejaVuSans-69" d="M 603 3500 
L 1178 3500 
L 1178 0 
L 603 0 
L 603 3500 
z
M 603 4863 
L 1178 4863 
L 1178 4134 
L 603 4134 
L 603 4863 
z
" transform="scale(0.015625)"/>
      <path id="DejaVuSans-6f" d="M 1959 3097 
Q 1497 3097 1228 2736 
Q 959 2375 959 1747 
Q 959 1119 1226 758 
Q 1494 397 1959 397 
Q 2419 397 2687 759 
Q 2956 1122 2956 1747 
Q 2956 2369 2687 2733 
Q 2419 3097 1959 3097 
z
M 1959 3584 
Q 2709 3584 3137 3096 
Q 3566 2609 3566 1747 
Q 3566 888 3137 398 
Q 2709 -91 1959 -91 
Q 1206 -91 779 398 
Q 353 888 353 1747 
Q 353 2609 779 3096 
Q 1206 3584 1959 3584 
z
" transform="scale(0.015625)"/>
      <path id="DejaVuSans-72" d="M 2631 2963 
Q 2534 3019 2420 3045 
Q 2306 3072 2169 3072 
Q 1681 3072 1420 2755 
Q 1159 2438 1159 1844 
L 1159 0 
L 581 0 
L 581 3500 
L 1159 3500 
L 1159 2956 
Q 1341 3275 1631 3429 
Q 1922 3584 2338 3584 
Q 2397 3584 2469 3576 
Q 2541 3569 2628 3553 
L 2631 2963 
z
" transform="scale(0.015625)"/>
      <path id="DejaVuSans-63" d="M 3122 3366 
L 3122 2828 
Q 2878 2963 2633 3030 
Q 2388 3097 2138 3097 
Q 1578 3097 1268 2742 
Q 959 2388 959 1747 
Q 959 1106 1268 751 
Q 1578 397 2138 397 
Q 2388 397 2633 464 
Q 2878 531 3122 666 
L 3122 134 
Q 2881 22 2623 -34 
Q 2366 -91 2075 -91 
Q 1284 -91 818 406 
Q 353 903 353 1747 
Q 353 2603 823 3093 
Q 1294 3584 2113 3584 
Q 2378 3584 2631 3529 
Q 2884 3475 3122 3366 
z
" transform="scale(0.015625)"/>
      <path id="DejaVuSans-6e" d="M 3513 2113 
L 3513 0 
L 2938 0 
L 2938 2094 
Q 2938 2591 2744 2837 
Q 2550 3084 2163 3084 
Q 1697 3084 1428 2787 
Q 1159 2491 1159 1978 
L 1159 0 
L 581 0 
L 581 3500 
L 1159 3500 
L 1159 2956 
Q 1366 3272 1645 3428 
Q 1925 3584 2291 3584 
Q 2894 3584 3203 3211 
Q 3513 2838 3513 2113 
z
" transform="scale(0.015625)"/>
      <path id="DejaVuSans-66" d="M 2375 4863 
L 2375 4384 
L 1825 4384 
Q 1516 4384 1395 4259 
Q 1275 4134 1275 3809 
L 1275 3500 
L 2222 3500 
L 2222 3053 
L 1275 3053 
L 1275 0 
L 697 0 
L 697 3053 
L 147 3053 
L 147 3500 
L 697 3500 
L 697 3744 
Q 697 4328 969 4595 
Q 1241 4863 1831 4863 
L 2375 4863 
z
" transform="scale(0.015625)"/>
      <path id="DejaVuSans-74" d="M 1172 4494 
L 1172 3500 
L 2356 3500 
L 2356 3053 
L 1172 3053 
L 1172 1153 
Q 1172 725 1289 603 
Q 1406 481 1766 481 
L 2356 481 
L 2356 0 
L 1766 0 
Q 1100 0 847 248 
Q 594 497 594 1153 
L 594 3053 
L 172 3053 
L 172 3500 
L 594 3500 
L 594 4494 
L 1172 4494 
z
" transform="scale(0.015625)"/>
      <path id="DejaVuSans-6b" d="M 581 4863 
L 1159 4863 
L 1159 1991 
L 2875 3500 
L 3609 3500 
L 1753 1863 
L 3688 0 
L 2938 0 
L 1159 1709 
L 1159 0 
L 581 0 
L 581 4863 
z
" transform="scale(0.015625)"/>
      <path id="DejaVuSans-67" d="M 2906 1791 
Q 2906 2416 2648 2759 
Q 2391 3103 1925 3103 
Q 1463 3103 1205 2759 
Q 947 2416 947 1791 
Q 947 1169 1205 825 
Q 1463 481 1925 481 
Q 2391 481 2648 825 
Q 2906 1169 2906 1791 
z
M 3481 434 
Q 3481 -459 3084 -895 
Q 2688 -1331 1869 -1331 
Q 1566 -1331 1297 -1286 
Q 1028 -1241 775 -1147 
L 775 -588 
Q 1028 -725 1275 -790 
Q 1522 -856 1778 -856 
Q 2344 -856 2625 -561 
Q 2906 -266 2906 331 
L 2906 616 
Q 2728 306 2450 153 
Q 2172 0 1784 0 
Q 1141 0 747 490 
Q 353 981 353 1791 
Q 353 2603 747 3093 
Q 1141 3584 1784 3584 
Q 2172 3584 2450 3431 
Q 2728 3278 2906 2969 
L 2906 3500 
L 3481 3500 
L 3481 434 
z
" transform="scale(0.015625)"/>
      <path id="DejaVuSans-64" d="M 2906 2969 
L 2906 4863 
L 3481 4863 
L 3481 0 
L 2906 0 
L 2906 525 
Q 2725 213 2448 61 
Q 2172 -91 1784 -91 
Q 1150 -91 751 415 
Q 353 922 353 1747 
Q 353 2572 751 3078 
Q 1150 3584 1784 3584 
Q 2172 3584 2448 3432 
Q 2725 3281 2906 2969 
z
M 947 1747 
Q 947 1113 1208 752 
Q 1469 391 1925 391 
Q 2381 391 2643 752 
Q 2906 1113 2906 1747 
Q 2906 2381 2643 2742 
Q 2381 3103 1925 3103 
Q 1469 3103 1208 2742 
Q 947 2381 947 1747 
z
" transform="scale(0.015625)"/>
      <path id="DejaVuSans-77" d="M 269 3500 
L 844 3500 
L 1563 769 
L 2278 3500 
L 2956 3500 
L 3675 769 
L 4391 3500 
L 4966 3500 
L 4050 0 
L 3372 0 
L 2619 2869 
L 1863 0 
L 1184 0 
L 269 3500 
z
" transform="scale(0.015625)"/>
      <path id="DejaVuSans-6c" d="M 603 4863 
L 1178 4863 
L 1178 0 
L 603 0 
L 603 4863 
z
" transform="scale(0.015625)"/>
     </defs>
     <use xlink:href="#DejaVuSans-54"/>
     <use xlink:href="#DejaVuSans-68" transform="translate(61.083984 0)"/>
     <use xlink:href="#DejaVuSans-65" transform="translate(124.462891 0)"/>
     <use xlink:href="#DejaVuSans-20" transform="translate(185.986328 0)"/>
     <use xlink:href="#DejaVuSans-73" transform="translate(217.773438 0)"/>
     <use xlink:href="#DejaVuSans-61" transform="translate(269.873047 0)"/>
     <use xlink:href="#DejaVuSans-6d" transform="translate(331.152344 0)"/>
     <use xlink:href="#DejaVuSans-65" transform="translate(428.564453 0)"/>
     <use xlink:href="#DejaVuSans-20" transform="translate(490.087891 0)"/>
     <use xlink:href="#DejaVuSans-62" transform="translate(521.875 0)"/>
     <use xlink:href="#DejaVuSans-65" transform="translate(585.351562 0)"/>
     <use xlink:href="#DejaVuSans-68" transform="translate(646.875 0)"/>
     <use xlink:href="#DejaVuSans-61" transform="translate(710.253906 0)"/>
     <use xlink:href="#DejaVuSans-76" transform="translate(771.533203 0)"/>
     <use xlink:href="#DejaVuSans-69" transform="translate(830.712891 0)"/>
     <use xlink:href="#DejaVuSans-6f" transform="translate(858.496094 0)"/>
     <use xlink:href="#DejaVuSans-72" transform="translate(919.677734 0)"/>
     <use xlink:href="#DejaVuSans-20" transform="translate(960.791016 0)"/>
     <use xlink:href="#DejaVuSans-63" transform="translate(992.578125 0)"/>
     <use xlink:href="#DejaVuSans-61" transform="translate(1047.558594 0)"/>
     <use xlink:href="#DejaVuSans-6e" transform="translate(1108.837891 0)"/>
     <use xlink:href="#DejaVuSans-20" transform="translate(1172.216797 0)"/>
     <use xlink:href="#DejaVuSans-73" transform="translate(1204.003906 0)"/>
     <use xlink:href="#DejaVuSans-68" transform="translate(1256.103516 0)"/>
     <use xlink:href="#DejaVuSans-69" transform="translate(1319.482422 0)"/>
     <use xlink:href="#DejaVuSans-66" transform="translate(1347.265625 0)"/>
     <use xlink:href="#DejaVuSans-74" transform="translate(1380.720703 0)"/>
     <use xlink:href="#DejaVuSans-20" transform="translate(1419.929688 0)"/>
     <use xlink:href="#DejaVuSans-66" transform="translate(1451.716797 0)"/>
     <use xlink:href="#DejaVuSans-72" transform="translate(1486.921875 0)"/>
     <use xlink:href="#DejaVuSans-6f" transform="translate(1525.785156 0)"/>
     <use xlink:href="#DejaVuSans-6d" transform="translate(1586.966797 0)"/>
     <use xlink:href="#DejaVuSans-20" transform="translate(1684.378906 0)"/>
     <use xlink:href="#DejaVuSans-73" transform="translate(1716.166016 0)"/>
     <use xlink:href="#DejaVuSans-65" transform="translate(1768.265625 0)"/>
     <use xlink:href="#DejaVuSans-65" transform="translate(1829.789062 0)"/>
     <use xlink:href="#DejaVuSans-6b" transform="translate(1891.3125 0)"/>
     <use xlink:href="#DejaVuSans-69" transform="translate(1949.222656 0)"/>
     <use xlink:href="#DejaVuSans-6e" transform="translate(1977.005859 0)"/>
     <use xlink:href="#DejaVuSans-67" transform="translate(2040.384766 0)"/>
     <use xlink:href="#DejaVuSans-20" transform="translate(2103.861328 0)"/>
     <use xlink:href="#DejaVuSans-61" transform="translate(2135.648438 0)"/>
     <use xlink:href="#DejaVuSans-6e" transform="translate(2196.927734 0)"/>
     <use xlink:href="#DejaVuSans-20" transform="translate(2260.306641 0)"/>
     <use xlink:href="#DejaVuSans-65" transform="translate(2292.09375 0)"/>
     <use xlink:href="#DejaVuSans-66" transform="translate(2353.617188 0)"/>
     <use xlink:href="#DejaVuSans-66" transform="translate(2388.822266 0)"/>
     <use xlink:href="#DejaVuSans-65" transform="translate(2424.027344 0)"/>
     <use xlink:href="#DejaVuSans-63" transform="translate(2485.550781 0)"/>
     <use xlink:href="#DejaVuSans-74" transform="translate(2540.53125 0)"/>
     <use xlink:href="#DejaVuSans-20" transform="translate(2579.740234 0)"/>
     <use xlink:href="#DejaVuSans-74" transform="translate(2611.527344 0)"/>
     <use xlink:href="#DejaVuSans-6f" transform="translate(2650.736328 0)"/>
     <use xlink:href="#DejaVuSans-20" transform="translate(2711.917969 0)"/>
     <use xlink:href="#DejaVuSans-61" transform="translate(2743.705078 0)"/>
     <use xlink:href="#DejaVuSans-76" transform="translate(2804.984375 0)"/>
     <use xlink:href="#DejaVuSans-6f" transform="translate(2864.164062 0)"/>
     <use xlink:href="#DejaVuSans-69" transform="translate(2925.345703 0)"/>
     <use xlink:href="#DejaVuSans-64" transform="translate(2953.128906 0)"/>
     <use xlink:href="#DejaVuSans-69" transform="translate(3016.605469 0)"/>
     <use xlink:href="#DejaVuSans-6e" transform="translate(3044.388672 0)"/>
     <use xlink:href="#DejaVuSans-67" transform="translate(3107.767578 0)"/>
     <use xlink:href="#DejaVuSans-20" transform="translate(3171.244141 0)"/>
     <use xlink:href="#DejaVuSans-77" transform="translate(3203.03125 0)"/>
     <use xlink:href="#DejaVuSans-69" transform="translate(3284.818359 0)"/>
     <use xlink:href="#DejaVuSans-74" transform="translate(3312.601562 0)"/>
     <use xlink:href="#DejaVuSans-68" transform="translate(3351.810547 0)"/>
     <use xlink:href="#DejaVuSans-64" transform="translate(3415.189453 0)"/>
     <use xlink:href="#DejaVuSans-72" transform="translate(3478.666016 0)"/>
     <use xlink:href="#DejaVuSans-61" transform="translate(3519.779297 0)"/>
     <use xlink:href="#DejaVuSans-77" transform="translate(3581.058594 0)"/>
     <use xlink:href="#DejaVuSans-61" transform="translate(3662.845703 0)"/>
     <use xlink:href="#DejaVuSans-6c" transform="translate(3724.125 0)"/>
    </g>
   </g>
   <g id="text_3">
    <!-- Repeated use -->
    <g style="fill: #0f172a" transform="translate(89.054414 181.397031) scale(0.155 -0.155)">
     <defs>
      <path id="DejaVuSans-Bold-52" d="M 2297 2597 
Q 2675 2597 2839 2737 
Q 3003 2878 3003 3200 
Q 3003 3519 2839 3656 
Q 2675 3794 2297 3794 
L 1791 3794 
L 1791 2597 
L 2297 2597 
z
M 1791 1766 
L 1791 0 
L 588 0 
L 588 4666 
L 2425 4666 
Q 3347 4666 3776 4356 
Q 4206 4047 4206 3378 
Q 4206 2916 3982 2619 
Q 3759 2322 3309 2181 
Q 3556 2125 3751 1926 
Q 3947 1728 4147 1325 
L 4800 0 
L 3519 0 
L 2950 1159 
Q 2778 1509 2601 1637 
Q 2425 1766 2131 1766 
L 1791 1766 
z
" transform="scale(0.015625)"/>
      <path id="DejaVuSans-Bold-75" d="M 500 1363 
L 500 3500 
L 1625 3500 
L 1625 3150 
Q 1625 2866 1622 2436 
Q 1619 2006 1619 1863 
Q 1619 1441 1641 1255 
Q 1663 1069 1716 984 
Q 1784 875 1895 815 
Q 2006 756 2150 756 
Q 2500 756 2700 1025 
Q 2900 1294 2900 1772 
L 2900 3500 
L 4019 3500 
L 4019 0 
L 2900 0 
L 2900 506 
Q 2647 200 2364 54 
Q 2081 -91 1741 -91 
Q 1134 -91 817 281 
Q 500 653 500 1363 
z
" transform="scale(0.015625)"/>
      <path id="DejaVuSans-Bold-73" d="M 3272 3391 
L 3272 2541 
Q 2913 2691 2578 2766 
Q 2244 2841 1947 2841 
Q 1628 2841 1473 2761 
Q 1319 2681 1319 2516 
Q 1319 2381 1436 2309 
Q 1553 2238 1856 2203 
L 2053 2175 
Q 2913 2066 3209 1816 
Q 3506 1566 3506 1031 
Q 3506 472 3093 190 
Q 2681 -91 1863 -91 
Q 1516 -91 1145 -36 
Q 775 19 384 128 
L 384 978 
Q 719 816 1070 734 
Q 1422 653 1784 653 
Q 2113 653 2278 743 
Q 2444 834 2444 1013 
Q 2444 1163 2330 1236 
Q 2216 1309 1875 1350 
L 1678 1375 
Q 931 1469 631 1722 
Q 331 1975 331 2491 
Q 331 3047 712 3315 
Q 1094 3584 1881 3584 
Q 2191 3584 2531 3537 
Q 2872 3491 3272 3391 
z
" transform="scale(0.015625)"/>
     </defs>
     <use xlink:href="#DejaVuSans-Bold-52"/>
     <use xlink:href="#DejaVuSans-Bold-65" transform="translate(77.001953 0)"/>
     <use xlink:href="#DejaVuSans-Bold-70" transform="translate(144.824219 0)"/>
     <use xlink:href="#DejaVuSans-Bold-65" transform="translate(216.40625 0)"/>
     <use xlink:href="#DejaVuSans-Bold-61" transform="translate(284.228516 0)"/>
     <use xlink:href="#DejaVuSans-Bold-74" transform="translate(351.708984 0)"/>
     <use xlink:href="#DejaVuSans-Bold-65" transform="translate(399.511719 0)"/>
     <use xlink:href="#DejaVuSans-Bold-64" transform="translate(467.333984 0)"/>
     <use xlink:href="#DejaVuSans-Bold-20" transform="translate(538.916016 0)"/>
     <use xlink:href="#DejaVuSans-Bold-75" transform="translate(573.730469 0)"/>
     <use xlink:href="#DejaVuSans-Bold-73" transform="translate(644.921875 0)"/>
     <use xlink:href="#DejaVuSans-Bold-65" transform="translate(704.443359 0)"/>
    </g>
   </g>
   <g id="text_4">
    <!-- changes neural signaling -->
    <g style="fill: #334155" transform="translate(80.013203 198.335098) scale(0.11 -0.11)">
     <defs>
      <path id="DejaVuSans-75" d="M 544 1381 
L 544 3500 
L 1119 3500 
L 1119 1403 
Q 1119 906 1312 657 
Q 1506 409 1894 409 
Q 2359 409 2629 706 
Q 2900 1003 2900 1516 
L 2900 3500 
L 3475 3500 
L 3475 0 
L 2900 0 
L 2900 538 
Q 2691 219 2414 64 
Q 2138 -91 1772 -91 
Q 1169 -91 856 284 
Q 544 659 544 1381 
z
M 1991 3584 
L 1991 3584 
z
" transform="scale(0.015625)"/>
     </defs>
     <use xlink:href="#DejaVuSans-63"/>
     <use xlink:href="#DejaVuSans-68" transform="translate(54.980469 0)"/>
     <use xlink:href="#DejaVuSans-61" transform="translate(118.359375 0)"/>
     <use xlink:href="#DejaVuSans-6e" transform="translate(179.638672 0)"/>
     <use xlink:href="#DejaVuSans-67" transform="translate(243.017578 0)"/>
     <use xlink:href="#DejaVuSans-65" transform="translate(306.494141 0)"/>
     <use xlink:href="#DejaVuSans-73" transform="translate(368.017578 0)"/>
     <use xlink:href="#DejaVuSans-20" transform="translate(420.117188 0)"/>
     <use xlink:href="#DejaVuSans-6e" transform="translate(451.904297 0)"/>
     <use xlink:href="#DejaVuSans-65" transform="translate(515.283203 0)"/>
     <use xlink:href="#DejaVuSans-75" transform="translate(576.806641 0)"/>
     <use xlink:href="#DejaVuSans-72" transform="translate(640.185547 0)"/>
     <use xlink:href="#DejaVuSans-61" transform="translate(681.298828 0)"/>
     <use xlink:href="#DejaVuSans-6c" transform="translate(742.578125 0)"/>
     <use xlink:href="#DejaVuSans-20" transform="translate(770.361328 0)"/>
     <use xlink:href="#DejaVuSans-73" transform="translate(802.148438 0)"/>
     <use xlink:href="#DejaVuSans-69" transform="translate(854.248047 0)"/>
     <use xlink:href="#DejaVuSans-67" transform="translate(882.03125 0)"/>
     <use xlink:href="#DejaVuSans-6e" transform="translate(945.507812 0)"/>
     <use xlink:href="#DejaVuSans-61" transform="translate(1008.886719 0)"/>
     <use xlink:href="#DejaVuSans-6c" transform="translate(1070.166016 0)"/>
     <use xlink:href="#DejaVuSans-69" transform="translate(1097.949219 0)"/>
     <use xlink:href="#DejaVuSans-6e" transform="translate(1125.732422 0)"/>
     <use xlink:href="#DejaVuSans-67" transform="translate(1189.111328 0)"/>
    </g>
    <!-- repeatedly -->
    <g style="fill: #334155" transform="translate(119.321875 210.485527) scale(0.11 -0.11)">
     <defs>
      <path id="DejaVuSans-70" d="M 1159 525 
L 1159 -1331 
L 581 -1331 
L 581 3500 
L 1159 3500 
L 1159 2969 
Q 1341 3281 1617 3432 
Q 1894 3584 2278 3584 
Q 2916 3584 3314 3078 
Q 3713 2572 3713 1747 
Q 3713 922 3314 415 
Q 2916 -91 2278 -91 
Q 1894 -91 1617 61 
Q 1341 213 1159 525 
z
M 3116 1747 
Q 3116 2381 2855 2742 
Q 2594 3103 2138 3103 
Q 1681 3103 1420 2742 
Q 1159 2381 1159 1747 
Q 1159 1113 1420 752 
Q 1681 391 2138 391 
Q 2594 391 2855 752 
Q 3116 1113 3116 1747 
z
" transform="scale(0.015625)"/>
      <path id="DejaVuSans-79" d="M 2059 -325 
Q 1816 -950 1584 -1140 
Q 1353 -1331 966 -1331 
L 506 -1331 
L 506 -850 
L 844 -850 
Q 1081 -850 1212 -737 
Q 1344 -625 1503 -206 
L 1606 56 
L 191 3500 
L 800 3500 
L 1894 763 
L 2988 3500 
L 3597 3500 
L 2059 -325 
z
" transform="scale(0.015625)"/>
     </defs>
     <use xlink:href="#DejaVuSans-72"/>
     <use xlink:href="#DejaVuSans-65" transform="translate(38.863281 0)"/>
     <use xlink:href="#DejaVuSans-70" transform="translate(100.386719 0)"/>
     <use xlink:href="#DejaVuSans-65" transform="translate(163.863281 0)"/>
     <use xlink:href="#DejaVuSans-61" transform="translate(225.386719 0)"/>
     <use xlink:href="#DejaVuSans-74" transform="translate(286.666016 0)"/>
     <use xlink:href="#DejaVuSans-65" transform="translate(325.875 0)"/>
     <use xlink:href="#DejaVuSans-64" transform="translate(387.398438 0)"/>
     <use xlink:href="#DejaVuSans-6c" transform="translate(450.875 0)"/>
     <use xlink:href="#DejaVuSans-79" transform="translate(478.658203 0)"/>
    </g>
   </g>
   <g id="text_5">
    <!-- Brain adapts -->
    <g style="fill: #0f172a" transform="translate(383.363086 142.589031) scale(0.155 -0.155)">
     <defs>
      <path id="DejaVuSans-Bold-42" d="M 2456 2859 
Q 2741 2859 2887 2984 
Q 3034 3109 3034 3353 
Q 3034 3594 2887 3720 
Q 2741 3847 2456 3847 
L 1791 3847 
L 1791 2859 
L 2456 2859 
z
M 2497 819 
Q 2859 819 3042 972 
Q 3225 1125 3225 1434 
Q 3225 1738 3044 1889 
Q 2863 2041 2497 2041 
L 1791 2041 
L 1791 819 
L 2497 819 
z
M 3616 2497 
Q 4003 2384 4215 2081 
Q 4428 1778 4428 1338 
Q 4428 663 3972 331 
Q 3516 0 2584 0 
L 588 0 
L 588 4666 
L 2394 4666 
Q 3366 4666 3802 4372 
Q 4238 4078 4238 3431 
Q 4238 3091 4078 2852 
Q 3919 2613 3616 2497 
z
" transform="scale(0.015625)"/>
     </defs>
     <use xlink:href="#DejaVuSans-Bold-42"/>
     <use xlink:href="#DejaVuSans-Bold-72" transform="translate(76.220703 0)"/>
     <use xlink:href="#DejaVuSans-Bold-61" transform="translate(125.537109 0)"/>
     <use xlink:href="#DejaVuSans-Bold-69" transform="translate(193.017578 0)"/>
     <use xlink:href="#DejaVuSans-Bold-6e" transform="translate(227.294922 0)"/>
     <use xlink:href="#DejaVuSans-Bold-20" transform="translate(298.486328 0)"/>
     <use xlink:href="#DejaVuSans-Bold-61" transform="translate(333.300781 0)"/>
     <use xlink:href="#DejaVuSans-Bold-64" transform="translate(400.78125 0)"/>
     <use xlink:href="#DejaVuSans-Bold-61" transform="translate(472.363281 0)"/>
     <use xlink:href="#DejaVuSans-Bold-70" transform="translate(539.84375 0)"/>
     <use xlink:href="#DejaVuSans-Bold-74" transform="translate(611.425781 0)"/>
     <use xlink:href="#DejaVuSans-Bold-73" transform="translate(659.228516 0)"/>
    </g>
   </g>
   <g id="text_6">
    <!-- receptors, release, or -->
    <g style="fill: #334155" transform="translate(380.324141 159.527098) scale(0.11 -0.11)">
     <defs>
      <path id="DejaVuSans-2c" d="M 750 794 
L 1409 794 
L 1409 256 
L 897 -744 
L 494 -744 
L 750 256 
L 750 794 
z
" transform="scale(0.015625)"/>
     </defs>
     <use xlink:href="#DejaVuSans-72"/>
     <use xlink:href="#DejaVuSans-65" transform="translate(38.863281 0)"/>
     <use xlink:href="#DejaVuSans-63" transform="translate(100.386719 0)"/>
     <use xlink:href="#DejaVuSans-65" transform="translate(155.367188 0)"/>
     <use xlink:href="#DejaVuSans-70" transform="translate(216.890625 0)"/>
     <use xlink:href="#DejaVuSans-74" transform="translate(280.367188 0)"/>
     <use xlink:href="#DejaVuSans-6f" transform="translate(319.576172 0)"/>
     <use xlink:href="#DejaVuSans-72" transform="translate(380.757812 0)"/>
     <use xlink:href="#DejaVuSans-73" transform="translate(421.871094 0)"/>
     <use xlink:href="#DejaVuSans-2c" transform="translate(473.970703 0)"/>
     <use xlink:href="#DejaVuSans-20" transform="translate(505.757812 0)"/>
     <use xlink:href="#DejaVuSans-72" transform="translate(537.544922 0)"/>
     <use xlink:href="#DejaVuSans-65" transform="translate(576.408203 0)"/>
     <use xlink:href="#DejaVuSans-6c" transform="translate(637.931641 0)"/>
     <use xlink:href="#DejaVuSans-65" transform="translate(665.714844 0)"/>
     <use xlink:href="#DejaVuSans-61" transform="translate(727.238281 0)"/>
     <use xlink:href="#DejaVuSans-73" transform="translate(788.517578 0)"/>
     <use xlink:href="#DejaVuSans-65" transform="translate(840.617188 0)"/>
     <use xlink:href="#DejaVuSans-2c" transform="translate(902.140625 0)"/>
     <use xlink:href="#DejaVuSans-20" transform="translate(933.927734 0)"/>
     <use xlink:href="#DejaVuSans-6f" transform="translate(965.714844 0)"/>
     <use xlink:href="#DejaVuSans-72" transform="translate(1026.896484 0)"/>
    </g>
    <!-- sensitivity adjust -->
    <g style="fill: #334155" transform="translate(392.412969 171.677527) scale(0.11 -0.11)">
     <defs>
      <path id="DejaVuSans-6a" d="M 603 3500 
L 1178 3500 
L 1178 -63 
Q 1178 -731 923 -1031 
Q 669 -1331 103 -1331 
L -116 -1331 
L -116 -844 
L 38 -844 
Q 366 -844 484 -692 
Q 603 -541 603 -63 
L 603 3500 
z
M 603 4863 
L 1178 4863 
L 1178 4134 
L 603 4134 
L 603 4863 
z
" transform="scale(0.015625)"/>
     </defs>
     <use xlink:href="#DejaVuSans-73"/>
     <use xlink:href="#DejaVuSans-65" transform="translate(52.099609 0)"/>
     <use xlink:href="#DejaVuSans-6e" transform="translate(113.623047 0)"/>
     <use xlink:href="#DejaVuSans-73" transform="translate(177.001953 0)"/>
     <use xlink:href="#DejaVuSans-69" transform="translate(229.101562 0)"/>
     <use xlink:href="#DejaVuSans-74" transform="translate(256.884766 0)"/>
     <use xlink:href="#DejaVuSans-69" transform="translate(296.09375 0)"/>
     <use xlink:href="#DejaVuSans-76" transform="translate(323.876953 0)"/>
     <use xlink:href="#DejaVuSans-69" transform="translate(383.056641 0)"/>
     <use xlink:href="#DejaVuSans-74" transform="translate(410.839844 0)"/>
     <use xlink:href="#DejaVuSans-79" transform="translate(450.048828 0)"/>
     <use xlink:href="#DejaVuSans-20" transform="translate(509.228516 0)"/>
     <use xlink:href="#DejaVuSans-61" transform="translate(541.015625 0)"/>
     <use xlink:href="#DejaVuSans-64" transform="translate(602.294922 0)"/>
     <use xlink:href="#DejaVuSans-6a" transform="translate(665.771484 0)"/>
     <use xlink:href="#DejaVuSans-75" transform="translate(693.554688 0)"/>
     <use xlink:href="#DejaVuSans-73" transform="translate(756.933594 0)"/>
     <use xlink:href="#DejaVuSans-74" transform="translate(809.033203 0)"/>
    </g>
   </g>
   <g id="text_7">
    <!-- Tolerance -->
    <g style="fill: #0f172a" transform="translate(723.577187 181.397031) scale(0.155 -0.155)">
     <use xlink:href="#DejaVuSans-Bold-54"/>
     <use xlink:href="#DejaVuSans-Bold-6f" transform="translate(54.962891 0)"/>
     <use xlink:href="#DejaVuSans-Bold-6c" transform="translate(123.664062 0)"/>
     <use xlink:href="#DejaVuSans-Bold-65" transform="translate(157.941406 0)"/>
     <use xlink:href="#DejaVuSans-Bold-72" transform="translate(225.763672 0)"/>
     <use xlink:href="#DejaVuSans-Bold-61" transform="translate(275.080078 0)"/>
     <use xlink:href="#DejaVuSans-Bold-6e" transform="translate(342.560547 0)"/>
     <use xlink:href="#DejaVuSans-Bold-63" transform="translate(413.751953 0)"/>
     <use xlink:href="#DejaVuSans-Bold-65" transform="translate(473.029297 0)"/>
    </g>
   </g>
   <g id="text_8">
    <!-- same dose, smaller effect -->
    <g style="fill: #334155" transform="translate(694.304375 204.410313) scale(0.11 -0.11)">
     <use xlink:href="#DejaVuSans-73"/>
     <use xlink:href="#DejaVuSans-61" transform="translate(52.099609 0)"/>
     <use xlink:href="#DejaVuSans-6d" transform="translate(113.378906 0)"/>
     <use xlink:href="#DejaVuSans-65" transform="translate(210.791016 0)"/>
     <use xlink:href="#DejaVuSans-20" transform="translate(272.314453 0)"/>
     <use xlink:href="#DejaVuSans-64" transform="translate(304.101562 0)"/>
     <use xlink:href="#DejaVuSans-6f" transform="translate(367.578125 0)"/>
     <use xlink:href="#DejaVuSans-73" transform="translate(428.759766 0)"/>
     <use xlink:href="#DejaVuSans-65" transform="translate(480.859375 0)"/>
     <use xlink:href="#DejaVuSans-2c" transform="translate(542.382812 0)"/>
     <use xlink:href="#DejaVuSans-20" transform="translate(574.169922 0)"/>
     <use xlink:href="#DejaVuSans-73" transform="translate(605.957031 0)"/>
     <use xlink:href="#DejaVuSans-6d" transform="translate(658.056641 0)"/>
     <use xlink:href="#DejaVuSans-61" transform="translate(755.46875 0)"/>
     <use xlink:href="#DejaVuSans-6c" transform="translate(816.748047 0)"/>
     <use xlink:href="#DejaVuSans-6c" transform="translate(844.53125 0)"/>
     <use xlink:href="#DejaVuSans-65" transform="translate(872.314453 0)"/>
     <use xlink:href="#DejaVuSans-72" transform="translate(933.837891 0)"/>
     <use xlink:href="#DejaVuSans-20" transform="translate(974.951172 0)"/>
     <use xlink:href="#DejaVuSans-65" transform="translate(1006.738281 0)"/>
     <use xlink:href="#DejaVuSans-66" transform="translate(1068.261719 0)"/>
     <use xlink:href="#DejaVuSans-66" transform="translate(1103.466797 0)"/>
     <use xlink:href="#DejaVuSans-65" transform="translate(1138.671875 0)"/>
     <use xlink:href="#DejaVuSans-63" transform="translate(1200.195312 0)"/>
     <use xlink:href="#DejaVuSans-74" transform="translate(1255.175781 0)"/>
    </g>
   </g>
   <g id="text_9">
    <!-- Withdrawal -->
    <g style="fill: #0f172a" transform="translate(651.252734 317.225031) scale(0.155 -0.155)">
     <defs>
      <path id="DejaVuSans-Bold-57" d="M 191 4666 
L 1344 4666 
L 2150 1275 
L 2950 4666 
L 4109 4666 
L 4909 1275 
L 5716 4666 
L 6859 4666 
L 5759 0 
L 4372 0 
L 3525 3547 
L 2688 0 
L 1300 0 
L 191 4666 
z
" transform="scale(0.015625)"/>
     </defs>
     <use xlink:href="#DejaVuSans-Bold-57"/>
     <use xlink:href="#DejaVuSans-Bold-69" transform="translate(110.302734 0)"/>
     <use xlink:href="#DejaVuSans-Bold-74" transform="translate(144.580078 0)"/>
     <use xlink:href="#DejaVuSans-Bold-68" transform="translate(192.382812 0)"/>
     <use xlink:href="#DejaVuSans-Bold-64" transform="translate(263.574219 0)"/>
     <use xlink:href="#DejaVuSans-Bold-72" transform="translate(335.15625 0)"/>
     <use xlink:href="#DejaVuSans-Bold-61" transform="translate(384.472656 0)"/>
     <use xlink:href="#DejaVuSans-Bold-77" transform="translate(451.953125 0)"/>
     <use xlink:href="#DejaVuSans-Bold-61" transform="translate(544.335938 0)"/>
     <use xlink:href="#DejaVuSans-Bold-6c" transform="translate(611.816406 0)"/>
    </g>
   </g>
   <g id="text_10">
    <!-- unpleasant rebound symptoms -->
    <g style="fill: #334155" transform="translate(615.651328 334.163098) scale(0.11 -0.11)">
     <use xlink:href="#DejaVuSans-75"/>
     <use xlink:href="#DejaVuSans-6e" transform="translate(63.378906 0)"/>
     <use xlink:href="#DejaVuSans-70" transform="translate(126.757812 0)"/>
     <use xlink:href="#DejaVuSans-6c" transform="translate(190.234375 0)"/>
     <use xlink:href="#DejaVuSans-65" transform="translate(218.017578 0)"/>
     <use xlink:href="#DejaVuSans-61" transform="translate(279.541016 0)"/>
     <use xlink:href="#DejaVuSans-73" transform="translate(340.820312 0)"/>
     <use xlink:href="#DejaVuSans-61" transform="translate(392.919922 0)"/>
     <use xlink:href="#DejaVuSans-6e" transform="translate(454.199219 0)"/>
     <use xlink:href="#DejaVuSans-74" transform="translate(517.578125 0)"/>
     <use xlink:href="#DejaVuSans-20" transform="translate(556.787109 0)"/>
     <use xlink:href="#DejaVuSans-72" transform="translate(588.574219 0)"/>
     <use xlink:href="#DejaVuSans-65" transform="translate(627.4375 0)"/>
     <use xlink:href="#DejaVuSans-62" transform="translate(688.960938 0)"/>
     <use xlink:href="#DejaVuSans-6f" transform="translate(752.4375 0)"/>
     <use xlink:href="#DejaVuSans-75" transform="translate(813.619141 0)"/>
     <use xlink:href="#DejaVuSans-6e" transform="translate(876.998047 0)"/>
     <use xlink:href="#DejaVuSans-64" transform="translate(940.376953 0)"/>
     <use xlink:href="#DejaVuSans-20" transform="translate(1003.853516 0)"/>
     <use xlink:href="#DejaVuSans-73" transform="translate(1035.640625 0)"/>
     <use xlink:href="#DejaVuSans-79" transform="translate(1087.740234 0)"/>
     <use xlink:href="#DejaVuSans-6d" transform="translate(1146.919922 0)"/>
     <use xlink:href="#DejaVuSans-70" transform="translate(1244.332031 0)"/>
     <use xlink:href="#DejaVuSans-74" transform="translate(1307.808594 0)"/>
     <use xlink:href="#DejaVuSans-6f" transform="translate(1347.017578 0)"/>
     <use xlink:href="#DejaVuSans-6d" transform="translate(1408.199219 0)"/>
     <use xlink:href="#DejaVuSans-73" transform="translate(1505.611328 0)"/>
    </g>
    <!-- after reducing use -->
    <g style="fill: #334155" transform="translate(651.054141 346.313527) scale(0.11 -0.11)">
     <use xlink:href="#DejaVuSans-61"/>
     <use xlink:href="#DejaVuSans-66" transform="translate(61.279297 0)"/>
     <use xlink:href="#DejaVuSans-74" transform="translate(94.734375 0)"/>
     <use xlink:href="#DejaVuSans-65" transform="translate(133.943359 0)"/>
     <use xlink:href="#DejaVuSans-72" transform="translate(195.466797 0)"/>
     <use xlink:href="#DejaVuSans-20" transform="translate(236.580078 0)"/>
     <use xlink:href="#DejaVuSans-72" transform="translate(268.367188 0)"/>
     <use xlink:href="#DejaVuSans-65" transform="translate(307.230469 0)"/>
     <use xlink:href="#DejaVuSans-64" transform="translate(368.753906 0)"/>
     <use xlink:href="#DejaVuSans-75" transform="translate(432.230469 0)"/>
     <use xlink:href="#DejaVuSans-63" transform="translate(495.609375 0)"/>
     <use xlink:href="#DejaVuSans-69" transform="translate(550.589844 0)"/>
     <use xlink:href="#DejaVuSans-6e" transform="translate(578.373047 0)"/>
     <use xlink:href="#DejaVuSans-67" transform="translate(641.751953 0)"/>
     <use xlink:href="#DejaVuSans-20" transform="translate(705.228516 0)"/>
     <use xlink:href="#DejaVuSans-75" transform="translate(737.015625 0)"/>
     <use xlink:href="#DejaVuSans-73" transform="translate(800.394531 0)"/>
     <use xlink:href="#DejaVuSans-65" transform="translate(852.494141 0)"/>
    </g>
   </g>
   <g id="text_11">
    <!-- Use relieves -->
    <g style="fill: #0f172a" transform="translate(162.434805 308.546727) scale(0.155 -0.155)">
     <defs>
      <path id="DejaVuSans-Bold-55" d="M 588 4666 
L 1791 4666 
L 1791 1869 
Q 1791 1291 1980 1042 
Q 2169 794 2597 794 
Q 3028 794 3217 1042 
Q 3406 1291 3406 1869 
L 3406 4666 
L 4609 4666 
L 4609 1869 
Q 4609 878 4112 393 
Q 3616 -91 2597 -91 
Q 1581 -91 1084 393 
Q 588 878 588 1869 
L 588 4666 
z
" transform="scale(0.015625)"/>
      <path id="DejaVuSans-Bold-76" d="M 97 3500 
L 1216 3500 
L 2088 1081 
L 2956 3500 
L 4078 3500 
L 2700 0 
L 1472 0 
L 97 3500 
z
" transform="scale(0.015625)"/>
     </defs>
     <use xlink:href="#DejaVuSans-Bold-55"/>
     <use xlink:href="#DejaVuSans-Bold-73" transform="translate(81.201172 0)"/>
     <use xlink:href="#DejaVuSans-Bold-65" transform="translate(140.722656 0)"/>
     <use xlink:href="#DejaVuSans-Bold-20" transform="translate(208.544922 0)"/>
     <use xlink:href="#DejaVuSans-Bold-72" transform="translate(243.359375 0)"/>
     <use xlink:href="#DejaVuSans-Bold-65" transform="translate(292.675781 0)"/>
     <use xlink:href="#DejaVuSans-Bold-6c" transform="translate(360.498047 0)"/>
     <use xlink:href="#DejaVuSans-Bold-69" transform="translate(394.775391 0)"/>
     <use xlink:href="#DejaVuSans-Bold-65" transform="translate(429.052734 0)"/>
     <use xlink:href="#DejaVuSans-Bold-76" transform="translate(496.875 0)"/>
     <use xlink:href="#DejaVuSans-Bold-65" transform="translate(562.060547 0)"/>
     <use xlink:href="#DejaVuSans-Bold-73" transform="translate(629.882812 0)"/>
    </g>
    <!-- withdrawal -->
    <g style="fill: #0f172a" transform="translate(167.180469 325.903336) scale(0.155 -0.155)">
     <use xlink:href="#DejaVuSans-Bold-77"/>
     <use xlink:href="#DejaVuSans-Bold-69" transform="translate(92.382812 0)"/>
     <use xlink:href="#DejaVuSans-Bold-74" transform="translate(126.660156 0)"/>
     <use xlink:href="#DejaVuSans-Bold-68" transform="translate(174.462891 0)"/>
     <use xlink:href="#DejaVuSans-Bold-64" transform="translate(245.654297 0)"/>
     <use xlink:href="#DejaVuSans-Bold-72" transform="translate(317.236328 0)"/>
     <use xlink:href="#DejaVuSans-Bold-61" transform="translate(366.552734 0)"/>
     <use xlink:href="#DejaVuSans-Bold-77" transform="translate(434.033203 0)"/>
     <use xlink:href="#DejaVuSans-Bold-61" transform="translate(526.416016 0)"/>
     <use xlink:href="#DejaVuSans-Bold-6c" transform="translate(593.896484 0)"/>
    </g>
   </g>
   <g id="text_12">
    <!-- relief strengthens reuse -->
    <g style="fill: #334155" transform="translate(150.317891 340.238313) scale(0.11 -0.11)">
     <use xlink:href="#DejaVuSans-72"/>
     <use xlink:href="#DejaVuSans-65" transform="translate(38.863281 0)"/>
     <use xlink:href="#DejaVuSans-6c" transform="translate(100.386719 0)"/>
     <use xlink:href="#DejaVuSans-69" transform="translate(128.169922 0)"/>
     <use xlink:href="#DejaVuSans-65" transform="translate(155.953125 0)"/>
     <use xlink:href="#DejaVuSans-66" transform="translate(217.476562 0)"/>
     <use xlink:href="#DejaVuSans-20" transform="translate(252.681641 0)"/>
     <use xlink:href="#DejaVuSans-73" transform="translate(284.46875 0)"/>
     <use xlink:href="#DejaVuSans-74" transform="translate(336.568359 0)"/>
     <use xlink:href="#DejaVuSans-72" transform="translate(375.777344 0)"/>
     <use xlink:href="#DejaVuSans-65" transform="translate(414.640625 0)"/>
     <use xlink:href="#DejaVuSans-6e" transform="translate(476.164062 0)"/>
     <use xlink:href="#DejaVuSans-67" transform="translate(539.542969 0)"/>
     <use xlink:href="#DejaVuSans-74" transform="translate(603.019531 0)"/>
     <use xlink:href="#DejaVuSans-68" transform="translate(642.228516 0)"/>
     <use xlink:href="#DejaVuSans-65" transform="translate(705.607422 0)"/>
     <use xlink:href="#DejaVuSans-6e" transform="translate(767.130859 0)"/>
     <use xlink:href="#DejaVuSans-73" transform="translate(830.509766 0)"/>
     <use xlink:href="#DejaVuSans-20" transform="translate(882.609375 0)"/>
     <use xlink:href="#DejaVuSans-72" transform="translate(914.396484 0)"/>
     <use xlink:href="#DejaVuSans-65" transform="translate(953.259766 0)"/>
     <use xlink:href="#DejaVuSans-75" transform="translate(1014.783203 0)"/>
     <use xlink:href="#DejaVuSans-73" transform="translate(1078.162109 0)"/>
     <use xlink:href="#DejaVuSans-65" transform="translate(1130.261719 0)"/>
    </g>
   </g>
   <g id="text_13">
    <!-- negative reinforcement: -->
    <g style="fill: #0f766e" transform="translate(103.721328 253.86093) scale(0.125 -0.125)">
     <defs>
      <path id="DejaVuSans-Bold-67" d="M 2919 594 
Q 2688 288 2409 144 
Q 2131 0 1766 0 
Q 1125 0 706 504 
Q 288 1009 288 1791 
Q 288 2575 706 3076 
Q 1125 3578 1766 3578 
Q 2131 3578 2409 3434 
Q 2688 3291 2919 2981 
L 2919 3500 
L 4044 3500 
L 4044 353 
Q 4044 -491 3511 -936 
Q 2978 -1381 1966 -1381 
Q 1638 -1381 1331 -1331 
Q 1025 -1281 716 -1178 
L 716 -306 
Q 1009 -475 1290 -558 
Q 1572 -641 1856 -641 
Q 2406 -641 2662 -400 
Q 2919 -159 2919 353 
L 2919 594 
z
M 2181 2772 
Q 1834 2772 1640 2515 
Q 1447 2259 1447 1791 
Q 1447 1309 1634 1061 
Q 1822 813 2181 813 
Q 2531 813 2725 1069 
Q 2919 1325 2919 1791 
Q 2919 2259 2725 2515 
Q 2531 2772 2181 2772 
z
" transform="scale(0.015625)"/>
      <path id="DejaVuSans-Bold-6d" d="M 3781 2919 
Q 3994 3244 4286 3414 
Q 4578 3584 4928 3584 
Q 5531 3584 5847 3212 
Q 6163 2841 6163 2131 
L 6163 0 
L 5038 0 
L 5038 1825 
Q 5041 1866 5042 1909 
Q 5044 1953 5044 2034 
Q 5044 2406 4934 2573 
Q 4825 2741 4581 2741 
Q 4263 2741 4089 2478 
Q 3916 2216 3909 1719 
L 3909 0 
L 2784 0 
L 2784 1825 
Q 2784 2406 2684 2573 
Q 2584 2741 2328 2741 
Q 2006 2741 1831 2477 
Q 1656 2213 1656 1722 
L 1656 0 
L 531 0 
L 531 3500 
L 1656 3500 
L 1656 2988 
Q 1863 3284 2130 3434 
Q 2397 3584 2719 3584 
Q 3081 3584 3359 3409 
Q 3638 3234 3781 2919 
z
" transform="scale(0.015625)"/>
      <path id="DejaVuSans-Bold-3a" d="M 716 3500 
L 1844 3500 
L 1844 2291 
L 716 2291 
L 716 3500 
z
M 716 1209 
L 1844 1209 
L 1844 0 
L 716 0 
L 716 1209 
z
" transform="scale(0.015625)"/>
     </defs>
     <use xlink:href="#DejaVuSans-Bold-6e"/>
     <use xlink:href="#DejaVuSans-Bold-65" transform="translate(71.191406 0)"/>
     <use xlink:href="#DejaVuSans-Bold-67" transform="translate(139.013672 0)"/>
     <use xlink:href="#DejaVuSans-Bold-61" transform="translate(210.595703 0)"/>
     <use xlink:href="#DejaVuSans-Bold-74" transform="translate(278.076172 0)"/>
     <use xlink:href="#DejaVuSans-Bold-69" transform="translate(325.878906 0)"/>
     <use xlink:href="#DejaVuSans-Bold-76" transform="translate(360.15625 0)"/>
     <use xlink:href="#DejaVuSans-Bold-65" transform="translate(425.341797 0)"/>
     <use xlink:href="#DejaVuSans-Bold-20" transform="translate(493.164062 0)"/>
     <use xlink:href="#DejaVuSans-Bold-72" transform="translate(527.978516 0)"/>
     <use xlink:href="#DejaVuSans-Bold-65" transform="translate(577.294922 0)"/>
     <use xlink:href="#DejaVuSans-Bold-69" transform="translate(645.117188 0)"/>
     <use xlink:href="#DejaVuSans-Bold-6e" transform="translate(679.394531 0)"/>
     <use xlink:href="#DejaVuSans-Bold-66" transform="translate(750.585938 0)"/>
     <use xlink:href="#DejaVuSans-Bold-6f" transform="translate(794.091797 0)"/>
     <use xlink:href="#DejaVuSans-Bold-72" transform="translate(862.792969 0)"/>
     <use xlink:href="#DejaVuSans-Bold-63" transform="translate(912.109375 0)"/>
     <use xlink:href="#DejaVuSans-Bold-65" transform="translate(971.386719 0)"/>
     <use xlink:href="#DejaVuSans-Bold-6d" transform="translate(1039.208984 0)"/>
     <use xlink:href="#DejaVuSans-Bold-65" transform="translate(1143.408203 0)"/>
     <use xlink:href="#DejaVuSans-Bold-6e" transform="translate(1211.230469 0)"/>
     <use xlink:href="#DejaVuSans-Bold-74" transform="translate(1282.421875 0)"/>
     <use xlink:href="#DejaVuSans-Bold-3a" transform="translate(1330.224609 0)"/>
    </g>
    <!-- relief makes reuse more likely -->
    <g style="fill: #0f766e" transform="translate(82.819961 267.955852) scale(0.125 -0.125)">
     <defs>
      <path id="DejaVuSans-Bold-79" d="M 78 3500 
L 1197 3500 
L 2138 1125 
L 2938 3500 
L 4056 3500 
L 2584 -331 
Q 2363 -916 2067 -1148 
Q 1772 -1381 1288 -1381 
L 641 -1381 
L 641 -647 
L 991 -647 
Q 1275 -647 1404 -556 
Q 1534 -466 1606 -231 
L 1638 -134 
L 78 3500 
z
" transform="scale(0.015625)"/>
     </defs>
     <use xlink:href="#DejaVuSans-Bold-72"/>
     <use xlink:href="#DejaVuSans-Bold-65" transform="translate(49.316406 0)"/>
     <use xlink:href="#DejaVuSans-Bold-6c" transform="translate(117.138672 0)"/>
     <use xlink:href="#DejaVuSans-Bold-69" transform="translate(151.416016 0)"/>
     <use xlink:href="#DejaVuSans-Bold-65" transform="translate(185.693359 0)"/>
     <use xlink:href="#DejaVuSans-Bold-66" transform="translate(253.515625 0)"/>
     <use xlink:href="#DejaVuSans-Bold-20" transform="translate(297.021484 0)"/>
     <use xlink:href="#DejaVuSans-Bold-6d" transform="translate(331.835938 0)"/>
     <use xlink:href="#DejaVuSans-Bold-61" transform="translate(436.035156 0)"/>
     <use xlink:href="#DejaVuSans-Bold-6b" transform="translate(503.515625 0)"/>
     <use xlink:href="#DejaVuSans-Bold-65" transform="translate(567.394531 0)"/>
     <use xlink:href="#DejaVuSans-Bold-73" transform="translate(635.216797 0)"/>
     <use xlink:href="#DejaVuSans-Bold-20" transform="translate(694.738281 0)"/>
     <use xlink:href="#DejaVuSans-Bold-72" transform="translate(729.552734 0)"/>
     <use xlink:href="#DejaVuSans-Bold-65" transform="translate(778.869141 0)"/>
     <use xlink:href="#DejaVuSans-Bold-75" transform="translate(846.691406 0)"/>
     <use xlink:href="#DejaVuSans-Bold-73" transform="translate(917.882812 0)"/>
     <use xlink:href="#DejaVuSans-Bold-65" transform="translate(977.404297 0)"/>
     <use xlink:href="#DejaVuSans-Bold-20" transform="translate(1045.226562 0)"/>
     <use xlink:href="#DejaVuSans-Bold-6d" transform="translate(1080.041016 0)"/>
     <use xlink:href="#DejaVuSans-Bold-6f" transform="translate(1184.240234 0)"/>
     <use xlink:href="#DejaVuSans-Bold-72" transform="translate(1252.941406 0)"/>
     <use xlink:href="#DejaVuSans-Bold-65" transform="translate(1302.257812 0)"/>
     <use xlink:href="#DejaVuSans-Bold-20" transform="translate(1370.080078 0)"/>
     <use xlink:href="#DejaVuSans-Bold-6c" transform="translate(1404.894531 0)"/>
     <use xlink:href="#DejaVuSans-Bold-69" transform="translate(1439.171875 0)"/>
     <use xlink:href="#DejaVuSans-Bold-6b" transform="translate(1473.449219 0)"/>
     <use xlink:href="#DejaVuSans-Bold-65" transform="translate(1537.328125 0)"/>
     <use xlink:href="#DejaVuSans-Bold-6c" transform="translate(1605.150391 0)"/>
     <use xlink:href="#DejaVuSans-Bold-79" transform="translate(1639.427734 0)"/>
    </g>
   </g>
   <g id="text_14">
    <!-- Do not confuse: tolerance = smaller effect; withdrawal = rebound symptoms after reducing use. -->
    <g style="fill: #334155" transform="translate(118.476562 450.975925) scale(0.14 -0.14)">
     <defs>
      <path id="DejaVuSans-44" d="M 1259 4147 
L 1259 519 
L 2022 519 
Q 2988 519 3436 956 
Q 3884 1394 3884 2338 
Q 3884 3275 3436 3711 
Q 2988 4147 2022 4147 
L 1259 4147 
z
M 628 4666 
L 1925 4666 
Q 3281 4666 3915 4102 
Q 4550 3538 4550 2338 
Q 4550 1131 3912 565 
Q 3275 0 1925 0 
L 628 0 
L 628 4666 
z
" transform="scale(0.015625)"/>
      <path id="DejaVuSans-3a" d="M 750 794 
L 1409 794 
L 1409 0 
L 750 0 
L 750 794 
z
M 750 3309 
L 1409 3309 
L 1409 2516 
L 750 2516 
L 750 3309 
z
" transform="scale(0.015625)"/>
      <path id="DejaVuSans-3d" d="M 678 2906 
L 4684 2906 
L 4684 2381 
L 678 2381 
L 678 2906 
z
M 678 1631 
L 4684 1631 
L 4684 1100 
L 678 1100 
L 678 1631 
z
" transform="scale(0.015625)"/>
      <path id="DejaVuSans-3b" d="M 750 3309 
L 1409 3309 
L 1409 2516 
L 750 2516 
L 750 3309 
z
M 750 794 
L 1409 794 
L 1409 256 
L 897 -744 
L 494 -744 
L 750 256 
L 750 794 
z
" transform="scale(0.015625)"/>
      <path id="DejaVuSans-2e" d="M 684 794 
L 1344 794 
L 1344 0 
L 684 0 
L 684 794 
z
" transform="scale(0.015625)"/>
     </defs>
     <use xlink:href="#DejaVuSans-44"/>
     <use xlink:href="#DejaVuSans-6f" transform="translate(77.001953 0)"/>
     <use xlink:href="#DejaVuSans-20" transform="translate(138.183594 0)"/>
     <use xlink:href="#DejaVuSans-6e" transform="translate(169.970703 0)"/>
     <use xlink:href="#DejaVuSans-6f" transform="translate(233.349609 0)"/>
     <use xlink:href="#DejaVuSans-74" transform="translate(294.53125 0)"/>
     <use xlink:href="#DejaVuSans-20" transform="translate(333.740234 0)"/>
     <use xlink:href="#DejaVuSans-63" transform="translate(365.527344 0)"/>
     <use xlink:href="#DejaVuSans-6f" transform="translate(420.507812 0)"/>
     <use xlink:href="#DejaVuSans-6e" transform="translate(481.689453 0)"/>
     <use xlink:href="#DejaVuSans-66" transform="translate(545.068359 0)"/>
     <use xlink:href="#DejaVuSans-75" transform="translate(580.273438 0)"/>
     <use xlink:href="#DejaVuSans-73" transform="translate(643.652344 0)"/>
     <use xlink:href="#DejaVuSans-65" transform="translate(695.751953 0)"/>
     <use xlink:href="#DejaVuSans-3a" transform="translate(757.275391 0)"/>
     <use xlink:href="#DejaVuSans-20" transform="translate(790.966797 0)"/>
     <use xlink:href="#DejaVuSans-74" transform="translate(822.753906 0)"/>
     <use xlink:href="#DejaVuSans-6f" transform="translate(861.962891 0)"/>
     <use xlink:href="#DejaVuSans-6c" transform="translate(923.144531 0)"/>
     <use xlink:href="#DejaVuSans-65" transform="translate(950.927734 0)"/>
     <use xlink:href="#DejaVuSans-72" transform="translate(1012.451172 0)"/>
     <use xlink:href="#DejaVuSans-61" transform="translate(1053.564453 0)"/>
     <use xlink:href="#DejaVuSans-6e" transform="translate(1114.84375 0)"/>
     <use xlink:href="#DejaVuSans-63" transform="translate(1178.222656 0)"/>
     <use xlink:href="#DejaVuSans-65" transform="translate(1233.203125 0)"/>
     <use xlink:href="#DejaVuSans-20" transform="translate(1294.726562 0)"/>
     <use xlink:href="#DejaVuSans-3d" transform="translate(1326.513672 0)"/>
     <use xlink:href="#DejaVuSans-20" transform="translate(1410.302734 0)"/>
     <use xlink:href="#DejaVuSans-73" transform="translate(1442.089844 0)"/>
     <use xlink:href="#DejaVuSans-6d" transform="translate(1494.189453 0)"/>
     <use xlink:href="#DejaVuSans-61" transform="translate(1591.601562 0)"/>
     <use xlink:href="#DejaVuSans-6c" transform="translate(1652.880859 0)"/>
     <use xlink:href="#DejaVuSans-6c" transform="translate(1680.664062 0)"/>
     <use xlink:href="#DejaVuSans-65" transform="translate(1708.447266 0)"/>
     <use xlink:href="#DejaVuSans-72" transform="translate(1769.970703 0)"/>
     <use xlink:href="#DejaVuSans-20" transform="translate(1811.083984 0)"/>
     <use xlink:href="#DejaVuSans-65" transform="translate(1842.871094 0)"/>
     <use xlink:href="#DejaVuSans-66" transform="translate(1904.394531 0)"/>
     <use xlink:href="#DejaVuSans-66" transform="translate(1939.599609 0)"/>
     <use xlink:href="#DejaVuSans-65" transform="translate(1974.804688 0)"/>
     <use xlink:href="#DejaVuSans-63" transform="translate(2036.328125 0)"/>
     <use xlink:href="#DejaVuSans-74" transform="translate(2091.308594 0)"/>
     <use xlink:href="#DejaVuSans-3b" transform="translate(2130.517578 0)"/>
     <use xlink:href="#DejaVuSans-20" transform="translate(2164.208984 0)"/>
     <use xlink:href="#DejaVuSans-77" transform="translate(2195.996094 0)"/>
     <use xlink:href="#DejaVuSans-69" transform="translate(2277.783203 0)"/>
     <use xlink:href="#DejaVuSans-74" transform="translate(2305.566406 0)"/>
     <use xlink:href="#DejaVuSans-68" transform="translate(2344.775391 0)"/>
     <use xlink:href="#DejaVuSans-64" transform="translate(2408.154297 0)"/>
     <use xlink:href="#DejaVuSans-72" transform="translate(2471.630859 0)"/>
     <use xlink:href="#DejaVuSans-61" transform="translate(2512.744141 0)"/>
     <use xlink:href="#DejaVuSans-77" transform="translate(2574.023438 0)"/>
     <use xlink:href="#DejaVuSans-61" transform="translate(2655.810547 0)"/>
     <use xlink:href="#DejaVuSans-6c" transform="translate(2717.089844 0)"/>
     <use xlink:href="#DejaVuSans-20" transform="translate(2744.873047 0)"/>
     <use xlink:href="#DejaVuSans-3d" transform="translate(2776.660156 0)"/>
     <use xlink:href="#DejaVuSans-20" transform="translate(2860.449219 0)"/>
     <use xlink:href="#DejaVuSans-72" transform="translate(2892.236328 0)"/>
     <use xlink:href="#DejaVuSans-65" transform="translate(2931.099609 0)"/>
     <use xlink:href="#DejaVuSans-62" transform="translate(2992.623047 0)"/>
     <use xlink:href="#DejaVuSans-6f" transform="translate(3056.099609 0)"/>
     <use xlink:href="#DejaVuSans-75" transform="translate(3117.28125 0)"/>
     <use xlink:href="#DejaVuSans-6e" transform="translate(3180.660156 0)"/>
     <use xlink:href="#DejaVuSans-64" transform="translate(3244.039062 0)"/>
     <use xlink:href="#DejaVuSans-20" transform="translate(3307.515625 0)"/>
     <use xlink:href="#DejaVuSans-73" transform="translate(3339.302734 0)"/>
     <use xlink:href="#DejaVuSans-79" transform="translate(3391.402344 0)"/>
     <use xlink:href="#DejaVuSans-6d" transform="translate(3450.582031 0)"/>
     <use xlink:href="#DejaVuSans-70" transform="translate(3547.994141 0)"/>
     <use xlink:href="#DejaVuSans-74" transform="translate(3611.470703 0)"/>
     <use xlink:href="#DejaVuSans-6f" transform="translate(3650.679688 0)"/>
     <use xlink:href="#DejaVuSans-6d" transform="translate(3711.861328 0)"/>
     <use xlink:href="#DejaVuSans-73" transform="translate(3809.273438 0)"/>
     <use xlink:href="#DejaVuSans-20" transform="translate(3861.373047 0)"/>
     <use xlink:href="#DejaVuSans-61" transform="translate(3893.160156 0)"/>
     <use xlink:href="#DejaVuSans-66" transform="translate(3954.439453 0)"/>
     <use xlink:href="#DejaVuSans-74" transform="translate(3987.894531 0)"/>
     <use xlink:href="#DejaVuSans-65" transform="translate(4027.103516 0)"/>
     <use xlink:href="#DejaVuSans-72" transform="translate(4088.626953 0)"/>
     <use xlink:href="#DejaVuSans-20" transform="translate(4129.740234 0)"/>
     <use xlink:href="#DejaVuSans-72" transform="translate(4161.527344 0)"/>
     <use xlink:href="#DejaVuSans-65" transform="translate(4200.390625 0)"/>
     <use xlink:href="#DejaVuSans-64" transform="translate(4261.914062 0)"/>
     <use xlink:href="#DejaVuSans-75" transform="translate(4325.390625 0)"/>
     <use xlink:href="#DejaVuSans-63" transform="translate(4388.769531 0)"/>
     <use xlink:href="#DejaVuSans-69" transform="translate(4443.75 0)"/>
     <use xlink:href="#DejaVuSans-6e" transform="translate(4471.533203 0)"/>
     <use xlink:href="#DejaVuSans-67" transform="translate(4534.912109 0)"/>
     <use xlink:href="#DejaVuSans-20" transform="translate(4598.388672 0)"/>
     <use xlink:href="#DejaVuSans-75" transform="translate(4630.175781 0)"/>
     <use xlink:href="#DejaVuSans-73" transform="translate(4693.554688 0)"/>
     <use xlink:href="#DejaVuSans-65" transform="translate(4745.654297 0)"/>
     <use xlink:href="#DejaVuSans-2e" transform="translate(4807.177734 0)"/>
    </g>
   </g>
  </g>
 </g>
 <defs>
  <clipPath id="peb069af20b">
   <rect x="10.8" y="10.8" width="892.8" height="498.96"/>
  </clipPath>
 </defs>
</svg>
