<svg xmlns="http://www.w3.org/2000/svg" viewBox="0 0 1600 900" width="1600" height="900" role="img" aria-label="Trait signal aggregation: single-act behavior has weaker correlation than aggregated behavior">
<rect width="1600" height="900" fill="#F8FAFC"/>
<defs><filter id="shadow" x="-10%" y="-10%" width="120%" height="120%"><feDropShadow dx="0" dy="8" stdDeviation="10" flood-color="#0f172a" flood-opacity="0.12"/></filter></defs>
<text x="800" y="78" text-anchor="middle" font-family="Aptos, Segoe UI, Arial, sans-serif" font-size="54" font-weight="700" fill="#1F2937">Trait Signal Emerges Through Aggregation</text>
<text x="800" y="125" text-anchor="middle" font-family="Aptos, Segoe UI, Arial, sans-serif" font-size="30" font-weight="400" fill="#64748B">One act is noisy; many acts reveal the stable pattern.</text>
<rect x="90" y="165" width="670" height="555" rx="24" fill="white" stroke="#D8E0EA" stroke-width="3" filter="url(#shadow)"/>
<text x="425.0" y="223" text-anchor="middle" font-family="Aptos, Segoe UI, Arial, sans-serif" font-size="34" font-weight="700" fill="#1F2937">Single behavioral act</text>
<text x="425.0" y="265" text-anchor="middle" font-family="Aptos, Segoe UI, Arial, sans-serif" font-size="30" font-weight="400" fill="#2563EB">r = .29</text>
<rect x="155" y="290" width="560" height="290" rx="10" fill="#F8FBFF" stroke="#D8E0EA" stroke-width="2"/>
<line x1="267.0" y1="290" x2="267.0" y2="580" stroke="#CBD5E1" stroke-width="1"/>
<line x1="155" y1="348.0" x2="715" y2="348.0" stroke="#CBD5E1" stroke-width="1"/>
<line x1="379.0" y1="290" x2="379.0" y2="580" stroke="#CBD5E1" stroke-width="1"/>
<line x1="155" y1="406.0" x2="715" y2="406.0" stroke="#CBD5E1" stroke-width="1"/>
<line x1="491.0" y1="290" x2="491.0" y2="580" stroke="#CBD5E1" stroke-width="1"/>
<line x1="155" y1="464.0" x2="715" y2="464.0" stroke="#CBD5E1" stroke-width="1"/>
<line x1="603.0" y1="290" x2="603.0" y2="580" stroke="#CBD5E1" stroke-width="1"/>
<line x1="155" y1="522.0" x2="715" y2="522.0" stroke="#CBD5E1" stroke-width="1"/>
<line x1="185" y1="500" x2="685" y2="370" stroke="#2563EB" stroke-width="5" stroke-linecap="round"/>
<circle cx="324.4" cy="413.9" r="5" fill="#2563EB" stroke="white" stroke-width="1"/>
<circle cx="413.9" cy="444.6" r="5" fill="#2563EB" stroke="white" stroke-width="1"/>
<circle cx="448.4" cy="444.9" r="5" fill="#2563EB" stroke="white" stroke-width="1"/>
<circle cx="364.1" cy="398.6" r="5" fill="#2563EB" stroke="white" stroke-width="1"/>
<circle cx="318.5" cy="454.9" r="5" fill="#2563EB" stroke="white" stroke-width="1"/>
<circle cx="389.1" cy="417.6" r="5" fill="#2563EB" stroke="white" stroke-width="1"/>
<circle cx="419.5" cy="412.1" r="5" fill="#2563EB" stroke="white" stroke-width="1"/>
<circle cx="454.2" cy="454.8" r="5" fill="#2563EB" stroke="white" stroke-width="1"/>
<circle cx="324.8" cy="396.7" r="5" fill="#2563EB" stroke="white" stroke-width="1"/>
<circle cx="320.5" cy="414.9" r="5" fill="#2563EB" stroke="white" stroke-width="1"/>
<circle cx="432.2" cy="426.7" r="5" fill="#2563EB" stroke="white" stroke-width="1"/>
<circle cx="419.3" cy="415.3" r="5" fill="#2563EB" stroke="white" stroke-width="1"/>
<circle cx="478.5" cy="415.8" r="5" fill="#2563EB" stroke="white" stroke-width="1"/>
<circle cx="447.7" cy="450.0" r="5" fill="#2563EB" stroke="white" stroke-width="1"/>
<circle cx="387.1" cy="446.1" r="5" fill="#2563EB" stroke="white" stroke-width="1"/>
<circle cx="377.5" cy="436.1" r="5" fill="#2563EB" stroke="white" stroke-width="1"/>
<circle cx="536.4" cy="375.1" r="5" fill="#2563EB" stroke="white" stroke-width="1"/>
<circle cx="376.7" cy="427.6" r="5" fill="#2563EB" stroke="white" stroke-width="1"/>
<circle cx="348.9" cy="451.7" r="5" fill="#2563EB" stroke="white" stroke-width="1"/>
<circle cx="329.2" cy="423.5" r="5" fill="#2563EB" stroke="white" stroke-width="1"/>
<circle cx="398.1" cy="459.9" r="5" fill="#2563EB" stroke="white" stroke-width="1"/>
<circle cx="400.9" cy="419.1" r="5" fill="#2563EB" stroke="white" stroke-width="1"/>
<circle cx="373.5" cy="418.0" r="5" fill="#2563EB" stroke="white" stroke-width="1"/>
<circle cx="389.3" cy="450.1" r="5" fill="#2563EB" stroke="white" stroke-width="1"/>
<circle cx="408.1" cy="483.9" r="5" fill="#2563EB" stroke="white" stroke-width="1"/>
<circle cx="431.5" cy="454.9" r="5" fill="#2563EB" stroke="white" stroke-width="1"/>
<circle cx="454.1" cy="419.4" r="5" fill="#2563EB" stroke="white" stroke-width="1"/>
<circle cx="404.5" cy="425.0" r="5" fill="#2563EB" stroke="white" stroke-width="1"/>
<circle cx="292.8" cy="428.0" r="5" fill="#2563EB" stroke="white" stroke-width="1"/>
<circle cx="432.0" cy="457.3" r="5" fill="#2563EB" stroke="white" stroke-width="1"/>
<circle cx="313.5" cy="462.5" r="5" fill="#2563EB" stroke="white" stroke-width="1"/>
<circle cx="383.2" cy="427.4" r="5" fill="#2563EB" stroke="white" stroke-width="1"/>
<circle cx="310.4" cy="467.4" r="5" fill="#2563EB" stroke="white" stroke-width="1"/>
<circle cx="392.9" cy="502.8" r="5" fill="#2563EB" stroke="white" stroke-width="1"/>
<circle cx="349.3" cy="432.3" r="5" fill="#2563EB" stroke="white" stroke-width="1"/>
<circle cx="404.7" cy="378.8" r="5" fill="#2563EB" stroke="white" stroke-width="1"/>
<circle cx="577.2" cy="367.2" r="5" fill="#2563EB" stroke="white" stroke-width="1"/>
<circle cx="390.1" cy="466.1" r="5" fill="#2563EB" stroke="white" stroke-width="1"/>
<circle cx="439.9" cy="439.9" r="5" fill="#2563EB" stroke="white" stroke-width="1"/>
<circle cx="318.8" cy="455.4" r="5" fill="#2563EB" stroke="white" stroke-width="1"/>
<circle cx="376.7" cy="381.7" r="5" fill="#2563EB" stroke="white" stroke-width="1"/>
<circle cx="429.8" cy="416.0" r="5" fill="#2563EB" stroke="white" stroke-width="1"/>
<circle cx="387.6" cy="440.1" r="5" fill="#2563EB" stroke="white" stroke-width="1"/>
<circle cx="413.5" cy="396.0" r="5" fill="#2563EB" stroke="white" stroke-width="1"/>
<circle cx="398.6" cy="442.3" r="5" fill="#2563EB" stroke="white" stroke-width="1"/>
<circle cx="336.6" cy="408.4" r="5" fill="#2563EB" stroke="white" stroke-width="1"/>
<circle cx="424.3" cy="451.1" r="5" fill="#2563EB" stroke="white" stroke-width="1"/>
<circle cx="347.4" cy="465.9" r="5" fill="#2563EB" stroke="white" stroke-width="1"/>
<circle cx="497.4" cy="395.5" r="5" fill="#2563EB" stroke="white" stroke-width="1"/>
<circle cx="364.6" cy="412.3" r="5" fill="#2563EB" stroke="white" stroke-width="1"/>
<circle cx="431.1" cy="414.7" r="5" fill="#2563EB" stroke="white" stroke-width="1"/>
<circle cx="392.9" cy="433.9" r="5" fill="#2563EB" stroke="white" stroke-width="1"/>
<circle cx="446.0" cy="474.7" r="5" fill="#2563EB" stroke="white" stroke-width="1"/>
<circle cx="359.1" cy="468.9" r="5" fill="#2563EB" stroke="white" stroke-width="1"/>
<circle cx="448.6" cy="442.7" r="5" fill="#2563EB" stroke="white" stroke-width="1"/>
<circle cx="385.9" cy="457.3" r="5" fill="#2563EB" stroke="white" stroke-width="1"/>
<circle cx="463.4" cy="407.9" r="5" fill="#2563EB" stroke="white" stroke-width="1"/>
<circle cx="427.7" cy="441.1" r="5" fill="#2563EB" stroke="white" stroke-width="1"/>
<circle cx="400.7" cy="419.3" r="5" fill="#2563EB" stroke="white" stroke-width="1"/>
<circle cx="349.2" cy="451.0" r="5" fill="#2563EB" stroke="white" stroke-width="1"/>
<circle cx="435.7" cy="439.0" r="5" fill="#2563EB" stroke="white" stroke-width="1"/>
<circle cx="419.0" cy="431.7" r="5" fill="#2563EB" stroke="white" stroke-width="1"/>
<circle cx="484.5" cy="406.4" r="5" fill="#2563EB" stroke="white" stroke-width="1"/>
<circle cx="371.7" cy="425.1" r="5" fill="#2563EB" stroke="white" stroke-width="1"/>
<circle cx="423.8" cy="445.8" r="5" fill="#2563EB" stroke="white" stroke-width="1"/>
<circle cx="421.2" cy="440.2" r="5" fill="#2563EB" stroke="white" stroke-width="1"/>
<circle cx="408.6" cy="472.7" r="5" fill="#2563EB" stroke="white" stroke-width="1"/>
<circle cx="404.4" cy="397.2" r="5" fill="#2563EB" stroke="white" stroke-width="1"/>
<circle cx="403.0" cy="401.5" r="5" fill="#2563EB" stroke="white" stroke-width="1"/>
<circle cx="359.4" cy="455.1" r="5" fill="#2563EB" stroke="white" stroke-width="1"/>
<circle cx="336.1" cy="468.9" r="5" fill="#2563EB" stroke="white" stroke-width="1"/>
<circle cx="370.6" cy="479.4" r="5" fill="#2563EB" stroke="white" stroke-width="1"/>
<circle cx="425.8" cy="428.6" r="5" fill="#2563EB" stroke="white" stroke-width="1"/>
<circle cx="477.2" cy="414.1" r="5" fill="#2563EB" stroke="white" stroke-width="1"/>
<circle cx="447.4" cy="371.0" r="5" fill="#2563EB" stroke="white" stroke-width="1"/>
<circle cx="451.7" cy="419.8" r="5" fill="#2563EB" stroke="white" stroke-width="1"/>
<circle cx="436.2" cy="450.3" r="5" fill="#2563EB" stroke="white" stroke-width="1"/>
<circle cx="431.8" cy="494.5" r="5" fill="#2563EB" stroke="white" stroke-width="1"/>
<circle cx="403.0" cy="402.6" r="5" fill="#2563EB" stroke="white" stroke-width="1"/>
<circle cx="435.9" cy="425.4" r="5" fill="#2563EB" stroke="white" stroke-width="1"/>
<text x="435.0" y="618" text-anchor="middle" font-family="Aptos, Segoe UI, Arial, sans-serif" font-size="22" font-weight="400" fill="#64748B">Trait score</text>
<text x="165" y="275" text-anchor="start" font-family="Aptos, Segoe UI, Arial, sans-serif" font-size="22" font-weight="400" fill="#64748B">Behavior</text>
<text x="425.0" y="652" text-anchor="middle" font-family="Aptos, Segoe UI, Arial, sans-serif" font-size="22" font-weight="400" fill="#64748B">Wide scatter: one observation mixes trait signal with situation and chance.</text>
<rect x="840" y="165" width="670" height="555" rx="24" fill="white" stroke="#D8E0EA" stroke-width="3" filter="url(#shadow)"/>
<text x="1175.0" y="223" text-anchor="middle" font-family="Aptos, Segoe UI, Arial, sans-serif" font-size="34" font-weight="700" fill="#1F2937">Average across 20 situations</text>
<text x="1175.0" y="265" text-anchor="middle" font-family="Aptos, Segoe UI, Arial, sans-serif" font-size="30" font-weight="400" fill="#0F766E">r = .72</text>
<rect x="905" y="290" width="560" height="290" rx="10" fill="#F8FBFF" stroke="#D8E0EA" stroke-width="2"/>
<line x1="1017.0" y1="290" x2="1017.0" y2="580" stroke="#CBD5E1" stroke-width="1"/>
<line x1="905" y1="348.0" x2="1465" y2="348.0" stroke="#CBD5E1" stroke-width="1"/>
<line x1="1129.0" y1="290" x2="1129.0" y2="580" stroke="#CBD5E1" stroke-width="1"/>
<line x1="905" y1="406.0" x2="1465" y2="406.0" stroke="#CBD5E1" stroke-width="1"/>
<line x1="1241.0" y1="290" x2="1241.0" y2="580" stroke="#CBD5E1" stroke-width="1"/>
<line x1="905" y1="464.0" x2="1465" y2="464.0" stroke="#CBD5E1" stroke-width="1"/>
<line x1="1353.0" y1="290" x2="1353.0" y2="580" stroke="#CBD5E1" stroke-width="1"/>
<line x1="905" y1="522.0" x2="1465" y2="522.0" stroke="#CBD5E1" stroke-width="1"/>
<line x1="935" y1="500" x2="1435" y2="370" stroke="#0F766E" stroke-width="5" stroke-linecap="round"/>
<circle cx="1174.2" cy="432.1" r="5" fill="#0F766E" stroke="white" stroke-width="1"/>
<circle cx="1141.3" cy="448.3" r="5" fill="#0F766E" stroke="white" stroke-width="1"/>
<circle cx="1323.2" cy="407.6" r="5" fill="#0F766E" stroke="white" stroke-width="1"/>
<circle cx="1174.4" cy="408.9" r="5" fill="#0F766E" stroke="white" stroke-width="1"/>
<circle cx="1158.2" cy="415.3" r="5" fill="#0F766E" stroke="white" stroke-width="1"/>
<circle cx="1170.9" cy="441.9" r="5" fill="#0F766E" stroke="white" stroke-width="1"/>
<circle cx="1122.3" cy="435.0" r="5" fill="#0F766E" stroke="white" stroke-width="1"/>
<circle cx="1111.8" cy="472.9" r="5" fill="#0F766E" stroke="white" stroke-width="1"/>
<circle cx="1175.5" cy="456.5" r="5" fill="#0F766E" stroke="white" stroke-width="1"/>
<circle cx="1125.7" cy="451.8" r="5" fill="#0F766E" stroke="white" stroke-width="1"/>
<circle cx="1189.6" cy="389.8" r="5" fill="#0F766E" stroke="white" stroke-width="1"/>
<circle cx="1137.5" cy="445.2" r="5" fill="#0F766E" stroke="white" stroke-width="1"/>
<circle cx="1057.4" cy="506.0" r="5" fill="#0F766E" stroke="white" stroke-width="1"/>
<circle cx="1081.3" cy="458.5" r="5" fill="#0F766E" stroke="white" stroke-width="1"/>
<circle cx="1104.6" cy="467.6" r="5" fill="#0F766E" stroke="white" stroke-width="1"/>
<circle cx="1046.8" cy="492.1" r="5" fill="#0F766E" stroke="white" stroke-width="1"/>
<circle cx="1144.3" cy="432.6" r="5" fill="#0F766E" stroke="white" stroke-width="1"/>
<circle cx="1133.5" cy="482.4" r="5" fill="#0F766E" stroke="white" stroke-width="1"/>
<circle cx="1196.1" cy="460.3" r="5" fill="#0F766E" stroke="white" stroke-width="1"/>
<circle cx="1104.2" cy="486.9" r="5" fill="#0F766E" stroke="white" stroke-width="1"/>
<circle cx="1136.5" cy="419.4" r="5" fill="#0F766E" stroke="white" stroke-width="1"/>
<circle cx="1177.7" cy="425.7" r="5" fill="#0F766E" stroke="white" stroke-width="1"/>
<circle cx="1186.1" cy="437.9" r="5" fill="#0F766E" stroke="white" stroke-width="1"/>
<circle cx="1096.2" cy="472.8" r="5" fill="#0F766E" stroke="white" stroke-width="1"/>
<circle cx="1226.0" cy="395.4" r="5" fill="#0F766E" stroke="white" stroke-width="1"/>
<circle cx="1116.4" cy="423.0" r="5" fill="#0F766E" stroke="white" stroke-width="1"/>
<circle cx="1209.4" cy="431.8" r="5" fill="#0F766E" stroke="white" stroke-width="1"/>
<circle cx="1133.1" cy="438.4" r="5" fill="#0F766E" stroke="white" stroke-width="1"/>
<circle cx="1126.9" cy="394.8" r="5" fill="#0F766E" stroke="white" stroke-width="1"/>
<circle cx="1084.8" cy="448.7" r="5" fill="#0F766E" stroke="white" stroke-width="1"/>
<circle cx="1141.9" cy="448.0" r="5" fill="#0F766E" stroke="white" stroke-width="1"/>
<circle cx="1270.2" cy="385.9" r="5" fill="#0F766E" stroke="white" stroke-width="1"/>
<circle cx="1115.8" cy="448.0" r="5" fill="#0F766E" stroke="white" stroke-width="1"/>
<circle cx="1226.7" cy="394.7" r="5" fill="#0F766E" stroke="white" stroke-width="1"/>
<circle cx="1216.1" cy="405.5" r="5" fill="#0F766E" stroke="white" stroke-width="1"/>
<circle cx="1128.4" cy="456.5" r="5" fill="#0F766E" stroke="white" stroke-width="1"/>
<circle cx="1205.3" cy="419.8" r="5" fill="#0F766E" stroke="white" stroke-width="1"/>
<circle cx="1219.2" cy="403.8" r="5" fill="#0F766E" stroke="white" stroke-width="1"/>
<circle cx="1132.9" cy="459.0" r="5" fill="#0F766E" stroke="white" stroke-width="1"/>
<circle cx="1121.2" cy="446.7" r="5" fill="#0F766E" stroke="white" stroke-width="1"/>
<circle cx="1205.5" cy="437.0" r="5" fill="#0F766E" stroke="white" stroke-width="1"/>
<circle cx="1166.5" cy="404.5" r="5" fill="#0F766E" stroke="white" stroke-width="1"/>
<circle cx="1256.9" cy="364.0" r="5" fill="#0F766E" stroke="white" stroke-width="1"/>
<circle cx="1170.6" cy="448.9" r="5" fill="#0F766E" stroke="white" stroke-width="1"/>
<circle cx="1089.6" cy="441.4" r="5" fill="#0F766E" stroke="white" stroke-width="1"/>
<circle cx="1146.0" cy="435.4" r="5" fill="#0F766E" stroke="white" stroke-width="1"/>
<circle cx="1088.0" cy="458.5" r="5" fill="#0F766E" stroke="white" stroke-width="1"/>
<circle cx="1186.9" cy="429.4" r="5" fill="#0F766E" stroke="white" stroke-width="1"/>
<circle cx="1184.4" cy="419.0" r="5" fill="#0F766E" stroke="white" stroke-width="1"/>
<circle cx="1127.4" cy="424.0" r="5" fill="#0F766E" stroke="white" stroke-width="1"/>
<circle cx="1103.1" cy="481.6" r="5" fill="#0F766E" stroke="white" stroke-width="1"/>
<circle cx="1194.2" cy="399.0" r="5" fill="#0F766E" stroke="white" stroke-width="1"/>
<circle cx="1129.1" cy="451.0" r="5" fill="#0F766E" stroke="white" stroke-width="1"/>
<circle cx="1211.0" cy="438.9" r="5" fill="#0F766E" stroke="white" stroke-width="1"/>
<circle cx="1098.3" cy="457.7" r="5" fill="#0F766E" stroke="white" stroke-width="1"/>
<circle cx="1134.4" cy="429.4" r="5" fill="#0F766E" stroke="white" stroke-width="1"/>
<circle cx="1120.6" cy="450.3" r="5" fill="#0F766E" stroke="white" stroke-width="1"/>
<circle cx="1095.4" cy="451.3" r="5" fill="#0F766E" stroke="white" stroke-width="1"/>
<circle cx="1287.6" cy="393.9" r="5" fill="#0F766E" stroke="white" stroke-width="1"/>
<circle cx="1234.4" cy="418.0" r="5" fill="#0F766E" stroke="white" stroke-width="1"/>
<circle cx="1116.4" cy="428.1" r="5" fill="#0F766E" stroke="white" stroke-width="1"/>
<circle cx="1189.1" cy="443.4" r="5" fill="#0F766E" stroke="white" stroke-width="1"/>
<circle cx="1056.4" cy="450.4" r="5" fill="#0F766E" stroke="white" stroke-width="1"/>
<circle cx="1212.6" cy="407.0" r="5" fill="#0F766E" stroke="white" stroke-width="1"/>
<circle cx="1204.0" cy="423.5" r="5" fill="#0F766E" stroke="white" stroke-width="1"/>
<circle cx="1131.0" cy="449.4" r="5" fill="#0F766E" stroke="white" stroke-width="1"/>
<circle cx="1130.5" cy="451.0" r="5" fill="#0F766E" stroke="white" stroke-width="1"/>
<circle cx="1161.1" cy="434.1" r="5" fill="#0F766E" stroke="white" stroke-width="1"/>
<circle cx="1172.0" cy="430.4" r="5" fill="#0F766E" stroke="white" stroke-width="1"/>
<circle cx="1130.1" cy="447.9" r="5" fill="#0F766E" stroke="white" stroke-width="1"/>
<circle cx="1105.1" cy="496.2" r="5" fill="#0F766E" stroke="white" stroke-width="1"/>
<circle cx="1135.3" cy="488.8" r="5" fill="#0F766E" stroke="white" stroke-width="1"/>
<circle cx="1126.7" cy="438.7" r="5" fill="#0F766E" stroke="white" stroke-width="1"/>
<circle cx="1188.7" cy="436.8" r="5" fill="#0F766E" stroke="white" stroke-width="1"/>
<circle cx="1153.1" cy="448.7" r="5" fill="#0F766E" stroke="white" stroke-width="1"/>
<circle cx="1160.8" cy="437.2" r="5" fill="#0F766E" stroke="white" stroke-width="1"/>
<circle cx="1063.6" cy="493.4" r="5" fill="#0F766E" stroke="white" stroke-width="1"/>
<circle cx="1129.1" cy="411.7" r="5" fill="#0F766E" stroke="white" stroke-width="1"/>
<circle cx="1128.6" cy="445.4" r="5" fill="#0F766E" stroke="white" stroke-width="1"/>
<circle cx="1122.2" cy="451.5" r="5" fill="#0F766E" stroke="white" stroke-width="1"/>
<text x="1185.0" y="618" text-anchor="middle" font-family="Aptos, Segoe UI, Arial, sans-serif" font-size="22" font-weight="400" fill="#64748B">Trait score</text>
<text x="915" y="275" text-anchor="start" font-family="Aptos, Segoe UI, Arial, sans-serif" font-size="22" font-weight="400" fill="#64748B">Behavior</text>
<text x="1175.0" y="652" text-anchor="middle" font-family="Aptos, Segoe UI, Arial, sans-serif" font-size="22" font-weight="400" fill="#64748B">Tighter pattern: aggregation cancels noise and clarifies the trait signal.</text>
<rect x="230" y="750" width="1140" height="90" rx="18" fill="#ECFDF5" stroke="#99F6E4" stroke-width="2"/>
<text x="800" y="805" text-anchor="middle" font-family="Aptos, Segoe UI, Arial, sans-serif" font-size="30" font-weight="400" fill="#1F2937">Teaching point: traits predict patterns over time better than isolated moments.</text>
</svg>