<?xml version="1.0" encoding="utf-8" standalone="no"?>
<!DOCTYPE svg PUBLIC "-//W3C//DTD SVG 1.1//EN"
  "http://www.w3.org/Graphics/SVG/1.1/DTD/svg11.dtd">
<svg xmlns:xlink="http://www.w3.org/1999/xlink" width="1152pt" height="648pt" viewBox="0 0 1152 648" xmlns="http://www.w3.org/2000/svg" version="1.1">
 <metadata>
  <rdf:RDF xmlns:dc="http://purl.org/dc/elements/1.1/" xmlns:cc="http://creativecommons.org/ns#" xmlns:rdf="http://www.w3.org/1999/02/22-rdf-syntax-ns#">
   <cc:Work>
    <dc:type rdf:resource="http://purl.org/dc/dcmitype/StillImage"/>
    <dc:date>2026-06-22T19:49:40.225755</dc:date>
    <dc:format>image/svg+xml</dc:format>
    <dc:creator>
     <cc:Agent>
      <dc:title>Matplotlib v3.10.8, https://matplotlib.org/</dc:title>
     </cc:Agent>
    </dc:creator>
   </cc:Work>
  </rdf:RDF>
 </metadata>
 <defs>
  <style type="text/css">*{stroke-linejoin: round; stroke-linecap: butt}</style>
 </defs>
 <g id="figure_1">
  <g id="patch_1">
   <path d="M 0 648 
L 1152 648 
L 1152 0 
L 0 0 
z
" style="fill: #ffffff"/>
  </g>
  <g id="axes_1">
   <g id="line2d_1">
    <path d="M 576 154.8 
L 576 334.8 
" clip-path="url(#p01ce887c63)" style="fill: none; stroke: #6d597a; stroke-opacity: 0.35; stroke-linecap: square"/>
   </g>
   <g id="line2d_2">
    <path d="M 806.4 198 
L 576 334.8 
" clip-path="url(#p01ce887c63)" style="fill: none; stroke: #e76f51; stroke-opacity: 0.35; stroke-linecap: square"/>
   </g>
   <g id="line2d_3">
    <path d="M 1040.4 205.2 
L 576 334.8 
" clip-path="url(#p01ce887c63)" style="fill: none; stroke: #3a7d8c; stroke-opacity: 0.35; stroke-linecap: square"/>
   </g>
   <g id="line2d_4">
    <path d="M 946.8 342 
L 576 334.8 
" clip-path="url(#p01ce887c63)" style="fill: none; stroke: #2f5d7c; stroke-opacity: 0.35; stroke-linecap: square"/>
   </g>
   <g id="line2d_5">
    <path d="M 1015.2 457.2 
L 576 334.8 
" clip-path="url(#p01ce887c63)" style="fill: none; stroke: #5269a5; stroke-opacity: 0.35; stroke-linecap: square"/>
   </g>
   <g id="line2d_6">
    <path d="M 813.6 486 
L 576 334.8 
" clip-path="url(#p01ce887c63)" style="fill: none; stroke: #5b8e4f; stroke-opacity: 0.35; stroke-linecap: square"/>
   </g>
   <g id="line2d_7">
    <path d="M 576 536.4 
L 576 334.8 
" clip-path="url(#p01ce887c63)" style="fill: none; stroke: #2a9d8f; stroke-opacity: 0.35; stroke-linecap: square"/>
   </g>
   <g id="line2d_8">
    <path d="M 338.4 486 
L 576 334.8 
" clip-path="url(#p01ce887c63)" style="fill: none; stroke: #e9c46a; stroke-opacity: 0.35; stroke-linecap: square"/>
   </g>
   <g id="line2d_9">
    <path d="M 133.2 457.2 
L 576 334.8 
" clip-path="url(#p01ce887c63)" style="fill: none; stroke: #8c6d3a; stroke-opacity: 0.35; stroke-linecap: square"/>
   </g>
   <g id="line2d_10">
    <path d="M 212.4 342 
L 576 334.8 
" clip-path="url(#p01ce887c63)" style="fill: none; stroke: #4d4d4d; stroke-opacity: 0.35; stroke-linecap: square"/>
   </g>
   <g id="line2d_11">
    <path d="M 111.6 205.2 
L 576 334.8 
" clip-path="url(#p01ce887c63)" style="fill: none; stroke: #b77d29; stroke-opacity: 0.35; stroke-linecap: square"/>
   </g>
   <g id="line2d_12">
    <path d="M 349.2 198 
L 576 334.8 
" clip-path="url(#p01ce887c63)" style="fill: none; stroke: #b45757; stroke-opacity: 0.35; stroke-linecap: square"/>
   </g>
   <g id="text_1">
    <!-- Fig 1.5  Psychology Is Broader Than Therapy -->
    <g style="fill: #222222" transform="translate(50.4 45.584687) scale(0.22 -0.22)">
     <defs>
      <path id="DejaVuSans-Bold-46" d="M 588 4666 
L 3834 4666 
L 3834 3756 
L 1791 3756 
L 1791 2888 
L 3713 2888 
L 3713 1978 
L 1791 1978 
L 1791 0 
L 588 0 
L 588 4666 
z
" transform="scale(0.015625)"/>
      <path id="DejaVuSans-Bold-69" d="M 538 3500 
L 1656 3500 
L 1656 0 
L 538 0 
L 538 3500 
z
M 538 4863 
L 1656 4863 
L 1656 3950 
L 538 3950 
L 538 4863 
z
" transform="scale(0.015625)"/>
      <path id="DejaVuSans-Bold-67" d="M 2919 594 
Q 2688 288 2409 144 
Q 2131 0 1766 0 
Q 1125 0 706 504 
Q 288 1009 288 1791 
Q 288 2575 706 3076 
Q 1125 3578 1766 3578 
Q 2131 3578 2409 3434 
Q 2688 3291 2919 2981 
L 2919 3500 
L 4044 3500 
L 4044 353 
Q 4044 -491 3511 -936 
Q 2978 -1381 1966 -1381 
Q 1638 -1381 1331 -1331 
Q 1025 -1281 716 -1178 
L 716 -306 
Q 1009 -475 1290 -558 
Q 1572 -641 1856 -641 
Q 2406 -641 2662 -400 
Q 2919 -159 2919 353 
L 2919 594 
z
M 2181 2772 
Q 1834 2772 1640 2515 
Q 1447 2259 1447 1791 
Q 1447 1309 1634 1061 
Q 1822 813 2181 813 
Q 2531 813 2725 1069 
Q 2919 1325 2919 1791 
Q 2919 2259 2725 2515 
Q 2531 2772 2181 2772 
z
" transform="scale(0.015625)"/>
      <path id="DejaVuSans-Bold-20" transform="scale(0.015625)"/>
      <path id="DejaVuSans-Bold-31" d="M 750 831 
L 1813 831 
L 1813 3847 
L 722 3622 
L 722 4441 
L 1806 4666 
L 2950 4666 
L 2950 831 
L 4013 831 
L 4013 0 
L 750 0 
L 750 831 
z
" transform="scale(0.015625)"/>
      <path id="DejaVuSans-Bold-2e" d="M 653 1209 
L 1778 1209 
L 1778 0 
L 653 0 
L 653 1209 
z
" transform="scale(0.015625)"/>
      <path id="DejaVuSans-Bold-35" d="M 678 4666 
L 3669 4666 
L 3669 3781 
L 1638 3781 
L 1638 3059 
Q 1775 3097 1914 3117 
Q 2053 3138 2203 3138 
Q 3056 3138 3531 2711 
Q 4006 2284 4006 1522 
Q 4006 766 3489 337 
Q 2972 -91 2053 -91 
Q 1656 -91 1267 -14 
Q 878 63 494 219 
L 494 1166 
Q 875 947 1217 837 
Q 1559 728 1863 728 
Q 2300 728 2551 942 
Q 2803 1156 2803 1522 
Q 2803 1891 2551 2103 
Q 2300 2316 1863 2316 
Q 1603 2316 1309 2248 
Q 1016 2181 678 2041 
L 678 4666 
z
" transform="scale(0.015625)"/>
      <path id="DejaVuSans-Bold-50" d="M 588 4666 
L 2584 4666 
Q 3475 4666 3951 4270 
Q 4428 3875 4428 3144 
Q 4428 2409 3951 2014 
Q 3475 1619 2584 1619 
L 1791 1619 
L 1791 0 
L 588 0 
L 588 4666 
z
M 1791 3794 
L 1791 2491 
L 2456 2491 
Q 2806 2491 2997 2661 
Q 3188 2831 3188 3144 
Q 3188 3456 2997 3625 
Q 2806 3794 2456 3794 
L 1791 3794 
z
" transform="scale(0.015625)"/>
      <path id="DejaVuSans-Bold-73" d="M 3272 3391 
L 3272 2541 
Q 2913 2691 2578 2766 
Q 2244 2841 1947 2841 
Q 1628 2841 1473 2761 
Q 1319 2681 1319 2516 
Q 1319 2381 1436 2309 
Q 1553 2238 1856 2203 
L 2053 2175 
Q 2913 2066 3209 1816 
Q 3506 1566 3506 1031 
Q 3506 472 3093 190 
Q 2681 -91 1863 -91 
Q 1516 -91 1145 -36 
Q 775 19 384 128 
L 384 978 
Q 719 816 1070 734 
Q 1422 653 1784 653 
Q 2113 653 2278 743 
Q 2444 834 2444 1013 
Q 2444 1163 2330 1236 
Q 2216 1309 1875 1350 
L 1678 1375 
Q 931 1469 631 1722 
Q 331 1975 331 2491 
Q 331 3047 712 3315 
Q 1094 3584 1881 3584 
Q 2191 3584 2531 3537 
Q 2872 3491 3272 3391 
z
" transform="scale(0.015625)"/>
      <path id="DejaVuSans-Bold-79" d="M 78 3500 
L 1197 3500 
L 2138 1125 
L 2938 3500 
L 4056 3500 
L 2584 -331 
Q 2363 -916 2067 -1148 
Q 1772 -1381 1288 -1381 
L 641 -1381 
L 641 -647 
L 991 -647 
Q 1275 -647 1404 -556 
Q 1534 -466 1606 -231 
L 1638 -134 
L 78 3500 
z
" transform="scale(0.015625)"/>
      <path id="DejaVuSans-Bold-63" d="M 3366 3391 
L 3366 2478 
Q 3138 2634 2908 2709 
Q 2678 2784 2431 2784 
Q 1963 2784 1702 2511 
Q 1441 2238 1441 1747 
Q 1441 1256 1702 982 
Q 1963 709 2431 709 
Q 2694 709 2930 787 
Q 3166 866 3366 1019 
L 3366 103 
Q 3103 6 2833 -42 
Q 2563 -91 2291 -91 
Q 1344 -91 809 395 
Q 275 881 275 1747 
Q 275 2613 809 3098 
Q 1344 3584 2291 3584 
Q 2566 3584 2833 3536 
Q 3100 3488 3366 3391 
z
" transform="scale(0.015625)"/>
      <path id="DejaVuSans-Bold-68" d="M 4056 2131 
L 4056 0 
L 2931 0 
L 2931 347 
L 2931 1625 
Q 2931 2084 2911 2256 
Q 2891 2428 2841 2509 
Q 2775 2619 2662 2680 
Q 2550 2741 2406 2741 
Q 2056 2741 1856 2470 
Q 1656 2200 1656 1722 
L 1656 0 
L 538 0 
L 538 4863 
L 1656 4863 
L 1656 2988 
Q 1909 3294 2193 3439 
Q 2478 3584 2822 3584 
Q 3428 3584 3742 3212 
Q 4056 2841 4056 2131 
z
" transform="scale(0.015625)"/>
      <path id="DejaVuSans-Bold-6f" d="M 2203 2784 
Q 1831 2784 1636 2517 
Q 1441 2250 1441 1747 
Q 1441 1244 1636 976 
Q 1831 709 2203 709 
Q 2569 709 2762 976 
Q 2956 1244 2956 1747 
Q 2956 2250 2762 2517 
Q 2569 2784 2203 2784 
z
M 2203 3584 
Q 3106 3584 3614 3096 
Q 4122 2609 4122 1747 
Q 4122 884 3614 396 
Q 3106 -91 2203 -91 
Q 1297 -91 786 396 
Q 275 884 275 1747 
Q 275 2609 786 3096 
Q 1297 3584 2203 3584 
z
" transform="scale(0.015625)"/>
      <path id="DejaVuSans-Bold-6c" d="M 538 4863 
L 1656 4863 
L 1656 0 
L 538 0 
L 538 4863 
z
" transform="scale(0.015625)"/>
      <path id="DejaVuSans-Bold-49" d="M 588 4666 
L 1791 4666 
L 1791 0 
L 588 0 
L 588 4666 
z
" transform="scale(0.015625)"/>
      <path id="DejaVuSans-Bold-42" d="M 2456 2859 
Q 2741 2859 2887 2984 
Q 3034 3109 3034 3353 
Q 3034 3594 2887 3720 
Q 2741 3847 2456 3847 
L 1791 3847 
L 1791 2859 
L 2456 2859 
z
M 2497 819 
Q 2859 819 3042 972 
Q 3225 1125 3225 1434 
Q 3225 1738 3044 1889 
Q 2863 2041 2497 2041 
L 1791 2041 
L 1791 819 
L 2497 819 
z
M 3616 2497 
Q 4003 2384 4215 2081 
Q 4428 1778 4428 1338 
Q 4428 663 3972 331 
Q 3516 0 2584 0 
L 588 0 
L 588 4666 
L 2394 4666 
Q 3366 4666 3802 4372 
Q 4238 4078 4238 3431 
Q 4238 3091 4078 2852 
Q 3919 2613 3616 2497 
z
" transform="scale(0.015625)"/>
      <path id="DejaVuSans-Bold-72" d="M 3138 2547 
Q 2991 2616 2845 2648 
Q 2700 2681 2553 2681 
Q 2122 2681 1889 2404 
Q 1656 2128 1656 1613 
L 1656 0 
L 538 0 
L 538 3500 
L 1656 3500 
L 1656 2925 
Q 1872 3269 2151 3426 
Q 2431 3584 2822 3584 
Q 2878 3584 2943 3579 
Q 3009 3575 3134 3559 
L 3138 2547 
z
" transform="scale(0.015625)"/>
      <path id="DejaVuSans-Bold-61" d="M 2106 1575 
Q 1756 1575 1579 1456 
Q 1403 1338 1403 1106 
Q 1403 894 1545 773 
Q 1688 653 1941 653 
Q 2256 653 2472 879 
Q 2688 1106 2688 1447 
L 2688 1575 
L 2106 1575 
z
M 3816 1997 
L 3816 0 
L 2688 0 
L 2688 519 
Q 2463 200 2181 54 
Q 1900 -91 1497 -91 
Q 953 -91 614 226 
Q 275 544 275 1050 
Q 275 1666 698 1953 
Q 1122 2241 2028 2241 
L 2688 2241 
L 2688 2328 
Q 2688 2594 2478 2717 
Q 2269 2841 1825 2841 
Q 1466 2841 1156 2769 
Q 847 2697 581 2553 
L 581 3406 
Q 941 3494 1303 3539 
Q 1666 3584 2028 3584 
Q 2975 3584 3395 3211 
Q 3816 2838 3816 1997 
z
" transform="scale(0.015625)"/>
      <path id="DejaVuSans-Bold-64" d="M 2919 2988 
L 2919 4863 
L 4044 4863 
L 4044 0 
L 2919 0 
L 2919 506 
Q 2688 197 2409 53 
Q 2131 -91 1766 -91 
Q 1119 -91 703 423 
Q 288 938 288 1747 
Q 288 2556 703 3070 
Q 1119 3584 1766 3584 
Q 2128 3584 2408 3439 
Q 2688 3294 2919 2988 
z
M 2181 722 
Q 2541 722 2730 984 
Q 2919 1247 2919 1747 
Q 2919 2247 2730 2509 
Q 2541 2772 2181 2772 
Q 1825 2772 1636 2509 
Q 1447 2247 1447 1747 
Q 1447 1247 1636 984 
Q 1825 722 2181 722 
z
" transform="scale(0.015625)"/>
      <path id="DejaVuSans-Bold-65" d="M 4031 1759 
L 4031 1441 
L 1416 1441 
Q 1456 1047 1700 850 
Q 1944 653 2381 653 
Q 2734 653 3104 758 
Q 3475 863 3866 1075 
L 3866 213 
Q 3469 63 3072 -14 
Q 2675 -91 2278 -91 
Q 1328 -91 801 392 
Q 275 875 275 1747 
Q 275 2603 792 3093 
Q 1309 3584 2216 3584 
Q 3041 3584 3536 3087 
Q 4031 2591 4031 1759 
z
M 2881 2131 
Q 2881 2450 2695 2645 
Q 2509 2841 2209 2841 
Q 1884 2841 1681 2658 
Q 1478 2475 1428 2131 
L 2881 2131 
z
" transform="scale(0.015625)"/>
      <path id="DejaVuSans-Bold-54" d="M 31 4666 
L 4331 4666 
L 4331 3756 
L 2784 3756 
L 2784 0 
L 1581 0 
L 1581 3756 
L 31 3756 
L 31 4666 
z
" transform="scale(0.015625)"/>
      <path id="DejaVuSans-Bold-6e" d="M 4056 2131 
L 4056 0 
L 2931 0 
L 2931 347 
L 2931 1631 
Q 2931 2084 2911 2256 
Q 2891 2428 2841 2509 
Q 2775 2619 2662 2680 
Q 2550 2741 2406 2741 
Q 2056 2741 1856 2470 
Q 1656 2200 1656 1722 
L 1656 0 
L 538 0 
L 538 3500 
L 1656 3500 
L 1656 2988 
Q 1909 3294 2193 3439 
Q 2478 3584 2822 3584 
Q 3428 3584 3742 3212 
Q 4056 2841 4056 2131 
z
" transform="scale(0.015625)"/>
      <path id="DejaVuSans-Bold-70" d="M 1656 506 
L 1656 -1331 
L 538 -1331 
L 538 3500 
L 1656 3500 
L 1656 2988 
Q 1888 3294 2169 3439 
Q 2450 3584 2816 3584 
Q 3463 3584 3878 3070 
Q 4294 2556 4294 1747 
Q 4294 938 3878 423 
Q 3463 -91 2816 -91 
Q 2450 -91 2169 54 
Q 1888 200 1656 506 
z
M 2400 2772 
Q 2041 2772 1848 2508 
Q 1656 2244 1656 1747 
Q 1656 1250 1848 986 
Q 2041 722 2400 722 
Q 2759 722 2948 984 
Q 3138 1247 3138 1747 
Q 3138 2247 2948 2509 
Q 2759 2772 2400 2772 
z
" transform="scale(0.015625)"/>
     </defs>
     <use xlink:href="#DejaVuSans-Bold-46"/>
     <use xlink:href="#DejaVuSans-Bold-69" transform="translate(68.310547 0)"/>
     <use xlink:href="#DejaVuSans-Bold-67" transform="translate(102.587891 0)"/>
     <use xlink:href="#DejaVuSans-Bold-20" transform="translate(174.169922 0)"/>
     <use xlink:href="#DejaVuSans-Bold-31" transform="translate(208.984375 0)"/>
     <use xlink:href="#DejaVuSans-Bold-2e" transform="translate(278.564453 0)"/>
     <use xlink:href="#DejaVuSans-Bold-35" transform="translate(316.552734 0)"/>
     <use xlink:href="#DejaVuSans-Bold-20" transform="translate(386.132812 0)"/>
     <use xlink:href="#DejaVuSans-Bold-20" transform="translate(420.947266 0)"/>
     <use xlink:href="#DejaVuSans-Bold-50" transform="translate(455.761719 0)"/>
     <use xlink:href="#DejaVuSans-Bold-73" transform="translate(527.302734 0)"/>
     <use xlink:href="#DejaVuSans-Bold-79" transform="translate(586.824219 0)"/>
     <use xlink:href="#DejaVuSans-Bold-63" transform="translate(652.009766 0)"/>
     <use xlink:href="#DejaVuSans-Bold-68" transform="translate(711.287109 0)"/>
     <use xlink:href="#DejaVuSans-Bold-6f" transform="translate(782.478516 0)"/>
     <use xlink:href="#DejaVuSans-Bold-6c" transform="translate(851.179688 0)"/>
     <use xlink:href="#DejaVuSans-Bold-6f" transform="translate(885.457031 0)"/>
     <use xlink:href="#DejaVuSans-Bold-67" transform="translate(954.158203 0)"/>
     <use xlink:href="#DejaVuSans-Bold-79" transform="translate(1025.740234 0)"/>
     <use xlink:href="#DejaVuSans-Bold-20" transform="translate(1090.925781 0)"/>
     <use xlink:href="#DejaVuSans-Bold-49" transform="translate(1125.740234 0)"/>
     <use xlink:href="#DejaVuSans-Bold-73" transform="translate(1162.947266 0)"/>
     <use xlink:href="#DejaVuSans-Bold-20" transform="translate(1222.46875 0)"/>
     <use xlink:href="#DejaVuSans-Bold-42" transform="translate(1257.283203 0)"/>
     <use xlink:href="#DejaVuSans-Bold-72" transform="translate(1333.503906 0)"/>
     <use xlink:href="#DejaVuSans-Bold-6f" transform="translate(1382.820312 0)"/>
     <use xlink:href="#DejaVuSans-Bold-61" transform="translate(1451.521484 0)"/>
     <use xlink:href="#DejaVuSans-Bold-64" transform="translate(1519.001953 0)"/>
     <use xlink:href="#DejaVuSans-Bold-65" transform="translate(1590.583984 0)"/>
     <use xlink:href="#DejaVuSans-Bold-72" transform="translate(1658.40625 0)"/>
     <use xlink:href="#DejaVuSans-Bold-20" transform="translate(1707.722656 0)"/>
     <use xlink:href="#DejaVuSans-Bold-54" transform="translate(1742.537109 0)"/>
     <use xlink:href="#DejaVuSans-Bold-68" transform="translate(1810.75 0)"/>
     <use xlink:href="#DejaVuSans-Bold-61" transform="translate(1881.941406 0)"/>
     <use xlink:href="#DejaVuSans-Bold-6e" transform="translate(1949.421875 0)"/>
     <use xlink:href="#DejaVuSans-Bold-20" transform="translate(2020.613281 0)"/>
     <use xlink:href="#DejaVuSans-Bold-54" transform="translate(2055.427734 0)"/>
     <use xlink:href="#DejaVuSans-Bold-68" transform="translate(2123.640625 0)"/>
     <use xlink:href="#DejaVuSans-Bold-65" transform="translate(2194.832031 0)"/>
     <use xlink:href="#DejaVuSans-Bold-72" transform="translate(2262.654297 0)"/>
     <use xlink:href="#DejaVuSans-Bold-61" transform="translate(2311.970703 0)"/>
     <use xlink:href="#DejaVuSans-Bold-70" transform="translate(2379.451172 0)"/>
     <use xlink:href="#DejaVuSans-Bold-79" transform="translate(2451.033203 0)"/>
    </g>
   </g>
   <g id="text_2">
    <!-- Therapy is one part of psychology, not the definition of the field. -->
    <g style="fill: #4d4d4d" transform="translate(50.4 71.987188) scale(0.13 -0.13)">
     <defs>
      <path id="DejaVuSans-54" d="M -19 4666 
L 3928 4666 
L 3928 4134 
L 2272 4134 
L 2272 0 
L 1638 0 
L 1638 4134 
L -19 4134 
L -19 4666 
z
" transform="scale(0.015625)"/>
      <path id="DejaVuSans-68" d="M 3513 2113 
L 3513 0 
L 2938 0 
L 2938 2094 
Q 2938 2591 2744 2837 
Q 2550 3084 2163 3084 
Q 1697 3084 1428 2787 
Q 1159 2491 1159 1978 
L 1159 0 
L 581 0 
L 581 4863 
L 1159 4863 
L 1159 2956 
Q 1366 3272 1645 3428 
Q 1925 3584 2291 3584 
Q 2894 3584 3203 3211 
Q 3513 2838 3513 2113 
z
" transform="scale(0.015625)"/>
      <path id="DejaVuSans-65" d="M 3597 1894 
L 3597 1613 
L 953 1613 
Q 991 1019 1311 708 
Q 1631 397 2203 397 
Q 2534 397 2845 478 
Q 3156 559 3463 722 
L 3463 178 
Q 3153 47 2828 -22 
Q 2503 -91 2169 -91 
Q 1331 -91 842 396 
Q 353 884 353 1716 
Q 353 2575 817 3079 
Q 1281 3584 2069 3584 
Q 2775 3584 3186 3129 
Q 3597 2675 3597 1894 
z
M 3022 2063 
Q 3016 2534 2758 2815 
Q 2500 3097 2075 3097 
Q 1594 3097 1305 2825 
Q 1016 2553 972 2059 
L 3022 2063 
z
" transform="scale(0.015625)"/>
      <path id="DejaVuSans-72" d="M 2631 2963 
Q 2534 3019 2420 3045 
Q 2306 3072 2169 3072 
Q 1681 3072 1420 2755 
Q 1159 2438 1159 1844 
L 1159 0 
L 581 0 
L 581 3500 
L 1159 3500 
L 1159 2956 
Q 1341 3275 1631 3429 
Q 1922 3584 2338 3584 
Q 2397 3584 2469 3576 
Q 2541 3569 2628 3553 
L 2631 2963 
z
" transform="scale(0.015625)"/>
      <path id="DejaVuSans-61" d="M 2194 1759 
Q 1497 1759 1228 1600 
Q 959 1441 959 1056 
Q 959 750 1161 570 
Q 1363 391 1709 391 
Q 2188 391 2477 730 
Q 2766 1069 2766 1631 
L 2766 1759 
L 2194 1759 
z
M 3341 1997 
L 3341 0 
L 2766 0 
L 2766 531 
Q 2569 213 2275 61 
Q 1981 -91 1556 -91 
Q 1019 -91 701 211 
Q 384 513 384 1019 
Q 384 1609 779 1909 
Q 1175 2209 1959 2209 
L 2766 2209 
L 2766 2266 
Q 2766 2663 2505 2880 
Q 2244 3097 1772 3097 
Q 1472 3097 1187 3025 
Q 903 2953 641 2809 
L 641 3341 
Q 956 3463 1253 3523 
Q 1550 3584 1831 3584 
Q 2591 3584 2966 3190 
Q 3341 2797 3341 1997 
z
" transform="scale(0.015625)"/>
      <path id="DejaVuSans-70" d="M 1159 525 
L 1159 -1331 
L 581 -1331 
L 581 3500 
L 1159 3500 
L 1159 2969 
Q 1341 3281 1617 3432 
Q 1894 3584 2278 3584 
Q 2916 3584 3314 3078 
Q 3713 2572 3713 1747 
Q 3713 922 3314 415 
Q 2916 -91 2278 -91 
Q 1894 -91 1617 61 
Q 1341 213 1159 525 
z
M 3116 1747 
Q 3116 2381 2855 2742 
Q 2594 3103 2138 3103 
Q 1681 3103 1420 2742 
Q 1159 2381 1159 1747 
Q 1159 1113 1420 752 
Q 1681 391 2138 391 
Q 2594 391 2855 752 
Q 3116 1113 3116 1747 
z
" transform="scale(0.015625)"/>
      <path id="DejaVuSans-79" d="M 2059 -325 
Q 1816 -950 1584 -1140 
Q 1353 -1331 966 -1331 
L 506 -1331 
L 506 -850 
L 844 -850 
Q 1081 -850 1212 -737 
Q 1344 -625 1503 -206 
L 1606 56 
L 191 3500 
L 800 3500 
L 1894 763 
L 2988 3500 
L 3597 3500 
L 2059 -325 
z
" transform="scale(0.015625)"/>
      <path id="DejaVuSans-20" transform="scale(0.015625)"/>
      <path id="DejaVuSans-69" d="M 603 3500 
L 1178 3500 
L 1178 0 
L 603 0 
L 603 3500 
z
M 603 4863 
L 1178 4863 
L 1178 4134 
L 603 4134 
L 603 4863 
z
" transform="scale(0.015625)"/>
      <path id="DejaVuSans-73" d="M 2834 3397 
L 2834 2853 
Q 2591 2978 2328 3040 
Q 2066 3103 1784 3103 
Q 1356 3103 1142 2972 
Q 928 2841 928 2578 
Q 928 2378 1081 2264 
Q 1234 2150 1697 2047 
L 1894 2003 
Q 2506 1872 2764 1633 
Q 3022 1394 3022 966 
Q 3022 478 2636 193 
Q 2250 -91 1575 -91 
Q 1294 -91 989 -36 
Q 684 19 347 128 
L 347 722 
Q 666 556 975 473 
Q 1284 391 1588 391 
Q 1994 391 2212 530 
Q 2431 669 2431 922 
Q 2431 1156 2273 1281 
Q 2116 1406 1581 1522 
L 1381 1569 
Q 847 1681 609 1914 
Q 372 2147 372 2553 
Q 372 3047 722 3315 
Q 1072 3584 1716 3584 
Q 2034 3584 2315 3537 
Q 2597 3491 2834 3397 
z
" transform="scale(0.015625)"/>
      <path id="DejaVuSans-6f" d="M 1959 3097 
Q 1497 3097 1228 2736 
Q 959 2375 959 1747 
Q 959 1119 1226 758 
Q 1494 397 1959 397 
Q 2419 397 2687 759 
Q 2956 1122 2956 1747 
Q 2956 2369 2687 2733 
Q 2419 3097 1959 3097 
z
M 1959 3584 
Q 2709 3584 3137 3096 
Q 3566 2609 3566 1747 
Q 3566 888 3137 398 
Q 2709 -91 1959 -91 
Q 1206 -91 779 398 
Q 353 888 353 1747 
Q 353 2609 779 3096 
Q 1206 3584 1959 3584 
z
" transform="scale(0.015625)"/>
      <path id="DejaVuSans-6e" d="M 3513 2113 
L 3513 0 
L 2938 0 
L 2938 2094 
Q 2938 2591 2744 2837 
Q 2550 3084 2163 3084 
Q 1697 3084 1428 2787 
Q 1159 2491 1159 1978 
L 1159 0 
L 581 0 
L 581 3500 
L 1159 3500 
L 1159 2956 
Q 1366 3272 1645 3428 
Q 1925 3584 2291 3584 
Q 2894 3584 3203 3211 
Q 3513 2838 3513 2113 
z
" transform="scale(0.015625)"/>
      <path id="DejaVuSans-74" d="M 1172 4494 
L 1172 3500 
L 2356 3500 
L 2356 3053 
L 1172 3053 
L 1172 1153 
Q 1172 725 1289 603 
Q 1406 481 1766 481 
L 2356 481 
L 2356 0 
L 1766 0 
Q 1100 0 847 248 
Q 594 497 594 1153 
L 594 3053 
L 172 3053 
L 172 3500 
L 594 3500 
L 594 4494 
L 1172 4494 
z
" transform="scale(0.015625)"/>
      <path id="DejaVuSans-66" d="M 2375 4863 
L 2375 4384 
L 1825 4384 
Q 1516 4384 1395 4259 
Q 1275 4134 1275 3809 
L 1275 3500 
L 2222 3500 
L 2222 3053 
L 1275 3053 
L 1275 0 
L 697 0 
L 697 3053 
L 147 3053 
L 147 3500 
L 697 3500 
L 697 3744 
Q 697 4328 969 4595 
Q 1241 4863 1831 4863 
L 2375 4863 
z
" transform="scale(0.015625)"/>
      <path id="DejaVuSans-63" d="M 3122 3366 
L 3122 2828 
Q 2878 2963 2633 3030 
Q 2388 3097 2138 3097 
Q 1578 3097 1268 2742 
Q 959 2388 959 1747 
Q 959 1106 1268 751 
Q 1578 397 2138 397 
Q 2388 397 2633 464 
Q 2878 531 3122 666 
L 3122 134 
Q 2881 22 2623 -34 
Q 2366 -91 2075 -91 
Q 1284 -91 818 406 
Q 353 903 353 1747 
Q 353 2603 823 3093 
Q 1294 3584 2113 3584 
Q 2378 3584 2631 3529 
Q 2884 3475 3122 3366 
z
" transform="scale(0.015625)"/>
      <path id="DejaVuSans-6c" d="M 603 4863 
L 1178 4863 
L 1178 0 
L 603 0 
L 603 4863 
z
" transform="scale(0.015625)"/>
      <path id="DejaVuSans-67" d="M 2906 1791 
Q 2906 2416 2648 2759 
Q 2391 3103 1925 3103 
Q 1463 3103 1205 2759 
Q 947 2416 947 1791 
Q 947 1169 1205 825 
Q 1463 481 1925 481 
Q 2391 481 2648 825 
Q 2906 1169 2906 1791 
z
M 3481 434 
Q 3481 -459 3084 -895 
Q 2688 -1331 1869 -1331 
Q 1566 -1331 1297 -1286 
Q 1028 -1241 775 -1147 
L 775 -588 
Q 1028 -725 1275 -790 
Q 1522 -856 1778 -856 
Q 2344 -856 2625 -561 
Q 2906 -266 2906 331 
L 2906 616 
Q 2728 306 2450 153 
Q 2172 0 1784 0 
Q 1141 0 747 490 
Q 353 981 353 1791 
Q 353 2603 747 3093 
Q 1141 3584 1784 3584 
Q 2172 3584 2450 3431 
Q 2728 3278 2906 2969 
L 2906 3500 
L 3481 3500 
L 3481 434 
z
" transform="scale(0.015625)"/>
      <path id="DejaVuSans-2c" d="M 750 794 
L 1409 794 
L 1409 256 
L 897 -744 
L 494 -744 
L 750 256 
L 750 794 
z
" transform="scale(0.015625)"/>
      <path id="DejaVuSans-64" d="M 2906 2969 
L 2906 4863 
L 3481 4863 
L 3481 0 
L 2906 0 
L 2906 525 
Q 2725 213 2448 61 
Q 2172 -91 1784 -91 
Q 1150 -91 751 415 
Q 353 922 353 1747 
Q 353 2572 751 3078 
Q 1150 3584 1784 3584 
Q 2172 3584 2448 3432 
Q 2725 3281 2906 2969 
z
M 947 1747 
Q 947 1113 1208 752 
Q 1469 391 1925 391 
Q 2381 391 2643 752 
Q 2906 1113 2906 1747 
Q 2906 2381 2643 2742 
Q 2381 3103 1925 3103 
Q 1469 3103 1208 2742 
Q 947 2381 947 1747 
z
" transform="scale(0.015625)"/>
      <path id="DejaVuSans-2e" d="M 684 794 
L 1344 794 
L 1344 0 
L 684 0 
L 684 794 
z
" transform="scale(0.015625)"/>
     </defs>
     <use xlink:href="#DejaVuSans-54"/>
     <use xlink:href="#DejaVuSans-68" transform="translate(61.083984 0)"/>
     <use xlink:href="#DejaVuSans-65" transform="translate(124.462891 0)"/>
     <use xlink:href="#DejaVuSans-72" transform="translate(185.986328 0)"/>
     <use xlink:href="#DejaVuSans-61" transform="translate(227.099609 0)"/>
     <use xlink:href="#DejaVuSans-70" transform="translate(288.378906 0)"/>
     <use xlink:href="#DejaVuSans-79" transform="translate(351.855469 0)"/>
     <use xlink:href="#DejaVuSans-20" transform="translate(411.035156 0)"/>
     <use xlink:href="#DejaVuSans-69" transform="translate(442.822266 0)"/>
     <use xlink:href="#DejaVuSans-73" transform="translate(470.605469 0)"/>
     <use xlink:href="#DejaVuSans-20" transform="translate(522.705078 0)"/>
     <use xlink:href="#DejaVuSans-6f" transform="translate(554.492188 0)"/>
     <use xlink:href="#DejaVuSans-6e" transform="translate(615.673828 0)"/>
     <use xlink:href="#DejaVuSans-65" transform="translate(679.052734 0)"/>
     <use xlink:href="#DejaVuSans-20" transform="translate(740.576172 0)"/>
     <use xlink:href="#DejaVuSans-70" transform="translate(772.363281 0)"/>
     <use xlink:href="#DejaVuSans-61" transform="translate(835.839844 0)"/>
     <use xlink:href="#DejaVuSans-72" transform="translate(897.119141 0)"/>
     <use xlink:href="#DejaVuSans-74" transform="translate(938.232422 0)"/>
     <use xlink:href="#DejaVuSans-20" transform="translate(977.441406 0)"/>
     <use xlink:href="#DejaVuSans-6f" transform="translate(1009.228516 0)"/>
     <use xlink:href="#DejaVuSans-66" transform="translate(1070.410156 0)"/>
     <use xlink:href="#DejaVuSans-20" transform="translate(1105.615234 0)"/>
     <use xlink:href="#DejaVuSans-70" transform="translate(1137.402344 0)"/>
     <use xlink:href="#DejaVuSans-73" transform="translate(1200.878906 0)"/>
     <use xlink:href="#DejaVuSans-79" transform="translate(1252.978516 0)"/>
     <use xlink:href="#DejaVuSans-63" transform="translate(1312.158203 0)"/>
     <use xlink:href="#DejaVuSans-68" transform="translate(1367.138672 0)"/>
     <use xlink:href="#DejaVuSans-6f" transform="translate(1430.517578 0)"/>
     <use xlink:href="#DejaVuSans-6c" transform="translate(1491.699219 0)"/>
     <use xlink:href="#DejaVuSans-6f" transform="translate(1519.482422 0)"/>
     <use xlink:href="#DejaVuSans-67" transform="translate(1580.664062 0)"/>
     <use xlink:href="#DejaVuSans-79" transform="translate(1644.140625 0)"/>
     <use xlink:href="#DejaVuSans-2c" transform="translate(1703.320312 0)"/>
     <use xlink:href="#DejaVuSans-20" transform="translate(1735.107422 0)"/>
     <use xlink:href="#DejaVuSans-6e" transform="translate(1766.894531 0)"/>
     <use xlink:href="#DejaVuSans-6f" transform="translate(1830.273438 0)"/>
     <use xlink:href="#DejaVuSans-74" transform="translate(1891.455078 0)"/>
     <use xlink:href="#DejaVuSans-20" transform="translate(1930.664062 0)"/>
     <use xlink:href="#DejaVuSans-74" transform="translate(1962.451172 0)"/>
     <use xlink:href="#DejaVuSans-68" transform="translate(2001.660156 0)"/>
     <use xlink:href="#DejaVuSans-65" transform="translate(2065.039062 0)"/>
     <use xlink:href="#DejaVuSans-20" transform="translate(2126.5625 0)"/>
     <use xlink:href="#DejaVuSans-64" transform="translate(2158.349609 0)"/>
     <use xlink:href="#DejaVuSans-65" transform="translate(2221.826172 0)"/>
     <use xlink:href="#DejaVuSans-66" transform="translate(2283.349609 0)"/>
     <use xlink:href="#DejaVuSans-69" transform="translate(2318.554688 0)"/>
     <use xlink:href="#DejaVuSans-6e" transform="translate(2346.337891 0)"/>
     <use xlink:href="#DejaVuSans-69" transform="translate(2409.716797 0)"/>
     <use xlink:href="#DejaVuSans-74" transform="translate(2437.5 0)"/>
     <use xlink:href="#DejaVuSans-69" transform="translate(2476.708984 0)"/>
     <use xlink:href="#DejaVuSans-6f" transform="translate(2504.492188 0)"/>
     <use xlink:href="#DejaVuSans-6e" transform="translate(2565.673828 0)"/>
     <use xlink:href="#DejaVuSans-20" transform="translate(2629.052734 0)"/>
     <use xlink:href="#DejaVuSans-6f" transform="translate(2660.839844 0)"/>
     <use xlink:href="#DejaVuSans-66" transform="translate(2722.021484 0)"/>
     <use xlink:href="#DejaVuSans-20" transform="translate(2757.226562 0)"/>
     <use xlink:href="#DejaVuSans-74" transform="translate(2789.013672 0)"/>
     <use xlink:href="#DejaVuSans-68" transform="translate(2828.222656 0)"/>
     <use xlink:href="#DejaVuSans-65" transform="translate(2891.601562 0)"/>
     <use xlink:href="#DejaVuSans-20" transform="translate(2953.125 0)"/>
     <use xlink:href="#DejaVuSans-66" transform="translate(2984.912109 0)"/>
     <use xlink:href="#DejaVuSans-69" transform="translate(3020.117188 0)"/>
     <use xlink:href="#DejaVuSans-65" transform="translate(3047.900391 0)"/>
     <use xlink:href="#DejaVuSans-6c" transform="translate(3109.423828 0)"/>
     <use xlink:href="#DejaVuSans-64" transform="translate(3137.207031 0)"/>
     <use xlink:href="#DejaVuSans-2e" transform="translate(3200.683594 0)"/>
    </g>
   </g>
   <g id="patch_2">
    <path d="M 507.6 185.04 
L 644.4 185.04 
Q 653.04 185.04 653.04 176.4 
L 653.04 133.2 
Q 653.04 124.56 644.4 124.56 
L 507.6 124.56 
Q 498.96 124.56 498.96 133.2 
L 498.96 176.4 
Q 498.96 185.04 507.6 185.04 
z
" clip-path="url(#p01ce887c63)" style="fill: #eee7f1; stroke: #6d597a; stroke-width: 1.5; stroke-linejoin: miter"/>
   </g>
   <g id="patch_3">
    <path d="M 738 228.24 
L 874.8 228.24 
Q 883.44 228.24 883.44 219.6 
L 883.44 176.4 
Q 883.44 167.76 874.8 167.76 
L 738 167.76 
Q 729.36 167.76 729.36 176.4 
L 729.36 219.6 
Q 729.36 228.24 738 228.24 
z
" clip-path="url(#p01ce887c63)" style="fill: #fce5df; stroke: #e76f51; stroke-width: 1.5; stroke-linejoin: miter"/>
   </g>
   <g id="patch_4">
    <path d="M 972 235.44 
L 1108.8 235.44 
Q 1117.44 235.44 1117.44 226.8 
L 1117.44 183.6 
Q 1117.44 174.96 1108.8 174.96 
L 972 174.96 
Q 963.36 174.96 963.36 183.6 
L 963.36 226.8 
Q 963.36 235.44 972 235.44 
z
" clip-path="url(#p01ce887c63)" style="fill: #ddecef; stroke: #3a7d8c; stroke-width: 1.5; stroke-linejoin: miter"/>
   </g>
   <g id="patch_5">
    <path d="M 878.4 372.24 
L 1015.2 372.24 
Q 1023.84 372.24 1023.84 363.6 
L 1023.84 320.4 
Q 1023.84 311.76 1015.2 311.76 
L 878.4 311.76 
Q 869.76 311.76 869.76 320.4 
L 869.76 363.6 
Q 869.76 372.24 878.4 372.24 
z
" clip-path="url(#p01ce887c63)" style="fill: #dceaf2; stroke: #2f5d7c; stroke-width: 1.5; stroke-linejoin: miter"/>
   </g>
   <g id="patch_6">
    <path d="M 946.8 487.44 
L 1083.6 487.44 
Q 1092.24 487.44 1092.24 478.8 
L 1092.24 435.6 
Q 1092.24 426.96 1083.6 426.96 
L 946.8 426.96 
Q 938.16 426.96 938.16 435.6 
L 938.16 478.8 
Q 938.16 487.44 946.8 487.44 
z
" clip-path="url(#p01ce887c63)" style="fill: #e6eaf6; stroke: #5269a5; stroke-width: 1.5; stroke-linejoin: miter"/>
   </g>
   <g id="patch_7">
    <path d="M 745.2 516.24 
L 882 516.24 
Q 890.64 516.24 890.64 507.6 
L 890.64 464.4 
Q 890.64 455.76 882 455.76 
L 745.2 455.76 
Q 736.56 455.76 736.56 464.4 
L 736.56 507.6 
Q 736.56 516.24 745.2 516.24 
z
" clip-path="url(#p01ce887c63)" style="fill: #e9f3e5; stroke: #5b8e4f; stroke-width: 1.5; stroke-linejoin: miter"/>
   </g>
   <g id="patch_8">
    <path d="M 507.6 566.64 
L 644.4 566.64 
Q 653.04 566.64 653.04 558 
L 653.04 514.8 
Q 653.04 506.16 644.4 506.16 
L 507.6 506.16 
Q 498.96 506.16 498.96 514.8 
L 498.96 558 
Q 498.96 566.64 507.6 566.64 
z
" clip-path="url(#p01ce887c63)" style="fill: #ddf3f0; stroke: #2a9d8f; stroke-width: 1.5; stroke-linejoin: miter"/>
   </g>
   <g id="patch_9">
    <path d="M 270 516.24 
L 406.8 516.24 
Q 415.44 516.24 415.44 507.6 
L 415.44 464.4 
Q 415.44 455.76 406.8 455.76 
L 270 455.76 
Q 261.36 455.76 261.36 464.4 
L 261.36 507.6 
Q 261.36 516.24 270 516.24 
z
" clip-path="url(#p01ce887c63)" style="fill: #fff5d6; stroke: #e9c46a; stroke-width: 1.5; stroke-linejoin: miter"/>
   </g>
   <g id="patch_10">
    <path d="M 64.8 487.44 
L 201.6 487.44 
Q 210.24 487.44 210.24 478.8 
L 210.24 435.6 
Q 210.24 426.96 201.6 426.96 
L 64.8 426.96 
Q 56.16 426.96 56.16 435.6 
L 56.16 478.8 
Q 56.16 487.44 64.8 487.44 
z
" clip-path="url(#p01ce887c63)" style="fill: #ede7db; stroke: #8c6d3a; stroke-width: 1.5; stroke-linejoin: miter"/>
   </g>
   <g id="patch_11">
    <path d="M 144 372.24 
L 280.8 372.24 
Q 289.44 372.24 289.44 363.6 
L 289.44 320.4 
Q 289.44 311.76 280.8 311.76 
L 144 311.76 
Q 135.36 311.76 135.36 320.4 
L 135.36 363.6 
Q 135.36 372.24 144 372.24 
z
" clip-path="url(#p01ce887c63)" style="fill: #f1f1f1; stroke: #4d4d4d; stroke-width: 1.5; stroke-linejoin: miter"/>
   </g>
   <g id="patch_12">
    <path d="M 43.2 235.44 
L 180 235.44 
Q 188.64 235.44 188.64 226.8 
L 188.64 183.6 
Q 188.64 174.96 180 174.96 
L 43.2 174.96 
Q 34.56 174.96 34.56 183.6 
L 34.56 226.8 
Q 34.56 235.44 43.2 235.44 
z
" clip-path="url(#p01ce887c63)" style="fill: #f6ebd5; stroke: #b77d29; stroke-width: 1.5; stroke-linejoin: miter"/>
   </g>
   <g id="patch_13">
    <path d="M 280.8 228.24 
L 417.6 228.24 
Q 426.24 228.24 426.24 219.6 
L 426.24 176.4 
Q 426.24 167.76 417.6 167.76 
L 280.8 167.76 
Q 272.16 167.76 272.16 176.4 
L 272.16 219.6 
Q 272.16 228.24 280.8 228.24 
z
" clip-path="url(#p01ce887c63)" style="fill: #f7e6e6; stroke: #b45757; stroke-width: 1.5; stroke-linejoin: miter"/>
   </g>
   <g id="patch_14">
    <path d="M 576 412.56 
C 596.622193 412.56 616.402531 404.366716 630.984623 389.784623 
C 645.566716 375.202531 653.76 355.422193 653.76 334.8 
C 653.76 314.177807 645.566716 294.397469 630.984623 279.815377 
C 616.402531 265.233284 596.622193 257.04 576 257.04 
C 555.377807 257.04 535.597469 265.233284 521.015377 279.815377 
C 506.433284 294.397469 498.24 314.177807 498.24 334.8 
C 498.24 355.422193 506.433284 375.202531 521.015377 389.784623 
C 535.597469 404.366716 555.377807 412.56 576 412.56 
z
" clip-path="url(#p01ce887c63)" style="fill: #ffffff; stroke: #222222; stroke-width: 2.2; stroke-linejoin: miter"/>
   </g>
   <g id="text_3">
    <!-- Clinical / -->
    <g style="fill: #222222" transform="translate(551.529562 152.832635) scale(0.102 -0.102)">
     <defs>
      <path id="DejaVuSans-Bold-43" d="M 4288 256 
Q 3956 84 3597 -3 
Q 3238 -91 2847 -91 
Q 1681 -91 1000 561 
Q 319 1213 319 2328 
Q 319 3447 1000 4098 
Q 1681 4750 2847 4750 
Q 3238 4750 3597 4662 
Q 3956 4575 4288 4403 
L 4288 3438 
Q 3953 3666 3628 3772 
Q 3303 3878 2944 3878 
Q 2300 3878 1931 3465 
Q 1563 3053 1563 2328 
Q 1563 1606 1931 1193 
Q 2300 781 2944 781 
Q 3303 781 3628 887 
Q 3953 994 4288 1222 
L 4288 256 
z
" transform="scale(0.015625)"/>
      <path id="DejaVuSans-Bold-2f" d="M 1644 4666 
L 2338 4666 
L 691 -594 
L 0 -594 
L 1644 4666 
z
" transform="scale(0.015625)"/>
     </defs>
     <use xlink:href="#DejaVuSans-Bold-43"/>
     <use xlink:href="#DejaVuSans-Bold-6c" transform="translate(73.388672 0)"/>
     <use xlink:href="#DejaVuSans-Bold-69" transform="translate(107.666016 0)"/>
     <use xlink:href="#DejaVuSans-Bold-6e" transform="translate(141.943359 0)"/>
     <use xlink:href="#DejaVuSans-Bold-69" transform="translate(213.134766 0)"/>
     <use xlink:href="#DejaVuSans-Bold-63" transform="translate(247.412109 0)"/>
     <use xlink:href="#DejaVuSans-Bold-61" transform="translate(306.689453 0)"/>
     <use xlink:href="#DejaVuSans-Bold-6c" transform="translate(374.169922 0)"/>
     <use xlink:href="#DejaVuSans-Bold-20" transform="translate(408.447266 0)"/>
     <use xlink:href="#DejaVuSans-Bold-2f" transform="translate(443.261719 0)"/>
    </g>
    <!-- Counseling -->
    <g style="fill: #222222" transform="translate(544.219828 162.316802) scale(0.102 -0.102)">
     <defs>
      <path id="DejaVuSans-Bold-75" d="M 500 1363 
L 500 3500 
L 1625 3500 
L 1625 3150 
Q 1625 2866 1622 2436 
Q 1619 2006 1619 1863 
Q 1619 1441 1641 1255 
Q 1663 1069 1716 984 
Q 1784 875 1895 815 
Q 2006 756 2150 756 
Q 2500 756 2700 1025 
Q 2900 1294 2900 1772 
L 2900 3500 
L 4019 3500 
L 4019 0 
L 2900 0 
L 2900 506 
Q 2647 200 2364 54 
Q 2081 -91 1741 -91 
Q 1134 -91 817 281 
Q 500 653 500 1363 
z
" transform="scale(0.015625)"/>
     </defs>
     <use xlink:href="#DejaVuSans-Bold-43"/>
     <use xlink:href="#DejaVuSans-Bold-6f" transform="translate(73.388672 0)"/>
     <use xlink:href="#DejaVuSans-Bold-75" transform="translate(142.089844 0)"/>
     <use xlink:href="#DejaVuSans-Bold-6e" transform="translate(213.28125 0)"/>
     <use xlink:href="#DejaVuSans-Bold-73" transform="translate(284.472656 0)"/>
     <use xlink:href="#DejaVuSans-Bold-65" transform="translate(343.994141 0)"/>
     <use xlink:href="#DejaVuSans-Bold-6c" transform="translate(411.816406 0)"/>
     <use xlink:href="#DejaVuSans-Bold-69" transform="translate(446.09375 0)"/>
     <use xlink:href="#DejaVuSans-Bold-6e" transform="translate(480.371094 0)"/>
     <use xlink:href="#DejaVuSans-Bold-67" transform="translate(551.5625 0)"/>
    </g>
   </g>
   <g id="text_4">
    <!-- Cognitive -->
    <g style="fill: #222222" transform="translate(779.154047 200.774719) scale(0.102 -0.102)">
     <defs>
      <path id="DejaVuSans-Bold-74" d="M 1759 4494 
L 1759 3500 
L 2913 3500 
L 2913 2700 
L 1759 2700 
L 1759 1216 
Q 1759 972 1856 886 
Q 1953 800 2241 800 
L 2816 800 
L 2816 0 
L 1856 0 
Q 1194 0 917 276 
Q 641 553 641 1216 
L 641 2700 
L 84 2700 
L 84 3500 
L 641 3500 
L 641 4494 
L 1759 4494 
z
" transform="scale(0.015625)"/>
      <path id="DejaVuSans-Bold-76" d="M 97 3500 
L 1216 3500 
L 2088 1081 
L 2956 3500 
L 4078 3500 
L 2700 0 
L 1472 0 
L 97 3500 
z
" transform="scale(0.015625)"/>
     </defs>
     <use xlink:href="#DejaVuSans-Bold-43"/>
     <use xlink:href="#DejaVuSans-Bold-6f" transform="translate(73.388672 0)"/>
     <use xlink:href="#DejaVuSans-Bold-67" transform="translate(142.089844 0)"/>
     <use xlink:href="#DejaVuSans-Bold-6e" transform="translate(213.671875 0)"/>
     <use xlink:href="#DejaVuSans-Bold-69" transform="translate(284.863281 0)"/>
     <use xlink:href="#DejaVuSans-Bold-74" transform="translate(319.140625 0)"/>
     <use xlink:href="#DejaVuSans-Bold-69" transform="translate(366.943359 0)"/>
     <use xlink:href="#DejaVuSans-Bold-76" transform="translate(401.220703 0)"/>
     <use xlink:href="#DejaVuSans-Bold-65" transform="translate(466.40625 0)"/>
    </g>
   </g>
   <g id="text_5">
    <!-- Human factors -->
    <g style="fill: #222222" transform="translate(998.164031 208.014563) scale(0.102 -0.102)">
     <defs>
      <path id="DejaVuSans-Bold-48" d="M 588 4666 
L 1791 4666 
L 1791 2888 
L 3566 2888 
L 3566 4666 
L 4769 4666 
L 4769 0 
L 3566 0 
L 3566 1978 
L 1791 1978 
L 1791 0 
L 588 0 
L 588 4666 
z
" transform="scale(0.015625)"/>
      <path id="DejaVuSans-Bold-6d" d="M 3781 2919 
Q 3994 3244 4286 3414 
Q 4578 3584 4928 3584 
Q 5531 3584 5847 3212 
Q 6163 2841 6163 2131 
L 6163 0 
L 5038 0 
L 5038 1825 
Q 5041 1866 5042 1909 
Q 5044 1953 5044 2034 
Q 5044 2406 4934 2573 
Q 4825 2741 4581 2741 
Q 4263 2741 4089 2478 
Q 3916 2216 3909 1719 
L 3909 0 
L 2784 0 
L 2784 1825 
Q 2784 2406 2684 2573 
Q 2584 2741 2328 2741 
Q 2006 2741 1831 2477 
Q 1656 2213 1656 1722 
L 1656 0 
L 531 0 
L 531 3500 
L 1656 3500 
L 1656 2988 
Q 1863 3284 2130 3434 
Q 2397 3584 2719 3584 
Q 3081 3584 3359 3409 
Q 3638 3234 3781 2919 
z
" transform="scale(0.015625)"/>
      <path id="DejaVuSans-Bold-66" d="M 2841 4863 
L 2841 4128 
L 2222 4128 
Q 1984 4128 1890 4042 
Q 1797 3956 1797 3744 
L 1797 3500 
L 2753 3500 
L 2753 2700 
L 1797 2700 
L 1797 0 
L 678 0 
L 678 2700 
L 122 2700 
L 122 3500 
L 678 3500 
L 678 3744 
Q 678 4316 997 4589 
Q 1316 4863 1984 4863 
L 2841 4863 
z
" transform="scale(0.015625)"/>
     </defs>
     <use xlink:href="#DejaVuSans-Bold-48"/>
     <use xlink:href="#DejaVuSans-Bold-75" transform="translate(83.691406 0)"/>
     <use xlink:href="#DejaVuSans-Bold-6d" transform="translate(154.882812 0)"/>
     <use xlink:href="#DejaVuSans-Bold-61" transform="translate(259.082031 0)"/>
     <use xlink:href="#DejaVuSans-Bold-6e" transform="translate(326.5625 0)"/>
     <use xlink:href="#DejaVuSans-Bold-20" transform="translate(397.753906 0)"/>
     <use xlink:href="#DejaVuSans-Bold-66" transform="translate(432.568359 0)"/>
     <use xlink:href="#DejaVuSans-Bold-61" transform="translate(476.074219 0)"/>
     <use xlink:href="#DejaVuSans-Bold-63" transform="translate(543.554688 0)"/>
     <use xlink:href="#DejaVuSans-Bold-74" transform="translate(602.832031 0)"/>
     <use xlink:href="#DejaVuSans-Bold-6f" transform="translate(650.634766 0)"/>
     <use xlink:href="#DejaVuSans-Bold-72" transform="translate(719.335938 0)"/>
     <use xlink:href="#DejaVuSans-Bold-73" transform="translate(768.652344 0)"/>
    </g>
   </g>
   <g id="text_6">
    <!-- Biological / -->
    <g style="fill: #222222" transform="translate(915.157688 340.032635) scale(0.102 -0.102)">
     <use xlink:href="#DejaVuSans-Bold-42"/>
     <use xlink:href="#DejaVuSans-Bold-69" transform="translate(76.220703 0)"/>
     <use xlink:href="#DejaVuSans-Bold-6f" transform="translate(110.498047 0)"/>
     <use xlink:href="#DejaVuSans-Bold-6c" transform="translate(179.199219 0)"/>
     <use xlink:href="#DejaVuSans-Bold-6f" transform="translate(213.476562 0)"/>
     <use xlink:href="#DejaVuSans-Bold-67" transform="translate(282.177734 0)"/>
     <use xlink:href="#DejaVuSans-Bold-69" transform="translate(353.759766 0)"/>
     <use xlink:href="#DejaVuSans-Bold-63" transform="translate(388.037109 0)"/>
     <use xlink:href="#DejaVuSans-Bold-61" transform="translate(447.314453 0)"/>
     <use xlink:href="#DejaVuSans-Bold-6c" transform="translate(514.794922 0)"/>
     <use xlink:href="#DejaVuSans-Bold-20" transform="translate(549.072266 0)"/>
     <use xlink:href="#DejaVuSans-Bold-2f" transform="translate(583.886719 0)"/>
    </g>
    <!-- Neuroscience -->
    <g style="fill: #222222" transform="translate(908.043984 349.59649) scale(0.102 -0.102)">
     <defs>
      <path id="DejaVuSans-Bold-4e" d="M 588 4666 
L 1931 4666 
L 3628 1466 
L 3628 4666 
L 4769 4666 
L 4769 0 
L 3425 0 
L 1728 3200 
L 1728 0 
L 588 0 
L 588 4666 
z
" transform="scale(0.015625)"/>
     </defs>
     <use xlink:href="#DejaVuSans-Bold-4e"/>
     <use xlink:href="#DejaVuSans-Bold-65" transform="translate(83.691406 0)"/>
     <use xlink:href="#DejaVuSans-Bold-75" transform="translate(151.513672 0)"/>
     <use xlink:href="#DejaVuSans-Bold-72" transform="translate(222.705078 0)"/>
     <use xlink:href="#DejaVuSans-Bold-6f" transform="translate(272.021484 0)"/>
     <use xlink:href="#DejaVuSans-Bold-73" transform="translate(340.722656 0)"/>
     <use xlink:href="#DejaVuSans-Bold-63" transform="translate(400.244141 0)"/>
     <use xlink:href="#DejaVuSans-Bold-69" transform="translate(459.521484 0)"/>
     <use xlink:href="#DejaVuSans-Bold-65" transform="translate(493.798828 0)"/>
     <use xlink:href="#DejaVuSans-Bold-6e" transform="translate(561.621094 0)"/>
     <use xlink:href="#DejaVuSans-Bold-63" transform="translate(632.8125 0)"/>
     <use xlink:href="#DejaVuSans-Bold-65" transform="translate(692.089844 0)"/>
    </g>
   </g>
   <g id="text_7">
    <!-- Sports / -->
    <g style="fill: #222222" transform="translate(992.746453 455.272479) scale(0.102 -0.102)">
     <defs>
      <path id="DejaVuSans-Bold-53" d="M 3834 4519 
L 3834 3531 
Q 3450 3703 3084 3790 
Q 2719 3878 2394 3878 
Q 1963 3878 1756 3759 
Q 1550 3641 1550 3391 
Q 1550 3203 1689 3098 
Q 1828 2994 2194 2919 
L 2706 2816 
Q 3484 2659 3812 2340 
Q 4141 2022 4141 1434 
Q 4141 663 3683 286 
Q 3225 -91 2284 -91 
Q 1841 -91 1394 -6 
Q 947 78 500 244 
L 500 1259 
Q 947 1022 1364 901 
Q 1781 781 2169 781 
Q 2563 781 2772 912 
Q 2981 1044 2981 1288 
Q 2981 1506 2839 1625 
Q 2697 1744 2272 1838 
L 1806 1941 
Q 1106 2091 782 2419 
Q 459 2747 459 3303 
Q 459 4000 909 4375 
Q 1359 4750 2203 4750 
Q 2588 4750 2994 4692 
Q 3400 4634 3834 4519 
z
" transform="scale(0.015625)"/>
     </defs>
     <use xlink:href="#DejaVuSans-Bold-53"/>
     <use xlink:href="#DejaVuSans-Bold-70" transform="translate(72.021484 0)"/>
     <use xlink:href="#DejaVuSans-Bold-6f" transform="translate(143.603516 0)"/>
     <use xlink:href="#DejaVuSans-Bold-72" transform="translate(212.304688 0)"/>
     <use xlink:href="#DejaVuSans-Bold-74" transform="translate(261.621094 0)"/>
     <use xlink:href="#DejaVuSans-Bold-73" transform="translate(309.423828 0)"/>
     <use xlink:href="#DejaVuSans-Bold-20" transform="translate(368.945312 0)"/>
     <use xlink:href="#DejaVuSans-Bold-2f" transform="translate(403.759766 0)"/>
    </g>
    <!-- Performance -->
    <g style="fill: #222222" transform="translate(978.381187 464.756646) scale(0.102 -0.102)">
     <use xlink:href="#DejaVuSans-Bold-50"/>
     <use xlink:href="#DejaVuSans-Bold-65" transform="translate(73.291016 0)"/>
     <use xlink:href="#DejaVuSans-Bold-72" transform="translate(141.113281 0)"/>
     <use xlink:href="#DejaVuSans-Bold-66" transform="translate(190.429688 0)"/>
     <use xlink:href="#DejaVuSans-Bold-6f" transform="translate(233.935547 0)"/>
     <use xlink:href="#DejaVuSans-Bold-72" transform="translate(302.636719 0)"/>
     <use xlink:href="#DejaVuSans-Bold-6d" transform="translate(351.953125 0)"/>
     <use xlink:href="#DejaVuSans-Bold-61" transform="translate(456.152344 0)"/>
     <use xlink:href="#DejaVuSans-Bold-6e" transform="translate(523.632812 0)"/>
     <use xlink:href="#DejaVuSans-Bold-63" transform="translate(594.824219 0)"/>
     <use xlink:href="#DejaVuSans-Bold-65" transform="translate(654.101562 0)"/>
    </g>
   </g>
   <g id="text_8">
    <!-- Developmental -->
    <g style="fill: #222222" transform="translate(770.188641 488.814562) scale(0.102 -0.102)">
     <defs>
      <path id="DejaVuSans-Bold-44" d="M 1791 3756 
L 1791 909 
L 2222 909 
Q 2959 909 3348 1275 
Q 3738 1641 3738 2338 
Q 3738 3031 3350 3393 
Q 2963 3756 2222 3756 
L 1791 3756 
z
M 588 4666 
L 1856 4666 
Q 2919 4666 3439 4514 
Q 3959 4363 4331 4000 
Q 4659 3684 4818 3271 
Q 4978 2859 4978 2338 
Q 4978 1809 4818 1395 
Q 4659 981 4331 666 
Q 3956 303 3431 151 
Q 2906 0 1856 0 
L 588 0 
L 588 4666 
z
" transform="scale(0.015625)"/>
     </defs>
     <use xlink:href="#DejaVuSans-Bold-44"/>
     <use xlink:href="#DejaVuSans-Bold-65" transform="translate(83.007812 0)"/>
     <use xlink:href="#DejaVuSans-Bold-76" transform="translate(150.830078 0)"/>
     <use xlink:href="#DejaVuSans-Bold-65" transform="translate(216.015625 0)"/>
     <use xlink:href="#DejaVuSans-Bold-6c" transform="translate(283.837891 0)"/>
     <use xlink:href="#DejaVuSans-Bold-6f" transform="translate(318.115234 0)"/>
     <use xlink:href="#DejaVuSans-Bold-70" transform="translate(386.816406 0)"/>
     <use xlink:href="#DejaVuSans-Bold-6d" transform="translate(458.398438 0)"/>
     <use xlink:href="#DejaVuSans-Bold-65" transform="translate(562.597656 0)"/>
     <use xlink:href="#DejaVuSans-Bold-6e" transform="translate(630.419922 0)"/>
     <use xlink:href="#DejaVuSans-Bold-74" transform="translate(701.611328 0)"/>
     <use xlink:href="#DejaVuSans-Bold-61" transform="translate(749.414062 0)"/>
     <use xlink:href="#DejaVuSans-Bold-6c" transform="translate(816.894531 0)"/>
    </g>
   </g>
   <g id="text_9">
    <!-- Social -->
    <g style="fill: #222222" transform="translate(558.861609 539.214562) scale(0.102 -0.102)">
     <use xlink:href="#DejaVuSans-Bold-53"/>
     <use xlink:href="#DejaVuSans-Bold-6f" transform="translate(72.021484 0)"/>
     <use xlink:href="#DejaVuSans-Bold-63" transform="translate(140.722656 0)"/>
     <use xlink:href="#DejaVuSans-Bold-69" transform="translate(200 0)"/>
     <use xlink:href="#DejaVuSans-Bold-61" transform="translate(234.277344 0)"/>
     <use xlink:href="#DejaVuSans-Bold-6c" transform="translate(301.757812 0)"/>
    </g>
   </g>
   <g id="text_10">
    <!-- Educational -->
    <g style="fill: #222222" transform="translate(304.659516 488.814562) scale(0.102 -0.102)">
     <defs>
      <path id="DejaVuSans-Bold-45" d="M 588 4666 
L 3834 4666 
L 3834 3756 
L 1791 3756 
L 1791 2888 
L 3713 2888 
L 3713 1978 
L 1791 1978 
L 1791 909 
L 3903 909 
L 3903 0 
L 588 0 
L 588 4666 
z
" transform="scale(0.015625)"/>
     </defs>
     <use xlink:href="#DejaVuSans-Bold-45"/>
     <use xlink:href="#DejaVuSans-Bold-64" transform="translate(68.310547 0)"/>
     <use xlink:href="#DejaVuSans-Bold-75" transform="translate(139.892578 0)"/>
     <use xlink:href="#DejaVuSans-Bold-63" transform="translate(211.083984 0)"/>
     <use xlink:href="#DejaVuSans-Bold-61" transform="translate(270.361328 0)"/>
     <use xlink:href="#DejaVuSans-Bold-74" transform="translate(337.841797 0)"/>
     <use xlink:href="#DejaVuSans-Bold-69" transform="translate(385.644531 0)"/>
     <use xlink:href="#DejaVuSans-Bold-6f" transform="translate(419.921875 0)"/>
     <use xlink:href="#DejaVuSans-Bold-6e" transform="translate(488.623047 0)"/>
     <use xlink:href="#DejaVuSans-Bold-61" transform="translate(559.814453 0)"/>
     <use xlink:href="#DejaVuSans-Bold-6c" transform="translate(627.294922 0)"/>
    </g>
   </g>
   <g id="text_11">
    <!-- Comparative / -->
    <g style="fill: #222222" transform="translate(92.981719 455.272479) scale(0.102 -0.102)">
     <use xlink:href="#DejaVuSans-Bold-43"/>
     <use xlink:href="#DejaVuSans-Bold-6f" transform="translate(73.388672 0)"/>
     <use xlink:href="#DejaVuSans-Bold-6d" transform="translate(142.089844 0)"/>
     <use xlink:href="#DejaVuSans-Bold-70" transform="translate(246.289062 0)"/>
     <use xlink:href="#DejaVuSans-Bold-61" transform="translate(317.871094 0)"/>
     <use xlink:href="#DejaVuSans-Bold-72" transform="translate(385.351562 0)"/>
     <use xlink:href="#DejaVuSans-Bold-61" transform="translate(434.667969 0)"/>
     <use xlink:href="#DejaVuSans-Bold-74" transform="translate(502.148438 0)"/>
     <use xlink:href="#DejaVuSans-Bold-69" transform="translate(549.951172 0)"/>
     <use xlink:href="#DejaVuSans-Bold-76" transform="translate(584.228516 0)"/>
     <use xlink:href="#DejaVuSans-Bold-65" transform="translate(649.414062 0)"/>
     <use xlink:href="#DejaVuSans-Bold-20" transform="translate(717.236328 0)"/>
     <use xlink:href="#DejaVuSans-Bold-2f" transform="translate(752.050781 0)"/>
    </g>
    <!-- Animal behavior -->
    <g style="fill: #222222" transform="translate(86.320641 464.756646) scale(0.102 -0.102)">
     <defs>
      <path id="DejaVuSans-Bold-41" d="M 3419 850 
L 1538 850 
L 1241 0 
L 31 0 
L 1759 4666 
L 3194 4666 
L 4922 0 
L 3713 0 
L 3419 850 
z
M 1838 1716 
L 3116 1716 
L 2478 3572 
L 1838 1716 
z
" transform="scale(0.015625)"/>
      <path id="DejaVuSans-Bold-62" d="M 2400 722 
Q 2759 722 2948 984 
Q 3138 1247 3138 1747 
Q 3138 2247 2948 2509 
Q 2759 2772 2400 2772 
Q 2041 2772 1848 2508 
Q 1656 2244 1656 1747 
Q 1656 1250 1848 986 
Q 2041 722 2400 722 
z
M 1656 2988 
Q 1888 3294 2169 3439 
Q 2450 3584 2816 3584 
Q 3463 3584 3878 3070 
Q 4294 2556 4294 1747 
Q 4294 938 3878 423 
Q 3463 -91 2816 -91 
Q 2450 -91 2169 54 
Q 1888 200 1656 506 
L 1656 0 
L 538 0 
L 538 4863 
L 1656 4863 
L 1656 2988 
z
" transform="scale(0.015625)"/>
     </defs>
     <use xlink:href="#DejaVuSans-Bold-41"/>
     <use xlink:href="#DejaVuSans-Bold-6e" transform="translate(77.392578 0)"/>
     <use xlink:href="#DejaVuSans-Bold-69" transform="translate(148.583984 0)"/>
     <use xlink:href="#DejaVuSans-Bold-6d" transform="translate(182.861328 0)"/>
     <use xlink:href="#DejaVuSans-Bold-61" transform="translate(287.060547 0)"/>
     <use xlink:href="#DejaVuSans-Bold-6c" transform="translate(354.541016 0)"/>
     <use xlink:href="#DejaVuSans-Bold-20" transform="translate(388.818359 0)"/>
     <use xlink:href="#DejaVuSans-Bold-62" transform="translate(423.632812 0)"/>
     <use xlink:href="#DejaVuSans-Bold-65" transform="translate(495.214844 0)"/>
     <use xlink:href="#DejaVuSans-Bold-68" transform="translate(563.037109 0)"/>
     <use xlink:href="#DejaVuSans-Bold-61" transform="translate(634.228516 0)"/>
     <use xlink:href="#DejaVuSans-Bold-76" transform="translate(701.708984 0)"/>
     <use xlink:href="#DejaVuSans-Bold-69" transform="translate(766.894531 0)"/>
     <use xlink:href="#DejaVuSans-Bold-6f" transform="translate(801.171875 0)"/>
     <use xlink:href="#DejaVuSans-Bold-72" transform="translate(869.873047 0)"/>
    </g>
   </g>
   <g id="text_12">
    <!-- Industrial / -->
    <g style="fill: #222222" transform="translate(181.026234 340.032635) scale(0.102 -0.102)">
     <use xlink:href="#DejaVuSans-Bold-49"/>
     <use xlink:href="#DejaVuSans-Bold-6e" transform="translate(37.207031 0)"/>
     <use xlink:href="#DejaVuSans-Bold-64" transform="translate(108.398438 0)"/>
     <use xlink:href="#DejaVuSans-Bold-75" transform="translate(179.980469 0)"/>
     <use xlink:href="#DejaVuSans-Bold-73" transform="translate(251.171875 0)"/>
     <use xlink:href="#DejaVuSans-Bold-74" transform="translate(310.693359 0)"/>
     <use xlink:href="#DejaVuSans-Bold-72" transform="translate(358.496094 0)"/>
     <use xlink:href="#DejaVuSans-Bold-69" transform="translate(407.8125 0)"/>
     <use xlink:href="#DejaVuSans-Bold-61" transform="translate(442.089844 0)"/>
     <use xlink:href="#DejaVuSans-Bold-6c" transform="translate(509.570312 0)"/>
     <use xlink:href="#DejaVuSans-Bold-20" transform="translate(543.847656 0)"/>
     <use xlink:href="#DejaVuSans-Bold-2f" transform="translate(578.662109 0)"/>
    </g>
    <!-- Organizational -->
    <g style="fill: #222222" transform="translate(170.157656 349.516802) scale(0.102 -0.102)">
     <defs>
      <path id="DejaVuSans-Bold-4f" d="M 2719 3878 
Q 2169 3878 1866 3472 
Q 1563 3066 1563 2328 
Q 1563 1594 1866 1187 
Q 2169 781 2719 781 
Q 3272 781 3575 1187 
Q 3878 1594 3878 2328 
Q 3878 3066 3575 3472 
Q 3272 3878 2719 3878 
z
M 2719 4750 
Q 3844 4750 4481 4106 
Q 5119 3463 5119 2328 
Q 5119 1197 4481 553 
Q 3844 -91 2719 -91 
Q 1597 -91 958 553 
Q 319 1197 319 2328 
Q 319 3463 958 4106 
Q 1597 4750 2719 4750 
z
" transform="scale(0.015625)"/>
      <path id="DejaVuSans-Bold-7a" d="M 366 3500 
L 3419 3500 
L 3419 2719 
L 1575 800 
L 3419 800 
L 3419 0 
L 288 0 
L 288 781 
L 2131 2700 
L 366 2700 
L 366 3500 
z
" transform="scale(0.015625)"/>
     </defs>
     <use xlink:href="#DejaVuSans-Bold-4f"/>
     <use xlink:href="#DejaVuSans-Bold-72" transform="translate(85.009766 0)"/>
     <use xlink:href="#DejaVuSans-Bold-67" transform="translate(134.326172 0)"/>
     <use xlink:href="#DejaVuSans-Bold-61" transform="translate(205.908203 0)"/>
     <use xlink:href="#DejaVuSans-Bold-6e" transform="translate(273.388672 0)"/>
     <use xlink:href="#DejaVuSans-Bold-69" transform="translate(344.580078 0)"/>
     <use xlink:href="#DejaVuSans-Bold-7a" transform="translate(378.857422 0)"/>
     <use xlink:href="#DejaVuSans-Bold-61" transform="translate(437.060547 0)"/>
     <use xlink:href="#DejaVuSans-Bold-74" transform="translate(504.541016 0)"/>
     <use xlink:href="#DejaVuSans-Bold-69" transform="translate(552.34375 0)"/>
     <use xlink:href="#DejaVuSans-Bold-6f" transform="translate(586.621094 0)"/>
     <use xlink:href="#DejaVuSans-Bold-6e" transform="translate(655.322266 0)"/>
     <use xlink:href="#DejaVuSans-Bold-61" transform="translate(726.513672 0)"/>
     <use xlink:href="#DejaVuSans-Bold-6c" transform="translate(793.994141 0)"/>
    </g>
   </g>
   <g id="text_13">
    <!-- Health -->
    <g style="fill: #222222" transform="translate(92.614453 208.014563) scale(0.102 -0.102)">
     <use xlink:href="#DejaVuSans-Bold-48"/>
     <use xlink:href="#DejaVuSans-Bold-65" transform="translate(83.691406 0)"/>
     <use xlink:href="#DejaVuSans-Bold-61" transform="translate(151.513672 0)"/>
     <use xlink:href="#DejaVuSans-Bold-6c" transform="translate(218.994141 0)"/>
     <use xlink:href="#DejaVuSans-Bold-74" transform="translate(253.271484 0)"/>
     <use xlink:href="#DejaVuSans-Bold-68" transform="translate(301.074219 0)"/>
    </g>
   </g>
   <g id="text_14">
    <!-- Forensic / -->
    <g style="fill: #222222" transform="translate(321.365953 196.032635) scale(0.102 -0.102)">
     <use xlink:href="#DejaVuSans-Bold-46"/>
     <use xlink:href="#DejaVuSans-Bold-6f" transform="translate(64.310547 0)"/>
     <use xlink:href="#DejaVuSans-Bold-72" transform="translate(133.011719 0)"/>
     <use xlink:href="#DejaVuSans-Bold-65" transform="translate(182.328125 0)"/>
     <use xlink:href="#DejaVuSans-Bold-6e" transform="translate(250.150391 0)"/>
     <use xlink:href="#DejaVuSans-Bold-73" transform="translate(321.341797 0)"/>
     <use xlink:href="#DejaVuSans-Bold-69" transform="translate(380.863281 0)"/>
     <use xlink:href="#DejaVuSans-Bold-63" transform="translate(415.140625 0)"/>
     <use xlink:href="#DejaVuSans-Bold-20" transform="translate(474.417969 0)"/>
     <use xlink:href="#DejaVuSans-Bold-2f" transform="translate(509.232422 0)"/>
    </g>
    <!-- Legal -->
    <g style="fill: #222222" transform="translate(333.650578 205.516802) scale(0.102 -0.102)">
     <defs>
      <path id="DejaVuSans-Bold-4c" d="M 588 4666 
L 1791 4666 
L 1791 909 
L 3903 909 
L 3903 0 
L 588 0 
L 588 4666 
z
" transform="scale(0.015625)"/>
     </defs>
     <use xlink:href="#DejaVuSans-Bold-4c"/>
     <use xlink:href="#DejaVuSans-Bold-65" transform="translate(63.720703 0)"/>
     <use xlink:href="#DejaVuSans-Bold-67" transform="translate(131.542969 0)"/>
     <use xlink:href="#DejaVuSans-Bold-61" transform="translate(203.125 0)"/>
     <use xlink:href="#DejaVuSans-Bold-6c" transform="translate(270.605469 0)"/>
    </g>
   </g>
   <g id="text_15">
    <!-- Psychology -->
    <g style="fill: #222222" transform="translate(522.010391 327.184531) scale(0.17 -0.17)">
     <use xlink:href="#DejaVuSans-Bold-50"/>
     <use xlink:href="#DejaVuSans-Bold-73" transform="translate(71.541016 0)"/>
     <use xlink:href="#DejaVuSans-Bold-79" transform="translate(131.0625 0)"/>
     <use xlink:href="#DejaVuSans-Bold-63" transform="translate(196.248047 0)"/>
     <use xlink:href="#DejaVuSans-Bold-68" transform="translate(255.525391 0)"/>
     <use xlink:href="#DejaVuSans-Bold-6f" transform="translate(326.716797 0)"/>
     <use xlink:href="#DejaVuSans-Bold-6c" transform="translate(395.417969 0)"/>
     <use xlink:href="#DejaVuSans-Bold-6f" transform="translate(429.695312 0)"/>
     <use xlink:href="#DejaVuSans-Bold-67" transform="translate(498.396484 0)"/>
     <use xlink:href="#DejaVuSans-Bold-79" transform="translate(569.978516 0)"/>
    </g>
   </g>
   <g id="text_16">
    <!-- scientific study of -->
    <g style="fill: #4d4d4d" transform="translate(531.458211 360.059516) scale(0.101 -0.101)">
     <defs>
      <path id="DejaVuSans-75" d="M 544 1381 
L 544 3500 
L 1119 3500 
L 1119 1403 
Q 1119 906 1312 657 
Q 1506 409 1894 409 
Q 2359 409 2629 706 
Q 2900 1003 2900 1516 
L 2900 3500 
L 3475 3500 
L 3475 0 
L 2900 0 
L 2900 538 
Q 2691 219 2414 64 
Q 2138 -91 1772 -91 
Q 1169 -91 856 284 
Q 544 659 544 1381 
z
M 1991 3584 
L 1991 3584 
z
" transform="scale(0.015625)"/>
     </defs>
     <use xlink:href="#DejaVuSans-73"/>
     <use xlink:href="#DejaVuSans-63" transform="translate(52.099609 0)"/>
     <use xlink:href="#DejaVuSans-69" transform="translate(107.080078 0)"/>
     <use xlink:href="#DejaVuSans-65" transform="translate(134.863281 0)"/>
     <use xlink:href="#DejaVuSans-6e" transform="translate(196.386719 0)"/>
     <use xlink:href="#DejaVuSans-74" transform="translate(259.765625 0)"/>
     <use xlink:href="#DejaVuSans-69" transform="translate(298.974609 0)"/>
     <use xlink:href="#DejaVuSans-66" transform="translate(326.757812 0)"/>
     <use xlink:href="#DejaVuSans-69" transform="translate(361.962891 0)"/>
     <use xlink:href="#DejaVuSans-63" transform="translate(389.746094 0)"/>
     <use xlink:href="#DejaVuSans-20" transform="translate(444.726562 0)"/>
     <use xlink:href="#DejaVuSans-73" transform="translate(476.513672 0)"/>
     <use xlink:href="#DejaVuSans-74" transform="translate(528.613281 0)"/>
     <use xlink:href="#DejaVuSans-75" transform="translate(567.822266 0)"/>
     <use xlink:href="#DejaVuSans-64" transform="translate(631.201172 0)"/>
     <use xlink:href="#DejaVuSans-79" transform="translate(694.677734 0)"/>
     <use xlink:href="#DejaVuSans-20" transform="translate(753.857422 0)"/>
     <use xlink:href="#DejaVuSans-6f" transform="translate(785.644531 0)"/>
     <use xlink:href="#DejaVuSans-66" transform="translate(846.826172 0)"/>
    </g>
    <!-- behavior + mental processes -->
    <g style="fill: #4d4d4d" transform="translate(501.940961 369.834422) scale(0.101 -0.101)">
     <defs>
      <path id="DejaVuSans-62" d="M 3116 1747 
Q 3116 2381 2855 2742 
Q 2594 3103 2138 3103 
Q 1681 3103 1420 2742 
Q 1159 2381 1159 1747 
Q 1159 1113 1420 752 
Q 1681 391 2138 391 
Q 2594 391 2855 752 
Q 3116 1113 3116 1747 
z
M 1159 2969 
Q 1341 3281 1617 3432 
Q 1894 3584 2278 3584 
Q 2916 3584 3314 3078 
Q 3713 2572 3713 1747 
Q 3713 922 3314 415 
Q 2916 -91 2278 -91 
Q 1894 -91 1617 61 
Q 1341 213 1159 525 
L 1159 0 
L 581 0 
L 581 4863 
L 1159 4863 
L 1159 2969 
z
" transform="scale(0.015625)"/>
      <path id="DejaVuSans-76" d="M 191 3500 
L 800 3500 
L 1894 563 
L 2988 3500 
L 3597 3500 
L 2284 0 
L 1503 0 
L 191 3500 
z
" transform="scale(0.015625)"/>
      <path id="DejaVuSans-2b" d="M 2944 4013 
L 2944 2272 
L 4684 2272 
L 4684 1741 
L 2944 1741 
L 2944 0 
L 2419 0 
L 2419 1741 
L 678 1741 
L 678 2272 
L 2419 2272 
L 2419 4013 
L 2944 4013 
z
" transform="scale(0.015625)"/>
      <path id="DejaVuSans-6d" d="M 3328 2828 
Q 3544 3216 3844 3400 
Q 4144 3584 4550 3584 
Q 5097 3584 5394 3201 
Q 5691 2819 5691 2113 
L 5691 0 
L 5113 0 
L 5113 2094 
Q 5113 2597 4934 2840 
Q 4756 3084 4391 3084 
Q 3944 3084 3684 2787 
Q 3425 2491 3425 1978 
L 3425 0 
L 2847 0 
L 2847 2094 
Q 2847 2600 2669 2842 
Q 2491 3084 2119 3084 
Q 1678 3084 1418 2786 
Q 1159 2488 1159 1978 
L 1159 0 
L 581 0 
L 581 3500 
L 1159 3500 
L 1159 2956 
Q 1356 3278 1631 3431 
Q 1906 3584 2284 3584 
Q 2666 3584 2933 3390 
Q 3200 3197 3328 2828 
z
" transform="scale(0.015625)"/>
     </defs>
     <use xlink:href="#DejaVuSans-62"/>
     <use xlink:href="#DejaVuSans-65" transform="translate(63.476562 0)"/>
     <use xlink:href="#DejaVuSans-68" transform="translate(125 0)"/>
     <use xlink:href="#DejaVuSans-61" transform="translate(188.378906 0)"/>
     <use xlink:href="#DejaVuSans-76" transform="translate(249.658203 0)"/>
     <use xlink:href="#DejaVuSans-69" transform="translate(308.837891 0)"/>
     <use xlink:href="#DejaVuSans-6f" transform="translate(336.621094 0)"/>
     <use xlink:href="#DejaVuSans-72" transform="translate(397.802734 0)"/>
     <use xlink:href="#DejaVuSans-20" transform="translate(438.916016 0)"/>
     <use xlink:href="#DejaVuSans-2b" transform="translate(470.703125 0)"/>
     <use xlink:href="#DejaVuSans-20" transform="translate(554.492188 0)"/>
     <use xlink:href="#DejaVuSans-6d" transform="translate(586.279297 0)"/>
     <use xlink:href="#DejaVuSans-65" transform="translate(683.691406 0)"/>
     <use xlink:href="#DejaVuSans-6e" transform="translate(745.214844 0)"/>
     <use xlink:href="#DejaVuSans-74" transform="translate(808.59375 0)"/>
     <use xlink:href="#DejaVuSans-61" transform="translate(847.802734 0)"/>
     <use xlink:href="#DejaVuSans-6c" transform="translate(909.082031 0)"/>
     <use xlink:href="#DejaVuSans-20" transform="translate(936.865234 0)"/>
     <use xlink:href="#DejaVuSans-70" transform="translate(968.652344 0)"/>
     <use xlink:href="#DejaVuSans-72" transform="translate(1032.128906 0)"/>
     <use xlink:href="#DejaVuSans-6f" transform="translate(1070.992188 0)"/>
     <use xlink:href="#DejaVuSans-63" transform="translate(1132.173828 0)"/>
     <use xlink:href="#DejaVuSans-65" transform="translate(1187.154297 0)"/>
     <use xlink:href="#DejaVuSans-73" transform="translate(1248.677734 0)"/>
     <use xlink:href="#DejaVuSans-73" transform="translate(1300.777344 0)"/>
     <use xlink:href="#DejaVuSans-65" transform="translate(1352.876953 0)"/>
     <use xlink:href="#DejaVuSans-73" transform="translate(1414.400391 0)"/>
    </g>
   </g>
   <g id="text_17">
    <!-- A psychologist might study memory, workplaces, classrooms, health behavior, legal decisions, animal behavior, or therapy. -->
    <g style="fill: #222222" transform="translate(137.717859 609.667594) scale(0.126 -0.126)">
     <defs>
      <path id="DejaVuSans-Bold-2c" d="M 653 1209 
L 1778 1209 
L 1778 256 
L 1006 -909 
L 341 -909 
L 653 256 
L 653 1209 
z
" transform="scale(0.015625)"/>
      <path id="DejaVuSans-Bold-77" d="M 225 3500 
L 1313 3500 
L 1900 1088 
L 2491 3500 
L 3425 3500 
L 4013 1113 
L 4603 3500 
L 5691 3500 
L 4769 0 
L 3547 0 
L 2956 2406 
L 2369 0 
L 1147 0 
L 225 3500 
z
" transform="scale(0.015625)"/>
      <path id="DejaVuSans-Bold-6b" d="M 538 4863 
L 1656 4863 
L 1656 2216 
L 2944 3500 
L 4244 3500 
L 2534 1894 
L 4378 0 
L 3022 0 
L 1656 1459 
L 1656 0 
L 538 0 
L 538 4863 
z
" transform="scale(0.015625)"/>
     </defs>
     <use xlink:href="#DejaVuSans-Bold-41"/>
     <use xlink:href="#DejaVuSans-Bold-20" transform="translate(77.392578 0)"/>
     <use xlink:href="#DejaVuSans-Bold-70" transform="translate(112.207031 0)"/>
     <use xlink:href="#DejaVuSans-Bold-73" transform="translate(183.789062 0)"/>
     <use xlink:href="#DejaVuSans-Bold-79" transform="translate(243.310547 0)"/>
     <use xlink:href="#DejaVuSans-Bold-63" transform="translate(308.496094 0)"/>
     <use xlink:href="#DejaVuSans-Bold-68" transform="translate(367.773438 0)"/>
     <use xlink:href="#DejaVuSans-Bold-6f" transform="translate(438.964844 0)"/>
     <use xlink:href="#DejaVuSans-Bold-6c" transform="translate(507.666016 0)"/>
     <use xlink:href="#DejaVuSans-Bold-6f" transform="translate(541.943359 0)"/>
     <use xlink:href="#DejaVuSans-Bold-67" transform="translate(610.644531 0)"/>
     <use xlink:href="#DejaVuSans-Bold-69" transform="translate(682.226562 0)"/>
     <use xlink:href="#DejaVuSans-Bold-73" transform="translate(716.503906 0)"/>
     <use xlink:href="#DejaVuSans-Bold-74" transform="translate(776.025391 0)"/>
     <use xlink:href="#DejaVuSans-Bold-20" transform="translate(823.828125 0)"/>
     <use xlink:href="#DejaVuSans-Bold-6d" transform="translate(858.642578 0)"/>
     <use xlink:href="#DejaVuSans-Bold-69" transform="translate(962.841797 0)"/>
     <use xlink:href="#DejaVuSans-Bold-67" transform="translate(997.119141 0)"/>
     <use xlink:href="#DejaVuSans-Bold-68" transform="translate(1068.701172 0)"/>
     <use xlink:href="#DejaVuSans-Bold-74" transform="translate(1139.892578 0)"/>
     <use xlink:href="#DejaVuSans-Bold-20" transform="translate(1187.695312 0)"/>
     <use xlink:href="#DejaVuSans-Bold-73" transform="translate(1222.509766 0)"/>
     <use xlink:href="#DejaVuSans-Bold-74" transform="translate(1282.03125 0)"/>
     <use xlink:href="#DejaVuSans-Bold-75" transform="translate(1329.833984 0)"/>
     <use xlink:href="#DejaVuSans-Bold-64" transform="translate(1401.025391 0)"/>
     <use xlink:href="#DejaVuSans-Bold-79" transform="translate(1472.607422 0)"/>
     <use xlink:href="#DejaVuSans-Bold-20" transform="translate(1537.792969 0)"/>
     <use xlink:href="#DejaVuSans-Bold-6d" transform="translate(1572.607422 0)"/>
     <use xlink:href="#DejaVuSans-Bold-65" transform="translate(1676.806641 0)"/>
     <use xlink:href="#DejaVuSans-Bold-6d" transform="translate(1744.628906 0)"/>
     <use xlink:href="#DejaVuSans-Bold-6f" transform="translate(1848.828125 0)"/>
     <use xlink:href="#DejaVuSans-Bold-72" transform="translate(1917.529297 0)"/>
     <use xlink:href="#DejaVuSans-Bold-79" transform="translate(1966.845703 0)"/>
     <use xlink:href="#DejaVuSans-Bold-2c" transform="translate(2024.28125 0)"/>
     <use xlink:href="#DejaVuSans-Bold-20" transform="translate(2062.269531 0)"/>
     <use xlink:href="#DejaVuSans-Bold-77" transform="translate(2097.083984 0)"/>
     <use xlink:href="#DejaVuSans-Bold-6f" transform="translate(2189.466797 0)"/>
     <use xlink:href="#DejaVuSans-Bold-72" transform="translate(2258.167969 0)"/>
     <use xlink:href="#DejaVuSans-Bold-6b" transform="translate(2307.484375 0)"/>
     <use xlink:href="#DejaVuSans-Bold-70" transform="translate(2373.988281 0)"/>
     <use xlink:href="#DejaVuSans-Bold-6c" transform="translate(2445.570312 0)"/>
     <use xlink:href="#DejaVuSans-Bold-61" transform="translate(2479.847656 0)"/>
     <use xlink:href="#DejaVuSans-Bold-63" transform="translate(2547.328125 0)"/>
     <use xlink:href="#DejaVuSans-Bold-65" transform="translate(2606.605469 0)"/>
     <use xlink:href="#DejaVuSans-Bold-73" transform="translate(2674.427734 0)"/>
     <use xlink:href="#DejaVuSans-Bold-2c" transform="translate(2733.949219 0)"/>
     <use xlink:href="#DejaVuSans-Bold-20" transform="translate(2771.9375 0)"/>
     <use xlink:href="#DejaVuSans-Bold-63" transform="translate(2806.751953 0)"/>
     <use xlink:href="#DejaVuSans-Bold-6c" transform="translate(2866.029297 0)"/>
     <use xlink:href="#DejaVuSans-Bold-61" transform="translate(2900.306641 0)"/>
     <use xlink:href="#DejaVuSans-Bold-73" transform="translate(2967.787109 0)"/>
     <use xlink:href="#DejaVuSans-Bold-73" transform="translate(3027.308594 0)"/>
     <use xlink:href="#DejaVuSans-Bold-72" transform="translate(3086.830078 0)"/>
     <use xlink:href="#DejaVuSans-Bold-6f" transform="translate(3136.146484 0)"/>
     <use xlink:href="#DejaVuSans-Bold-6f" transform="translate(3204.847656 0)"/>
     <use xlink:href="#DejaVuSans-Bold-6d" transform="translate(3273.548828 0)"/>
     <use xlink:href="#DejaVuSans-Bold-73" transform="translate(3377.748047 0)"/>
     <use xlink:href="#DejaVuSans-Bold-2c" transform="translate(3437.269531 0)"/>
     <use xlink:href="#DejaVuSans-Bold-20" transform="translate(3475.257812 0)"/>
     <use xlink:href="#DejaVuSans-Bold-68" transform="translate(3510.072266 0)"/>
     <use xlink:href="#DejaVuSans-Bold-65" transform="translate(3581.263672 0)"/>
     <use xlink:href="#DejaVuSans-Bold-61" transform="translate(3649.085938 0)"/>
     <use xlink:href="#DejaVuSans-Bold-6c" transform="translate(3716.566406 0)"/>
     <use xlink:href="#DejaVuSans-Bold-74" transform="translate(3750.84375 0)"/>
     <use xlink:href="#DejaVuSans-Bold-68" transform="translate(3798.646484 0)"/>
     <use xlink:href="#DejaVuSans-Bold-20" transform="translate(3869.837891 0)"/>
     <use xlink:href="#DejaVuSans-Bold-62" transform="translate(3904.652344 0)"/>
     <use xlink:href="#DejaVuSans-Bold-65" transform="translate(3976.234375 0)"/>
     <use xlink:href="#DejaVuSans-Bold-68" transform="translate(4044.056641 0)"/>
     <use xlink:href="#DejaVuSans-Bold-61" transform="translate(4115.248047 0)"/>
     <use xlink:href="#DejaVuSans-Bold-76" transform="translate(4182.728516 0)"/>
     <use xlink:href="#DejaVuSans-Bold-69" transform="translate(4247.914062 0)"/>
     <use xlink:href="#DejaVuSans-Bold-6f" transform="translate(4282.191406 0)"/>
     <use xlink:href="#DejaVuSans-Bold-72" transform="translate(4350.892578 0)"/>
     <use xlink:href="#DejaVuSans-Bold-2c" transform="translate(4385.458984 0)"/>
     <use xlink:href="#DejaVuSans-Bold-20" transform="translate(4423.447266 0)"/>
     <use xlink:href="#DejaVuSans-Bold-6c" transform="translate(4458.261719 0)"/>
     <use xlink:href="#DejaVuSans-Bold-65" transform="translate(4492.539062 0)"/>
     <use xlink:href="#DejaVuSans-Bold-67" transform="translate(4560.361328 0)"/>
     <use xlink:href="#DejaVuSans-Bold-61" transform="translate(4631.943359 0)"/>
     <use xlink:href="#DejaVuSans-Bold-6c" transform="translate(4699.423828 0)"/>
     <use xlink:href="#DejaVuSans-Bold-20" transform="translate(4733.701172 0)"/>
     <use xlink:href="#DejaVuSans-Bold-64" transform="translate(4768.515625 0)"/>
     <use xlink:href="#DejaVuSans-Bold-65" transform="translate(4840.097656 0)"/>
     <use xlink:href="#DejaVuSans-Bold-63" transform="translate(4907.919922 0)"/>
     <use xlink:href="#DejaVuSans-Bold-69" transform="translate(4967.197266 0)"/>
     <use xlink:href="#DejaVuSans-Bold-73" transform="translate(5001.474609 0)"/>
     <use xlink:href="#DejaVuSans-Bold-69" transform="translate(5060.996094 0)"/>
     <use xlink:href="#DejaVuSans-Bold-6f" transform="translate(5095.273438 0)"/>
     <use xlink:href="#DejaVuSans-Bold-6e" transform="translate(5163.974609 0)"/>
     <use xlink:href="#DejaVuSans-Bold-73" transform="translate(5235.166016 0)"/>
     <use xlink:href="#DejaVuSans-Bold-2c" transform="translate(5294.6875 0)"/>
     <use xlink:href="#DejaVuSans-Bold-20" transform="translate(5332.675781 0)"/>
     <use xlink:href="#DejaVuSans-Bold-61" transform="translate(5367.490234 0)"/>
     <use xlink:href="#DejaVuSans-Bold-6e" transform="translate(5434.970703 0)"/>
     <use xlink:href="#DejaVuSans-Bold-69" transform="translate(5506.162109 0)"/>
     <use xlink:href="#DejaVuSans-Bold-6d" transform="translate(5540.439453 0)"/>
     <use xlink:href="#DejaVuSans-Bold-61" transform="translate(5644.638672 0)"/>
     <use xlink:href="#DejaVuSans-Bold-6c" transform="translate(5712.119141 0)"/>
     <use xlink:href="#DejaVuSans-Bold-20" transform="translate(5746.396484 0)"/>
     <use xlink:href="#DejaVuSans-Bold-62" transform="translate(5781.210938 0)"/>
     <use xlink:href="#DejaVuSans-Bold-65" transform="translate(5852.792969 0)"/>
     <use xlink:href="#DejaVuSans-Bold-68" transform="translate(5920.615234 0)"/>
     <use xlink:href="#DejaVuSans-Bold-61" transform="translate(5991.806641 0)"/>
     <use xlink:href="#DejaVuSans-Bold-76" transform="translate(6059.287109 0)"/>
     <use xlink:href="#DejaVuSans-Bold-69" transform="translate(6124.472656 0)"/>
     <use xlink:href="#DejaVuSans-Bold-6f" transform="translate(6158.75 0)"/>
     <use xlink:href="#DejaVuSans-Bold-72" transform="translate(6227.451172 0)"/>
     <use xlink:href="#DejaVuSans-Bold-2c" transform="translate(6262.017578 0)"/>
     <use xlink:href="#DejaVuSans-Bold-20" transform="translate(6300.005859 0)"/>
     <use xlink:href="#DejaVuSans-Bold-6f" transform="translate(6334.820312 0)"/>
     <use xlink:href="#DejaVuSans-Bold-72" transform="translate(6403.521484 0)"/>
     <use xlink:href="#DejaVuSans-Bold-20" transform="translate(6452.837891 0)"/>
     <use xlink:href="#DejaVuSans-Bold-74" transform="translate(6487.652344 0)"/>
     <use xlink:href="#DejaVuSans-Bold-68" transform="translate(6535.455078 0)"/>
     <use xlink:href="#DejaVuSans-Bold-65" transform="translate(6606.646484 0)"/>
     <use xlink:href="#DejaVuSans-Bold-72" transform="translate(6674.46875 0)"/>
     <use xlink:href="#DejaVuSans-Bold-61" transform="translate(6723.785156 0)"/>
     <use xlink:href="#DejaVuSans-Bold-70" transform="translate(6791.265625 0)"/>
     <use xlink:href="#DejaVuSans-Bold-79" transform="translate(6862.847656 0)"/>
     <use xlink:href="#DejaVuSans-Bold-2e" transform="translate(6918.908203 0)"/>
    </g>
   </g>
  </g>
 </g>
 <defs>
  <clipPath id="p01ce887c63">
   <rect x="0" y="0" width="1152" height="648"/>
  </clipPath>
 </defs>
</svg>
