<?xml version="1.0" encoding="utf-8" standalone="no"?>
<!DOCTYPE svg PUBLIC "-//W3C//DTD SVG 1.1//EN"
  "http://www.w3.org/Graphics/SVG/1.1/DTD/svg11.dtd">
<svg xmlns:xlink="http://www.w3.org/1999/xlink" width="1152pt" height="648pt" viewBox="0 0 1152 648" xmlns="http://www.w3.org/2000/svg" version="1.1">
 <metadata>
  <rdf:RDF xmlns:dc="http://purl.org/dc/elements/1.1/" xmlns:cc="http://creativecommons.org/ns#" xmlns:rdf="http://www.w3.org/1999/02/22-rdf-syntax-ns#">
   <cc:Work>
    <dc:type rdf:resource="http://purl.org/dc/dcmitype/StillImage"/>
    <dc:date>2026-06-22T19:49:39.793992</dc:date>
    <dc:format>image/svg+xml</dc:format>
    <dc:creator>
     <cc:Agent>
      <dc:title>Matplotlib v3.10.8, https://matplotlib.org/</dc:title>
     </cc:Agent>
    </dc:creator>
   </cc:Work>
  </rdf:RDF>
 </metadata>
 <defs>
  <style type="text/css">*{stroke-linejoin: round; stroke-linecap: butt}</style>
 </defs>
 <g id="figure_1">
  <g id="patch_1">
   <path d="M 0 648 
L 1152 648 
L 1152 0 
L 0 0 
z
" style="fill: #ffffff"/>
  </g>
  <g id="axes_1">
   <g id="patch_2">
    <path d="M 70.56 152.64 
L 530.64 152.64 
Q 537.84 152.64 537.84 145.44 
L 537.84 103.68 
Q 537.84 96.48 530.64 96.48 
L 70.56 96.48 
Q 63.36 96.48 63.36 103.68 
L 63.36 145.44 
Q 63.36 152.64 70.56 152.64 
z
" clip-path="url(#peeb2b02f88)" style="fill: #f7e6e6; stroke: #b45757; stroke-width: 2; stroke-linejoin: miter"/>
   </g>
   <g id="patch_3">
    <path d="M 621.36 152.64 
L 1081.44 152.64 
Q 1088.64 152.64 1088.64 145.44 
L 1088.64 103.68 
Q 1088.64 96.48 1081.44 96.48 
L 621.36 96.48 
Q 614.16 96.48 614.16 103.68 
L 614.16 145.44 
Q 614.16 152.64 621.36 152.64 
z
" clip-path="url(#peeb2b02f88)" style="fill: #dceaf2; stroke: #2f5d7c; stroke-width: 2; stroke-linejoin: miter"/>
   </g>
   <g id="patch_4">
    <path d="M 300.6 238.882852 
Q 300.6 249.841472 300.6 259.346648 
" clip-path="url(#peeb2b02f88)" style="fill: none; stroke: #b45757; stroke-width: 1.3; stroke-linecap: round"/>
    <path d="M 303 254.546648 
L 300.6 259.346648 
L 298.2 254.546648 
z
" clip-path="url(#peeb2b02f88)" style="fill: #b45757; stroke: #b45757; stroke-width: 1.3; stroke-linecap: round"/>
   </g>
   <g id="patch_5">
    <path d="M 300.6 328.882852 
Q 300.6 339.841472 300.6 349.346648 
" clip-path="url(#peeb2b02f88)" style="fill: none; stroke: #b45757; stroke-width: 1.3; stroke-linecap: round"/>
    <path d="M 303 344.546648 
L 300.6 349.346648 
L 298.2 344.546648 
z
" clip-path="url(#peeb2b02f88)" style="fill: #b45757; stroke: #b45757; stroke-width: 1.3; stroke-linecap: round"/>
   </g>
   <g id="patch_6">
    <path d="M 300.6 418.882852 
Q 300.6 429.841472 300.6 439.346648 
" clip-path="url(#peeb2b02f88)" style="fill: none; stroke: #b45757; stroke-width: 1.3; stroke-linecap: round"/>
    <path d="M 303 434.546648 
L 300.6 439.346648 
L 298.2 434.546648 
z
" clip-path="url(#peeb2b02f88)" style="fill: #b45757; stroke: #b45757; stroke-width: 1.3; stroke-linecap: round"/>
   </g>
   <g id="patch_7">
    <path d="M 851.4 238.882852 
Q 851.4 249.841472 851.4 259.346648 
" clip-path="url(#peeb2b02f88)" style="fill: none; stroke: #2f5d7c; stroke-width: 1.3; stroke-linecap: round"/>
    <path d="M 853.8 254.546648 
L 851.4 259.346648 
L 849 254.546648 
z
" clip-path="url(#peeb2b02f88)" style="fill: #2f5d7c; stroke: #2f5d7c; stroke-width: 1.3; stroke-linecap: round"/>
   </g>
   <g id="patch_8">
    <path d="M 851.4 328.882852 
Q 851.4 339.841472 851.4 349.346648 
" clip-path="url(#peeb2b02f88)" style="fill: none; stroke: #2f5d7c; stroke-width: 1.3; stroke-linecap: round"/>
    <path d="M 853.8 344.546648 
L 851.4 349.346648 
L 849 344.546648 
z
" clip-path="url(#peeb2b02f88)" style="fill: #2f5d7c; stroke: #2f5d7c; stroke-width: 1.3; stroke-linecap: round"/>
   </g>
   <g id="patch_9">
    <path d="M 851.4 418.882852 
Q 851.4 429.841472 851.4 439.346648 
" clip-path="url(#peeb2b02f88)" style="fill: none; stroke: #2f5d7c; stroke-width: 1.3; stroke-linecap: round"/>
    <path d="M 853.8 434.546648 
L 851.4 439.346648 
L 849 434.546648 
z
" clip-path="url(#peeb2b02f88)" style="fill: #2f5d7c; stroke: #2f5d7c; stroke-width: 1.3; stroke-linecap: round"/>
   </g>
   <g id="line2d_1">
    <path d="M 576 550.8 
L 576 116.64 
" clip-path="url(#peeb2b02f88)" style="fill: none; stroke: #d0d0d0; stroke-width: 2; stroke-linecap: square"/>
   </g>
   <g id="text_1">
    <!-- Fig 1.4  Common Sense vs. Scientific Psychology -->
    <g style="fill: #222222" transform="translate(50.4 45.584687) scale(0.22 -0.22)">
     <defs>
      <path id="DejaVuSans-Bold-46" d="M 588 4666 
L 3834 4666 
L 3834 3756 
L 1791 3756 
L 1791 2888 
L 3713 2888 
L 3713 1978 
L 1791 1978 
L 1791 0 
L 588 0 
L 588 4666 
z
" transform="scale(0.015625)"/>
      <path id="DejaVuSans-Bold-69" d="M 538 3500 
L 1656 3500 
L 1656 0 
L 538 0 
L 538 3500 
z
M 538 4863 
L 1656 4863 
L 1656 3950 
L 538 3950 
L 538 4863 
z
" transform="scale(0.015625)"/>
      <path id="DejaVuSans-Bold-67" d="M 2919 594 
Q 2688 288 2409 144 
Q 2131 0 1766 0 
Q 1125 0 706 504 
Q 288 1009 288 1791 
Q 288 2575 706 3076 
Q 1125 3578 1766 3578 
Q 2131 3578 2409 3434 
Q 2688 3291 2919 2981 
L 2919 3500 
L 4044 3500 
L 4044 353 
Q 4044 -491 3511 -936 
Q 2978 -1381 1966 -1381 
Q 1638 -1381 1331 -1331 
Q 1025 -1281 716 -1178 
L 716 -306 
Q 1009 -475 1290 -558 
Q 1572 -641 1856 -641 
Q 2406 -641 2662 -400 
Q 2919 -159 2919 353 
L 2919 594 
z
M 2181 2772 
Q 1834 2772 1640 2515 
Q 1447 2259 1447 1791 
Q 1447 1309 1634 1061 
Q 1822 813 2181 813 
Q 2531 813 2725 1069 
Q 2919 1325 2919 1791 
Q 2919 2259 2725 2515 
Q 2531 2772 2181 2772 
z
" transform="scale(0.015625)"/>
      <path id="DejaVuSans-Bold-20" transform="scale(0.015625)"/>
      <path id="DejaVuSans-Bold-31" d="M 750 831 
L 1813 831 
L 1813 3847 
L 722 3622 
L 722 4441 
L 1806 4666 
L 2950 4666 
L 2950 831 
L 4013 831 
L 4013 0 
L 750 0 
L 750 831 
z
" transform="scale(0.015625)"/>
      <path id="DejaVuSans-Bold-2e" d="M 653 1209 
L 1778 1209 
L 1778 0 
L 653 0 
L 653 1209 
z
" transform="scale(0.015625)"/>
      <path id="DejaVuSans-Bold-34" d="M 2356 3675 
L 1038 1722 
L 2356 1722 
L 2356 3675 
z
M 2156 4666 
L 3494 4666 
L 3494 1722 
L 4159 1722 
L 4159 850 
L 3494 850 
L 3494 0 
L 2356 0 
L 2356 850 
L 288 850 
L 288 1881 
L 2156 4666 
z
" transform="scale(0.015625)"/>
      <path id="DejaVuSans-Bold-43" d="M 4288 256 
Q 3956 84 3597 -3 
Q 3238 -91 2847 -91 
Q 1681 -91 1000 561 
Q 319 1213 319 2328 
Q 319 3447 1000 4098 
Q 1681 4750 2847 4750 
Q 3238 4750 3597 4662 
Q 3956 4575 4288 4403 
L 4288 3438 
Q 3953 3666 3628 3772 
Q 3303 3878 2944 3878 
Q 2300 3878 1931 3465 
Q 1563 3053 1563 2328 
Q 1563 1606 1931 1193 
Q 2300 781 2944 781 
Q 3303 781 3628 887 
Q 3953 994 4288 1222 
L 4288 256 
z
" transform="scale(0.015625)"/>
      <path id="DejaVuSans-Bold-6f" d="M 2203 2784 
Q 1831 2784 1636 2517 
Q 1441 2250 1441 1747 
Q 1441 1244 1636 976 
Q 1831 709 2203 709 
Q 2569 709 2762 976 
Q 2956 1244 2956 1747 
Q 2956 2250 2762 2517 
Q 2569 2784 2203 2784 
z
M 2203 3584 
Q 3106 3584 3614 3096 
Q 4122 2609 4122 1747 
Q 4122 884 3614 396 
Q 3106 -91 2203 -91 
Q 1297 -91 786 396 
Q 275 884 275 1747 
Q 275 2609 786 3096 
Q 1297 3584 2203 3584 
z
" transform="scale(0.015625)"/>
      <path id="DejaVuSans-Bold-6d" d="M 3781 2919 
Q 3994 3244 4286 3414 
Q 4578 3584 4928 3584 
Q 5531 3584 5847 3212 
Q 6163 2841 6163 2131 
L 6163 0 
L 5038 0 
L 5038 1825 
Q 5041 1866 5042 1909 
Q 5044 1953 5044 2034 
Q 5044 2406 4934 2573 
Q 4825 2741 4581 2741 
Q 4263 2741 4089 2478 
Q 3916 2216 3909 1719 
L 3909 0 
L 2784 0 
L 2784 1825 
Q 2784 2406 2684 2573 
Q 2584 2741 2328 2741 
Q 2006 2741 1831 2477 
Q 1656 2213 1656 1722 
L 1656 0 
L 531 0 
L 531 3500 
L 1656 3500 
L 1656 2988 
Q 1863 3284 2130 3434 
Q 2397 3584 2719 3584 
Q 3081 3584 3359 3409 
Q 3638 3234 3781 2919 
z
" transform="scale(0.015625)"/>
      <path id="DejaVuSans-Bold-6e" d="M 4056 2131 
L 4056 0 
L 2931 0 
L 2931 347 
L 2931 1631 
Q 2931 2084 2911 2256 
Q 2891 2428 2841 2509 
Q 2775 2619 2662 2680 
Q 2550 2741 2406 2741 
Q 2056 2741 1856 2470 
Q 1656 2200 1656 1722 
L 1656 0 
L 538 0 
L 538 3500 
L 1656 3500 
L 1656 2988 
Q 1909 3294 2193 3439 
Q 2478 3584 2822 3584 
Q 3428 3584 3742 3212 
Q 4056 2841 4056 2131 
z
" transform="scale(0.015625)"/>
      <path id="DejaVuSans-Bold-53" d="M 3834 4519 
L 3834 3531 
Q 3450 3703 3084 3790 
Q 2719 3878 2394 3878 
Q 1963 3878 1756 3759 
Q 1550 3641 1550 3391 
Q 1550 3203 1689 3098 
Q 1828 2994 2194 2919 
L 2706 2816 
Q 3484 2659 3812 2340 
Q 4141 2022 4141 1434 
Q 4141 663 3683 286 
Q 3225 -91 2284 -91 
Q 1841 -91 1394 -6 
Q 947 78 500 244 
L 500 1259 
Q 947 1022 1364 901 
Q 1781 781 2169 781 
Q 2563 781 2772 912 
Q 2981 1044 2981 1288 
Q 2981 1506 2839 1625 
Q 2697 1744 2272 1838 
L 1806 1941 
Q 1106 2091 782 2419 
Q 459 2747 459 3303 
Q 459 4000 909 4375 
Q 1359 4750 2203 4750 
Q 2588 4750 2994 4692 
Q 3400 4634 3834 4519 
z
" transform="scale(0.015625)"/>
      <path id="DejaVuSans-Bold-65" d="M 4031 1759 
L 4031 1441 
L 1416 1441 
Q 1456 1047 1700 850 
Q 1944 653 2381 653 
Q 2734 653 3104 758 
Q 3475 863 3866 1075 
L 3866 213 
Q 3469 63 3072 -14 
Q 2675 -91 2278 -91 
Q 1328 -91 801 392 
Q 275 875 275 1747 
Q 275 2603 792 3093 
Q 1309 3584 2216 3584 
Q 3041 3584 3536 3087 
Q 4031 2591 4031 1759 
z
M 2881 2131 
Q 2881 2450 2695 2645 
Q 2509 2841 2209 2841 
Q 1884 2841 1681 2658 
Q 1478 2475 1428 2131 
L 2881 2131 
z
" transform="scale(0.015625)"/>
      <path id="DejaVuSans-Bold-73" d="M 3272 3391 
L 3272 2541 
Q 2913 2691 2578 2766 
Q 2244 2841 1947 2841 
Q 1628 2841 1473 2761 
Q 1319 2681 1319 2516 
Q 1319 2381 1436 2309 
Q 1553 2238 1856 2203 
L 2053 2175 
Q 2913 2066 3209 1816 
Q 3506 1566 3506 1031 
Q 3506 472 3093 190 
Q 2681 -91 1863 -91 
Q 1516 -91 1145 -36 
Q 775 19 384 128 
L 384 978 
Q 719 816 1070 734 
Q 1422 653 1784 653 
Q 2113 653 2278 743 
Q 2444 834 2444 1013 
Q 2444 1163 2330 1236 
Q 2216 1309 1875 1350 
L 1678 1375 
Q 931 1469 631 1722 
Q 331 1975 331 2491 
Q 331 3047 712 3315 
Q 1094 3584 1881 3584 
Q 2191 3584 2531 3537 
Q 2872 3491 3272 3391 
z
" transform="scale(0.015625)"/>
      <path id="DejaVuSans-Bold-76" d="M 97 3500 
L 1216 3500 
L 2088 1081 
L 2956 3500 
L 4078 3500 
L 2700 0 
L 1472 0 
L 97 3500 
z
" transform="scale(0.015625)"/>
      <path id="DejaVuSans-Bold-63" d="M 3366 3391 
L 3366 2478 
Q 3138 2634 2908 2709 
Q 2678 2784 2431 2784 
Q 1963 2784 1702 2511 
Q 1441 2238 1441 1747 
Q 1441 1256 1702 982 
Q 1963 709 2431 709 
Q 2694 709 2930 787 
Q 3166 866 3366 1019 
L 3366 103 
Q 3103 6 2833 -42 
Q 2563 -91 2291 -91 
Q 1344 -91 809 395 
Q 275 881 275 1747 
Q 275 2613 809 3098 
Q 1344 3584 2291 3584 
Q 2566 3584 2833 3536 
Q 3100 3488 3366 3391 
z
" transform="scale(0.015625)"/>
      <path id="DejaVuSans-Bold-74" d="M 1759 4494 
L 1759 3500 
L 2913 3500 
L 2913 2700 
L 1759 2700 
L 1759 1216 
Q 1759 972 1856 886 
Q 1953 800 2241 800 
L 2816 800 
L 2816 0 
L 1856 0 
Q 1194 0 917 276 
Q 641 553 641 1216 
L 641 2700 
L 84 2700 
L 84 3500 
L 641 3500 
L 641 4494 
L 1759 4494 
z
" transform="scale(0.015625)"/>
      <path id="DejaVuSans-Bold-66" d="M 2841 4863 
L 2841 4128 
L 2222 4128 
Q 1984 4128 1890 4042 
Q 1797 3956 1797 3744 
L 1797 3500 
L 2753 3500 
L 2753 2700 
L 1797 2700 
L 1797 0 
L 678 0 
L 678 2700 
L 122 2700 
L 122 3500 
L 678 3500 
L 678 3744 
Q 678 4316 997 4589 
Q 1316 4863 1984 4863 
L 2841 4863 
z
" transform="scale(0.015625)"/>
      <path id="DejaVuSans-Bold-50" d="M 588 4666 
L 2584 4666 
Q 3475 4666 3951 4270 
Q 4428 3875 4428 3144 
Q 4428 2409 3951 2014 
Q 3475 1619 2584 1619 
L 1791 1619 
L 1791 0 
L 588 0 
L 588 4666 
z
M 1791 3794 
L 1791 2491 
L 2456 2491 
Q 2806 2491 2997 2661 
Q 3188 2831 3188 3144 
Q 3188 3456 2997 3625 
Q 2806 3794 2456 3794 
L 1791 3794 
z
" transform="scale(0.015625)"/>
      <path id="DejaVuSans-Bold-79" d="M 78 3500 
L 1197 3500 
L 2138 1125 
L 2938 3500 
L 4056 3500 
L 2584 -331 
Q 2363 -916 2067 -1148 
Q 1772 -1381 1288 -1381 
L 641 -1381 
L 641 -647 
L 991 -647 
Q 1275 -647 1404 -556 
Q 1534 -466 1606 -231 
L 1638 -134 
L 78 3500 
z
" transform="scale(0.015625)"/>
      <path id="DejaVuSans-Bold-68" d="M 4056 2131 
L 4056 0 
L 2931 0 
L 2931 347 
L 2931 1625 
Q 2931 2084 2911 2256 
Q 2891 2428 2841 2509 
Q 2775 2619 2662 2680 
Q 2550 2741 2406 2741 
Q 2056 2741 1856 2470 
Q 1656 2200 1656 1722 
L 1656 0 
L 538 0 
L 538 4863 
L 1656 4863 
L 1656 2988 
Q 1909 3294 2193 3439 
Q 2478 3584 2822 3584 
Q 3428 3584 3742 3212 
Q 4056 2841 4056 2131 
z
" transform="scale(0.015625)"/>
      <path id="DejaVuSans-Bold-6c" d="M 538 4863 
L 1656 4863 
L 1656 0 
L 538 0 
L 538 4863 
z
" transform="scale(0.015625)"/>
     </defs>
     <use xlink:href="#DejaVuSans-Bold-46"/>
     <use xlink:href="#DejaVuSans-Bold-69" transform="translate(68.310547 0)"/>
     <use xlink:href="#DejaVuSans-Bold-67" transform="translate(102.587891 0)"/>
     <use xlink:href="#DejaVuSans-Bold-20" transform="translate(174.169922 0)"/>
     <use xlink:href="#DejaVuSans-Bold-31" transform="translate(208.984375 0)"/>
     <use xlink:href="#DejaVuSans-Bold-2e" transform="translate(278.564453 0)"/>
     <use xlink:href="#DejaVuSans-Bold-34" transform="translate(316.552734 0)"/>
     <use xlink:href="#DejaVuSans-Bold-20" transform="translate(386.132812 0)"/>
     <use xlink:href="#DejaVuSans-Bold-20" transform="translate(420.947266 0)"/>
     <use xlink:href="#DejaVuSans-Bold-43" transform="translate(455.761719 0)"/>
     <use xlink:href="#DejaVuSans-Bold-6f" transform="translate(529.150391 0)"/>
     <use xlink:href="#DejaVuSans-Bold-6d" transform="translate(597.851562 0)"/>
     <use xlink:href="#DejaVuSans-Bold-6d" transform="translate(702.050781 0)"/>
     <use xlink:href="#DejaVuSans-Bold-6f" transform="translate(806.25 0)"/>
     <use xlink:href="#DejaVuSans-Bold-6e" transform="translate(874.951172 0)"/>
     <use xlink:href="#DejaVuSans-Bold-20" transform="translate(946.142578 0)"/>
     <use xlink:href="#DejaVuSans-Bold-53" transform="translate(980.957031 0)"/>
     <use xlink:href="#DejaVuSans-Bold-65" transform="translate(1052.978516 0)"/>
     <use xlink:href="#DejaVuSans-Bold-6e" transform="translate(1120.800781 0)"/>
     <use xlink:href="#DejaVuSans-Bold-73" transform="translate(1191.992188 0)"/>
     <use xlink:href="#DejaVuSans-Bold-65" transform="translate(1251.513672 0)"/>
     <use xlink:href="#DejaVuSans-Bold-20" transform="translate(1319.335938 0)"/>
     <use xlink:href="#DejaVuSans-Bold-76" transform="translate(1354.150391 0)"/>
     <use xlink:href="#DejaVuSans-Bold-73" transform="translate(1419.335938 0)"/>
     <use xlink:href="#DejaVuSans-Bold-2e" transform="translate(1478.857422 0)"/>
     <use xlink:href="#DejaVuSans-Bold-20" transform="translate(1516.845703 0)"/>
     <use xlink:href="#DejaVuSans-Bold-53" transform="translate(1551.660156 0)"/>
     <use xlink:href="#DejaVuSans-Bold-63" transform="translate(1623.681641 0)"/>
     <use xlink:href="#DejaVuSans-Bold-69" transform="translate(1682.958984 0)"/>
     <use xlink:href="#DejaVuSans-Bold-65" transform="translate(1717.236328 0)"/>
     <use xlink:href="#DejaVuSans-Bold-6e" transform="translate(1785.058594 0)"/>
     <use xlink:href="#DejaVuSans-Bold-74" transform="translate(1856.25 0)"/>
     <use xlink:href="#DejaVuSans-Bold-69" transform="translate(1904.052734 0)"/>
     <use xlink:href="#DejaVuSans-Bold-66" transform="translate(1938.330078 0)"/>
     <use xlink:href="#DejaVuSans-Bold-69" transform="translate(1981.835938 0)"/>
     <use xlink:href="#DejaVuSans-Bold-63" transform="translate(2016.113281 0)"/>
     <use xlink:href="#DejaVuSans-Bold-20" transform="translate(2075.390625 0)"/>
     <use xlink:href="#DejaVuSans-Bold-50" transform="translate(2110.205078 0)"/>
     <use xlink:href="#DejaVuSans-Bold-73" transform="translate(2181.746094 0)"/>
     <use xlink:href="#DejaVuSans-Bold-79" transform="translate(2241.267578 0)"/>
     <use xlink:href="#DejaVuSans-Bold-63" transform="translate(2306.453125 0)"/>
     <use xlink:href="#DejaVuSans-Bold-68" transform="translate(2365.730469 0)"/>
     <use xlink:href="#DejaVuSans-Bold-6f" transform="translate(2436.921875 0)"/>
     <use xlink:href="#DejaVuSans-Bold-6c" transform="translate(2505.623047 0)"/>
     <use xlink:href="#DejaVuSans-Bold-6f" transform="translate(2539.900391 0)"/>
     <use xlink:href="#DejaVuSans-Bold-67" transform="translate(2608.601562 0)"/>
     <use xlink:href="#DejaVuSans-Bold-79" transform="translate(2680.183594 0)"/>
    </g>
   </g>
   <g id="text_2">
    <!-- Psychology uses method because intuition is useful but unreliable. -->
    <g style="fill: #4d4d4d" transform="translate(50.4 71.987188) scale(0.13 -0.13)">
     <defs>
      <path id="DejaVuSans-50" d="M 1259 4147 
L 1259 2394 
L 2053 2394 
Q 2494 2394 2734 2622 
Q 2975 2850 2975 3272 
Q 2975 3691 2734 3919 
Q 2494 4147 2053 4147 
L 1259 4147 
z
M 628 4666 
L 2053 4666 
Q 2838 4666 3239 4311 
Q 3641 3956 3641 3272 
Q 3641 2581 3239 2228 
Q 2838 1875 2053 1875 
L 1259 1875 
L 1259 0 
L 628 0 
L 628 4666 
z
" transform="scale(0.015625)"/>
      <path id="DejaVuSans-73" d="M 2834 3397 
L 2834 2853 
Q 2591 2978 2328 3040 
Q 2066 3103 1784 3103 
Q 1356 3103 1142 2972 
Q 928 2841 928 2578 
Q 928 2378 1081 2264 
Q 1234 2150 1697 2047 
L 1894 2003 
Q 2506 1872 2764 1633 
Q 3022 1394 3022 966 
Q 3022 478 2636 193 
Q 2250 -91 1575 -91 
Q 1294 -91 989 -36 
Q 684 19 347 128 
L 347 722 
Q 666 556 975 473 
Q 1284 391 1588 391 
Q 1994 391 2212 530 
Q 2431 669 2431 922 
Q 2431 1156 2273 1281 
Q 2116 1406 1581 1522 
L 1381 1569 
Q 847 1681 609 1914 
Q 372 2147 372 2553 
Q 372 3047 722 3315 
Q 1072 3584 1716 3584 
Q 2034 3584 2315 3537 
Q 2597 3491 2834 3397 
z
" transform="scale(0.015625)"/>
      <path id="DejaVuSans-79" d="M 2059 -325 
Q 1816 -950 1584 -1140 
Q 1353 -1331 966 -1331 
L 506 -1331 
L 506 -850 
L 844 -850 
Q 1081 -850 1212 -737 
Q 1344 -625 1503 -206 
L 1606 56 
L 191 3500 
L 800 3500 
L 1894 763 
L 2988 3500 
L 3597 3500 
L 2059 -325 
z
" transform="scale(0.015625)"/>
      <path id="DejaVuSans-63" d="M 3122 3366 
L 3122 2828 
Q 2878 2963 2633 3030 
Q 2388 3097 2138 3097 
Q 1578 3097 1268 2742 
Q 959 2388 959 1747 
Q 959 1106 1268 751 
Q 1578 397 2138 397 
Q 2388 397 2633 464 
Q 2878 531 3122 666 
L 3122 134 
Q 2881 22 2623 -34 
Q 2366 -91 2075 -91 
Q 1284 -91 818 406 
Q 353 903 353 1747 
Q 353 2603 823 3093 
Q 1294 3584 2113 3584 
Q 2378 3584 2631 3529 
Q 2884 3475 3122 3366 
z
" transform="scale(0.015625)"/>
      <path id="DejaVuSans-68" d="M 3513 2113 
L 3513 0 
L 2938 0 
L 2938 2094 
Q 2938 2591 2744 2837 
Q 2550 3084 2163 3084 
Q 1697 3084 1428 2787 
Q 1159 2491 1159 1978 
L 1159 0 
L 581 0 
L 581 4863 
L 1159 4863 
L 1159 2956 
Q 1366 3272 1645 3428 
Q 1925 3584 2291 3584 
Q 2894 3584 3203 3211 
Q 3513 2838 3513 2113 
z
" transform="scale(0.015625)"/>
      <path id="DejaVuSans-6f" d="M 1959 3097 
Q 1497 3097 1228 2736 
Q 959 2375 959 1747 
Q 959 1119 1226 758 
Q 1494 397 1959 397 
Q 2419 397 2687 759 
Q 2956 1122 2956 1747 
Q 2956 2369 2687 2733 
Q 2419 3097 1959 3097 
z
M 1959 3584 
Q 2709 3584 3137 3096 
Q 3566 2609 3566 1747 
Q 3566 888 3137 398 
Q 2709 -91 1959 -91 
Q 1206 -91 779 398 
Q 353 888 353 1747 
Q 353 2609 779 3096 
Q 1206 3584 1959 3584 
z
" transform="scale(0.015625)"/>
      <path id="DejaVuSans-6c" d="M 603 4863 
L 1178 4863 
L 1178 0 
L 603 0 
L 603 4863 
z
" transform="scale(0.015625)"/>
      <path id="DejaVuSans-67" d="M 2906 1791 
Q 2906 2416 2648 2759 
Q 2391 3103 1925 3103 
Q 1463 3103 1205 2759 
Q 947 2416 947 1791 
Q 947 1169 1205 825 
Q 1463 481 1925 481 
Q 2391 481 2648 825 
Q 2906 1169 2906 1791 
z
M 3481 434 
Q 3481 -459 3084 -895 
Q 2688 -1331 1869 -1331 
Q 1566 -1331 1297 -1286 
Q 1028 -1241 775 -1147 
L 775 -588 
Q 1028 -725 1275 -790 
Q 1522 -856 1778 -856 
Q 2344 -856 2625 -561 
Q 2906 -266 2906 331 
L 2906 616 
Q 2728 306 2450 153 
Q 2172 0 1784 0 
Q 1141 0 747 490 
Q 353 981 353 1791 
Q 353 2603 747 3093 
Q 1141 3584 1784 3584 
Q 2172 3584 2450 3431 
Q 2728 3278 2906 2969 
L 2906 3500 
L 3481 3500 
L 3481 434 
z
" transform="scale(0.015625)"/>
      <path id="DejaVuSans-20" transform="scale(0.015625)"/>
      <path id="DejaVuSans-75" d="M 544 1381 
L 544 3500 
L 1119 3500 
L 1119 1403 
Q 1119 906 1312 657 
Q 1506 409 1894 409 
Q 2359 409 2629 706 
Q 2900 1003 2900 1516 
L 2900 3500 
L 3475 3500 
L 3475 0 
L 2900 0 
L 2900 538 
Q 2691 219 2414 64 
Q 2138 -91 1772 -91 
Q 1169 -91 856 284 
Q 544 659 544 1381 
z
M 1991 3584 
L 1991 3584 
z
" transform="scale(0.015625)"/>
      <path id="DejaVuSans-65" d="M 3597 1894 
L 3597 1613 
L 953 1613 
Q 991 1019 1311 708 
Q 1631 397 2203 397 
Q 2534 397 2845 478 
Q 3156 559 3463 722 
L 3463 178 
Q 3153 47 2828 -22 
Q 2503 -91 2169 -91 
Q 1331 -91 842 396 
Q 353 884 353 1716 
Q 353 2575 817 3079 
Q 1281 3584 2069 3584 
Q 2775 3584 3186 3129 
Q 3597 2675 3597 1894 
z
M 3022 2063 
Q 3016 2534 2758 2815 
Q 2500 3097 2075 3097 
Q 1594 3097 1305 2825 
Q 1016 2553 972 2059 
L 3022 2063 
z
" transform="scale(0.015625)"/>
      <path id="DejaVuSans-6d" d="M 3328 2828 
Q 3544 3216 3844 3400 
Q 4144 3584 4550 3584 
Q 5097 3584 5394 3201 
Q 5691 2819 5691 2113 
L 5691 0 
L 5113 0 
L 5113 2094 
Q 5113 2597 4934 2840 
Q 4756 3084 4391 3084 
Q 3944 3084 3684 2787 
Q 3425 2491 3425 1978 
L 3425 0 
L 2847 0 
L 2847 2094 
Q 2847 2600 2669 2842 
Q 2491 3084 2119 3084 
Q 1678 3084 1418 2786 
Q 1159 2488 1159 1978 
L 1159 0 
L 581 0 
L 581 3500 
L 1159 3500 
L 1159 2956 
Q 1356 3278 1631 3431 
Q 1906 3584 2284 3584 
Q 2666 3584 2933 3390 
Q 3200 3197 3328 2828 
z
" transform="scale(0.015625)"/>
      <path id="DejaVuSans-74" d="M 1172 4494 
L 1172 3500 
L 2356 3500 
L 2356 3053 
L 1172 3053 
L 1172 1153 
Q 1172 725 1289 603 
Q 1406 481 1766 481 
L 2356 481 
L 2356 0 
L 1766 0 
Q 1100 0 847 248 
Q 594 497 594 1153 
L 594 3053 
L 172 3053 
L 172 3500 
L 594 3500 
L 594 4494 
L 1172 4494 
z
" transform="scale(0.015625)"/>
      <path id="DejaVuSans-64" d="M 2906 2969 
L 2906 4863 
L 3481 4863 
L 3481 0 
L 2906 0 
L 2906 525 
Q 2725 213 2448 61 
Q 2172 -91 1784 -91 
Q 1150 -91 751 415 
Q 353 922 353 1747 
Q 353 2572 751 3078 
Q 1150 3584 1784 3584 
Q 2172 3584 2448 3432 
Q 2725 3281 2906 2969 
z
M 947 1747 
Q 947 1113 1208 752 
Q 1469 391 1925 391 
Q 2381 391 2643 752 
Q 2906 1113 2906 1747 
Q 2906 2381 2643 2742 
Q 2381 3103 1925 3103 
Q 1469 3103 1208 2742 
Q 947 2381 947 1747 
z
" transform="scale(0.015625)"/>
      <path id="DejaVuSans-62" d="M 3116 1747 
Q 3116 2381 2855 2742 
Q 2594 3103 2138 3103 
Q 1681 3103 1420 2742 
Q 1159 2381 1159 1747 
Q 1159 1113 1420 752 
Q 1681 391 2138 391 
Q 2594 391 2855 752 
Q 3116 1113 3116 1747 
z
M 1159 2969 
Q 1341 3281 1617 3432 
Q 1894 3584 2278 3584 
Q 2916 3584 3314 3078 
Q 3713 2572 3713 1747 
Q 3713 922 3314 415 
Q 2916 -91 2278 -91 
Q 1894 -91 1617 61 
Q 1341 213 1159 525 
L 1159 0 
L 581 0 
L 581 4863 
L 1159 4863 
L 1159 2969 
z
" transform="scale(0.015625)"/>
      <path id="DejaVuSans-61" d="M 2194 1759 
Q 1497 1759 1228 1600 
Q 959 1441 959 1056 
Q 959 750 1161 570 
Q 1363 391 1709 391 
Q 2188 391 2477 730 
Q 2766 1069 2766 1631 
L 2766 1759 
L 2194 1759 
z
M 3341 1997 
L 3341 0 
L 2766 0 
L 2766 531 
Q 2569 213 2275 61 
Q 1981 -91 1556 -91 
Q 1019 -91 701 211 
Q 384 513 384 1019 
Q 384 1609 779 1909 
Q 1175 2209 1959 2209 
L 2766 2209 
L 2766 2266 
Q 2766 2663 2505 2880 
Q 2244 3097 1772 3097 
Q 1472 3097 1187 3025 
Q 903 2953 641 2809 
L 641 3341 
Q 956 3463 1253 3523 
Q 1550 3584 1831 3584 
Q 2591 3584 2966 3190 
Q 3341 2797 3341 1997 
z
" transform="scale(0.015625)"/>
      <path id="DejaVuSans-69" d="M 603 3500 
L 1178 3500 
L 1178 0 
L 603 0 
L 603 3500 
z
M 603 4863 
L 1178 4863 
L 1178 4134 
L 603 4134 
L 603 4863 
z
" transform="scale(0.015625)"/>
      <path id="DejaVuSans-6e" d="M 3513 2113 
L 3513 0 
L 2938 0 
L 2938 2094 
Q 2938 2591 2744 2837 
Q 2550 3084 2163 3084 
Q 1697 3084 1428 2787 
Q 1159 2491 1159 1978 
L 1159 0 
L 581 0 
L 581 3500 
L 1159 3500 
L 1159 2956 
Q 1366 3272 1645 3428 
Q 1925 3584 2291 3584 
Q 2894 3584 3203 3211 
Q 3513 2838 3513 2113 
z
" transform="scale(0.015625)"/>
      <path id="DejaVuSans-66" d="M 2375 4863 
L 2375 4384 
L 1825 4384 
Q 1516 4384 1395 4259 
Q 1275 4134 1275 3809 
L 1275 3500 
L 2222 3500 
L 2222 3053 
L 1275 3053 
L 1275 0 
L 697 0 
L 697 3053 
L 147 3053 
L 147 3500 
L 697 3500 
L 697 3744 
Q 697 4328 969 4595 
Q 1241 4863 1831 4863 
L 2375 4863 
z
" transform="scale(0.015625)"/>
      <path id="DejaVuSans-72" d="M 2631 2963 
Q 2534 3019 2420 3045 
Q 2306 3072 2169 3072 
Q 1681 3072 1420 2755 
Q 1159 2438 1159 1844 
L 1159 0 
L 581 0 
L 581 3500 
L 1159 3500 
L 1159 2956 
Q 1341 3275 1631 3429 
Q 1922 3584 2338 3584 
Q 2397 3584 2469 3576 
Q 2541 3569 2628 3553 
L 2631 2963 
z
" transform="scale(0.015625)"/>
      <path id="DejaVuSans-2e" d="M 684 794 
L 1344 794 
L 1344 0 
L 684 0 
L 684 794 
z
" transform="scale(0.015625)"/>
     </defs>
     <use xlink:href="#DejaVuSans-50"/>
     <use xlink:href="#DejaVuSans-73" transform="translate(58.552734 0)"/>
     <use xlink:href="#DejaVuSans-79" transform="translate(110.652344 0)"/>
     <use xlink:href="#DejaVuSans-63" transform="translate(169.832031 0)"/>
     <use xlink:href="#DejaVuSans-68" transform="translate(224.8125 0)"/>
     <use xlink:href="#DejaVuSans-6f" transform="translate(288.191406 0)"/>
     <use xlink:href="#DejaVuSans-6c" transform="translate(349.373047 0)"/>
     <use xlink:href="#DejaVuSans-6f" transform="translate(377.15625 0)"/>
     <use xlink:href="#DejaVuSans-67" transform="translate(438.337891 0)"/>
     <use xlink:href="#DejaVuSans-79" transform="translate(501.814453 0)"/>
     <use xlink:href="#DejaVuSans-20" transform="translate(560.994141 0)"/>
     <use xlink:href="#DejaVuSans-75" transform="translate(592.78125 0)"/>
     <use xlink:href="#DejaVuSans-73" transform="translate(656.160156 0)"/>
     <use xlink:href="#DejaVuSans-65" transform="translate(708.259766 0)"/>
     <use xlink:href="#DejaVuSans-73" transform="translate(769.783203 0)"/>
     <use xlink:href="#DejaVuSans-20" transform="translate(821.882812 0)"/>
     <use xlink:href="#DejaVuSans-6d" transform="translate(853.669922 0)"/>
     <use xlink:href="#DejaVuSans-65" transform="translate(951.082031 0)"/>
     <use xlink:href="#DejaVuSans-74" transform="translate(1012.605469 0)"/>
     <use xlink:href="#DejaVuSans-68" transform="translate(1051.814453 0)"/>
     <use xlink:href="#DejaVuSans-6f" transform="translate(1115.193359 0)"/>
     <use xlink:href="#DejaVuSans-64" transform="translate(1176.375 0)"/>
     <use xlink:href="#DejaVuSans-20" transform="translate(1239.851562 0)"/>
     <use xlink:href="#DejaVuSans-62" transform="translate(1271.638672 0)"/>
     <use xlink:href="#DejaVuSans-65" transform="translate(1335.115234 0)"/>
     <use xlink:href="#DejaVuSans-63" transform="translate(1396.638672 0)"/>
     <use xlink:href="#DejaVuSans-61" transform="translate(1451.619141 0)"/>
     <use xlink:href="#DejaVuSans-75" transform="translate(1512.898438 0)"/>
     <use xlink:href="#DejaVuSans-73" transform="translate(1576.277344 0)"/>
     <use xlink:href="#DejaVuSans-65" transform="translate(1628.376953 0)"/>
     <use xlink:href="#DejaVuSans-20" transform="translate(1689.900391 0)"/>
     <use xlink:href="#DejaVuSans-69" transform="translate(1721.6875 0)"/>
     <use xlink:href="#DejaVuSans-6e" transform="translate(1749.470703 0)"/>
     <use xlink:href="#DejaVuSans-74" transform="translate(1812.849609 0)"/>
     <use xlink:href="#DejaVuSans-75" transform="translate(1852.058594 0)"/>
     <use xlink:href="#DejaVuSans-69" transform="translate(1915.4375 0)"/>
     <use xlink:href="#DejaVuSans-74" transform="translate(1943.220703 0)"/>
     <use xlink:href="#DejaVuSans-69" transform="translate(1982.429688 0)"/>
     <use xlink:href="#DejaVuSans-6f" transform="translate(2010.212891 0)"/>
     <use xlink:href="#DejaVuSans-6e" transform="translate(2071.394531 0)"/>
     <use xlink:href="#DejaVuSans-20" transform="translate(2134.773438 0)"/>
     <use xlink:href="#DejaVuSans-69" transform="translate(2166.560547 0)"/>
     <use xlink:href="#DejaVuSans-73" transform="translate(2194.34375 0)"/>
     <use xlink:href="#DejaVuSans-20" transform="translate(2246.443359 0)"/>
     <use xlink:href="#DejaVuSans-75" transform="translate(2278.230469 0)"/>
     <use xlink:href="#DejaVuSans-73" transform="translate(2341.609375 0)"/>
     <use xlink:href="#DejaVuSans-65" transform="translate(2393.708984 0)"/>
     <use xlink:href="#DejaVuSans-66" transform="translate(2455.232422 0)"/>
     <use xlink:href="#DejaVuSans-75" transform="translate(2490.4375 0)"/>
     <use xlink:href="#DejaVuSans-6c" transform="translate(2553.816406 0)"/>
     <use xlink:href="#DejaVuSans-20" transform="translate(2581.599609 0)"/>
     <use xlink:href="#DejaVuSans-62" transform="translate(2613.386719 0)"/>
     <use xlink:href="#DejaVuSans-75" transform="translate(2676.863281 0)"/>
     <use xlink:href="#DejaVuSans-74" transform="translate(2740.242188 0)"/>
     <use xlink:href="#DejaVuSans-20" transform="translate(2779.451172 0)"/>
     <use xlink:href="#DejaVuSans-75" transform="translate(2811.238281 0)"/>
     <use xlink:href="#DejaVuSans-6e" transform="translate(2874.617188 0)"/>
     <use xlink:href="#DejaVuSans-72" transform="translate(2937.996094 0)"/>
     <use xlink:href="#DejaVuSans-65" transform="translate(2976.859375 0)"/>
     <use xlink:href="#DejaVuSans-6c" transform="translate(3038.382812 0)"/>
     <use xlink:href="#DejaVuSans-69" transform="translate(3066.166016 0)"/>
     <use xlink:href="#DejaVuSans-61" transform="translate(3093.949219 0)"/>
     <use xlink:href="#DejaVuSans-62" transform="translate(3155.228516 0)"/>
     <use xlink:href="#DejaVuSans-6c" transform="translate(3218.705078 0)"/>
     <use xlink:href="#DejaVuSans-65" transform="translate(3246.488281 0)"/>
     <use xlink:href="#DejaVuSans-2e" transform="translate(3308.011719 0)"/>
    </g>
   </g>
   <g id="patch_10">
    <path d="M 99.36 235.44 
L 501.84 235.44 
Q 509.04 235.44 509.04 228.24 
L 509.04 173.52 
Q 509.04 166.32 501.84 166.32 
L 99.36 166.32 
Q 92.16 166.32 92.16 173.52 
L 92.16 228.24 
Q 92.16 235.44 99.36 235.44 
z
" clip-path="url(#peeb2b02f88)" style="fill: #ffffff; stroke: #b45757; stroke-width: 1.6; stroke-linejoin: miter"/>
   </g>
   <g id="patch_11">
    <path d="M 99.36 325.44 
L 501.84 325.44 
Q 509.04 325.44 509.04 318.24 
L 509.04 263.52 
Q 509.04 256.32 501.84 256.32 
L 99.36 256.32 
Q 92.16 256.32 92.16 263.52 
L 92.16 318.24 
Q 92.16 325.44 99.36 325.44 
z
" clip-path="url(#peeb2b02f88)" style="fill: #ffffff; stroke: #b45757; stroke-width: 1.6; stroke-linejoin: miter"/>
   </g>
   <g id="patch_12">
    <path d="M 99.36 415.44 
L 501.84 415.44 
Q 509.04 415.44 509.04 408.24 
L 509.04 353.52 
Q 509.04 346.32 501.84 346.32 
L 99.36 346.32 
Q 92.16 346.32 92.16 353.52 
L 92.16 408.24 
Q 92.16 415.44 99.36 415.44 
z
" clip-path="url(#peeb2b02f88)" style="fill: #ffffff; stroke: #b45757; stroke-width: 1.6; stroke-linejoin: miter"/>
   </g>
   <g id="patch_13">
    <path d="M 99.36 505.44 
L 501.84 505.44 
Q 509.04 505.44 509.04 498.24 
L 509.04 443.52 
Q 509.04 436.32 501.84 436.32 
L 99.36 436.32 
Q 92.16 436.32 92.16 443.52 
L 92.16 498.24 
Q 92.16 505.44 99.36 505.44 
z
" clip-path="url(#peeb2b02f88)" style="fill: #ffffff; stroke: #b45757; stroke-width: 1.6; stroke-linejoin: miter"/>
   </g>
   <g id="patch_14">
    <path d="M 650.16 235.44 
L 1052.64 235.44 
Q 1059.84 235.44 1059.84 228.24 
L 1059.84 173.52 
Q 1059.84 166.32 1052.64 166.32 
L 650.16 166.32 
Q 642.96 166.32 642.96 173.52 
L 642.96 228.24 
Q 642.96 235.44 650.16 235.44 
z
" clip-path="url(#peeb2b02f88)" style="fill: #ffffff; stroke: #2f5d7c; stroke-width: 1.6; stroke-linejoin: miter"/>
   </g>
   <g id="patch_15">
    <path d="M 650.16 325.44 
L 1052.64 325.44 
Q 1059.84 325.44 1059.84 318.24 
L 1059.84 263.52 
Q 1059.84 256.32 1052.64 256.32 
L 650.16 256.32 
Q 642.96 256.32 642.96 263.52 
L 642.96 318.24 
Q 642.96 325.44 650.16 325.44 
z
" clip-path="url(#peeb2b02f88)" style="fill: #ffffff; stroke: #2f5d7c; stroke-width: 1.6; stroke-linejoin: miter"/>
   </g>
   <g id="patch_16">
    <path d="M 650.16 415.44 
L 1052.64 415.44 
Q 1059.84 415.44 1059.84 408.24 
L 1059.84 353.52 
Q 1059.84 346.32 1052.64 346.32 
L 650.16 346.32 
Q 642.96 346.32 642.96 353.52 
L 642.96 408.24 
Q 642.96 415.44 650.16 415.44 
z
" clip-path="url(#peeb2b02f88)" style="fill: #ffffff; stroke: #2f5d7c; stroke-width: 1.6; stroke-linejoin: miter"/>
   </g>
   <g id="patch_17">
    <path d="M 650.16 505.44 
L 1052.64 505.44 
Q 1059.84 505.44 1059.84 498.24 
L 1059.84 443.52 
Q 1059.84 436.32 1052.64 436.32 
L 650.16 436.32 
Q 642.96 436.32 642.96 443.52 
L 642.96 498.24 
Q 642.96 505.44 650.16 505.44 
z
" clip-path="url(#peeb2b02f88)" style="fill: #ffffff; stroke: #2f5d7c; stroke-width: 1.6; stroke-linejoin: miter"/>
   </g>
   <g id="text_3">
    <!-- Intuition -->
    <g style="fill: #222222" transform="translate(113.04 194.249219) scale(0.125 -0.125)">
     <defs>
      <path id="DejaVuSans-Bold-49" d="M 588 4666 
L 1791 4666 
L 1791 0 
L 588 0 
L 588 4666 
z
" transform="scale(0.015625)"/>
      <path id="DejaVuSans-Bold-75" d="M 500 1363 
L 500 3500 
L 1625 3500 
L 1625 3150 
Q 1625 2866 1622 2436 
Q 1619 2006 1619 1863 
Q 1619 1441 1641 1255 
Q 1663 1069 1716 984 
Q 1784 875 1895 815 
Q 2006 756 2150 756 
Q 2500 756 2700 1025 
Q 2900 1294 2900 1772 
L 2900 3500 
L 4019 3500 
L 4019 0 
L 2900 0 
L 2900 506 
Q 2647 200 2364 54 
Q 2081 -91 1741 -91 
Q 1134 -91 817 281 
Q 500 653 500 1363 
z
" transform="scale(0.015625)"/>
     </defs>
     <use xlink:href="#DejaVuSans-Bold-49"/>
     <use xlink:href="#DejaVuSans-Bold-6e" transform="translate(37.207031 0)"/>
     <use xlink:href="#DejaVuSans-Bold-74" transform="translate(108.398438 0)"/>
     <use xlink:href="#DejaVuSans-Bold-75" transform="translate(156.201172 0)"/>
     <use xlink:href="#DejaVuSans-Bold-69" transform="translate(227.392578 0)"/>
     <use xlink:href="#DejaVuSans-Bold-74" transform="translate(261.669922 0)"/>
     <use xlink:href="#DejaVuSans-Bold-69" transform="translate(309.472656 0)"/>
     <use xlink:href="#DejaVuSans-Bold-6f" transform="translate(343.75 0)"/>
     <use xlink:href="#DejaVuSans-Bold-6e" transform="translate(412.451172 0)"/>
    </g>
   </g>
   <g id="text_4">
    <!-- “That seems obvious.” -->
    <g style="fill: #4d4d4d" transform="translate(113.04 216.764937) scale(0.106 -0.106)">
     <defs>
      <path id="DejaVuSans-201c" d="M 1203 3128 
L 544 3128 
L 544 3669 
L 1056 4666 
L 1459 4666 
L 1203 3669 
L 1203 3128 
z
M 2484 3128 
L 1825 3128 
L 1825 3669 
L 2338 4666 
L 2741 4666 
L 2484 3669 
L 2484 3128 
z
" transform="scale(0.015625)"/>
      <path id="DejaVuSans-54" d="M -19 4666 
L 3928 4666 
L 3928 4134 
L 2272 4134 
L 2272 0 
L 1638 0 
L 1638 4134 
L -19 4134 
L -19 4666 
z
" transform="scale(0.015625)"/>
      <path id="DejaVuSans-76" d="M 191 3500 
L 800 3500 
L 1894 563 
L 2988 3500 
L 3597 3500 
L 2284 0 
L 1503 0 
L 191 3500 
z
" transform="scale(0.015625)"/>
      <path id="DejaVuSans-201d" d="M 800 4666 
L 1459 4666 
L 1459 4128 
L 947 3128 
L 544 3128 
L 800 4128 
L 800 4666 
z
M 2081 4666 
L 2741 4666 
L 2741 4128 
L 2228 3128 
L 1825 3128 
L 2081 4128 
L 2081 4666 
z
" transform="scale(0.015625)"/>
     </defs>
     <use xlink:href="#DejaVuSans-201c"/>
     <use xlink:href="#DejaVuSans-54" transform="translate(51.806641 0)"/>
     <use xlink:href="#DejaVuSans-68" transform="translate(112.890625 0)"/>
     <use xlink:href="#DejaVuSans-61" transform="translate(176.269531 0)"/>
     <use xlink:href="#DejaVuSans-74" transform="translate(237.548828 0)"/>
     <use xlink:href="#DejaVuSans-20" transform="translate(276.757812 0)"/>
     <use xlink:href="#DejaVuSans-73" transform="translate(308.544922 0)"/>
     <use xlink:href="#DejaVuSans-65" transform="translate(360.644531 0)"/>
     <use xlink:href="#DejaVuSans-65" transform="translate(422.167969 0)"/>
     <use xlink:href="#DejaVuSans-6d" transform="translate(483.691406 0)"/>
     <use xlink:href="#DejaVuSans-73" transform="translate(581.103516 0)"/>
     <use xlink:href="#DejaVuSans-20" transform="translate(633.203125 0)"/>
     <use xlink:href="#DejaVuSans-6f" transform="translate(664.990234 0)"/>
     <use xlink:href="#DejaVuSans-62" transform="translate(726.171875 0)"/>
     <use xlink:href="#DejaVuSans-76" transform="translate(789.648438 0)"/>
     <use xlink:href="#DejaVuSans-69" transform="translate(848.828125 0)"/>
     <use xlink:href="#DejaVuSans-6f" transform="translate(876.611328 0)"/>
     <use xlink:href="#DejaVuSans-75" transform="translate(937.792969 0)"/>
     <use xlink:href="#DejaVuSans-73" transform="translate(1001.171875 0)"/>
     <use xlink:href="#DejaVuSans-2e" transform="translate(1053.271484 0)"/>
     <use xlink:href="#DejaVuSans-201d" transform="translate(1085.058594 0)"/>
    </g>
   </g>
   <g id="text_5">
    <!-- Hindsight bias -->
    <g style="fill: #222222" transform="translate(113.04 284.200391) scale(0.125 -0.125)">
     <defs>
      <path id="DejaVuSans-Bold-48" d="M 588 4666 
L 1791 4666 
L 1791 2888 
L 3566 2888 
L 3566 4666 
L 4769 4666 
L 4769 0 
L 3566 0 
L 3566 1978 
L 1791 1978 
L 1791 0 
L 588 0 
L 588 4666 
z
" transform="scale(0.015625)"/>
      <path id="DejaVuSans-Bold-64" d="M 2919 2988 
L 2919 4863 
L 4044 4863 
L 4044 0 
L 2919 0 
L 2919 506 
Q 2688 197 2409 53 
Q 2131 -91 1766 -91 
Q 1119 -91 703 423 
Q 288 938 288 1747 
Q 288 2556 703 3070 
Q 1119 3584 1766 3584 
Q 2128 3584 2408 3439 
Q 2688 3294 2919 2988 
z
M 2181 722 
Q 2541 722 2730 984 
Q 2919 1247 2919 1747 
Q 2919 2247 2730 2509 
Q 2541 2772 2181 2772 
Q 1825 2772 1636 2509 
Q 1447 2247 1447 1747 
Q 1447 1247 1636 984 
Q 1825 722 2181 722 
z
" transform="scale(0.015625)"/>
      <path id="DejaVuSans-Bold-62" d="M 2400 722 
Q 2759 722 2948 984 
Q 3138 1247 3138 1747 
Q 3138 2247 2948 2509 
Q 2759 2772 2400 2772 
Q 2041 2772 1848 2508 
Q 1656 2244 1656 1747 
Q 1656 1250 1848 986 
Q 2041 722 2400 722 
z
M 1656 2988 
Q 1888 3294 2169 3439 
Q 2450 3584 2816 3584 
Q 3463 3584 3878 3070 
Q 4294 2556 4294 1747 
Q 4294 938 3878 423 
Q 3463 -91 2816 -91 
Q 2450 -91 2169 54 
Q 1888 200 1656 506 
L 1656 0 
L 538 0 
L 538 4863 
L 1656 4863 
L 1656 2988 
z
" transform="scale(0.015625)"/>
      <path id="DejaVuSans-Bold-61" d="M 2106 1575 
Q 1756 1575 1579 1456 
Q 1403 1338 1403 1106 
Q 1403 894 1545 773 
Q 1688 653 1941 653 
Q 2256 653 2472 879 
Q 2688 1106 2688 1447 
L 2688 1575 
L 2106 1575 
z
M 3816 1997 
L 3816 0 
L 2688 0 
L 2688 519 
Q 2463 200 2181 54 
Q 1900 -91 1497 -91 
Q 953 -91 614 226 
Q 275 544 275 1050 
Q 275 1666 698 1953 
Q 1122 2241 2028 2241 
L 2688 2241 
L 2688 2328 
Q 2688 2594 2478 2717 
Q 2269 2841 1825 2841 
Q 1466 2841 1156 2769 
Q 847 2697 581 2553 
L 581 3406 
Q 941 3494 1303 3539 
Q 1666 3584 2028 3584 
Q 2975 3584 3395 3211 
Q 3816 2838 3816 1997 
z
" transform="scale(0.015625)"/>
     </defs>
     <use xlink:href="#DejaVuSans-Bold-48"/>
     <use xlink:href="#DejaVuSans-Bold-69" transform="translate(83.691406 0)"/>
     <use xlink:href="#DejaVuSans-Bold-6e" transform="translate(117.96875 0)"/>
     <use xlink:href="#DejaVuSans-Bold-64" transform="translate(189.160156 0)"/>
     <use xlink:href="#DejaVuSans-Bold-73" transform="translate(260.742188 0)"/>
     <use xlink:href="#DejaVuSans-Bold-69" transform="translate(320.263672 0)"/>
     <use xlink:href="#DejaVuSans-Bold-67" transform="translate(354.541016 0)"/>
     <use xlink:href="#DejaVuSans-Bold-68" transform="translate(426.123047 0)"/>
     <use xlink:href="#DejaVuSans-Bold-74" transform="translate(497.314453 0)"/>
     <use xlink:href="#DejaVuSans-Bold-20" transform="translate(545.117188 0)"/>
     <use xlink:href="#DejaVuSans-Bold-62" transform="translate(579.931641 0)"/>
     <use xlink:href="#DejaVuSans-Bold-69" transform="translate(651.513672 0)"/>
     <use xlink:href="#DejaVuSans-Bold-61" transform="translate(685.791016 0)"/>
     <use xlink:href="#DejaVuSans-Bold-73" transform="translate(753.271484 0)"/>
    </g>
   </g>
   <g id="text_6">
    <!-- “I knew it all along.” -->
    <g style="fill: #4d4d4d" transform="translate(113.04 306.764937) scale(0.106 -0.106)">
     <defs>
      <path id="DejaVuSans-49" d="M 628 4666 
L 1259 4666 
L 1259 0 
L 628 0 
L 628 4666 
z
" transform="scale(0.015625)"/>
      <path id="DejaVuSans-6b" d="M 581 4863 
L 1159 4863 
L 1159 1991 
L 2875 3500 
L 3609 3500 
L 1753 1863 
L 3688 0 
L 2938 0 
L 1159 1709 
L 1159 0 
L 581 0 
L 581 4863 
z
" transform="scale(0.015625)"/>
      <path id="DejaVuSans-77" d="M 269 3500 
L 844 3500 
L 1563 769 
L 2278 3500 
L 2956 3500 
L 3675 769 
L 4391 3500 
L 4966 3500 
L 4050 0 
L 3372 0 
L 2619 2869 
L 1863 0 
L 1184 0 
L 269 3500 
z
" transform="scale(0.015625)"/>
     </defs>
     <use xlink:href="#DejaVuSans-201c"/>
     <use xlink:href="#DejaVuSans-49" transform="translate(51.806641 0)"/>
     <use xlink:href="#DejaVuSans-20" transform="translate(81.298828 0)"/>
     <use xlink:href="#DejaVuSans-6b" transform="translate(113.085938 0)"/>
     <use xlink:href="#DejaVuSans-6e" transform="translate(170.996094 0)"/>
     <use xlink:href="#DejaVuSans-65" transform="translate(234.375 0)"/>
     <use xlink:href="#DejaVuSans-77" transform="translate(295.898438 0)"/>
     <use xlink:href="#DejaVuSans-20" transform="translate(377.685547 0)"/>
     <use xlink:href="#DejaVuSans-69" transform="translate(409.472656 0)"/>
     <use xlink:href="#DejaVuSans-74" transform="translate(437.255859 0)"/>
     <use xlink:href="#DejaVuSans-20" transform="translate(476.464844 0)"/>
     <use xlink:href="#DejaVuSans-61" transform="translate(508.251953 0)"/>
     <use xlink:href="#DejaVuSans-6c" transform="translate(569.53125 0)"/>
     <use xlink:href="#DejaVuSans-6c" transform="translate(597.314453 0)"/>
     <use xlink:href="#DejaVuSans-20" transform="translate(625.097656 0)"/>
     <use xlink:href="#DejaVuSans-61" transform="translate(656.884766 0)"/>
     <use xlink:href="#DejaVuSans-6c" transform="translate(718.164062 0)"/>
     <use xlink:href="#DejaVuSans-6f" transform="translate(745.947266 0)"/>
     <use xlink:href="#DejaVuSans-6e" transform="translate(807.128906 0)"/>
     <use xlink:href="#DejaVuSans-67" transform="translate(870.507812 0)"/>
     <use xlink:href="#DejaVuSans-2e" transform="translate(933.984375 0)"/>
     <use xlink:href="#DejaVuSans-201d" transform="translate(965.771484 0)"/>
    </g>
   </g>
   <g id="text_7">
    <!-- Confirmation bias -->
    <g style="fill: #222222" transform="translate(113.04 374.249219) scale(0.125 -0.125)">
     <defs>
      <path id="DejaVuSans-Bold-72" d="M 3138 2547 
Q 2991 2616 2845 2648 
Q 2700 2681 2553 2681 
Q 2122 2681 1889 2404 
Q 1656 2128 1656 1613 
L 1656 0 
L 538 0 
L 538 3500 
L 1656 3500 
L 1656 2925 
Q 1872 3269 2151 3426 
Q 2431 3584 2822 3584 
Q 2878 3584 2943 3579 
Q 3009 3575 3134 3559 
L 3138 2547 
z
" transform="scale(0.015625)"/>
     </defs>
     <use xlink:href="#DejaVuSans-Bold-43"/>
     <use xlink:href="#DejaVuSans-Bold-6f" transform="translate(73.388672 0)"/>
     <use xlink:href="#DejaVuSans-Bold-6e" transform="translate(142.089844 0)"/>
     <use xlink:href="#DejaVuSans-Bold-66" transform="translate(213.28125 0)"/>
     <use xlink:href="#DejaVuSans-Bold-69" transform="translate(256.787109 0)"/>
     <use xlink:href="#DejaVuSans-Bold-72" transform="translate(291.064453 0)"/>
     <use xlink:href="#DejaVuSans-Bold-6d" transform="translate(340.380859 0)"/>
     <use xlink:href="#DejaVuSans-Bold-61" transform="translate(444.580078 0)"/>
     <use xlink:href="#DejaVuSans-Bold-74" transform="translate(512.060547 0)"/>
     <use xlink:href="#DejaVuSans-Bold-69" transform="translate(559.863281 0)"/>
     <use xlink:href="#DejaVuSans-Bold-6f" transform="translate(594.140625 0)"/>
     <use xlink:href="#DejaVuSans-Bold-6e" transform="translate(662.841797 0)"/>
     <use xlink:href="#DejaVuSans-Bold-20" transform="translate(734.033203 0)"/>
     <use xlink:href="#DejaVuSans-Bold-62" transform="translate(768.847656 0)"/>
     <use xlink:href="#DejaVuSans-Bold-69" transform="translate(840.429688 0)"/>
     <use xlink:href="#DejaVuSans-Bold-61" transform="translate(874.707031 0)"/>
     <use xlink:href="#DejaVuSans-Bold-73" transform="translate(942.1875 0)"/>
    </g>
   </g>
   <g id="text_8">
    <!-- Notice evidence that agrees. -->
    <g style="fill: #4d4d4d" transform="translate(113.04 396.764937) scale(0.106 -0.106)">
     <defs>
      <path id="DejaVuSans-4e" d="M 628 4666 
L 1478 4666 
L 3547 763 
L 3547 4666 
L 4159 4666 
L 4159 0 
L 3309 0 
L 1241 3903 
L 1241 0 
L 628 0 
L 628 4666 
z
" transform="scale(0.015625)"/>
     </defs>
     <use xlink:href="#DejaVuSans-4e"/>
     <use xlink:href="#DejaVuSans-6f" transform="translate(74.804688 0)"/>
     <use xlink:href="#DejaVuSans-74" transform="translate(135.986328 0)"/>
     <use xlink:href="#DejaVuSans-69" transform="translate(175.195312 0)"/>
     <use xlink:href="#DejaVuSans-63" transform="translate(202.978516 0)"/>
     <use xlink:href="#DejaVuSans-65" transform="translate(257.958984 0)"/>
     <use xlink:href="#DejaVuSans-20" transform="translate(319.482422 0)"/>
     <use xlink:href="#DejaVuSans-65" transform="translate(351.269531 0)"/>
     <use xlink:href="#DejaVuSans-76" transform="translate(412.792969 0)"/>
     <use xlink:href="#DejaVuSans-69" transform="translate(471.972656 0)"/>
     <use xlink:href="#DejaVuSans-64" transform="translate(499.755859 0)"/>
     <use xlink:href="#DejaVuSans-65" transform="translate(563.232422 0)"/>
     <use xlink:href="#DejaVuSans-6e" transform="translate(624.755859 0)"/>
     <use xlink:href="#DejaVuSans-63" transform="translate(688.134766 0)"/>
     <use xlink:href="#DejaVuSans-65" transform="translate(743.115234 0)"/>
     <use xlink:href="#DejaVuSans-20" transform="translate(804.638672 0)"/>
     <use xlink:href="#DejaVuSans-74" transform="translate(836.425781 0)"/>
     <use xlink:href="#DejaVuSans-68" transform="translate(875.634766 0)"/>
     <use xlink:href="#DejaVuSans-61" transform="translate(939.013672 0)"/>
     <use xlink:href="#DejaVuSans-74" transform="translate(1000.292969 0)"/>
     <use xlink:href="#DejaVuSans-20" transform="translate(1039.501953 0)"/>
     <use xlink:href="#DejaVuSans-61" transform="translate(1071.289062 0)"/>
     <use xlink:href="#DejaVuSans-67" transform="translate(1132.568359 0)"/>
     <use xlink:href="#DejaVuSans-72" transform="translate(1196.044922 0)"/>
     <use xlink:href="#DejaVuSans-65" transform="translate(1234.908203 0)"/>
     <use xlink:href="#DejaVuSans-65" transform="translate(1296.431641 0)"/>
     <use xlink:href="#DejaVuSans-73" transform="translate(1357.955078 0)"/>
     <use xlink:href="#DejaVuSans-2e" transform="translate(1410.054688 0)"/>
    </g>
   </g>
   <g id="text_9">
    <!-- False confidence -->
    <g style="fill: #222222" transform="translate(113.04 464.249219) scale(0.125 -0.125)">
     <use xlink:href="#DejaVuSans-Bold-46"/>
     <use xlink:href="#DejaVuSans-Bold-61" transform="translate(62.435547 0)"/>
     <use xlink:href="#DejaVuSans-Bold-6c" transform="translate(129.916016 0)"/>
     <use xlink:href="#DejaVuSans-Bold-73" transform="translate(164.193359 0)"/>
     <use xlink:href="#DejaVuSans-Bold-65" transform="translate(223.714844 0)"/>
     <use xlink:href="#DejaVuSans-Bold-20" transform="translate(291.537109 0)"/>
     <use xlink:href="#DejaVuSans-Bold-63" transform="translate(326.351562 0)"/>
     <use xlink:href="#DejaVuSans-Bold-6f" transform="translate(385.628906 0)"/>
     <use xlink:href="#DejaVuSans-Bold-6e" transform="translate(454.330078 0)"/>
     <use xlink:href="#DejaVuSans-Bold-66" transform="translate(525.521484 0)"/>
     <use xlink:href="#DejaVuSans-Bold-69" transform="translate(569.027344 0)"/>
     <use xlink:href="#DejaVuSans-Bold-64" transform="translate(603.304688 0)"/>
     <use xlink:href="#DejaVuSans-Bold-65" transform="translate(674.886719 0)"/>
     <use xlink:href="#DejaVuSans-Bold-6e" transform="translate(742.708984 0)"/>
     <use xlink:href="#DejaVuSans-Bold-63" transform="translate(813.900391 0)"/>
     <use xlink:href="#DejaVuSans-Bold-65" transform="translate(873.177734 0)"/>
    </g>
   </g>
   <g id="text_10">
    <!-- A story feels like proof. -->
    <g style="fill: #4d4d4d" transform="translate(113.04 486.764937) scale(0.106 -0.106)">
     <defs>
      <path id="DejaVuSans-41" d="M 2188 4044 
L 1331 1722 
L 3047 1722 
L 2188 4044 
z
M 1831 4666 
L 2547 4666 
L 4325 0 
L 3669 0 
L 3244 1197 
L 1141 1197 
L 716 0 
L 50 0 
L 1831 4666 
z
" transform="scale(0.015625)"/>
      <path id="DejaVuSans-70" d="M 1159 525 
L 1159 -1331 
L 581 -1331 
L 581 3500 
L 1159 3500 
L 1159 2969 
Q 1341 3281 1617 3432 
Q 1894 3584 2278 3584 
Q 2916 3584 3314 3078 
Q 3713 2572 3713 1747 
Q 3713 922 3314 415 
Q 2916 -91 2278 -91 
Q 1894 -91 1617 61 
Q 1341 213 1159 525 
z
M 3116 1747 
Q 3116 2381 2855 2742 
Q 2594 3103 2138 3103 
Q 1681 3103 1420 2742 
Q 1159 2381 1159 1747 
Q 1159 1113 1420 752 
Q 1681 391 2138 391 
Q 2594 391 2855 752 
Q 3116 1113 3116 1747 
z
" transform="scale(0.015625)"/>
     </defs>
     <use xlink:href="#DejaVuSans-41"/>
     <use xlink:href="#DejaVuSans-20" transform="translate(68.408203 0)"/>
     <use xlink:href="#DejaVuSans-73" transform="translate(100.195312 0)"/>
     <use xlink:href="#DejaVuSans-74" transform="translate(152.294922 0)"/>
     <use xlink:href="#DejaVuSans-6f" transform="translate(191.503906 0)"/>
     <use xlink:href="#DejaVuSans-72" transform="translate(252.685547 0)"/>
     <use xlink:href="#DejaVuSans-79" transform="translate(293.798828 0)"/>
     <use xlink:href="#DejaVuSans-20" transform="translate(352.978516 0)"/>
     <use xlink:href="#DejaVuSans-66" transform="translate(384.765625 0)"/>
     <use xlink:href="#DejaVuSans-65" transform="translate(419.970703 0)"/>
     <use xlink:href="#DejaVuSans-65" transform="translate(481.494141 0)"/>
     <use xlink:href="#DejaVuSans-6c" transform="translate(543.017578 0)"/>
     <use xlink:href="#DejaVuSans-73" transform="translate(570.800781 0)"/>
     <use xlink:href="#DejaVuSans-20" transform="translate(622.900391 0)"/>
     <use xlink:href="#DejaVuSans-6c" transform="translate(654.6875 0)"/>
     <use xlink:href="#DejaVuSans-69" transform="translate(682.470703 0)"/>
     <use xlink:href="#DejaVuSans-6b" transform="translate(710.253906 0)"/>
     <use xlink:href="#DejaVuSans-65" transform="translate(764.539062 0)"/>
     <use xlink:href="#DejaVuSans-20" transform="translate(826.0625 0)"/>
     <use xlink:href="#DejaVuSans-70" transform="translate(857.849609 0)"/>
     <use xlink:href="#DejaVuSans-72" transform="translate(921.326172 0)"/>
     <use xlink:href="#DejaVuSans-6f" transform="translate(960.189453 0)"/>
     <use xlink:href="#DejaVuSans-6f" transform="translate(1021.371094 0)"/>
     <use xlink:href="#DejaVuSans-66" transform="translate(1082.552734 0)"/>
     <use xlink:href="#DejaVuSans-2e" transform="translate(1110.507812 0)"/>
    </g>
   </g>
   <g id="text_11">
    <!-- Hypothesis -->
    <g style="fill: #222222" transform="translate(663.84 194.200391) scale(0.125 -0.125)">
     <defs>
      <path id="DejaVuSans-Bold-70" d="M 1656 506 
L 1656 -1331 
L 538 -1331 
L 538 3500 
L 1656 3500 
L 1656 2988 
Q 1888 3294 2169 3439 
Q 2450 3584 2816 3584 
Q 3463 3584 3878 3070 
Q 4294 2556 4294 1747 
Q 4294 938 3878 423 
Q 3463 -91 2816 -91 
Q 2450 -91 2169 54 
Q 1888 200 1656 506 
z
M 2400 2772 
Q 2041 2772 1848 2508 
Q 1656 2244 1656 1747 
Q 1656 1250 1848 986 
Q 2041 722 2400 722 
Q 2759 722 2948 984 
Q 3138 1247 3138 1747 
Q 3138 2247 2948 2509 
Q 2759 2772 2400 2772 
z
" transform="scale(0.015625)"/>
     </defs>
     <use xlink:href="#DejaVuSans-Bold-48"/>
     <use xlink:href="#DejaVuSans-Bold-79" transform="translate(83.691406 0)"/>
     <use xlink:href="#DejaVuSans-Bold-70" transform="translate(148.876953 0)"/>
     <use xlink:href="#DejaVuSans-Bold-6f" transform="translate(220.458984 0)"/>
     <use xlink:href="#DejaVuSans-Bold-74" transform="translate(289.160156 0)"/>
     <use xlink:href="#DejaVuSans-Bold-68" transform="translate(336.962891 0)"/>
     <use xlink:href="#DejaVuSans-Bold-65" transform="translate(408.154297 0)"/>
     <use xlink:href="#DejaVuSans-Bold-73" transform="translate(475.976562 0)"/>
     <use xlink:href="#DejaVuSans-Bold-69" transform="translate(535.498047 0)"/>
     <use xlink:href="#DejaVuSans-Bold-73" transform="translate(569.775391 0)"/>
    </g>
   </g>
   <g id="text_12">
    <!-- Make a testable prediction. -->
    <g style="fill: #4d4d4d" transform="translate(663.84 216.764937) scale(0.106 -0.106)">
     <defs>
      <path id="DejaVuSans-4d" d="M 628 4666 
L 1569 4666 
L 2759 1491 
L 3956 4666 
L 4897 4666 
L 4897 0 
L 4281 0 
L 4281 4097 
L 3078 897 
L 2444 897 
L 1241 4097 
L 1241 0 
L 628 0 
L 628 4666 
z
" transform="scale(0.015625)"/>
     </defs>
     <use xlink:href="#DejaVuSans-4d"/>
     <use xlink:href="#DejaVuSans-61" transform="translate(86.279297 0)"/>
     <use xlink:href="#DejaVuSans-6b" transform="translate(147.558594 0)"/>
     <use xlink:href="#DejaVuSans-65" transform="translate(201.84375 0)"/>
     <use xlink:href="#DejaVuSans-20" transform="translate(263.367188 0)"/>
     <use xlink:href="#DejaVuSans-61" transform="translate(295.154297 0)"/>
     <use xlink:href="#DejaVuSans-20" transform="translate(356.433594 0)"/>
     <use xlink:href="#DejaVuSans-74" transform="translate(388.220703 0)"/>
     <use xlink:href="#DejaVuSans-65" transform="translate(427.429688 0)"/>
     <use xlink:href="#DejaVuSans-73" transform="translate(488.953125 0)"/>
     <use xlink:href="#DejaVuSans-74" transform="translate(541.052734 0)"/>
     <use xlink:href="#DejaVuSans-61" transform="translate(580.261719 0)"/>
     <use xlink:href="#DejaVuSans-62" transform="translate(641.541016 0)"/>
     <use xlink:href="#DejaVuSans-6c" transform="translate(705.017578 0)"/>
     <use xlink:href="#DejaVuSans-65" transform="translate(732.800781 0)"/>
     <use xlink:href="#DejaVuSans-20" transform="translate(794.324219 0)"/>
     <use xlink:href="#DejaVuSans-70" transform="translate(826.111328 0)"/>
     <use xlink:href="#DejaVuSans-72" transform="translate(889.587891 0)"/>
     <use xlink:href="#DejaVuSans-65" transform="translate(928.451172 0)"/>
     <use xlink:href="#DejaVuSans-64" transform="translate(989.974609 0)"/>
     <use xlink:href="#DejaVuSans-69" transform="translate(1053.451172 0)"/>
     <use xlink:href="#DejaVuSans-63" transform="translate(1081.234375 0)"/>
     <use xlink:href="#DejaVuSans-74" transform="translate(1136.214844 0)"/>
     <use xlink:href="#DejaVuSans-69" transform="translate(1175.423828 0)"/>
     <use xlink:href="#DejaVuSans-6f" transform="translate(1203.207031 0)"/>
     <use xlink:href="#DejaVuSans-6e" transform="translate(1264.388672 0)"/>
     <use xlink:href="#DejaVuSans-2e" transform="translate(1327.767578 0)"/>
    </g>
   </g>
   <g id="text_13">
    <!-- Systematic observation -->
    <g style="fill: #222222" transform="translate(663.84 284.200391) scale(0.125 -0.125)">
     <use xlink:href="#DejaVuSans-Bold-53"/>
     <use xlink:href="#DejaVuSans-Bold-79" transform="translate(72.021484 0)"/>
     <use xlink:href="#DejaVuSans-Bold-73" transform="translate(137.207031 0)"/>
     <use xlink:href="#DejaVuSans-Bold-74" transform="translate(196.728516 0)"/>
     <use xlink:href="#DejaVuSans-Bold-65" transform="translate(244.53125 0)"/>
     <use xlink:href="#DejaVuSans-Bold-6d" transform="translate(312.353516 0)"/>
     <use xlink:href="#DejaVuSans-Bold-61" transform="translate(416.552734 0)"/>
     <use xlink:href="#DejaVuSans-Bold-74" transform="translate(484.033203 0)"/>
     <use xlink:href="#DejaVuSans-Bold-69" transform="translate(531.835938 0)"/>
     <use xlink:href="#DejaVuSans-Bold-63" transform="translate(566.113281 0)"/>
     <use xlink:href="#DejaVuSans-Bold-20" transform="translate(625.390625 0)"/>
     <use xlink:href="#DejaVuSans-Bold-6f" transform="translate(660.205078 0)"/>
     <use xlink:href="#DejaVuSans-Bold-62" transform="translate(728.90625 0)"/>
     <use xlink:href="#DejaVuSans-Bold-73" transform="translate(800.488281 0)"/>
     <use xlink:href="#DejaVuSans-Bold-65" transform="translate(860.009766 0)"/>
     <use xlink:href="#DejaVuSans-Bold-72" transform="translate(927.832031 0)"/>
     <use xlink:href="#DejaVuSans-Bold-76" transform="translate(977.148438 0)"/>
     <use xlink:href="#DejaVuSans-Bold-61" transform="translate(1042.333984 0)"/>
     <use xlink:href="#DejaVuSans-Bold-74" transform="translate(1109.814453 0)"/>
     <use xlink:href="#DejaVuSans-Bold-69" transform="translate(1157.617188 0)"/>
     <use xlink:href="#DejaVuSans-Bold-6f" transform="translate(1191.894531 0)"/>
     <use xlink:href="#DejaVuSans-Bold-6e" transform="translate(1260.595703 0)"/>
    </g>
   </g>
   <g id="text_14">
    <!-- Collect data with a method. -->
    <g style="fill: #4d4d4d" transform="translate(663.84 306.764937) scale(0.106 -0.106)">
     <defs>
      <path id="DejaVuSans-43" d="M 4122 4306 
L 4122 3641 
Q 3803 3938 3442 4084 
Q 3081 4231 2675 4231 
Q 1875 4231 1450 3742 
Q 1025 3253 1025 2328 
Q 1025 1406 1450 917 
Q 1875 428 2675 428 
Q 3081 428 3442 575 
Q 3803 722 4122 1019 
L 4122 359 
Q 3791 134 3420 21 
Q 3050 -91 2638 -91 
Q 1578 -91 968 557 
Q 359 1206 359 2328 
Q 359 3453 968 4101 
Q 1578 4750 2638 4750 
Q 3056 4750 3426 4639 
Q 3797 4528 4122 4306 
z
" transform="scale(0.015625)"/>
     </defs>
     <use xlink:href="#DejaVuSans-43"/>
     <use xlink:href="#DejaVuSans-6f" transform="translate(69.824219 0)"/>
     <use xlink:href="#DejaVuSans-6c" transform="translate(131.005859 0)"/>
     <use xlink:href="#DejaVuSans-6c" transform="translate(158.789062 0)"/>
     <use xlink:href="#DejaVuSans-65" transform="translate(186.572266 0)"/>
     <use xlink:href="#DejaVuSans-63" transform="translate(248.095703 0)"/>
     <use xlink:href="#DejaVuSans-74" transform="translate(303.076172 0)"/>
     <use xlink:href="#DejaVuSans-20" transform="translate(342.285156 0)"/>
     <use xlink:href="#DejaVuSans-64" transform="translate(374.072266 0)"/>
     <use xlink:href="#DejaVuSans-61" transform="translate(437.548828 0)"/>
     <use xlink:href="#DejaVuSans-74" transform="translate(498.828125 0)"/>
     <use xlink:href="#DejaVuSans-61" transform="translate(538.037109 0)"/>
     <use xlink:href="#DejaVuSans-20" transform="translate(599.316406 0)"/>
     <use xlink:href="#DejaVuSans-77" transform="translate(631.103516 0)"/>
     <use xlink:href="#DejaVuSans-69" transform="translate(712.890625 0)"/>
     <use xlink:href="#DejaVuSans-74" transform="translate(740.673828 0)"/>
     <use xlink:href="#DejaVuSans-68" transform="translate(779.882812 0)"/>
     <use xlink:href="#DejaVuSans-20" transform="translate(843.261719 0)"/>
     <use xlink:href="#DejaVuSans-61" transform="translate(875.048828 0)"/>
     <use xlink:href="#DejaVuSans-20" transform="translate(936.328125 0)"/>
     <use xlink:href="#DejaVuSans-6d" transform="translate(968.115234 0)"/>
     <use xlink:href="#DejaVuSans-65" transform="translate(1065.527344 0)"/>
     <use xlink:href="#DejaVuSans-74" transform="translate(1127.050781 0)"/>
     <use xlink:href="#DejaVuSans-68" transform="translate(1166.259766 0)"/>
     <use xlink:href="#DejaVuSans-6f" transform="translate(1229.638672 0)"/>
     <use xlink:href="#DejaVuSans-64" transform="translate(1290.820312 0)"/>
     <use xlink:href="#DejaVuSans-2e" transform="translate(1354.296875 0)"/>
    </g>
   </g>
   <g id="text_15">
    <!-- Controls -->
    <g style="fill: #222222" transform="translate(663.84 374.249219) scale(0.125 -0.125)">
     <use xlink:href="#DejaVuSans-Bold-43"/>
     <use xlink:href="#DejaVuSans-Bold-6f" transform="translate(73.388672 0)"/>
     <use xlink:href="#DejaVuSans-Bold-6e" transform="translate(142.089844 0)"/>
     <use xlink:href="#DejaVuSans-Bold-74" transform="translate(213.28125 0)"/>
     <use xlink:href="#DejaVuSans-Bold-72" transform="translate(261.083984 0)"/>
     <use xlink:href="#DejaVuSans-Bold-6f" transform="translate(310.400391 0)"/>
     <use xlink:href="#DejaVuSans-Bold-6c" transform="translate(379.101562 0)"/>
     <use xlink:href="#DejaVuSans-Bold-73" transform="translate(413.378906 0)"/>
    </g>
   </g>
   <g id="text_16">
    <!-- Rule out alternatives. -->
    <g style="fill: #4d4d4d" transform="translate(663.84 396.764937) scale(0.106 -0.106)">
     <defs>
      <path id="DejaVuSans-52" d="M 2841 2188 
Q 3044 2119 3236 1894 
Q 3428 1669 3622 1275 
L 4263 0 
L 3584 0 
L 2988 1197 
Q 2756 1666 2539 1819 
Q 2322 1972 1947 1972 
L 1259 1972 
L 1259 0 
L 628 0 
L 628 4666 
L 2053 4666 
Q 2853 4666 3247 4331 
Q 3641 3997 3641 3322 
Q 3641 2881 3436 2590 
Q 3231 2300 2841 2188 
z
M 1259 4147 
L 1259 2491 
L 2053 2491 
Q 2509 2491 2742 2702 
Q 2975 2913 2975 3322 
Q 2975 3731 2742 3939 
Q 2509 4147 2053 4147 
L 1259 4147 
z
" transform="scale(0.015625)"/>
     </defs>
     <use xlink:href="#DejaVuSans-52"/>
     <use xlink:href="#DejaVuSans-75" transform="translate(64.982422 0)"/>
     <use xlink:href="#DejaVuSans-6c" transform="translate(128.361328 0)"/>
     <use xlink:href="#DejaVuSans-65" transform="translate(156.144531 0)"/>
     <use xlink:href="#DejaVuSans-20" transform="translate(217.667969 0)"/>
     <use xlink:href="#DejaVuSans-6f" transform="translate(249.455078 0)"/>
     <use xlink:href="#DejaVuSans-75" transform="translate(310.636719 0)"/>
     <use xlink:href="#DejaVuSans-74" transform="translate(374.015625 0)"/>
     <use xlink:href="#DejaVuSans-20" transform="translate(413.224609 0)"/>
     <use xlink:href="#DejaVuSans-61" transform="translate(445.011719 0)"/>
     <use xlink:href="#DejaVuSans-6c" transform="translate(506.291016 0)"/>
     <use xlink:href="#DejaVuSans-74" transform="translate(534.074219 0)"/>
     <use xlink:href="#DejaVuSans-65" transform="translate(573.283203 0)"/>
     <use xlink:href="#DejaVuSans-72" transform="translate(634.806641 0)"/>
     <use xlink:href="#DejaVuSans-6e" transform="translate(674.169922 0)"/>
     <use xlink:href="#DejaVuSans-61" transform="translate(737.548828 0)"/>
     <use xlink:href="#DejaVuSans-74" transform="translate(798.828125 0)"/>
     <use xlink:href="#DejaVuSans-69" transform="translate(838.037109 0)"/>
     <use xlink:href="#DejaVuSans-76" transform="translate(865.820312 0)"/>
     <use xlink:href="#DejaVuSans-65" transform="translate(925 0)"/>
     <use xlink:href="#DejaVuSans-73" transform="translate(986.523438 0)"/>
     <use xlink:href="#DejaVuSans-2e" transform="translate(1038.623047 0)"/>
    </g>
   </g>
   <g id="text_17">
    <!-- Replication + revision -->
    <g style="fill: #222222" transform="translate(663.84 464.249219) scale(0.125 -0.125)">
     <defs>
      <path id="DejaVuSans-Bold-52" d="M 2297 2597 
Q 2675 2597 2839 2737 
Q 3003 2878 3003 3200 
Q 3003 3519 2839 3656 
Q 2675 3794 2297 3794 
L 1791 3794 
L 1791 2597 
L 2297 2597 
z
M 1791 1766 
L 1791 0 
L 588 0 
L 588 4666 
L 2425 4666 
Q 3347 4666 3776 4356 
Q 4206 4047 4206 3378 
Q 4206 2916 3982 2619 
Q 3759 2322 3309 2181 
Q 3556 2125 3751 1926 
Q 3947 1728 4147 1325 
L 4800 0 
L 3519 0 
L 2950 1159 
Q 2778 1509 2601 1637 
Q 2425 1766 2131 1766 
L 1791 1766 
z
" transform="scale(0.015625)"/>
      <path id="DejaVuSans-Bold-2b" d="M 3053 4013 
L 3053 2375 
L 4684 2375 
L 4684 1638 
L 3053 1638 
L 3053 0 
L 2309 0 
L 2309 1638 
L 678 1638 
L 678 2375 
L 2309 2375 
L 2309 4013 
L 3053 4013 
z
" transform="scale(0.015625)"/>
     </defs>
     <use xlink:href="#DejaVuSans-Bold-52"/>
     <use xlink:href="#DejaVuSans-Bold-65" transform="translate(77.001953 0)"/>
     <use xlink:href="#DejaVuSans-Bold-70" transform="translate(144.824219 0)"/>
     <use xlink:href="#DejaVuSans-Bold-6c" transform="translate(216.40625 0)"/>
     <use xlink:href="#DejaVuSans-Bold-69" transform="translate(250.683594 0)"/>
     <use xlink:href="#DejaVuSans-Bold-63" transform="translate(284.960938 0)"/>
     <use xlink:href="#DejaVuSans-Bold-61" transform="translate(344.238281 0)"/>
     <use xlink:href="#DejaVuSans-Bold-74" transform="translate(411.71875 0)"/>
     <use xlink:href="#DejaVuSans-Bold-69" transform="translate(459.521484 0)"/>
     <use xlink:href="#DejaVuSans-Bold-6f" transform="translate(493.798828 0)"/>
     <use xlink:href="#DejaVuSans-Bold-6e" transform="translate(562.5 0)"/>
     <use xlink:href="#DejaVuSans-Bold-20" transform="translate(633.691406 0)"/>
     <use xlink:href="#DejaVuSans-Bold-2b" transform="translate(668.505859 0)"/>
     <use xlink:href="#DejaVuSans-Bold-20" transform="translate(752.294922 0)"/>
     <use xlink:href="#DejaVuSans-Bold-72" transform="translate(787.109375 0)"/>
     <use xlink:href="#DejaVuSans-Bold-65" transform="translate(836.425781 0)"/>
     <use xlink:href="#DejaVuSans-Bold-76" transform="translate(904.248047 0)"/>
     <use xlink:href="#DejaVuSans-Bold-69" transform="translate(969.433594 0)"/>
     <use xlink:href="#DejaVuSans-Bold-73" transform="translate(1003.710938 0)"/>
     <use xlink:href="#DejaVuSans-Bold-69" transform="translate(1063.232422 0)"/>
     <use xlink:href="#DejaVuSans-Bold-6f" transform="translate(1097.509766 0)"/>
     <use xlink:href="#DejaVuSans-Bold-6e" transform="translate(1166.210938 0)"/>
    </g>
   </g>
   <g id="text_18">
    <!-- Keep what survives testing. -->
    <g style="fill: #4d4d4d" transform="translate(663.84 486.764937) scale(0.106 -0.106)">
     <defs>
      <path id="DejaVuSans-4b" d="M 628 4666 
L 1259 4666 
L 1259 2694 
L 3353 4666 
L 4166 4666 
L 1850 2491 
L 4331 0 
L 3500 0 
L 1259 2247 
L 1259 0 
L 628 0 
L 628 4666 
z
" transform="scale(0.015625)"/>
     </defs>
     <use xlink:href="#DejaVuSans-4b"/>
     <use xlink:href="#DejaVuSans-65" transform="translate(60.576172 0)"/>
     <use xlink:href="#DejaVuSans-65" transform="translate(122.099609 0)"/>
     <use xlink:href="#DejaVuSans-70" transform="translate(183.623047 0)"/>
     <use xlink:href="#DejaVuSans-20" transform="translate(247.099609 0)"/>
     <use xlink:href="#DejaVuSans-77" transform="translate(278.886719 0)"/>
     <use xlink:href="#DejaVuSans-68" transform="translate(360.673828 0)"/>
     <use xlink:href="#DejaVuSans-61" transform="translate(424.052734 0)"/>
     <use xlink:href="#DejaVuSans-74" transform="translate(485.332031 0)"/>
     <use xlink:href="#DejaVuSans-20" transform="translate(524.541016 0)"/>
     <use xlink:href="#DejaVuSans-73" transform="translate(556.328125 0)"/>
     <use xlink:href="#DejaVuSans-75" transform="translate(608.427734 0)"/>
     <use xlink:href="#DejaVuSans-72" transform="translate(671.806641 0)"/>
     <use xlink:href="#DejaVuSans-76" transform="translate(712.919922 0)"/>
     <use xlink:href="#DejaVuSans-69" transform="translate(772.099609 0)"/>
     <use xlink:href="#DejaVuSans-76" transform="translate(799.882812 0)"/>
     <use xlink:href="#DejaVuSans-65" transform="translate(859.0625 0)"/>
     <use xlink:href="#DejaVuSans-73" transform="translate(920.585938 0)"/>
     <use xlink:href="#DejaVuSans-20" transform="translate(972.685547 0)"/>
     <use xlink:href="#DejaVuSans-74" transform="translate(1004.472656 0)"/>
     <use xlink:href="#DejaVuSans-65" transform="translate(1043.681641 0)"/>
     <use xlink:href="#DejaVuSans-73" transform="translate(1105.205078 0)"/>
     <use xlink:href="#DejaVuSans-74" transform="translate(1157.304688 0)"/>
     <use xlink:href="#DejaVuSans-69" transform="translate(1196.513672 0)"/>
     <use xlink:href="#DejaVuSans-6e" transform="translate(1224.296875 0)"/>
     <use xlink:href="#DejaVuSans-67" transform="translate(1287.675781 0)"/>
     <use xlink:href="#DejaVuSans-2e" transform="translate(1351.152344 0)"/>
    </g>
   </g>
   <g id="text_19">
    <!-- Common-sense pathway -->
    <g style="fill: #222222" transform="translate(204.520625 128.368438) scale(0.14 -0.14)">
     <defs>
      <path id="DejaVuSans-Bold-2d" d="M 347 2297 
L 2309 2297 
L 2309 1388 
L 347 1388 
L 347 2297 
z
" transform="scale(0.015625)"/>
      <path id="DejaVuSans-Bold-77" d="M 225 3500 
L 1313 3500 
L 1900 1088 
L 2491 3500 
L 3425 3500 
L 4013 1113 
L 4603 3500 
L 5691 3500 
L 4769 0 
L 3547 0 
L 2956 2406 
L 2369 0 
L 1147 0 
L 225 3500 
z
" transform="scale(0.015625)"/>
     </defs>
     <use xlink:href="#DejaVuSans-Bold-43"/>
     <use xlink:href="#DejaVuSans-Bold-6f" transform="translate(73.388672 0)"/>
     <use xlink:href="#DejaVuSans-Bold-6d" transform="translate(142.089844 0)"/>
     <use xlink:href="#DejaVuSans-Bold-6d" transform="translate(246.289062 0)"/>
     <use xlink:href="#DejaVuSans-Bold-6f" transform="translate(350.488281 0)"/>
     <use xlink:href="#DejaVuSans-Bold-6e" transform="translate(419.189453 0)"/>
     <use xlink:href="#DejaVuSans-Bold-2d" transform="translate(490.380859 0)"/>
     <use xlink:href="#DejaVuSans-Bold-73" transform="translate(531.884766 0)"/>
     <use xlink:href="#DejaVuSans-Bold-65" transform="translate(591.40625 0)"/>
     <use xlink:href="#DejaVuSans-Bold-6e" transform="translate(659.228516 0)"/>
     <use xlink:href="#DejaVuSans-Bold-73" transform="translate(730.419922 0)"/>
     <use xlink:href="#DejaVuSans-Bold-65" transform="translate(789.941406 0)"/>
     <use xlink:href="#DejaVuSans-Bold-20" transform="translate(857.763672 0)"/>
     <use xlink:href="#DejaVuSans-Bold-70" transform="translate(892.578125 0)"/>
     <use xlink:href="#DejaVuSans-Bold-61" transform="translate(964.160156 0)"/>
     <use xlink:href="#DejaVuSans-Bold-74" transform="translate(1031.640625 0)"/>
     <use xlink:href="#DejaVuSans-Bold-68" transform="translate(1079.443359 0)"/>
     <use xlink:href="#DejaVuSans-Bold-77" transform="translate(1150.634766 0)"/>
     <use xlink:href="#DejaVuSans-Bold-61" transform="translate(1243.017578 0)"/>
     <use xlink:href="#DejaVuSans-Bold-79" transform="translate(1307.373047 0)"/>
    </g>
   </g>
   <g id="text_20">
    <!-- Scientific pathway -->
    <g style="fill: #222222" transform="translate(778.702812 128.368438) scale(0.14 -0.14)">
     <use xlink:href="#DejaVuSans-Bold-53"/>
     <use xlink:href="#DejaVuSans-Bold-63" transform="translate(72.021484 0)"/>
     <use xlink:href="#DejaVuSans-Bold-69" transform="translate(131.298828 0)"/>
     <use xlink:href="#DejaVuSans-Bold-65" transform="translate(165.576172 0)"/>
     <use xlink:href="#DejaVuSans-Bold-6e" transform="translate(233.398438 0)"/>
     <use xlink:href="#DejaVuSans-Bold-74" transform="translate(304.589844 0)"/>
     <use xlink:href="#DejaVuSans-Bold-69" transform="translate(352.392578 0)"/>
     <use xlink:href="#DejaVuSans-Bold-66" transform="translate(386.669922 0)"/>
     <use xlink:href="#DejaVuSans-Bold-69" transform="translate(430.175781 0)"/>
     <use xlink:href="#DejaVuSans-Bold-63" transform="translate(464.453125 0)"/>
     <use xlink:href="#DejaVuSans-Bold-20" transform="translate(523.730469 0)"/>
     <use xlink:href="#DejaVuSans-Bold-70" transform="translate(558.544922 0)"/>
     <use xlink:href="#DejaVuSans-Bold-61" transform="translate(630.126953 0)"/>
     <use xlink:href="#DejaVuSans-Bold-74" transform="translate(697.607422 0)"/>
     <use xlink:href="#DejaVuSans-Bold-68" transform="translate(745.410156 0)"/>
     <use xlink:href="#DejaVuSans-Bold-77" transform="translate(816.601562 0)"/>
     <use xlink:href="#DejaVuSans-Bold-61" transform="translate(908.984375 0)"/>
     <use xlink:href="#DejaVuSans-Bold-79" transform="translate(973.339844 0)"/>
    </g>
   </g>
   <g id="text_21">
    <!-- Science does not eliminate bias. It builds procedures that make bias easier to catch. -->
    <g style="fill: #222222" transform="translate(270.117 601.132) scale(0.128 -0.128)">
     <defs>
      <path id="DejaVuSans-Bold-6b" d="M 538 4863 
L 1656 4863 
L 1656 2216 
L 2944 3500 
L 4244 3500 
L 2534 1894 
L 4378 0 
L 3022 0 
L 1656 1459 
L 1656 0 
L 538 0 
L 538 4863 
z
" transform="scale(0.015625)"/>
     </defs>
     <use xlink:href="#DejaVuSans-Bold-53"/>
     <use xlink:href="#DejaVuSans-Bold-63" transform="translate(72.021484 0)"/>
     <use xlink:href="#DejaVuSans-Bold-69" transform="translate(131.298828 0)"/>
     <use xlink:href="#DejaVuSans-Bold-65" transform="translate(165.576172 0)"/>
     <use xlink:href="#DejaVuSans-Bold-6e" transform="translate(233.398438 0)"/>
     <use xlink:href="#DejaVuSans-Bold-63" transform="translate(304.589844 0)"/>
     <use xlink:href="#DejaVuSans-Bold-65" transform="translate(363.867188 0)"/>
     <use xlink:href="#DejaVuSans-Bold-20" transform="translate(431.689453 0)"/>
     <use xlink:href="#DejaVuSans-Bold-64" transform="translate(466.503906 0)"/>
     <use xlink:href="#DejaVuSans-Bold-6f" transform="translate(538.085938 0)"/>
     <use xlink:href="#DejaVuSans-Bold-65" transform="translate(606.787109 0)"/>
     <use xlink:href="#DejaVuSans-Bold-73" transform="translate(674.609375 0)"/>
     <use xlink:href="#DejaVuSans-Bold-20" transform="translate(734.130859 0)"/>
     <use xlink:href="#DejaVuSans-Bold-6e" transform="translate(768.945312 0)"/>
     <use xlink:href="#DejaVuSans-Bold-6f" transform="translate(840.136719 0)"/>
     <use xlink:href="#DejaVuSans-Bold-74" transform="translate(908.837891 0)"/>
     <use xlink:href="#DejaVuSans-Bold-20" transform="translate(956.640625 0)"/>
     <use xlink:href="#DejaVuSans-Bold-65" transform="translate(991.455078 0)"/>
     <use xlink:href="#DejaVuSans-Bold-6c" transform="translate(1059.277344 0)"/>
     <use xlink:href="#DejaVuSans-Bold-69" transform="translate(1093.554688 0)"/>
     <use xlink:href="#DejaVuSans-Bold-6d" transform="translate(1127.832031 0)"/>
     <use xlink:href="#DejaVuSans-Bold-69" transform="translate(1232.03125 0)"/>
     <use xlink:href="#DejaVuSans-Bold-6e" transform="translate(1266.308594 0)"/>
     <use xlink:href="#DejaVuSans-Bold-61" transform="translate(1337.5 0)"/>
     <use xlink:href="#DejaVuSans-Bold-74" transform="translate(1404.980469 0)"/>
     <use xlink:href="#DejaVuSans-Bold-65" transform="translate(1452.783203 0)"/>
     <use xlink:href="#DejaVuSans-Bold-20" transform="translate(1520.605469 0)"/>
     <use xlink:href="#DejaVuSans-Bold-62" transform="translate(1555.419922 0)"/>
     <use xlink:href="#DejaVuSans-Bold-69" transform="translate(1627.001953 0)"/>
     <use xlink:href="#DejaVuSans-Bold-61" transform="translate(1661.279297 0)"/>
     <use xlink:href="#DejaVuSans-Bold-73" transform="translate(1728.759766 0)"/>
     <use xlink:href="#DejaVuSans-Bold-2e" transform="translate(1788.28125 0)"/>
     <use xlink:href="#DejaVuSans-Bold-20" transform="translate(1826.269531 0)"/>
     <use xlink:href="#DejaVuSans-Bold-49" transform="translate(1861.083984 0)"/>
     <use xlink:href="#DejaVuSans-Bold-74" transform="translate(1898.291016 0)"/>
     <use xlink:href="#DejaVuSans-Bold-20" transform="translate(1946.09375 0)"/>
     <use xlink:href="#DejaVuSans-Bold-62" transform="translate(1980.908203 0)"/>
     <use xlink:href="#DejaVuSans-Bold-75" transform="translate(2052.490234 0)"/>
     <use xlink:href="#DejaVuSans-Bold-69" transform="translate(2123.681641 0)"/>
     <use xlink:href="#DejaVuSans-Bold-6c" transform="translate(2157.958984 0)"/>
     <use xlink:href="#DejaVuSans-Bold-64" transform="translate(2192.236328 0)"/>
     <use xlink:href="#DejaVuSans-Bold-73" transform="translate(2263.818359 0)"/>
     <use xlink:href="#DejaVuSans-Bold-20" transform="translate(2323.339844 0)"/>
     <use xlink:href="#DejaVuSans-Bold-70" transform="translate(2358.154297 0)"/>
     <use xlink:href="#DejaVuSans-Bold-72" transform="translate(2429.736328 0)"/>
     <use xlink:href="#DejaVuSans-Bold-6f" transform="translate(2479.052734 0)"/>
     <use xlink:href="#DejaVuSans-Bold-63" transform="translate(2547.753906 0)"/>
     <use xlink:href="#DejaVuSans-Bold-65" transform="translate(2607.03125 0)"/>
     <use xlink:href="#DejaVuSans-Bold-64" transform="translate(2674.853516 0)"/>
     <use xlink:href="#DejaVuSans-Bold-75" transform="translate(2746.435547 0)"/>
     <use xlink:href="#DejaVuSans-Bold-72" transform="translate(2817.626953 0)"/>
     <use xlink:href="#DejaVuSans-Bold-65" transform="translate(2866.943359 0)"/>
     <use xlink:href="#DejaVuSans-Bold-73" transform="translate(2934.765625 0)"/>
     <use xlink:href="#DejaVuSans-Bold-20" transform="translate(2994.287109 0)"/>
     <use xlink:href="#DejaVuSans-Bold-74" transform="translate(3029.101562 0)"/>
     <use xlink:href="#DejaVuSans-Bold-68" transform="translate(3076.904297 0)"/>
     <use xlink:href="#DejaVuSans-Bold-61" transform="translate(3148.095703 0)"/>
     <use xlink:href="#DejaVuSans-Bold-74" transform="translate(3215.576172 0)"/>
     <use xlink:href="#DejaVuSans-Bold-20" transform="translate(3263.378906 0)"/>
     <use xlink:href="#DejaVuSans-Bold-6d" transform="translate(3298.193359 0)"/>
     <use xlink:href="#DejaVuSans-Bold-61" transform="translate(3402.392578 0)"/>
     <use xlink:href="#DejaVuSans-Bold-6b" transform="translate(3469.873047 0)"/>
     <use xlink:href="#DejaVuSans-Bold-65" transform="translate(3533.751953 0)"/>
     <use xlink:href="#DejaVuSans-Bold-20" transform="translate(3601.574219 0)"/>
     <use xlink:href="#DejaVuSans-Bold-62" transform="translate(3636.388672 0)"/>
     <use xlink:href="#DejaVuSans-Bold-69" transform="translate(3707.970703 0)"/>
     <use xlink:href="#DejaVuSans-Bold-61" transform="translate(3742.248047 0)"/>
     <use xlink:href="#DejaVuSans-Bold-73" transform="translate(3809.728516 0)"/>
     <use xlink:href="#DejaVuSans-Bold-20" transform="translate(3869.25 0)"/>
     <use xlink:href="#DejaVuSans-Bold-65" transform="translate(3904.064453 0)"/>
     <use xlink:href="#DejaVuSans-Bold-61" transform="translate(3971.886719 0)"/>
     <use xlink:href="#DejaVuSans-Bold-73" transform="translate(4039.367188 0)"/>
     <use xlink:href="#DejaVuSans-Bold-69" transform="translate(4098.888672 0)"/>
     <use xlink:href="#DejaVuSans-Bold-65" transform="translate(4133.166016 0)"/>
     <use xlink:href="#DejaVuSans-Bold-72" transform="translate(4200.988281 0)"/>
     <use xlink:href="#DejaVuSans-Bold-20" transform="translate(4250.304688 0)"/>
     <use xlink:href="#DejaVuSans-Bold-74" transform="translate(4285.119141 0)"/>
     <use xlink:href="#DejaVuSans-Bold-6f" transform="translate(4332.921875 0)"/>
     <use xlink:href="#DejaVuSans-Bold-20" transform="translate(4401.623047 0)"/>
     <use xlink:href="#DejaVuSans-Bold-63" transform="translate(4436.4375 0)"/>
     <use xlink:href="#DejaVuSans-Bold-61" transform="translate(4495.714844 0)"/>
     <use xlink:href="#DejaVuSans-Bold-74" transform="translate(4563.195312 0)"/>
     <use xlink:href="#DejaVuSans-Bold-63" transform="translate(4610.998047 0)"/>
     <use xlink:href="#DejaVuSans-Bold-68" transform="translate(4670.275391 0)"/>
     <use xlink:href="#DejaVuSans-Bold-2e" transform="translate(4741.466797 0)"/>
    </g>
   </g>
  </g>
 </g>
 <defs>
  <clipPath id="peeb2b02f88">
   <rect x="0" y="0" width="1152" height="648"/>
  </clipPath>
 </defs>
</svg>
