<?xml version="1.0" encoding="utf-8" standalone="no"?>
<!DOCTYPE svg PUBLIC "-//W3C//DTD SVG 1.1//EN"
  "http://www.w3.org/Graphics/SVG/1.1/DTD/svg11.dtd">
<svg xmlns:xlink="http://www.w3.org/1999/xlink" width="1152pt" height="648pt" viewBox="0 0 1152 648" xmlns="http://www.w3.org/2000/svg" version="1.1">
 <metadata>
  <rdf:RDF xmlns:dc="http://purl.org/dc/elements/1.1/" xmlns:cc="http://creativecommons.org/ns#" xmlns:rdf="http://www.w3.org/1999/02/22-rdf-syntax-ns#">
   <cc:Work>
    <dc:type rdf:resource="http://purl.org/dc/dcmitype/StillImage"/>
    <dc:date>2026-06-22T19:49:39.004684</dc:date>
    <dc:format>image/svg+xml</dc:format>
    <dc:creator>
     <cc:Agent>
      <dc:title>Matplotlib v3.10.8, https://matplotlib.org/</dc:title>
     </cc:Agent>
    </dc:creator>
   </cc:Work>
  </rdf:RDF>
 </metadata>
 <defs>
  <style type="text/css">*{stroke-linejoin: round; stroke-linecap: butt}</style>
 </defs>
 <g id="figure_1">
  <g id="patch_1">
   <path d="M 0 648 
L 1152 648 
L 1152 0 
L 0 0 
z
" style="fill: #ffffff"/>
  </g>
  <g id="axes_1">
   <g id="line2d_1">
    <path d="M 576 154.8 
L 576 342 
" clip-path="url(#p676374b810)" style="fill: none; stroke: #2f5d7c; stroke-opacity: 0.45; stroke-width: 1.2; stroke-linecap: square"/>
   </g>
   <g id="line2d_2">
    <path d="M 874.8 223.2 
L 576 342 
" clip-path="url(#p676374b810)" style="fill: none; stroke: #e9c46a; stroke-opacity: 0.45; stroke-width: 1.2; stroke-linecap: square"/>
   </g>
   <g id="line2d_3">
    <path d="M 903.6 406.8 
L 576 342 
" clip-path="url(#p676374b810)" style="fill: none; stroke: #e76f51; stroke-opacity: 0.45; stroke-width: 1.2; stroke-linecap: square"/>
   </g>
   <g id="line2d_4">
    <path d="M 730.8 529.2 
L 576 342 
" clip-path="url(#p676374b810)" style="fill: none; stroke: #2a9d8f; stroke-opacity: 0.45; stroke-width: 1.2; stroke-linecap: square"/>
   </g>
   <g id="line2d_5">
    <path d="M 421.2 529.2 
L 576 342 
" clip-path="url(#p676374b810)" style="fill: none; stroke: #b45757; stroke-opacity: 0.45; stroke-width: 1.2; stroke-linecap: square"/>
   </g>
   <g id="line2d_6">
    <path d="M 248.4 406.8 
L 576 342 
" clip-path="url(#p676374b810)" style="fill: none; stroke: #5b8e4f; stroke-opacity: 0.45; stroke-width: 1.2; stroke-linecap: square"/>
   </g>
   <g id="line2d_7">
    <path d="M 277.2 223.2 
L 576 342 
" clip-path="url(#p676374b810)" style="fill: none; stroke: #6d597a; stroke-opacity: 0.45; stroke-width: 1.2; stroke-linecap: square"/>
   </g>
   <g id="text_1">
    <!-- Fig 1.2  Seven Perspectives, One Behavior -->
    <g style="fill: #222222" transform="translate(50.4 45.584687) scale(0.22 -0.22)">
     <defs>
      <path id="DejaVuSans-Bold-46" d="M 588 4666 
L 3834 4666 
L 3834 3756 
L 1791 3756 
L 1791 2888 
L 3713 2888 
L 3713 1978 
L 1791 1978 
L 1791 0 
L 588 0 
L 588 4666 
z
" transform="scale(0.015625)"/>
      <path id="DejaVuSans-Bold-69" d="M 538 3500 
L 1656 3500 
L 1656 0 
L 538 0 
L 538 3500 
z
M 538 4863 
L 1656 4863 
L 1656 3950 
L 538 3950 
L 538 4863 
z
" transform="scale(0.015625)"/>
      <path id="DejaVuSans-Bold-67" d="M 2919 594 
Q 2688 288 2409 144 
Q 2131 0 1766 0 
Q 1125 0 706 504 
Q 288 1009 288 1791 
Q 288 2575 706 3076 
Q 1125 3578 1766 3578 
Q 2131 3578 2409 3434 
Q 2688 3291 2919 2981 
L 2919 3500 
L 4044 3500 
L 4044 353 
Q 4044 -491 3511 -936 
Q 2978 -1381 1966 -1381 
Q 1638 -1381 1331 -1331 
Q 1025 -1281 716 -1178 
L 716 -306 
Q 1009 -475 1290 -558 
Q 1572 -641 1856 -641 
Q 2406 -641 2662 -400 
Q 2919 -159 2919 353 
L 2919 594 
z
M 2181 2772 
Q 1834 2772 1640 2515 
Q 1447 2259 1447 1791 
Q 1447 1309 1634 1061 
Q 1822 813 2181 813 
Q 2531 813 2725 1069 
Q 2919 1325 2919 1791 
Q 2919 2259 2725 2515 
Q 2531 2772 2181 2772 
z
" transform="scale(0.015625)"/>
      <path id="DejaVuSans-Bold-20" transform="scale(0.015625)"/>
      <path id="DejaVuSans-Bold-31" d="M 750 831 
L 1813 831 
L 1813 3847 
L 722 3622 
L 722 4441 
L 1806 4666 
L 2950 4666 
L 2950 831 
L 4013 831 
L 4013 0 
L 750 0 
L 750 831 
z
" transform="scale(0.015625)"/>
      <path id="DejaVuSans-Bold-2e" d="M 653 1209 
L 1778 1209 
L 1778 0 
L 653 0 
L 653 1209 
z
" transform="scale(0.015625)"/>
      <path id="DejaVuSans-Bold-32" d="M 1844 884 
L 3897 884 
L 3897 0 
L 506 0 
L 506 884 
L 2209 2388 
Q 2438 2594 2547 2791 
Q 2656 2988 2656 3200 
Q 2656 3528 2436 3728 
Q 2216 3928 1850 3928 
Q 1569 3928 1234 3808 
Q 900 3688 519 3450 
L 519 4475 
Q 925 4609 1322 4679 
Q 1719 4750 2100 4750 
Q 2938 4750 3402 4381 
Q 3866 4013 3866 3353 
Q 3866 2972 3669 2642 
Q 3472 2313 2841 1759 
L 1844 884 
z
" transform="scale(0.015625)"/>
      <path id="DejaVuSans-Bold-53" d="M 3834 4519 
L 3834 3531 
Q 3450 3703 3084 3790 
Q 2719 3878 2394 3878 
Q 1963 3878 1756 3759 
Q 1550 3641 1550 3391 
Q 1550 3203 1689 3098 
Q 1828 2994 2194 2919 
L 2706 2816 
Q 3484 2659 3812 2340 
Q 4141 2022 4141 1434 
Q 4141 663 3683 286 
Q 3225 -91 2284 -91 
Q 1841 -91 1394 -6 
Q 947 78 500 244 
L 500 1259 
Q 947 1022 1364 901 
Q 1781 781 2169 781 
Q 2563 781 2772 912 
Q 2981 1044 2981 1288 
Q 2981 1506 2839 1625 
Q 2697 1744 2272 1838 
L 1806 1941 
Q 1106 2091 782 2419 
Q 459 2747 459 3303 
Q 459 4000 909 4375 
Q 1359 4750 2203 4750 
Q 2588 4750 2994 4692 
Q 3400 4634 3834 4519 
z
" transform="scale(0.015625)"/>
      <path id="DejaVuSans-Bold-65" d="M 4031 1759 
L 4031 1441 
L 1416 1441 
Q 1456 1047 1700 850 
Q 1944 653 2381 653 
Q 2734 653 3104 758 
Q 3475 863 3866 1075 
L 3866 213 
Q 3469 63 3072 -14 
Q 2675 -91 2278 -91 
Q 1328 -91 801 392 
Q 275 875 275 1747 
Q 275 2603 792 3093 
Q 1309 3584 2216 3584 
Q 3041 3584 3536 3087 
Q 4031 2591 4031 1759 
z
M 2881 2131 
Q 2881 2450 2695 2645 
Q 2509 2841 2209 2841 
Q 1884 2841 1681 2658 
Q 1478 2475 1428 2131 
L 2881 2131 
z
" transform="scale(0.015625)"/>
      <path id="DejaVuSans-Bold-76" d="M 97 3500 
L 1216 3500 
L 2088 1081 
L 2956 3500 
L 4078 3500 
L 2700 0 
L 1472 0 
L 97 3500 
z
" transform="scale(0.015625)"/>
      <path id="DejaVuSans-Bold-6e" d="M 4056 2131 
L 4056 0 
L 2931 0 
L 2931 347 
L 2931 1631 
Q 2931 2084 2911 2256 
Q 2891 2428 2841 2509 
Q 2775 2619 2662 2680 
Q 2550 2741 2406 2741 
Q 2056 2741 1856 2470 
Q 1656 2200 1656 1722 
L 1656 0 
L 538 0 
L 538 3500 
L 1656 3500 
L 1656 2988 
Q 1909 3294 2193 3439 
Q 2478 3584 2822 3584 
Q 3428 3584 3742 3212 
Q 4056 2841 4056 2131 
z
" transform="scale(0.015625)"/>
      <path id="DejaVuSans-Bold-50" d="M 588 4666 
L 2584 4666 
Q 3475 4666 3951 4270 
Q 4428 3875 4428 3144 
Q 4428 2409 3951 2014 
Q 3475 1619 2584 1619 
L 1791 1619 
L 1791 0 
L 588 0 
L 588 4666 
z
M 1791 3794 
L 1791 2491 
L 2456 2491 
Q 2806 2491 2997 2661 
Q 3188 2831 3188 3144 
Q 3188 3456 2997 3625 
Q 2806 3794 2456 3794 
L 1791 3794 
z
" transform="scale(0.015625)"/>
      <path id="DejaVuSans-Bold-72" d="M 3138 2547 
Q 2991 2616 2845 2648 
Q 2700 2681 2553 2681 
Q 2122 2681 1889 2404 
Q 1656 2128 1656 1613 
L 1656 0 
L 538 0 
L 538 3500 
L 1656 3500 
L 1656 2925 
Q 1872 3269 2151 3426 
Q 2431 3584 2822 3584 
Q 2878 3584 2943 3579 
Q 3009 3575 3134 3559 
L 3138 2547 
z
" transform="scale(0.015625)"/>
      <path id="DejaVuSans-Bold-73" d="M 3272 3391 
L 3272 2541 
Q 2913 2691 2578 2766 
Q 2244 2841 1947 2841 
Q 1628 2841 1473 2761 
Q 1319 2681 1319 2516 
Q 1319 2381 1436 2309 
Q 1553 2238 1856 2203 
L 2053 2175 
Q 2913 2066 3209 1816 
Q 3506 1566 3506 1031 
Q 3506 472 3093 190 
Q 2681 -91 1863 -91 
Q 1516 -91 1145 -36 
Q 775 19 384 128 
L 384 978 
Q 719 816 1070 734 
Q 1422 653 1784 653 
Q 2113 653 2278 743 
Q 2444 834 2444 1013 
Q 2444 1163 2330 1236 
Q 2216 1309 1875 1350 
L 1678 1375 
Q 931 1469 631 1722 
Q 331 1975 331 2491 
Q 331 3047 712 3315 
Q 1094 3584 1881 3584 
Q 2191 3584 2531 3537 
Q 2872 3491 3272 3391 
z
" transform="scale(0.015625)"/>
      <path id="DejaVuSans-Bold-70" d="M 1656 506 
L 1656 -1331 
L 538 -1331 
L 538 3500 
L 1656 3500 
L 1656 2988 
Q 1888 3294 2169 3439 
Q 2450 3584 2816 3584 
Q 3463 3584 3878 3070 
Q 4294 2556 4294 1747 
Q 4294 938 3878 423 
Q 3463 -91 2816 -91 
Q 2450 -91 2169 54 
Q 1888 200 1656 506 
z
M 2400 2772 
Q 2041 2772 1848 2508 
Q 1656 2244 1656 1747 
Q 1656 1250 1848 986 
Q 2041 722 2400 722 
Q 2759 722 2948 984 
Q 3138 1247 3138 1747 
Q 3138 2247 2948 2509 
Q 2759 2772 2400 2772 
z
" transform="scale(0.015625)"/>
      <path id="DejaVuSans-Bold-63" d="M 3366 3391 
L 3366 2478 
Q 3138 2634 2908 2709 
Q 2678 2784 2431 2784 
Q 1963 2784 1702 2511 
Q 1441 2238 1441 1747 
Q 1441 1256 1702 982 
Q 1963 709 2431 709 
Q 2694 709 2930 787 
Q 3166 866 3366 1019 
L 3366 103 
Q 3103 6 2833 -42 
Q 2563 -91 2291 -91 
Q 1344 -91 809 395 
Q 275 881 275 1747 
Q 275 2613 809 3098 
Q 1344 3584 2291 3584 
Q 2566 3584 2833 3536 
Q 3100 3488 3366 3391 
z
" transform="scale(0.015625)"/>
      <path id="DejaVuSans-Bold-74" d="M 1759 4494 
L 1759 3500 
L 2913 3500 
L 2913 2700 
L 1759 2700 
L 1759 1216 
Q 1759 972 1856 886 
Q 1953 800 2241 800 
L 2816 800 
L 2816 0 
L 1856 0 
Q 1194 0 917 276 
Q 641 553 641 1216 
L 641 2700 
L 84 2700 
L 84 3500 
L 641 3500 
L 641 4494 
L 1759 4494 
z
" transform="scale(0.015625)"/>
      <path id="DejaVuSans-Bold-2c" d="M 653 1209 
L 1778 1209 
L 1778 256 
L 1006 -909 
L 341 -909 
L 653 256 
L 653 1209 
z
" transform="scale(0.015625)"/>
      <path id="DejaVuSans-Bold-4f" d="M 2719 3878 
Q 2169 3878 1866 3472 
Q 1563 3066 1563 2328 
Q 1563 1594 1866 1187 
Q 2169 781 2719 781 
Q 3272 781 3575 1187 
Q 3878 1594 3878 2328 
Q 3878 3066 3575 3472 
Q 3272 3878 2719 3878 
z
M 2719 4750 
Q 3844 4750 4481 4106 
Q 5119 3463 5119 2328 
Q 5119 1197 4481 553 
Q 3844 -91 2719 -91 
Q 1597 -91 958 553 
Q 319 1197 319 2328 
Q 319 3463 958 4106 
Q 1597 4750 2719 4750 
z
" transform="scale(0.015625)"/>
      <path id="DejaVuSans-Bold-42" d="M 2456 2859 
Q 2741 2859 2887 2984 
Q 3034 3109 3034 3353 
Q 3034 3594 2887 3720 
Q 2741 3847 2456 3847 
L 1791 3847 
L 1791 2859 
L 2456 2859 
z
M 2497 819 
Q 2859 819 3042 972 
Q 3225 1125 3225 1434 
Q 3225 1738 3044 1889 
Q 2863 2041 2497 2041 
L 1791 2041 
L 1791 819 
L 2497 819 
z
M 3616 2497 
Q 4003 2384 4215 2081 
Q 4428 1778 4428 1338 
Q 4428 663 3972 331 
Q 3516 0 2584 0 
L 588 0 
L 588 4666 
L 2394 4666 
Q 3366 4666 3802 4372 
Q 4238 4078 4238 3431 
Q 4238 3091 4078 2852 
Q 3919 2613 3616 2497 
z
" transform="scale(0.015625)"/>
      <path id="DejaVuSans-Bold-68" d="M 4056 2131 
L 4056 0 
L 2931 0 
L 2931 347 
L 2931 1625 
Q 2931 2084 2911 2256 
Q 2891 2428 2841 2509 
Q 2775 2619 2662 2680 
Q 2550 2741 2406 2741 
Q 2056 2741 1856 2470 
Q 1656 2200 1656 1722 
L 1656 0 
L 538 0 
L 538 4863 
L 1656 4863 
L 1656 2988 
Q 1909 3294 2193 3439 
Q 2478 3584 2822 3584 
Q 3428 3584 3742 3212 
Q 4056 2841 4056 2131 
z
" transform="scale(0.015625)"/>
      <path id="DejaVuSans-Bold-61" d="M 2106 1575 
Q 1756 1575 1579 1456 
Q 1403 1338 1403 1106 
Q 1403 894 1545 773 
Q 1688 653 1941 653 
Q 2256 653 2472 879 
Q 2688 1106 2688 1447 
L 2688 1575 
L 2106 1575 
z
M 3816 1997 
L 3816 0 
L 2688 0 
L 2688 519 
Q 2463 200 2181 54 
Q 1900 -91 1497 -91 
Q 953 -91 614 226 
Q 275 544 275 1050 
Q 275 1666 698 1953 
Q 1122 2241 2028 2241 
L 2688 2241 
L 2688 2328 
Q 2688 2594 2478 2717 
Q 2269 2841 1825 2841 
Q 1466 2841 1156 2769 
Q 847 2697 581 2553 
L 581 3406 
Q 941 3494 1303 3539 
Q 1666 3584 2028 3584 
Q 2975 3584 3395 3211 
Q 3816 2838 3816 1997 
z
" transform="scale(0.015625)"/>
      <path id="DejaVuSans-Bold-6f" d="M 2203 2784 
Q 1831 2784 1636 2517 
Q 1441 2250 1441 1747 
Q 1441 1244 1636 976 
Q 1831 709 2203 709 
Q 2569 709 2762 976 
Q 2956 1244 2956 1747 
Q 2956 2250 2762 2517 
Q 2569 2784 2203 2784 
z
M 2203 3584 
Q 3106 3584 3614 3096 
Q 4122 2609 4122 1747 
Q 4122 884 3614 396 
Q 3106 -91 2203 -91 
Q 1297 -91 786 396 
Q 275 884 275 1747 
Q 275 2609 786 3096 
Q 1297 3584 2203 3584 
z
" transform="scale(0.015625)"/>
     </defs>
     <use xlink:href="#DejaVuSans-Bold-46"/>
     <use xlink:href="#DejaVuSans-Bold-69" transform="translate(68.310547 0)"/>
     <use xlink:href="#DejaVuSans-Bold-67" transform="translate(102.587891 0)"/>
     <use xlink:href="#DejaVuSans-Bold-20" transform="translate(174.169922 0)"/>
     <use xlink:href="#DejaVuSans-Bold-31" transform="translate(208.984375 0)"/>
     <use xlink:href="#DejaVuSans-Bold-2e" transform="translate(278.564453 0)"/>
     <use xlink:href="#DejaVuSans-Bold-32" transform="translate(316.552734 0)"/>
     <use xlink:href="#DejaVuSans-Bold-20" transform="translate(386.132812 0)"/>
     <use xlink:href="#DejaVuSans-Bold-20" transform="translate(420.947266 0)"/>
     <use xlink:href="#DejaVuSans-Bold-53" transform="translate(455.761719 0)"/>
     <use xlink:href="#DejaVuSans-Bold-65" transform="translate(527.783203 0)"/>
     <use xlink:href="#DejaVuSans-Bold-76" transform="translate(595.605469 0)"/>
     <use xlink:href="#DejaVuSans-Bold-65" transform="translate(660.791016 0)"/>
     <use xlink:href="#DejaVuSans-Bold-6e" transform="translate(728.613281 0)"/>
     <use xlink:href="#DejaVuSans-Bold-20" transform="translate(799.804688 0)"/>
     <use xlink:href="#DejaVuSans-Bold-50" transform="translate(834.619141 0)"/>
     <use xlink:href="#DejaVuSans-Bold-65" transform="translate(907.910156 0)"/>
     <use xlink:href="#DejaVuSans-Bold-72" transform="translate(975.732422 0)"/>
     <use xlink:href="#DejaVuSans-Bold-73" transform="translate(1025.048828 0)"/>
     <use xlink:href="#DejaVuSans-Bold-70" transform="translate(1084.570312 0)"/>
     <use xlink:href="#DejaVuSans-Bold-65" transform="translate(1156.152344 0)"/>
     <use xlink:href="#DejaVuSans-Bold-63" transform="translate(1223.974609 0)"/>
     <use xlink:href="#DejaVuSans-Bold-74" transform="translate(1283.251953 0)"/>
     <use xlink:href="#DejaVuSans-Bold-69" transform="translate(1331.054688 0)"/>
     <use xlink:href="#DejaVuSans-Bold-76" transform="translate(1365.332031 0)"/>
     <use xlink:href="#DejaVuSans-Bold-65" transform="translate(1430.517578 0)"/>
     <use xlink:href="#DejaVuSans-Bold-73" transform="translate(1498.339844 0)"/>
     <use xlink:href="#DejaVuSans-Bold-2c" transform="translate(1557.861328 0)"/>
     <use xlink:href="#DejaVuSans-Bold-20" transform="translate(1595.849609 0)"/>
     <use xlink:href="#DejaVuSans-Bold-4f" transform="translate(1630.664062 0)"/>
     <use xlink:href="#DejaVuSans-Bold-6e" transform="translate(1715.673828 0)"/>
     <use xlink:href="#DejaVuSans-Bold-65" transform="translate(1786.865234 0)"/>
     <use xlink:href="#DejaVuSans-Bold-20" transform="translate(1854.6875 0)"/>
     <use xlink:href="#DejaVuSans-Bold-42" transform="translate(1889.501953 0)"/>
     <use xlink:href="#DejaVuSans-Bold-65" transform="translate(1965.722656 0)"/>
     <use xlink:href="#DejaVuSans-Bold-68" transform="translate(2033.544922 0)"/>
     <use xlink:href="#DejaVuSans-Bold-61" transform="translate(2104.736328 0)"/>
     <use xlink:href="#DejaVuSans-Bold-76" transform="translate(2172.216797 0)"/>
     <use xlink:href="#DejaVuSans-Bold-69" transform="translate(2237.402344 0)"/>
     <use xlink:href="#DejaVuSans-Bold-6f" transform="translate(2271.679688 0)"/>
     <use xlink:href="#DejaVuSans-Bold-72" transform="translate(2340.380859 0)"/>
    </g>
   </g>
   <g id="text_2">
    <!-- Different perspectives ask different questions about the same behavior. -->
    <g style="fill: #4d4d4d" transform="translate(50.4 71.987188) scale(0.13 -0.13)">
     <defs>
      <path id="DejaVuSans-44" d="M 1259 4147 
L 1259 519 
L 2022 519 
Q 2988 519 3436 956 
Q 3884 1394 3884 2338 
Q 3884 3275 3436 3711 
Q 2988 4147 2022 4147 
L 1259 4147 
z
M 628 4666 
L 1925 4666 
Q 3281 4666 3915 4102 
Q 4550 3538 4550 2338 
Q 4550 1131 3912 565 
Q 3275 0 1925 0 
L 628 0 
L 628 4666 
z
" transform="scale(0.015625)"/>
      <path id="DejaVuSans-69" d="M 603 3500 
L 1178 3500 
L 1178 0 
L 603 0 
L 603 3500 
z
M 603 4863 
L 1178 4863 
L 1178 4134 
L 603 4134 
L 603 4863 
z
" transform="scale(0.015625)"/>
      <path id="DejaVuSans-66" d="M 2375 4863 
L 2375 4384 
L 1825 4384 
Q 1516 4384 1395 4259 
Q 1275 4134 1275 3809 
L 1275 3500 
L 2222 3500 
L 2222 3053 
L 1275 3053 
L 1275 0 
L 697 0 
L 697 3053 
L 147 3053 
L 147 3500 
L 697 3500 
L 697 3744 
Q 697 4328 969 4595 
Q 1241 4863 1831 4863 
L 2375 4863 
z
" transform="scale(0.015625)"/>
      <path id="DejaVuSans-65" d="M 3597 1894 
L 3597 1613 
L 953 1613 
Q 991 1019 1311 708 
Q 1631 397 2203 397 
Q 2534 397 2845 478 
Q 3156 559 3463 722 
L 3463 178 
Q 3153 47 2828 -22 
Q 2503 -91 2169 -91 
Q 1331 -91 842 396 
Q 353 884 353 1716 
Q 353 2575 817 3079 
Q 1281 3584 2069 3584 
Q 2775 3584 3186 3129 
Q 3597 2675 3597 1894 
z
M 3022 2063 
Q 3016 2534 2758 2815 
Q 2500 3097 2075 3097 
Q 1594 3097 1305 2825 
Q 1016 2553 972 2059 
L 3022 2063 
z
" transform="scale(0.015625)"/>
      <path id="DejaVuSans-72" d="M 2631 2963 
Q 2534 3019 2420 3045 
Q 2306 3072 2169 3072 
Q 1681 3072 1420 2755 
Q 1159 2438 1159 1844 
L 1159 0 
L 581 0 
L 581 3500 
L 1159 3500 
L 1159 2956 
Q 1341 3275 1631 3429 
Q 1922 3584 2338 3584 
Q 2397 3584 2469 3576 
Q 2541 3569 2628 3553 
L 2631 2963 
z
" transform="scale(0.015625)"/>
      <path id="DejaVuSans-6e" d="M 3513 2113 
L 3513 0 
L 2938 0 
L 2938 2094 
Q 2938 2591 2744 2837 
Q 2550 3084 2163 3084 
Q 1697 3084 1428 2787 
Q 1159 2491 1159 1978 
L 1159 0 
L 581 0 
L 581 3500 
L 1159 3500 
L 1159 2956 
Q 1366 3272 1645 3428 
Q 1925 3584 2291 3584 
Q 2894 3584 3203 3211 
Q 3513 2838 3513 2113 
z
" transform="scale(0.015625)"/>
      <path id="DejaVuSans-74" d="M 1172 4494 
L 1172 3500 
L 2356 3500 
L 2356 3053 
L 1172 3053 
L 1172 1153 
Q 1172 725 1289 603 
Q 1406 481 1766 481 
L 2356 481 
L 2356 0 
L 1766 0 
Q 1100 0 847 248 
Q 594 497 594 1153 
L 594 3053 
L 172 3053 
L 172 3500 
L 594 3500 
L 594 4494 
L 1172 4494 
z
" transform="scale(0.015625)"/>
      <path id="DejaVuSans-20" transform="scale(0.015625)"/>
      <path id="DejaVuSans-70" d="M 1159 525 
L 1159 -1331 
L 581 -1331 
L 581 3500 
L 1159 3500 
L 1159 2969 
Q 1341 3281 1617 3432 
Q 1894 3584 2278 3584 
Q 2916 3584 3314 3078 
Q 3713 2572 3713 1747 
Q 3713 922 3314 415 
Q 2916 -91 2278 -91 
Q 1894 -91 1617 61 
Q 1341 213 1159 525 
z
M 3116 1747 
Q 3116 2381 2855 2742 
Q 2594 3103 2138 3103 
Q 1681 3103 1420 2742 
Q 1159 2381 1159 1747 
Q 1159 1113 1420 752 
Q 1681 391 2138 391 
Q 2594 391 2855 752 
Q 3116 1113 3116 1747 
z
" transform="scale(0.015625)"/>
      <path id="DejaVuSans-73" d="M 2834 3397 
L 2834 2853 
Q 2591 2978 2328 3040 
Q 2066 3103 1784 3103 
Q 1356 3103 1142 2972 
Q 928 2841 928 2578 
Q 928 2378 1081 2264 
Q 1234 2150 1697 2047 
L 1894 2003 
Q 2506 1872 2764 1633 
Q 3022 1394 3022 966 
Q 3022 478 2636 193 
Q 2250 -91 1575 -91 
Q 1294 -91 989 -36 
Q 684 19 347 128 
L 347 722 
Q 666 556 975 473 
Q 1284 391 1588 391 
Q 1994 391 2212 530 
Q 2431 669 2431 922 
Q 2431 1156 2273 1281 
Q 2116 1406 1581 1522 
L 1381 1569 
Q 847 1681 609 1914 
Q 372 2147 372 2553 
Q 372 3047 722 3315 
Q 1072 3584 1716 3584 
Q 2034 3584 2315 3537 
Q 2597 3491 2834 3397 
z
" transform="scale(0.015625)"/>
      <path id="DejaVuSans-63" d="M 3122 3366 
L 3122 2828 
Q 2878 2963 2633 3030 
Q 2388 3097 2138 3097 
Q 1578 3097 1268 2742 
Q 959 2388 959 1747 
Q 959 1106 1268 751 
Q 1578 397 2138 397 
Q 2388 397 2633 464 
Q 2878 531 3122 666 
L 3122 134 
Q 2881 22 2623 -34 
Q 2366 -91 2075 -91 
Q 1284 -91 818 406 
Q 353 903 353 1747 
Q 353 2603 823 3093 
Q 1294 3584 2113 3584 
Q 2378 3584 2631 3529 
Q 2884 3475 3122 3366 
z
" transform="scale(0.015625)"/>
      <path id="DejaVuSans-76" d="M 191 3500 
L 800 3500 
L 1894 563 
L 2988 3500 
L 3597 3500 
L 2284 0 
L 1503 0 
L 191 3500 
z
" transform="scale(0.015625)"/>
      <path id="DejaVuSans-61" d="M 2194 1759 
Q 1497 1759 1228 1600 
Q 959 1441 959 1056 
Q 959 750 1161 570 
Q 1363 391 1709 391 
Q 2188 391 2477 730 
Q 2766 1069 2766 1631 
L 2766 1759 
L 2194 1759 
z
M 3341 1997 
L 3341 0 
L 2766 0 
L 2766 531 
Q 2569 213 2275 61 
Q 1981 -91 1556 -91 
Q 1019 -91 701 211 
Q 384 513 384 1019 
Q 384 1609 779 1909 
Q 1175 2209 1959 2209 
L 2766 2209 
L 2766 2266 
Q 2766 2663 2505 2880 
Q 2244 3097 1772 3097 
Q 1472 3097 1187 3025 
Q 903 2953 641 2809 
L 641 3341 
Q 956 3463 1253 3523 
Q 1550 3584 1831 3584 
Q 2591 3584 2966 3190 
Q 3341 2797 3341 1997 
z
" transform="scale(0.015625)"/>
      <path id="DejaVuSans-6b" d="M 581 4863 
L 1159 4863 
L 1159 1991 
L 2875 3500 
L 3609 3500 
L 1753 1863 
L 3688 0 
L 2938 0 
L 1159 1709 
L 1159 0 
L 581 0 
L 581 4863 
z
" transform="scale(0.015625)"/>
      <path id="DejaVuSans-64" d="M 2906 2969 
L 2906 4863 
L 3481 4863 
L 3481 0 
L 2906 0 
L 2906 525 
Q 2725 213 2448 61 
Q 2172 -91 1784 -91 
Q 1150 -91 751 415 
Q 353 922 353 1747 
Q 353 2572 751 3078 
Q 1150 3584 1784 3584 
Q 2172 3584 2448 3432 
Q 2725 3281 2906 2969 
z
M 947 1747 
Q 947 1113 1208 752 
Q 1469 391 1925 391 
Q 2381 391 2643 752 
Q 2906 1113 2906 1747 
Q 2906 2381 2643 2742 
Q 2381 3103 1925 3103 
Q 1469 3103 1208 2742 
Q 947 2381 947 1747 
z
" transform="scale(0.015625)"/>
      <path id="DejaVuSans-71" d="M 947 1747 
Q 947 1113 1208 752 
Q 1469 391 1925 391 
Q 2381 391 2643 752 
Q 2906 1113 2906 1747 
Q 2906 2381 2643 2742 
Q 2381 3103 1925 3103 
Q 1469 3103 1208 2742 
Q 947 2381 947 1747 
z
M 2906 525 
Q 2725 213 2448 61 
Q 2172 -91 1784 -91 
Q 1150 -91 751 415 
Q 353 922 353 1747 
Q 353 2572 751 3078 
Q 1150 3584 1784 3584 
Q 2172 3584 2448 3432 
Q 2725 3281 2906 2969 
L 2906 3500 
L 3481 3500 
L 3481 -1331 
L 2906 -1331 
L 2906 525 
z
" transform="scale(0.015625)"/>
      <path id="DejaVuSans-75" d="M 544 1381 
L 544 3500 
L 1119 3500 
L 1119 1403 
Q 1119 906 1312 657 
Q 1506 409 1894 409 
Q 2359 409 2629 706 
Q 2900 1003 2900 1516 
L 2900 3500 
L 3475 3500 
L 3475 0 
L 2900 0 
L 2900 538 
Q 2691 219 2414 64 
Q 2138 -91 1772 -91 
Q 1169 -91 856 284 
Q 544 659 544 1381 
z
M 1991 3584 
L 1991 3584 
z
" transform="scale(0.015625)"/>
      <path id="DejaVuSans-6f" d="M 1959 3097 
Q 1497 3097 1228 2736 
Q 959 2375 959 1747 
Q 959 1119 1226 758 
Q 1494 397 1959 397 
Q 2419 397 2687 759 
Q 2956 1122 2956 1747 
Q 2956 2369 2687 2733 
Q 2419 3097 1959 3097 
z
M 1959 3584 
Q 2709 3584 3137 3096 
Q 3566 2609 3566 1747 
Q 3566 888 3137 398 
Q 2709 -91 1959 -91 
Q 1206 -91 779 398 
Q 353 888 353 1747 
Q 353 2609 779 3096 
Q 1206 3584 1959 3584 
z
" transform="scale(0.015625)"/>
      <path id="DejaVuSans-62" d="M 3116 1747 
Q 3116 2381 2855 2742 
Q 2594 3103 2138 3103 
Q 1681 3103 1420 2742 
Q 1159 2381 1159 1747 
Q 1159 1113 1420 752 
Q 1681 391 2138 391 
Q 2594 391 2855 752 
Q 3116 1113 3116 1747 
z
M 1159 2969 
Q 1341 3281 1617 3432 
Q 1894 3584 2278 3584 
Q 2916 3584 3314 3078 
Q 3713 2572 3713 1747 
Q 3713 922 3314 415 
Q 2916 -91 2278 -91 
Q 1894 -91 1617 61 
Q 1341 213 1159 525 
L 1159 0 
L 581 0 
L 581 4863 
L 1159 4863 
L 1159 2969 
z
" transform="scale(0.015625)"/>
      <path id="DejaVuSans-68" d="M 3513 2113 
L 3513 0 
L 2938 0 
L 2938 2094 
Q 2938 2591 2744 2837 
Q 2550 3084 2163 3084 
Q 1697 3084 1428 2787 
Q 1159 2491 1159 1978 
L 1159 0 
L 581 0 
L 581 4863 
L 1159 4863 
L 1159 2956 
Q 1366 3272 1645 3428 
Q 1925 3584 2291 3584 
Q 2894 3584 3203 3211 
Q 3513 2838 3513 2113 
z
" transform="scale(0.015625)"/>
      <path id="DejaVuSans-6d" d="M 3328 2828 
Q 3544 3216 3844 3400 
Q 4144 3584 4550 3584 
Q 5097 3584 5394 3201 
Q 5691 2819 5691 2113 
L 5691 0 
L 5113 0 
L 5113 2094 
Q 5113 2597 4934 2840 
Q 4756 3084 4391 3084 
Q 3944 3084 3684 2787 
Q 3425 2491 3425 1978 
L 3425 0 
L 2847 0 
L 2847 2094 
Q 2847 2600 2669 2842 
Q 2491 3084 2119 3084 
Q 1678 3084 1418 2786 
Q 1159 2488 1159 1978 
L 1159 0 
L 581 0 
L 581 3500 
L 1159 3500 
L 1159 2956 
Q 1356 3278 1631 3431 
Q 1906 3584 2284 3584 
Q 2666 3584 2933 3390 
Q 3200 3197 3328 2828 
z
" transform="scale(0.015625)"/>
      <path id="DejaVuSans-2e" d="M 684 794 
L 1344 794 
L 1344 0 
L 684 0 
L 684 794 
z
" transform="scale(0.015625)"/>
     </defs>
     <use xlink:href="#DejaVuSans-44"/>
     <use xlink:href="#DejaVuSans-69" transform="translate(77.001953 0)"/>
     <use xlink:href="#DejaVuSans-66" transform="translate(104.785156 0)"/>
     <use xlink:href="#DejaVuSans-66" transform="translate(139.990234 0)"/>
     <use xlink:href="#DejaVuSans-65" transform="translate(175.195312 0)"/>
     <use xlink:href="#DejaVuSans-72" transform="translate(236.71875 0)"/>
     <use xlink:href="#DejaVuSans-65" transform="translate(275.582031 0)"/>
     <use xlink:href="#DejaVuSans-6e" transform="translate(337.105469 0)"/>
     <use xlink:href="#DejaVuSans-74" transform="translate(400.484375 0)"/>
     <use xlink:href="#DejaVuSans-20" transform="translate(439.693359 0)"/>
     <use xlink:href="#DejaVuSans-70" transform="translate(471.480469 0)"/>
     <use xlink:href="#DejaVuSans-65" transform="translate(534.957031 0)"/>
     <use xlink:href="#DejaVuSans-72" transform="translate(596.480469 0)"/>
     <use xlink:href="#DejaVuSans-73" transform="translate(637.59375 0)"/>
     <use xlink:href="#DejaVuSans-70" transform="translate(689.693359 0)"/>
     <use xlink:href="#DejaVuSans-65" transform="translate(753.169922 0)"/>
     <use xlink:href="#DejaVuSans-63" transform="translate(814.693359 0)"/>
     <use xlink:href="#DejaVuSans-74" transform="translate(869.673828 0)"/>
     <use xlink:href="#DejaVuSans-69" transform="translate(908.882812 0)"/>
     <use xlink:href="#DejaVuSans-76" transform="translate(936.666016 0)"/>
     <use xlink:href="#DejaVuSans-65" transform="translate(995.845703 0)"/>
     <use xlink:href="#DejaVuSans-73" transform="translate(1057.369141 0)"/>
     <use xlink:href="#DejaVuSans-20" transform="translate(1109.46875 0)"/>
     <use xlink:href="#DejaVuSans-61" transform="translate(1141.255859 0)"/>
     <use xlink:href="#DejaVuSans-73" transform="translate(1202.535156 0)"/>
     <use xlink:href="#DejaVuSans-6b" transform="translate(1254.634766 0)"/>
     <use xlink:href="#DejaVuSans-20" transform="translate(1312.544922 0)"/>
     <use xlink:href="#DejaVuSans-64" transform="translate(1344.332031 0)"/>
     <use xlink:href="#DejaVuSans-69" transform="translate(1407.808594 0)"/>
     <use xlink:href="#DejaVuSans-66" transform="translate(1435.591797 0)"/>
     <use xlink:href="#DejaVuSans-66" transform="translate(1470.796875 0)"/>
     <use xlink:href="#DejaVuSans-65" transform="translate(1506.001953 0)"/>
     <use xlink:href="#DejaVuSans-72" transform="translate(1567.525391 0)"/>
     <use xlink:href="#DejaVuSans-65" transform="translate(1606.388672 0)"/>
     <use xlink:href="#DejaVuSans-6e" transform="translate(1667.912109 0)"/>
     <use xlink:href="#DejaVuSans-74" transform="translate(1731.291016 0)"/>
     <use xlink:href="#DejaVuSans-20" transform="translate(1770.5 0)"/>
     <use xlink:href="#DejaVuSans-71" transform="translate(1802.287109 0)"/>
     <use xlink:href="#DejaVuSans-75" transform="translate(1865.763672 0)"/>
     <use xlink:href="#DejaVuSans-65" transform="translate(1929.142578 0)"/>
     <use xlink:href="#DejaVuSans-73" transform="translate(1990.666016 0)"/>
     <use xlink:href="#DejaVuSans-74" transform="translate(2042.765625 0)"/>
     <use xlink:href="#DejaVuSans-69" transform="translate(2081.974609 0)"/>
     <use xlink:href="#DejaVuSans-6f" transform="translate(2109.757812 0)"/>
     <use xlink:href="#DejaVuSans-6e" transform="translate(2170.939453 0)"/>
     <use xlink:href="#DejaVuSans-73" transform="translate(2234.318359 0)"/>
     <use xlink:href="#DejaVuSans-20" transform="translate(2286.417969 0)"/>
     <use xlink:href="#DejaVuSans-61" transform="translate(2318.205078 0)"/>
     <use xlink:href="#DejaVuSans-62" transform="translate(2379.484375 0)"/>
     <use xlink:href="#DejaVuSans-6f" transform="translate(2442.960938 0)"/>
     <use xlink:href="#DejaVuSans-75" transform="translate(2504.142578 0)"/>
     <use xlink:href="#DejaVuSans-74" transform="translate(2567.521484 0)"/>
     <use xlink:href="#DejaVuSans-20" transform="translate(2606.730469 0)"/>
     <use xlink:href="#DejaVuSans-74" transform="translate(2638.517578 0)"/>
     <use xlink:href="#DejaVuSans-68" transform="translate(2677.726562 0)"/>
     <use xlink:href="#DejaVuSans-65" transform="translate(2741.105469 0)"/>
     <use xlink:href="#DejaVuSans-20" transform="translate(2802.628906 0)"/>
     <use xlink:href="#DejaVuSans-73" transform="translate(2834.416016 0)"/>
     <use xlink:href="#DejaVuSans-61" transform="translate(2886.515625 0)"/>
     <use xlink:href="#DejaVuSans-6d" transform="translate(2947.794922 0)"/>
     <use xlink:href="#DejaVuSans-65" transform="translate(3045.207031 0)"/>
     <use xlink:href="#DejaVuSans-20" transform="translate(3106.730469 0)"/>
     <use xlink:href="#DejaVuSans-62" transform="translate(3138.517578 0)"/>
     <use xlink:href="#DejaVuSans-65" transform="translate(3201.994141 0)"/>
     <use xlink:href="#DejaVuSans-68" transform="translate(3263.517578 0)"/>
     <use xlink:href="#DejaVuSans-61" transform="translate(3326.896484 0)"/>
     <use xlink:href="#DejaVuSans-76" transform="translate(3388.175781 0)"/>
     <use xlink:href="#DejaVuSans-69" transform="translate(3447.355469 0)"/>
     <use xlink:href="#DejaVuSans-6f" transform="translate(3475.138672 0)"/>
     <use xlink:href="#DejaVuSans-72" transform="translate(3536.320312 0)"/>
     <use xlink:href="#DejaVuSans-2e" transform="translate(3568.308594 0)"/>
    </g>
   </g>
   <g id="patch_2">
    <path d="M 473.04 196.56 
L 678.96 196.56 
Q 689.04 196.56 689.04 186.48 
L 689.04 123.12 
Q 689.04 113.04 678.96 113.04 
L 473.04 113.04 
Q 462.96 113.04 462.96 123.12 
L 462.96 186.48 
Q 462.96 196.56 473.04 196.56 
z
" clip-path="url(#p676374b810)" style="fill: #dceaf2; stroke: #2f5d7c; stroke-width: 1.8; stroke-linejoin: miter"/>
   </g>
   <g id="patch_3">
    <path d="M 771.84 264.96 
L 977.76 264.96 
Q 987.84 264.96 987.84 254.88 
L 987.84 191.52 
Q 987.84 181.44 977.76 181.44 
L 771.84 181.44 
Q 761.76 181.44 761.76 191.52 
L 761.76 254.88 
Q 761.76 264.96 771.84 264.96 
z
" clip-path="url(#p676374b810)" style="fill: #fff5d6; stroke: #e9c46a; stroke-width: 1.8; stroke-linejoin: miter"/>
   </g>
   <g id="patch_4">
    <path d="M 800.64 448.56 
L 1006.56 448.56 
Q 1016.64 448.56 1016.64 438.48 
L 1016.64 375.12 
Q 1016.64 365.04 1006.56 365.04 
L 800.64 365.04 
Q 790.56 365.04 790.56 375.12 
L 790.56 438.48 
Q 790.56 448.56 800.64 448.56 
z
" clip-path="url(#p676374b810)" style="fill: #fce5df; stroke: #e76f51; stroke-width: 1.8; stroke-linejoin: miter"/>
   </g>
   <g id="patch_5">
    <path d="M 627.84 570.96 
L 833.76 570.96 
Q 843.84 570.96 843.84 560.88 
L 843.84 497.52 
Q 843.84 487.44 833.76 487.44 
L 627.84 487.44 
Q 617.76 487.44 617.76 497.52 
L 617.76 560.88 
Q 617.76 570.96 627.84 570.96 
z
" clip-path="url(#p676374b810)" style="fill: #ddf3f0; stroke: #2a9d8f; stroke-width: 1.8; stroke-linejoin: miter"/>
   </g>
   <g id="patch_6">
    <path d="M 318.24 570.96 
L 524.16 570.96 
Q 534.24 570.96 534.24 560.88 
L 534.24 497.52 
Q 534.24 487.44 524.16 487.44 
L 318.24 487.44 
Q 308.16 487.44 308.16 497.52 
L 308.16 560.88 
Q 308.16 570.96 318.24 570.96 
z
" clip-path="url(#p676374b810)" style="fill: #f7e6e6; stroke: #b45757; stroke-width: 1.8; stroke-linejoin: miter"/>
   </g>
   <g id="patch_7">
    <path d="M 145.44 448.56 
L 351.36 448.56 
Q 361.44 448.56 361.44 438.48 
L 361.44 375.12 
Q 361.44 365.04 351.36 365.04 
L 145.44 365.04 
Q 135.36 365.04 135.36 375.12 
L 135.36 438.48 
Q 135.36 448.56 145.44 448.56 
z
" clip-path="url(#p676374b810)" style="fill: #e9f3e5; stroke: #5b8e4f; stroke-width: 1.8; stroke-linejoin: miter"/>
   </g>
   <g id="patch_8">
    <path d="M 174.24 264.96 
L 380.16 264.96 
Q 390.24 264.96 390.24 254.88 
L 390.24 191.52 
Q 390.24 181.44 380.16 181.44 
L 174.24 181.44 
Q 164.16 181.44 164.16 191.52 
L 164.16 254.88 
Q 164.16 264.96 174.24 264.96 
z
" clip-path="url(#p676374b810)" style="fill: #eee7f1; stroke: #6d597a; stroke-width: 1.8; stroke-linejoin: miter"/>
   </g>
   <g id="patch_9">
    <path d="M 576 423.36 
C 597.576924 423.36 618.273018 414.787397 633.530208 399.530208 
C 648.787397 384.273018 657.36 363.576924 657.36 342 
C 657.36 320.423076 648.787397 299.726982 633.530208 284.469792 
C 618.273018 269.212603 597.576924 260.64 576 260.64 
C 554.423076 260.64 533.726982 269.212603 518.469792 284.469792 
C 503.212603 299.726982 494.64 320.423076 494.64 342 
C 494.64 363.576924 503.212603 384.273018 518.469792 399.530208 
C 533.726982 414.787397 554.423076 423.36 576 423.36 
z
" clip-path="url(#p676374b810)" style="fill: #ffffff; stroke: #222222; stroke-width: 2.2; stroke-linejoin: miter"/>
   </g>
   <g id="patch_10">
    <path d="M 576 423.36 
C 597.576924 423.36 618.273018 414.787397 633.530208 399.530208 
C 648.787397 384.273018 657.36 363.576924 657.36 342 
C 657.36 320.423076 648.787397 299.726982 633.530208 284.469792 
C 618.273018 269.212603 597.576924 260.64 576 260.64 
C 554.423076 260.64 533.726982 269.212603 518.469792 284.469792 
C 503.212603 299.726982 494.64 320.423076 494.64 342 
C 494.64 363.576924 503.212603 384.273018 518.469792 399.530208 
C 533.726982 414.787397 554.423076 423.36 576 423.36 
z
" clip-path="url(#p676374b810)" style="fill: #ffffff; stroke: #222222; stroke-width: 2.2; stroke-linejoin: miter"/>
   </g>
   <g id="text_3">
    <!-- Repeatedly -->
    <g style="fill: #222222" transform="translate(528.120703 315.606094) scale(0.15 -0.15)">
     <defs>
      <path id="DejaVuSans-Bold-52" d="M 2297 2597 
Q 2675 2597 2839 2737 
Q 3003 2878 3003 3200 
Q 3003 3519 2839 3656 
Q 2675 3794 2297 3794 
L 1791 3794 
L 1791 2597 
L 2297 2597 
z
M 1791 1766 
L 1791 0 
L 588 0 
L 588 4666 
L 2425 4666 
Q 3347 4666 3776 4356 
Q 4206 4047 4206 3378 
Q 4206 2916 3982 2619 
Q 3759 2322 3309 2181 
Q 3556 2125 3751 1926 
Q 3947 1728 4147 1325 
L 4800 0 
L 3519 0 
L 2950 1159 
Q 2778 1509 2601 1637 
Q 2425 1766 2131 1766 
L 1791 1766 
z
" transform="scale(0.015625)"/>
      <path id="DejaVuSans-Bold-64" d="M 2919 2988 
L 2919 4863 
L 4044 4863 
L 4044 0 
L 2919 0 
L 2919 506 
Q 2688 197 2409 53 
Q 2131 -91 1766 -91 
Q 1119 -91 703 423 
Q 288 938 288 1747 
Q 288 2556 703 3070 
Q 1119 3584 1766 3584 
Q 2128 3584 2408 3439 
Q 2688 3294 2919 2988 
z
M 2181 722 
Q 2541 722 2730 984 
Q 2919 1247 2919 1747 
Q 2919 2247 2730 2509 
Q 2541 2772 2181 2772 
Q 1825 2772 1636 2509 
Q 1447 2247 1447 1747 
Q 1447 1247 1636 984 
Q 1825 722 2181 722 
z
" transform="scale(0.015625)"/>
      <path id="DejaVuSans-Bold-6c" d="M 538 4863 
L 1656 4863 
L 1656 0 
L 538 0 
L 538 4863 
z
" transform="scale(0.015625)"/>
      <path id="DejaVuSans-Bold-79" d="M 78 3500 
L 1197 3500 
L 2138 1125 
L 2938 3500 
L 4056 3500 
L 2584 -331 
Q 2363 -916 2067 -1148 
Q 1772 -1381 1288 -1381 
L 641 -1381 
L 641 -647 
L 991 -647 
Q 1275 -647 1404 -556 
Q 1534 -466 1606 -231 
L 1638 -134 
L 78 3500 
z
" transform="scale(0.015625)"/>
     </defs>
     <use xlink:href="#DejaVuSans-Bold-52"/>
     <use xlink:href="#DejaVuSans-Bold-65" transform="translate(77.001953 0)"/>
     <use xlink:href="#DejaVuSans-Bold-70" transform="translate(144.824219 0)"/>
     <use xlink:href="#DejaVuSans-Bold-65" transform="translate(216.40625 0)"/>
     <use xlink:href="#DejaVuSans-Bold-61" transform="translate(284.228516 0)"/>
     <use xlink:href="#DejaVuSans-Bold-74" transform="translate(351.708984 0)"/>
     <use xlink:href="#DejaVuSans-Bold-65" transform="translate(399.511719 0)"/>
     <use xlink:href="#DejaVuSans-Bold-64" transform="translate(467.333984 0)"/>
     <use xlink:href="#DejaVuSans-Bold-6c" transform="translate(538.916016 0)"/>
     <use xlink:href="#DejaVuSans-Bold-79" transform="translate(573.193359 0)"/>
    </g>
    <!-- checking -->
    <g style="fill: #222222" transform="translate(538.415625 330.240469) scale(0.15 -0.15)">
     <defs>
      <path id="DejaVuSans-Bold-6b" d="M 538 4863 
L 1656 4863 
L 1656 2216 
L 2944 3500 
L 4244 3500 
L 2534 1894 
L 4378 0 
L 3022 0 
L 1656 1459 
L 1656 0 
L 538 0 
L 538 4863 
z
" transform="scale(0.015625)"/>
     </defs>
     <use xlink:href="#DejaVuSans-Bold-63"/>
     <use xlink:href="#DejaVuSans-Bold-68" transform="translate(59.277344 0)"/>
     <use xlink:href="#DejaVuSans-Bold-65" transform="translate(130.46875 0)"/>
     <use xlink:href="#DejaVuSans-Bold-63" transform="translate(198.291016 0)"/>
     <use xlink:href="#DejaVuSans-Bold-6b" transform="translate(257.568359 0)"/>
     <use xlink:href="#DejaVuSans-Bold-69" transform="translate(324.072266 0)"/>
     <use xlink:href="#DejaVuSans-Bold-6e" transform="translate(358.349609 0)"/>
     <use xlink:href="#DejaVuSans-Bold-67" transform="translate(429.541016 0)"/>
    </g>
    <!-- your phone -->
    <g style="fill: #222222" transform="translate(528.023438 344.874844) scale(0.15 -0.15)">
     <defs>
      <path id="DejaVuSans-Bold-75" d="M 500 1363 
L 500 3500 
L 1625 3500 
L 1625 3150 
Q 1625 2866 1622 2436 
Q 1619 2006 1619 1863 
Q 1619 1441 1641 1255 
Q 1663 1069 1716 984 
Q 1784 875 1895 815 
Q 2006 756 2150 756 
Q 2500 756 2700 1025 
Q 2900 1294 2900 1772 
L 2900 3500 
L 4019 3500 
L 4019 0 
L 2900 0 
L 2900 506 
Q 2647 200 2364 54 
Q 2081 -91 1741 -91 
Q 1134 -91 817 281 
Q 500 653 500 1363 
z
" transform="scale(0.015625)"/>
     </defs>
     <use xlink:href="#DejaVuSans-Bold-79"/>
     <use xlink:href="#DejaVuSans-Bold-6f" transform="translate(65.185547 0)"/>
     <use xlink:href="#DejaVuSans-Bold-75" transform="translate(133.886719 0)"/>
     <use xlink:href="#DejaVuSans-Bold-72" transform="translate(205.078125 0)"/>
     <use xlink:href="#DejaVuSans-Bold-20" transform="translate(254.394531 0)"/>
     <use xlink:href="#DejaVuSans-Bold-70" transform="translate(289.208984 0)"/>
     <use xlink:href="#DejaVuSans-Bold-68" transform="translate(360.791016 0)"/>
     <use xlink:href="#DejaVuSans-Bold-6f" transform="translate(431.982422 0)"/>
     <use xlink:href="#DejaVuSans-Bold-6e" transform="translate(500.683594 0)"/>
     <use xlink:href="#DejaVuSans-Bold-65" transform="translate(571.875 0)"/>
    </g>
   </g>
   <g id="text_4">
    <!-- one behavior -->
    <g style="fill: #4d4d4d" transform="translate(541.517344 398.897344) scale(0.105 -0.105)">
     <use xlink:href="#DejaVuSans-6f"/>
     <use xlink:href="#DejaVuSans-6e" transform="translate(61.181641 0)"/>
     <use xlink:href="#DejaVuSans-65" transform="translate(124.560547 0)"/>
     <use xlink:href="#DejaVuSans-20" transform="translate(186.083984 0)"/>
     <use xlink:href="#DejaVuSans-62" transform="translate(217.871094 0)"/>
     <use xlink:href="#DejaVuSans-65" transform="translate(281.347656 0)"/>
     <use xlink:href="#DejaVuSans-68" transform="translate(342.871094 0)"/>
     <use xlink:href="#DejaVuSans-61" transform="translate(406.25 0)"/>
     <use xlink:href="#DejaVuSans-76" transform="translate(467.529297 0)"/>
     <use xlink:href="#DejaVuSans-69" transform="translate(526.708984 0)"/>
     <use xlink:href="#DejaVuSans-6f" transform="translate(554.492188 0)"/>
     <use xlink:href="#DejaVuSans-72" transform="translate(615.673828 0)"/>
    </g>
   </g>
   <g id="text_5">
    <!-- Biological -->
    <g style="fill: #222222" transform="translate(541.956187 142.333188) scale(0.124 -0.124)">
     <use xlink:href="#DejaVuSans-Bold-42"/>
     <use xlink:href="#DejaVuSans-Bold-69" transform="translate(76.220703 0)"/>
     <use xlink:href="#DejaVuSans-Bold-6f" transform="translate(110.498047 0)"/>
     <use xlink:href="#DejaVuSans-Bold-6c" transform="translate(179.199219 0)"/>
     <use xlink:href="#DejaVuSans-Bold-6f" transform="translate(213.476562 0)"/>
     <use xlink:href="#DejaVuSans-Bold-67" transform="translate(282.177734 0)"/>
     <use xlink:href="#DejaVuSans-Bold-69" transform="translate(353.759766 0)"/>
     <use xlink:href="#DejaVuSans-Bold-63" transform="translate(388.037109 0)"/>
     <use xlink:href="#DejaVuSans-Bold-61" transform="translate(447.314453 0)"/>
     <use xlink:href="#DejaVuSans-Bold-6c" transform="translate(514.794922 0)"/>
    </g>
   </g>
   <g id="text_6">
    <!-- reward circuits, -->
    <g style="fill: #4d4d4d" transform="translate(536.784984 168.518719) scale(0.102 -0.102)">
     <defs>
      <path id="DejaVuSans-77" d="M 269 3500 
L 844 3500 
L 1563 769 
L 2278 3500 
L 2956 3500 
L 3675 769 
L 4391 3500 
L 4966 3500 
L 4050 0 
L 3372 0 
L 2619 2869 
L 1863 0 
L 1184 0 
L 269 3500 
z
" transform="scale(0.015625)"/>
      <path id="DejaVuSans-2c" d="M 750 794 
L 1409 794 
L 1409 256 
L 897 -744 
L 494 -744 
L 750 256 
L 750 794 
z
" transform="scale(0.015625)"/>
     </defs>
     <use xlink:href="#DejaVuSans-72"/>
     <use xlink:href="#DejaVuSans-65" transform="translate(38.863281 0)"/>
     <use xlink:href="#DejaVuSans-77" transform="translate(100.386719 0)"/>
     <use xlink:href="#DejaVuSans-61" transform="translate(182.173828 0)"/>
     <use xlink:href="#DejaVuSans-72" transform="translate(243.453125 0)"/>
     <use xlink:href="#DejaVuSans-64" transform="translate(282.816406 0)"/>
     <use xlink:href="#DejaVuSans-20" transform="translate(346.292969 0)"/>
     <use xlink:href="#DejaVuSans-63" transform="translate(378.080078 0)"/>
     <use xlink:href="#DejaVuSans-69" transform="translate(433.060547 0)"/>
     <use xlink:href="#DejaVuSans-72" transform="translate(460.84375 0)"/>
     <use xlink:href="#DejaVuSans-63" transform="translate(499.707031 0)"/>
     <use xlink:href="#DejaVuSans-75" transform="translate(554.6875 0)"/>
     <use xlink:href="#DejaVuSans-69" transform="translate(618.066406 0)"/>
     <use xlink:href="#DejaVuSans-74" transform="translate(645.849609 0)"/>
     <use xlink:href="#DejaVuSans-73" transform="translate(685.058594 0)"/>
     <use xlink:href="#DejaVuSans-2c" transform="translate(737.158203 0)"/>
    </g>
    <!-- arousal, sleep -->
    <g style="fill: #4d4d4d" transform="translate(540.511969 178.390406) scale(0.102 -0.102)">
     <defs>
      <path id="DejaVuSans-6c" d="M 603 4863 
L 1178 4863 
L 1178 0 
L 603 0 
L 603 4863 
z
" transform="scale(0.015625)"/>
     </defs>
     <use xlink:href="#DejaVuSans-61"/>
     <use xlink:href="#DejaVuSans-72" transform="translate(61.279297 0)"/>
     <use xlink:href="#DejaVuSans-6f" transform="translate(100.142578 0)"/>
     <use xlink:href="#DejaVuSans-75" transform="translate(161.324219 0)"/>
     <use xlink:href="#DejaVuSans-73" transform="translate(224.703125 0)"/>
     <use xlink:href="#DejaVuSans-61" transform="translate(276.802734 0)"/>
     <use xlink:href="#DejaVuSans-6c" transform="translate(338.082031 0)"/>
     <use xlink:href="#DejaVuSans-2c" transform="translate(365.865234 0)"/>
     <use xlink:href="#DejaVuSans-20" transform="translate(397.652344 0)"/>
     <use xlink:href="#DejaVuSans-73" transform="translate(429.439453 0)"/>
     <use xlink:href="#DejaVuSans-6c" transform="translate(481.539062 0)"/>
     <use xlink:href="#DejaVuSans-65" transform="translate(509.322266 0)"/>
     <use xlink:href="#DejaVuSans-65" transform="translate(570.845703 0)"/>
     <use xlink:href="#DejaVuSans-70" transform="translate(632.369141 0)"/>
    </g>
   </g>
   <g id="text_7">
    <!-- Behavioral -->
    <g style="fill: #222222" transform="translate(837.477938 210.781625) scale(0.124 -0.124)">
     <use xlink:href="#DejaVuSans-Bold-42"/>
     <use xlink:href="#DejaVuSans-Bold-65" transform="translate(76.220703 0)"/>
     <use xlink:href="#DejaVuSans-Bold-68" transform="translate(144.042969 0)"/>
     <use xlink:href="#DejaVuSans-Bold-61" transform="translate(215.234375 0)"/>
     <use xlink:href="#DejaVuSans-Bold-76" transform="translate(282.714844 0)"/>
     <use xlink:href="#DejaVuSans-Bold-69" transform="translate(347.900391 0)"/>
     <use xlink:href="#DejaVuSans-Bold-6f" transform="translate(382.177734 0)"/>
     <use xlink:href="#DejaVuSans-Bold-72" transform="translate(450.878906 0)"/>
     <use xlink:href="#DejaVuSans-Bold-61" transform="translate(500.195312 0)"/>
     <use xlink:href="#DejaVuSans-Bold-6c" transform="translate(567.675781 0)"/>
    </g>
   </g>
   <g id="text_8">
    <!-- unpredictable -->
    <g style="fill: #4d4d4d" transform="translate(839.602031 236.918719) scale(0.102 -0.102)">
     <use xlink:href="#DejaVuSans-75"/>
     <use xlink:href="#DejaVuSans-6e" transform="translate(63.378906 0)"/>
     <use xlink:href="#DejaVuSans-70" transform="translate(126.757812 0)"/>
     <use xlink:href="#DejaVuSans-72" transform="translate(190.234375 0)"/>
     <use xlink:href="#DejaVuSans-65" transform="translate(229.097656 0)"/>
     <use xlink:href="#DejaVuSans-64" transform="translate(290.621094 0)"/>
     <use xlink:href="#DejaVuSans-69" transform="translate(354.097656 0)"/>
     <use xlink:href="#DejaVuSans-63" transform="translate(381.880859 0)"/>
     <use xlink:href="#DejaVuSans-74" transform="translate(436.861328 0)"/>
     <use xlink:href="#DejaVuSans-61" transform="translate(476.070312 0)"/>
     <use xlink:href="#DejaVuSans-62" transform="translate(537.349609 0)"/>
     <use xlink:href="#DejaVuSans-6c" transform="translate(600.826172 0)"/>
     <use xlink:href="#DejaVuSans-65" transform="translate(628.609375 0)"/>
    </g>
    <!-- reinforcement -->
    <g style="fill: #4d4d4d" transform="translate(838.853766 246.790406) scale(0.102 -0.102)">
     <use xlink:href="#DejaVuSans-72"/>
     <use xlink:href="#DejaVuSans-65" transform="translate(38.863281 0)"/>
     <use xlink:href="#DejaVuSans-69" transform="translate(100.386719 0)"/>
     <use xlink:href="#DejaVuSans-6e" transform="translate(128.169922 0)"/>
     <use xlink:href="#DejaVuSans-66" transform="translate(191.548828 0)"/>
     <use xlink:href="#DejaVuSans-6f" transform="translate(226.753906 0)"/>
     <use xlink:href="#DejaVuSans-72" transform="translate(287.935547 0)"/>
     <use xlink:href="#DejaVuSans-63" transform="translate(326.798828 0)"/>
     <use xlink:href="#DejaVuSans-65" transform="translate(381.779297 0)"/>
     <use xlink:href="#DejaVuSans-6d" transform="translate(443.302734 0)"/>
     <use xlink:href="#DejaVuSans-65" transform="translate(540.714844 0)"/>
     <use xlink:href="#DejaVuSans-6e" transform="translate(602.238281 0)"/>
     <use xlink:href="#DejaVuSans-74" transform="translate(665.617188 0)"/>
    </g>
   </g>
   <g id="text_9">
    <!-- Cognitive -->
    <g style="fill: #222222" transform="translate(870.477469 394.333188) scale(0.124 -0.124)">
     <defs>
      <path id="DejaVuSans-Bold-43" d="M 4288 256 
Q 3956 84 3597 -3 
Q 3238 -91 2847 -91 
Q 1681 -91 1000 561 
Q 319 1213 319 2328 
Q 319 3447 1000 4098 
Q 1681 4750 2847 4750 
Q 3238 4750 3597 4662 
Q 3956 4575 4288 4403 
L 4288 3438 
Q 3953 3666 3628 3772 
Q 3303 3878 2944 3878 
Q 2300 3878 1931 3465 
Q 1563 3053 1563 2328 
Q 1563 1606 1931 1193 
Q 2300 781 2944 781 
Q 3303 781 3628 887 
Q 3953 994 4288 1222 
L 4288 256 
z
" transform="scale(0.015625)"/>
     </defs>
     <use xlink:href="#DejaVuSans-Bold-43"/>
     <use xlink:href="#DejaVuSans-Bold-6f" transform="translate(73.388672 0)"/>
     <use xlink:href="#DejaVuSans-Bold-67" transform="translate(142.089844 0)"/>
     <use xlink:href="#DejaVuSans-Bold-6e" transform="translate(213.671875 0)"/>
     <use xlink:href="#DejaVuSans-Bold-69" transform="translate(284.863281 0)"/>
     <use xlink:href="#DejaVuSans-Bold-74" transform="translate(319.140625 0)"/>
     <use xlink:href="#DejaVuSans-Bold-69" transform="translate(366.943359 0)"/>
     <use xlink:href="#DejaVuSans-Bold-76" transform="translate(401.220703 0)"/>
     <use xlink:href="#DejaVuSans-Bold-65" transform="translate(466.40625 0)"/>
    </g>
   </g>
   <g id="text_10">
    <!-- unresolved question -->
    <g style="fill: #4d4d4d" transform="translate(851.772844 420.518719) scale(0.102 -0.102)">
     <use xlink:href="#DejaVuSans-75"/>
     <use xlink:href="#DejaVuSans-6e" transform="translate(63.378906 0)"/>
     <use xlink:href="#DejaVuSans-72" transform="translate(126.757812 0)"/>
     <use xlink:href="#DejaVuSans-65" transform="translate(165.621094 0)"/>
     <use xlink:href="#DejaVuSans-73" transform="translate(227.144531 0)"/>
     <use xlink:href="#DejaVuSans-6f" transform="translate(279.244141 0)"/>
     <use xlink:href="#DejaVuSans-6c" transform="translate(340.425781 0)"/>
     <use xlink:href="#DejaVuSans-76" transform="translate(368.208984 0)"/>
     <use xlink:href="#DejaVuSans-65" transform="translate(427.388672 0)"/>
     <use xlink:href="#DejaVuSans-64" transform="translate(488.912109 0)"/>
     <use xlink:href="#DejaVuSans-20" transform="translate(552.388672 0)"/>
     <use xlink:href="#DejaVuSans-71" transform="translate(584.175781 0)"/>
     <use xlink:href="#DejaVuSans-75" transform="translate(647.652344 0)"/>
     <use xlink:href="#DejaVuSans-65" transform="translate(711.03125 0)"/>
     <use xlink:href="#DejaVuSans-73" transform="translate(772.554688 0)"/>
     <use xlink:href="#DejaVuSans-74" transform="translate(824.654297 0)"/>
     <use xlink:href="#DejaVuSans-69" transform="translate(863.863281 0)"/>
     <use xlink:href="#DejaVuSans-6f" transform="translate(891.646484 0)"/>
     <use xlink:href="#DejaVuSans-6e" transform="translate(952.828125 0)"/>
    </g>
    <!-- captures attention -->
    <g style="fill: #4d4d4d" transform="translate(856.540547 430.390406) scale(0.102 -0.102)">
     <use xlink:href="#DejaVuSans-63"/>
     <use xlink:href="#DejaVuSans-61" transform="translate(54.980469 0)"/>
     <use xlink:href="#DejaVuSans-70" transform="translate(116.259766 0)"/>
     <use xlink:href="#DejaVuSans-74" transform="translate(179.736328 0)"/>
     <use xlink:href="#DejaVuSans-75" transform="translate(218.945312 0)"/>
     <use xlink:href="#DejaVuSans-72" transform="translate(282.324219 0)"/>
     <use xlink:href="#DejaVuSans-65" transform="translate(321.1875 0)"/>
     <use xlink:href="#DejaVuSans-73" transform="translate(382.710938 0)"/>
     <use xlink:href="#DejaVuSans-20" transform="translate(434.810547 0)"/>
     <use xlink:href="#DejaVuSans-61" transform="translate(466.597656 0)"/>
     <use xlink:href="#DejaVuSans-74" transform="translate(527.876953 0)"/>
     <use xlink:href="#DejaVuSans-74" transform="translate(567.085938 0)"/>
     <use xlink:href="#DejaVuSans-65" transform="translate(606.294922 0)"/>
     <use xlink:href="#DejaVuSans-6e" transform="translate(667.818359 0)"/>
     <use xlink:href="#DejaVuSans-74" transform="translate(731.197266 0)"/>
     <use xlink:href="#DejaVuSans-69" transform="translate(770.40625 0)"/>
     <use xlink:href="#DejaVuSans-6f" transform="translate(798.189453 0)"/>
     <use xlink:href="#DejaVuSans-6e" transform="translate(859.371094 0)"/>
    </g>
   </g>
   <g id="text_11">
    <!-- Sociocultural -->
    <g style="fill: #222222" transform="translate(685.056594 516.781625) scale(0.124 -0.124)">
     <use xlink:href="#DejaVuSans-Bold-53"/>
     <use xlink:href="#DejaVuSans-Bold-6f" transform="translate(72.021484 0)"/>
     <use xlink:href="#DejaVuSans-Bold-63" transform="translate(140.722656 0)"/>
     <use xlink:href="#DejaVuSans-Bold-69" transform="translate(200 0)"/>
     <use xlink:href="#DejaVuSans-Bold-6f" transform="translate(234.277344 0)"/>
     <use xlink:href="#DejaVuSans-Bold-63" transform="translate(302.978516 0)"/>
     <use xlink:href="#DejaVuSans-Bold-75" transform="translate(362.255859 0)"/>
     <use xlink:href="#DejaVuSans-Bold-6c" transform="translate(433.447266 0)"/>
     <use xlink:href="#DejaVuSans-Bold-74" transform="translate(467.724609 0)"/>
     <use xlink:href="#DejaVuSans-Bold-75" transform="translate(515.527344 0)"/>
     <use xlink:href="#DejaVuSans-Bold-72" transform="translate(586.71875 0)"/>
     <use xlink:href="#DejaVuSans-Bold-61" transform="translate(636.035156 0)"/>
     <use xlink:href="#DejaVuSans-Bold-6c" transform="translate(703.515625 0)"/>
    </g>
   </g>
   <g id="text_12">
    <!-- constant availability -->
    <g style="fill: #4d4d4d" transform="translate(679.274859 542.918719) scale(0.102 -0.102)">
     <defs>
      <path id="DejaVuSans-79" d="M 2059 -325 
Q 1816 -950 1584 -1140 
Q 1353 -1331 966 -1331 
L 506 -1331 
L 506 -850 
L 844 -850 
Q 1081 -850 1212 -737 
Q 1344 -625 1503 -206 
L 1606 56 
L 191 3500 
L 800 3500 
L 1894 763 
L 2988 3500 
L 3597 3500 
L 2059 -325 
z
" transform="scale(0.015625)"/>
     </defs>
     <use xlink:href="#DejaVuSans-63"/>
     <use xlink:href="#DejaVuSans-6f" transform="translate(54.980469 0)"/>
     <use xlink:href="#DejaVuSans-6e" transform="translate(116.162109 0)"/>
     <use xlink:href="#DejaVuSans-73" transform="translate(179.541016 0)"/>
     <use xlink:href="#DejaVuSans-74" transform="translate(231.640625 0)"/>
     <use xlink:href="#DejaVuSans-61" transform="translate(270.849609 0)"/>
     <use xlink:href="#DejaVuSans-6e" transform="translate(332.128906 0)"/>
     <use xlink:href="#DejaVuSans-74" transform="translate(395.507812 0)"/>
     <use xlink:href="#DejaVuSans-20" transform="translate(434.716797 0)"/>
     <use xlink:href="#DejaVuSans-61" transform="translate(466.503906 0)"/>
     <use xlink:href="#DejaVuSans-76" transform="translate(527.783203 0)"/>
     <use xlink:href="#DejaVuSans-61" transform="translate(586.962891 0)"/>
     <use xlink:href="#DejaVuSans-69" transform="translate(648.242188 0)"/>
     <use xlink:href="#DejaVuSans-6c" transform="translate(676.025391 0)"/>
     <use xlink:href="#DejaVuSans-61" transform="translate(703.808594 0)"/>
     <use xlink:href="#DejaVuSans-62" transform="translate(765.087891 0)"/>
     <use xlink:href="#DejaVuSans-69" transform="translate(828.564453 0)"/>
     <use xlink:href="#DejaVuSans-6c" transform="translate(856.347656 0)"/>
     <use xlink:href="#DejaVuSans-69" transform="translate(884.130859 0)"/>
     <use xlink:href="#DejaVuSans-74" transform="translate(911.914062 0)"/>
     <use xlink:href="#DejaVuSans-79" transform="translate(951.123047 0)"/>
    </g>
    <!-- feels normal -->
    <g style="fill: #4d4d4d" transform="translate(699.164063 552.790406) scale(0.102 -0.102)">
     <use xlink:href="#DejaVuSans-66"/>
     <use xlink:href="#DejaVuSans-65" transform="translate(35.205078 0)"/>
     <use xlink:href="#DejaVuSans-65" transform="translate(96.728516 0)"/>
     <use xlink:href="#DejaVuSans-6c" transform="translate(158.251953 0)"/>
     <use xlink:href="#DejaVuSans-73" transform="translate(186.035156 0)"/>
     <use xlink:href="#DejaVuSans-20" transform="translate(238.134766 0)"/>
     <use xlink:href="#DejaVuSans-6e" transform="translate(269.921875 0)"/>
     <use xlink:href="#DejaVuSans-6f" transform="translate(333.300781 0)"/>
     <use xlink:href="#DejaVuSans-72" transform="translate(394.482422 0)"/>
     <use xlink:href="#DejaVuSans-6d" transform="translate(433.845703 0)"/>
     <use xlink:href="#DejaVuSans-61" transform="translate(531.257812 0)"/>
     <use xlink:href="#DejaVuSans-6c" transform="translate(592.537109 0)"/>
    </g>
   </g>
   <g id="text_13">
    <!-- Evolutionary -->
    <g style="fill: #222222" transform="translate(377.07925 516.733187) scale(0.124 -0.124)">
     <defs>
      <path id="DejaVuSans-Bold-45" d="M 588 4666 
L 3834 4666 
L 3834 3756 
L 1791 3756 
L 1791 2888 
L 3713 2888 
L 3713 1978 
L 1791 1978 
L 1791 909 
L 3903 909 
L 3903 0 
L 588 0 
L 588 4666 
z
" transform="scale(0.015625)"/>
     </defs>
     <use xlink:href="#DejaVuSans-Bold-45"/>
     <use xlink:href="#DejaVuSans-Bold-76" transform="translate(68.310547 0)"/>
     <use xlink:href="#DejaVuSans-Bold-6f" transform="translate(133.496094 0)"/>
     <use xlink:href="#DejaVuSans-Bold-6c" transform="translate(202.197266 0)"/>
     <use xlink:href="#DejaVuSans-Bold-75" transform="translate(236.474609 0)"/>
     <use xlink:href="#DejaVuSans-Bold-74" transform="translate(307.666016 0)"/>
     <use xlink:href="#DejaVuSans-Bold-69" transform="translate(355.46875 0)"/>
     <use xlink:href="#DejaVuSans-Bold-6f" transform="translate(389.746094 0)"/>
     <use xlink:href="#DejaVuSans-Bold-6e" transform="translate(458.447266 0)"/>
     <use xlink:href="#DejaVuSans-Bold-61" transform="translate(529.638672 0)"/>
     <use xlink:href="#DejaVuSans-Bold-72" transform="translate(597.119141 0)"/>
     <use xlink:href="#DejaVuSans-Bold-79" transform="translate(646.435547 0)"/>
    </g>
   </g>
   <g id="text_14">
    <!-- social information -->
    <g style="fill: #4d4d4d" transform="translate(375.604406 542.918719) scale(0.102 -0.102)">
     <use xlink:href="#DejaVuSans-73"/>
     <use xlink:href="#DejaVuSans-6f" transform="translate(52.099609 0)"/>
     <use xlink:href="#DejaVuSans-63" transform="translate(113.28125 0)"/>
     <use xlink:href="#DejaVuSans-69" transform="translate(168.261719 0)"/>
     <use xlink:href="#DejaVuSans-61" transform="translate(196.044922 0)"/>
     <use xlink:href="#DejaVuSans-6c" transform="translate(257.324219 0)"/>
     <use xlink:href="#DejaVuSans-20" transform="translate(285.107422 0)"/>
     <use xlink:href="#DejaVuSans-69" transform="translate(316.894531 0)"/>
     <use xlink:href="#DejaVuSans-6e" transform="translate(344.677734 0)"/>
     <use xlink:href="#DejaVuSans-66" transform="translate(408.056641 0)"/>
     <use xlink:href="#DejaVuSans-6f" transform="translate(443.261719 0)"/>
     <use xlink:href="#DejaVuSans-72" transform="translate(504.443359 0)"/>
     <use xlink:href="#DejaVuSans-6d" transform="translate(543.806641 0)"/>
     <use xlink:href="#DejaVuSans-61" transform="translate(641.21875 0)"/>
     <use xlink:href="#DejaVuSans-74" transform="translate(702.498047 0)"/>
     <use xlink:href="#DejaVuSans-69" transform="translate(741.707031 0)"/>
     <use xlink:href="#DejaVuSans-6f" transform="translate(769.490234 0)"/>
     <use xlink:href="#DejaVuSans-6e" transform="translate(830.671875 0)"/>
    </g>
    <!-- can matter for survival -->
    <g style="fill: #4d4d4d" transform="translate(362.855203 552.790406) scale(0.102 -0.102)">
     <use xlink:href="#DejaVuSans-63"/>
     <use xlink:href="#DejaVuSans-61" transform="translate(54.980469 0)"/>
     <use xlink:href="#DejaVuSans-6e" transform="translate(116.259766 0)"/>
     <use xlink:href="#DejaVuSans-20" transform="translate(179.638672 0)"/>
     <use xlink:href="#DejaVuSans-6d" transform="translate(211.425781 0)"/>
     <use xlink:href="#DejaVuSans-61" transform="translate(308.837891 0)"/>
     <use xlink:href="#DejaVuSans-74" transform="translate(370.117188 0)"/>
     <use xlink:href="#DejaVuSans-74" transform="translate(409.326172 0)"/>
     <use xlink:href="#DejaVuSans-65" transform="translate(448.535156 0)"/>
     <use xlink:href="#DejaVuSans-72" transform="translate(510.058594 0)"/>
     <use xlink:href="#DejaVuSans-20" transform="translate(551.171875 0)"/>
     <use xlink:href="#DejaVuSans-66" transform="translate(582.958984 0)"/>
     <use xlink:href="#DejaVuSans-6f" transform="translate(618.164062 0)"/>
     <use xlink:href="#DejaVuSans-72" transform="translate(679.345703 0)"/>
     <use xlink:href="#DejaVuSans-20" transform="translate(720.458984 0)"/>
     <use xlink:href="#DejaVuSans-73" transform="translate(752.246094 0)"/>
     <use xlink:href="#DejaVuSans-75" transform="translate(804.345703 0)"/>
     <use xlink:href="#DejaVuSans-72" transform="translate(867.724609 0)"/>
     <use xlink:href="#DejaVuSans-76" transform="translate(908.837891 0)"/>
     <use xlink:href="#DejaVuSans-69" transform="translate(968.017578 0)"/>
     <use xlink:href="#DejaVuSans-76" transform="translate(995.800781 0)"/>
     <use xlink:href="#DejaVuSans-61" transform="translate(1054.980469 0)"/>
     <use xlink:href="#DejaVuSans-6c" transform="translate(1116.259766 0)"/>
    </g>
   </g>
   <g id="text_15">
    <!-- Humanistic -->
    <g style="fill: #222222" transform="translate(209.159813 394.381625) scale(0.124 -0.124)">
     <defs>
      <path id="DejaVuSans-Bold-48" d="M 588 4666 
L 1791 4666 
L 1791 2888 
L 3566 2888 
L 3566 4666 
L 4769 4666 
L 4769 0 
L 3566 0 
L 3566 1978 
L 1791 1978 
L 1791 0 
L 588 0 
L 588 4666 
z
" transform="scale(0.015625)"/>
      <path id="DejaVuSans-Bold-6d" d="M 3781 2919 
Q 3994 3244 4286 3414 
Q 4578 3584 4928 3584 
Q 5531 3584 5847 3212 
Q 6163 2841 6163 2131 
L 6163 0 
L 5038 0 
L 5038 1825 
Q 5041 1866 5042 1909 
Q 5044 1953 5044 2034 
Q 5044 2406 4934 2573 
Q 4825 2741 4581 2741 
Q 4263 2741 4089 2478 
Q 3916 2216 3909 1719 
L 3909 0 
L 2784 0 
L 2784 1825 
Q 2784 2406 2684 2573 
Q 2584 2741 2328 2741 
Q 2006 2741 1831 2477 
Q 1656 2213 1656 1722 
L 1656 0 
L 531 0 
L 531 3500 
L 1656 3500 
L 1656 2988 
Q 1863 3284 2130 3434 
Q 2397 3584 2719 3584 
Q 3081 3584 3359 3409 
Q 3638 3234 3781 2919 
z
" transform="scale(0.015625)"/>
     </defs>
     <use xlink:href="#DejaVuSans-Bold-48"/>
     <use xlink:href="#DejaVuSans-Bold-75" transform="translate(83.691406 0)"/>
     <use xlink:href="#DejaVuSans-Bold-6d" transform="translate(154.882812 0)"/>
     <use xlink:href="#DejaVuSans-Bold-61" transform="translate(259.082031 0)"/>
     <use xlink:href="#DejaVuSans-Bold-6e" transform="translate(326.5625 0)"/>
     <use xlink:href="#DejaVuSans-Bold-69" transform="translate(397.753906 0)"/>
     <use xlink:href="#DejaVuSans-Bold-73" transform="translate(432.03125 0)"/>
     <use xlink:href="#DejaVuSans-Bold-74" transform="translate(491.552734 0)"/>
     <use xlink:href="#DejaVuSans-Bold-69" transform="translate(539.355469 0)"/>
     <use xlink:href="#DejaVuSans-Bold-63" transform="translate(573.632812 0)"/>
    </g>
   </g>
   <g id="text_16">
    <!-- connection, meaning, -->
    <g style="fill: #4d4d4d" transform="translate(193.087312 420.518719) scale(0.102 -0.102)">
     <defs>
      <path id="DejaVuSans-67" d="M 2906 1791 
Q 2906 2416 2648 2759 
Q 2391 3103 1925 3103 
Q 1463 3103 1205 2759 
Q 947 2416 947 1791 
Q 947 1169 1205 825 
Q 1463 481 1925 481 
Q 2391 481 2648 825 
Q 2906 1169 2906 1791 
z
M 3481 434 
Q 3481 -459 3084 -895 
Q 2688 -1331 1869 -1331 
Q 1566 -1331 1297 -1286 
Q 1028 -1241 775 -1147 
L 775 -588 
Q 1028 -725 1275 -790 
Q 1522 -856 1778 -856 
Q 2344 -856 2625 -561 
Q 2906 -266 2906 331 
L 2906 616 
Q 2728 306 2450 153 
Q 2172 0 1784 0 
Q 1141 0 747 490 
Q 353 981 353 1791 
Q 353 2603 747 3093 
Q 1141 3584 1784 3584 
Q 2172 3584 2450 3431 
Q 2728 3278 2906 2969 
L 2906 3500 
L 3481 3500 
L 3481 434 
z
" transform="scale(0.015625)"/>
     </defs>
     <use xlink:href="#DejaVuSans-63"/>
     <use xlink:href="#DejaVuSans-6f" transform="translate(54.980469 0)"/>
     <use xlink:href="#DejaVuSans-6e" transform="translate(116.162109 0)"/>
     <use xlink:href="#DejaVuSans-6e" transform="translate(179.541016 0)"/>
     <use xlink:href="#DejaVuSans-65" transform="translate(242.919922 0)"/>
     <use xlink:href="#DejaVuSans-63" transform="translate(304.443359 0)"/>
     <use xlink:href="#DejaVuSans-74" transform="translate(359.423828 0)"/>
     <use xlink:href="#DejaVuSans-69" transform="translate(398.632812 0)"/>
     <use xlink:href="#DejaVuSans-6f" transform="translate(426.416016 0)"/>
     <use xlink:href="#DejaVuSans-6e" transform="translate(487.597656 0)"/>
     <use xlink:href="#DejaVuSans-2c" transform="translate(550.976562 0)"/>
     <use xlink:href="#DejaVuSans-20" transform="translate(582.763672 0)"/>
     <use xlink:href="#DejaVuSans-6d" transform="translate(614.550781 0)"/>
     <use xlink:href="#DejaVuSans-65" transform="translate(711.962891 0)"/>
     <use xlink:href="#DejaVuSans-61" transform="translate(773.486328 0)"/>
     <use xlink:href="#DejaVuSans-6e" transform="translate(834.765625 0)"/>
     <use xlink:href="#DejaVuSans-69" transform="translate(898.144531 0)"/>
     <use xlink:href="#DejaVuSans-6e" transform="translate(925.927734 0)"/>
     <use xlink:href="#DejaVuSans-67" transform="translate(989.306641 0)"/>
     <use xlink:href="#DejaVuSans-2c" transform="translate(1052.783203 0)"/>
    </g>
    <!-- agency -->
    <g style="fill: #4d4d4d" transform="translate(229.843969 430.390406) scale(0.102 -0.102)">
     <use xlink:href="#DejaVuSans-61"/>
     <use xlink:href="#DejaVuSans-67" transform="translate(61.279297 0)"/>
     <use xlink:href="#DejaVuSans-65" transform="translate(124.755859 0)"/>
     <use xlink:href="#DejaVuSans-6e" transform="translate(186.279297 0)"/>
     <use xlink:href="#DejaVuSans-63" transform="translate(249.658203 0)"/>
     <use xlink:href="#DejaVuSans-79" transform="translate(304.638672 0)"/>
    </g>
   </g>
   <g id="text_17">
    <!-- Psychodynamic -->
    <g style="fill: #222222" transform="translate(223.34525 210.733187) scale(0.124 -0.124)">
     <use xlink:href="#DejaVuSans-Bold-50"/>
     <use xlink:href="#DejaVuSans-Bold-73" transform="translate(71.541016 0)"/>
     <use xlink:href="#DejaVuSans-Bold-79" transform="translate(131.0625 0)"/>
     <use xlink:href="#DejaVuSans-Bold-63" transform="translate(196.248047 0)"/>
     <use xlink:href="#DejaVuSans-Bold-68" transform="translate(255.525391 0)"/>
     <use xlink:href="#DejaVuSans-Bold-6f" transform="translate(326.716797 0)"/>
     <use xlink:href="#DejaVuSans-Bold-64" transform="translate(395.417969 0)"/>
     <use xlink:href="#DejaVuSans-Bold-79" transform="translate(467 0)"/>
     <use xlink:href="#DejaVuSans-Bold-6e" transform="translate(532.185547 0)"/>
     <use xlink:href="#DejaVuSans-Bold-61" transform="translate(603.376953 0)"/>
     <use xlink:href="#DejaVuSans-Bold-6d" transform="translate(670.857422 0)"/>
     <use xlink:href="#DejaVuSans-Bold-69" transform="translate(775.056641 0)"/>
     <use xlink:href="#DejaVuSans-Bold-63" transform="translate(809.333984 0)"/>
    </g>
   </g>
   <g id="text_18">
    <!-- separation anxiety, -->
    <g style="fill: #4d4d4d" transform="translate(227.860687 236.918719) scale(0.102 -0.102)">
     <defs>
      <path id="DejaVuSans-78" d="M 3513 3500 
L 2247 1797 
L 3578 0 
L 2900 0 
L 1881 1375 
L 863 0 
L 184 0 
L 1544 1831 
L 300 3500 
L 978 3500 
L 1906 2253 
L 2834 3500 
L 3513 3500 
z
" transform="scale(0.015625)"/>
     </defs>
     <use xlink:href="#DejaVuSans-73"/>
     <use xlink:href="#DejaVuSans-65" transform="translate(52.099609 0)"/>
     <use xlink:href="#DejaVuSans-70" transform="translate(113.623047 0)"/>
     <use xlink:href="#DejaVuSans-61" transform="translate(177.099609 0)"/>
     <use xlink:href="#DejaVuSans-72" transform="translate(238.378906 0)"/>
     <use xlink:href="#DejaVuSans-61" transform="translate(279.492188 0)"/>
     <use xlink:href="#DejaVuSans-74" transform="translate(340.771484 0)"/>
     <use xlink:href="#DejaVuSans-69" transform="translate(379.980469 0)"/>
     <use xlink:href="#DejaVuSans-6f" transform="translate(407.763672 0)"/>
     <use xlink:href="#DejaVuSans-6e" transform="translate(468.945312 0)"/>
     <use xlink:href="#DejaVuSans-20" transform="translate(532.324219 0)"/>
     <use xlink:href="#DejaVuSans-61" transform="translate(564.111328 0)"/>
     <use xlink:href="#DejaVuSans-6e" transform="translate(625.390625 0)"/>
     <use xlink:href="#DejaVuSans-78" transform="translate(688.769531 0)"/>
     <use xlink:href="#DejaVuSans-69" transform="translate(747.949219 0)"/>
     <use xlink:href="#DejaVuSans-65" transform="translate(775.732422 0)"/>
     <use xlink:href="#DejaVuSans-74" transform="translate(837.255859 0)"/>
     <use xlink:href="#DejaVuSans-79" transform="translate(876.464844 0)"/>
     <use xlink:href="#DejaVuSans-2c" transform="translate(935.644531 0)"/>
    </g>
    <!-- reassurance seeking -->
    <g style="fill: #4d4d4d" transform="translate(224.619 246.790406) scale(0.102 -0.102)">
     <use xlink:href="#DejaVuSans-72"/>
     <use xlink:href="#DejaVuSans-65" transform="translate(38.863281 0)"/>
     <use xlink:href="#DejaVuSans-61" transform="translate(100.386719 0)"/>
     <use xlink:href="#DejaVuSans-73" transform="translate(161.666016 0)"/>
     <use xlink:href="#DejaVuSans-73" transform="translate(213.765625 0)"/>
     <use xlink:href="#DejaVuSans-75" transform="translate(265.865234 0)"/>
     <use xlink:href="#DejaVuSans-72" transform="translate(329.244141 0)"/>
     <use xlink:href="#DejaVuSans-61" transform="translate(370.357422 0)"/>
     <use xlink:href="#DejaVuSans-6e" transform="translate(431.636719 0)"/>
     <use xlink:href="#DejaVuSans-63" transform="translate(495.015625 0)"/>
     <use xlink:href="#DejaVuSans-65" transform="translate(549.996094 0)"/>
     <use xlink:href="#DejaVuSans-20" transform="translate(611.519531 0)"/>
     <use xlink:href="#DejaVuSans-73" transform="translate(643.306641 0)"/>
     <use xlink:href="#DejaVuSans-65" transform="translate(695.40625 0)"/>
     <use xlink:href="#DejaVuSans-65" transform="translate(756.929688 0)"/>
     <use xlink:href="#DejaVuSans-6b" transform="translate(818.453125 0)"/>
     <use xlink:href="#DejaVuSans-69" transform="translate(876.363281 0)"/>
     <use xlink:href="#DejaVuSans-6e" transform="translate(904.146484 0)"/>
     <use xlink:href="#DejaVuSans-67" transform="translate(967.525391 0)"/>
    </g>
   </g>
   <g id="text_19">
    <!-- Repeatedly -->
    <g style="fill: #222222" transform="translate(528.120703 315.606094) scale(0.15 -0.15)">
     <use xlink:href="#DejaVuSans-Bold-52"/>
     <use xlink:href="#DejaVuSans-Bold-65" transform="translate(77.001953 0)"/>
     <use xlink:href="#DejaVuSans-Bold-70" transform="translate(144.824219 0)"/>
     <use xlink:href="#DejaVuSans-Bold-65" transform="translate(216.40625 0)"/>
     <use xlink:href="#DejaVuSans-Bold-61" transform="translate(284.228516 0)"/>
     <use xlink:href="#DejaVuSans-Bold-74" transform="translate(351.708984 0)"/>
     <use xlink:href="#DejaVuSans-Bold-65" transform="translate(399.511719 0)"/>
     <use xlink:href="#DejaVuSans-Bold-64" transform="translate(467.333984 0)"/>
     <use xlink:href="#DejaVuSans-Bold-6c" transform="translate(538.916016 0)"/>
     <use xlink:href="#DejaVuSans-Bold-79" transform="translate(573.193359 0)"/>
    </g>
    <!-- checking -->
    <g style="fill: #222222" transform="translate(538.415625 330.240469) scale(0.15 -0.15)">
     <use xlink:href="#DejaVuSans-Bold-63"/>
     <use xlink:href="#DejaVuSans-Bold-68" transform="translate(59.277344 0)"/>
     <use xlink:href="#DejaVuSans-Bold-65" transform="translate(130.46875 0)"/>
     <use xlink:href="#DejaVuSans-Bold-63" transform="translate(198.291016 0)"/>
     <use xlink:href="#DejaVuSans-Bold-6b" transform="translate(257.568359 0)"/>
     <use xlink:href="#DejaVuSans-Bold-69" transform="translate(324.072266 0)"/>
     <use xlink:href="#DejaVuSans-Bold-6e" transform="translate(358.349609 0)"/>
     <use xlink:href="#DejaVuSans-Bold-67" transform="translate(429.541016 0)"/>
    </g>
    <!-- your phone -->
    <g style="fill: #222222" transform="translate(528.023438 344.874844) scale(0.15 -0.15)">
     <use xlink:href="#DejaVuSans-Bold-79"/>
     <use xlink:href="#DejaVuSans-Bold-6f" transform="translate(65.185547 0)"/>
     <use xlink:href="#DejaVuSans-Bold-75" transform="translate(133.886719 0)"/>
     <use xlink:href="#DejaVuSans-Bold-72" transform="translate(205.078125 0)"/>
     <use xlink:href="#DejaVuSans-Bold-20" transform="translate(254.394531 0)"/>
     <use xlink:href="#DejaVuSans-Bold-70" transform="translate(289.208984 0)"/>
     <use xlink:href="#DejaVuSans-Bold-68" transform="translate(360.791016 0)"/>
     <use xlink:href="#DejaVuSans-Bold-6f" transform="translate(431.982422 0)"/>
     <use xlink:href="#DejaVuSans-Bold-6e" transform="translate(500.683594 0)"/>
     <use xlink:href="#DejaVuSans-Bold-65" transform="translate(571.875 0)"/>
    </g>
   </g>
   <g id="text_20">
    <!-- one behavior -->
    <g style="fill: #4d4d4d" transform="translate(541.517344 398.897344) scale(0.105 -0.105)">
     <use xlink:href="#DejaVuSans-6f"/>
     <use xlink:href="#DejaVuSans-6e" transform="translate(61.181641 0)"/>
     <use xlink:href="#DejaVuSans-65" transform="translate(124.560547 0)"/>
     <use xlink:href="#DejaVuSans-20" transform="translate(186.083984 0)"/>
     <use xlink:href="#DejaVuSans-62" transform="translate(217.871094 0)"/>
     <use xlink:href="#DejaVuSans-65" transform="translate(281.347656 0)"/>
     <use xlink:href="#DejaVuSans-68" transform="translate(342.871094 0)"/>
     <use xlink:href="#DejaVuSans-61" transform="translate(406.25 0)"/>
     <use xlink:href="#DejaVuSans-76" transform="translate(467.529297 0)"/>
     <use xlink:href="#DejaVuSans-69" transform="translate(526.708984 0)"/>
     <use xlink:href="#DejaVuSans-6f" transform="translate(554.492188 0)"/>
     <use xlink:href="#DejaVuSans-72" transform="translate(615.673828 0)"/>
    </g>
   </g>
   <g id="text_21">
    <!-- No single lens is the whole explanation. Each answers a different question. -->
    <g style="fill: #222222" transform="translate(299.492031 606.896406) scale(0.13 -0.13)">
     <defs>
      <path id="DejaVuSans-Bold-4e" d="M 588 4666 
L 1931 4666 
L 3628 1466 
L 3628 4666 
L 4769 4666 
L 4769 0 
L 3425 0 
L 1728 3200 
L 1728 0 
L 588 0 
L 588 4666 
z
" transform="scale(0.015625)"/>
      <path id="DejaVuSans-Bold-77" d="M 225 3500 
L 1313 3500 
L 1900 1088 
L 2491 3500 
L 3425 3500 
L 4013 1113 
L 4603 3500 
L 5691 3500 
L 4769 0 
L 3547 0 
L 2956 2406 
L 2369 0 
L 1147 0 
L 225 3500 
z
" transform="scale(0.015625)"/>
      <path id="DejaVuSans-Bold-78" d="M 1422 1791 
L 159 3500 
L 1344 3500 
L 2059 2463 
L 2784 3500 
L 3969 3500 
L 2706 1797 
L 4031 0 
L 2847 0 
L 2059 1106 
L 1281 0 
L 97 0 
L 1422 1791 
z
" transform="scale(0.015625)"/>
      <path id="DejaVuSans-Bold-66" d="M 2841 4863 
L 2841 4128 
L 2222 4128 
Q 1984 4128 1890 4042 
Q 1797 3956 1797 3744 
L 1797 3500 
L 2753 3500 
L 2753 2700 
L 1797 2700 
L 1797 0 
L 678 0 
L 678 2700 
L 122 2700 
L 122 3500 
L 678 3500 
L 678 3744 
Q 678 4316 997 4589 
Q 1316 4863 1984 4863 
L 2841 4863 
z
" transform="scale(0.015625)"/>
      <path id="DejaVuSans-Bold-71" d="M 2181 2772 
Q 1825 2772 1636 2509 
Q 1447 2247 1447 1747 
Q 1447 1247 1636 984 
Q 1825 722 2181 722 
Q 2541 722 2730 984 
Q 2919 1247 2919 1747 
Q 2919 2247 2730 2509 
Q 2541 2772 2181 2772 
z
M 2919 506 
Q 2688 197 2409 53 
Q 2131 -91 1766 -91 
Q 1119 -91 703 423 
Q 288 938 288 1747 
Q 288 2556 703 3067 
Q 1119 3578 1766 3578 
Q 2131 3578 2409 3434 
Q 2688 3291 2919 2981 
L 2919 3500 
L 4044 3500 
L 4044 -1331 
L 2919 -1331 
L 2919 506 
z
" transform="scale(0.015625)"/>
     </defs>
     <use xlink:href="#DejaVuSans-Bold-4e"/>
     <use xlink:href="#DejaVuSans-Bold-6f" transform="translate(83.691406 0)"/>
     <use xlink:href="#DejaVuSans-Bold-20" transform="translate(152.392578 0)"/>
     <use xlink:href="#DejaVuSans-Bold-73" transform="translate(187.207031 0)"/>
     <use xlink:href="#DejaVuSans-Bold-69" transform="translate(246.728516 0)"/>
     <use xlink:href="#DejaVuSans-Bold-6e" transform="translate(281.005859 0)"/>
     <use xlink:href="#DejaVuSans-Bold-67" transform="translate(352.197266 0)"/>
     <use xlink:href="#DejaVuSans-Bold-6c" transform="translate(423.779297 0)"/>
     <use xlink:href="#DejaVuSans-Bold-65" transform="translate(458.056641 0)"/>
     <use xlink:href="#DejaVuSans-Bold-20" transform="translate(525.878906 0)"/>
     <use xlink:href="#DejaVuSans-Bold-6c" transform="translate(560.693359 0)"/>
     <use xlink:href="#DejaVuSans-Bold-65" transform="translate(594.970703 0)"/>
     <use xlink:href="#DejaVuSans-Bold-6e" transform="translate(662.792969 0)"/>
     <use xlink:href="#DejaVuSans-Bold-73" transform="translate(733.984375 0)"/>
     <use xlink:href="#DejaVuSans-Bold-20" transform="translate(793.505859 0)"/>
     <use xlink:href="#DejaVuSans-Bold-69" transform="translate(828.320312 0)"/>
     <use xlink:href="#DejaVuSans-Bold-73" transform="translate(862.597656 0)"/>
     <use xlink:href="#DejaVuSans-Bold-20" transform="translate(922.119141 0)"/>
     <use xlink:href="#DejaVuSans-Bold-74" transform="translate(956.933594 0)"/>
     <use xlink:href="#DejaVuSans-Bold-68" transform="translate(1004.736328 0)"/>
     <use xlink:href="#DejaVuSans-Bold-65" transform="translate(1075.927734 0)"/>
     <use xlink:href="#DejaVuSans-Bold-20" transform="translate(1143.75 0)"/>
     <use xlink:href="#DejaVuSans-Bold-77" transform="translate(1178.564453 0)"/>
     <use xlink:href="#DejaVuSans-Bold-68" transform="translate(1270.947266 0)"/>
     <use xlink:href="#DejaVuSans-Bold-6f" transform="translate(1342.138672 0)"/>
     <use xlink:href="#DejaVuSans-Bold-6c" transform="translate(1410.839844 0)"/>
     <use xlink:href="#DejaVuSans-Bold-65" transform="translate(1445.117188 0)"/>
     <use xlink:href="#DejaVuSans-Bold-20" transform="translate(1512.939453 0)"/>
     <use xlink:href="#DejaVuSans-Bold-65" transform="translate(1547.753906 0)"/>
     <use xlink:href="#DejaVuSans-Bold-78" transform="translate(1615.576172 0)"/>
     <use xlink:href="#DejaVuSans-Bold-70" transform="translate(1680.078125 0)"/>
     <use xlink:href="#DejaVuSans-Bold-6c" transform="translate(1751.660156 0)"/>
     <use xlink:href="#DejaVuSans-Bold-61" transform="translate(1785.9375 0)"/>
     <use xlink:href="#DejaVuSans-Bold-6e" transform="translate(1853.417969 0)"/>
     <use xlink:href="#DejaVuSans-Bold-61" transform="translate(1924.609375 0)"/>
     <use xlink:href="#DejaVuSans-Bold-74" transform="translate(1992.089844 0)"/>
     <use xlink:href="#DejaVuSans-Bold-69" transform="translate(2039.892578 0)"/>
     <use xlink:href="#DejaVuSans-Bold-6f" transform="translate(2074.169922 0)"/>
     <use xlink:href="#DejaVuSans-Bold-6e" transform="translate(2142.871094 0)"/>
     <use xlink:href="#DejaVuSans-Bold-2e" transform="translate(2214.0625 0)"/>
     <use xlink:href="#DejaVuSans-Bold-20" transform="translate(2252.050781 0)"/>
     <use xlink:href="#DejaVuSans-Bold-45" transform="translate(2286.865234 0)"/>
     <use xlink:href="#DejaVuSans-Bold-61" transform="translate(2355.175781 0)"/>
     <use xlink:href="#DejaVuSans-Bold-63" transform="translate(2422.65625 0)"/>
     <use xlink:href="#DejaVuSans-Bold-68" transform="translate(2481.933594 0)"/>
     <use xlink:href="#DejaVuSans-Bold-20" transform="translate(2553.125 0)"/>
     <use xlink:href="#DejaVuSans-Bold-61" transform="translate(2587.939453 0)"/>
     <use xlink:href="#DejaVuSans-Bold-6e" transform="translate(2655.419922 0)"/>
     <use xlink:href="#DejaVuSans-Bold-73" transform="translate(2726.611328 0)"/>
     <use xlink:href="#DejaVuSans-Bold-77" transform="translate(2786.132812 0)"/>
     <use xlink:href="#DejaVuSans-Bold-65" transform="translate(2878.515625 0)"/>
     <use xlink:href="#DejaVuSans-Bold-72" transform="translate(2946.337891 0)"/>
     <use xlink:href="#DejaVuSans-Bold-73" transform="translate(2995.654297 0)"/>
     <use xlink:href="#DejaVuSans-Bold-20" transform="translate(3055.175781 0)"/>
     <use xlink:href="#DejaVuSans-Bold-61" transform="translate(3089.990234 0)"/>
     <use xlink:href="#DejaVuSans-Bold-20" transform="translate(3157.470703 0)"/>
     <use xlink:href="#DejaVuSans-Bold-64" transform="translate(3192.285156 0)"/>
     <use xlink:href="#DejaVuSans-Bold-69" transform="translate(3263.867188 0)"/>
     <use xlink:href="#DejaVuSans-Bold-66" transform="translate(3298.144531 0)"/>
     <use xlink:href="#DejaVuSans-Bold-66" transform="translate(3341.650391 0)"/>
     <use xlink:href="#DejaVuSans-Bold-65" transform="translate(3385.15625 0)"/>
     <use xlink:href="#DejaVuSans-Bold-72" transform="translate(3452.978516 0)"/>
     <use xlink:href="#DejaVuSans-Bold-65" transform="translate(3502.294922 0)"/>
     <use xlink:href="#DejaVuSans-Bold-6e" transform="translate(3570.117188 0)"/>
     <use xlink:href="#DejaVuSans-Bold-74" transform="translate(3641.308594 0)"/>
     <use xlink:href="#DejaVuSans-Bold-20" transform="translate(3689.111328 0)"/>
     <use xlink:href="#DejaVuSans-Bold-71" transform="translate(3723.925781 0)"/>
     <use xlink:href="#DejaVuSans-Bold-75" transform="translate(3795.507812 0)"/>
     <use xlink:href="#DejaVuSans-Bold-65" transform="translate(3866.699219 0)"/>
     <use xlink:href="#DejaVuSans-Bold-73" transform="translate(3934.521484 0)"/>
     <use xlink:href="#DejaVuSans-Bold-74" transform="translate(3994.042969 0)"/>
     <use xlink:href="#DejaVuSans-Bold-69" transform="translate(4041.845703 0)"/>
     <use xlink:href="#DejaVuSans-Bold-6f" transform="translate(4076.123047 0)"/>
     <use xlink:href="#DejaVuSans-Bold-6e" transform="translate(4144.824219 0)"/>
     <use xlink:href="#DejaVuSans-Bold-2e" transform="translate(4216.015625 0)"/>
    </g>
   </g>
  </g>
 </g>
 <defs>
  <clipPath id="p676374b810">
   <rect x="0" y="0" width="1152" height="648"/>
  </clipPath>
 </defs>
</svg>
