<svg xmlns="http://www.w3.org/2000/svg" width="1920" height="1080" viewBox="0 0 1920 1080" role="img"><rect width="1920" height="1080" fill="white"/>
<text x="960" y="76" font-family="Arial, sans-serif" font-size="54" font-weight="700" fill="#1F2937" text-anchor="middle" dominant-baseline="middle">Reliability and Validity</text>
<text x="960" y="137" font-family="Arial, sans-serif" font-size="29" font-weight="400" fill="#64748B" text-anchor="middle" dominant-baseline="middle">Consistent measurements can still miss the target.</text>
<text x="500" y="190" font-family="Arial, sans-serif" font-size="32" font-weight="700" fill="#1F2937" text-anchor="middle" dominant-baseline="middle">Reliable and valid</text>
<circle cx="500" cy="405" r="170" fill="none" stroke="#E5E7EB" stroke-width="5"/>
<circle cx="500" cy="405" r="128" fill="none" stroke="#E5E7EB" stroke-width="5"/>
<circle cx="500" cy="405" r="86" fill="none" stroke="#E5E7EB" stroke-width="5"/>
<circle cx="500" cy="405" r="43" fill="none" stroke="#E5E7EB" stroke-width="5"/>
<circle cx="500" cy="405" r="16" fill="#DC2626"/>
<circle cx="501.8" cy="425.1" r="12" fill="#2563EB" stroke="white" stroke-width="3"/>
<circle cx="492.1" cy="400.0" r="12" fill="#2563EB" stroke="white" stroke-width="3"/>
<circle cx="483.5" cy="438.2" r="12" fill="#2563EB" stroke="white" stroke-width="3"/>
<circle cx="475.4" cy="393.0" r="12" fill="#2563EB" stroke="white" stroke-width="3"/>
<circle cx="516.8" cy="401.1" r="12" fill="#2563EB" stroke="white" stroke-width="3"/>
<circle cx="504.9" cy="389.4" r="12" fill="#2563EB" stroke="white" stroke-width="3"/>
<circle cx="478.8" cy="422.8" r="12" fill="#2563EB" stroke="white" stroke-width="3"/>
<circle cx="472.0" cy="409.1" r="12" fill="#2563EB" stroke="white" stroke-width="3"/>
<circle cx="496.6" cy="398.5" r="12" fill="#2563EB" stroke="white" stroke-width="3"/>
<circle cx="478.3" cy="400.1" r="12" fill="#2563EB" stroke="white" stroke-width="3"/>
<circle cx="499.0" cy="408.7" r="12" fill="#2563EB" stroke="white" stroke-width="3"/>
<circle cx="500.1" cy="394.2" r="12" fill="#2563EB" stroke="white" stroke-width="3"/>
<circle cx="472.5" cy="400.0" r="12" fill="#2563EB" stroke="white" stroke-width="3"/>
<circle cx="499.4" cy="400.7" r="12" fill="#2563EB" stroke="white" stroke-width="3"/>
<circle cx="522.7" cy="421.9" r="12" fill="#2563EB" stroke="white" stroke-width="3"/>
<circle cx="500.5" cy="408.9" r="12" fill="#2563EB" stroke="white" stroke-width="3"/>
<circle cx="499.4" cy="396.3" r="12" fill="#2563EB" stroke="white" stroke-width="3"/>
<circle cx="506.2" cy="408.7" r="12" fill="#2563EB" stroke="white" stroke-width="3"/>
<text x="1420" y="190" font-family="Arial, sans-serif" font-size="32" font-weight="700" fill="#1F2937" text-anchor="middle" dominant-baseline="middle">Reliable but not valid</text>
<circle cx="1420" cy="405" r="170" fill="none" stroke="#E5E7EB" stroke-width="5"/>
<circle cx="1420" cy="405" r="128" fill="none" stroke="#E5E7EB" stroke-width="5"/>
<circle cx="1420" cy="405" r="86" fill="none" stroke="#E5E7EB" stroke-width="5"/>
<circle cx="1420" cy="405" r="43" fill="none" stroke="#E5E7EB" stroke-width="5"/>
<circle cx="1420" cy="405" r="16" fill="#DC2626"/>
<circle cx="1499.8" cy="340.6" r="12" fill="#2563EB" stroke="white" stroke-width="3"/>
<circle cx="1496.1" cy="354.0" r="12" fill="#2563EB" stroke="white" stroke-width="3"/>
<circle cx="1504.1" cy="347.5" r="12" fill="#2563EB" stroke="white" stroke-width="3"/>
<circle cx="1489.6" cy="352.7" r="12" fill="#2563EB" stroke="white" stroke-width="3"/>
<circle cx="1488.0" cy="323.9" r="12" fill="#2563EB" stroke="white" stroke-width="3"/>
<circle cx="1502.8" cy="346.6" r="12" fill="#2563EB" stroke="white" stroke-width="3"/>
<circle cx="1491.7" cy="343.2" r="12" fill="#2563EB" stroke="white" stroke-width="3"/>
<circle cx="1498.0" cy="335.7" r="12" fill="#2563EB" stroke="white" stroke-width="3"/>
<circle cx="1479.0" cy="348.5" r="12" fill="#2563EB" stroke="white" stroke-width="3"/>
<circle cx="1490.1" cy="340.9" r="12" fill="#2563EB" stroke="white" stroke-width="3"/>
<circle cx="1483.9" cy="350.2" r="12" fill="#2563EB" stroke="white" stroke-width="3"/>
<circle cx="1476.4" cy="320.5" r="12" fill="#2563EB" stroke="white" stroke-width="3"/>
<circle cx="1492.4" cy="347.6" r="12" fill="#2563EB" stroke="white" stroke-width="3"/>
<circle cx="1523.9" cy="354.7" r="12" fill="#2563EB" stroke="white" stroke-width="3"/>
<circle cx="1469.0" cy="325.7" r="12" fill="#2563EB" stroke="white" stroke-width="3"/>
<circle cx="1514.8" cy="330.4" r="12" fill="#2563EB" stroke="white" stroke-width="3"/>
<circle cx="1505.5" cy="326.1" r="12" fill="#2563EB" stroke="white" stroke-width="3"/>
<circle cx="1481.1" cy="373.0" r="12" fill="#2563EB" stroke="white" stroke-width="3"/>
<text x="500" y="610" font-family="Arial, sans-serif" font-size="32" font-weight="700" fill="#1F2937" text-anchor="middle" dominant-baseline="middle">Unreliable but roughly valid</text>
<circle cx="500" cy="825" r="170" fill="none" stroke="#E5E7EB" stroke-width="5"/>
<circle cx="500" cy="825" r="128" fill="none" stroke="#E5E7EB" stroke-width="5"/>
<circle cx="500" cy="825" r="86" fill="none" stroke="#E5E7EB" stroke-width="5"/>
<circle cx="500" cy="825" r="43" fill="none" stroke="#E5E7EB" stroke-width="5"/>
<circle cx="500" cy="825" r="16" fill="#DC2626"/>
<circle cx="481.5" cy="851.8" r="12" fill="#2563EB" stroke="white" stroke-width="3"/>
<circle cx="558.5" cy="763.6" r="12" fill="#2563EB" stroke="white" stroke-width="3"/>
<circle cx="478.5" cy="833.1" r="12" fill="#2563EB" stroke="white" stroke-width="3"/>
<circle cx="517.7" cy="818.7" r="12" fill="#2563EB" stroke="white" stroke-width="3"/>
<circle cx="494.8" cy="817.6" r="12" fill="#2563EB" stroke="white" stroke-width="3"/>
<circle cx="440.4" cy="812.0" r="12" fill="#2563EB" stroke="white" stroke-width="3"/>
<circle cx="556.5" cy="815.6" r="12" fill="#2563EB" stroke="white" stroke-width="3"/>
<circle cx="485.2" cy="831.4" r="12" fill="#2563EB" stroke="white" stroke-width="3"/>
<circle cx="520.6" cy="823.3" r="12" fill="#2563EB" stroke="white" stroke-width="3"/>
<circle cx="492.6" cy="835.5" r="12" fill="#2563EB" stroke="white" stroke-width="3"/>
<circle cx="413.6" cy="823.0" r="12" fill="#2563EB" stroke="white" stroke-width="3"/>
<circle cx="502.8" cy="817.2" r="12" fill="#2563EB" stroke="white" stroke-width="3"/>
<circle cx="516.8" cy="886.3" r="12" fill="#2563EB" stroke="white" stroke-width="3"/>
<circle cx="475.8" cy="820.0" r="12" fill="#2563EB" stroke="white" stroke-width="3"/>
<circle cx="489.6" cy="827.7" r="12" fill="#2563EB" stroke="white" stroke-width="3"/>
<circle cx="430.3" cy="824.8" r="12" fill="#2563EB" stroke="white" stroke-width="3"/>
<circle cx="507.1" cy="753.2" r="12" fill="#2563EB" stroke="white" stroke-width="3"/>
<circle cx="438.7" cy="813.6" r="12" fill="#2563EB" stroke="white" stroke-width="3"/>
<text x="1420" y="610" font-family="Arial, sans-serif" font-size="32" font-weight="700" fill="#1F2937" text-anchor="middle" dominant-baseline="middle">Neither reliable nor valid</text>
<circle cx="1420" cy="825" r="170" fill="none" stroke="#E5E7EB" stroke-width="5"/>
<circle cx="1420" cy="825" r="128" fill="none" stroke="#E5E7EB" stroke-width="5"/>
<circle cx="1420" cy="825" r="86" fill="none" stroke="#E5E7EB" stroke-width="5"/>
<circle cx="1420" cy="825" r="43" fill="none" stroke="#E5E7EB" stroke-width="5"/>
<circle cx="1420" cy="825" r="16" fill="#DC2626"/>
<circle cx="1448.9" cy="870.8" r="12" fill="#2563EB" stroke="white" stroke-width="3"/>
<circle cx="1402.6" cy="842.1" r="12" fill="#2563EB" stroke="white" stroke-width="3"/>
<circle cx="1468.6" cy="802.9" r="12" fill="#2563EB" stroke="white" stroke-width="3"/>
<circle cx="1509.6" cy="854.3" r="12" fill="#2563EB" stroke="white" stroke-width="3"/>
<circle cx="1523.8" cy="883.7" r="12" fill="#2563EB" stroke="white" stroke-width="3"/>
<circle cx="1371.4" cy="863.6" r="12" fill="#2563EB" stroke="white" stroke-width="3"/>
<circle cx="1444.2" cy="910.7" r="12" fill="#2563EB" stroke="white" stroke-width="3"/>
<circle cx="1397.7" cy="795.1" r="12" fill="#2563EB" stroke="white" stroke-width="3"/>
<circle cx="1414.8" cy="880.7" r="12" fill="#2563EB" stroke="white" stroke-width="3"/>
<circle cx="1444.9" cy="841.3" r="12" fill="#2563EB" stroke="white" stroke-width="3"/>
<circle cx="1485.4" cy="802.9" r="12" fill="#2563EB" stroke="white" stroke-width="3"/>
<circle cx="1386.9" cy="878.2" r="12" fill="#2563EB" stroke="white" stroke-width="3"/>
<circle cx="1420.6" cy="846.1" r="12" fill="#2563EB" stroke="white" stroke-width="3"/>
<circle cx="1430.5" cy="871.8" r="12" fill="#2563EB" stroke="white" stroke-width="3"/>
<circle cx="1525.3" cy="875.5" r="12" fill="#2563EB" stroke="white" stroke-width="3"/>
<circle cx="1446.4" cy="810.1" r="12" fill="#2563EB" stroke="white" stroke-width="3"/>
<circle cx="1522.9" cy="953.6" r="12" fill="#2563EB" stroke="white" stroke-width="3"/>
<circle cx="1434.2" cy="948.2" r="12" fill="#2563EB" stroke="white" stroke-width="3"/>
</svg>