<svg xmlns="http://www.w3.org/2000/svg" width="1920" height="1080" viewBox="0 0 1920 1080" role="img">
  <rect width="1920" height="1080" fill="white"/>
  <text x="960" y="86" font-family="Arial, Helvetica, sans-serif" font-size="56" font-weight="700" fill="#1F2937" text-anchor="middle">Correlation Coefficients in Scatterplots</text>
  <text x="960" y="142" font-family="Arial, Helvetica, sans-serif" font-size="30" fill="#64748B" text-anchor="middle">Direction and strength are properties of the whole cloud of points.</text>
  <rect x="150" y="310" width="500" height="500" rx="32" fill="#FFFFFF" stroke="#E5E7EB" stroke-width="4"/>
<text x="400.0" y="348" font-family="Arial, Helvetica, sans-serif" font-size="32" font-weight="700" fill="#1F2937" text-anchor="middle" dominant-baseline="middle">Positive correlation</text>
<text x="400.0" y="390" font-family="Arial, Helvetica, sans-serif" font-size="31" font-weight="700" fill="#2563EB" text-anchor="middle" dominant-baseline="middle">r = +0.77</text>
<line x1="220" y1="743" x2="600" y2="743" stroke="#475569" stroke-width="4"/>
<line x1="220" y1="743" x2="220" y2="398" stroke="#475569" stroke-width="4"/>
<text x="410.0" y="773" font-family="Arial, Helvetica, sans-serif" font-size="24" font-weight="400" fill="#475569" text-anchor="middle" dominant-baseline="middle">Variable X</text>
<text x="178" y="570.5" font-family="Arial, Helvetica, sans-serif" font-size="24" fill="#475569" text-anchor="middle" transform="rotate(-90 178 570.5)">Variable Y</text>
<line x1="244.62962962962962" y1="668.0773772518475" x2="575.3703703703704" y2="473.64860798711004" stroke="#94A3B8" stroke-width="5"/>
<circle cx="347.5" cy="556.2" r="8" fill="#2563EB" opacity="0.78"/>
<circle cx="424.6" cy="591.4" r="8" fill="#2563EB" opacity="0.78"/>
<circle cx="340.8" cy="603.9" r="8" fill="#2563EB" opacity="0.78"/>
<circle cx="384.1" cy="573.1" r="8" fill="#2563EB" opacity="0.78"/>
<circle cx="431.8" cy="590.6" r="8" fill="#2563EB" opacity="0.78"/>
<circle cx="273.4" cy="619.5" r="8" fill="#2563EB" opacity="0.78"/>
<circle cx="307.7" cy="618.7" r="8" fill="#2563EB" opacity="0.78"/>
<circle cx="409.1" cy="541.5" r="8" fill="#2563EB" opacity="0.78"/>
<circle cx="337.3" cy="626.4" r="8" fill="#2563EB" opacity="0.78"/>
<circle cx="377.6" cy="572.7" r="8" fill="#2563EB" opacity="0.78"/>
<circle cx="395.8" cy="602.5" r="8" fill="#2563EB" opacity="0.78"/>
<circle cx="443.8" cy="564.2" r="8" fill="#2563EB" opacity="0.78"/>
<circle cx="433.2" cy="608.8" r="8" fill="#2563EB" opacity="0.78"/>
<circle cx="343.0" cy="641.9" r="8" fill="#2563EB" opacity="0.78"/>
<circle cx="485.0" cy="477.5" r="8" fill="#2563EB" opacity="0.78"/>
<circle cx="444.9" cy="504.2" r="8" fill="#2563EB" opacity="0.78"/>
<circle cx="360.2" cy="631.6" r="8" fill="#2563EB" opacity="0.78"/>
<circle cx="391.9" cy="565.8" r="8" fill="#2563EB" opacity="0.78"/>
<circle cx="419.2" cy="571.3" r="8" fill="#2563EB" opacity="0.78"/>
<circle cx="364.0" cy="625.1" r="8" fill="#2563EB" opacity="0.78"/>
<circle cx="339.0" cy="644.1" r="8" fill="#2563EB" opacity="0.78"/>
<circle cx="564.9" cy="468.3" r="8" fill="#2563EB" opacity="0.78"/>
<circle cx="342.3" cy="589.5" r="8" fill="#2563EB" opacity="0.78"/>
<circle cx="364.7" cy="615.8" r="8" fill="#2563EB" opacity="0.78"/>
<circle cx="372.7" cy="569.2" r="8" fill="#2563EB" opacity="0.78"/>
<circle cx="287.5" cy="641.8" r="8" fill="#2563EB" opacity="0.78"/>
<circle cx="333.7" cy="586.8" r="8" fill="#2563EB" opacity="0.78"/>
<circle cx="378.2" cy="641.4" r="8" fill="#2563EB" opacity="0.78"/>
<rect x="710" y="310" width="500" height="500" rx="32" fill="#FFFFFF" stroke="#E5E7EB" stroke-width="4"/>
<text x="960.0" y="348" font-family="Arial, Helvetica, sans-serif" font-size="32" font-weight="700" fill="#1F2937" text-anchor="middle" dominant-baseline="middle">Negative correlation</text>
<text x="960.0" y="390" font-family="Arial, Helvetica, sans-serif" font-size="31" font-weight="700" fill="#2563EB" text-anchor="middle" dominant-baseline="middle">r = -0.82</text>
<line x1="780" y1="743" x2="1160" y2="743" stroke="#475569" stroke-width="4"/>
<line x1="780" y1="743" x2="780" y2="398" stroke="#475569" stroke-width="4"/>
<text x="970.0" y="773" font-family="Arial, Helvetica, sans-serif" font-size="24" font-weight="400" fill="#475569" text-anchor="middle" dominant-baseline="middle">Variable X</text>
<text x="738" y="570.5" font-family="Arial, Helvetica, sans-serif" font-size="24" fill="#475569" text-anchor="middle" transform="rotate(-90 738 570.5)">Variable Y</text>
<line x1="804.6296296296297" y1="443.98908835174683" x2="1135.3703703703704" y2="683.916716402957" stroke="#94A3B8" stroke-width="5"/>
<circle cx="869.5" cy="467.2" r="8" fill="#2563EB" opacity="0.78"/>
<circle cx="973.6" cy="675.1" r="8" fill="#2563EB" opacity="0.78"/>
<circle cx="939.6" cy="513.1" r="8" fill="#2563EB" opacity="0.78"/>
<circle cx="1129.7" cy="711.4" r="8" fill="#2563EB" opacity="0.78"/>
<circle cx="949.8" cy="544.8" r="8" fill="#2563EB" opacity="0.78"/>
<circle cx="984.4" cy="590.5" r="8" fill="#2563EB" opacity="0.78"/>
<circle cx="992.0" cy="638.2" r="8" fill="#2563EB" opacity="0.78"/>
<circle cx="986.6" cy="558.8" r="8" fill="#2563EB" opacity="0.78"/>
<circle cx="900.4" cy="477.3" r="8" fill="#2563EB" opacity="0.78"/>
<circle cx="1000.8" cy="581.3" r="8" fill="#2563EB" opacity="0.78"/>
<circle cx="1040.8" cy="657.1" r="8" fill="#2563EB" opacity="0.78"/>
<circle cx="967.5" cy="573.2" r="8" fill="#2563EB" opacity="0.78"/>
<circle cx="1092.0" cy="633.4" r="8" fill="#2563EB" opacity="0.78"/>
<circle cx="933.4" cy="548.8" r="8" fill="#2563EB" opacity="0.78"/>
<circle cx="1077.1" cy="664.8" r="8" fill="#2563EB" opacity="0.78"/>
<circle cx="921.8" cy="527.5" r="8" fill="#2563EB" opacity="0.78"/>
<circle cx="827.8" cy="513.3" r="8" fill="#2563EB" opacity="0.78"/>
<circle cx="1011.1" cy="582.5" r="8" fill="#2563EB" opacity="0.78"/>
<circle cx="951.7" cy="518.1" r="8" fill="#2563EB" opacity="0.78"/>
<circle cx="1075.5" cy="584.2" r="8" fill="#2563EB" opacity="0.78"/>
<circle cx="923.5" cy="524.8" r="8" fill="#2563EB" opacity="0.78"/>
<circle cx="1038.9" cy="629.6" r="8" fill="#2563EB" opacity="0.78"/>
<circle cx="902.2" cy="444.1" r="8" fill="#2563EB" opacity="0.78"/>
<circle cx="1036.8" cy="615.5" r="8" fill="#2563EB" opacity="0.78"/>
<circle cx="854.1" cy="462.7" r="8" fill="#2563EB" opacity="0.78"/>
<circle cx="821.8" cy="453.3" r="8" fill="#2563EB" opacity="0.78"/>
<circle cx="1037.3" cy="521.9" r="8" fill="#2563EB" opacity="0.78"/>
<circle cx="879.3" cy="548.3" r="8" fill="#2563EB" opacity="0.78"/>
<rect x="1270" y="310" width="500" height="500" rx="32" fill="#FFFFFF" stroke="#E5E7EB" stroke-width="4"/>
<text x="1520.0" y="348" font-family="Arial, Helvetica, sans-serif" font-size="32" font-weight="700" fill="#1F2937" text-anchor="middle" dominant-baseline="middle">Near-zero correlation</text>
<text x="1520.0" y="390" font-family="Arial, Helvetica, sans-serif" font-size="31" font-weight="700" fill="#2563EB" text-anchor="middle" dominant-baseline="middle">r = +0.00</text>
<line x1="1340" y1="743" x2="1720" y2="743" stroke="#475569" stroke-width="4"/>
<line x1="1340" y1="743" x2="1340" y2="398" stroke="#475569" stroke-width="4"/>
<text x="1530.0" y="773" font-family="Arial, Helvetica, sans-serif" font-size="24" font-weight="400" fill="#475569" text-anchor="middle" dominant-baseline="middle">Variable X</text>
<text x="1298" y="570.5" font-family="Arial, Helvetica, sans-serif" font-size="24" fill="#475569" text-anchor="middle" transform="rotate(-90 1298 570.5)">Variable Y</text>
<line x1="1364.6296296296296" y1="570.5" x2="1695.3703703703704" y2="570.5" stroke="#94A3B8" stroke-width="5"/>
<circle cx="1438.9" cy="681.1" r="8" fill="#2563EB" opacity="0.78"/>
<circle cx="1415.8" cy="474.8" r="8" fill="#2563EB" opacity="0.78"/>
<circle cx="1503.0" cy="546.6" r="8" fill="#2563EB" opacity="0.78"/>
<circle cx="1502.5" cy="573.1" r="8" fill="#2563EB" opacity="0.78"/>
<circle cx="1519.4" cy="421.0" r="8" fill="#2563EB" opacity="0.78"/>
<circle cx="1672.8" cy="546.8" r="8" fill="#2563EB" opacity="0.78"/>
<circle cx="1615.5" cy="533.8" r="8" fill="#2563EB" opacity="0.78"/>
<circle cx="1446.5" cy="683.1" r="8" fill="#2563EB" opacity="0.78"/>
<circle cx="1439.8" cy="631.9" r="8" fill="#2563EB" opacity="0.78"/>
<circle cx="1545.3" cy="570.5" r="8" fill="#2563EB" opacity="0.78"/>
<circle cx="1550.0" cy="565.3" r="8" fill="#2563EB" opacity="0.78"/>
<circle cx="1518.1" cy="540.3" r="8" fill="#2563EB" opacity="0.78"/>
<circle cx="1536.3" cy="586.5" r="8" fill="#2563EB" opacity="0.78"/>
<circle cx="1545.5" cy="586.9" r="8" fill="#2563EB" opacity="0.78"/>
<circle cx="1572.2" cy="671.8" r="8" fill="#2563EB" opacity="0.78"/>
<circle cx="1439.4" cy="494.5" r="8" fill="#2563EB" opacity="0.78"/>
<circle cx="1482.2" cy="551.0" r="8" fill="#2563EB" opacity="0.78"/>
<circle cx="1593.8" cy="590.0" r="8" fill="#2563EB" opacity="0.78"/>
<circle cx="1548.1" cy="476.4" r="8" fill="#2563EB" opacity="0.78"/>
<circle cx="1479.1" cy="589.2" r="8" fill="#2563EB" opacity="0.78"/>
<circle cx="1460.5" cy="512.2" r="8" fill="#2563EB" opacity="0.78"/>
<circle cx="1598.1" cy="538.8" r="8" fill="#2563EB" opacity="0.78"/>
<circle cx="1512.1" cy="629.5" r="8" fill="#2563EB" opacity="0.78"/>
<circle cx="1625.4" cy="615.9" r="8" fill="#2563EB" opacity="0.78"/>
<circle cx="1544.3" cy="582.5" r="8" fill="#2563EB" opacity="0.78"/>
<circle cx="1536.8" cy="664.7" r="8" fill="#2563EB" opacity="0.78"/>
<circle cx="1629.3" cy="606.5" r="8" fill="#2563EB" opacity="0.78"/>
<circle cx="1569.2" cy="509.1" r="8" fill="#2563EB" opacity="0.78"/><text x="960" y="965" font-family="Arial, Helvetica, sans-serif" font-size="30" font-weight="400" fill="#64748B" text-anchor="middle" dominant-baseline="middle">Correlation describes a statistical tendency across the sample, not a rule for every individual point.</text>
</svg>
