<svg xmlns="http://www.w3.org/2000/svg" width="1920" height="1080" viewBox="0 0 1920 1080" role="img">
  <rect width="1920" height="1080" fill="white"/>
  <text x="960" y="86" font-family="Arial, Helvetica, sans-serif" font-size="56" font-weight="700" fill="#1F2937" text-anchor="middle">The Central Limit Theorem in Action</text>
  <text x="960" y="142" font-family="Arial, Helvetica, sans-serif" font-size="30" fill="#64748B" text-anchor="middle">Simulated data: 10,000 repeated samples of 30 from a skewed population.</text>
  <rect x="160" y="240" width="720" height="660" rx="32" fill="#FFFFFF" stroke="#E5E7EB" stroke-width="4"/>
<text x="520.0" y="282" font-family="Arial, Helvetica, sans-serif" font-size="34" font-weight="700" fill="#1F2937" text-anchor="middle" dominant-baseline="middle">Skewed population</text>
<text x="520.0" y="322" font-family="Arial, Helvetica, sans-serif" font-size="25" font-weight="400" fill="#64748B" text-anchor="middle" dominant-baseline="middle">individual scores</text>
<line x1="180" y1="800" x2="860" y2="800" stroke="#475569" stroke-width="4"/>
<line x1="180" y1="800" x2="180" y2="330" stroke="#475569" stroke-width="4"/>
<rect x="182.0" y="629.6" width="24.3" height="170.4" fill="#2563EB" opacity="0.72"/>
<rect x="210.3" y="434.7" width="24.3" height="365.3" fill="#2563EB" opacity="0.72"/>
<rect x="238.7" y="350.0" width="24.3" height="450.0" fill="#2563EB" opacity="0.72"/>
<rect x="267.0" y="351.9" width="24.3" height="448.1" fill="#2563EB" opacity="0.72"/>
<rect x="295.3" y="375.4" width="24.3" height="424.6" fill="#2563EB" opacity="0.72"/>
<rect x="323.7" y="435.3" width="24.3" height="364.7" fill="#2563EB" opacity="0.72"/>
<rect x="352.0" y="489.7" width="24.3" height="310.3" fill="#2563EB" opacity="0.72"/>
<rect x="380.3" y="536.8" width="24.3" height="263.2" fill="#2563EB" opacity="0.72"/>
<rect x="408.7" y="579.2" width="24.3" height="220.8" fill="#2563EB" opacity="0.72"/>
<rect x="437.0" y="622.0" width="24.3" height="178.0" fill="#2563EB" opacity="0.72"/>
<rect x="465.3" y="656.0" width="24.3" height="144.0" fill="#2563EB" opacity="0.72"/>
<rect x="493.7" y="689.3" width="24.3" height="110.7" fill="#2563EB" opacity="0.72"/>
<rect x="522.0" y="712.8" width="24.3" height="87.2" fill="#2563EB" opacity="0.72"/>
<rect x="550.3" y="733.2" width="24.3" height="66.8" fill="#2563EB" opacity="0.72"/>
<rect x="578.7" y="744.6" width="24.3" height="55.4" fill="#2563EB" opacity="0.72"/>
<rect x="607.0" y="757.5" width="24.3" height="42.5" fill="#2563EB" opacity="0.72"/>
<rect x="635.3" y="768.5" width="24.3" height="31.5" fill="#2563EB" opacity="0.72"/>
<rect x="663.7" y="776.6" width="24.3" height="23.4" fill="#2563EB" opacity="0.72"/>
<rect x="692.0" y="781.3" width="24.3" height="18.7" fill="#2563EB" opacity="0.72"/>
<rect x="720.3" y="787.0" width="24.3" height="13.0" fill="#2563EB" opacity="0.72"/>
<rect x="748.7" y="790.9" width="24.3" height="9.1" fill="#2563EB" opacity="0.72"/>
<rect x="777.0" y="790.8" width="24.3" height="9.2" fill="#2563EB" opacity="0.72"/>
<rect x="805.3" y="794.3" width="24.3" height="5.7" fill="#2563EB" opacity="0.72"/>
<rect x="833.7" y="795.0" width="24.3" height="5.0" fill="#2563EB" opacity="0.72"/>
<text x="520.0" y="846" font-family="Arial, Helvetica, sans-serif" font-size="26" font-weight="400" fill="#475569" text-anchor="middle" dominant-baseline="middle">Score</text>
<text x="132" y="565.0" font-family="Arial, Helvetica, sans-serif" font-size="24" fill="#475569" text-anchor="middle" transform="rotate(-90 132 565.0)">Frequency</text><rect x="1040" y="240" width="720" height="660" rx="32" fill="#FFFFFF" stroke="#E5E7EB" stroke-width="4"/>
<text x="1400.0" y="282" font-family="Arial, Helvetica, sans-serif" font-size="34" font-weight="700" fill="#1F2937" text-anchor="middle" dominant-baseline="middle">Sampling distribution</text>
<text x="1400.0" y="322" font-family="Arial, Helvetica, sans-serif" font-size="25" font-weight="400" fill="#64748B" text-anchor="middle" dominant-baseline="middle">means of repeated samples (n = 30)</text>
<line x1="1060" y1="800" x2="1740" y2="800" stroke="#475569" stroke-width="4"/>
<line x1="1060" y1="800" x2="1060" y2="330" stroke="#475569" stroke-width="4"/>
<rect x="1062.0" y="800.0" width="24.3" height="0.0" fill="#2563EB" opacity="0.72"/>
<rect x="1090.3" y="800.0" width="24.3" height="0.0" fill="#2563EB" opacity="0.72"/>
<rect x="1118.7" y="800.0" width="24.3" height="0.0" fill="#2563EB" opacity="0.72"/>
<rect x="1147.0" y="799.8" width="24.3" height="0.2" fill="#2563EB" opacity="0.72"/>
<rect x="1175.3" y="799.1" width="24.3" height="0.9" fill="#2563EB" opacity="0.72"/>
<rect x="1203.7" y="790.4" width="24.3" height="9.6" fill="#2563EB" opacity="0.72"/>
<rect x="1232.0" y="749.5" width="24.3" height="50.5" fill="#2563EB" opacity="0.72"/>
<rect x="1260.3" y="641.2" width="24.3" height="158.8" fill="#2563EB" opacity="0.72"/>
<rect x="1288.7" y="497.5" width="24.3" height="302.5" fill="#2563EB" opacity="0.72"/>
<rect x="1317.0" y="364.1" width="24.3" height="435.9" fill="#2563EB" opacity="0.72"/>
<rect x="1345.3" y="350.0" width="24.3" height="450.0" fill="#2563EB" opacity="0.72"/>
<rect x="1373.7" y="451.9" width="24.3" height="348.1" fill="#2563EB" opacity="0.72"/>
<rect x="1402.0" y="586.1" width="24.3" height="213.9" fill="#2563EB" opacity="0.72"/>
<rect x="1430.3" y="692.7" width="24.3" height="107.3" fill="#2563EB" opacity="0.72"/>
<rect x="1458.7" y="755.5" width="24.3" height="44.5" fill="#2563EB" opacity="0.72"/>
<rect x="1487.0" y="786.7" width="24.3" height="13.3" fill="#2563EB" opacity="0.72"/>
<rect x="1515.3" y="795.9" width="24.3" height="4.1" fill="#2563EB" opacity="0.72"/>
<rect x="1543.7" y="798.7" width="24.3" height="1.3" fill="#2563EB" opacity="0.72"/>
<rect x="1572.0" y="800.0" width="24.3" height="0.0" fill="#2563EB" opacity="0.72"/>
<rect x="1600.3" y="800.0" width="24.3" height="0.0" fill="#2563EB" opacity="0.72"/>
<rect x="1628.7" y="800.0" width="24.3" height="0.0" fill="#2563EB" opacity="0.72"/>
<rect x="1657.0" y="800.0" width="24.3" height="0.0" fill="#2563EB" opacity="0.72"/>
<rect x="1685.3" y="800.0" width="24.3" height="0.0" fill="#2563EB" opacity="0.72"/>
<rect x="1713.7" y="800.0" width="24.3" height="0.0" fill="#2563EB" opacity="0.72"/>
<text x="1400.0" y="846" font-family="Arial, Helvetica, sans-serif" font-size="26" font-weight="400" fill="#475569" text-anchor="middle" dominant-baseline="middle">Sample mean</text>
<text x="1012" y="565.0" font-family="Arial, Helvetica, sans-serif" font-size="24" fill="#475569" text-anchor="middle" transform="rotate(-90 1012 565.0)">Frequency</text><rect x="390" y="908" width="1140" height="78" rx="22" fill="#F1F5F9" stroke="#E2E8F0" stroke-width="3"/><text x="960" y="947" font-family="Arial, Helvetica, sans-serif" font-size="28" font-weight="400" fill="#334155" text-anchor="middle" dominant-baseline="middle">Repeated sample means become approximately normal even when the original population is skewed.</text>
</svg>
