<?xml version="1.0" encoding="utf-8" standalone="no"?>
<!DOCTYPE svg PUBLIC "-//W3C//DTD SVG 1.1//EN"
  "http://www.w3.org/Graphics/SVG/1.1/DTD/svg11.dtd">
<svg xmlns:xlink="http://www.w3.org/1999/xlink" width="578.560781pt" height="640.940062pt" viewBox="0 0 578.560781 640.940062" xmlns="http://www.w3.org/2000/svg" version="1.1">
 <metadata>
  <rdf:RDF xmlns:dc="http://purl.org/dc/elements/1.1/" xmlns:cc="http://creativecommons.org/ns#" xmlns:rdf="http://www.w3.org/1999/02/22-rdf-syntax-ns#">
   <cc:Work>
    <dc:type rdf:resource="http://purl.org/dc/dcmitype/StillImage"/>
    <dc:date>2026-06-22T20:35:20.822137</dc:date>
    <dc:format>image/svg+xml</dc:format>
    <dc:creator>
     <cc:Agent>
      <dc:title>Matplotlib v3.10.9, https://matplotlib.org/</dc:title>
     </cc:Agent>
    </dc:creator>
   </cc:Work>
  </rdf:RDF>
 </metadata>
 <defs>
  <style type="text/css">*{stroke-linejoin: round; stroke-linecap: butt}</style>
 </defs>
 <g id="figure_1">
  <g id="patch_1">
   <path d="M 0 640.940062 
L 578.560781 640.940062 
L 578.560781 0 
L 0 0 
z
" style="fill: #ffffff"/>
  </g>
  <g id="axes_1">
   <g id="patch_2">
    <path d="M 18.248595 333.749864 
L 263.312186 333.749864 
L 263.312186 88.686273 
L 18.248595 88.686273 
z
" style="fill: #ffffff"/>
   </g>
   <g id="patch_3">
    <path d="M 140.780391 298.740779 
C 163.991685 298.740779 186.25543 289.518834 202.668293 273.105971 
C 219.081157 256.693107 228.303102 234.429362 228.303102 211.218068 
C 228.303102 188.006774 219.081157 165.743029 202.668293 149.330166 
C 186.25543 132.917302 163.991685 123.695357 140.780391 123.695357 
C 117.569096 123.695357 95.305352 132.917302 78.892488 149.330166 
C 62.479625 165.743029 53.25768 188.006774 53.25768 211.218068 
C 53.25768 234.429362 62.479625 256.693107 78.892488 273.105971 
C 95.305352 289.518834 117.569096 298.740779 140.780391 298.740779 
z
" clip-path="url(#p341e89b838)" style="fill: #ffffff; stroke: #e5e7eb; stroke-width: 1.2; stroke-linejoin: miter"/>
   </g>
   <g id="patch_4">
    <path d="M 140.780391 268.983057 
C 156.099845 268.983057 170.793916 262.896574 181.626406 252.064084 
C 192.458896 241.231594 198.54538 226.537522 198.54538 211.218068 
C 198.54538 195.898614 192.458896 181.204543 181.626406 170.372053 
C 170.793916 159.539563 156.099845 153.453079 140.780391 153.453079 
C 125.460936 153.453079 110.766865 159.539563 99.934375 170.372053 
C 89.101885 181.204543 83.015401 195.898614 83.015401 211.218068 
C 83.015401 226.537522 89.101885 241.231594 99.934375 252.064084 
C 110.766865 262.896574 125.460936 268.983057 140.780391 268.983057 
z
" clip-path="url(#p341e89b838)" style="fill: #e8eef7; stroke: #e5e7eb; stroke-width: 1.2; stroke-linejoin: miter"/>
   </g>
   <g id="patch_5">
    <path d="M 140.780391 240.100563 
C 148.440118 240.100563 155.787153 237.057321 161.203398 231.641076 
C 166.619643 226.224831 169.662885 218.877795 169.662885 211.218068 
C 169.662885 203.558341 166.619643 196.211305 161.203398 190.79506 
C 155.787153 185.378815 148.440118 182.335574 140.780391 182.335574 
C 133.120664 182.335574 125.773628 185.378815 120.357383 190.79506 
C 114.941138 196.211305 111.897896 203.558341 111.897896 211.218068 
C 111.897896 218.877795 114.941138 226.224831 120.357383 231.641076 
C 125.773628 237.057321 133.120664 240.100563 140.780391 240.100563 
z
" clip-path="url(#p341e89b838)" style="fill: #ffffff; stroke: #e5e7eb; stroke-width: 1.2; stroke-linejoin: miter"/>
   </g>
   <g id="matplotlib.axis_1"/>
   <g id="matplotlib.axis_2"/>
   <g id="patch_6">
    <path d="M 140.780391 298.740779 
C 163.991685 298.740779 186.25543 289.518834 202.668293 273.105971 
C 219.081157 256.693107 228.303102 234.429362 228.303102 211.218068 
C 228.303102 188.006774 219.081157 165.743029 202.668293 149.330166 
C 186.25543 132.917302 163.991685 123.695357 140.780391 123.695357 
C 117.569096 123.695357 95.305352 132.917302 78.892488 149.330166 
C 62.479625 165.743029 53.25768 188.006774 53.25768 211.218068 
C 53.25768 234.429362 62.479625 256.693107 78.892488 273.105971 
C 95.305352 289.518834 117.569096 298.740779 140.780391 298.740779 
L 140.780391 298.740779 
z
" clip-path="url(#p341e89b838)" style="fill: none; stroke: #6b7280; stroke-width: 1.5; stroke-linejoin: miter"/>
   </g>
   <g id="line2d_1">
    <path d="M 140.780391 211.218068 
" clip-path="url(#p341e89b838)" style="fill: none; stroke: #6b7280; stroke-width: 1.5; stroke-linecap: square"/>
    <defs>
     <path id="ma68b384d53" d="M -4 0 
L 4 0 
M 0 4 
L 0 -4 
" style="stroke: #6b7280"/>
    </defs>
    <g clip-path="url(#p341e89b838)">
     <use xlink:href="#ma68b384d53" x="140.780391" y="211.218068" style="fill: #6b7280; stroke: #6b7280"/>
    </g>
   </g>
   <g id="PathCollection_1">
    <defs>
     <path id="m3a5b583fd9" d="M 0 3.162278 
C 0.838646 3.162278 1.643056 2.82908 2.236068 2.236068 
C 2.82908 1.643056 3.162278 0.838646 3.162278 0 
C 3.162278 -0.838646 2.82908 -1.643056 2.236068 -2.236068 
C 1.643056 -2.82908 0.838646 -3.162278 0 -3.162278 
C -0.838646 -3.162278 -1.643056 -2.82908 -2.236068 -2.236068 
C -2.82908 -1.643056 -3.162278 -0.838646 -3.162278 0 
C -3.162278 0.838646 -2.82908 1.643056 -2.236068 2.236068 
C -1.643056 2.82908 -0.838646 3.162278 0 3.162278 
z
" style="stroke: #ffffff; stroke-opacity: 0.85; stroke-width: 0.5"/>
    </defs>
    <g clip-path="url(#p341e89b838)">
     <use xlink:href="#m3a5b583fd9" x="138.333424" y="209.812587" style="fill: #b3543a; fill-opacity: 0.85; stroke: #ffffff; stroke-opacity: 0.85; stroke-width: 0.5"/>
     <use xlink:href="#m3a5b583fd9" x="140.15727" y="214.521155" style="fill: #b3543a; fill-opacity: 0.85; stroke: #ffffff; stroke-opacity: 0.85; stroke-width: 0.5"/>
     <use xlink:href="#m3a5b583fd9" x="150.703446" y="211.210937" style="fill: #b3543a; fill-opacity: 0.85; stroke: #ffffff; stroke-opacity: 0.85; stroke-width: 0.5"/>
     <use xlink:href="#m3a5b583fd9" x="137.671767" y="202.107258" style="fill: #b3543a; fill-opacity: 0.85; stroke: #ffffff; stroke-opacity: 0.85; stroke-width: 0.5"/>
     <use xlink:href="#m3a5b583fd9" x="141.69214" y="210.015483" style="fill: #b3543a; fill-opacity: 0.85; stroke: #ffffff; stroke-opacity: 0.85; stroke-width: 0.5"/>
     <use xlink:href="#m3a5b583fd9" x="147.206386" y="207.006301" style="fill: #b3543a; fill-opacity: 0.85; stroke: #ffffff; stroke-opacity: 0.85; stroke-width: 0.5"/>
     <use xlink:href="#m3a5b583fd9" x="140.924434" y="210.877838" style="fill: #b3543a; fill-opacity: 0.85; stroke: #ffffff; stroke-opacity: 0.85; stroke-width: 0.5"/>
     <use xlink:href="#m3a5b583fd9" x="137.898382" y="207.009294" style="fill: #b3543a; fill-opacity: 0.85; stroke: #ffffff; stroke-opacity: 0.85; stroke-width: 0.5"/>
     <use xlink:href="#m3a5b583fd9" x="133.103796" y="205.398876" style="fill: #b3543a; fill-opacity: 0.85; stroke: #ffffff; stroke-opacity: 0.85; stroke-width: 0.5"/>
     <use xlink:href="#m3a5b583fd9" x="131.057966" y="213.63746" style="fill: #b3543a; fill-opacity: 0.85; stroke: #ffffff; stroke-opacity: 0.85; stroke-width: 0.5"/>
     <use xlink:href="#m3a5b583fd9" x="133.884812" y="207.381619" style="fill: #b3543a; fill-opacity: 0.85; stroke: #ffffff; stroke-opacity: 0.85; stroke-width: 0.5"/>
     <use xlink:href="#m3a5b583fd9" x="139.039316" y="215.256728" style="fill: #b3543a; fill-opacity: 0.85; stroke: #ffffff; stroke-opacity: 0.85; stroke-width: 0.5"/>
     <use xlink:href="#m3a5b583fd9" x="143.006151" y="203.654214" style="fill: #b3543a; fill-opacity: 0.85; stroke: #ffffff; stroke-opacity: 0.85; stroke-width: 0.5"/>
     <use xlink:href="#m3a5b583fd9" x="145.093905" y="215.365827" style="fill: #b3543a; fill-opacity: 0.85; stroke: #ffffff; stroke-opacity: 0.85; stroke-width: 0.5"/>
     <use xlink:href="#m3a5b583fd9" x="141.840074" y="211.033895" style="fill: #b3543a; fill-opacity: 0.85; stroke: #ffffff; stroke-opacity: 0.85; stroke-width: 0.5"/>
     <use xlink:href="#m3a5b583fd9" x="136.855875" y="218.406673" style="fill: #b3543a; fill-opacity: 0.85; stroke: #ffffff; stroke-opacity: 0.85; stroke-width: 0.5"/>
     <use xlink:href="#m3a5b583fd9" x="138.745198" y="210.053904" style="fill: #b3543a; fill-opacity: 0.85; stroke: #ffffff; stroke-opacity: 0.85; stroke-width: 0.5"/>
     <use xlink:href="#m3a5b583fd9" x="136.45062" y="212.891248" style="fill: #b3543a; fill-opacity: 0.85; stroke: #ffffff; stroke-opacity: 0.85; stroke-width: 0.5"/>
    </g>
   </g>
   <g id="text_1">
    <!-- Reliable AND Valid -->
    <g style="fill: #1a1a2e" transform="translate(71.650859 68.129116) scale(0.13 -0.13)">
     <defs>
      <path id="DejaVuSerif-Bold-52" d="M 3397 2278 
Q 3675 2238 3865 2094 
Q 4056 1950 4197 1678 
L 4878 378 
L 5356 378 
L 5356 0 
L 3822 0 
L 3078 1409 
Q 2863 1847 2711 1967 
Q 2559 2088 2291 2088 
L 2100 2088 
L 2100 378 
L 2700 378 
L 2700 0 
L 300 0 
L 300 378 
L 897 378 
L 897 4288 
L 300 4288 
L 300 4666 
L 2963 4666 
Q 3775 4666 4217 4339 
Q 4659 4013 4659 3413 
Q 4659 2925 4345 2642 
Q 4031 2359 3397 2278 
z
M 2100 2463 
L 2509 2463 
Q 2947 2463 3183 2700 
Q 3419 2938 3419 3378 
Q 3419 3819 3183 4053 
Q 2947 4288 2509 4288 
L 2100 4288 
L 2100 2463 
z
" transform="scale(0.015625)"/>
      <path id="DejaVuSerif-Bold-65" d="M 2566 1875 
Q 2566 2531 2444 2795 
Q 2322 3059 2028 3059 
Q 1744 3059 1620 2800 
Q 1497 2541 1497 1931 
L 1497 1875 
L 2566 1875 
z
M 3781 1503 
L 1497 1503 
L 1497 1478 
Q 1497 834 1690 548 
Q 1884 263 2316 263 
Q 2675 263 2897 453 
Q 3119 644 3181 1006 
L 3700 1006 
Q 3566 441 3166 175 
Q 2766 -91 2047 -91 
Q 1184 -91 723 364 
Q 263 819 263 1663 
Q 263 2488 734 2950 
Q 1206 3413 2047 3413 
Q 2872 3413 3312 2927 
Q 3753 2441 3781 1503 
z
" transform="scale(0.015625)"/>
      <path id="DejaVuSerif-Bold-6c" d="M 1797 378 
L 2272 378 
L 2272 0 
L 219 0 
L 219 378 
L 691 378 
L 691 4488 
L 219 4488 
L 219 4863 
L 1797 4863 
L 1797 378 
z
" transform="scale(0.015625)"/>
      <path id="DejaVuSerif-Bold-69" d="M 588 4263 
Q 588 4516 763 4689 
Q 938 4863 1191 4863 
Q 1438 4863 1611 4689 
Q 1784 4516 1784 4263 
Q 1784 4016 1611 3842 
Q 1438 3669 1191 3669 
Q 938 3669 763 3841 
Q 588 4013 588 4263 
z
M 1797 378 
L 2272 378 
L 2272 0 
L 219 0 
L 219 378 
L 691 378 
L 691 2944 
L 219 2944 
L 219 3322 
L 1797 3322 
L 1797 378 
z
" transform="scale(0.015625)"/>
      <path id="DejaVuSerif-Bold-61" d="M 3525 2041 
L 3525 378 
L 4000 378 
L 4000 0 
L 2419 0 
L 2419 422 
Q 2200 159 1931 34 
Q 1663 -91 1319 -91 
Q 809 -91 536 182 
Q 263 456 263 966 
Q 263 1525 655 1803 
Q 1047 2081 1838 2081 
L 2419 2081 
L 2419 2278 
Q 2419 2681 2228 2873 
Q 2038 3066 1638 3066 
Q 1306 3066 1126 2930 
Q 947 2794 872 2484 
L 519 2484 
L 519 3200 
Q 816 3306 1134 3359 
Q 1453 3413 1806 3413 
Q 2697 3413 3111 3081 
Q 3525 2750 3525 2041 
z
M 2419 1044 
L 2419 1709 
L 2003 1709 
Q 1694 1709 1528 1540 
Q 1363 1372 1363 1056 
Q 1363 741 1483 584 
Q 1603 428 1850 428 
Q 2106 428 2262 597 
Q 2419 766 2419 1044 
z
" transform="scale(0.015625)"/>
      <path id="DejaVuSerif-Bold-62" d="M 622 378 
L 622 4488 
L 147 4488 
L 147 4863 
L 1728 4863 
L 1728 2900 
Q 1869 3159 2106 3286 
Q 2344 3413 2694 3413 
Q 3403 3413 3811 2945 
Q 4219 2478 4219 1663 
Q 4219 847 3811 378 
Q 3403 -91 2694 -91 
Q 2344 -91 2106 36 
Q 1869 163 1728 422 
L 1728 0 
L 147 0 
L 147 378 
L 622 378 
z
M 1728 1497 
Q 1728 916 1876 656 
Q 2025 397 2356 397 
Q 2697 397 2836 672 
Q 2975 947 2975 1663 
Q 2975 2378 2836 2651 
Q 2697 2925 2356 2925 
Q 2025 2925 1876 2665 
Q 1728 2406 1728 1825 
L 1728 1497 
z
" transform="scale(0.015625)"/>
      <path id="DejaVuSerif-Bold-20" transform="scale(0.015625)"/>
      <path id="DejaVuSerif-Bold-41" d="M -50 0 
L -50 378 
L 331 378 
L 2088 4666 
L 2834 4666 
L 4594 378 
L 5038 378 
L 5038 0 
L 2853 0 
L 2853 378 
L 3309 378 
L 2925 1331 
L 1172 1331 
L 781 378 
L 1338 378 
L 1338 0 
L -50 0 
z
M 1325 1709 
L 2772 1709 
L 2053 3494 
L 1325 1709 
z
" transform="scale(0.015625)"/>
      <path id="DejaVuSerif-Bold-4e" d="M 281 0 
L 281 378 
L 878 378 
L 878 4288 
L 281 4288 
L 281 4666 
L 1741 4666 
L 4556 1363 
L 4556 4288 
L 3963 4288 
L 3963 4666 
L 5594 4666 
L 5594 4288 
L 4997 4288 
L 4997 0 
L 4178 0 
L 1319 3372 
L 1319 378 
L 1913 378 
L 1913 0 
L 281 0 
z
" transform="scale(0.015625)"/>
      <path id="DejaVuSerif-Bold-44" d="M 2100 378 
L 2534 378 
Q 3266 378 3605 847 
Q 3944 1316 3944 2338 
Q 3944 3353 3606 3820 
Q 3269 4288 2534 4288 
L 2100 4288 
L 2100 378 
z
M 300 0 
L 300 378 
L 897 378 
L 897 4288 
L 300 4288 
L 300 4666 
L 2694 4666 
Q 3950 4666 4615 4066 
Q 5281 3466 5281 2338 
Q 5281 1203 4614 601 
Q 3947 0 2694 0 
L 300 0 
z
" transform="scale(0.015625)"/>
      <path id="DejaVuSerif-Bold-56" d="M 5056 4666 
L 5056 4288 
L 4666 4288 
L 2906 0 
L 2163 0 
L 403 4288 
L -38 4288 
L -38 4666 
L 2150 4666 
L 2150 4288 
L 1697 4288 
L 2956 1197 
L 4225 4288 
L 3669 4288 
L 3669 4666 
L 5056 4666 
z
" transform="scale(0.015625)"/>
      <path id="DejaVuSerif-Bold-64" d="M 2747 1497 
L 2747 1825 
Q 2747 2406 2597 2665 
Q 2447 2925 2119 2925 
Q 1775 2925 1636 2651 
Q 1497 2378 1497 1663 
Q 1497 947 1637 672 
Q 1778 397 2119 397 
Q 2447 397 2597 656 
Q 2747 916 2747 1497 
z
M 3853 378 
L 4325 378 
L 4325 0 
L 2747 0 
L 2747 422 
Q 2606 163 2367 36 
Q 2128 -91 1778 -91 
Q 1072 -91 667 378 
Q 263 847 263 1663 
Q 263 2481 667 2947 
Q 1072 3413 1778 3413 
Q 2128 3413 2367 3286 
Q 2606 3159 2747 2900 
L 2747 4488 
L 2272 4488 
L 2272 4863 
L 3853 4863 
L 3853 378 
z
" transform="scale(0.015625)"/>
     </defs>
     <use xlink:href="#DejaVuSerif-Bold-52"/>
     <use xlink:href="#DejaVuSerif-Bold-65" transform="translate(83.105469 0)"/>
     <use xlink:href="#DejaVuSerif-Bold-6c" transform="translate(146.728516 0)"/>
     <use xlink:href="#DejaVuSerif-Bold-69" transform="translate(184.716797 0)"/>
     <use xlink:href="#DejaVuSerif-Bold-61" transform="translate(222.705078 0)"/>
     <use xlink:href="#DejaVuSerif-Bold-62" transform="translate(287.5 0)"/>
     <use xlink:href="#DejaVuSerif-Bold-6c" transform="translate(357.421875 0)"/>
     <use xlink:href="#DejaVuSerif-Bold-65" transform="translate(395.410156 0)"/>
     <use xlink:href="#DejaVuSerif-Bold-20" transform="translate(459.033203 0)"/>
     <use xlink:href="#DejaVuSerif-Bold-41" transform="translate(493.847656 0)"/>
     <use xlink:href="#DejaVuSerif-Bold-4e" transform="translate(571.435547 0)"/>
     <use xlink:href="#DejaVuSerif-Bold-44" transform="translate(662.841797 0)"/>
     <use xlink:href="#DejaVuSerif-Bold-20" transform="translate(749.560547 0)"/>
     <use xlink:href="#DejaVuSerif-Bold-56" transform="translate(784.375 0)"/>
     <use xlink:href="#DejaVuSerif-Bold-61" transform="translate(852.837891 0)"/>
     <use xlink:href="#DejaVuSerif-Bold-6c" transform="translate(917.632812 0)"/>
     <use xlink:href="#DejaVuSerif-Bold-69" transform="translate(955.621094 0)"/>
     <use xlink:href="#DejaVuSerif-Bold-64" transform="translate(993.609375 0)"/>
    </g>
    <!-- (tight, on target) -->
    <g style="fill: #1a1a2e" transform="translate(78.714531 82.686273) scale(0.13 -0.13)">
     <defs>
      <path id="DejaVuSerif-Bold-28" d="M 2694 -997 
Q 1641 -606 1122 122 
Q 603 850 603 1931 
Q 603 3013 1115 3731 
Q 1628 4450 2694 4863 
L 2694 4488 
Q 2200 4188 1983 3598 
Q 1766 3009 1766 1931 
Q 1766 856 1983 267 
Q 2200 -322 2694 -622 
L 2694 -997 
z
" transform="scale(0.015625)"/>
      <path id="DejaVuSerif-Bold-74" d="M 634 2944 
L 153 2944 
L 153 3322 
L 634 3322 
L 634 4353 
L 1741 4353 
L 1741 3322 
L 2663 3322 
L 2663 2944 
L 1741 2944 
L 1741 909 
Q 1741 475 1809 369 
Q 1878 263 2059 263 
Q 2259 263 2356 397 
Q 2453 531 2459 813 
L 2925 813 
Q 2897 313 2651 111 
Q 2406 -91 1806 -91 
Q 1122 -91 878 123 
Q 634 338 634 909 
L 634 2944 
z
" transform="scale(0.015625)"/>
      <path id="DejaVuSerif-Bold-67" d="M 3853 2944 
L 3853 44 
Q 3853 -656 3354 -1039 
Q 2856 -1422 1947 -1422 
Q 1616 -1422 1275 -1370 
Q 934 -1319 575 -1216 
L 575 -422 
L 928 -422 
Q 975 -750 1192 -909 
Q 1409 -1069 1813 -1069 
Q 2325 -1069 2536 -823 
Q 2747 -578 2747 44 
L 2747 422 
Q 2606 163 2367 36 
Q 2128 -91 1778 -91 
Q 1072 -91 667 378 
Q 263 847 263 1663 
Q 263 2481 667 2947 
Q 1072 3413 1778 3413 
Q 2128 3413 2367 3286 
Q 2606 3159 2747 2900 
L 2747 3322 
L 4325 3322 
L 4325 2944 
L 3853 2944 
z
M 2747 1825 
Q 2747 2406 2597 2665 
Q 2447 2925 2119 2925 
Q 1775 2925 1636 2651 
Q 1497 2378 1497 1663 
Q 1497 947 1637 672 
Q 1778 397 2119 397 
Q 2447 397 2597 656 
Q 2747 916 2747 1497 
L 2747 1825 
z
" transform="scale(0.015625)"/>
      <path id="DejaVuSerif-Bold-68" d="M 219 0 
L 219 378 
L 691 378 
L 691 4488 
L 197 4488 
L 197 4863 
L 1797 4863 
L 1797 2853 
Q 1997 3150 2253 3281 
Q 2509 3413 2900 3413 
Q 3459 3413 3745 3083 
Q 4031 2753 4031 2113 
L 4031 378 
L 4506 378 
L 4506 0 
L 2522 0 
L 2522 378 
L 2925 378 
L 2925 2144 
Q 2925 2566 2817 2730 
Q 2709 2894 2444 2894 
Q 2109 2894 1953 2648 
Q 1797 2403 1797 1869 
L 1797 378 
L 2203 378 
L 2203 0 
L 219 0 
z
" transform="scale(0.015625)"/>
      <path id="DejaVuSerif-Bold-2c" d="M 84 -616 
Q 409 -353 562 -28 
Q 716 297 716 728 
L 716 997 
L 1606 997 
L 1606 972 
Q 1606 281 1317 -217 
Q 1028 -716 428 -1056 
L 84 -616 
z
" transform="scale(0.015625)"/>
      <path id="DejaVuSerif-Bold-6f" d="M 2138 263 
Q 2488 263 2630 563 
Q 2772 863 2772 1663 
Q 2772 2463 2631 2761 
Q 2491 3059 2138 3059 
Q 1784 3059 1640 2757 
Q 1497 2456 1497 1663 
Q 1497 869 1640 566 
Q 1784 263 2138 263 
z
M 2138 -91 
Q 1259 -91 761 376 
Q 263 844 263 1663 
Q 263 2484 761 2948 
Q 1259 3413 2138 3413 
Q 3019 3413 3516 2948 
Q 4013 2484 4013 1663 
Q 4013 844 3514 376 
Q 3016 -91 2138 -91 
z
" transform="scale(0.015625)"/>
      <path id="DejaVuSerif-Bold-6e" d="M 219 0 
L 219 378 
L 691 378 
L 691 2944 
L 219 2944 
L 219 3322 
L 1797 3322 
L 1797 2853 
Q 1997 3150 2253 3281 
Q 2509 3413 2900 3413 
Q 3459 3413 3745 3083 
Q 4031 2753 4031 2113 
L 4031 378 
L 4506 378 
L 4506 0 
L 2522 0 
L 2522 378 
L 2925 378 
L 2925 2144 
Q 2925 2566 2817 2730 
Q 2709 2894 2444 2894 
Q 2109 2894 1953 2648 
Q 1797 2403 1797 1869 
L 1797 378 
L 2203 378 
L 2203 0 
L 219 0 
z
" transform="scale(0.015625)"/>
      <path id="DejaVuSerif-Bold-72" d="M 3438 3359 
L 3438 2369 
L 3084 2369 
Q 3066 2634 2941 2764 
Q 2816 2894 2578 2894 
Q 2216 2894 2006 2575 
Q 1797 2256 1797 1691 
L 1797 378 
L 2400 378 
L 2400 0 
L 219 0 
L 219 378 
L 691 378 
L 691 2944 
L 184 2944 
L 184 3322 
L 1797 3322 
L 1797 2731 
Q 1959 3078 2226 3245 
Q 2494 3413 2881 3413 
Q 2978 3413 3117 3398 
Q 3256 3384 3438 3359 
z
" transform="scale(0.015625)"/>
      <path id="DejaVuSerif-Bold-29" d="M 325 -997 
L 325 -622 
Q 819 -322 1036 267 
Q 1253 856 1253 1931 
Q 1253 3009 1036 3598 
Q 819 4188 325 4488 
L 325 4863 
Q 1391 4450 1905 3731 
Q 2419 3013 2419 1931 
Q 2419 850 1898 122 
Q 1378 -606 325 -997 
z
" transform="scale(0.015625)"/>
     </defs>
     <use xlink:href="#DejaVuSerif-Bold-28"/>
     <use xlink:href="#DejaVuSerif-Bold-74" transform="translate(47.314453 0)"/>
     <use xlink:href="#DejaVuSerif-Bold-69" transform="translate(93.505859 0)"/>
     <use xlink:href="#DejaVuSerif-Bold-67" transform="translate(131.494141 0)"/>
     <use xlink:href="#DejaVuSerif-Bold-68" transform="translate(201.416016 0)"/>
     <use xlink:href="#DejaVuSerif-Bold-74" transform="translate(274.121094 0)"/>
     <use xlink:href="#DejaVuSerif-Bold-2c" transform="translate(320.3125 0)"/>
     <use xlink:href="#DejaVuSerif-Bold-20" transform="translate(355.126953 0)"/>
     <use xlink:href="#DejaVuSerif-Bold-6f" transform="translate(389.941406 0)"/>
     <use xlink:href="#DejaVuSerif-Bold-6e" transform="translate(456.640625 0)"/>
     <use xlink:href="#DejaVuSerif-Bold-20" transform="translate(529.345703 0)"/>
     <use xlink:href="#DejaVuSerif-Bold-74" transform="translate(564.160156 0)"/>
     <use xlink:href="#DejaVuSerif-Bold-61" transform="translate(610.351562 0)"/>
     <use xlink:href="#DejaVuSerif-Bold-72" transform="translate(675.146484 0)"/>
     <use xlink:href="#DejaVuSerif-Bold-67" transform="translate(727.832031 0)"/>
     <use xlink:href="#DejaVuSerif-Bold-65" transform="translate(797.753906 0)"/>
     <use xlink:href="#DejaVuSerif-Bold-74" transform="translate(861.376953 0)"/>
     <use xlink:href="#DejaVuSerif-Bold-29" transform="translate(907.568359 0)"/>
    </g>
   </g>
  </g>
  <g id="axes_2">
   <g id="patch_7">
    <path d="M 315.248595 333.749864 
L 560.312186 333.749864 
L 560.312186 88.686273 
L 315.248595 88.686273 
z
" style="fill: #ffffff"/>
   </g>
   <g id="patch_8">
    <path d="M 437.780391 298.740779 
C 460.991685 298.740779 483.25543 289.518834 499.668293 273.105971 
C 516.081157 256.693107 525.303102 234.429362 525.303102 211.218068 
C 525.303102 188.006774 516.081157 165.743029 499.668293 149.330166 
C 483.25543 132.917302 460.991685 123.695357 437.780391 123.695357 
C 414.569096 123.695357 392.305352 132.917302 375.892488 149.330166 
C 359.479625 165.743029 350.25768 188.006774 350.25768 211.218068 
C 350.25768 234.429362 359.479625 256.693107 375.892488 273.105971 
C 392.305352 289.518834 414.569096 298.740779 437.780391 298.740779 
z
" clip-path="url(#pd16cdba624)" style="fill: #ffffff; stroke: #e5e7eb; stroke-width: 1.2; stroke-linejoin: miter"/>
   </g>
   <g id="patch_9">
    <path d="M 437.780391 268.983057 
C 453.099845 268.983057 467.793916 262.896574 478.626406 252.064084 
C 489.458896 241.231594 495.54538 226.537522 495.54538 211.218068 
C 495.54538 195.898614 489.458896 181.204543 478.626406 170.372053 
C 467.793916 159.539563 453.099845 153.453079 437.780391 153.453079 
C 422.460936 153.453079 407.766865 159.539563 396.934375 170.372053 
C 386.101885 181.204543 380.015401 195.898614 380.015401 211.218068 
C 380.015401 226.537522 386.101885 241.231594 396.934375 252.064084 
C 407.766865 262.896574 422.460936 268.983057 437.780391 268.983057 
z
" clip-path="url(#pd16cdba624)" style="fill: #e8eef7; stroke: #e5e7eb; stroke-width: 1.2; stroke-linejoin: miter"/>
   </g>
   <g id="patch_10">
    <path d="M 437.780391 240.100563 
C 445.440118 240.100563 452.787153 237.057321 458.203398 231.641076 
C 463.619643 226.224831 466.662885 218.877795 466.662885 211.218068 
C 466.662885 203.558341 463.619643 196.211305 458.203398 190.79506 
C 452.787153 185.378815 445.440118 182.335574 437.780391 182.335574 
C 430.120664 182.335574 422.773628 185.378815 417.357383 190.79506 
C 411.941138 196.211305 408.897896 203.558341 408.897896 211.218068 
C 408.897896 218.877795 411.941138 226.224831 417.357383 231.641076 
C 422.773628 237.057321 430.120664 240.100563 437.780391 240.100563 
z
" clip-path="url(#pd16cdba624)" style="fill: #ffffff; stroke: #e5e7eb; stroke-width: 1.2; stroke-linejoin: miter"/>
   </g>
   <g id="matplotlib.axis_3"/>
   <g id="matplotlib.axis_4"/>
   <g id="patch_11">
    <path d="M 437.780391 298.740779 
C 460.991685 298.740779 483.25543 289.518834 499.668293 273.105971 
C 516.081157 256.693107 525.303102 234.429362 525.303102 211.218068 
C 525.303102 188.006774 516.081157 165.743029 499.668293 149.330166 
C 483.25543 132.917302 460.991685 123.695357 437.780391 123.695357 
C 414.569096 123.695357 392.305352 132.917302 375.892488 149.330166 
C 359.479625 165.743029 350.25768 188.006774 350.25768 211.218068 
C 350.25768 234.429362 359.479625 256.693107 375.892488 273.105971 
C 392.305352 289.518834 414.569096 298.740779 437.780391 298.740779 
L 437.780391 298.740779 
z
" clip-path="url(#pd16cdba624)" style="fill: none; stroke: #6b7280; stroke-width: 1.5; stroke-linejoin: miter"/>
   </g>
   <g id="line2d_2">
    <path d="M 437.780391 211.218068 
" clip-path="url(#pd16cdba624)" style="fill: none; stroke: #6b7280; stroke-width: 1.5; stroke-linecap: square"/>
    <g clip-path="url(#pd16cdba624)">
     <use xlink:href="#ma68b384d53" x="437.780391" y="211.218068" style="fill: #6b7280; stroke: #6b7280"/>
    </g>
   </g>
   <g id="PathCollection_2">
    <g clip-path="url(#pd16cdba624)">
     <use xlink:href="#m3a5b583fd9" x="479.894522" y="164.894756" style="fill: #b3543a; fill-opacity: 0.85; stroke: #ffffff; stroke-opacity: 0.85; stroke-width: 0.5"/>
     <use xlink:href="#m3a5b583fd9" x="485.995827" y="167.443902" style="fill: #b3543a; fill-opacity: 0.85; stroke: #ffffff; stroke-opacity: 0.85; stroke-width: 0.5"/>
     <use xlink:href="#m3a5b583fd9" x="478.603575" y="169.816137" style="fill: #b3543a; fill-opacity: 0.85; stroke: #ffffff; stroke-opacity: 0.85; stroke-width: 0.5"/>
     <use xlink:href="#m3a5b583fd9" x="484.660235" y="166.915502" style="fill: #b3543a; fill-opacity: 0.85; stroke: #ffffff; stroke-opacity: 0.85; stroke-width: 0.5"/>
     <use xlink:href="#m3a5b583fd9" x="483.947575" y="166.379449" style="fill: #b3543a; fill-opacity: 0.85; stroke: #ffffff; stroke-opacity: 0.85; stroke-width: 0.5"/>
     <use xlink:href="#m3a5b583fd9" x="481.732811" y="159.881888" style="fill: #b3543a; fill-opacity: 0.85; stroke: #ffffff; stroke-opacity: 0.85; stroke-width: 0.5"/>
     <use xlink:href="#m3a5b583fd9" x="486.751504" y="164.610832" style="fill: #b3543a; fill-opacity: 0.85; stroke: #ffffff; stroke-opacity: 0.85; stroke-width: 0.5"/>
     <use xlink:href="#m3a5b583fd9" x="484.404531" y="168.864855" style="fill: #b3543a; fill-opacity: 0.85; stroke: #ffffff; stroke-opacity: 0.85; stroke-width: 0.5"/>
     <use xlink:href="#m3a5b583fd9" x="484.2048" y="162.145204" style="fill: #b3543a; fill-opacity: 0.85; stroke: #ffffff; stroke-opacity: 0.85; stroke-width: 0.5"/>
     <use xlink:href="#m3a5b583fd9" x="484.82095" y="157.120451" style="fill: #b3543a; fill-opacity: 0.85; stroke: #ffffff; stroke-opacity: 0.85; stroke-width: 0.5"/>
     <use xlink:href="#m3a5b583fd9" x="476.911221" y="176.036092" style="fill: #b3543a; fill-opacity: 0.85; stroke: #ffffff; stroke-opacity: 0.85; stroke-width: 0.5"/>
     <use xlink:href="#m3a5b583fd9" x="484.596908" y="167.70133" style="fill: #b3543a; fill-opacity: 0.85; stroke: #ffffff; stroke-opacity: 0.85; stroke-width: 0.5"/>
     <use xlink:href="#m3a5b583fd9" x="487.479835" y="165.694423" style="fill: #b3543a; fill-opacity: 0.85; stroke: #ffffff; stroke-opacity: 0.85; stroke-width: 0.5"/>
     <use xlink:href="#m3a5b583fd9" x="466.459384" y="169.120831" style="fill: #b3543a; fill-opacity: 0.85; stroke: #ffffff; stroke-opacity: 0.85; stroke-width: 0.5"/>
     <use xlink:href="#m3a5b583fd9" x="494.44978" y="147.929501" style="fill: #b3543a; fill-opacity: 0.85; stroke: #ffffff; stroke-opacity: 0.85; stroke-width: 0.5"/>
     <use xlink:href="#m3a5b583fd9" x="486.135132" y="168.419109" style="fill: #b3543a; fill-opacity: 0.85; stroke: #ffffff; stroke-opacity: 0.85; stroke-width: 0.5"/>
     <use xlink:href="#m3a5b583fd9" x="487.888533" y="170.031319" style="fill: #b3543a; fill-opacity: 0.85; stroke: #ffffff; stroke-opacity: 0.85; stroke-width: 0.5"/>
     <use xlink:href="#m3a5b583fd9" x="474.025798" y="167.0259" style="fill: #b3543a; fill-opacity: 0.85; stroke: #ffffff; stroke-opacity: 0.85; stroke-width: 0.5"/>
    </g>
   </g>
   <g id="text_2">
    <!-- Reliable, NOT Valid -->
    <g style="fill: #1a1a2e" transform="translate(366.568828 68.129116) scale(0.13 -0.13)">
     <defs>
      <path id="DejaVuSerif-Bold-4f" d="M 2784 288 
Q 3381 288 3672 791 
Q 3963 1294 3963 2328 
Q 3963 3366 3672 3869 
Q 3381 4372 2784 4372 
Q 2191 4372 1898 3864 
Q 1606 3356 1606 2328 
Q 1606 1303 1898 795 
Q 2191 288 2784 288 
z
M 2784 -91 
Q 1606 -91 937 553 
Q 269 1197 269 2328 
Q 269 3459 939 4104 
Q 1609 4750 2784 4750 
Q 3963 4750 4631 4106 
Q 5300 3463 5300 2328 
Q 5300 1197 4629 553 
Q 3959 -91 2784 -91 
z
" transform="scale(0.015625)"/>
      <path id="DejaVuSerif-Bold-54" d="M 1159 0 
L 1159 378 
L 1778 378 
L 1778 4238 
L 500 4238 
L 500 3500 
L 72 3500 
L 72 4666 
L 4697 4666 
L 4697 3500 
L 4275 3500 
L 4275 4238 
L 2988 4238 
L 2988 378 
L 3609 378 
L 3609 0 
L 1159 0 
z
" transform="scale(0.015625)"/>
     </defs>
     <use xlink:href="#DejaVuSerif-Bold-52"/>
     <use xlink:href="#DejaVuSerif-Bold-65" transform="translate(83.105469 0)"/>
     <use xlink:href="#DejaVuSerif-Bold-6c" transform="translate(146.728516 0)"/>
     <use xlink:href="#DejaVuSerif-Bold-69" transform="translate(184.716797 0)"/>
     <use xlink:href="#DejaVuSerif-Bold-61" transform="translate(222.705078 0)"/>
     <use xlink:href="#DejaVuSerif-Bold-62" transform="translate(287.5 0)"/>
     <use xlink:href="#DejaVuSerif-Bold-6c" transform="translate(357.421875 0)"/>
     <use xlink:href="#DejaVuSerif-Bold-65" transform="translate(395.410156 0)"/>
     <use xlink:href="#DejaVuSerif-Bold-2c" transform="translate(459.033203 0)"/>
     <use xlink:href="#DejaVuSerif-Bold-20" transform="translate(493.847656 0)"/>
     <use xlink:href="#DejaVuSerif-Bold-4e" transform="translate(528.662109 0)"/>
     <use xlink:href="#DejaVuSerif-Bold-4f" transform="translate(620.068359 0)"/>
     <use xlink:href="#DejaVuSerif-Bold-54" transform="translate(707.177734 0)"/>
     <use xlink:href="#DejaVuSerif-Bold-20" transform="translate(781.591797 0)"/>
     <use xlink:href="#DejaVuSerif-Bold-56" transform="translate(816.40625 0)"/>
     <use xlink:href="#DejaVuSerif-Bold-61" transform="translate(884.869141 0)"/>
     <use xlink:href="#DejaVuSerif-Bold-6c" transform="translate(949.664062 0)"/>
     <use xlink:href="#DejaVuSerif-Bold-69" transform="translate(987.652344 0)"/>
     <use xlink:href="#DejaVuSerif-Bold-64" transform="translate(1025.640625 0)"/>
    </g>
    <!-- (tight, off target) -->
    <g style="fill: #1a1a2e" transform="translate(374.848203 82.686273) scale(0.13 -0.13)">
     <defs>
      <path id="DejaVuSerif-Bold-66" d="M 3097 4031 
L 2747 4031 
Q 2722 4275 2605 4394 
Q 2488 4513 2272 4513 
Q 2022 4513 1909 4333 
Q 1797 4153 1797 3750 
L 1797 3322 
L 2631 3322 
L 2631 2944 
L 1797 2944 
L 1797 378 
L 2438 378 
L 2438 0 
L 219 0 
L 219 378 
L 691 378 
L 691 2944 
L 197 2944 
L 197 3322 
L 691 3322 
L 691 3738 
Q 691 4291 1044 4577 
Q 1397 4863 2081 4863 
Q 2347 4863 2600 4833 
Q 2853 4803 3097 4744 
L 3097 4031 
z
" transform="scale(0.015625)"/>
     </defs>
     <use xlink:href="#DejaVuSerif-Bold-28"/>
     <use xlink:href="#DejaVuSerif-Bold-74" transform="translate(47.314453 0)"/>
     <use xlink:href="#DejaVuSerif-Bold-69" transform="translate(93.505859 0)"/>
     <use xlink:href="#DejaVuSerif-Bold-67" transform="translate(131.494141 0)"/>
     <use xlink:href="#DejaVuSerif-Bold-68" transform="translate(201.416016 0)"/>
     <use xlink:href="#DejaVuSerif-Bold-74" transform="translate(274.121094 0)"/>
     <use xlink:href="#DejaVuSerif-Bold-2c" transform="translate(320.3125 0)"/>
     <use xlink:href="#DejaVuSerif-Bold-20" transform="translate(355.126953 0)"/>
     <use xlink:href="#DejaVuSerif-Bold-6f" transform="translate(389.941406 0)"/>
     <use xlink:href="#DejaVuSerif-Bold-66" transform="translate(456.640625 0)"/>
     <use xlink:href="#DejaVuSerif-Bold-66" transform="translate(499.658203 0)"/>
     <use xlink:href="#DejaVuSerif-Bold-20" transform="translate(542.675781 0)"/>
     <use xlink:href="#DejaVuSerif-Bold-74" transform="translate(577.490234 0)"/>
     <use xlink:href="#DejaVuSerif-Bold-61" transform="translate(623.681641 0)"/>
     <use xlink:href="#DejaVuSerif-Bold-72" transform="translate(688.476562 0)"/>
     <use xlink:href="#DejaVuSerif-Bold-67" transform="translate(741.162109 0)"/>
     <use xlink:href="#DejaVuSerif-Bold-65" transform="translate(811.083984 0)"/>
     <use xlink:href="#DejaVuSerif-Bold-74" transform="translate(874.707031 0)"/>
     <use xlink:href="#DejaVuSerif-Bold-29" transform="translate(920.898438 0)"/>
    </g>
   </g>
  </g>
  <g id="axes_3">
   <g id="patch_12">
    <path d="M 18.248595 610.992 
L 263.312186 610.992 
L 263.312186 365.928409 
L 18.248595 365.928409 
z
" style="fill: #ffffff"/>
   </g>
   <g id="patch_13">
    <path d="M 140.780391 575.982916 
C 163.991685 575.982916 186.25543 566.760971 202.668293 550.348107 
C 219.081157 533.935243 228.303102 511.671499 228.303102 488.460205 
C 228.303102 465.24891 219.081157 442.985166 202.668293 426.572302 
C 186.25543 410.159438 163.991685 400.937494 140.780391 400.937494 
C 117.569096 400.937494 95.305352 410.159438 78.892488 426.572302 
C 62.479625 442.985166 53.25768 465.24891 53.25768 488.460205 
C 53.25768 511.671499 62.479625 533.935243 78.892488 550.348107 
C 95.305352 566.760971 117.569096 575.982916 140.780391 575.982916 
z
" clip-path="url(#p494836ebff)" style="fill: #ffffff; stroke: #e5e7eb; stroke-width: 1.2; stroke-linejoin: miter"/>
   </g>
   <g id="patch_14">
    <path d="M 140.780391 546.225194 
C 156.099845 546.225194 170.793916 540.13871 181.626406 529.30622 
C 192.458896 518.47373 198.54538 503.779659 198.54538 488.460205 
C 198.54538 473.14075 192.458896 458.446679 181.626406 447.614189 
C 170.793916 436.781699 156.099845 430.695215 140.780391 430.695215 
C 125.460936 430.695215 110.766865 436.781699 99.934375 447.614189 
C 89.101885 458.446679 83.015401 473.14075 83.015401 488.460205 
C 83.015401 503.779659 89.101885 518.47373 99.934375 529.30622 
C 110.766865 540.13871 125.460936 546.225194 140.780391 546.225194 
z
" clip-path="url(#p494836ebff)" style="fill: #e8eef7; stroke: #e5e7eb; stroke-width: 1.2; stroke-linejoin: miter"/>
   </g>
   <g id="patch_15">
    <path d="M 140.780391 517.342699 
C 148.440118 517.342699 155.787153 514.299457 161.203398 508.883212 
C 166.619643 503.466967 169.662885 496.119932 169.662885 488.460205 
C 169.662885 480.800477 166.619643 473.453442 161.203398 468.037197 
C 155.787153 462.620952 148.440118 459.57771 140.780391 459.57771 
C 133.120664 459.57771 125.773628 462.620952 120.357383 468.037197 
C 114.941138 473.453442 111.897896 480.800477 111.897896 488.460205 
C 111.897896 496.119932 114.941138 503.466967 120.357383 508.883212 
C 125.773628 514.299457 133.120664 517.342699 140.780391 517.342699 
z
" clip-path="url(#p494836ebff)" style="fill: #ffffff; stroke: #e5e7eb; stroke-width: 1.2; stroke-linejoin: miter"/>
   </g>
   <g id="matplotlib.axis_5"/>
   <g id="matplotlib.axis_6"/>
   <g id="patch_16">
    <path d="M 140.780391 575.982916 
C 163.991685 575.982916 186.25543 566.760971 202.668293 550.348107 
C 219.081157 533.935243 228.303102 511.671499 228.303102 488.460205 
C 228.303102 465.24891 219.081157 442.985166 202.668293 426.572302 
C 186.25543 410.159438 163.991685 400.937494 140.780391 400.937494 
C 117.569096 400.937494 95.305352 410.159438 78.892488 426.572302 
C 62.479625 442.985166 53.25768 465.24891 53.25768 488.460205 
C 53.25768 511.671499 62.479625 533.935243 78.892488 550.348107 
C 95.305352 566.760971 117.569096 575.982916 140.780391 575.982916 
L 140.780391 575.982916 
z
" clip-path="url(#p494836ebff)" style="fill: none; stroke: #6b7280; stroke-width: 1.5; stroke-linejoin: miter"/>
   </g>
   <g id="line2d_3">
    <path d="M 140.780391 488.460205 
" clip-path="url(#p494836ebff)" style="fill: none; stroke: #6b7280; stroke-width: 1.5; stroke-linecap: square"/>
    <g clip-path="url(#p494836ebff)">
     <use xlink:href="#ma68b384d53" x="140.780391" y="488.460205" style="fill: #6b7280; stroke: #6b7280"/>
    </g>
   </g>
   <g id="PathCollection_3">
    <g clip-path="url(#p494836ebff)">
     <use xlink:href="#m3a5b583fd9" x="115.853992" y="496.697667" style="fill: #b3543a; fill-opacity: 0.85; stroke: #ffffff; stroke-opacity: 0.85; stroke-width: 0.5"/>
     <use xlink:href="#m3a5b583fd9" x="121.429184" y="560.344634" style="fill: #b3543a; fill-opacity: 0.85; stroke: #ffffff; stroke-opacity: 0.85; stroke-width: 0.5"/>
     <use xlink:href="#m3a5b583fd9" x="128.759986" y="442.724755" style="fill: #b3543a; fill-opacity: 0.85; stroke: #ffffff; stroke-opacity: 0.85; stroke-width: 0.5"/>
     <use xlink:href="#m3a5b583fd9" x="87.900367" y="492.063291" style="fill: #b3543a; fill-opacity: 0.85; stroke: #ffffff; stroke-opacity: 0.85; stroke-width: 0.5"/>
     <use xlink:href="#m3a5b583fd9" x="185.400161" y="524.002111" style="fill: #b3543a; fill-opacity: 0.85; stroke: #ffffff; stroke-opacity: 0.85; stroke-width: 0.5"/>
     <use xlink:href="#m3a5b583fd9" x="148.651544" y="494.463908" style="fill: #b3543a; fill-opacity: 0.85; stroke: #ffffff; stroke-opacity: 0.85; stroke-width: 0.5"/>
     <use xlink:href="#m3a5b583fd9" x="191.180046" y="437.688479" style="fill: #b3543a; fill-opacity: 0.85; stroke: #ffffff; stroke-opacity: 0.85; stroke-width: 0.5"/>
     <use xlink:href="#m3a5b583fd9" x="143.804957" y="477.474015" style="fill: #b3543a; fill-opacity: 0.85; stroke: #ffffff; stroke-opacity: 0.85; stroke-width: 0.5"/>
     <use xlink:href="#m3a5b583fd9" x="187.508402" y="472.799659" style="fill: #b3543a; fill-opacity: 0.85; stroke: #ffffff; stroke-opacity: 0.85; stroke-width: 0.5"/>
     <use xlink:href="#m3a5b583fd9" x="108.805001" y="475.988084" style="fill: #b3543a; fill-opacity: 0.85; stroke: #ffffff; stroke-opacity: 0.85; stroke-width: 0.5"/>
     <use xlink:href="#m3a5b583fd9" x="170.349379" y="482.84345" style="fill: #b3543a; fill-opacity: 0.85; stroke: #ffffff; stroke-opacity: 0.85; stroke-width: 0.5"/>
     <use xlink:href="#m3a5b583fd9" x="133.336142" y="486.390128" style="fill: #b3543a; fill-opacity: 0.85; stroke: #ffffff; stroke-opacity: 0.85; stroke-width: 0.5"/>
     <use xlink:href="#m3a5b583fd9" x="118.865831" y="518.284378" style="fill: #b3543a; fill-opacity: 0.85; stroke: #ffffff; stroke-opacity: 0.85; stroke-width: 0.5"/>
     <use xlink:href="#m3a5b583fd9" x="138.808973" y="477.564008" style="fill: #b3543a; fill-opacity: 0.85; stroke: #ffffff; stroke-opacity: 0.85; stroke-width: 0.5"/>
     <use xlink:href="#m3a5b583fd9" x="124.750428" y="520.543666" style="fill: #b3543a; fill-opacity: 0.85; stroke: #ffffff; stroke-opacity: 0.85; stroke-width: 0.5"/>
     <use xlink:href="#m3a5b583fd9" x="60.741186" y="539.865402" style="fill: #b3543a; fill-opacity: 0.85; stroke: #ffffff; stroke-opacity: 0.85; stroke-width: 0.5"/>
     <use xlink:href="#m3a5b583fd9" x="199.990755" y="479.470088" style="fill: #b3543a; fill-opacity: 0.85; stroke: #ffffff; stroke-opacity: 0.85; stroke-width: 0.5"/>
     <use xlink:href="#m3a5b583fd9" x="112.664586" y="499.358534" style="fill: #b3543a; fill-opacity: 0.85; stroke: #ffffff; stroke-opacity: 0.85; stroke-width: 0.5"/>
    </g>
   </g>
   <g id="text_3">
    <!-- NOT Reliable, valid on average -->
    <g style="fill: #1a1a2e" transform="translate(28.213594 345.186409) scale(0.13 -0.13)">
     <defs>
      <path id="DejaVuSerif-Bold-76" d="M 1428 0 
L 250 2944 
L -116 2944 
L -116 3322 
L 1791 3322 
L 1791 2944 
L 1388 2944 
L 2228 844 
L 3066 2944 
L 2631 2944 
L 2631 3322 
L 3878 3322 
L 3878 2944 
L 3494 2944 
L 2316 0 
L 1428 0 
z
" transform="scale(0.015625)"/>
     </defs>
     <use xlink:href="#DejaVuSerif-Bold-4e"/>
     <use xlink:href="#DejaVuSerif-Bold-4f" transform="translate(91.40625 0)"/>
     <use xlink:href="#DejaVuSerif-Bold-54" transform="translate(178.515625 0)"/>
     <use xlink:href="#DejaVuSerif-Bold-20" transform="translate(252.929688 0)"/>
     <use xlink:href="#DejaVuSerif-Bold-52" transform="translate(287.744141 0)"/>
     <use xlink:href="#DejaVuSerif-Bold-65" transform="translate(370.849609 0)"/>
     <use xlink:href="#DejaVuSerif-Bold-6c" transform="translate(434.472656 0)"/>
     <use xlink:href="#DejaVuSerif-Bold-69" transform="translate(472.460938 0)"/>
     <use xlink:href="#DejaVuSerif-Bold-61" transform="translate(510.449219 0)"/>
     <use xlink:href="#DejaVuSerif-Bold-62" transform="translate(575.244141 0)"/>
     <use xlink:href="#DejaVuSerif-Bold-6c" transform="translate(645.166016 0)"/>
     <use xlink:href="#DejaVuSerif-Bold-65" transform="translate(683.154297 0)"/>
     <use xlink:href="#DejaVuSerif-Bold-2c" transform="translate(746.777344 0)"/>
     <use xlink:href="#DejaVuSerif-Bold-20" transform="translate(781.591797 0)"/>
     <use xlink:href="#DejaVuSerif-Bold-76" transform="translate(816.40625 0)"/>
     <use xlink:href="#DejaVuSerif-Bold-61" transform="translate(874.511719 0)"/>
     <use xlink:href="#DejaVuSerif-Bold-6c" transform="translate(939.306641 0)"/>
     <use xlink:href="#DejaVuSerif-Bold-69" transform="translate(977.294922 0)"/>
     <use xlink:href="#DejaVuSerif-Bold-64" transform="translate(1015.283203 0)"/>
     <use xlink:href="#DejaVuSerif-Bold-20" transform="translate(1085.205078 0)"/>
     <use xlink:href="#DejaVuSerif-Bold-6f" transform="translate(1120.019531 0)"/>
     <use xlink:href="#DejaVuSerif-Bold-6e" transform="translate(1186.71875 0)"/>
     <use xlink:href="#DejaVuSerif-Bold-20" transform="translate(1259.423828 0)"/>
     <use xlink:href="#DejaVuSerif-Bold-61" transform="translate(1294.238281 0)"/>
     <use xlink:href="#DejaVuSerif-Bold-76" transform="translate(1359.033203 0)"/>
     <use xlink:href="#DejaVuSerif-Bold-65" transform="translate(1417.138672 0)"/>
     <use xlink:href="#DejaVuSerif-Bold-72" transform="translate(1480.761719 0)"/>
     <use xlink:href="#DejaVuSerif-Bold-61" transform="translate(1533.447266 0)"/>
     <use xlink:href="#DejaVuSerif-Bold-67" transform="translate(1598.242188 0)"/>
     <use xlink:href="#DejaVuSerif-Bold-65" transform="translate(1668.164062 0)"/>
    </g>
    <!-- (scattered, centered) -->
    <g style="fill: #1a1a2e" transform="translate(63.967656 359.928409) scale(0.13 -0.13)">
     <defs>
      <path id="DejaVuSerif-Bold-73" d="M 300 97 
L 300 1025 
L 653 1025 
Q 697 653 931 458 
Q 1166 263 1569 263 
Q 1906 263 2086 380 
Q 2266 497 2266 716 
Q 2266 916 2152 1025 
Q 2038 1134 1709 1216 
L 1253 1331 
Q 738 1459 506 1698 
Q 275 1938 275 2344 
Q 275 2884 650 3148 
Q 1025 3413 1806 3413 
Q 2100 3413 2433 3364 
Q 2766 3316 3169 3213 
L 3169 2375 
L 2816 2375 
Q 2788 2716 2573 2887 
Q 2359 3059 1959 3059 
Q 1622 3059 1448 2951 
Q 1275 2844 1275 2638 
Q 1275 2469 1375 2372 
Q 1475 2275 1734 2209 
L 2188 2094 
Q 2841 1928 3091 1684 
Q 3341 1441 3341 1006 
Q 3341 444 2939 176 
Q 2538 -91 1691 -91 
Q 1381 -91 1034 -44 
Q 688 3 300 97 
z
" transform="scale(0.015625)"/>
      <path id="DejaVuSerif-Bold-63" d="M 3609 1038 
Q 3491 469 3123 189 
Q 2756 -91 2125 -91 
Q 1238 -91 750 368 
Q 263 828 263 1663 
Q 263 2488 744 2950 
Q 1225 3413 2081 3413 
Q 2428 3413 2781 3347 
Q 3134 3281 3500 3150 
L 3500 2228 
L 3150 2228 
Q 3100 2650 2903 2854 
Q 2706 3059 2350 3059 
Q 1888 3059 1692 2746 
Q 1497 2434 1497 1663 
Q 1497 909 1687 586 
Q 1878 263 2309 263 
Q 2644 263 2845 463 
Q 3047 663 3091 1038 
L 3609 1038 
z
" transform="scale(0.015625)"/>
     </defs>
     <use xlink:href="#DejaVuSerif-Bold-28"/>
     <use xlink:href="#DejaVuSerif-Bold-73" transform="translate(47.314453 0)"/>
     <use xlink:href="#DejaVuSerif-Bold-63" transform="translate(103.613281 0)"/>
     <use xlink:href="#DejaVuSerif-Bold-61" transform="translate(164.501953 0)"/>
     <use xlink:href="#DejaVuSerif-Bold-74" transform="translate(229.296875 0)"/>
     <use xlink:href="#DejaVuSerif-Bold-74" transform="translate(275.488281 0)"/>
     <use xlink:href="#DejaVuSerif-Bold-65" transform="translate(321.679688 0)"/>
     <use xlink:href="#DejaVuSerif-Bold-72" transform="translate(385.302734 0)"/>
     <use xlink:href="#DejaVuSerif-Bold-65" transform="translate(437.988281 0)"/>
     <use xlink:href="#DejaVuSerif-Bold-64" transform="translate(501.611328 0)"/>
     <use xlink:href="#DejaVuSerif-Bold-2c" transform="translate(571.533203 0)"/>
     <use xlink:href="#DejaVuSerif-Bold-20" transform="translate(606.347656 0)"/>
     <use xlink:href="#DejaVuSerif-Bold-63" transform="translate(641.162109 0)"/>
     <use xlink:href="#DejaVuSerif-Bold-65" transform="translate(702.050781 0)"/>
     <use xlink:href="#DejaVuSerif-Bold-6e" transform="translate(765.673828 0)"/>
     <use xlink:href="#DejaVuSerif-Bold-74" transform="translate(838.378906 0)"/>
     <use xlink:href="#DejaVuSerif-Bold-65" transform="translate(884.570312 0)"/>
     <use xlink:href="#DejaVuSerif-Bold-72" transform="translate(948.193359 0)"/>
     <use xlink:href="#DejaVuSerif-Bold-65" transform="translate(1000.878906 0)"/>
     <use xlink:href="#DejaVuSerif-Bold-64" transform="translate(1064.501953 0)"/>
     <use xlink:href="#DejaVuSerif-Bold-29" transform="translate(1134.423828 0)"/>
    </g>
   </g>
  </g>
  <g id="axes_4">
   <g id="patch_17">
    <path d="M 315.248595 610.992 
L 560.312186 610.992 
L 560.312186 365.928409 
L 315.248595 365.928409 
z
" style="fill: #ffffff"/>
   </g>
   <g id="patch_18">
    <path d="M 437.780391 575.982916 
C 460.991685 575.982916 483.25543 566.760971 499.668293 550.348107 
C 516.081157 533.935243 525.303102 511.671499 525.303102 488.460205 
C 525.303102 465.24891 516.081157 442.985166 499.668293 426.572302 
C 483.25543 410.159438 460.991685 400.937494 437.780391 400.937494 
C 414.569096 400.937494 392.305352 410.159438 375.892488 426.572302 
C 359.479625 442.985166 350.25768 465.24891 350.25768 488.460205 
C 350.25768 511.671499 359.479625 533.935243 375.892488 550.348107 
C 392.305352 566.760971 414.569096 575.982916 437.780391 575.982916 
z
" clip-path="url(#pa19f2f667e)" style="fill: #ffffff; stroke: #e5e7eb; stroke-width: 1.2; stroke-linejoin: miter"/>
   </g>
   <g id="patch_19">
    <path d="M 437.780391 546.225194 
C 453.099845 546.225194 467.793916 540.13871 478.626406 529.30622 
C 489.458896 518.47373 495.54538 503.779659 495.54538 488.460205 
C 495.54538 473.14075 489.458896 458.446679 478.626406 447.614189 
C 467.793916 436.781699 453.099845 430.695215 437.780391 430.695215 
C 422.460936 430.695215 407.766865 436.781699 396.934375 447.614189 
C 386.101885 458.446679 380.015401 473.14075 380.015401 488.460205 
C 380.015401 503.779659 386.101885 518.47373 396.934375 529.30622 
C 407.766865 540.13871 422.460936 546.225194 437.780391 546.225194 
z
" clip-path="url(#pa19f2f667e)" style="fill: #e8eef7; stroke: #e5e7eb; stroke-width: 1.2; stroke-linejoin: miter"/>
   </g>
   <g id="patch_20">
    <path d="M 437.780391 517.342699 
C 445.440118 517.342699 452.787153 514.299457 458.203398 508.883212 
C 463.619643 503.466967 466.662885 496.119932 466.662885 488.460205 
C 466.662885 480.800477 463.619643 473.453442 458.203398 468.037197 
C 452.787153 462.620952 445.440118 459.57771 437.780391 459.57771 
C 430.120664 459.57771 422.773628 462.620952 417.357383 468.037197 
C 411.941138 473.453442 408.897896 480.800477 408.897896 488.460205 
C 408.897896 496.119932 411.941138 503.466967 417.357383 508.883212 
C 422.773628 514.299457 430.120664 517.342699 437.780391 517.342699 
z
" clip-path="url(#pa19f2f667e)" style="fill: #ffffff; stroke: #e5e7eb; stroke-width: 1.2; stroke-linejoin: miter"/>
   </g>
   <g id="matplotlib.axis_7"/>
   <g id="matplotlib.axis_8"/>
   <g id="patch_21">
    <path d="M 437.780391 575.982916 
C 460.991685 575.982916 483.25543 566.760971 499.668293 550.348107 
C 516.081157 533.935243 525.303102 511.671499 525.303102 488.460205 
C 525.303102 465.24891 516.081157 442.985166 499.668293 426.572302 
C 483.25543 410.159438 460.991685 400.937494 437.780391 400.937494 
C 414.569096 400.937494 392.305352 410.159438 375.892488 426.572302 
C 359.479625 442.985166 350.25768 465.24891 350.25768 488.460205 
C 350.25768 511.671499 359.479625 533.935243 375.892488 550.348107 
C 392.305352 566.760971 414.569096 575.982916 437.780391 575.982916 
L 437.780391 575.982916 
z
" clip-path="url(#pa19f2f667e)" style="fill: none; stroke: #6b7280; stroke-width: 1.5; stroke-linejoin: miter"/>
   </g>
   <g id="line2d_4">
    <path d="M 437.780391 488.460205 
" clip-path="url(#pa19f2f667e)" style="fill: none; stroke: #6b7280; stroke-width: 1.5; stroke-linecap: square"/>
    <g clip-path="url(#pa19f2f667e)">
     <use xlink:href="#ma68b384d53" x="437.780391" y="488.460205" style="fill: #6b7280; stroke: #6b7280"/>
    </g>
   </g>
   <g id="PathCollection_4">
    <g clip-path="url(#pa19f2f667e)">
     <use xlink:href="#m3a5b583fd9" x="510.686215" y="455.200357" style="fill: #b3543a; fill-opacity: 0.85; stroke: #ffffff; stroke-opacity: 0.85; stroke-width: 0.5"/>
     <use xlink:href="#m3a5b583fd9" x="477.491424" y="450.313571" style="fill: #b3543a; fill-opacity: 0.85; stroke: #ffffff; stroke-opacity: 0.85; stroke-width: 0.5"/>
     <use xlink:href="#m3a5b583fd9" x="501.703035" y="452.569632" style="fill: #b3543a; fill-opacity: 0.85; stroke: #ffffff; stroke-opacity: 0.85; stroke-width: 0.5"/>
     <use xlink:href="#m3a5b583fd9" x="478.034756" y="464.67959" style="fill: #b3543a; fill-opacity: 0.85; stroke: #ffffff; stroke-opacity: 0.85; stroke-width: 0.5"/>
     <use xlink:href="#m3a5b583fd9" x="463.57977" y="501.784793" style="fill: #b3543a; fill-opacity: 0.85; stroke: #ffffff; stroke-opacity: 0.85; stroke-width: 0.5"/>
     <use xlink:href="#m3a5b583fd9" x="485.114559" y="432.560931" style="fill: #b3543a; fill-opacity: 0.85; stroke: #ffffff; stroke-opacity: 0.85; stroke-width: 0.5"/>
     <use xlink:href="#m3a5b583fd9" x="510.431774" y="453.413867" style="fill: #b3543a; fill-opacity: 0.85; stroke: #ffffff; stroke-opacity: 0.85; stroke-width: 0.5"/>
     <use xlink:href="#m3a5b583fd9" x="555.9524" y="446.160628" style="fill: #b3543a; fill-opacity: 0.85; stroke: #ffffff; stroke-opacity: 0.85; stroke-width: 0.5"/>
     <use xlink:href="#m3a5b583fd9" x="480.889304" y="414.261247" style="fill: #b3543a; fill-opacity: 0.85; stroke: #ffffff; stroke-opacity: 0.85; stroke-width: 0.5"/>
     <use xlink:href="#m3a5b583fd9" x="479.504707" y="448.19031" style="fill: #b3543a; fill-opacity: 0.85; stroke: #ffffff; stroke-opacity: 0.85; stroke-width: 0.5"/>
     <use xlink:href="#m3a5b583fd9" x="490.228115" y="495.58962" style="fill: #b3543a; fill-opacity: 0.85; stroke: #ffffff; stroke-opacity: 0.85; stroke-width: 0.5"/>
     <use xlink:href="#m3a5b583fd9" x="482.387609" y="446.595014" style="fill: #b3543a; fill-opacity: 0.85; stroke: #ffffff; stroke-opacity: 0.85; stroke-width: 0.5"/>
     <use xlink:href="#m3a5b583fd9" x="486.558561" y="454.912192" style="fill: #b3543a; fill-opacity: 0.85; stroke: #ffffff; stroke-opacity: 0.85; stroke-width: 0.5"/>
     <use xlink:href="#m3a5b583fd9" x="539.421244" y="455.133605" style="fill: #b3543a; fill-opacity: 0.85; stroke: #ffffff; stroke-opacity: 0.85; stroke-width: 0.5"/>
     <use xlink:href="#m3a5b583fd9" x="536.691603" y="357.351115" style="fill: #b3543a; fill-opacity: 0.85; stroke: #ffffff; stroke-opacity: 0.85; stroke-width: 0.5"/>
     <use xlink:href="#m3a5b583fd9" x="466.001573" y="459.972596" style="fill: #b3543a; fill-opacity: 0.85; stroke: #ffffff; stroke-opacity: 0.85; stroke-width: 0.5"/>
     <use xlink:href="#m3a5b583fd9" x="562.877783" y="444.477759" style="fill: #b3543a; fill-opacity: 0.85; stroke: #ffffff; stroke-opacity: 0.85; stroke-width: 0.5"/>
     <use xlink:href="#m3a5b583fd9" x="441.012031" y="414.048263" style="fill: #b3543a; fill-opacity: 0.85; stroke: #ffffff; stroke-opacity: 0.85; stroke-width: 0.5"/>
    </g>
   </g>
   <g id="text_4">
    <!-- NOT Reliable, NOT Valid -->
    <g style="fill: #1a1a2e" transform="translate(347.865078 345.371253) scale(0.13 -0.13)">
     <use xlink:href="#DejaVuSerif-Bold-4e"/>
     <use xlink:href="#DejaVuSerif-Bold-4f" transform="translate(91.40625 0)"/>
     <use xlink:href="#DejaVuSerif-Bold-54" transform="translate(178.515625 0)"/>
     <use xlink:href="#DejaVuSerif-Bold-20" transform="translate(252.929688 0)"/>
     <use xlink:href="#DejaVuSerif-Bold-52" transform="translate(287.744141 0)"/>
     <use xlink:href="#DejaVuSerif-Bold-65" transform="translate(370.849609 0)"/>
     <use xlink:href="#DejaVuSerif-Bold-6c" transform="translate(434.472656 0)"/>
     <use xlink:href="#DejaVuSerif-Bold-69" transform="translate(472.460938 0)"/>
     <use xlink:href="#DejaVuSerif-Bold-61" transform="translate(510.449219 0)"/>
     <use xlink:href="#DejaVuSerif-Bold-62" transform="translate(575.244141 0)"/>
     <use xlink:href="#DejaVuSerif-Bold-6c" transform="translate(645.166016 0)"/>
     <use xlink:href="#DejaVuSerif-Bold-65" transform="translate(683.154297 0)"/>
     <use xlink:href="#DejaVuSerif-Bold-2c" transform="translate(746.777344 0)"/>
     <use xlink:href="#DejaVuSerif-Bold-20" transform="translate(781.591797 0)"/>
     <use xlink:href="#DejaVuSerif-Bold-4e" transform="translate(816.40625 0)"/>
     <use xlink:href="#DejaVuSerif-Bold-4f" transform="translate(907.8125 0)"/>
     <use xlink:href="#DejaVuSerif-Bold-54" transform="translate(994.921875 0)"/>
     <use xlink:href="#DejaVuSerif-Bold-20" transform="translate(1069.335938 0)"/>
     <use xlink:href="#DejaVuSerif-Bold-56" transform="translate(1104.150391 0)"/>
     <use xlink:href="#DejaVuSerif-Bold-61" transform="translate(1172.613281 0)"/>
     <use xlink:href="#DejaVuSerif-Bold-6c" transform="translate(1237.408203 0)"/>
     <use xlink:href="#DejaVuSerif-Bold-69" transform="translate(1275.396484 0)"/>
     <use xlink:href="#DejaVuSerif-Bold-64" transform="translate(1313.384766 0)"/>
    </g>
    <!-- (scattered, off target) -->
    <g style="fill: #1a1a2e" transform="translate(358.517969 359.928409) scale(0.13 -0.13)">
     <use xlink:href="#DejaVuSerif-Bold-28"/>
     <use xlink:href="#DejaVuSerif-Bold-73" transform="translate(47.314453 0)"/>
     <use xlink:href="#DejaVuSerif-Bold-63" transform="translate(103.613281 0)"/>
     <use xlink:href="#DejaVuSerif-Bold-61" transform="translate(164.501953 0)"/>
     <use xlink:href="#DejaVuSerif-Bold-74" transform="translate(229.296875 0)"/>
     <use xlink:href="#DejaVuSerif-Bold-74" transform="translate(275.488281 0)"/>
     <use xlink:href="#DejaVuSerif-Bold-65" transform="translate(321.679688 0)"/>
     <use xlink:href="#DejaVuSerif-Bold-72" transform="translate(385.302734 0)"/>
     <use xlink:href="#DejaVuSerif-Bold-65" transform="translate(437.988281 0)"/>
     <use xlink:href="#DejaVuSerif-Bold-64" transform="translate(501.611328 0)"/>
     <use xlink:href="#DejaVuSerif-Bold-2c" transform="translate(571.533203 0)"/>
     <use xlink:href="#DejaVuSerif-Bold-20" transform="translate(606.347656 0)"/>
     <use xlink:href="#DejaVuSerif-Bold-6f" transform="translate(641.162109 0)"/>
     <use xlink:href="#DejaVuSerif-Bold-66" transform="translate(707.861328 0)"/>
     <use xlink:href="#DejaVuSerif-Bold-66" transform="translate(750.878906 0)"/>
     <use xlink:href="#DejaVuSerif-Bold-20" transform="translate(793.896484 0)"/>
     <use xlink:href="#DejaVuSerif-Bold-74" transform="translate(828.710938 0)"/>
     <use xlink:href="#DejaVuSerif-Bold-61" transform="translate(874.902344 0)"/>
     <use xlink:href="#DejaVuSerif-Bold-72" transform="translate(939.697266 0)"/>
     <use xlink:href="#DejaVuSerif-Bold-67" transform="translate(992.382812 0)"/>
     <use xlink:href="#DejaVuSerif-Bold-65" transform="translate(1062.304688 0)"/>
     <use xlink:href="#DejaVuSerif-Bold-74" transform="translate(1125.927734 0)"/>
     <use xlink:href="#DejaVuSerif-Bold-29" transform="translate(1172.119141 0)"/>
    </g>
   </g>
  </g>
  <g id="clean_title">
   <text x="289.280391" y="20" text-anchor="middle" font-family="DejaVu Sans, Arial" font-size="14" font-weight="700" fill="#1a1a1a">Reliability and Validity Are Independent</text>
  </g>
  <g id="text_6">
   <!-- Each red dot is one measurement of the same thing, taken repeatedly. The bullseye is the true value. -->
   <g style="fill: #6b7280" transform="translate(7.2 631.296) scale(0.11 -0.11)">
    <defs>
     <path id="DejaVuSerif-Italic-45" d="M -97 0 
L -34 331 
L 559 331 
L 1338 4331 
L 744 4331 
L 809 4666 
L 4566 4666 
L 4366 3628 
L 3981 3628 
L 4106 4281 
L 1963 4281 
L 1659 2719 
L 3188 2719 
L 3300 3303 
L 3684 3303 
L 3384 1753 
L 3000 1753 
L 3113 2338 
L 1584 2338 
L 1206 384 
L 3400 384 
L 3525 1038 
L 3909 1038 
L 3709 0 
L -97 0 
z
" transform="scale(0.015625)"/>
     <path id="DejaVuSerif-Italic-61" d="M 2325 519 
Q 1909 -91 1238 -91 
Q 688 -91 409 281 
Q 216 544 216 919 
Q 216 1078 250 1256 
Q 463 2359 1231 2928 
Q 1884 3413 2675 3413 
Q 3206 3413 3388 3322 
L 2806 331 
L 3300 331 
L 3238 0 
L 2225 0 
L 2325 519 
z
M 822 938 
Q 822 269 1469 269 
Q 1863 269 2130 583 
Q 2397 897 2516 1497 
L 2806 3003 
L 2806 3003 
Q 2806 3094 2556 3094 
Q 1956 3094 1491 2625 
Q 1028 2153 863 1297 
Q 822 1097 822 938 
z
" transform="scale(0.015625)"/>
     <path id="DejaVuSerif-Italic-63" d="M 3163 997 
Q 2938 466 2536 187 
Q 2134 -91 1584 -91 
Q 859 -91 513 388 
Q 272 722 272 1203 
Q 272 1419 319 1663 
Q 475 2459 1008 2936 
Q 1541 3413 2266 3413 
Q 2581 3413 2879 3339 
Q 3178 3266 3463 3116 
L 3300 2266 
L 2966 2266 
Q 2966 2309 2966 2347 
Q 2966 2722 2803 2903 
Q 2622 3103 2213 3103 
Q 1747 3103 1439 2742 
Q 1131 2381 991 1663 
Q 928 1334 928 1078 
Q 928 778 1016 581 
Q 1181 219 1650 219 
Q 2022 219 2281 412 
Q 2541 606 2700 997 
L 3163 997 
z
" transform="scale(0.015625)"/>
     <path id="DejaVuSerif-Italic-68" d="M 309 0 
L 1191 4531 
L 641 4531 
L 703 4863 
L 1828 4863 
L 1416 2731 
Q 1641 3069 1928 3241 
Q 2216 3413 2553 3413 
Q 3103 3413 3300 3097 
Q 3422 2906 3422 2588 
Q 3422 2378 3369 2113 
L 3022 331 
L 3534 331 
L 3472 0 
L 2381 0 
L 2756 1931 
Q 2819 2253 2819 2469 
Q 2819 2659 2769 2763 
Q 2666 2988 2284 2988 
Q 1884 2988 1617 2697 
Q 1350 2406 1244 1850 
L 884 0 
L 309 0 
z
" transform="scale(0.015625)"/>
     <path id="DejaVuSerif-Italic-20" transform="scale(0.015625)"/>
     <path id="DejaVuSerif-Italic-72" d="M 3375 3328 
L 3213 2497 
L 2881 2497 
Q 2891 2559 2891 2613 
Q 2891 2775 2816 2866 
Q 2719 2988 2484 2988 
Q 2059 2988 1775 2694 
Q 1491 2400 1384 1850 
L 1025 0 
L 450 0 
L 1031 2994 
L 481 2994 
L 544 3322 
L 1669 3322 
L 1556 2731 
Q 1791 3078 2089 3245 
Q 2388 3413 2769 3413 
Q 2909 3413 3059 3391 
Q 3209 3369 3375 3328 
z
" transform="scale(0.015625)"/>
     <path id="DejaVuSerif-Italic-65" d="M 938 1275 
Q 925 1156 925 1050 
Q 925 756 1031 563 
Q 1216 219 1709 219 
Q 2072 219 2250 328 
Q 2569 525 2644 778 
L 3066 778 
Q 2941 381 2475 103 
Q 2150 -91 1506 -91 
Q 863 -91 516 388 
Q 272 722 272 1206 
Q 272 1419 319 1659 
Q 472 2450 1000 2931 
Q 1528 3413 2278 3413 
Q 3500 3413 3500 2547 
Q 3500 1913 2859 1603 
Q 2206 1288 938 1275 
z
M 2541 1975 
Q 2891 2181 2891 2569 
Q 2891 3103 2181 3103 
Q 1763 3103 1472 2784 
Q 1181 2466 1003 1606 
Q 2006 1653 2541 1975 
z
" transform="scale(0.015625)"/>
     <path id="DejaVuSerif-Italic-64" d="M 3841 4863 
L 2897 0 
L 2322 0 
L 2422 519 
Q 2191 206 1902 57 
Q 1613 -91 1228 -91 
Q 616 -91 322 394 
Q 125 716 125 1166 
Q 125 1397 178 1663 
Q 331 2444 812 2928 
Q 1294 3413 1909 3413 
Q 2294 3413 2525 3264 
Q 2756 3116 2866 2803 
L 3200 4531 
L 2656 4531 
L 2722 4863 
L 3841 4863 
z
M 2613 1497 
L 2675 1825 
Q 2722 2069 2722 2266 
Q 2722 2550 2622 2738 
Q 2456 3053 2019 3053 
Q 1575 3053 1279 2703 
Q 984 2353 850 1663 
Q 788 1347 788 1103 
Q 788 813 875 622 
Q 1031 269 1475 269 
Q 1913 269 2203 583 
Q 2494 897 2613 1497 
z
" transform="scale(0.015625)"/>
     <path id="DejaVuSerif-Italic-6f" d="M 1644 219 
Q 2106 219 2414 584 
Q 2722 950 2859 1663 
Q 2922 1988 2922 2241 
Q 2922 2541 2834 2738 
Q 2669 3103 2206 3103 
Q 1744 3103 1436 2739 
Q 1128 2375 991 1663 
Q 928 1338 928 1088 
Q 928 784 1019 584 
Q 1184 219 1644 219 
z
M 1584 -91 
Q 859 -91 513 388 
Q 272 722 272 1203 
Q 272 1419 319 1663 
Q 472 2456 1005 2934 
Q 1538 3413 2266 3413 
Q 2994 3413 3341 2934 
Q 3578 2603 3578 2122 
Q 3578 1906 3531 1663 
Q 3378 869 2845 389 
Q 2313 -91 1584 -91 
z
" transform="scale(0.015625)"/>
     <path id="DejaVuSerif-Italic-74" d="M 856 2988 
L 350 2988 
L 416 3322 
L 922 3322 
L 1122 4353 
L 1700 4353 
L 1500 3322 
L 2581 3322 
L 2516 2988 
L 1434 2988 
L 1025 878 
Q 978 631 978 488 
Q 978 388 1000 338 
Q 1059 219 1278 219 
Q 1503 219 1633 351 
Q 1763 484 1825 781 
L 2259 781 
Q 2147 328 1884 118 
Q 1622 -91 1169 -91 
Q 672 -91 506 131 
Q 406 266 406 516 
Q 406 675 447 878 
L 856 2988 
z
" transform="scale(0.015625)"/>
     <path id="DejaVuSerif-Italic-69" d="M 1009 4353 
Q 1038 4497 1163 4603 
Q 1288 4709 1434 4709 
Q 1578 4709 1663 4603 
Q 1728 4522 1728 4422 
Q 1728 4388 1719 4353 
Q 1691 4206 1567 4103 
Q 1444 4000 1297 4000 
Q 1150 4000 1066 4103 
Q 1003 4181 1003 4281 
Q 1003 4316 1009 4353 
z
M 963 331 
L 1506 331 
L 1444 0 
L 325 0 
L 903 2988 
L 353 2988 
L 419 3322 
L 1544 3322 
L 963 331 
z
" transform="scale(0.015625)"/>
     <path id="DejaVuSerif-Italic-73" d="M 222 959 
L 553 959 
Q 541 869 541 788 
Q 541 219 1313 219 
Q 2088 219 2200 788 
Q 2209 844 2209 944 
Q 2209 1041 2103 1158 
Q 1997 1275 1550 1428 
L 1159 1569 
Q 759 1706 629 1882 
Q 500 2059 500 2263 
Q 500 2344 516 2438 
Q 606 2894 990 3153 
Q 1375 3413 1931 3413 
Q 2484 3413 3066 3144 
L 2925 2419 
L 2594 2419 
Q 2606 2491 2606 2553 
Q 2606 2781 2448 2942 
Q 2291 3103 1925 3103 
Q 1191 3103 1091 2591 
Q 1078 2538 1078 2444 
Q 1078 2347 1179 2237 
Q 1281 2128 1678 1997 
L 2106 1856 
Q 2550 1709 2716 1488 
Q 2831 1331 2831 1178 
Q 2831 522 2306 181 
Q 1894 -91 1262 -91 
Q 631 -91 72 184 
L 222 959 
z
" transform="scale(0.015625)"/>
     <path id="DejaVuSerif-Italic-6e" d="M 450 0 
L 1031 2988 
L 481 2988 
L 544 3322 
L 1669 3322 
L 1556 2731 
Q 1781 3069 2068 3241 
Q 2356 3413 2694 3413 
Q 3244 3413 3444 3097 
Q 3563 2906 3563 2588 
Q 3563 2378 3509 2113 
L 3163 331 
L 3675 331 
L 3613 0 
L 2522 0 
L 2897 1931 
Q 2959 2253 2959 2469 
Q 2959 2659 2909 2769 
Q 2803 2994 2425 2994 
Q 2025 2994 1759 2701 
Q 1494 2409 1384 1850 
L 1025 0 
L 450 0 
z
" transform="scale(0.015625)"/>
     <path id="DejaVuSerif-Italic-6d" d="M 3503 2675 
Q 3741 3041 4034 3227 
Q 4328 3413 4672 3413 
Q 5194 3413 5388 3088 
Q 5503 2894 5503 2578 
Q 5503 2372 5453 2113 
L 5106 331 
L 5625 331 
L 5563 0 
L 4469 0 
L 4866 2047 
Q 4913 2291 4913 2466 
Q 4913 2659 4856 2772 
Q 4750 2988 4403 2988 
Q 4019 2988 3761 2697 
Q 3503 2406 3394 1850 
L 3034 0 
L 2459 0 
L 2863 2069 
Q 2906 2303 2906 2472 
Q 2906 2666 2850 2775 
Q 2741 2988 2394 2988 
Q 2009 2988 1751 2697 
Q 1494 2406 1384 1850 
L 1025 0 
L 450 0 
L 1031 2994 
L 481 2994 
L 544 3322 
L 1669 3322 
L 1556 2731 
Q 1778 3063 2059 3238 
Q 2341 3413 2653 3413 
Q 3041 3413 3262 3220 
Q 3484 3028 3503 2675 
z
" transform="scale(0.015625)"/>
     <path id="DejaVuSerif-Italic-75" d="M 3097 3322 
L 3672 3322 
L 3091 331 
L 3634 331 
L 3572 0 
L 2453 0 
L 2566 588 
Q 2341 256 2055 82 
Q 1769 -91 1434 -91 
Q 881 -91 681 225 
Q 559 413 559 734 
Q 559 944 613 1209 
L 956 2988 
L 438 2988 
L 503 3322 
L 1600 3322 
L 1225 1388 
Q 1163 1066 1163 853 
Q 1163 663 1213 556 
Q 1316 331 1697 331 
Q 2097 331 2364 625 
Q 2631 919 2738 1478 
L 3097 3322 
z
" transform="scale(0.015625)"/>
     <path id="DejaVuSerif-Italic-66" d="M 3191 4078 
L 2888 4078 
Q 2900 4144 2900 4203 
Q 2900 4347 2825 4434 
Q 2719 4556 2472 4556 
Q 2150 4556 1984 4379 
Q 1819 4203 1731 3750 
L 1647 3322 
L 2575 3322 
L 2509 2988 
L 1581 2988 
L 963 -206 
Q 853 -763 509 -1047 
Q 166 -1331 -394 -1331 
L -356 -1025 
Q -28 -1025 131 -850 
Q 297 -663 388 -206 
L 1006 2988 
L 456 2988 
L 522 3322 
L 1072 3322 
L 1153 3738 
Q 1263 4297 1606 4578 
Q 1950 4863 2509 4863 
Q 2719 4863 2920 4825 
Q 3122 4788 3316 4709 
L 3191 4078 
z
" transform="scale(0.015625)"/>
     <path id="DejaVuSerif-Italic-67" d="M 3822 3322 
L 3188 72 
Q 3044 -672 2581 -1031 
Q 2078 -1422 1381 -1422 
Q 1053 -1422 765 -1362 
Q 478 -1303 225 -1184 
L 363 -488 
L 663 -488 
Q 653 -813 834 -963 
Q 1016 -1113 1406 -1113 
Q 1913 -1113 2203 -825 
Q 2494 -544 2613 72 
L 2700 519 
Q 2472 206 2181 57 
Q 1891 -91 1525 -91 
Q 975 -91 697 281 
Q 522 516 503 841 
Q 491 1031 534 1256 
Q 750 2359 1516 2928 
Q 2169 3409 2931 3413 
Q 3631 3416 3822 3322 
z
M 3184 2988 
Q 3181 3094 2844 3094 
Q 2234 3094 1775 2625 
Q 1316 2153 1147 1297 
Q 1100 1044 1113 853 
Q 1125 659 1203 528 
Q 1356 269 1756 269 
Q 2194 269 2484 583 
Q 2775 897 2891 1497 
L 2953 1825 
L 3184 2988 
z
" transform="scale(0.015625)"/>
     <path id="DejaVuSerif-Italic-2c" d="M 125 -622 
Q 463 -406 656 -114 
Q 850 178 931 594 
L 953 709 
L 1569 709 
Q 1441 175 1139 -208 
Q 838 -591 328 -872 
L 125 -622 
z
" transform="scale(0.015625)"/>
     <path id="DejaVuSerif-Italic-6b" d="M 2113 2075 
L 3034 331 
L 3513 331 
L 3450 0 
L 2528 0 
L 1622 1697 
L 1088 1275 
L 841 0 
L 266 0 
L 1147 4531 
L 594 4531 
L 656 4863 
L 1784 4863 
L 1169 1697 
L 2822 2988 
L 2344 2988 
L 2406 3322 
L 3341 3322 
L 3278 2988 
L 2113 2075 
z
" transform="scale(0.015625)"/>
     <path id="DejaVuSerif-Italic-70" d="M 1466 1825 
L 1400 1497 
Q 1353 1250 1353 1053 
Q 1353 769 1453 581 
Q 1622 269 2059 269 
Q 2500 269 2795 622 
Q 3091 975 3225 1663 
Q 3284 1978 3284 2225 
Q 3284 2513 3200 2703 
Q 3041 3053 2600 3053 
Q 2163 3053 1872 2737 
Q 1581 2422 1466 1825 
z
M 1116 2988 
L 563 2988 
L 628 3322 
L 1756 3322 
L 1656 2803 
Q 1884 3116 2175 3264 
Q 2466 3413 2850 3413 
Q 3463 3413 3753 2928 
Q 3947 2609 3947 2163 
Q 3947 1928 3897 1663 
Q 3744 881 3262 395 
Q 2781 -91 2169 -91 
Q 1784 -91 1551 57 
Q 1319 206 1213 519 
L 850 -1331 
L 275 -1331 
L 1116 2988 
z
" transform="scale(0.015625)"/>
     <path id="DejaVuSerif-Italic-6c" d="M 903 331 
L 1447 331 
L 1384 0 
L 266 0 
L 1147 4531 
L 594 4531 
L 656 4863 
L 1784 4863 
L 903 331 
z
" transform="scale(0.015625)"/>
     <path id="DejaVuSerif-Italic-79" d="M 3681 3294 
Q 3372 1506 2828 563 
Q 2031 -822 1391 -1238 
Q 1106 -1422 356 -1422 
Q 209 -1422 60 -1397 
Q -88 -1372 -238 -1325 
L -113 -691 
L 181 -691 
Q 175 -741 175 -788 
Q 175 -919 231 -994 
Q 309 -1100 513 -1100 
Q 1063 -1100 1541 -622 
L 756 2988 
L 378 2988 
L 444 3322 
L 1303 3322 
L 2041 25 
Q 2544 778 2666 1088 
Q 3059 2059 3138 2959 
L 2759 2959 
L 2825 3294 
L 3681 3294 
z
" transform="scale(0.015625)"/>
     <path id="DejaVuSerif-Italic-2e" d="M 664 29 
Q 569 150 603 325 
Q 638 500 780 622 
Q 922 744 1100 744 
Q 1272 744 1370 622 
Q 1469 500 1434 325 
Q 1400 153 1254 31 
Q 1109 -91 938 -91 
Q 759 -91 664 29 
z
" transform="scale(0.015625)"/>
     <path id="DejaVuSerif-Italic-54" d="M 769 0 
L 831 331 
L 1428 331 
L 2200 4294 
L 828 4294 
L 688 3566 
L 303 3566 
L 516 4666 
L 4659 4666 
L 4447 3566 
L 4063 3566 
L 4203 4294 
L 2831 4294 
L 2059 331 
L 2656 331 
L 2594 0 
L 769 0 
z
" transform="scale(0.015625)"/>
     <path id="DejaVuSerif-Italic-62" d="M 1153 4531 
L 600 4531 
L 666 4863 
L 1794 4863 
L 1394 2803 
Q 1622 3116 1912 3264 
Q 2203 3413 2588 3413 
Q 3200 3413 3494 2928 
Q 3688 2609 3688 2163 
Q 3688 1928 3634 1663 
Q 3481 881 3000 395 
Q 2519 -91 1906 -91 
Q 1522 -91 1289 57 
Q 1056 206 950 519 
L 850 0 
L 275 0 
L 1153 4531 
z
M 1141 1497 
Q 1091 1250 1091 1053 
Q 1091 769 1191 581 
Q 1359 269 1797 269 
Q 2238 269 2533 622 
Q 2828 975 2963 1663 
Q 3025 1978 3025 2225 
Q 3025 2513 2938 2703 
Q 2781 3053 2338 3053 
Q 1900 3053 1609 2737 
Q 1319 2422 1203 1825 
L 1141 1497 
z
" transform="scale(0.015625)"/>
     <path id="DejaVuSerif-Italic-76" d="M 1681 0 
L 1259 0 
L 619 2988 
L 241 2988 
L 303 3322 
L 1163 3322 
L 1725 703 
Q 2084 1016 2325 1413 
Q 2825 2238 3003 2988 
L 2622 2988 
L 2688 3322 
L 3547 3322 
Q 3206 2034 2775 1313 
Q 2400 688 1681 0 
z
" transform="scale(0.015625)"/>
    </defs>
    <use xlink:href="#DejaVuSerif-Italic-45"/>
    <use xlink:href="#DejaVuSerif-Italic-61" transform="translate(72.998047 0)"/>
    <use xlink:href="#DejaVuSerif-Italic-63" transform="translate(132.617188 0)"/>
    <use xlink:href="#DejaVuSerif-Italic-68" transform="translate(188.623047 0)"/>
    <use xlink:href="#DejaVuSerif-Italic-20" transform="translate(253.027344 0)"/>
    <use xlink:href="#DejaVuSerif-Italic-72" transform="translate(284.814453 0)"/>
    <use xlink:href="#DejaVuSerif-Italic-65" transform="translate(332.617188 0)"/>
    <use xlink:href="#DejaVuSerif-Italic-64" transform="translate(391.796875 0)"/>
    <use xlink:href="#DejaVuSerif-Italic-20" transform="translate(455.810547 0)"/>
    <use xlink:href="#DejaVuSerif-Italic-64" transform="translate(487.597656 0)"/>
    <use xlink:href="#DejaVuSerif-Italic-6f" transform="translate(551.611328 0)"/>
    <use xlink:href="#DejaVuSerif-Italic-74" transform="translate(611.816406 0)"/>
    <use xlink:href="#DejaVuSerif-Italic-20" transform="translate(652.001953 0)"/>
    <use xlink:href="#DejaVuSerif-Italic-69" transform="translate(683.789062 0)"/>
    <use xlink:href="#DejaVuSerif-Italic-73" transform="translate(715.771484 0)"/>
    <use xlink:href="#DejaVuSerif-Italic-20" transform="translate(767.089844 0)"/>
    <use xlink:href="#DejaVuSerif-Italic-6f" transform="translate(798.876953 0)"/>
    <use xlink:href="#DejaVuSerif-Italic-6e" transform="translate(859.082031 0)"/>
    <use xlink:href="#DejaVuSerif-Italic-65" transform="translate(923.486328 0)"/>
    <use xlink:href="#DejaVuSerif-Italic-20" transform="translate(982.666016 0)"/>
    <use xlink:href="#DejaVuSerif-Italic-6d" transform="translate(1014.453125 0)"/>
    <use xlink:href="#DejaVuSerif-Italic-65" transform="translate(1109.277344 0)"/>
    <use xlink:href="#DejaVuSerif-Italic-61" transform="translate(1168.457031 0)"/>
    <use xlink:href="#DejaVuSerif-Italic-73" transform="translate(1228.076172 0)"/>
    <use xlink:href="#DejaVuSerif-Italic-75" transform="translate(1279.394531 0)"/>
    <use xlink:href="#DejaVuSerif-Italic-72" transform="translate(1343.798828 0)"/>
    <use xlink:href="#DejaVuSerif-Italic-65" transform="translate(1391.601562 0)"/>
    <use xlink:href="#DejaVuSerif-Italic-6d" transform="translate(1450.78125 0)"/>
    <use xlink:href="#DejaVuSerif-Italic-65" transform="translate(1545.605469 0)"/>
    <use xlink:href="#DejaVuSerif-Italic-6e" transform="translate(1604.785156 0)"/>
    <use xlink:href="#DejaVuSerif-Italic-74" transform="translate(1669.189453 0)"/>
    <use xlink:href="#DejaVuSerif-Italic-20" transform="translate(1709.375 0)"/>
    <use xlink:href="#DejaVuSerif-Italic-6f" transform="translate(1741.162109 0)"/>
    <use xlink:href="#DejaVuSerif-Italic-66" transform="translate(1801.367188 0)"/>
    <use xlink:href="#DejaVuSerif-Italic-20" transform="translate(1838.378906 0)"/>
    <use xlink:href="#DejaVuSerif-Italic-74" transform="translate(1870.166016 0)"/>
    <use xlink:href="#DejaVuSerif-Italic-68" transform="translate(1910.351562 0)"/>
    <use xlink:href="#DejaVuSerif-Italic-65" transform="translate(1974.755859 0)"/>
    <use xlink:href="#DejaVuSerif-Italic-20" transform="translate(2033.935547 0)"/>
    <use xlink:href="#DejaVuSerif-Italic-73" transform="translate(2065.722656 0)"/>
    <use xlink:href="#DejaVuSerif-Italic-61" transform="translate(2117.041016 0)"/>
    <use xlink:href="#DejaVuSerif-Italic-6d" transform="translate(2176.660156 0)"/>
    <use xlink:href="#DejaVuSerif-Italic-65" transform="translate(2271.484375 0)"/>
    <use xlink:href="#DejaVuSerif-Italic-20" transform="translate(2330.664062 0)"/>
    <use xlink:href="#DejaVuSerif-Italic-74" transform="translate(2362.451172 0)"/>
    <use xlink:href="#DejaVuSerif-Italic-68" transform="translate(2402.636719 0)"/>
    <use xlink:href="#DejaVuSerif-Italic-69" transform="translate(2467.041016 0)"/>
    <use xlink:href="#DejaVuSerif-Italic-6e" transform="translate(2499.023438 0)"/>
    <use xlink:href="#DejaVuSerif-Italic-67" transform="translate(2563.427734 0)"/>
    <use xlink:href="#DejaVuSerif-Italic-2c" transform="translate(2627.441406 0)"/>
    <use xlink:href="#DejaVuSerif-Italic-20" transform="translate(2659.228516 0)"/>
    <use xlink:href="#DejaVuSerif-Italic-74" transform="translate(2691.015625 0)"/>
    <use xlink:href="#DejaVuSerif-Italic-61" transform="translate(2731.201172 0)"/>
    <use xlink:href="#DejaVuSerif-Italic-6b" transform="translate(2790.820312 0)"/>
    <use xlink:href="#DejaVuSerif-Italic-65" transform="translate(2851.416016 0)"/>
    <use xlink:href="#DejaVuSerif-Italic-6e" transform="translate(2910.595703 0)"/>
    <use xlink:href="#DejaVuSerif-Italic-20" transform="translate(2975 0)"/>
    <use xlink:href="#DejaVuSerif-Italic-72" transform="translate(3006.787109 0)"/>
    <use xlink:href="#DejaVuSerif-Italic-65" transform="translate(3054.589844 0)"/>
    <use xlink:href="#DejaVuSerif-Italic-70" transform="translate(3113.769531 0)"/>
    <use xlink:href="#DejaVuSerif-Italic-65" transform="translate(3177.783203 0)"/>
    <use xlink:href="#DejaVuSerif-Italic-61" transform="translate(3236.962891 0)"/>
    <use xlink:href="#DejaVuSerif-Italic-74" transform="translate(3296.582031 0)"/>
    <use xlink:href="#DejaVuSerif-Italic-65" transform="translate(3336.767578 0)"/>
    <use xlink:href="#DejaVuSerif-Italic-64" transform="translate(3395.947266 0)"/>
    <use xlink:href="#DejaVuSerif-Italic-6c" transform="translate(3459.960938 0)"/>
    <use xlink:href="#DejaVuSerif-Italic-79" transform="translate(3491.943359 0)"/>
    <use xlink:href="#DejaVuSerif-Italic-2e" transform="translate(3535.1875 0)"/>
    <use xlink:href="#DejaVuSerif-Italic-20" transform="translate(3566.974609 0)"/>
    <use xlink:href="#DejaVuSerif-Italic-54" transform="translate(3598.761719 0)"/>
    <use xlink:href="#DejaVuSerif-Italic-68" transform="translate(3665.460938 0)"/>
    <use xlink:href="#DejaVuSerif-Italic-65" transform="translate(3729.865234 0)"/>
    <use xlink:href="#DejaVuSerif-Italic-20" transform="translate(3789.044922 0)"/>
    <use xlink:href="#DejaVuSerif-Italic-62" transform="translate(3820.832031 0)"/>
    <use xlink:href="#DejaVuSerif-Italic-75" transform="translate(3884.845703 0)"/>
    <use xlink:href="#DejaVuSerif-Italic-6c" transform="translate(3949.25 0)"/>
    <use xlink:href="#DejaVuSerif-Italic-6c" transform="translate(3981.232422 0)"/>
    <use xlink:href="#DejaVuSerif-Italic-73" transform="translate(4013.214844 0)"/>
    <use xlink:href="#DejaVuSerif-Italic-65" transform="translate(4064.533203 0)"/>
    <use xlink:href="#DejaVuSerif-Italic-79" transform="translate(4123.712891 0)"/>
    <use xlink:href="#DejaVuSerif-Italic-65" transform="translate(4180.207031 0)"/>
    <use xlink:href="#DejaVuSerif-Italic-20" transform="translate(4239.386719 0)"/>
    <use xlink:href="#DejaVuSerif-Italic-69" transform="translate(4271.173828 0)"/>
    <use xlink:href="#DejaVuSerif-Italic-73" transform="translate(4303.15625 0)"/>
    <use xlink:href="#DejaVuSerif-Italic-20" transform="translate(4354.474609 0)"/>
    <use xlink:href="#DejaVuSerif-Italic-74" transform="translate(4386.261719 0)"/>
    <use xlink:href="#DejaVuSerif-Italic-68" transform="translate(4426.447266 0)"/>
    <use xlink:href="#DejaVuSerif-Italic-65" transform="translate(4490.851562 0)"/>
    <use xlink:href="#DejaVuSerif-Italic-20" transform="translate(4550.03125 0)"/>
    <use xlink:href="#DejaVuSerif-Italic-74" transform="translate(4581.818359 0)"/>
    <use xlink:href="#DejaVuSerif-Italic-72" transform="translate(4622.003906 0)"/>
    <use xlink:href="#DejaVuSerif-Italic-75" transform="translate(4669.806641 0)"/>
    <use xlink:href="#DejaVuSerif-Italic-65" transform="translate(4734.210938 0)"/>
    <use xlink:href="#DejaVuSerif-Italic-20" transform="translate(4793.390625 0)"/>
    <use xlink:href="#DejaVuSerif-Italic-76" transform="translate(4825.177734 0)"/>
    <use xlink:href="#DejaVuSerif-Italic-61" transform="translate(4881.671875 0)"/>
    <use xlink:href="#DejaVuSerif-Italic-6c" transform="translate(4941.291016 0)"/>
    <use xlink:href="#DejaVuSerif-Italic-75" transform="translate(4973.273438 0)"/>
    <use xlink:href="#DejaVuSerif-Italic-65" transform="translate(5037.677734 0)"/>
    <use xlink:href="#DejaVuSerif-Italic-2e" transform="translate(5096.857422 0)"/>
   </g>
  </g>
 </g>
 <defs>
  <clipPath id="p341e89b838">
   <rect x="18.248595" y="88.686273" width="245.063591" height="245.063591"/>
  </clipPath>
  <clipPath id="pd16cdba624">
   <rect x="315.248595" y="88.686273" width="245.063591" height="245.063591"/>
  </clipPath>
  <clipPath id="p494836ebff">
   <rect x="18.248595" y="365.928409" width="245.063591" height="245.063591"/>
  </clipPath>
  <clipPath id="pa19f2f667e">
   <rect x="315.248595" y="365.928409" width="245.063591" height="245.063591"/>
  </clipPath>
 </defs>
</svg>
