<?xml version="1.0" encoding="utf-8" standalone="no"?>
<!DOCTYPE svg PUBLIC "-//W3C//DTD SVG 1.1//EN"
  "http://www.w3.org/Graphics/SVG/1.1/DTD/svg11.dtd">
<svg xmlns:xlink="http://www.w3.org/1999/xlink" width="914.4pt" height="520.56pt" viewBox="0 0 914.4 520.56" xmlns="http://www.w3.org/2000/svg" version="1.1">
 <metadata>
  <rdf:RDF xmlns:dc="http://purl.org/dc/elements/1.1/" xmlns:cc="http://creativecommons.org/ns#" xmlns:rdf="http://www.w3.org/1999/02/22-rdf-syntax-ns#">
   <cc:Work>
    <dc:type rdf:resource="http://purl.org/dc/dcmitype/StillImage"/>
    <dc:date>2026-06-24T16:13:19.001667</dc:date>
    <dc:format>image/svg+xml</dc:format>
    <dc:creator>
     <cc:Agent>
      <dc:title>Matplotlib v3.10.8, https://matplotlib.org/</dc:title>
     </cc:Agent>
    </dc:creator>
   </cc:Work>
  </rdf:RDF>
 </metadata>
 <defs>
  <style type="text/css">*{stroke-linejoin: round; stroke-linecap: butt}</style>
 </defs>
 <g id="figure_1">
  <g id="patch_1">
   <path d="M 0 520.56 
L 914.4 520.56 
L 914.4 0 
L 0 0 
z
" style="fill: #ffffff"/>
  </g>
  <g id="axes_1">
   <g id="patch_2">
    <path d="M 19.728 504.7704 
L 894.672 504.7704 
L 894.672 15.7896 
L 19.728 15.7896 
L 19.728 504.7704 
z
" clip-path="url(#p740f6b83fa)" style="fill: none; stroke: #d0d0d0; stroke-linejoin: miter"/>
   </g>
   <g id="patch_3">
    <path d="M 530.573375 135.975878 
Q 607.67015 153.559994 650.587195 215.945353 
" clip-path="url(#p740f6b83fa)" style="fill: none; stroke: #476a7a; stroke-width: 3; stroke-linecap: round"/>
    <path d="M 649.348518 207.087268 
L 650.587195 215.945353 
L 642.75752 211.621443 
z
" clip-path="url(#p740f6b83fa)" style="fill: #476a7a; stroke: #476a7a; stroke-width: 3; stroke-linecap: round"/>
   </g>
   <g id="patch_4">
    <path d="M 688.026442 301.716693 
Q 625.595901 374.098832 533.943472 384.42764 
" clip-path="url(#p740f6b83fa)" style="fill: none; stroke: #476a7a; stroke-width: 3; stroke-linecap: round"/>
    <path d="M 542.341096 387.506586 
L 533.943472 384.42764 
L 541.445203 379.556909 
z
" clip-path="url(#p740f6b83fa)" style="fill: #476a7a; stroke: #476a7a; stroke-width: 3; stroke-linecap: round"/>
   </g>
   <g id="patch_5">
    <path d="M 383.826625 384.584122 
Q 306.72985 367.000006 263.812805 304.614647 
" clip-path="url(#p740f6b83fa)" style="fill: none; stroke: #476a7a; stroke-width: 3; stroke-linecap: round"/>
    <path d="M 265.051482 313.472732 
L 263.812805 304.614647 
L 271.64248 308.938557 
z
" clip-path="url(#p740f6b83fa)" style="fill: #476a7a; stroke: #476a7a; stroke-width: 3; stroke-linecap: round"/>
   </g>
   <g id="patch_6">
    <path d="M 226.373558 218.843307 
Q 288.804099 146.461168 380.456528 136.13236 
" clip-path="url(#p740f6b83fa)" style="fill: none; stroke: #476a7a; stroke-width: 3; stroke-linecap: round"/>
    <path d="M 372.058904 133.053414 
L 380.456528 136.13236 
L 372.954797 141.003091 
z
" clip-path="url(#p740f6b83fa)" style="fill: #476a7a; stroke: #476a7a; stroke-width: 3; stroke-linecap: round"/>
   </g>
   <g id="text_1">
    <text style="font-weight: 700; font-size: 26px; font-family: 'DejaVu Sans'; text-anchor: middle; fill: #111111" x="457.2" y="55.503938" transform="rotate(-0 457.2 55.503938)">Depression Maintenance Loop</text>
   </g>
   <g id="patch_7">
    <path d="M 369.2592 162.23436 
L 545.1408 162.23436 
Q 558.5328 162.23436 558.5328 154.74996 
L 558.5328 106.35084 
Q 558.5328 98.86644 545.1408 98.86644 
L 369.2592 98.86644 
Q 355.8672 98.86644 355.8672 106.35084 
L 355.8672 154.74996 
Q 355.8672 162.23436 369.2592 162.23436 
z
" clip-path="url(#p740f6b83fa)" style="fill: #e9f1f5; stroke: #476a7a; stroke-width: 1.4; stroke-linejoin: miter"/>
   </g>
   <g id="patch_8">
    <path d="M 628.1712 291.96396 
L 804.0528 291.96396 
Q 817.4448 291.96396 817.4448 284.47956 
L 817.4448 236.08044 
Q 817.4448 228.59604 804.0528 228.59604 
L 628.1712 228.59604 
Q 614.7792 228.59604 614.7792 236.08044 
L 614.7792 284.47956 
Q 614.7792 291.96396 628.1712 291.96396 
z
" clip-path="url(#p740f6b83fa)" style="fill: #e9f1f5; stroke: #476a7a; stroke-width: 1.4; stroke-linejoin: miter"/>
   </g>
   <g id="patch_9">
    <path d="M 369.2592 421.69356 
L 545.1408 421.69356 
Q 558.5328 421.69356 558.5328 414.20916 
L 558.5328 365.81004 
Q 558.5328 358.32564 545.1408 358.32564 
L 369.2592 358.32564 
Q 355.8672 358.32564 355.8672 365.81004 
L 355.8672 414.20916 
Q 355.8672 421.69356 369.2592 421.69356 
z
" clip-path="url(#p740f6b83fa)" style="fill: #e9f1f5; stroke: #476a7a; stroke-width: 1.4; stroke-linejoin: miter"/>
   </g>
   <g id="patch_10">
    <path d="M 110.3472 291.96396 
L 286.2288 291.96396 
Q 299.6208 291.96396 299.6208 284.47956 
L 299.6208 236.08044 
Q 299.6208 228.59604 286.2288 228.59604 
L 110.3472 228.59604 
Q 96.9552 228.59604 96.9552 236.08044 
L 96.9552 284.47956 
Q 96.9552 291.96396 110.3472 291.96396 
z
" clip-path="url(#p740f6b83fa)" style="fill: #e9f1f5; stroke: #476a7a; stroke-width: 1.4; stroke-linejoin: miter"/>
   </g>
   <g id="patch_11">
    <path d="M 797.964987 234.013794 
Q 827.712341 207.8889 854.771497 184.124851 
" clip-path="url(#p740f6b83fa)" style="fill: none; stroke: #0f6468; stroke-width: 3.2; stroke-linecap: round"/>
    <path d="M 845.255948 186.625716 
L 854.771497 184.124851 
L 851.062859 193.237809 
z
" clip-path="url(#p740f6b83fa)" style="fill: #0f6468; stroke: #0f6468; stroke-width: 3.2; stroke-linecap: round"/>
   </g>
   <g id="text_2">
    <text style="font-weight: 700; font-size: 15px; font-family: 'DejaVu Sans'; text-anchor: start; fill: #0f6468" x="716.112" y="134.689463" transform="rotate(-0 716.112 134.689463)">Behavioral activation:</text>
   </g>
   <g id="text_3">
    <text style="font-size: 14px; font-family: 'DejaVu Sans'; fill: #0f6468" transform="translate(716.112 166.757802)">schedule activity before</text>
    <text style="font-size: 14px; font-family: 'DejaVu Sans'; fill: #0f6468" transform="translate(716.112 181.902848)">motivation returns</text>
   </g>
   <g id="text_4">
    <text style="font-size: 15px; font-family: 'DejaVu Sans'; text-anchor: middle" x="457.2" y="468.992663" transform="rotate(-0 457.2 468.992663)">The cycle reduces sources of reward. Behavioral activation interrupts it by starting action before mood improves.</text>
   </g>
   <g id="text_5">
    <text style="font-weight: 700; font-size: 15px; font-family: 'DejaVu Sans'; text-anchor: middle; fill: #111111" x="457.2" y="134.689463" transform="rotate(-0 457.2 134.689463)">Low mood</text>
   </g>
   <g id="text_6">
    <text style="font-weight: 700; font-size: 15px; font-family: 'DejaVu Sans'; fill: #111111" transform="translate(667.654969 255.962109)">Withdrawal</text>
    <text style="font-weight: 700; font-size: 15px; font-family: 'DejaVu Sans'; fill: #111111" transform="translate(658.224891 272.758828)">and inactivity</text>
   </g>
   <g id="text_7">
    <text style="font-weight: 700; font-size: 15px; font-family: 'DejaVu Sans'; fill: #111111" transform="translate(385.842187 385.691709)">Fewer rewarding</text>
    <text style="font-weight: 700; font-size: 15px; font-family: 'DejaVu Sans'; fill: #111111" transform="translate(406.127344 402.605616)">experiences</text>
   </g>
   <g id="text_8">
    <text style="font-weight: 700; font-size: 15px; font-family: 'DejaVu Sans'; fill: #111111" transform="translate(172.641516 256.020703)">Lower</text>
    <text style="font-weight: 700; font-size: 15px; font-family: 'DejaVu Sans'; fill: #111111" transform="translate(152.566125 272.817422)">motivation</text>
   </g>
  </g>
 </g>
 <defs>
  <clipPath id="p740f6b83fa">
   <rect x="10.8" y="10.8" width="892.8" height="498.96"/>
  </clipPath>
 </defs>
</svg>
