<?xml version="1.0" encoding="utf-8" standalone="no"?>
<!DOCTYPE svg PUBLIC "-//W3C//DTD SVG 1.1//EN"
  "http://www.w3.org/Graphics/SVG/1.1/DTD/svg11.dtd">
<svg xmlns:xlink="http://www.w3.org/1999/xlink" width="914.4pt" height="520.56pt" viewBox="0 0 914.4 520.56" xmlns="http://www.w3.org/2000/svg" version="1.1">
 <metadata>
  <rdf:RDF xmlns:dc="http://purl.org/dc/elements/1.1/" xmlns:cc="http://creativecommons.org/ns#" xmlns:rdf="http://www.w3.org/1999/02/22-rdf-syntax-ns#">
   <cc:Work>
    <dc:type rdf:resource="http://purl.org/dc/dcmitype/StillImage"/>
    <dc:date>2026-06-24T16:13:18.804110</dc:date>
    <dc:format>image/svg+xml</dc:format>
    <dc:creator>
     <cc:Agent>
      <dc:title>Matplotlib v3.10.8, https://matplotlib.org/</dc:title>
     </cc:Agent>
    </dc:creator>
   </cc:Work>
  </rdf:RDF>
 </metadata>
 <defs>
  <style type="text/css">*{stroke-linejoin: round; stroke-linecap: butt}</style>
 </defs>
 <g id="figure_1">
  <g id="patch_1">
   <path d="M 0 520.56 
L 914.4 520.56 
L 914.4 0 
L 0 0 
z
" style="fill: #ffffff"/>
  </g>
  <g id="axes_1">
   <g id="patch_2">
    <path d="M 19.728 504.7704 
L 894.672 504.7704 
L 894.672 15.7896 
L 19.728 15.7896 
L 19.728 504.7704 
z
" clip-path="url(#p074166f4ec)" style="fill: none; stroke: #d0d0d0; stroke-linejoin: miter"/>
   </g>
   <g id="patch_3">
    <path d="M 446.533606 321.139246 
Q 313.584761 395.942732 175.707815 336.928972 
" clip-path="url(#p074166f4ec)" style="fill: none; stroke-dasharray: 2.3,3.795; stroke-dashoffset: 0; stroke: #222222; stroke-width: 2.3; stroke-linecap: round"/>
    <path d="M 180.910425 343.071679 
L 175.707815 336.928972 
L 183.743546 336.452508 
z
" clip-path="url(#p074166f4ec)" style="fill: #222222; stroke-dasharray: 2.3,3.795; stroke-dashoffset: 0; stroke: #222222; stroke-width: 2.3; stroke-linecap: round"/>
   </g>
   <g id="patch_4">
    <path d="M 74.6352 326.89116 
L 268.3728 326.89116 
Q 281.7648 326.89116 281.7648 319.40676 
L 281.7648 161.23644 
Q 281.7648 153.75204 268.3728 153.75204 
L 74.6352 153.75204 
Q 61.2432 153.75204 61.2432 161.23644 
L 61.2432 319.40676 
Q 61.2432 326.89116 74.6352 326.89116 
z
" clip-path="url(#p074166f4ec)" style="fill: #e9f1f5; stroke: #2e5c77; stroke-width: 1.4; stroke-linejoin: miter"/>
   </g>
   <g id="patch_5">
    <path d="M 360.3312 316.91196 
L 536.2128 316.91196 
Q 549.6048 316.91196 549.6048 309.42756 
L 549.6048 171.21564 
Q 549.6048 163.73124 536.2128 163.73124 
L 360.3312 163.73124 
Q 346.9392 163.73124 346.9392 171.21564 
L 346.9392 309.42756 
Q 346.9392 316.91196 360.3312 316.91196 
z
" clip-path="url(#p074166f4ec)" style="fill: #fff4d8; stroke: #b57a00; stroke-width: 1.4; stroke-linejoin: miter"/>
   </g>
   <g id="patch_6">
    <path d="M 628.1712 346.84956 
L 839.7648 346.84956 
Q 853.1568 346.84956 853.1568 339.36516 
L 853.1568 141.27804 
Q 853.1568 133.79364 839.7648 133.79364 
L 628.1712 133.79364 
Q 614.7792 133.79364 614.7792 141.27804 
L 614.7792 339.36516 
Q 614.7792 346.84956 628.1712 346.84956 
z
" clip-path="url(#p074166f4ec)" style="fill: #eaf4ea; stroke: #3f7c45; stroke-width: 1.4; stroke-linejoin: miter"/>
   </g>
   <g id="text_1">
    <text style="font-weight: 700; font-size: 26px; font-family: 'DejaVu Sans'; text-anchor: middle; fill: #111111" x="457.2" y="55.503938" transform="rotate(-0 457.2 55.503938)">Diagnosis Is Not a Cause</text>
   </g>
   <g id="text_2">
    <text style="font-weight: 700; font-size: 18px; font-family: 'DejaVu Sans'; text-anchor: middle" x="171.504" y="185.27265" transform="rotate(-0 171.504 185.27265)">Symptoms</text>
   </g>
   <g id="text_3">
    <text style="font-size: 15px; font-family: 'DejaVu Sans'; text-anchor: start" x="91.152" y="219.512663" transform="rotate(-0 91.152 219.512663)">• persistent sadness</text>
   </g>
   <g id="text_4">
    <text style="font-size: 15px; font-family: 'DejaVu Sans'; text-anchor: start" x="91.152" y="249.450263" transform="rotate(-0 91.152 249.450263)">• sleep disruption</text>
   </g>
   <g id="text_5">
    <text style="font-size: 15px; font-family: 'DejaVu Sans'; text-anchor: start" x="91.152" y="279.387863" transform="rotate(-0 91.152 279.387863)">• low energy</text>
   </g>
   <g id="text_6">
    <text style="font-size: 15px; font-family: 'DejaVu Sans'; text-anchor: start" x="91.152" y="309.325463" transform="rotate(-0 91.152 309.325463)">• anhedonia</text>
   </g>
   <g id="text_7">
    <text style="font-weight: 700; font-size: 16px; font-family: 'DejaVu Sans'; fill: #111111" transform="translate(369.872 235.71585)">Major Depressive</text>
    <text style="font-weight: 700; font-size: 16px; font-family: 'DejaVu Sans'; fill: #111111" transform="translate(409.58825 253.75735)">Disorder</text>
   </g>
   <g id="text_8">
    <text style="font-weight: 700; font-size: 18px; font-family: 'DejaVu Sans'; text-anchor: middle" x="448.272" y="155.405363" transform="rotate(-0 448.272 155.405363)">DSM diagnosis</text>
   </g>
   <g id="text_9">
    <text style="font-weight: 700; font-size: 18px; font-family: 'DejaVu Sans'; text-anchor: middle" x="733.968" y="155.475675" transform="rotate(-0 733.968 155.475675)">Next questions</text>
   </g>
   <g id="text_10">
    <text style="font-size: 14px; font-family: 'DejaVu Sans'; text-anchor: start" x="644.688" y="204.267925" transform="rotate(-0 644.688 204.267925)">• What biological factors?</text>
   </g>
   <g id="text_11">
    <text style="font-size: 14px; font-family: 'DejaVu Sans'; text-anchor: start" x="644.688" y="240.193045" transform="rotate(-0 644.688 240.193045)">• What psychological history?</text>
   </g>
   <g id="text_12">
    <text style="font-size: 14px; font-family: 'DejaVu Sans'; text-anchor: start" x="644.688" y="276.118165" transform="rotate(-0 644.688 276.118165)">• What social stressors?</text>
   </g>
   <g id="text_13">
    <text style="font-size: 14px; font-family: 'DejaVu Sans'; text-anchor: start" x="644.688" y="312.043285" transform="rotate(-0 644.688 312.043285)">• What treatment approach?</text>
   </g>
   <g id="patch_7">
    <path d="M 280.640953 240.3216 
Q 314.350368 240.3216 344.929287 240.3216 
" clip-path="url(#p074166f4ec)" style="fill: none; stroke: #222222; stroke-width: 2.8; stroke-linecap: round"/>
    <path d="M 337.729287 236.7216 
L 344.929287 240.3216 
L 337.729287 243.9216 
z
" clip-path="url(#p074166f4ec)" style="fill: #222222; stroke: #222222; stroke-width: 2.8; stroke-linecap: round"/>
   </g>
   <g id="patch_8">
    <path d="M 548.480953 240.3216 
Q 582.190368 240.3216 612.769287 240.3216 
" clip-path="url(#p074166f4ec)" style="fill: none; stroke: #222222; stroke-width: 2.8; stroke-linecap: round"/>
    <path d="M 605.569287 236.7216 
L 612.769287 240.3216 
L 605.569287 243.9216 
z
" clip-path="url(#p074166f4ec)" style="fill: #222222; stroke: #222222; stroke-width: 2.8; stroke-linecap: round"/>
   </g>
   <g id="text_14">
    <text style="font-weight: 700; font-size: 14px; font-family: 'DejaVu Sans'" transform="translate(129.889562 381.044656)">Cause</text>
    <text style="font-weight: 700; font-size: 14px; font-family: 'DejaVu Sans'" transform="translate(115.109719 396.721594)">explained</text>
   </g>
   <g id="text_15">
    <text style="font-weight: 700; font-size: 18px; font-family: 'DejaVu Sans'; fill: #d22323" transform="translate(381.783094 434.794444)">A label is not</text>
    <text style="font-weight: 700; font-size: 18px; font-family: 'DejaVu Sans'; fill: #d22323" transform="translate(369.271687 454.950506)">an explanation.</text>
   </g>
   <g id="text_16">
    <text style="font-size: 14px; font-family: 'DejaVu Sans'; text-anchor: middle" x="457.2" y="478.695925" transform="rotate(-0 457.2 478.695925)">Diagnosis organizes symptom patterns; it does not, by itself, explain why they occurred or what will help.</text>
   </g>
   <g id="line2d_1">
    <path d="M 394.704 409.968 
L 501.84 350.0928 
" clip-path="url(#p074166f4ec)" style="fill: none; stroke: #d22323; stroke-width: 7; stroke-linecap: square"/>
   </g>
   <g id="line2d_2">
    <path d="M 394.704 350.0928 
L 501.84 409.968 
" clip-path="url(#p074166f4ec)" style="fill: none; stroke: #d22323; stroke-width: 7; stroke-linecap: square"/>
   </g>
  </g>
 </g>
 <defs>
  <clipPath id="p074166f4ec">
   <rect x="10.8" y="10.8" width="892.8" height="498.96"/>
  </clipPath>
 </defs>
</svg>
