<?xml version="1.0" encoding="utf-8" standalone="no"?>
<!DOCTYPE svg PUBLIC "-//W3C//DTD SVG 1.1//EN"
  "http://www.w3.org/Graphics/SVG/1.1/DTD/svg11.dtd">
<svg xmlns:xlink="http://www.w3.org/1999/xlink" width="834.855417pt" height="478.264688pt" viewBox="0 0 834.855417 478.264688" xmlns="http://www.w3.org/2000/svg" version="1.1">
 <metadata>
  <rdf:RDF xmlns:dc="http://purl.org/dc/elements/1.1/" xmlns:cc="http://creativecommons.org/ns#" xmlns:rdf="http://www.w3.org/1999/02/22-rdf-syntax-ns#">
   <cc:Work>
    <dc:type rdf:resource="http://purl.org/dc/dcmitype/StillImage"/>
    <dc:date>2026-06-23T15:02:08.121837</dc:date>
    <dc:format>image/svg+xml</dc:format>
    <dc:creator>
     <cc:Agent>
      <dc:title>Matplotlib v3.10.8, https://matplotlib.org/</dc:title>
     </cc:Agent>
    </dc:creator>
   </cc:Work>
  </rdf:RDF>
 </metadata>
 <defs>
  <style type="text/css">*{stroke-linejoin: round; stroke-linecap: butt}</style>
 </defs>
 <g id="figure_1">
  <g id="patch_1">
   <path d="M 0 478.264688 
L 834.855417 478.264688 
L 834.855417 0 
L 0 0 
z
" style="fill: #ffffff"/>
  </g>
  <g id="axes_1">
   <g id="patch_2">
    <path d="M 47.6525 436.837188 
L 809.7525 436.837188 
L 809.7525 36.877187 
L 47.6525 36.877187 
z
" style="fill: #ffffff"/>
   </g>
   <g id="patch_3">
    <path d="M 523.965 436.837188 
L 777.998333 436.837188 
L 777.998333 36.877187 
L 523.965 36.877187 
z
" clip-path="url(#p49e3c16e92)" style="fill: #1f77b4; opacity: 0.12"/>
   </g>
   <g id="matplotlib.axis_1">
    <g id="xtick_1">
     <g id="line2d_1">
      <path d="M 47.6525 436.837188 
L 47.6525 36.877187 
" clip-path="url(#p49e3c16e92)" style="fill: none; stroke: #b0b0b0; stroke-opacity: 0.25; stroke-width: 0.8; stroke-linecap: square"/>
     </g>
     <g id="line2d_2">
      <defs>
       <path id="maa0f2f8b7d" d="M 0 0 
L 0 3.5 
" style="stroke: #000000; stroke-width: 0.8"/>
      </defs>
      <g>
       <use xlink:href="#maa0f2f8b7d" x="47.6525" y="436.837188" style="stroke: #000000; stroke-width: 0.8"/>
      </g>
     </g>
     <g id="text_1">
      <!-- 8 AM -->
      <g transform="translate(35.147813 451.435625) scale(0.1 -0.1)">
       <defs>
        <path id="DejaVuSans-38" d="M 2034 2216 
Q 1584 2216 1326 1975 
Q 1069 1734 1069 1313 
Q 1069 891 1326 650 
Q 1584 409 2034 409 
Q 2484 409 2743 651 
Q 3003 894 3003 1313 
Q 3003 1734 2745 1975 
Q 2488 2216 2034 2216 
z
M 1403 2484 
Q 997 2584 770 2862 
Q 544 3141 544 3541 
Q 544 4100 942 4425 
Q 1341 4750 2034 4750 
Q 2731 4750 3128 4425 
Q 3525 4100 3525 3541 
Q 3525 3141 3298 2862 
Q 3072 2584 2669 2484 
Q 3125 2378 3379 2068 
Q 3634 1759 3634 1313 
Q 3634 634 3220 271 
Q 2806 -91 2034 -91 
Q 1263 -91 848 271 
Q 434 634 434 1313 
Q 434 1759 690 2068 
Q 947 2378 1403 2484 
z
M 1172 3481 
Q 1172 3119 1398 2916 
Q 1625 2713 2034 2713 
Q 2441 2713 2670 2916 
Q 2900 3119 2900 3481 
Q 2900 3844 2670 4047 
Q 2441 4250 2034 4250 
Q 1625 4250 1398 4047 
Q 1172 3844 1172 3481 
z
" transform="scale(0.015625)"/>
        <path id="DejaVuSans-20" transform="scale(0.015625)"/>
        <path id="DejaVuSans-41" d="M 2188 4044 
L 1331 1722 
L 3047 1722 
L 2188 4044 
z
M 1831 4666 
L 2547 4666 
L 4325 0 
L 3669 0 
L 3244 1197 
L 1141 1197 
L 716 0 
L 50 0 
L 1831 4666 
z
" transform="scale(0.015625)"/>
        <path id="DejaVuSans-4d" d="M 628 4666 
L 1569 4666 
L 2759 1491 
L 3956 4666 
L 4897 4666 
L 4897 0 
L 4281 0 
L 4281 4097 
L 3078 897 
L 2444 897 
L 1241 4097 
L 1241 0 
L 628 0 
L 628 4666 
z
" transform="scale(0.015625)"/>
       </defs>
       <use xlink:href="#DejaVuSans-38"/>
       <use xlink:href="#DejaVuSans-20" transform="translate(63.623047 0)"/>
       <use xlink:href="#DejaVuSans-41" transform="translate(95.410156 0)"/>
       <use xlink:href="#DejaVuSans-4d" transform="translate(163.818359 0)"/>
      </g>
     </g>
    </g>
    <g id="xtick_2">
     <g id="line2d_3">
      <path d="M 174.669167 436.837188 
L 174.669167 36.877187 
" clip-path="url(#p49e3c16e92)" style="fill: none; stroke: #b0b0b0; stroke-opacity: 0.25; stroke-width: 0.8; stroke-linecap: square"/>
     </g>
     <g id="line2d_4">
      <g>
       <use xlink:href="#maa0f2f8b7d" x="174.669167" y="436.837188" style="stroke: #000000; stroke-width: 0.8"/>
      </g>
     </g>
     <g id="text_2">
      <!-- Noon -->
      <g transform="translate(161.641042 451.435625) scale(0.1 -0.1)">
       <defs>
        <path id="DejaVuSans-4e" d="M 628 4666 
L 1478 4666 
L 3547 763 
L 3547 4666 
L 4159 4666 
L 4159 0 
L 3309 0 
L 1241 3903 
L 1241 0 
L 628 0 
L 628 4666 
z
" transform="scale(0.015625)"/>
        <path id="DejaVuSans-6f" d="M 1959 3097 
Q 1497 3097 1228 2736 
Q 959 2375 959 1747 
Q 959 1119 1226 758 
Q 1494 397 1959 397 
Q 2419 397 2687 759 
Q 2956 1122 2956 1747 
Q 2956 2369 2687 2733 
Q 2419 3097 1959 3097 
z
M 1959 3584 
Q 2709 3584 3137 3096 
Q 3566 2609 3566 1747 
Q 3566 888 3137 398 
Q 2709 -91 1959 -91 
Q 1206 -91 779 398 
Q 353 888 353 1747 
Q 353 2609 779 3096 
Q 1206 3584 1959 3584 
z
" transform="scale(0.015625)"/>
        <path id="DejaVuSans-6e" d="M 3513 2113 
L 3513 0 
L 2938 0 
L 2938 2094 
Q 2938 2591 2744 2837 
Q 2550 3084 2163 3084 
Q 1697 3084 1428 2787 
Q 1159 2491 1159 1978 
L 1159 0 
L 581 0 
L 581 3500 
L 1159 3500 
L 1159 2956 
Q 1366 3272 1645 3428 
Q 1925 3584 2291 3584 
Q 2894 3584 3203 3211 
Q 3513 2838 3513 2113 
z
" transform="scale(0.015625)"/>
       </defs>
       <use xlink:href="#DejaVuSans-4e"/>
       <use xlink:href="#DejaVuSans-6f" transform="translate(74.804688 0)"/>
       <use xlink:href="#DejaVuSans-6f" transform="translate(135.986328 0)"/>
       <use xlink:href="#DejaVuSans-6e" transform="translate(197.167969 0)"/>
      </g>
     </g>
    </g>
    <g id="xtick_3">
     <g id="line2d_5">
      <path d="M 301.685833 436.837188 
L 301.685833 36.877187 
" clip-path="url(#p49e3c16e92)" style="fill: none; stroke: #b0b0b0; stroke-opacity: 0.25; stroke-width: 0.8; stroke-linecap: square"/>
     </g>
     <g id="line2d_6">
      <g>
       <use xlink:href="#maa0f2f8b7d" x="301.685833" y="436.837188" style="stroke: #000000; stroke-width: 0.8"/>
      </g>
     </g>
     <g id="text_3">
      <!-- 4 PM -->
      <g transform="translate(289.586615 451.435625) scale(0.1 -0.1)">
       <defs>
        <path id="DejaVuSans-34" d="M 2419 4116 
L 825 1625 
L 2419 1625 
L 2419 4116 
z
M 2253 4666 
L 3047 4666 
L 3047 1625 
L 3713 1625 
L 3713 1100 
L 3047 1100 
L 3047 0 
L 2419 0 
L 2419 1100 
L 313 1100 
L 313 1709 
L 2253 4666 
z
" transform="scale(0.015625)"/>
        <path id="DejaVuSans-50" d="M 1259 4147 
L 1259 2394 
L 2053 2394 
Q 2494 2394 2734 2622 
Q 2975 2850 2975 3272 
Q 2975 3691 2734 3919 
Q 2494 4147 2053 4147 
L 1259 4147 
z
M 628 4666 
L 2053 4666 
Q 2838 4666 3239 4311 
Q 3641 3956 3641 3272 
Q 3641 2581 3239 2228 
Q 2838 1875 2053 1875 
L 1259 1875 
L 1259 0 
L 628 0 
L 628 4666 
z
" transform="scale(0.015625)"/>
       </defs>
       <use xlink:href="#DejaVuSans-34"/>
       <use xlink:href="#DejaVuSans-20" transform="translate(63.623047 0)"/>
       <use xlink:href="#DejaVuSans-50" transform="translate(95.410156 0)"/>
       <use xlink:href="#DejaVuSans-4d" transform="translate(155.712891 0)"/>
      </g>
     </g>
    </g>
    <g id="xtick_4">
     <g id="line2d_7">
      <path d="M 428.7025 436.837188 
L 428.7025 36.877187 
" clip-path="url(#p49e3c16e92)" style="fill: none; stroke: #b0b0b0; stroke-opacity: 0.25; stroke-width: 0.8; stroke-linecap: square"/>
     </g>
     <g id="line2d_8">
      <g>
       <use xlink:href="#maa0f2f8b7d" x="428.7025" y="436.837188" style="stroke: #000000; stroke-width: 0.8"/>
      </g>
     </g>
     <g id="text_4">
      <!-- 8 PM -->
      <g transform="translate(416.603281 451.435625) scale(0.1 -0.1)">
       <use xlink:href="#DejaVuSans-38"/>
       <use xlink:href="#DejaVuSans-20" transform="translate(63.623047 0)"/>
       <use xlink:href="#DejaVuSans-50" transform="translate(95.410156 0)"/>
       <use xlink:href="#DejaVuSans-4d" transform="translate(155.712891 0)"/>
      </g>
     </g>
    </g>
    <g id="xtick_5">
     <g id="line2d_9">
      <path d="M 523.965 436.837188 
L 523.965 36.877187 
" clip-path="url(#p49e3c16e92)" style="fill: none; stroke: #b0b0b0; stroke-opacity: 0.25; stroke-width: 0.8; stroke-linecap: square"/>
     </g>
     <g id="line2d_10">
      <g>
       <use xlink:href="#maa0f2f8b7d" x="523.965" y="436.837188" style="stroke: #000000; stroke-width: 0.8"/>
      </g>
     </g>
     <g id="text_5">
      <!-- 11 PM -->
      <g transform="translate(508.684531 451.435625) scale(0.1 -0.1)">
       <defs>
        <path id="DejaVuSans-31" d="M 794 531 
L 1825 531 
L 1825 4091 
L 703 3866 
L 703 4441 
L 1819 4666 
L 2450 4666 
L 2450 531 
L 3481 531 
L 3481 0 
L 794 0 
L 794 531 
z
" transform="scale(0.015625)"/>
       </defs>
       <use xlink:href="#DejaVuSans-31"/>
       <use xlink:href="#DejaVuSans-31" transform="translate(63.623047 0)"/>
       <use xlink:href="#DejaVuSans-20" transform="translate(127.246094 0)"/>
       <use xlink:href="#DejaVuSans-50" transform="translate(159.033203 0)"/>
       <use xlink:href="#DejaVuSans-4d" transform="translate(219.335938 0)"/>
      </g>
     </g>
    </g>
    <g id="xtick_6">
     <g id="line2d_11">
      <path d="M 650.981667 436.837188 
L 650.981667 36.877187 
" clip-path="url(#p49e3c16e92)" style="fill: none; stroke: #b0b0b0; stroke-opacity: 0.25; stroke-width: 0.8; stroke-linecap: square"/>
     </g>
     <g id="line2d_12">
      <g>
       <use xlink:href="#maa0f2f8b7d" x="650.981667" y="436.837188" style="stroke: #000000; stroke-width: 0.8"/>
      </g>
     </g>
     <g id="text_6">
      <!-- 3 AM -->
      <g transform="translate(638.476979 451.435625) scale(0.1 -0.1)">
       <defs>
        <path id="DejaVuSans-33" d="M 2597 2516 
Q 3050 2419 3304 2112 
Q 3559 1806 3559 1356 
Q 3559 666 3084 287 
Q 2609 -91 1734 -91 
Q 1441 -91 1130 -33 
Q 819 25 488 141 
L 488 750 
Q 750 597 1062 519 
Q 1375 441 1716 441 
Q 2309 441 2620 675 
Q 2931 909 2931 1356 
Q 2931 1769 2642 2001 
Q 2353 2234 1838 2234 
L 1294 2234 
L 1294 2753 
L 1863 2753 
Q 2328 2753 2575 2939 
Q 2822 3125 2822 3475 
Q 2822 3834 2567 4026 
Q 2313 4219 1838 4219 
Q 1578 4219 1281 4162 
Q 984 4106 628 3988 
L 628 4550 
Q 988 4650 1302 4700 
Q 1616 4750 1894 4750 
Q 2613 4750 3031 4423 
Q 3450 4097 3450 3541 
Q 3450 3153 3228 2886 
Q 3006 2619 2597 2516 
z
" transform="scale(0.015625)"/>
       </defs>
       <use xlink:href="#DejaVuSans-33"/>
       <use xlink:href="#DejaVuSans-20" transform="translate(63.623047 0)"/>
       <use xlink:href="#DejaVuSans-41" transform="translate(95.410156 0)"/>
       <use xlink:href="#DejaVuSans-4d" transform="translate(163.818359 0)"/>
      </g>
     </g>
    </g>
    <g id="xtick_7">
     <g id="line2d_13">
      <path d="M 777.998333 436.837188 
L 777.998333 36.877187 
" clip-path="url(#p49e3c16e92)" style="fill: none; stroke: #b0b0b0; stroke-opacity: 0.25; stroke-width: 0.8; stroke-linecap: square"/>
     </g>
     <g id="line2d_14">
      <g>
       <use xlink:href="#maa0f2f8b7d" x="777.998333" y="436.837188" style="stroke: #000000; stroke-width: 0.8"/>
      </g>
     </g>
     <g id="text_7">
      <!-- 7 AM -->
      <g transform="translate(765.493646 451.435625) scale(0.1 -0.1)">
       <defs>
        <path id="DejaVuSans-37" d="M 525 4666 
L 3525 4666 
L 3525 4397 
L 1831 0 
L 1172 0 
L 2766 4134 
L 525 4134 
L 525 4666 
z
" transform="scale(0.015625)"/>
       </defs>
       <use xlink:href="#DejaVuSans-37"/>
       <use xlink:href="#DejaVuSans-20" transform="translate(63.623047 0)"/>
       <use xlink:href="#DejaVuSans-41" transform="translate(95.410156 0)"/>
       <use xlink:href="#DejaVuSans-4d" transform="translate(163.818359 0)"/>
      </g>
     </g>
    </g>
    <g id="xtick_8">
     <g id="line2d_15">
      <path d="M 809.7525 436.837188 
L 809.7525 36.877187 
" clip-path="url(#p49e3c16e92)" style="fill: none; stroke: #b0b0b0; stroke-opacity: 0.25; stroke-width: 0.8; stroke-linecap: square"/>
     </g>
     <g id="line2d_16">
      <g>
       <use xlink:href="#maa0f2f8b7d" x="809.7525" y="436.837188" style="stroke: #000000; stroke-width: 0.8"/>
      </g>
     </g>
     <g id="text_8">
      <!-- 8 AM -->
      <g transform="translate(797.247812 451.435625) scale(0.1 -0.1)">
       <use xlink:href="#DejaVuSans-38"/>
       <use xlink:href="#DejaVuSans-20" transform="translate(63.623047 0)"/>
       <use xlink:href="#DejaVuSans-41" transform="translate(95.410156 0)"/>
       <use xlink:href="#DejaVuSans-4d" transform="translate(163.818359 0)"/>
      </g>
     </g>
    </g>
    <g id="text_9">
     <!-- Time of day -->
     <g transform="translate(387.502031 468.153125) scale(0.14 -0.14)">
      <defs>
       <path id="DejaVuSans-54" d="M -19 4666 
L 3928 4666 
L 3928 4134 
L 2272 4134 
L 2272 0 
L 1638 0 
L 1638 4134 
L -19 4134 
L -19 4666 
z
" transform="scale(0.015625)"/>
       <path id="DejaVuSans-69" d="M 603 3500 
L 1178 3500 
L 1178 0 
L 603 0 
L 603 3500 
z
M 603 4863 
L 1178 4863 
L 1178 4134 
L 603 4134 
L 603 4863 
z
" transform="scale(0.015625)"/>
       <path id="DejaVuSans-6d" d="M 3328 2828 
Q 3544 3216 3844 3400 
Q 4144 3584 4550 3584 
Q 5097 3584 5394 3201 
Q 5691 2819 5691 2113 
L 5691 0 
L 5113 0 
L 5113 2094 
Q 5113 2597 4934 2840 
Q 4756 3084 4391 3084 
Q 3944 3084 3684 2787 
Q 3425 2491 3425 1978 
L 3425 0 
L 2847 0 
L 2847 2094 
Q 2847 2600 2669 2842 
Q 2491 3084 2119 3084 
Q 1678 3084 1418 2786 
Q 1159 2488 1159 1978 
L 1159 0 
L 581 0 
L 581 3500 
L 1159 3500 
L 1159 2956 
Q 1356 3278 1631 3431 
Q 1906 3584 2284 3584 
Q 2666 3584 2933 3390 
Q 3200 3197 3328 2828 
z
" transform="scale(0.015625)"/>
       <path id="DejaVuSans-65" d="M 3597 1894 
L 3597 1613 
L 953 1613 
Q 991 1019 1311 708 
Q 1631 397 2203 397 
Q 2534 397 2845 478 
Q 3156 559 3463 722 
L 3463 178 
Q 3153 47 2828 -22 
Q 2503 -91 2169 -91 
Q 1331 -91 842 396 
Q 353 884 353 1716 
Q 353 2575 817 3079 
Q 1281 3584 2069 3584 
Q 2775 3584 3186 3129 
Q 3597 2675 3597 1894 
z
M 3022 2063 
Q 3016 2534 2758 2815 
Q 2500 3097 2075 3097 
Q 1594 3097 1305 2825 
Q 1016 2553 972 2059 
L 3022 2063 
z
" transform="scale(0.015625)"/>
       <path id="DejaVuSans-66" d="M 2375 4863 
L 2375 4384 
L 1825 4384 
Q 1516 4384 1395 4259 
Q 1275 4134 1275 3809 
L 1275 3500 
L 2222 3500 
L 2222 3053 
L 1275 3053 
L 1275 0 
L 697 0 
L 697 3053 
L 147 3053 
L 147 3500 
L 697 3500 
L 697 3744 
Q 697 4328 969 4595 
Q 1241 4863 1831 4863 
L 2375 4863 
z
" transform="scale(0.015625)"/>
       <path id="DejaVuSans-64" d="M 2906 2969 
L 2906 4863 
L 3481 4863 
L 3481 0 
L 2906 0 
L 2906 525 
Q 2725 213 2448 61 
Q 2172 -91 1784 -91 
Q 1150 -91 751 415 
Q 353 922 353 1747 
Q 353 2572 751 3078 
Q 1150 3584 1784 3584 
Q 2172 3584 2448 3432 
Q 2725 3281 2906 2969 
z
M 947 1747 
Q 947 1113 1208 752 
Q 1469 391 1925 391 
Q 2381 391 2643 752 
Q 2906 1113 2906 1747 
Q 2906 2381 2643 2742 
Q 2381 3103 1925 3103 
Q 1469 3103 1208 2742 
Q 947 2381 947 1747 
z
" transform="scale(0.015625)"/>
       <path id="DejaVuSans-61" d="M 2194 1759 
Q 1497 1759 1228 1600 
Q 959 1441 959 1056 
Q 959 750 1161 570 
Q 1363 391 1709 391 
Q 2188 391 2477 730 
Q 2766 1069 2766 1631 
L 2766 1759 
L 2194 1759 
z
M 3341 1997 
L 3341 0 
L 2766 0 
L 2766 531 
Q 2569 213 2275 61 
Q 1981 -91 1556 -91 
Q 1019 -91 701 211 
Q 384 513 384 1019 
Q 384 1609 779 1909 
Q 1175 2209 1959 2209 
L 2766 2209 
L 2766 2266 
Q 2766 2663 2505 2880 
Q 2244 3097 1772 3097 
Q 1472 3097 1187 3025 
Q 903 2953 641 2809 
L 641 3341 
Q 956 3463 1253 3523 
Q 1550 3584 1831 3584 
Q 2591 3584 2966 3190 
Q 3341 2797 3341 1997 
z
" transform="scale(0.015625)"/>
       <path id="DejaVuSans-79" d="M 2059 -325 
Q 1816 -950 1584 -1140 
Q 1353 -1331 966 -1331 
L 506 -1331 
L 506 -850 
L 844 -850 
Q 1081 -850 1212 -737 
Q 1344 -625 1503 -206 
L 1606 56 
L 191 3500 
L 800 3500 
L 1894 763 
L 2988 3500 
L 3597 3500 
L 2059 -325 
z
" transform="scale(0.015625)"/>
      </defs>
      <use xlink:href="#DejaVuSans-54"/>
      <use xlink:href="#DejaVuSans-69" transform="translate(57.958984 0)"/>
      <use xlink:href="#DejaVuSans-6d" transform="translate(85.742188 0)"/>
      <use xlink:href="#DejaVuSans-65" transform="translate(183.154297 0)"/>
      <use xlink:href="#DejaVuSans-20" transform="translate(244.677734 0)"/>
      <use xlink:href="#DejaVuSans-6f" transform="translate(276.464844 0)"/>
      <use xlink:href="#DejaVuSans-66" transform="translate(337.646484 0)"/>
      <use xlink:href="#DejaVuSans-20" transform="translate(372.851562 0)"/>
      <use xlink:href="#DejaVuSans-64" transform="translate(404.638672 0)"/>
      <use xlink:href="#DejaVuSans-61" transform="translate(468.115234 0)"/>
      <use xlink:href="#DejaVuSans-79" transform="translate(529.394531 0)"/>
     </g>
    </g>
   </g>
   <g id="matplotlib.axis_2">
    <g id="ytick_1">
     <g id="line2d_17">
      <path d="M 47.6525 436.837188 
L 809.7525 436.837188 
" clip-path="url(#p49e3c16e92)" style="fill: none; stroke: #b0b0b0; stroke-opacity: 0.25; stroke-width: 0.8; stroke-linecap: square"/>
     </g>
     <g id="line2d_18">
      <defs>
       <path id="m8af3f2ae90" d="M 0 0 
L -3.5 0 
" style="stroke: #000000; stroke-width: 0.8"/>
      </defs>
      <g>
       <use xlink:href="#m8af3f2ae90" x="47.6525" y="436.837188" style="stroke: #000000; stroke-width: 0.8"/>
      </g>
     </g>
     <g id="text_10">
      <!-- 0.0 -->
      <g transform="translate(24.749375 440.636406) scale(0.1 -0.1)">
       <defs>
        <path id="DejaVuSans-30" d="M 2034 4250 
Q 1547 4250 1301 3770 
Q 1056 3291 1056 2328 
Q 1056 1369 1301 889 
Q 1547 409 2034 409 
Q 2525 409 2770 889 
Q 3016 1369 3016 2328 
Q 3016 3291 2770 3770 
Q 2525 4250 2034 4250 
z
M 2034 4750 
Q 2819 4750 3233 4129 
Q 3647 3509 3647 2328 
Q 3647 1150 3233 529 
Q 2819 -91 2034 -91 
Q 1250 -91 836 529 
Q 422 1150 422 2328 
Q 422 3509 836 4129 
Q 1250 4750 2034 4750 
z
" transform="scale(0.015625)"/>
        <path id="DejaVuSans-2e" d="M 684 794 
L 1344 794 
L 1344 0 
L 684 0 
L 684 794 
z
" transform="scale(0.015625)"/>
       </defs>
       <use xlink:href="#DejaVuSans-30"/>
       <use xlink:href="#DejaVuSans-2e" transform="translate(63.623047 0)"/>
       <use xlink:href="#DejaVuSans-30" transform="translate(95.410156 0)"/>
      </g>
     </g>
    </g>
    <g id="ytick_2">
     <g id="line2d_19">
      <path d="M 47.6525 367.278927 
L 809.7525 367.278927 
" clip-path="url(#p49e3c16e92)" style="fill: none; stroke: #b0b0b0; stroke-opacity: 0.25; stroke-width: 0.8; stroke-linecap: square"/>
     </g>
     <g id="line2d_20">
      <g>
       <use xlink:href="#m8af3f2ae90" x="47.6525" y="367.278927" style="stroke: #000000; stroke-width: 0.8"/>
      </g>
     </g>
     <g id="text_11">
      <!-- 0.2 -->
      <g transform="translate(24.749375 371.078145) scale(0.1 -0.1)">
       <defs>
        <path id="DejaVuSans-32" d="M 1228 531 
L 3431 531 
L 3431 0 
L 469 0 
L 469 531 
Q 828 903 1448 1529 
Q 2069 2156 2228 2338 
Q 2531 2678 2651 2914 
Q 2772 3150 2772 3378 
Q 2772 3750 2511 3984 
Q 2250 4219 1831 4219 
Q 1534 4219 1204 4116 
Q 875 4013 500 3803 
L 500 4441 
Q 881 4594 1212 4672 
Q 1544 4750 1819 4750 
Q 2544 4750 2975 4387 
Q 3406 4025 3406 3419 
Q 3406 3131 3298 2873 
Q 3191 2616 2906 2266 
Q 2828 2175 2409 1742 
Q 1991 1309 1228 531 
z
" transform="scale(0.015625)"/>
       </defs>
       <use xlink:href="#DejaVuSans-30"/>
       <use xlink:href="#DejaVuSans-2e" transform="translate(63.623047 0)"/>
       <use xlink:href="#DejaVuSans-32" transform="translate(95.410156 0)"/>
      </g>
     </g>
    </g>
    <g id="ytick_3">
     <g id="line2d_21">
      <path d="M 47.6525 297.720666 
L 809.7525 297.720666 
" clip-path="url(#p49e3c16e92)" style="fill: none; stroke: #b0b0b0; stroke-opacity: 0.25; stroke-width: 0.8; stroke-linecap: square"/>
     </g>
     <g id="line2d_22">
      <g>
       <use xlink:href="#m8af3f2ae90" x="47.6525" y="297.720666" style="stroke: #000000; stroke-width: 0.8"/>
      </g>
     </g>
     <g id="text_12">
      <!-- 0.4 -->
      <g transform="translate(24.749375 301.519885) scale(0.1 -0.1)">
       <use xlink:href="#DejaVuSans-30"/>
       <use xlink:href="#DejaVuSans-2e" transform="translate(63.623047 0)"/>
       <use xlink:href="#DejaVuSans-34" transform="translate(95.410156 0)"/>
      </g>
     </g>
    </g>
    <g id="ytick_4">
     <g id="line2d_23">
      <path d="M 47.6525 228.162405 
L 809.7525 228.162405 
" clip-path="url(#p49e3c16e92)" style="fill: none; stroke: #b0b0b0; stroke-opacity: 0.25; stroke-width: 0.8; stroke-linecap: square"/>
     </g>
     <g id="line2d_24">
      <g>
       <use xlink:href="#m8af3f2ae90" x="47.6525" y="228.162405" style="stroke: #000000; stroke-width: 0.8"/>
      </g>
     </g>
     <g id="text_13">
      <!-- 0.6 -->
      <g transform="translate(24.749375 231.961624) scale(0.1 -0.1)">
       <defs>
        <path id="DejaVuSans-36" d="M 2113 2584 
Q 1688 2584 1439 2293 
Q 1191 2003 1191 1497 
Q 1191 994 1439 701 
Q 1688 409 2113 409 
Q 2538 409 2786 701 
Q 3034 994 3034 1497 
Q 3034 2003 2786 2293 
Q 2538 2584 2113 2584 
z
M 3366 4563 
L 3366 3988 
Q 3128 4100 2886 4159 
Q 2644 4219 2406 4219 
Q 1781 4219 1451 3797 
Q 1122 3375 1075 2522 
Q 1259 2794 1537 2939 
Q 1816 3084 2150 3084 
Q 2853 3084 3261 2657 
Q 3669 2231 3669 1497 
Q 3669 778 3244 343 
Q 2819 -91 2113 -91 
Q 1303 -91 875 529 
Q 447 1150 447 2328 
Q 447 3434 972 4092 
Q 1497 4750 2381 4750 
Q 2619 4750 2861 4703 
Q 3103 4656 3366 4563 
z
" transform="scale(0.015625)"/>
       </defs>
       <use xlink:href="#DejaVuSans-30"/>
       <use xlink:href="#DejaVuSans-2e" transform="translate(63.623047 0)"/>
       <use xlink:href="#DejaVuSans-36" transform="translate(95.410156 0)"/>
      </g>
     </g>
    </g>
    <g id="ytick_5">
     <g id="line2d_25">
      <path d="M 47.6525 158.604144 
L 809.7525 158.604144 
" clip-path="url(#p49e3c16e92)" style="fill: none; stroke: #b0b0b0; stroke-opacity: 0.25; stroke-width: 0.8; stroke-linecap: square"/>
     </g>
     <g id="line2d_26">
      <g>
       <use xlink:href="#m8af3f2ae90" x="47.6525" y="158.604144" style="stroke: #000000; stroke-width: 0.8"/>
      </g>
     </g>
     <g id="text_14">
      <!-- 0.8 -->
      <g transform="translate(24.749375 162.403363) scale(0.1 -0.1)">
       <use xlink:href="#DejaVuSans-30"/>
       <use xlink:href="#DejaVuSans-2e" transform="translate(63.623047 0)"/>
       <use xlink:href="#DejaVuSans-38" transform="translate(95.410156 0)"/>
      </g>
     </g>
    </g>
    <g id="ytick_6">
     <g id="line2d_27">
      <path d="M 47.6525 89.045883 
L 809.7525 89.045883 
" clip-path="url(#p49e3c16e92)" style="fill: none; stroke: #b0b0b0; stroke-opacity: 0.25; stroke-width: 0.8; stroke-linecap: square"/>
     </g>
     <g id="line2d_28">
      <g>
       <use xlink:href="#m8af3f2ae90" x="47.6525" y="89.045883" style="stroke: #000000; stroke-width: 0.8"/>
      </g>
     </g>
     <g id="text_15">
      <!-- 1.0 -->
      <g transform="translate(24.749375 92.845102) scale(0.1 -0.1)">
       <use xlink:href="#DejaVuSans-31"/>
       <use xlink:href="#DejaVuSans-2e" transform="translate(63.623047 0)"/>
       <use xlink:href="#DejaVuSans-30" transform="translate(95.410156 0)"/>
      </g>
     </g>
    </g>
    <g id="text_16">
     <!-- Relative signal strength -->
     <g transform="translate(17.837813 319.720781) rotate(-90) scale(0.14 -0.14)">
      <defs>
       <path id="DejaVuSans-52" d="M 2841 2188 
Q 3044 2119 3236 1894 
Q 3428 1669 3622 1275 
L 4263 0 
L 3584 0 
L 2988 1197 
Q 2756 1666 2539 1819 
Q 2322 1972 1947 1972 
L 1259 1972 
L 1259 0 
L 628 0 
L 628 4666 
L 2053 4666 
Q 2853 4666 3247 4331 
Q 3641 3997 3641 3322 
Q 3641 2881 3436 2590 
Q 3231 2300 2841 2188 
z
M 1259 4147 
L 1259 2491 
L 2053 2491 
Q 2509 2491 2742 2702 
Q 2975 2913 2975 3322 
Q 2975 3731 2742 3939 
Q 2509 4147 2053 4147 
L 1259 4147 
z
" transform="scale(0.015625)"/>
       <path id="DejaVuSans-6c" d="M 603 4863 
L 1178 4863 
L 1178 0 
L 603 0 
L 603 4863 
z
" transform="scale(0.015625)"/>
       <path id="DejaVuSans-74" d="M 1172 4494 
L 1172 3500 
L 2356 3500 
L 2356 3053 
L 1172 3053 
L 1172 1153 
Q 1172 725 1289 603 
Q 1406 481 1766 481 
L 2356 481 
L 2356 0 
L 1766 0 
Q 1100 0 847 248 
Q 594 497 594 1153 
L 594 3053 
L 172 3053 
L 172 3500 
L 594 3500 
L 594 4494 
L 1172 4494 
z
" transform="scale(0.015625)"/>
       <path id="DejaVuSans-76" d="M 191 3500 
L 800 3500 
L 1894 563 
L 2988 3500 
L 3597 3500 
L 2284 0 
L 1503 0 
L 191 3500 
z
" transform="scale(0.015625)"/>
       <path id="DejaVuSans-73" d="M 2834 3397 
L 2834 2853 
Q 2591 2978 2328 3040 
Q 2066 3103 1784 3103 
Q 1356 3103 1142 2972 
Q 928 2841 928 2578 
Q 928 2378 1081 2264 
Q 1234 2150 1697 2047 
L 1894 2003 
Q 2506 1872 2764 1633 
Q 3022 1394 3022 966 
Q 3022 478 2636 193 
Q 2250 -91 1575 -91 
Q 1294 -91 989 -36 
Q 684 19 347 128 
L 347 722 
Q 666 556 975 473 
Q 1284 391 1588 391 
Q 1994 391 2212 530 
Q 2431 669 2431 922 
Q 2431 1156 2273 1281 
Q 2116 1406 1581 1522 
L 1381 1569 
Q 847 1681 609 1914 
Q 372 2147 372 2553 
Q 372 3047 722 3315 
Q 1072 3584 1716 3584 
Q 2034 3584 2315 3537 
Q 2597 3491 2834 3397 
z
" transform="scale(0.015625)"/>
       <path id="DejaVuSans-67" d="M 2906 1791 
Q 2906 2416 2648 2759 
Q 2391 3103 1925 3103 
Q 1463 3103 1205 2759 
Q 947 2416 947 1791 
Q 947 1169 1205 825 
Q 1463 481 1925 481 
Q 2391 481 2648 825 
Q 2906 1169 2906 1791 
z
M 3481 434 
Q 3481 -459 3084 -895 
Q 2688 -1331 1869 -1331 
Q 1566 -1331 1297 -1286 
Q 1028 -1241 775 -1147 
L 775 -588 
Q 1028 -725 1275 -790 
Q 1522 -856 1778 -856 
Q 2344 -856 2625 -561 
Q 2906 -266 2906 331 
L 2906 616 
Q 2728 306 2450 153 
Q 2172 0 1784 0 
Q 1141 0 747 490 
Q 353 981 353 1791 
Q 353 2603 747 3093 
Q 1141 3584 1784 3584 
Q 2172 3584 2450 3431 
Q 2728 3278 2906 2969 
L 2906 3500 
L 3481 3500 
L 3481 434 
z
" transform="scale(0.015625)"/>
       <path id="DejaVuSans-72" d="M 2631 2963 
Q 2534 3019 2420 3045 
Q 2306 3072 2169 3072 
Q 1681 3072 1420 2755 
Q 1159 2438 1159 1844 
L 1159 0 
L 581 0 
L 581 3500 
L 1159 3500 
L 1159 2956 
Q 1341 3275 1631 3429 
Q 1922 3584 2338 3584 
Q 2397 3584 2469 3576 
Q 2541 3569 2628 3553 
L 2631 2963 
z
" transform="scale(0.015625)"/>
       <path id="DejaVuSans-68" d="M 3513 2113 
L 3513 0 
L 2938 0 
L 2938 2094 
Q 2938 2591 2744 2837 
Q 2550 3084 2163 3084 
Q 1697 3084 1428 2787 
Q 1159 2491 1159 1978 
L 1159 0 
L 581 0 
L 581 4863 
L 1159 4863 
L 1159 2956 
Q 1366 3272 1645 3428 
Q 1925 3584 2291 3584 
Q 2894 3584 3203 3211 
Q 3513 2838 3513 2113 
z
" transform="scale(0.015625)"/>
      </defs>
      <use xlink:href="#DejaVuSans-52"/>
      <use xlink:href="#DejaVuSans-65" transform="translate(64.982422 0)"/>
      <use xlink:href="#DejaVuSans-6c" transform="translate(126.505859 0)"/>
      <use xlink:href="#DejaVuSans-61" transform="translate(154.289062 0)"/>
      <use xlink:href="#DejaVuSans-74" transform="translate(215.568359 0)"/>
      <use xlink:href="#DejaVuSans-69" transform="translate(254.777344 0)"/>
      <use xlink:href="#DejaVuSans-76" transform="translate(282.560547 0)"/>
      <use xlink:href="#DejaVuSans-65" transform="translate(341.740234 0)"/>
      <use xlink:href="#DejaVuSans-20" transform="translate(403.263672 0)"/>
      <use xlink:href="#DejaVuSans-73" transform="translate(435.050781 0)"/>
      <use xlink:href="#DejaVuSans-69" transform="translate(487.150391 0)"/>
      <use xlink:href="#DejaVuSans-67" transform="translate(514.933594 0)"/>
      <use xlink:href="#DejaVuSans-6e" transform="translate(578.410156 0)"/>
      <use xlink:href="#DejaVuSans-61" transform="translate(641.789062 0)"/>
      <use xlink:href="#DejaVuSans-6c" transform="translate(703.068359 0)"/>
      <use xlink:href="#DejaVuSans-20" transform="translate(730.851562 0)"/>
      <use xlink:href="#DejaVuSans-73" transform="translate(762.638672 0)"/>
      <use xlink:href="#DejaVuSans-74" transform="translate(814.738281 0)"/>
      <use xlink:href="#DejaVuSans-72" transform="translate(853.947266 0)"/>
      <use xlink:href="#DejaVuSans-65" transform="translate(892.810547 0)"/>
      <use xlink:href="#DejaVuSans-6e" transform="translate(954.333984 0)"/>
      <use xlink:href="#DejaVuSans-67" transform="translate(1017.712891 0)"/>
      <use xlink:href="#DejaVuSans-74" transform="translate(1081.189453 0)"/>
      <use xlink:href="#DejaVuSans-68" transform="translate(1120.398438 0)"/>
     </g>
    </g>
   </g>
   <g id="line2d_29">
    <path d="M 47.6525 349.889361 
L 58.766458 340.917759 
L 69.880417 332.25473 
L 80.994375 323.889663 
L 92.108333 315.812309 
L 103.222292 308.012772 
L 114.33625 300.481497 
L 125.450208 293.209257 
L 136.564167 286.187143 
L 147.678125 279.406552 
L 158.792083 272.859176 
L 171.49375 265.651753 
L 184.195417 258.726938 
L 196.897083 252.073649 
L 209.59875 245.681239 
L 222.300417 239.539478 
L 235.002083 233.63854 
L 247.70375 227.968981 
L 260.405417 222.521728 
L 274.694792 216.648455 
L 288.984167 211.033621 
L 303.273542 205.665853 
L 317.562917 200.534281 
L 331.852292 195.62851 
L 346.141667 190.938606 
L 362.01875 185.96924 
L 377.895833 181.242232 
L 393.772917 176.745763 
L 409.65 172.468589 
L 427.114792 168.004235 
L 444.579583 163.778791 
L 462.044375 159.77947 
L 479.509167 155.994173 
L 498.561667 152.095408 
L 517.614167 148.42369 
L 522.377292 147.539669 
L 527.140417 159.952677 
L 531.903542 171.760296 
L 536.666667 182.99205 
L 541.429792 193.676026 
L 546.192917 203.838937 
L 550.956042 213.506198 
L 555.719167 222.701981 
L 560.482292 231.44928 
L 565.245417 239.769968 
L 570.008542 247.684851 
L 574.771667 255.213721 
L 579.534792 262.375404 
L 584.297917 269.187808 
L 589.061042 275.667966 
L 593.824167 281.832084 
L 598.587292 287.695573 
L 603.350417 293.273098 
L 608.113542 298.578603 
L 612.876667 303.625355 
L 617.639792 308.425975 
L 623.990625 314.46459 
L 630.341458 320.113757 
L 636.692292 325.398592 
L 643.043125 330.342592 
L 649.393958 334.967738 
L 655.744792 339.294595 
L 662.095625 343.3424 
L 668.446458 347.12915 
L 674.797292 350.671681 
L 681.148125 353.985743 
L 687.498958 357.086072 
L 695.4375 360.681833 
L 703.376042 363.990093 
L 711.314583 367.03384 
L 719.253125 369.834221 
L 727.191667 372.410697 
L 735.130208 374.781169 
L 744.656458 377.376908 
L 754.182708 379.72563 
L 763.708958 381.850841 
L 774.822917 384.076024 
L 777.998333 384.665545 
L 787.524583 375.928664 
L 798.638542 366.06145 
L 809.7525 356.533615 
L 809.7525 356.533615 
" clip-path="url(#p49e3c16e92)" style="fill: none; stroke: #1f77b4; stroke-width: 3; stroke-linecap: square"/>
   </g>
   <g id="line2d_30">
    <path d="M 47.6525 346.344541 
L 54.003333 343.490408 
L 60.354167 340.396432 
L 66.705 337.071092 
L 73.055833 333.523502 
L 79.406667 329.763386 
L 87.345208 324.780132 
L 95.28375 319.502289 
L 103.222292 313.952458 
L 111.160833 308.154405 
L 120.687083 300.904114 
L 130.213333 293.376886 
L 141.327292 284.307098 
L 154.028958 273.655195 
L 173.081458 257.351443 
L 198.484792 235.630494 
L 211.186458 225.045335 
L 222.300417 216.057518 
L 231.826667 208.617525 
L 241.352917 201.469572 
L 249.291458 195.767886 
L 257.23 190.324061 
L 265.168542 185.16141 
L 273.107083 180.30204 
L 279.457917 176.646934 
L 285.80875 173.209291 
L 292.159583 169.998533 
L 298.510417 167.023459 
L 304.86125 164.292224 
L 311.212083 161.812315 
L 317.562917 159.590529 
L 323.91375 157.632955 
L 330.264583 155.944959 
L 336.615417 154.531168 
L 342.96625 153.395457 
L 349.317083 152.540939 
L 355.667917 151.969955 
L 362.01875 151.684072 
L 368.369583 151.684072 
L 374.720417 151.969955 
L 381.07125 152.540939 
L 387.422083 153.395457 
L 393.772917 154.531168 
L 400.12375 155.944959 
L 406.474583 157.632955 
L 412.825417 159.590529 
L 419.17625 161.812315 
L 425.527083 164.292224 
L 431.877917 167.023459 
L 438.22875 169.998533 
L 444.579583 173.209291 
L 450.930417 176.646934 
L 457.28125 180.30204 
L 465.219792 185.16141 
L 473.158333 190.324061 
L 481.096875 195.767886 
L 489.035417 201.469572 
L 498.561667 208.617525 
L 508.087917 216.057518 
L 519.201875 225.045335 
L 531.903542 235.630494 
L 549.368333 250.525112 
L 581.1225 277.678673 
L 593.824167 288.227736 
L 604.938125 297.172253 
L 614.464375 304.566714 
L 623.990625 311.661656 
L 631.929167 317.313689 
L 639.867708 322.703107 
L 647.80625 327.80683 
L 655.744792 332.603004 
L 662.095625 336.20466 
L 668.446458 339.586442 
L 674.797292 342.73908 
L 681.148125 345.653932 
L 687.498958 348.323011 
L 693.849792 350.738999 
L 700.200625 352.895275 
L 706.551458 354.785929 
L 712.902292 356.405778 
L 719.253125 357.750383 
L 725.603958 358.816057 
L 731.954792 359.599881 
L 738.305625 360.099706 
L 744.656458 360.314162 
L 751.007292 360.24266 
L 757.358125 359.885398 
L 763.708958 359.243353 
L 770.059792 358.318287 
L 776.410625 357.112734 
L 782.761458 355.629999 
L 789.112292 353.874146 
L 795.463125 351.849987 
L 801.813958 349.563071 
L 808.164792 347.019667 
L 809.7525 346.344541 
L 809.7525 346.344541 
" clip-path="url(#p49e3c16e92)" style="fill: none; stroke-dasharray: 11.1,4.8; stroke-dashoffset: 0; stroke: #ff7f0e; stroke-width: 3"/>
   </g>
   <g id="patch_4">
    <path d="M 47.6525 436.837188 
L 47.6525 36.877187 
" style="fill: none; stroke: #000000; stroke-width: 0.8; stroke-linejoin: miter; stroke-linecap: square"/>
   </g>
   <g id="patch_5">
    <path d="M 47.6525 436.837188 
L 809.7525 436.837188 
" style="fill: none; stroke: #000000; stroke-width: 0.8; stroke-linejoin: miter; stroke-linecap: square"/>
   </g>
   <g id="text_17">
    <!-- Sleep pressure falls during sleep -->
    <g transform="translate(528.728125 71.656318) scale(0.12 -0.12)">
     <defs>
      <path id="DejaVuSans-53" d="M 3425 4513 
L 3425 3897 
Q 3066 4069 2747 4153 
Q 2428 4238 2131 4238 
Q 1616 4238 1336 4038 
Q 1056 3838 1056 3469 
Q 1056 3159 1242 3001 
Q 1428 2844 1947 2747 
L 2328 2669 
Q 3034 2534 3370 2195 
Q 3706 1856 3706 1288 
Q 3706 609 3251 259 
Q 2797 -91 1919 -91 
Q 1588 -91 1214 -16 
Q 841 59 441 206 
L 441 856 
Q 825 641 1194 531 
Q 1563 422 1919 422 
Q 2459 422 2753 634 
Q 3047 847 3047 1241 
Q 3047 1584 2836 1778 
Q 2625 1972 2144 2069 
L 1759 2144 
Q 1053 2284 737 2584 
Q 422 2884 422 3419 
Q 422 4038 858 4394 
Q 1294 4750 2059 4750 
Q 2388 4750 2728 4690 
Q 3069 4631 3425 4513 
z
" transform="scale(0.015625)"/>
      <path id="DejaVuSans-70" d="M 1159 525 
L 1159 -1331 
L 581 -1331 
L 581 3500 
L 1159 3500 
L 1159 2969 
Q 1341 3281 1617 3432 
Q 1894 3584 2278 3584 
Q 2916 3584 3314 3078 
Q 3713 2572 3713 1747 
Q 3713 922 3314 415 
Q 2916 -91 2278 -91 
Q 1894 -91 1617 61 
Q 1341 213 1159 525 
z
M 3116 1747 
Q 3116 2381 2855 2742 
Q 2594 3103 2138 3103 
Q 1681 3103 1420 2742 
Q 1159 2381 1159 1747 
Q 1159 1113 1420 752 
Q 1681 391 2138 391 
Q 2594 391 2855 752 
Q 3116 1113 3116 1747 
z
" transform="scale(0.015625)"/>
      <path id="DejaVuSans-75" d="M 544 1381 
L 544 3500 
L 1119 3500 
L 1119 1403 
Q 1119 906 1312 657 
Q 1506 409 1894 409 
Q 2359 409 2629 706 
Q 2900 1003 2900 1516 
L 2900 3500 
L 3475 3500 
L 3475 0 
L 2900 0 
L 2900 538 
Q 2691 219 2414 64 
Q 2138 -91 1772 -91 
Q 1169 -91 856 284 
Q 544 659 544 1381 
z
M 1991 3584 
L 1991 3584 
z
" transform="scale(0.015625)"/>
     </defs>
     <use xlink:href="#DejaVuSans-53"/>
     <use xlink:href="#DejaVuSans-6c" transform="translate(63.476562 0)"/>
     <use xlink:href="#DejaVuSans-65" transform="translate(91.259766 0)"/>
     <use xlink:href="#DejaVuSans-65" transform="translate(152.783203 0)"/>
     <use xlink:href="#DejaVuSans-70" transform="translate(214.306641 0)"/>
     <use xlink:href="#DejaVuSans-20" transform="translate(277.783203 0)"/>
     <use xlink:href="#DejaVuSans-70" transform="translate(309.570312 0)"/>
     <use xlink:href="#DejaVuSans-72" transform="translate(373.046875 0)"/>
     <use xlink:href="#DejaVuSans-65" transform="translate(411.910156 0)"/>
     <use xlink:href="#DejaVuSans-73" transform="translate(473.433594 0)"/>
     <use xlink:href="#DejaVuSans-73" transform="translate(525.533203 0)"/>
     <use xlink:href="#DejaVuSans-75" transform="translate(577.632812 0)"/>
     <use xlink:href="#DejaVuSans-72" transform="translate(641.011719 0)"/>
     <use xlink:href="#DejaVuSans-65" transform="translate(679.875 0)"/>
     <use xlink:href="#DejaVuSans-20" transform="translate(741.398438 0)"/>
     <use xlink:href="#DejaVuSans-66" transform="translate(773.185547 0)"/>
     <use xlink:href="#DejaVuSans-61" transform="translate(808.390625 0)"/>
     <use xlink:href="#DejaVuSans-6c" transform="translate(869.669922 0)"/>
     <use xlink:href="#DejaVuSans-6c" transform="translate(897.453125 0)"/>
     <use xlink:href="#DejaVuSans-73" transform="translate(925.236328 0)"/>
     <use xlink:href="#DejaVuSans-20" transform="translate(977.335938 0)"/>
     <use xlink:href="#DejaVuSans-64" transform="translate(1009.123047 0)"/>
     <use xlink:href="#DejaVuSans-75" transform="translate(1072.599609 0)"/>
     <use xlink:href="#DejaVuSans-72" transform="translate(1135.978516 0)"/>
     <use xlink:href="#DejaVuSans-69" transform="translate(1177.091797 0)"/>
     <use xlink:href="#DejaVuSans-6e" transform="translate(1204.875 0)"/>
     <use xlink:href="#DejaVuSans-67" transform="translate(1268.253906 0)"/>
     <use xlink:href="#DejaVuSans-20" transform="translate(1331.730469 0)"/>
     <use xlink:href="#DejaVuSans-73" transform="translate(1363.517578 0)"/>
     <use xlink:href="#DejaVuSans-6c" transform="translate(1415.617188 0)"/>
     <use xlink:href="#DejaVuSans-65" transform="translate(1443.400391 0)"/>
     <use xlink:href="#DejaVuSans-65" transform="translate(1504.923828 0)"/>
     <use xlink:href="#DejaVuSans-70" transform="translate(1566.447266 0)"/>
    </g>
   </g>
   <g id="text_18">
    <!-- Sleep pressure builds while awake -->
    <g transform="translate(244.528333 113.391274) scale(0.12 -0.12)">
     <defs>
      <path id="DejaVuSans-62" d="M 3116 1747 
Q 3116 2381 2855 2742 
Q 2594 3103 2138 3103 
Q 1681 3103 1420 2742 
Q 1159 2381 1159 1747 
Q 1159 1113 1420 752 
Q 1681 391 2138 391 
Q 2594 391 2855 752 
Q 3116 1113 3116 1747 
z
M 1159 2969 
Q 1341 3281 1617 3432 
Q 1894 3584 2278 3584 
Q 2916 3584 3314 3078 
Q 3713 2572 3713 1747 
Q 3713 922 3314 415 
Q 2916 -91 2278 -91 
Q 1894 -91 1617 61 
Q 1341 213 1159 525 
L 1159 0 
L 581 0 
L 581 4863 
L 1159 4863 
L 1159 2969 
z
" transform="scale(0.015625)"/>
      <path id="DejaVuSans-77" d="M 269 3500 
L 844 3500 
L 1563 769 
L 2278 3500 
L 2956 3500 
L 3675 769 
L 4391 3500 
L 4966 3500 
L 4050 0 
L 3372 0 
L 2619 2869 
L 1863 0 
L 1184 0 
L 269 3500 
z
" transform="scale(0.015625)"/>
      <path id="DejaVuSans-6b" d="M 581 4863 
L 1159 4863 
L 1159 1991 
L 2875 3500 
L 3609 3500 
L 1753 1863 
L 3688 0 
L 2938 0 
L 1159 1709 
L 1159 0 
L 581 0 
L 581 4863 
z
" transform="scale(0.015625)"/>
     </defs>
     <use xlink:href="#DejaVuSans-53"/>
     <use xlink:href="#DejaVuSans-6c" transform="translate(63.476562 0)"/>
     <use xlink:href="#DejaVuSans-65" transform="translate(91.259766 0)"/>
     <use xlink:href="#DejaVuSans-65" transform="translate(152.783203 0)"/>
     <use xlink:href="#DejaVuSans-70" transform="translate(214.306641 0)"/>
     <use xlink:href="#DejaVuSans-20" transform="translate(277.783203 0)"/>
     <use xlink:href="#DejaVuSans-70" transform="translate(309.570312 0)"/>
     <use xlink:href="#DejaVuSans-72" transform="translate(373.046875 0)"/>
     <use xlink:href="#DejaVuSans-65" transform="translate(411.910156 0)"/>
     <use xlink:href="#DejaVuSans-73" transform="translate(473.433594 0)"/>
     <use xlink:href="#DejaVuSans-73" transform="translate(525.533203 0)"/>
     <use xlink:href="#DejaVuSans-75" transform="translate(577.632812 0)"/>
     <use xlink:href="#DejaVuSans-72" transform="translate(641.011719 0)"/>
     <use xlink:href="#DejaVuSans-65" transform="translate(679.875 0)"/>
     <use xlink:href="#DejaVuSans-20" transform="translate(741.398438 0)"/>
     <use xlink:href="#DejaVuSans-62" transform="translate(773.185547 0)"/>
     <use xlink:href="#DejaVuSans-75" transform="translate(836.662109 0)"/>
     <use xlink:href="#DejaVuSans-69" transform="translate(900.041016 0)"/>
     <use xlink:href="#DejaVuSans-6c" transform="translate(927.824219 0)"/>
     <use xlink:href="#DejaVuSans-64" transform="translate(955.607422 0)"/>
     <use xlink:href="#DejaVuSans-73" transform="translate(1019.083984 0)"/>
     <use xlink:href="#DejaVuSans-20" transform="translate(1071.183594 0)"/>
     <use xlink:href="#DejaVuSans-77" transform="translate(1102.970703 0)"/>
     <use xlink:href="#DejaVuSans-68" transform="translate(1184.757812 0)"/>
     <use xlink:href="#DejaVuSans-69" transform="translate(1248.136719 0)"/>
     <use xlink:href="#DejaVuSans-6c" transform="translate(1275.919922 0)"/>
     <use xlink:href="#DejaVuSans-65" transform="translate(1303.703125 0)"/>
     <use xlink:href="#DejaVuSans-20" transform="translate(1365.226562 0)"/>
     <use xlink:href="#DejaVuSans-61" transform="translate(1397.013672 0)"/>
     <use xlink:href="#DejaVuSans-77" transform="translate(1458.292969 0)"/>
     <use xlink:href="#DejaVuSans-61" transform="translate(1540.080078 0)"/>
     <use xlink:href="#DejaVuSans-6b" transform="translate(1601.359375 0)"/>
     <use xlink:href="#DejaVuSans-65" transform="translate(1655.644531 0)"/>
    </g>
   </g>
   <g id="text_19">
    <!-- Circadian alerting is low overnight -->
    <g transform="translate(622.402917 356.845188) scale(0.12 -0.12)">
     <defs>
      <path id="DejaVuSans-43" d="M 4122 4306 
L 4122 3641 
Q 3803 3938 3442 4084 
Q 3081 4231 2675 4231 
Q 1875 4231 1450 3742 
Q 1025 3253 1025 2328 
Q 1025 1406 1450 917 
Q 1875 428 2675 428 
Q 3081 428 3442 575 
Q 3803 722 4122 1019 
L 4122 359 
Q 3791 134 3420 21 
Q 3050 -91 2638 -91 
Q 1578 -91 968 557 
Q 359 1206 359 2328 
Q 359 3453 968 4101 
Q 1578 4750 2638 4750 
Q 3056 4750 3426 4639 
Q 3797 4528 4122 4306 
z
" transform="scale(0.015625)"/>
      <path id="DejaVuSans-63" d="M 3122 3366 
L 3122 2828 
Q 2878 2963 2633 3030 
Q 2388 3097 2138 3097 
Q 1578 3097 1268 2742 
Q 959 2388 959 1747 
Q 959 1106 1268 751 
Q 1578 397 2138 397 
Q 2388 397 2633 464 
Q 2878 531 3122 666 
L 3122 134 
Q 2881 22 2623 -34 
Q 2366 -91 2075 -91 
Q 1284 -91 818 406 
Q 353 903 353 1747 
Q 353 2603 823 3093 
Q 1294 3584 2113 3584 
Q 2378 3584 2631 3529 
Q 2884 3475 3122 3366 
z
" transform="scale(0.015625)"/>
     </defs>
     <use xlink:href="#DejaVuSans-43"/>
     <use xlink:href="#DejaVuSans-69" transform="translate(69.824219 0)"/>
     <use xlink:href="#DejaVuSans-72" transform="translate(97.607422 0)"/>
     <use xlink:href="#DejaVuSans-63" transform="translate(136.470703 0)"/>
     <use xlink:href="#DejaVuSans-61" transform="translate(191.451172 0)"/>
     <use xlink:href="#DejaVuSans-64" transform="translate(252.730469 0)"/>
     <use xlink:href="#DejaVuSans-69" transform="translate(316.207031 0)"/>
     <use xlink:href="#DejaVuSans-61" transform="translate(343.990234 0)"/>
     <use xlink:href="#DejaVuSans-6e" transform="translate(405.269531 0)"/>
     <use xlink:href="#DejaVuSans-20" transform="translate(468.648438 0)"/>
     <use xlink:href="#DejaVuSans-61" transform="translate(500.435547 0)"/>
     <use xlink:href="#DejaVuSans-6c" transform="translate(561.714844 0)"/>
     <use xlink:href="#DejaVuSans-65" transform="translate(589.498047 0)"/>
     <use xlink:href="#DejaVuSans-72" transform="translate(651.021484 0)"/>
     <use xlink:href="#DejaVuSans-74" transform="translate(692.134766 0)"/>
     <use xlink:href="#DejaVuSans-69" transform="translate(731.34375 0)"/>
     <use xlink:href="#DejaVuSans-6e" transform="translate(759.126953 0)"/>
     <use xlink:href="#DejaVuSans-67" transform="translate(822.505859 0)"/>
     <use xlink:href="#DejaVuSans-20" transform="translate(885.982422 0)"/>
     <use xlink:href="#DejaVuSans-69" transform="translate(917.769531 0)"/>
     <use xlink:href="#DejaVuSans-73" transform="translate(945.552734 0)"/>
     <use xlink:href="#DejaVuSans-20" transform="translate(997.652344 0)"/>
     <use xlink:href="#DejaVuSans-6c" transform="translate(1029.439453 0)"/>
     <use xlink:href="#DejaVuSans-6f" transform="translate(1057.222656 0)"/>
     <use xlink:href="#DejaVuSans-77" transform="translate(1118.404297 0)"/>
     <use xlink:href="#DejaVuSans-20" transform="translate(1200.191406 0)"/>
     <use xlink:href="#DejaVuSans-6f" transform="translate(1231.978516 0)"/>
     <use xlink:href="#DejaVuSans-76" transform="translate(1293.160156 0)"/>
     <use xlink:href="#DejaVuSans-65" transform="translate(1352.339844 0)"/>
     <use xlink:href="#DejaVuSans-72" transform="translate(1413.863281 0)"/>
     <use xlink:href="#DejaVuSans-6e" transform="translate(1453.226562 0)"/>
     <use xlink:href="#DejaVuSans-69" transform="translate(1516.605469 0)"/>
     <use xlink:href="#DejaVuSans-67" transform="translate(1544.388672 0)"/>
     <use xlink:href="#DejaVuSans-68" transform="translate(1607.865234 0)"/>
     <use xlink:href="#DejaVuSans-74" transform="translate(1671.244141 0)"/>
    </g>
   </g>
   <g id="text_20">
    <!-- Figure 5.1 — Two-process model of sleep regulation -->
    <g transform="translate(196.629063 20.877187) scale(0.18 -0.18)">
     <defs>
      <path id="DejaVuSans-46" d="M 628 4666 
L 3309 4666 
L 3309 4134 
L 1259 4134 
L 1259 2759 
L 3109 2759 
L 3109 2228 
L 1259 2228 
L 1259 0 
L 628 0 
L 628 4666 
z
" transform="scale(0.015625)"/>
      <path id="DejaVuSans-35" d="M 691 4666 
L 3169 4666 
L 3169 4134 
L 1269 4134 
L 1269 2991 
Q 1406 3038 1543 3061 
Q 1681 3084 1819 3084 
Q 2600 3084 3056 2656 
Q 3513 2228 3513 1497 
Q 3513 744 3044 326 
Q 2575 -91 1722 -91 
Q 1428 -91 1123 -41 
Q 819 9 494 109 
L 494 744 
Q 775 591 1075 516 
Q 1375 441 1709 441 
Q 2250 441 2565 725 
Q 2881 1009 2881 1497 
Q 2881 1984 2565 2268 
Q 2250 2553 1709 2553 
Q 1456 2553 1204 2497 
Q 953 2441 691 2322 
L 691 4666 
z
" transform="scale(0.015625)"/>
      <path id="DejaVuSans-2014" d="M 313 1978 
L 6088 1978 
L 6088 1528 
L 313 1528 
L 313 1978 
z
" transform="scale(0.015625)"/>
      <path id="DejaVuSans-2d" d="M 313 2009 
L 1997 2009 
L 1997 1497 
L 313 1497 
L 313 2009 
z
" transform="scale(0.015625)"/>
     </defs>
     <use xlink:href="#DejaVuSans-46"/>
     <use xlink:href="#DejaVuSans-69" transform="translate(50.269531 0)"/>
     <use xlink:href="#DejaVuSans-67" transform="translate(78.052734 0)"/>
     <use xlink:href="#DejaVuSans-75" transform="translate(141.529297 0)"/>
     <use xlink:href="#DejaVuSans-72" transform="translate(204.908203 0)"/>
     <use xlink:href="#DejaVuSans-65" transform="translate(243.771484 0)"/>
     <use xlink:href="#DejaVuSans-20" transform="translate(305.294922 0)"/>
     <use xlink:href="#DejaVuSans-35" transform="translate(337.082031 0)"/>
     <use xlink:href="#DejaVuSans-2e" transform="translate(400.705078 0)"/>
     <use xlink:href="#DejaVuSans-31" transform="translate(432.492188 0)"/>
     <use xlink:href="#DejaVuSans-20" transform="translate(496.115234 0)"/>
     <use xlink:href="#DejaVuSans-2014" transform="translate(527.902344 0)"/>
     <use xlink:href="#DejaVuSans-20" transform="translate(627.902344 0)"/>
     <use xlink:href="#DejaVuSans-54" transform="translate(659.689453 0)"/>
     <use xlink:href="#DejaVuSans-77" transform="translate(704.273438 0)"/>
     <use xlink:href="#DejaVuSans-6f" transform="translate(786.060547 0)"/>
     <use xlink:href="#DejaVuSans-2d" transform="translate(849.117188 0)"/>
     <use xlink:href="#DejaVuSans-70" transform="translate(885.201172 0)"/>
     <use xlink:href="#DejaVuSans-72" transform="translate(948.677734 0)"/>
     <use xlink:href="#DejaVuSans-6f" transform="translate(987.541016 0)"/>
     <use xlink:href="#DejaVuSans-63" transform="translate(1048.722656 0)"/>
     <use xlink:href="#DejaVuSans-65" transform="translate(1103.703125 0)"/>
     <use xlink:href="#DejaVuSans-73" transform="translate(1165.226562 0)"/>
     <use xlink:href="#DejaVuSans-73" transform="translate(1217.326172 0)"/>
     <use xlink:href="#DejaVuSans-20" transform="translate(1269.425781 0)"/>
     <use xlink:href="#DejaVuSans-6d" transform="translate(1301.212891 0)"/>
     <use xlink:href="#DejaVuSans-6f" transform="translate(1398.625 0)"/>
     <use xlink:href="#DejaVuSans-64" transform="translate(1459.806641 0)"/>
     <use xlink:href="#DejaVuSans-65" transform="translate(1523.283203 0)"/>
     <use xlink:href="#DejaVuSans-6c" transform="translate(1584.806641 0)"/>
     <use xlink:href="#DejaVuSans-20" transform="translate(1612.589844 0)"/>
     <use xlink:href="#DejaVuSans-6f" transform="translate(1644.376953 0)"/>
     <use xlink:href="#DejaVuSans-66" transform="translate(1705.558594 0)"/>
     <use xlink:href="#DejaVuSans-20" transform="translate(1740.763672 0)"/>
     <use xlink:href="#DejaVuSans-73" transform="translate(1772.550781 0)"/>
     <use xlink:href="#DejaVuSans-6c" transform="translate(1824.650391 0)"/>
     <use xlink:href="#DejaVuSans-65" transform="translate(1852.433594 0)"/>
     <use xlink:href="#DejaVuSans-65" transform="translate(1913.957031 0)"/>
     <use xlink:href="#DejaVuSans-70" transform="translate(1975.480469 0)"/>
     <use xlink:href="#DejaVuSans-20" transform="translate(2038.957031 0)"/>
     <use xlink:href="#DejaVuSans-72" transform="translate(2070.744141 0)"/>
     <use xlink:href="#DejaVuSans-65" transform="translate(2109.607422 0)"/>
     <use xlink:href="#DejaVuSans-67" transform="translate(2171.130859 0)"/>
     <use xlink:href="#DejaVuSans-75" transform="translate(2234.607422 0)"/>
     <use xlink:href="#DejaVuSans-6c" transform="translate(2297.986328 0)"/>
     <use xlink:href="#DejaVuSans-61" transform="translate(2325.769531 0)"/>
     <use xlink:href="#DejaVuSans-74" transform="translate(2387.048828 0)"/>
     <use xlink:href="#DejaVuSans-69" transform="translate(2426.257812 0)"/>
     <use xlink:href="#DejaVuSans-6f" transform="translate(2454.041016 0)"/>
     <use xlink:href="#DejaVuSans-6e" transform="translate(2515.222656 0)"/>
    </g>
   </g>
   <g id="legend_1">
    <g id="line2d_31">
     <path d="M 58.4525 52.595313 
L 70.4525 52.595313 
L 82.4525 52.595313 
" style="fill: none; stroke: #1f77b4; stroke-width: 3; stroke-linecap: square"/>
    </g>
    <g id="text_21">
     <!-- Process S: sleep pressure -->
     <g transform="translate(92.0525 56.795313) scale(0.12 -0.12)">
      <defs>
       <path id="DejaVuSans-3a" d="M 750 794 
L 1409 794 
L 1409 0 
L 750 0 
L 750 794 
z
M 750 3309 
L 1409 3309 
L 1409 2516 
L 750 2516 
L 750 3309 
z
" transform="scale(0.015625)"/>
      </defs>
      <use xlink:href="#DejaVuSans-50"/>
      <use xlink:href="#DejaVuSans-72" transform="translate(58.552734 0)"/>
      <use xlink:href="#DejaVuSans-6f" transform="translate(97.416016 0)"/>
      <use xlink:href="#DejaVuSans-63" transform="translate(158.597656 0)"/>
      <use xlink:href="#DejaVuSans-65" transform="translate(213.578125 0)"/>
      <use xlink:href="#DejaVuSans-73" transform="translate(275.101562 0)"/>
      <use xlink:href="#DejaVuSans-73" transform="translate(327.201172 0)"/>
      <use xlink:href="#DejaVuSans-20" transform="translate(379.300781 0)"/>
      <use xlink:href="#DejaVuSans-53" transform="translate(411.087891 0)"/>
      <use xlink:href="#DejaVuSans-3a" transform="translate(474.564453 0)"/>
      <use xlink:href="#DejaVuSans-20" transform="translate(508.255859 0)"/>
      <use xlink:href="#DejaVuSans-73" transform="translate(540.042969 0)"/>
      <use xlink:href="#DejaVuSans-6c" transform="translate(592.142578 0)"/>
      <use xlink:href="#DejaVuSans-65" transform="translate(619.925781 0)"/>
      <use xlink:href="#DejaVuSans-65" transform="translate(681.449219 0)"/>
      <use xlink:href="#DejaVuSans-70" transform="translate(742.972656 0)"/>
      <use xlink:href="#DejaVuSans-20" transform="translate(806.449219 0)"/>
      <use xlink:href="#DejaVuSans-70" transform="translate(838.236328 0)"/>
      <use xlink:href="#DejaVuSans-72" transform="translate(901.712891 0)"/>
      <use xlink:href="#DejaVuSans-65" transform="translate(940.576172 0)"/>
      <use xlink:href="#DejaVuSans-73" transform="translate(1002.099609 0)"/>
      <use xlink:href="#DejaVuSans-73" transform="translate(1054.199219 0)"/>
      <use xlink:href="#DejaVuSans-75" transform="translate(1106.298828 0)"/>
      <use xlink:href="#DejaVuSans-72" transform="translate(1169.677734 0)"/>
      <use xlink:href="#DejaVuSans-65" transform="translate(1208.541016 0)"/>
     </g>
    </g>
    <g id="line2d_32">
     <path d="M 58.4525 70.209063 
L 70.4525 70.209063 
L 82.4525 70.209063 
" style="fill: none; stroke-dasharray: 11.1,4.8; stroke-dashoffset: 0; stroke: #ff7f0e; stroke-width: 3"/>
    </g>
    <g id="text_22">
     <!-- Process C: circadian alerting signal -->
     <g transform="translate(92.0525 74.409063) scale(0.12 -0.12)">
      <use xlink:href="#DejaVuSans-50"/>
      <use xlink:href="#DejaVuSans-72" transform="translate(58.552734 0)"/>
      <use xlink:href="#DejaVuSans-6f" transform="translate(97.416016 0)"/>
      <use xlink:href="#DejaVuSans-63" transform="translate(158.597656 0)"/>
      <use xlink:href="#DejaVuSans-65" transform="translate(213.578125 0)"/>
      <use xlink:href="#DejaVuSans-73" transform="translate(275.101562 0)"/>
      <use xlink:href="#DejaVuSans-73" transform="translate(327.201172 0)"/>
      <use xlink:href="#DejaVuSans-20" transform="translate(379.300781 0)"/>
      <use xlink:href="#DejaVuSans-43" transform="translate(411.087891 0)"/>
      <use xlink:href="#DejaVuSans-3a" transform="translate(480.912109 0)"/>
      <use xlink:href="#DejaVuSans-20" transform="translate(514.603516 0)"/>
      <use xlink:href="#DejaVuSans-63" transform="translate(546.390625 0)"/>
      <use xlink:href="#DejaVuSans-69" transform="translate(601.371094 0)"/>
      <use xlink:href="#DejaVuSans-72" transform="translate(629.154297 0)"/>
      <use xlink:href="#DejaVuSans-63" transform="translate(668.017578 0)"/>
      <use xlink:href="#DejaVuSans-61" transform="translate(722.998047 0)"/>
      <use xlink:href="#DejaVuSans-64" transform="translate(784.277344 0)"/>
      <use xlink:href="#DejaVuSans-69" transform="translate(847.753906 0)"/>
      <use xlink:href="#DejaVuSans-61" transform="translate(875.537109 0)"/>
      <use xlink:href="#DejaVuSans-6e" transform="translate(936.816406 0)"/>
      <use xlink:href="#DejaVuSans-20" transform="translate(1000.195312 0)"/>
      <use xlink:href="#DejaVuSans-61" transform="translate(1031.982422 0)"/>
      <use xlink:href="#DejaVuSans-6c" transform="translate(1093.261719 0)"/>
      <use xlink:href="#DejaVuSans-65" transform="translate(1121.044922 0)"/>
      <use xlink:href="#DejaVuSans-72" transform="translate(1182.568359 0)"/>
      <use xlink:href="#DejaVuSans-74" transform="translate(1223.681641 0)"/>
      <use xlink:href="#DejaVuSans-69" transform="translate(1262.890625 0)"/>
      <use xlink:href="#DejaVuSans-6e" transform="translate(1290.673828 0)"/>
      <use xlink:href="#DejaVuSans-67" transform="translate(1354.052734 0)"/>
      <use xlink:href="#DejaVuSans-20" transform="translate(1417.529297 0)"/>
      <use xlink:href="#DejaVuSans-73" transform="translate(1449.316406 0)"/>
      <use xlink:href="#DejaVuSans-69" transform="translate(1501.416016 0)"/>
      <use xlink:href="#DejaVuSans-67" transform="translate(1529.199219 0)"/>
      <use xlink:href="#DejaVuSans-6e" transform="translate(1592.675781 0)"/>
      <use xlink:href="#DejaVuSans-61" transform="translate(1656.054688 0)"/>
      <use xlink:href="#DejaVuSans-6c" transform="translate(1717.333984 0)"/>
     </g>
    </g>
    <g id="patch_6">
     <path d="M 58.4525 92.022813 
L 82.4525 92.022813 
L 82.4525 83.622813 
L 58.4525 83.622813 
z
" style="fill: #1f77b4; opacity: 0.12"/>
    </g>
    <g id="text_23">
     <!-- Typical sleep period -->
     <g transform="translate(92.0525 92.022813) scale(0.12 -0.12)">
      <use xlink:href="#DejaVuSans-54"/>
      <use xlink:href="#DejaVuSans-79" transform="translate(45.458984 0)"/>
      <use xlink:href="#DejaVuSans-70" transform="translate(104.638672 0)"/>
      <use xlink:href="#DejaVuSans-69" transform="translate(168.115234 0)"/>
      <use xlink:href="#DejaVuSans-63" transform="translate(195.898438 0)"/>
      <use xlink:href="#DejaVuSans-61" transform="translate(250.878906 0)"/>
      <use xlink:href="#DejaVuSans-6c" transform="translate(312.158203 0)"/>
      <use xlink:href="#DejaVuSans-20" transform="translate(339.941406 0)"/>
      <use xlink:href="#DejaVuSans-73" transform="translate(371.728516 0)"/>
      <use xlink:href="#DejaVuSans-6c" transform="translate(423.828125 0)"/>
      <use xlink:href="#DejaVuSans-65" transform="translate(451.611328 0)"/>
      <use xlink:href="#DejaVuSans-65" transform="translate(513.134766 0)"/>
      <use xlink:href="#DejaVuSans-70" transform="translate(574.658203 0)"/>
      <use xlink:href="#DejaVuSans-20" transform="translate(638.134766 0)"/>
      <use xlink:href="#DejaVuSans-70" transform="translate(669.921875 0)"/>
      <use xlink:href="#DejaVuSans-65" transform="translate(733.398438 0)"/>
      <use xlink:href="#DejaVuSans-72" transform="translate(794.921875 0)"/>
      <use xlink:href="#DejaVuSans-69" transform="translate(836.035156 0)"/>
      <use xlink:href="#DejaVuSans-6f" transform="translate(863.818359 0)"/>
      <use xlink:href="#DejaVuSans-64" transform="translate(925 0)"/>
     </g>
    </g>
   </g>
  </g>
 </g>
 <defs>
  <clipPath id="p49e3c16e92">
   <rect x="47.6525" y="36.877187" width="762.1" height="399.96"/>
  </clipPath>
 </defs>
</svg>
