<svg xmlns="http://www.w3.org/2000/svg" viewBox="0 0 1600 900" role="img" aria-labelledby="title desc">
  <title id="title">How light sets the body clock</title>
  <desc id="desc">Biology-style pathway diagram showing light entering the retina, signals traveling through the retinohypothalamic tract to the SCN master clock, then through a sympathetic pathway to the pineal gland, where melatonin rises in darkness.</desc>
  <defs>
    <linearGradient id="brainGrad" x1="0" x2="1" y1="0" y2="1">
      <stop offset="0" stop-color="#f7d0b7"/>
      <stop offset="0.55" stop-color="#f1b994"/>
      <stop offset="1" stop-color="#d98d68"/>
    </linearGradient>
    <radialGradient id="eyeGrad" cx="55%" cy="50%" r="65%">
      <stop offset="0" stop-color="#ffd982"/>
      <stop offset="0.65" stop-color="#d97c3b"/>
      <stop offset="1" stop-color="#8f4326"/>
    </radialGradient>
    <linearGradient id="nightGrad" x1="0" x2="1">
      <stop offset="0" stop-color="#fff2bd"/>
      <stop offset="0.35" stop-color="#173d68"/>
      <stop offset="0.72" stop-color="#173d68"/>
      <stop offset="1" stop-color="#fff2bd"/>
    </linearGradient>
    <marker id="arrowBlue" markerWidth="12" markerHeight="12" refX="10" refY="6" orient="auto">
      <path d="M0,0 L12,6 L0,12 Z" fill="#1d5d93"/>
    </marker>
    <marker id="arrowGreen" markerWidth="12" markerHeight="12" refX="10" refY="6" orient="auto">
      <path d="M0,0 L12,6 L0,12 Z" fill="#3c7f34"/>
    </marker>
    <style>
      .title{font:700 46px Arial, Helvetica, sans-serif; fill:#12345c;}
      .label{font:700 27px Arial, Helvetica, sans-serif; fill:#111;}
      .small{font:400 21px Arial, Helvetica, sans-serif; fill:#111;}
      .tiny{font:400 17px Arial, Helvetica, sans-serif; fill:#111;}
      .step{font:700 22px Arial, Helvetica, sans-serif; fill:#fff;}
      .note{font:400 18px Arial, Helvetica, sans-serif; fill:#111;}
      .pathBlue{fill:none; stroke:#1d5d93; stroke-width:16; stroke-linecap:round; marker-end:url(#arrowBlue);}
      .pathGreen{fill:none; stroke:#3c7f34; stroke-width:8; stroke-linecap:round; marker-end:url(#arrowGreen);}
      .thin{fill:none; stroke:#222; stroke-width:3;}
      .soft{fill:#fff; stroke:#bfc7d1; stroke-width:3;}
    </style>
  </defs>

  <rect width="1600" height="900" fill="#fff"/>
  <text x="800" y="72" text-anchor="middle" class="title">How Light Sets the Body Clock</text>

  <!-- Sun and light arrows -->
  <circle cx="73" cy="270" r="43" fill="#ffc93a" stroke="#e0a900" stroke-width="4"/>
  <g stroke="#ffc93a" stroke-width="7" stroke-linecap="round">
    <line x1="73" y1="202" x2="73" y2="173"/><line x1="73" y1="338" x2="73" y2="367"/>
    <line x1="5" y1="270" x2="34" y2="270"/><line x1="112" y1="270" x2="141" y2="270"/>
    <line x1="25" y1="222" x2="45" y2="242"/><line x1="101" y1="298" x2="121" y2="318"/>
    <line x1="25" y1="318" x2="45" y2="298"/><line x1="101" y1="242" x2="121" y2="222"/>
  </g>
  <text x="72" y="370" text-anchor="middle" class="label">Light</text>
  <g stroke="#f2b72f" stroke-width="7" marker-end="url(#arrowBlue)">
    <line x1="125" y1="250" x2="205" y2="250"/><line x1="125" y1="280" x2="205" y2="280"/><line x1="125" y1="310" x2="205" y2="310"/>
  </g>

  <!-- Eye -->
  <ellipse cx="288" cy="285" rx="128" ry="103" fill="url(#eyeGrad)" stroke="#6b3a2b" stroke-width="5"/>
  <ellipse cx="225" cy="285" rx="42" ry="88" fill="#e8f2f6" stroke="#8098a8" stroke-width="5"/>
  <ellipse cx="214" cy="285" rx="21" ry="67" fill="#ffffff" opacity="0.9"/>
  <path d="M250 206 C270 255 270 315 250 366" fill="none" stroke="#bf4f36" stroke-width="5"/>
  <path d="M330 215 C360 250 365 320 330 355" fill="none" stroke="#243f66" stroke-width="4"/>
  <path d="M405 285 C455 282 470 286 500 300" fill="none" stroke="#d48b35" stroke-width="24" stroke-linecap="round"/>
  <circle cx="282" cy="285" r="108" fill="none" stroke="#f5c16d" stroke-width="5" opacity="0.7"/>
  <text x="286" y="445" text-anchor="middle" class="label">Retina</text>
  <text x="286" y="477" text-anchor="middle" class="small">melanopsin-sensitive cells</text>
  <line x1="279" y1="386" x2="252" y2="424" class="thin"/>

  <!-- RHT pathway -->
  <path d="M485 300 C570 318 610 242 700 267 C780 289 842 322 930 309" class="pathBlue"/>
  <text x="500" y="395" text-anchor="middle" class="label">RHT pathway</text>
  <text x="500" y="426" text-anchor="middle" class="small">light signal to the brain</text>

  <!-- Large brain -->
  <path d="M725 168 C645 182 588 253 604 338 C621 424 716 470 816 449 C871 490 952 475 994 418 C1078 401 1119 327 1094 253 C1071 185 1005 147 928 156 C881 121 794 126 725 168 Z" fill="url(#brainGrad)" stroke="#8d5f4b" stroke-width="4"/>
  <path d="M662 263 C709 229 764 227 808 261 C849 217 936 223 974 272 C1016 274 1048 309 1041 351" fill="none" stroke="#b87961" stroke-width="5" opacity="0.9"/>
  <path d="M675 336 C734 312 777 321 812 360 C861 331 930 338 961 383" fill="none" stroke="#b87961" stroke-width="5" opacity="0.9"/>
  <path d="M730 194 C786 181 833 194 861 225 C909 205 979 224 1004 264" fill="none" stroke="#b87961" stroke-width="5" opacity="0.75"/>
  <path d="M804 448 C785 512 797 565 848 607" fill="#e6b391" stroke="#8d5f4b" stroke-width="4"/>
  <circle cx="817" cy="334" r="17" fill="#8b55c7" stroke="#563184" stroke-width="4"/>
  <rect x="782" y="298" width="70" height="70" fill="none" stroke="#111" stroke-width="4"/>
  <line x1="817" y1="334" x2="705" y2="532" class="thin"/>
  <text x="705" y="565" text-anchor="middle" class="label">SCN</text>
  <text x="705" y="596" text-anchor="middle" class="small">master circadian clock</text>

  <!-- sympathetic pathway -->
  <path d="M910 374 C1005 425 1120 444 1208 420 C1270 403 1315 370 1356 330" class="pathGreen"/>
  <g fill="#6eaa58" stroke="#2f6d2e" stroke-width="3">
    <circle cx="978" cy="410" r="10"/><circle cx="1038" cy="432" r="10"/><circle cx="1106" cy="438" r="10"/><circle cx="1170" cy="424" r="10"/><circle cx="1253" cy="386" r="10"/>
  </g>
  <text x="1110" y="500" text-anchor="middle" class="label">Sympathetic pathway</text>

  <!-- Smaller brain and pineal -->
  <path d="M1227 180 C1171 193 1133 242 1145 302 C1157 361 1224 392 1293 377 C1333 407 1392 396 1421 355 C1481 344 1511 292 1494 242 C1478 194 1428 167 1371 174 C1336 149 1276 151 1227 180 Z" fill="url(#brainGrad)" stroke="#8d5f4b" stroke-width="4"/>
  <path d="M1287 377 C1274 424 1283 466 1320 494" fill="#e6b391" stroke="#8d5f4b" stroke-width="4"/>
  <circle cx="1349" cy="300" r="15" fill="#8b55c7" stroke="#563184" stroke-width="4"/>
  <text x="1428" y="142" text-anchor="middle" class="label">Pineal gland</text>
  <line x1="1410" y1="154" x2="1350" y2="286" class="thin"/>
  <path d="M1349 318 C1345 356 1346 385 1354 421" fill="none" stroke="#111" stroke-width="4" marker-end="url(#arrowGreen)"/>
  <g fill="#8b55c7" opacity="0.86">
    <circle cx="1300" cy="438" r="8"/><circle cx="1328" cy="420" r="9"/><circle cx="1360" cy="443" r="11"/><circle cx="1395" cy="424" r="8"/>
    <circle cx="1320" cy="470" r="7"/><circle cx="1375" cy="475" r="7"/><circle cx="1347" cy="505" r="10"/><circle cx="1416" cy="462" r="7"/>
  </g>
  <text x="1408" y="398" class="label">Melatonin</text>
  <text x="1408" y="431" class="small">rises in darkness</text>

  <!-- Step list -->
  <g transform="translate(105,645)">
    <circle cx="20" cy="0" r="18" fill="#12345c"/><text x="20" y="8" text-anchor="middle" class="step">1</text><text x="56" y="8" class="small">Light enters the eye.</text>
    <circle cx="20" cy="45" r="18" fill="#12345c"/><text x="20" y="53" text-anchor="middle" class="step">2</text><text x="56" y="53" class="small">Signals travel via the retinohypothalamic tract.</text>
    <circle cx="20" cy="90" r="18" fill="#12345c"/><text x="20" y="98" text-anchor="middle" class="step">3</text><text x="56" y="98" class="small">The SCN acts as the body’s master clock.</text>
    <circle cx="20" cy="135" r="18" fill="#12345c"/><text x="20" y="143" text-anchor="middle" class="step">4</text><text x="56" y="143" class="small">The SCN sends signals toward the pineal gland.</text>
    <circle cx="20" cy="180" r="18" fill="#12345c"/><text x="20" y="188" text-anchor="middle" class="step">5</text><text x="56" y="188" class="small">Melatonin rises in darkness and falls with light.</text>
  </g>

  <!-- Melatonin graph -->
  <g transform="translate(990,575)">
    <rect x="0" y="0" width="500" height="255" rx="20" class="soft"/>
    <text x="250" y="38" text-anchor="middle" class="label">Melatonin over 24 hours</text>
    <rect x="70" y="70" width="360" height="130" fill="url(#nightGrad)" opacity="0.96"/>
    <line x1="70" y1="205" x2="430" y2="205" stroke="#111" stroke-width="3"/>
    <line x1="70" y1="70" x2="70" y2="205" stroke="#111" stroke-width="3"/>
    <path d="M75 195 C130 196 154 190 182 150 C216 102 276 90 316 128 C356 166 366 198 430 195" fill="none" stroke="#8b55c7" stroke-width="6"/>
    <text x="45" y="82" text-anchor="end" class="tiny">High</text><text x="45" y="208" text-anchor="end" class="tiny">Low</text>
    <text x="135" y="226" text-anchor="middle" class="tiny">6 PM</text><text x="250" y="226" text-anchor="middle" class="tiny">12 AM</text><text x="365" y="226" text-anchor="middle" class="tiny">6 AM</text>
    <text x="118" y="104" text-anchor="middle" class="small">Day</text><text x="250" y="104" text-anchor="middle" class="small" fill="#fff">Night</text><text x="388" y="104" text-anchor="middle" class="small">Day</text>
  </g>

  <text x="35" y="870" class="tiny">SCN = suprachiasmatic nucleus; RHT = retinohypothalamic tract.</text>
</svg>
